<?xml version="1.0" encoding="UTF-8"?><svg id="Ebene_2" xmlns="http://www.w3.org/2000/svg" xmlns:xlink="http://www.w3.org/1999/xlink" viewBox="0 0 382.45 96"><defs><style>.cls-1{fill:none;}.cls-2{fill:url(#Unbenannter_Verlauf_2);}.cls-3{fill:url(#Unbenannter_Verlauf_4);}.cls-4{fill:url(#Unbenannter_Verlauf_3);}.cls-5{fill:url(#Unbenannter_Verlauf_9);}.cls-6{fill:#fff;}.cls-7{fill:rgba(39,43,56,.45);}.cls-8{fill:url(#Unbenannter_Verlauf_2-7);}.cls-9{fill:url(#Unbenannter_Verlauf_2-9);}.cls-10{fill:url(#Unbenannter_Verlauf_2-6);}.cls-11{fill:url(#Unbenannter_Verlauf_2-8);}.cls-12{fill:url(#Unbenannter_Verlauf_2-4);}.cls-13{fill:url(#Unbenannter_Verlauf_2-5);}.cls-14{fill:url(#Unbenannter_Verlauf_2-2);}.cls-15{fill:url(#Unbenannter_Verlauf_2-3);}.cls-16{clip-path:url(#clippath);}</style><clipPath id="clippath"><rect class="cls-1" width="96" height="96"/></clipPath><linearGradient id="Unbenannter_Verlauf_9" x1="-657.36" y1="-1369.74" x2="-657.36" y2="-1273.74" gradientTransform="translate(705.36 -1273.74) scale(1 -1)" gradientUnits="userSpaceOnUse"><stop offset="0" stop-color="#424756"/><stop offset=".31" stop-color="#505565"/><stop offset=".42" stop-color="#5f6475"/><stop offset=".61" stop-color="#747a8b"/><stop offset=".73" stop-color="#7c8394"/><stop offset=".88" stop-color="#757c8c"/><stop offset="1" stop-color="#6e7484"/></linearGradient><radialGradient id="Unbenannter_Verlauf_4" cx="-1584.77" cy="2358" fx="-1584.77" fy="2358" r="1" gradientTransform="translate(-113136.22 76116.74) rotate(90) scale(48 -48)" gradientUnits="userSpaceOnUse"><stop offset=".8" stop-color="#272b38" stop-opacity="0"/><stop offset=".85" stop-color="#272b38" stop-opacity=".04"/><stop offset=".88" stop-color="#272b38" stop-opacity=".09"/><stop offset=".91" stop-color="#272b38" stop-opacity=".15"/><stop offset=".96" stop-color="#272b38" stop-opacity=".34"/></radialGradient><linearGradient id="Unbenannter_Verlauf_3" x1="-657.36" y1="-1369.74" x2="-657.36" y2="-1273.74" gradientTransform="translate(705.36 -1273.74) scale(1 -1)" gradientUnits="userSpaceOnUse"><stop offset="0" stop-color="#6d6e7c"/><stop offset=".17" stop-color="#7a7c8a"/><stop offset=".51" stop-color="#9ea2b1"/><stop offset=".67" stop-color="#b3b8c7"/></linearGradient><linearGradient id="Unbenannter_Verlauf_2" x1="-657.36" y1="-1297.74" x2="-657.36" y2="-1345.24" gradientTransform="translate(705.36 -1273.74) scale(1 -1)" gradientUnits="userSpaceOnUse"><stop offset=".4" stop-color="#fff"/><stop offset=".54" stop-color="#eaeaec"/><stop offset=".84" stop-color="#c4c6cb"/><stop offset=".99" stop-color="#b6b8bf"/></linearGradient><linearGradient id="Unbenannter_Verlauf_2-2" x1="-642.36" x2="-642.36" xlink:href="#Unbenannter_Verlauf_2"/><linearGradient id="Unbenannter_Verlauf_2-3" x1="-672.36" y1="-1297.74" x2="-672.36" xlink:href="#Unbenannter_Verlauf_2"/><linearGradient id="Unbenannter_Verlauf_2-4" x1="-636.36" x2="-636.36" xlink:href="#Unbenannter_Verlauf_2"/><linearGradient id="Unbenannter_Verlauf_2-5" x1="-636.36" x2="-636.36" xlink:href="#Unbenannter_Verlauf_2"/><linearGradient id="Unbenannter_Verlauf_2-6" x1="-666.36" y1="-1297.74" x2="-666.36" y2="-1345.24" xlink:href="#Unbenannter_Verlauf_2"/><linearGradient id="Unbenannter_Verlauf_2-7" x1="-642.36" y1="-1297.74" x2="-642.36" y2="-1345.24" xlink:href="#Unbenannter_Verlauf_2"/><linearGradient id="Unbenannter_Verlauf_2-8" x1="-672.36" y1="-1297.74" x2="-672.36" y2="-1345.24" xlink:href="#Unbenannter_Verlauf_2"/><linearGradient id="Unbenannter_Verlauf_2-9" y1="-1297.74" y2="-1345.24" xlink:href="#Unbenannter_Verlauf_2"/></defs><g id="Logos_final"><path class="cls-6" d="M130.86,55.78h6.31l15.06,34.63h-8.61l-2.98-7.34h-13.45l-2.89,7.34h-8.41l14.97-34.63ZM133.8,65.86l-4.21,10.76h8.46l-4.26-10.76Z"/><path class="cls-6" d="M169.13,73.64c-1.08-1.34-2.49-2.01-4.26-2.01-.62,0-1.22.15-1.81.44-.59.29-.88.8-.88,1.52,0,.59.3,1.02.9,1.3.6.28,1.37.52,2.3.73.93.21,1.92.44,2.98.68,1.06.24,2.05.63,2.98,1.15.93.52,1.7,1.23,2.3,2.13.6.9.9,2.1.9,3.59s-.33,2.8-1,3.79c-.67,1-1.52,1.79-2.57,2.4-1.04.6-2.22,1.03-3.52,1.27-1.3.24-2.59.37-3.86.37-1.66,0-3.34-.24-5.04-.71-1.7-.47-3.13-1.31-4.3-2.52l4.45-4.94c.68.85,1.44,1.49,2.27,1.93.83.44,1.8.66,2.91.66.85,0,1.61-.12,2.3-.37.68-.24,1.03-.69,1.03-1.35,0-.62-.3-1.08-.9-1.39-.6-.31-1.37-.57-2.3-.78-.93-.21-1.92-.44-2.98-.68-1.06-.24-2.05-.61-2.98-1.1-.93-.49-1.7-1.18-2.3-2.08-.6-.9-.9-2.09-.9-3.59,0-1.4.29-2.61.86-3.62.57-1.01,1.32-1.84,2.25-2.49.93-.65,2-1.13,3.2-1.44,1.21-.31,2.43-.46,3.67-.46,1.57,0,3.15.23,4.74.68,1.6.46,2.95,1.27,4.06,2.45l-4.5,4.45Z"/><path class="cls-6" d="M192.07,73.64c-1.08-1.34-2.49-2.01-4.26-2.01-.62,0-1.22.15-1.81.44-.59.29-.88.8-.88,1.52,0,.59.3,1.02.9,1.3.6.28,1.37.52,2.3.73.93.21,1.92.44,2.98.68,1.06.24,2.05.63,2.98,1.15.93.52,1.7,1.23,2.3,2.13.6.9.9,2.1.9,3.59s-.33,2.8-1,3.79c-.67,1-1.52,1.79-2.57,2.4-1.04.6-2.22,1.03-3.52,1.27-1.3.24-2.59.37-3.86.37-1.66,0-3.34-.24-5.04-.71-1.7-.47-3.13-1.31-4.3-2.52l4.45-4.94c.68.85,1.44,1.49,2.27,1.93.83.44,1.8.66,2.91.66.85,0,1.61-.12,2.3-.37.68-.24,1.03-.69,1.03-1.35,0-.62-.3-1.08-.9-1.39-.6-.31-1.37-.57-2.3-.78-.93-.21-1.92-.44-2.98-.68-1.06-.24-2.05-.61-2.98-1.1-.93-.49-1.7-1.18-2.3-2.08-.6-.9-.9-2.09-.9-3.59,0-1.4.29-2.61.86-3.62.57-1.01,1.32-1.84,2.25-2.49.93-.65,2-1.13,3.2-1.44,1.21-.31,2.43-.46,3.67-.46,1.57,0,3.15.23,4.74.68,1.6.46,2.95,1.27,4.06,2.45l-4.5,4.45Z"/><path class="cls-6" d="M200.66,78.53c0-1.89.34-3.6,1.03-5.14.68-1.53,1.62-2.84,2.81-3.94,1.19-1.09,2.59-1.93,4.21-2.52s3.33-.88,5.16-.88,3.55.29,5.16.88,3.02,1.43,4.21,2.52c1.19,1.09,2.13,2.4,2.81,3.94.68,1.53,1.03,3.25,1.03,5.14s-.34,3.6-1.03,5.14c-.68,1.53-1.62,2.85-2.81,3.94-1.19,1.09-2.59,1.93-4.21,2.52-1.61.59-3.33.88-5.16.88s-3.55-.29-5.16-.88c-1.61-.59-3.02-1.43-4.21-2.52-1.19-1.09-2.13-2.4-2.81-3.94-.68-1.53-1.03-3.24-1.03-5.14ZM208,78.53c0,1.79.51,3.25,1.54,4.35,1.03,1.11,2.47,1.66,4.33,1.66s3.3-.55,4.33-1.66c1.03-1.11,1.54-2.56,1.54-4.35s-.51-3.24-1.54-4.35c-1.03-1.11-2.47-1.66-4.33-1.66s-3.3.55-4.33,1.66c-1.03,1.11-1.54,2.56-1.54,4.35Z"/><path class="cls-6" d="M247.53,74.32c-.36-.52-.86-.95-1.52-1.3-.65-.34-1.35-.51-2.1-.51-1.86,0-3.3.55-4.33,1.66-1.03,1.11-1.54,2.56-1.54,4.35s.51,3.25,1.54,4.35c1.03,1.11,2.47,1.66,4.33,1.66.81,0,1.52-.18,2.1-.54.59-.36,1.09-.78,1.52-1.27l4.84,5.09c-1.14,1.17-2.49,2-4.04,2.47-1.55.47-3.03.71-4.43.71-1.83,0-3.55-.29-5.16-.88-1.61-.59-3.02-1.43-4.21-2.52-1.19-1.09-2.13-2.4-2.81-3.94-.68-1.53-1.03-3.24-1.03-5.14s.34-3.6,1.03-5.14c.68-1.53,1.62-2.84,2.81-3.94,1.19-1.09,2.59-1.93,4.21-2.52s3.33-.88,5.16-.88c1.4,0,2.88.24,4.43.71,1.55.47,2.89,1.3,4.04,2.47l-4.84,5.09Z"/><path class="cls-6" d="M255.04,59.16c0-1.17.42-2.18,1.25-3.01.83-.83,1.83-1.25,3.01-1.25s2.18.42,3.01,1.25c.83.83,1.25,1.83,1.25,3.01s-.42,2.18-1.25,3.01c-.83.83-1.83,1.25-3.01,1.25s-2.18-.42-3.01-1.25c-.83-.83-1.25-1.83-1.25-3.01ZM255.63,66.64h7.34v23.77h-7.34v-23.77Z"/><path class="cls-6" d="M283.58,87.43h-.1c-.82,1.27-1.9,2.18-3.25,2.74-1.35.55-2.78.83-4.28.83-1.11,0-2.18-.16-3.2-.46-1.03-.31-1.93-.77-2.71-1.39-.78-.62-1.4-1.39-1.86-2.3-.46-.91-.68-1.97-.68-3.18,0-1.37.25-2.53.76-3.47.51-.95,1.19-1.73,2.05-2.35.86-.62,1.85-1.1,2.96-1.44,1.11-.34,2.26-.59,3.45-.76,1.19-.16,2.38-.26,3.57-.29,1.19-.03,2.29-.05,3.3-.05,0-1.3-.46-2.34-1.39-3.11-.93-.77-2.03-1.15-3.3-1.15s-2.31.25-3.3.76c-1,.51-1.88,1.2-2.67,2.08l-3.91-4.01c1.37-1.27,2.97-2.23,4.79-2.86,1.83-.64,3.72-.95,5.67-.95,2.15,0,3.92.27,5.31.81,1.39.54,2.49,1.33,3.33,2.37.83,1.04,1.41,2.32,1.74,3.84.33,1.52.49,3.27.49,5.26v12.08h-6.75v-2.98ZM281.77,79.99c-.55,0-1.25.02-2.08.07s-1.63.19-2.4.42c-.77.23-1.42.57-1.96,1.03-.54.46-.81,1.09-.81,1.91,0,.88.37,1.53,1.13,1.96.75.42,1.53.64,2.35.64.72,0,1.41-.1,2.08-.29.67-.2,1.26-.47,1.79-.83.52-.36.94-.81,1.25-1.37.31-.55.46-1.21.46-1.96v-1.57h-1.81Z"/><path class="cls-6" d="M311.61,72.51h-6.46v7.92c0,.65.03,1.25.1,1.79.06.54.21,1,.44,1.39.23.39.58.69,1.05.9.47.21,1.1.32,1.88.32.39,0,.9-.04,1.54-.12.64-.08,1.12-.27,1.44-.56v6.11c-.82.29-1.66.49-2.54.59-.88.1-1.74.15-2.59.15-1.24,0-2.38-.13-3.42-.39-1.04-.26-1.96-.68-2.74-1.25-.78-.57-1.39-1.31-1.83-2.23-.44-.91-.66-2.02-.66-3.33v-11.3h-4.7v-5.87h4.7v-7.04h7.34v7.04h6.46v5.87Z"/><path class="cls-6" d="M315.83,59.16c0-1.17.42-2.18,1.25-3.01.83-.83,1.83-1.25,3.01-1.25s2.18.42,3.01,1.25c.83.83,1.25,1.83,1.25,3.01s-.42,2.18-1.25,3.01-1.83,1.25-3.01,1.25-2.18-.42-3.01-1.25c-.83-.83-1.25-1.83-1.25-3.01ZM316.42,66.64h7.34v23.77h-7.34v-23.77Z"/><path class="cls-6" d="M328.42,78.53c0-1.89.34-3.6,1.03-5.14.68-1.53,1.62-2.84,2.81-3.94,1.19-1.09,2.59-1.93,4.21-2.52,1.61-.59,3.33-.88,5.16-.88s3.55.29,5.16.88c1.61.59,3.02,1.43,4.21,2.52,1.19,1.09,2.13,2.4,2.81,3.94.69,1.53,1.03,3.25,1.03,5.14s-.34,3.6-1.03,5.14c-.68,1.53-1.62,2.85-2.81,3.94-1.19,1.09-2.59,1.93-4.21,2.52-1.61.59-3.33.88-5.16.88s-3.55-.29-5.16-.88c-1.61-.59-3.02-1.43-4.21-2.52-1.19-1.09-2.13-2.4-2.81-3.94-.68-1.53-1.03-3.24-1.03-5.14ZM335.75,78.53c0,1.79.51,3.25,1.54,4.35,1.03,1.11,2.47,1.66,4.33,1.66s3.3-.55,4.33-1.66c1.03-1.11,1.54-2.56,1.54-4.35s-.51-3.24-1.54-4.35c-1.03-1.11-2.47-1.66-4.33-1.66s-3.3.55-4.33,1.66c-1.03,1.11-1.54,2.56-1.54,4.35Z"/><path class="cls-6" d="M359.56,66.64h7.04v3.23h.1c.23-.46.55-.91.98-1.37.42-.46.93-.86,1.52-1.22.59-.36,1.25-.65,2.01-.88.75-.23,1.56-.34,2.45-.34,1.86,0,3.36.29,4.5.86,1.14.57,2.03,1.36,2.67,2.37.64,1.01,1.07,2.2,1.3,3.57.23,1.37.34,2.85.34,4.45v13.11h-7.34v-11.64c0-.68-.02-1.39-.07-2.13-.05-.73-.2-1.41-.44-2.03-.24-.62-.62-1.12-1.12-1.52-.51-.39-1.23-.59-2.18-.59s-1.71.17-2.3.51c-.59.34-1.04.8-1.35,1.37-.31.57-.51,1.22-.61,1.93-.1.72-.15,1.47-.15,2.25v11.84h-7.34v-23.77Z"/><path class="cls-6" d="M142.09,40.51h-6.75v-3.13h-.1c-.29.43-.68.86-1.15,1.29-.47.43-1.02.84-1.66,1.19-.65.35-1.33.65-2.11.88-.76.23-1.57.35-2.37.35-1.76,0-3.37-.29-4.79-.9s-2.66-1.45-3.7-2.54c-1.04-1.1-1.82-2.39-2.37-3.89-.55-1.51-.82-3.15-.82-4.95,0-1.66.25-3.25.76-4.77.51-1.51,1.21-2.86,2.15-4.03.94-1.17,2.05-2.11,3.4-2.82,1.33-.7,2.86-1.06,4.54-1.06,1.53,0,2.95.23,4.28.7,1.33.47,2.41,1.27,3.25,2.43h.1V5.86h7.34v34.65ZM135.34,28.63c0-1.8-.51-3.25-1.55-4.36-1.02-1.12-2.47-1.66-4.32-1.66s-3.31.55-4.32,1.66c-1.02,1.12-1.55,2.56-1.55,4.36s.51,3.25,1.55,4.34c1.02,1.12,2.47,1.66,4.32,1.66s3.31-.55,4.32-1.66c1.02-1.12,1.55-2.56,1.55-4.34Z"/><path class="cls-6" d="M149.42,5.88h23.52v7.04h-15.89v6.46h15.01v7.04h-15.01v7.04h16.77v7.04h-24.4V5.88Z"/><path class="cls-6" d="M208.6,27.17c0,2.05-.31,3.95-.94,5.67-.63,1.72-1.55,3.23-2.76,4.5-1.21,1.27-2.74,2.27-4.58,2.97-1.82.72-3.93,1.08-6.32,1.08s-4.54-.35-6.36-1.08c-1.82-.72-3.35-1.72-4.58-2.97-1.23-1.25-2.15-2.78-2.76-4.5-.63-1.72-.94-3.62-.94-5.67V5.88h7.63v20.97c0,1.08.18,2.07.51,2.99.35.92.82,1.7,1.45,2.37.63.67,1.37,1.19,2.23,1.57.86.37,1.8.57,2.82.57s1.94-.2,2.8-.57c.84-.37,1.58-.9,2.19-1.57.63-.67,1.1-1.47,1.45-2.37.33-.92.51-1.92.51-2.99V5.88h7.63v21.29h.02Z"/><path class="cls-6" d="M215.25,5.88h13.4c1.76,0,3.42.18,5.01.51,1.58.35,2.97.92,4.15,1.72,1.19.8,2.13,1.88,2.84,3.23.7,1.35,1.06,3.03,1.06,5.07,0,2.45-.65,4.52-1.92,6.24-1.27,1.72-3.13,2.8-5.58,3.25l8.8,14.63h-9.14l-7.24-13.83h-3.76v13.83h-7.63V5.88ZM222.88,20.22h4.5c.68,0,1.41-.02,2.17-.08.76-.04,1.47-.2,2.07-.43s1.13-.63,1.55-1.15c.41-.53.61-1.25.61-2.19,0-.88-.18-1.58-.53-2.09-.35-.53-.82-.92-1.37-1.19-.55-.27-1.19-.47-1.9-.57-.72-.1-1.43-.14-2.11-.14h-4.99v7.87-.02Z"/><path class="cls-6" d="M245.36,23.2c0-2.78.47-5.28,1.39-7.53.94-2.25,2.23-4.17,3.89-5.75,1.66-1.58,3.64-2.8,5.93-3.64,2.29-.84,4.77-1.27,7.47-1.27s5.2.43,7.49,1.27c2.29.84,4.25,2.05,5.91,3.64,1.66,1.58,2.95,3.5,3.89,5.75.94,2.25,1.39,4.75,1.39,7.53s-.47,5.28-1.39,7.53c-.92,2.25-2.23,4.17-3.89,5.75-1.66,1.58-3.64,2.8-5.91,3.64-2.29.84-4.77,1.27-7.49,1.27s-5.2-.43-7.47-1.27c-2.29-.84-4.27-2.05-5.93-3.64-1.66-1.58-2.95-3.5-3.89-5.75s-1.39-4.75-1.39-7.53ZM253.28,23.2c0,1.62.25,3.13.76,4.48s1.23,2.52,2.17,3.52c.94,1,2.07,1.76,3.4,2.33,1.31.55,2.8.84,4.42.84s3.11-.27,4.42-.84c1.31-.55,2.45-1.33,3.4-2.33.94-1,1.66-2.17,2.17-3.52s.76-2.84.76-4.48-.25-3.07-.76-4.44-1.23-2.54-2.17-3.54-2.07-1.76-3.4-2.33c-1.33-.55-2.8-.84-4.42-.84s-3.11.27-4.42.84c-1.33.55-2.45,1.33-3.4,2.33-.94,1-1.66,2.17-2.17,3.54s-.76,2.86-.76,4.44Z"/><g class="cls-16"><path class="cls-5" d="M48,96c26.51,0,48-21.49,48-48S74.51,0,48,0,0,21.49,0,48s21.49,48,48,48Z"/><path class="cls-3" d="M48,96c26.51,0,48-21.49,48-48S74.51,0,48,0,0,21.49,0,48s21.49,48,48,48Z"/><path class="cls-4" d="M48,3c24.81,0,45,20.19,45,45s-20.19,45-45,45S3,72.81,3,48,23.19,3,48,3ZM48,0C21.48,0,0,21.48,0,48s21.48,48,48,48,48-21.48,48-48S74.52,0,48,0Z"/><path class="cls-7" d="M60,78v-6h-24v6h24Z"/><path class="cls-7" d="M66,66h-6v6h6v-6Z"/><path class="cls-7" d="M36,66h-6v6h6v-6Z"/><path class="cls-7" d="M72,60h-6v6h6v-6Z"/><path class="cls-7" d="M72,36h-6v6h6v-6Z"/><path class="cls-7" d="M24,42h-6v6h6v6h-6v6h6v6h6v-6h24v-6h-24v-6h30v-6h-30v-6h-6v6Z"/><path class="cls-7" d="M66,30h-6v6h6v-6Z"/><path class="cls-7" d="M36,30h-6v6h6v-6Z"/><path class="cls-7" d="M36,24v6h24v-6h-24Z"/><path class="cls-2" d="M60,75v-6h-24v6h24Z"/><path class="cls-14" d="M66,63h-6v6h6v-6Z"/><path class="cls-15" d="M36,63h-6v6h6v-6Z"/><path class="cls-12" d="M72,57h-6v6h6v-6Z"/><path class="cls-13" d="M72,33h-6v6h6v-6Z"/><path class="cls-10" d="M24,39h-6v6h6v6h-6v6h6v6h6v-6h24v-6h-24v-6h30v-6h-30v-6h-6v6Z"/><path class="cls-8" d="M66,27h-6v6h6v-6Z"/><path class="cls-11" d="M36,27h-6v6h6v-6Z"/><path class="cls-9" d="M36,21v6h24v-6h-24Z"/></g></g></svg>