<svg width="262" height="24" viewBox="0 0 262 24" fill="none" xmlns="http://www.w3.org/2000/svg">
<g clip-path="url(#clip0_3420_6465)">
<path fill-rule="evenodd" clip-rule="evenodd" d="M31.1348 22.4398H26.6237L15.5679 4.33675L4.51168 22.4398H0.000976562L13.2949 0.672137H13.3298L13.3298 0.672119L17.8405 0.672119L31.1348 22.4398ZM60.3576 22.6284L60.3243 8.36565L52.6852 20.1693H50.7588L43.1196 8.55006V22.6284H39.001V1.11131H42.555L51.7885 15.3741L60.8558 1.11131H64.4096L64.4429 22.6284H60.3576ZM95.0359 8.36565L95.0692 22.6284H99.1545L99.1213 1.11131H95.5674L86.5002 15.3741L77.2667 1.11131H73.7128V22.6284H77.8314V8.55006L85.4706 20.1693H87.3968L95.0359 8.36565ZM125.86 19.2779V22.6284H108.423V1.11131H125.396V4.46183H112.741V10.0563H123.967V13.3453H112.741V19.2779H125.86ZM144.127 16.327L148.877 22.6284H153.526L148.179 15.5585C149.773 14.9847 150.991 14.1138 151.832 12.9457C152.696 11.7776 153.128 10.3841 153.128 8.76524C153.128 7.18733 152.729 5.82458 151.932 4.677C151.135 3.52942 149.984 2.64825 148.478 2.03347C146.994 1.4187 145.245 1.11131 143.23 1.11131H133.664V22.6284H137.982V16.3577H143.23C143.628 16.3577 143.927 16.3475 144.127 16.327ZM147.315 5.59916C148.289 6.33688 148.777 7.39227 148.777 8.76524C148.777 10.1383 148.289 11.2039 147.315 11.962C146.341 12.6998 144.913 13.0687 143.031 13.0687H137.982V4.49257H143.031C144.913 4.49257 146.341 4.86143 147.315 5.59916ZM212.519 22.8465H208.315L220.705 1.07882H220.737H224.91H224.942L237.332 22.8465H233.128L222.824 4.74387L212.519 22.8465ZM195.817 1.51601C197.695 1.51601 199.325 1.8234 200.708 2.43817C202.112 3.05294 203.185 3.93412 203.928 5.0817C204.671 6.22925 205.043 7.59203 205.043 9.16995C205.043 10.7274 204.671 12.0901 203.928 13.2582C203.185 14.4058 202.112 15.287 200.708 15.9017C199.325 16.5165 197.695 16.8239 195.817 16.8239H190.926V23.0331H186.902V1.51601H195.817ZM195.632 13.4426C197.386 13.4426 198.717 13.0738 199.625 12.336C200.533 11.5983 200.987 10.5429 200.987 9.16995C200.987 7.79692 200.533 6.74158 199.625 6.00388C198.717 5.26613 197.386 4.89727 195.632 4.89727H190.926V13.4426H195.632ZM251.531 23.0331V15.4406L260.013 1.51601H256.051L249.643 11.9979L243.296 1.51601H238.993L247.507 15.5021V23.0331H251.531Z" fill="black"/>
</g>
<defs>
<clipPath id="clip0_3420_6465">
<rect width="261.214" height="23" fill="white" transform="translate(0 0.514648)"/>
</clipPath>
</defs>
</svg>
