<svg width="300" height="52" viewBox="0 0 300 52" fill="none" xmlns="http://www.w3.org/2000/svg">
<g clip-path="url(#clip0_3279_13803)">
<path d="M83.3034 32.1577H75.3636L74.091 35.9153H68.667L76.3638 14.6426H82.3638L90.0606 35.9153H84.576L83.3034 32.1577ZM81.9702 28.1578L79.3338 20.3699L76.7274 28.1578H81.9702ZM109.1 19.0062V35.9153H103.919V33.6123C103.393 34.3598 102.676 34.9658 101.767 35.4305C100.878 35.8749 99.888 36.0971 98.7972 36.0971C97.5042 36.0971 96.363 35.8143 95.373 35.2487C94.383 34.6628 93.6156 33.8244 93.0702 32.7335C92.5248 31.6426 92.2518 30.3598 92.2518 28.885V19.0062H97.4034V28.1881C97.4034 29.3194 97.6962 30.1981 98.2824 30.8244C98.868 31.4507 99.6558 31.7638 100.646 31.7638C101.656 31.7638 102.454 31.4507 103.04 30.8244C103.625 30.1981 103.919 29.3194 103.919 28.1881V19.0062H109.1ZM111.792 27.4305C111.792 25.6931 112.115 24.1678 112.762 22.8547C113.428 21.5416 114.328 20.5315 115.459 19.8244C116.59 19.1173 117.853 18.7638 119.246 18.7638C120.358 18.7638 121.368 18.9961 122.277 19.4608C123.206 19.9254 123.934 20.5517 124.459 21.3395V13.4911H129.641V35.9153H124.459V33.4911C123.974 34.2992 123.277 34.9456 122.368 35.4305C121.479 35.9153 120.439 36.1577 119.246 36.1577C117.853 36.1577 116.59 35.8042 115.459 35.0971C114.328 34.3699 113.428 33.3497 112.762 32.0365C112.115 30.7032 111.792 29.1679 111.792 27.4305ZM124.459 27.4608C124.459 26.1679 124.095 25.1476 123.368 24.4001C122.661 23.6527 121.792 23.279 120.762 23.279C119.732 23.279 118.853 23.6527 118.126 24.4001C117.418 25.1275 117.065 26.1376 117.065 27.4305C117.065 28.7234 117.418 29.7537 118.126 30.5214C118.853 31.2689 119.732 31.6426 120.762 31.6426C121.792 31.6426 122.661 31.2689 123.368 30.5214C124.095 29.7739 124.459 28.7537 124.459 27.4608ZM135.995 17.2486C135.086 17.2486 134.339 16.986 133.753 16.4608C133.187 15.9153 132.905 15.2486 132.905 14.4608C132.905 13.6527 133.187 12.986 133.753 12.4607C134.339 11.9153 135.086 11.6426 135.995 11.6426C136.885 11.6426 137.612 11.9153 138.178 12.4607C138.763 12.986 139.056 13.6527 139.056 14.4608C139.056 15.2486 138.763 15.9153 138.178 16.4608C137.612 16.986 136.885 17.2486 135.995 17.2486ZM138.571 19.0062V35.9153H133.39V19.0062H138.571ZM151.751 31.5214V35.9153H149.114C147.236 35.9153 145.771 35.4608 144.721 34.5517C143.67 33.6224 143.144 32.1173 143.144 30.0365V23.3093H141.084V19.0062H143.144V14.885H148.327V19.0062H151.72V23.3093H148.327V30.0971C148.327 30.6022 148.448 30.9658 148.69 31.1881C148.933 31.4102 149.336 31.5214 149.902 31.5214H151.751ZM173.938 25.0062C175.17 25.2689 176.16 25.885 176.907 26.8547C177.655 27.8042 178.028 28.8951 178.028 30.1274C178.028 31.9052 177.402 33.3194 176.15 34.3699C174.917 35.4002 173.19 35.9153 170.968 35.9153H161.059V14.6426H170.635C172.796 14.6426 174.483 15.1375 175.695 16.1275C176.927 17.1173 177.544 18.4607 177.544 20.1577C177.544 21.4103 177.21 22.4507 176.543 23.279C175.897 24.1072 175.028 24.683 173.938 25.0062ZM166.241 23.2487H169.634C170.483 23.2487 171.13 23.0668 171.574 22.7032C172.039 22.3193 172.271 21.7638 172.271 21.0365C172.271 20.3093 172.039 19.7537 171.574 19.3699C171.13 18.986 170.483 18.7941 169.634 18.7941H166.241V23.2487ZM170.059 31.7335C170.927 31.7335 171.594 31.5416 172.059 31.1578C172.544 30.7537 172.786 30.178 172.786 29.4305C172.786 28.683 172.534 28.0972 172.028 27.6729C171.544 27.2486 170.867 27.0365 169.998 27.0365H166.241V31.7335H170.059ZM188.731 36.1577C187.074 36.1577 185.579 35.8042 184.246 35.0971C182.933 34.3901 181.892 33.38 181.125 32.0668C180.377 30.7537 180.004 29.2183 180.004 27.4608C180.004 25.7234 180.388 24.1981 181.155 22.885C181.923 21.5517 182.973 20.5315 184.307 19.8244C185.64 19.1173 187.135 18.7638 188.791 18.7638C190.448 18.7638 191.943 19.1173 193.276 19.8244C194.609 20.5315 195.66 21.5517 196.428 22.885C197.195 24.1981 197.579 25.7234 197.579 27.4608C197.579 29.1982 197.185 30.7335 196.397 32.0668C195.63 33.38 194.569 34.3901 193.216 35.0971C191.882 35.8042 190.387 36.1577 188.731 36.1577ZM188.731 31.6729C189.721 31.6729 190.559 31.3093 191.246 30.582C191.953 29.8547 192.307 28.8143 192.307 27.4608C192.307 26.1073 191.963 25.0669 191.276 24.3395C190.61 23.6123 189.781 23.2487 188.791 23.2487C187.781 23.2487 186.943 23.6123 186.276 24.3395C185.609 25.0466 185.276 26.087 185.276 27.4608C185.276 28.8143 185.6 29.8547 186.246 30.582C186.913 31.3093 187.741 31.6729 188.731 31.6729ZM217.025 19.0062V35.9153H211.844V33.6123C211.318 34.3598 210.601 34.9658 209.692 35.4305C208.803 35.8749 207.813 36.0971 206.722 36.0971C205.429 36.0971 204.288 35.8143 203.298 35.2487C202.308 34.6628 201.541 33.8244 200.995 32.7335C200.45 31.6426 200.177 30.3598 200.177 28.885V19.0062H205.328V28.1881C205.328 29.3194 205.621 30.1981 206.207 30.8244C206.793 31.4507 207.581 31.7638 208.571 31.7638C209.581 31.7638 210.379 31.4507 210.965 30.8244C211.55 30.1981 211.844 29.3194 211.844 28.1881V19.0062H217.025ZM230.171 31.5214V35.9153H227.536C225.656 35.9153 224.192 35.4608 223.141 34.5517C222.091 33.6224 221.566 32.1173 221.566 30.0365V23.3093H219.505V19.0062H221.566V14.885H226.747V19.0062H230.141V23.3093H226.747V30.0971C226.747 30.6022 226.868 30.9658 227.111 31.1881C227.353 31.4102 227.758 31.5214 228.323 31.5214H230.171ZM235.664 17.2486C234.755 17.2486 234.008 16.986 233.422 16.4608C232.856 15.9153 232.573 15.2486 232.573 14.4608C232.573 13.6527 232.856 12.986 233.422 12.4607C234.008 11.9153 234.755 11.6426 235.664 11.6426C236.553 11.6426 237.28 11.9153 237.846 12.4607C238.432 12.986 238.724 13.6527 238.724 14.4608C238.724 15.2486 238.432 15.9153 237.846 16.4608C237.28 16.986 236.553 17.2486 235.664 17.2486ZM238.24 19.0062V35.9153H233.058V19.0062H238.24ZM240.965 27.4911C240.965 25.8143 241.308 24.3194 241.995 23.0062C242.702 21.6931 243.641 20.6729 244.813 19.9456C246.005 19.1981 247.298 18.8244 248.692 18.8244C249.763 18.8244 250.723 19.0163 251.571 19.4002C252.419 19.7638 253.106 20.279 253.631 20.9456V19.0062H258.813V43.9759H253.631V33.7941C253.046 34.5012 252.328 35.0668 251.48 35.4911C250.652 35.9153 249.702 36.1274 248.632 36.1274C247.258 36.1274 245.985 35.7638 244.813 35.0365C243.641 34.3093 242.702 33.2891 241.995 31.9759C241.308 30.6628 240.965 29.1679 240.965 27.4911ZM253.631 27.4608C253.631 26.5517 253.45 25.7941 253.086 25.1881C252.743 24.5618 252.288 24.0971 251.722 23.7941C251.156 23.4709 250.561 23.3093 249.934 23.3093C249.328 23.3093 248.743 23.4709 248.177 23.7941C247.611 24.0971 247.147 24.5618 246.783 25.1881C246.419 25.8143 246.238 26.582 246.238 27.4911C246.238 28.4002 246.419 29.1679 246.783 29.7941C247.147 30.4001 247.611 30.8648 248.177 31.1881C248.743 31.4911 249.328 31.6426 249.934 31.6426C250.541 31.6426 251.126 31.4911 251.692 31.1881C252.278 30.8648 252.743 30.3901 253.086 29.7638C253.45 29.1376 253.631 28.3699 253.631 27.4608ZM279.259 19.0062V35.9153H274.077V33.6123C273.552 34.3598 272.835 34.9658 271.925 35.4305C271.037 35.8749 270.047 36.0971 268.956 36.0971C267.663 36.0971 266.522 35.8143 265.532 35.2487C264.542 34.6628 263.774 33.8244 263.229 32.7335C262.683 31.6426 262.411 30.3598 262.411 28.885V19.0062H267.562V28.1881C267.562 29.3194 267.855 30.1981 268.441 30.8244C269.027 31.4507 269.815 31.7638 270.805 31.7638C271.814 31.7638 272.612 31.4507 273.199 30.8244C273.784 30.1981 274.077 29.3194 274.077 28.1881V19.0062H279.259ZM298.921 27.188C298.921 27.6729 298.89 28.1779 298.829 28.7032H287.102C287.183 29.7537 287.516 30.5618 288.103 31.1275C288.709 31.6729 289.446 31.9456 290.314 31.9456C291.607 31.9456 292.507 31.4002 293.011 30.3092H298.526C298.244 31.4204 297.728 32.4204 296.981 33.3092C296.254 34.1981 295.334 34.8951 294.224 35.4002C293.113 35.9052 291.87 36.1577 290.496 36.1577C288.839 36.1577 287.365 35.8042 286.072 35.0971C284.779 34.3901 283.769 33.38 283.042 32.0668C282.314 30.7537 281.951 29.2183 281.951 27.4608C281.951 25.7032 282.304 24.1678 283.012 22.8547C283.739 21.5416 284.749 20.5315 286.042 19.8244C287.335 19.1173 288.82 18.7638 290.496 18.7638C292.133 18.7638 293.587 19.1072 294.86 19.7941C296.132 20.481 297.122 21.4608 297.83 22.7335C298.557 24.0062 298.921 25.4911 298.921 27.188ZM293.617 25.8244C293.617 24.9355 293.314 24.2284 292.708 23.7032C292.102 23.1779 291.345 22.9153 290.435 22.9153C289.567 22.9153 288.83 23.1679 288.224 23.6729C287.638 24.178 287.274 24.8951 287.132 25.8244H293.617Z" fill="#1F1D33"/>
<path d="M46.3637 0.800049H3.63637C1.62806 0.800049 0 2.42811 0 4.43641V47.1637C0 49.172 1.62806 50.8001 3.63637 50.8001H46.3637C48.372 50.8001 50 49.172 50 47.1637V4.43641C50 2.42811 48.372 0.800049 46.3637 0.800049Z" fill="#1F1D33"/>
<mask id="mask0_3279_13803" style="mask-type:luminance" maskUnits="userSpaceOnUse" x="10" y="8" width="17" height="32">
<path d="M10.7904 31.0737L25.9285 39.8145C26.3633 40.0655 26.7158 39.862 26.7158 39.36L26.715 18.9105C26.715 18.4084 26.3625 17.7979 25.9277 17.5468L10.7896 8.80607C10.3548 8.55502 10.0023 8.75851 10.0023 9.26059L10.0031 29.71C10.0031 30.2121 10.3556 30.8226 10.7904 31.0737Z" fill="white"/>
</mask>
<g mask="url(#mask0_3279_13803)">
<path d="M10.7884 31.0737L25.9266 39.8145C26.3614 40.0655 26.7139 39.862 26.7138 39.36L26.7131 18.9105C26.713 18.4084 26.3606 17.7979 25.9257 17.5468L10.7876 8.80607C10.3528 8.55502 10.0003 8.75851 10.0004 9.26059L10.0011 29.71C10.0011 30.2121 10.3536 30.8226 10.7884 31.0737Z" fill="#1F1D33" stroke="white" stroke-width="3.63637"/>
</g>
<path d="M22.7119 31.4453L14.0017 26.416" stroke="#E1341E" stroke-width="1.81818" stroke-linecap="round"/>
<path d="M22.7119 26.9917L14.0017 21.9624" stroke="#E1341E" stroke-width="1.81818" stroke-linecap="round"/>
<path d="M22.7109 22.5383L14.0007 17.5091" stroke="#E1341E" stroke-width="1.81818" stroke-linecap="round"/>
<mask id="mask1_3279_13803" style="mask-type:luminance" maskUnits="userSpaceOnUse" x="20" y="10" width="19" height="36">
<path d="M37.6534 10.7166L20.8439 20.4224C20.4091 20.6734 20.0566 21.284 20.0566 21.786L20.0558 44.4623C20.0557 44.9644 20.4082 45.1679 20.843 44.9168L37.6525 35.211C38.0873 34.96 38.4398 34.3494 38.4398 33.8474L38.4407 11.1711C38.4407 10.669 38.0882 10.4655 37.6534 10.7166Z" fill="white"/>
</mask>
<g mask="url(#mask1_3279_13803)">
<path d="M37.6534 10.7166L20.8439 20.4224C20.4091 20.6734 20.0566 21.284 20.0566 21.786L20.0558 44.4623C20.0557 44.9644 20.4082 45.1679 20.843 44.9168L37.6525 35.211C38.0873 34.96 38.4398 34.3494 38.4398 33.8474L38.4407 11.1711C38.4407 10.669 38.0882 10.4655 37.6534 10.7166Z" fill="#1F1D33" stroke="white" stroke-width="3.63637"/>
</g>
<path d="M24.3789 25.6365L34.1176 20.0133" stroke="#1ECBE1" stroke-width="1.81818" stroke-linecap="round"/>
<path d="M24.3789 30.5354L34.1176 24.9123" stroke="#1ECBE1" stroke-width="1.81818" stroke-linecap="round"/>
<path d="M32.2523 31.9447L31.9626 31.5843L32.1345 30.8929C32.1578 30.7987 32.1288 30.7267 32.0649 30.7213L31.5961 30.6799L31.51 30.1131C31.498 30.0358 31.4366 30.0085 31.363 30.0475L30.8223 30.3352L30.498 30.0226C30.4537 29.9799 30.3736 30.0035 30.3075 30.0785L29.819 30.6287L29.3304 30.6423C29.2641 30.6443 29.1843 30.713 29.1399 30.8067L28.8154 31.4939L28.2748 31.8305C28.2013 31.8762 28.1398 31.9745 28.1279 32.0655L28.0417 32.7318L27.5729 33.3145C27.509 33.3937 27.4798 33.4993 27.5031 33.5667L27.6748 34.0596L27.3853 34.7546C27.3459 34.8494 27.3559 34.9376 27.4092 34.9659L27.7995 35.1728L27.7556 35.8204C27.7497 35.9091 27.7962 35.96 27.867 35.9429L28.3866 35.8158L28.5981 36.2686C28.627 36.33 28.6997 36.3334 28.7718 36.2738L29.302 35.8422L29.7204 35.9963C29.7488 36.0066 29.7837 36.0003 29.8186 35.9801C29.8535 35.96 29.8882 35.926 29.9168 35.8829L30.3352 35.2456L30.8655 35.065C30.9373 35.0411 31.0104 34.9543 31.0392 34.8592L31.2507 34.1622L31.7704 33.6892C31.8412 33.6248 31.8877 33.52 31.8818 33.4382L31.838 32.8412L32.2284 32.1835C32.2816 32.0938 32.2917 31.9939 32.2523 31.9447ZM30.9397 31.8413L29.8542 34.3455C29.8132 34.4392 29.7497 34.5228 29.6865 34.5592C29.6236 34.5955 29.5533 34.5954 29.5084 34.5693L28.7117 34.0945C28.6573 34.062 28.6573 33.9585 28.7117 33.8633L28.9084 33.5185C28.9627 33.4242 29.051 33.3732 29.105 33.405L29.6235 33.7139L30.4788 31.7407C30.5217 31.6413 30.6088 31.5721 30.6721 31.5859L30.9027 31.6359C30.9662 31.6498 30.9826 31.7423 30.9397 31.8413Z" fill="#1ECBE1"/>
</g>
<defs>
<clipPath id="clip0_3279_13803">
<rect width="300" height="50.4" fill="white" transform="translate(0 0.800049)"/>
</clipPath>
</defs>
</svg>
