<?xml version="1.0" encoding="UTF-8"?>
<svg id="Ebene_1" xmlns="http://www.w3.org/2000/svg" version="1.1" viewBox="0 0 202 30">
  <!-- Generator: Adobe Illustrator 29.6.0, SVG Export Plug-In . SVG Version: 2.1.1 Build 207)  -->
  <defs>
    <style>
      .st0 {
        fill: #0e1620;
      }

      .st1 {
        fill: #1760fa;
      }
    </style>
  </defs>
  <path class="st1" d="M81.4,1.1c0-.6.5-1.1,1.1-1.1h4.4c.6,0,1.1.5,1.1,1.1v3.6c0,.6.5,1.1,1.1,1.1h3.4c.6,0,1.1.5,1.1,1.1v16.1c0,.6-.5,1.1-1.1,1.1h-3.4c-.6,0-1.1.5-1.1,1.1v3.6c0,.6-.5,1.1-1.1,1.1h-4.4c-.6,0-1.1-.5-1.1-1.1v-4.4c0-.6.5-1.1,1.1-1.1h3.4c.6,0,1.1-.5,1.1-1.1V7.8c0-.6-.5-1.1-1.1-1.1h-3.5c-.6,0-1.1-.5-1.1-1.1,0,0,0-4.4,0-4.4ZM49.7,1.1c0-.6-.5-1.1-1.1-1.1h-4.4c-.6,0-1.1.5-1.1,1.1v3.6c0,.6-.5,1.1-1.1,1.1h-3.4c-.6,0-1.1.5-1.1,1.1v16.1c0,.6.5,1.1,1.1,1.1h3.4c.6,0,1.1.5,1.1,1.1v3.6c0,.6.5,1.1,1.1,1.1h4.4c.6,0,1.1-.5,1.1-1.1v-4.4c0-.6-.5-1.1-1.1-1.1h-3.4c-.6,0-1.1-.5-1.1-1.1V7.8c0-.6.5-1.1,1.1-1.1h3.4c.6,0,1.1-.5,1.1-1.1V1.1ZM61.5,7.9c0-.5.4-.9.9-.9h9.6c.4,0,.7.2.9.6l1.6,3.6c.1.3.5.6.9.6h3.2c.5,0,.9.4.9.9v10.6c0,.5-.4.9-.9.9h-4.1c-.5,0-.9-.4-.9-.9v-9.9c0-.5-.4-.9-.9-.9h-4.2c-.5,0-.9.4-.9.9v9.9c0,.5-.4.9-.9.9h-4.1c-.5,0-.9-.4-.9-.9,0,0,0-15.4,0-15.4ZM51.9,7.9c0-.5.4-.9.9-.9h4.1c.5,0,.9.4.9.9v15.4c0,.5-.4.9-.9.9h-4.1c-.5,0-.9-.4-.9-.9V7.9Z"/>
  <path class="st0" d="M12,15.1h0c.8.4,1.5.9,2,1.6.5.7.8,1.6.8,2.6,0,1.4-.5,2.7-1.5,3.6-1,.9-2.4,1.4-3.7,1.4H0V6.9h9.3c1.5,0,2.7.4,3.7,1.3,1,.8,1.5,2,1.5,3.3,0,.8-.2,1.5-.7,2.2-.4.6-1,1.1-1.7,1.4h0ZM8.4,10.7h-4.2v3.1h4.2c.4,0,.9-.2,1.2-.5.3-.3.5-.7.5-1.1,0-.4-.2-.8-.4-1.1-.3-.3-.7-.5-1.2-.5,0,0,0,0,0,0ZM4.3,20.4h4.5c.5,0,.9-.2,1.2-.5.3-.3.5-.7.5-1.2,0-.4-.2-.8-.5-1-.3-.3-.8-.5-1.2-.5h-4.5s0,3.2,0,3.2ZM30.3,24.2h-13.5V6.9h13.5v4.1h-9.2v2.5h7.9v3.9h-7.9v2.7h9.2s0,4.1,0,4.1ZM113.2,17h4.4c-.2,2.1-1.2,4-2.7,5.4-1.6,1.4-3.6,2.1-6.1,2.1s-4.8-.9-6.5-2.6c-1.6-1.7-2.5-3.8-2.5-6.4,0-2.6.8-4.7,2.5-6.4s3.8-2.6,6.5-2.6c2.4,0,4.4.7,6,2.1,1.6,1.3,2.6,3.2,2.8,5.3h-4.4c-.2-.9-.8-1.8-1.5-2.3-.8-.6-1.8-.9-2.9-.9-1.4,0-2.5.5-3.4,1.4-.8,1-1.2,2.2-1.2,3.4,0,1.3.4,2.5,1.2,3.4.8.9,1.9,1.4,3.4,1.4,1,0,2.1-.3,2.9-.9.8-.6,1.3-1.5,1.5-2.5,0,0,0,0,0,0ZM123.2,24.1h-4.2V6.9h8.9c1.9,0,3.3.4,4.4,1.3s1.7,2,1.7,3.6c0,1.6-.6,2.8-1.7,3.7h0c1.5.5,2.2,1.6,2.2,3.4v5.4h-4.2v-4.6c0-.6-.3-1-1-1h-6.1v5.6s0,0,0,0ZM123.2,11v3.8h4.3c.6,0,1.2-.2,1.6-.5.4-.4.6-.9.6-1.4,0-.5-.2-1-.6-1.4-.5-.3-1-.5-1.6-.5,0,0-4.3,0-4.3,0ZM146.5,6.9h4.7l-6.7,11v6.3h-4.2v-6.3l-6.8-11h4.8l4.1,6.9,4.1-6.9s0,0,0,0ZM161.1,6.9c1.6,0,3.2.6,4.3,1.7,1.2,1.1,1.8,2.6,1.8,4.3,0,1.8-.6,3.3-1.8,4.4-1.1,1.1-2.7,1.8-4.3,1.7h-4.7v5h-4.2V6.9s8.9,0,8.9,0ZM156.4,15.1h4.3c.6,0,1.1-.2,1.5-.6.4-.4.6-.9.6-1.5,0-.5-.2-1.1-.7-1.4-.4-.4-.9-.6-1.5-.6h-4.3v4.1h0ZM167.6,6.9h15.4v4.1h-5.6v13.1h-4.2v-13.1h-5.6s0-4.1,0-4.1ZM198.5,22c-1.7,1.7-3.9,2.6-6.6,2.6-2.7,0-4.9-.9-6.6-2.6-1.7-1.7-2.5-3.9-2.5-6.4s.8-4.7,2.5-6.4c1.7-1.8,3.9-2.6,6.6-2.6s4.9.9,6.6,2.6c1.7,1.8,2.5,3.9,2.5,6.4s-.8,4.7-2.5,6.4ZM191.9,20.4c1.5,0,2.6-.5,3.5-1.4.9-.9,1.3-2.2,1.3-3.4,0-1.3-.4-2.5-1.3-3.4-.9-.9-2-1.4-3.5-1.4-1.5,0-2.7.5-3.5,1.4-.9.9-1.3,2.2-1.3,3.4,0,1.3.4,2.5,1.3,3.4.9.9,2.1,1.4,3.5,1.4Z"/>
</svg>