<svg width="800" height="354" viewBox="0 0 800 354" fill="none" xmlns="http://www.w3.org/2000/svg">
<g clip-path="url(#clip0_1709_17726)">
<path d="M756.447 5.08013H765.616M761.032 9.66466V0.495605M756.447 39.4641H765.616M761.032 44.0486V34.8796M790.831 5.08013H800M795.416 9.66466V0.495605M790.831 39.4641H800M795.416 44.0486V34.8796M756.447 73.848H765.616M761.032 78.4326V69.2635M756.447 108.232H765.616M761.032 112.817V103.647M790.831 73.848H800M795.416 78.4326V69.2635M790.831 108.232H800M795.416 112.817V103.647M756.447 142.616H765.616M761.032 147.2V138.031M756.447 177H765.616M761.032 181.584V172.415M790.831 142.616H800M795.416 147.2V138.031M790.831 177H800M795.416 181.584V172.415M756.447 211.384H765.616M761.032 215.968V206.799M756.447 245.768H765.616M761.032 250.352V241.183M790.831 211.384H800M795.416 215.968V206.799M790.831 245.768H800M795.416 250.352V241.183M756.447 280.152H765.616M761.032 284.736V275.567M756.447 314.536H765.616M761.032 319.12V309.951M790.831 280.152H800M795.416 284.736V275.567M790.831 314.536H800M795.416 319.12V309.951M756.447 348.92H765.616M761.032 353.504V344.335M790.831 348.92H800M795.416 353.504V344.335M687.679 5.08013H696.848M692.264 9.66466V0.495605M687.679 39.4641H696.848M692.264 44.0486V34.8796M722.063 5.08013H731.232M726.648 9.66466V0.495605M722.063 39.4641H731.232M726.648 44.0486V34.8796M687.679 73.848H696.848M692.264 78.4326V69.2635M687.679 108.232H696.848M692.264 112.817V103.647M722.063 73.848H731.232M726.648 78.4326V69.2635M722.063 108.232H731.232M726.648 112.817V103.647M687.679 142.616H696.848M692.264 147.2V138.031M687.679 177H696.848M692.264 181.584V172.415M722.063 142.616H731.232M726.648 147.2V138.031M722.063 177H731.232M726.648 181.584V172.415M687.679 211.384H696.848M692.264 215.968V206.799M687.679 245.768H696.848M692.264 250.352V241.183M722.063 211.384H731.232M726.648 215.968V206.799M722.063 245.768H731.232M726.648 250.352V241.183M687.679 280.152H696.848M692.264 284.736V275.567M687.679 314.536H696.848M692.264 319.12V309.951M722.063 280.152H731.232M726.648 284.736V275.567M722.063 314.536H731.232M726.648 319.12V309.951M687.679 348.92H696.848M692.264 353.504V344.335M722.063 348.92H731.232M726.648 353.504V344.335M618.911 5.08013H628.08M623.496 9.66466V0.495605M618.911 39.4641H628.08M623.496 44.0486V34.8796M653.295 5.08013H662.464M657.88 9.66466V0.495605M653.295 39.4641H662.464M657.88 44.0486V34.8796M618.911 73.848H628.08M623.496 78.4326V69.2635M618.911 108.232H628.08M623.496 112.817V103.647M653.295 73.848H662.464M657.88 78.4326V69.2635M653.295 108.232H662.464M657.88 112.817V103.647M618.911 142.616H628.08M623.496 147.2V138.031M618.911 177H628.08M623.496 181.584V172.415M653.295 142.616H662.464M657.88 147.2V138.031M653.295 177H662.464M657.88 181.584V172.415M618.911 211.384H628.08M623.496 215.968V206.799M618.911 245.768H628.08M623.496 250.352V241.183M653.295 211.384H662.464M657.88 215.968V206.799M653.295 245.768H662.464M657.88 250.352V241.183M618.911 280.152H628.08M623.496 284.736V275.567M618.911 314.536H628.08M623.496 319.12V309.951M653.295 280.152H662.464M657.88 284.736V275.567M653.295 314.536H662.464M657.88 319.12V309.951M618.911 348.92H628.08M623.496 353.504V344.335M653.295 348.92H662.464M657.88 353.504V344.335M550.143 5.08013H559.312M554.728 9.66466V0.495605M550.143 39.4641H559.312M554.728 44.0486V34.8796M584.527 5.08013H593.696M589.112 9.66466V0.495605M584.527 39.4641H593.696M589.112 44.0486V34.8796M550.143 73.848H559.312M554.728 78.4326V69.2635M550.143 108.232H559.312M554.728 112.817V103.647M584.527 73.848H593.696M589.112 78.4326V69.2635M584.527 108.232H593.696M589.112 112.817V103.647M550.143 142.616H559.312M554.728 147.2V138.031M550.143 177H559.312M554.728 181.584V172.415M584.527 142.616H593.696M589.112 147.2V138.031M584.527 177H593.696M589.112 181.584V172.415M550.143 211.384H559.312M554.728 215.968V206.799M550.143 245.768H559.312M554.728 250.352V241.183M584.527 211.384H593.696M589.112 215.968V206.799M584.527 245.768H593.696M589.112 250.352V241.183M550.143 280.152H559.312M554.728 284.736V275.567M550.143 314.536H559.312M554.728 319.12V309.951M584.527 280.152H593.696M589.112 284.736V275.567M584.527 314.536H593.696M589.112 319.12V309.951M550.143 348.92H559.312M554.728 353.504V344.335M584.527 348.92H593.696M589.112 353.504V344.335M481.375 5.08013H490.544M485.96 9.66466V0.495605M481.375 39.4641H490.544M485.96 44.0486V34.8796M515.759 5.08013H524.928M520.344 9.66466V0.495605M515.759 39.4641H524.928M520.344 44.0486V34.8796M481.375 73.848H490.544M485.96 78.4326V69.2635M481.375 108.232H490.544M485.96 112.817V103.647M515.759 73.848H524.928M520.344 78.4326V69.2635M515.759 108.232H524.928M520.344 112.817V103.647M481.375 142.616H490.544M485.96 147.2V138.031M481.375 177H490.544M485.96 181.584V172.415M515.759 142.616H524.928M520.344 147.2V138.031M515.759 177H524.928M520.344 181.584V172.415M481.375 211.384H490.544M485.96 215.968V206.799M481.375 245.768H490.544M485.96 250.352V241.183M515.759 211.384H524.928M520.344 215.968V206.799M515.759 245.768H524.928M520.344 250.352V241.183M481.375 280.152H490.544M485.96 284.736V275.567M481.375 314.536H490.544M485.96 319.12V309.951M515.759 280.152H524.928M520.344 284.736V275.567M515.759 314.536H524.928M520.344 319.12V309.951M481.375 348.92H490.544M485.96 353.504V344.335M515.759 348.92H524.928M520.344 353.504V344.335M412.607 5.08013H421.777M417.192 9.66466V0.495605M412.607 39.4641H421.777M417.192 44.0486V34.8796M446.991 5.08013H456.16M451.576 9.66466V0.495605M446.991 39.4641H456.16M451.576 44.0486V34.8796M412.607 73.848H421.777M417.192 78.4326V69.2635M412.607 108.232H421.777M417.192 112.817V103.647M446.991 73.848H456.16M451.576 78.4326V69.2635M446.991 108.232H456.16M451.576 112.817V103.647M412.607 142.616H421.777M417.192 147.2V138.031M412.607 177H421.777M417.192 181.584V172.415M446.991 142.616H456.16M451.576 147.2V138.031M446.991 177H456.16M451.576 181.584V172.415M412.607 211.384H421.777M417.192 215.968V206.799M412.607 245.768H421.777M417.192 250.352V241.183M446.991 211.384H456.16M451.576 215.968V206.799M446.991 245.768H456.16M451.576 250.352V241.183M412.607 280.152H421.777M417.192 284.736V275.567M412.607 314.536H421.777M417.192 319.12V309.951M446.991 280.152H456.16M451.576 284.736V275.567M446.991 314.536H456.16M451.576 319.12V309.951M412.607 348.92H421.777M417.192 353.504V344.335M446.991 348.92H456.16M451.576 353.504V344.335M343.84 5.08013H353.009M348.424 9.66466V0.495605M343.84 39.4641H353.009M348.424 44.0486V34.8796M378.224 5.08013H387.393M382.808 9.66466V0.495605M378.224 39.4641H387.393M382.808 44.0486V34.8796M343.84 73.848H353.009M348.424 78.4326V69.2635M343.84 108.232H353.009M348.424 112.817V103.647M378.224 73.848H387.393M382.808 78.4326V69.2635M378.224 108.232H387.393M382.808 112.817V103.647M343.84 142.616H353.009M348.424 147.2V138.031M343.84 177H353.009M348.424 181.584V172.415M378.224 142.616H387.393M382.808 147.2V138.031M378.224 177H387.393M382.808 181.584V172.415M343.84 211.384H353.009M348.424 215.968V206.799M343.84 245.768H353.009M348.424 250.352V241.183M378.224 211.384H387.393M382.808 215.968V206.799M378.224 245.768H387.393M382.808 250.352V241.183M343.84 280.152H353.009M348.424 284.736V275.567M343.84 314.536H353.009M348.424 319.12V309.951M378.224 280.152H387.393M382.808 284.736V275.567M378.224 314.536H387.393M382.808 319.12V309.951M343.84 348.92H353.009M348.424 353.504V344.335M378.224 348.92H387.393M382.808 353.504V344.335M275.072 5.08013H284.241M279.656 9.66466V0.495605M275.072 39.4641H284.241M279.656 44.0486V34.8796M309.456 5.08013H318.625M314.04 9.66466V0.495605M309.456 39.4641H318.625M314.04 44.0486V34.8796M275.072 73.848H284.241M279.656 78.4326V69.2635M275.072 108.232H284.241M279.656 112.817V103.647M309.456 73.848H318.625M314.04 78.4326V69.2635M309.456 108.232H318.625M314.04 112.817V103.647M275.072 142.616H284.241M279.656 147.2V138.031M275.072 177H284.241M279.656 181.584V172.415M309.456 142.616H318.625M314.04 147.2V138.031M309.456 177H318.625M314.04 181.584V172.415M275.072 211.384H284.241M279.656 215.968V206.799M275.072 245.768H284.241M279.656 250.352V241.183M309.456 211.384H318.625M314.04 215.968V206.799M309.456 245.768H318.625M314.04 250.352V241.183M275.072 280.152H284.241M279.656 284.736V275.567M275.072 314.536H284.241M279.656 319.12V309.951M309.456 280.152H318.625M314.04 284.736V275.567M309.456 314.536H318.625M314.04 319.12V309.951M275.072 348.92H284.241M279.656 353.504V344.335M309.456 348.92H318.625M314.04 353.504V344.335M206.304 5.08013H215.473M210.888 9.66466V0.495605M206.304 39.4641H215.473M210.888 44.0486V34.8796M240.688 5.08013H249.857M245.272 9.66466V0.495605M240.688 39.4641H249.857M245.272 44.0486V34.8796M206.304 73.848H215.473M210.888 78.4326V69.2635M206.304 108.232H215.473M210.888 112.817V103.647M240.688 73.848H249.857M245.272 78.4326V69.2635M240.688 108.232H249.857M245.272 112.817V103.647M206.304 142.616H215.473M210.888 147.2V138.031M206.304 177H215.473M210.888 181.584V172.415M240.688 142.616H249.857M245.272 147.2V138.031M240.688 177H249.857M245.272 181.584V172.415M206.304 211.384H215.473M210.888 215.968V206.799M206.304 245.768H215.473M210.888 250.352V241.183M240.688 211.384H249.857M245.272 215.968V206.799M240.688 245.768H249.857M245.272 250.352V241.183M206.304 280.152H215.473M210.888 284.736V275.567M206.304 314.536H215.473M210.888 319.12V309.951M240.688 280.152H249.857M245.272 284.736V275.567M240.688 314.536H249.857M245.272 319.12V309.951M206.304 348.92H215.473M210.888 353.504V344.335M240.688 348.92H249.857M245.272 353.504V344.335M137.536 5.08013H146.705M142.12 9.66466V0.495605M137.536 39.4641H146.705M142.12 44.0486V34.8796M171.92 5.08013H181.089M176.504 9.66466V0.495605M171.92 39.4641H181.089M176.504 44.0486V34.8796M137.536 73.848H146.705M142.12 78.4326V69.2635M137.536 108.232H146.705M142.12 112.817V103.647M171.92 73.848H181.089M176.504 78.4326V69.2635M171.92 108.232H181.089M176.504 112.817V103.647M137.536 142.616H146.705M142.12 147.2V138.031M137.536 177H146.705M142.12 181.584V172.415M171.92 142.616H181.089M176.504 147.2V138.031M171.92 177H181.089M176.504 181.584V172.415M137.536 211.384H146.705M142.12 215.968V206.799M137.536 245.768H146.705M142.12 250.352V241.183M171.92 211.384H181.089M176.504 215.968V206.799M171.92 245.768H181.089M176.504 250.352V241.183M137.536 280.152H146.705M142.12 284.736V275.567M137.536 314.536H146.705M142.12 319.12V309.951M171.92 280.152H181.089M176.504 284.736V275.567M171.92 314.536H181.089M176.504 319.12V309.951M137.536 348.92H146.705M142.12 353.504V344.335M171.92 348.92H181.089M176.504 353.504V344.335M68.7679 5.08013H77.937M73.3524 9.66466V0.495605M68.7679 39.4641H77.937M73.3524 44.0486V34.8796M103.152 5.08013H112.321M107.736 9.66466V0.495605M103.152 39.4641H112.321M107.736 44.0486V34.8796M68.7679 73.848H77.937M73.3524 78.4326V69.2635M68.7679 108.232H77.937M73.3524 112.817V103.647M103.152 73.848H112.321M107.736 78.4326V69.2635M103.152 108.232H112.321M107.736 112.817V103.647M68.7679 142.616H77.937M73.3524 147.2V138.031M68.7679 177H77.937M73.3524 181.584V172.415M103.152 142.616H112.321M107.736 147.2V138.031M103.152 177H112.321M107.736 181.584V172.415M68.7679 211.384H77.937M73.3524 215.968V206.799M68.7679 245.768H77.937M73.3524 250.352V241.183M103.152 211.384H112.321M107.736 215.968V206.799M103.152 245.768H112.321M107.736 250.352V241.183M68.7679 280.152H77.937M73.3524 284.736V275.567M68.7679 314.536H77.937M73.3524 319.12V309.951M103.152 280.152H112.321M107.736 284.736V275.567M103.152 314.536H112.321M107.736 319.12V309.951M68.7679 348.92H77.937M73.3524 353.504V344.335M103.152 348.92H112.321M107.736 353.504V344.335M0 5.08013H9.16905M4.58453 9.66466V0.495605M0 39.4641H9.16905M4.58453 44.0486V34.8796M34.384 5.08013H43.553M38.9685 9.66466V0.495605M34.384 39.4641H43.553M38.9685 44.0486V34.8796M0 73.848H9.16905M4.58453 78.4326V69.2635M0 108.232H9.16905M4.58453 112.817V103.647M34.384 73.848H43.553M38.9685 78.4326V69.2635M34.384 108.232H43.553M38.9685 112.817V103.647M0 142.616H9.16905M4.58453 147.2V138.031M0 177H9.16905M4.58453 181.584V172.415M34.384 142.616H43.553M38.9685 147.2V138.031M34.384 177H43.553M38.9685 181.584V172.415M0 211.384H9.16905M4.58453 215.968V206.799M0 245.768H9.16905M4.58453 250.352V241.183M34.384 211.384H43.553M38.9685 215.968V206.799M34.384 245.768H43.553M38.9685 250.352V241.183M0 280.152H9.16905M4.58453 284.736V275.567M0 314.536H9.16905M4.58453 319.12V309.951M34.384 280.152H43.553M38.9685 284.736V275.567M34.384 314.536H43.553M38.9685 319.12V309.951M0 348.92H9.16905M4.58453 353.504V344.335M34.384 348.92H43.553M38.9685 353.504V344.335" stroke="#8B92A8" stroke-width="0.3" stroke-miterlimit="10"/>
</g>
<defs>
<clipPath id="clip0_1709_17726">
<rect width="800" height="354" fill="white"/>
</clipPath>
</defs>
</svg>
