<svg width="350" height="320" viewBox="0 0 350 320" fill="none" xmlns="http://www.w3.org/2000/svg">
<g clip-path="url(#clip0_3338_15349)">
<path d="M682.362 5.03006H690.633M686.498 9.16559V0.894531M682.362 36.0465H690.633M686.498 40.182V31.911M713.378 5.03006H721.649M717.514 9.16559V0.894531M713.378 36.0465H721.649M717.514 40.182V31.911M682.362 67.063H690.633M686.498 71.1985V62.9274M682.362 98.0794H690.633M686.498 102.215V93.9439M713.378 67.063H721.649M717.514 71.1985V62.9274M713.378 98.0794H721.649M717.514 102.215V93.9439M682.362 129.096H690.633M686.498 133.231V124.96M682.362 160.112H690.633M686.498 164.248V155.977M713.378 129.096H721.649M717.514 133.231V124.96M713.378 160.112H721.649M717.514 164.248V155.977M682.362 191.129H690.633M686.498 195.264V186.993M682.362 222.145H690.633M686.498 226.281V218.01M713.378 191.129H721.649M717.514 195.264V186.993M713.378 222.145H721.649M717.514 226.281V218.01M682.362 253.162H690.633M686.498 257.297V249.026M682.362 284.178H690.633M686.498 288.314V280.043M713.378 253.162H721.649M717.514 257.297V249.026M713.378 284.178H721.649M717.514 288.314V280.043M682.362 315.195H690.633M686.498 319.33V311.059M713.378 315.195H721.649M717.514 319.33V311.059M620.329 5.03006H628.6M624.465 9.16559V0.894531M620.329 36.0465H628.6M624.465 40.182V31.911M651.346 5.03006H659.617M655.481 9.16559V0.894531M651.346 36.0465H659.617M655.481 40.182V31.911M620.329 67.063H628.6M624.465 71.1985V62.9274M620.329 98.0794H628.6M624.465 102.215V93.9439M651.346 67.063H659.617M655.481 71.1985V62.9274M651.346 98.0794H659.617M655.481 102.215V93.9439M620.329 129.096H628.6M624.465 133.231V124.96M620.329 160.112H628.6M624.465 164.248V155.977M651.346 129.096H659.617M655.481 133.231V124.96M651.346 160.112H659.617M655.481 164.248V155.977M620.329 191.129H628.6M624.465 195.264V186.993M620.329 222.145H628.6M624.465 226.281V218.01M651.346 191.129H659.617M655.481 195.264V186.993M651.346 222.145H659.617M655.481 226.281V218.01M620.329 253.162H628.6M624.465 257.297V249.026M620.329 284.178H628.6M624.465 288.314V280.043M651.346 253.162H659.617M655.481 257.297V249.026M651.346 284.178H659.617M655.481 288.314V280.043M620.329 315.195H628.6M624.465 319.33V311.059M651.346 315.195H659.617M655.481 319.33V311.059M558.296 5.03006H566.567M562.432 9.16559V0.894531M558.296 36.0465H566.567M562.432 40.182V31.911M589.313 5.03006H597.584M593.448 9.16559V0.894531M589.313 36.0465H597.584M593.448 40.182V31.911M558.296 67.063H566.567M562.432 71.1985V62.9274M558.296 98.0794H566.567M562.432 102.215V93.9439M589.313 67.063H597.584M593.448 71.1985V62.9274M589.313 98.0794H597.584M593.448 102.215V93.9439M558.296 129.096H566.567M562.432 133.231V124.96M558.296 160.112H566.567M562.432 164.248V155.977M589.313 129.096H597.584M593.448 133.231V124.96M589.313 160.112H597.584M593.448 164.248V155.977M558.296 191.129H566.567M562.432 195.264V186.993M558.296 222.145H566.567M562.432 226.281V218.01M589.313 191.129H597.584M593.448 195.264V186.993M589.313 222.145H597.584M593.448 226.281V218.01M558.296 253.162H566.567M562.432 257.297V249.026M558.296 284.178H566.567M562.432 288.314V280.043M589.313 253.162H597.584M593.448 257.297V249.026M589.313 284.178H597.584M593.448 288.314V280.043M558.296 315.195H566.567M562.432 319.33V311.059M589.313 315.195H597.584M593.448 319.33V311.059M496.263 5.03006H504.534M500.399 9.16559V0.894531M496.263 36.0465H504.534M500.399 40.182V31.911M527.28 5.03006H535.551M531.415 9.16559V0.894531M527.28 36.0465H535.551M531.415 40.182V31.911M496.263 67.063H504.534M500.399 71.1985V62.9274M496.263 98.0794H504.534M500.399 102.215V93.9439M527.28 67.063H535.551M531.415 71.1985V62.9274M527.28 98.0794H535.551M531.415 102.215V93.9439M496.263 129.096H504.534M500.399 133.231V124.96M496.263 160.112H504.534M500.399 164.248V155.977M527.28 129.096H535.551M531.415 133.231V124.96M527.28 160.112H535.551M531.415 164.248V155.977M496.263 191.129H504.534M500.399 195.264V186.993M496.263 222.145H504.534M500.399 226.281V218.01M527.28 191.129H535.551M531.415 195.264V186.993M527.28 222.145H535.551M531.415 226.281V218.01M496.263 253.162H504.534M500.399 257.297V249.026M496.263 284.178H504.534M500.399 288.314V280.043M527.28 253.162H535.551M531.415 257.297V249.026M527.28 284.178H535.551M531.415 288.314V280.043M496.263 315.195H504.534M500.399 319.33V311.059M527.28 315.195H535.551M531.415 319.33V311.059M434.23 5.03006H442.501M438.366 9.16559V0.894531M434.23 36.0465H442.501M438.366 40.182V31.911M465.247 5.03006H473.518M469.382 9.16559V0.894531M465.247 36.0465H473.518M469.382 40.182V31.911M434.23 67.063H442.501M438.366 71.1985V62.9274M434.23 98.0794H442.501M438.366 102.215V93.9439M465.247 67.063H473.518M469.382 71.1985V62.9274M465.247 98.0794H473.518M469.382 102.215V93.9439M434.23 129.096H442.501M438.366 133.231V124.96M434.23 160.112H442.501M438.366 164.248V155.977M465.247 129.096H473.518M469.382 133.231V124.96M465.247 160.112H473.518M469.382 164.248V155.977M434.23 191.129H442.501M438.366 195.264V186.993M434.23 222.145H442.501M438.366 226.281V218.01M465.247 191.129H473.518M469.382 195.264V186.993M465.247 222.145H473.518M469.382 226.281V218.01M434.23 253.162H442.501M438.366 257.297V249.026M434.23 284.178H442.501M438.366 288.314V280.043M465.247 253.162H473.518M469.382 257.297V249.026M465.247 284.178H473.518M469.382 288.314V280.043M434.23 315.195H442.501M438.366 319.33V311.059M465.247 315.195H473.518M469.382 319.33V311.059M372.197 5.03006H380.468M376.333 9.16559V0.894531M372.197 36.0465H380.468M376.333 40.182V31.911M403.214 5.03006H411.485M407.349 9.16559V0.894531M403.214 36.0465H411.485M407.349 40.182V31.911M372.197 67.063H380.468M376.333 71.1985V62.9274M372.197 98.0794H380.468M376.333 102.215V93.9439M403.214 67.063H411.485M407.349 71.1985V62.9274M403.214 98.0794H411.485M407.349 102.215V93.9439M372.197 129.096H380.468M376.333 133.231V124.96M372.197 160.112H380.468M376.333 164.248V155.977M403.214 129.096H411.485M407.349 133.231V124.96M403.214 160.112H411.485M407.349 164.248V155.977M372.197 191.129H380.468M376.333 195.264V186.993M372.197 222.145H380.468M376.333 226.281V218.01M403.214 191.129H411.485M407.349 195.264V186.993M403.214 222.145H411.485M407.349 226.281V218.01M372.197 253.162H380.468M376.333 257.297V249.026M372.197 284.178H380.468M376.333 288.314V280.043M403.214 253.162H411.485M407.349 257.297V249.026M403.214 284.178H411.485M407.349 288.314V280.043M372.197 315.195H380.468M376.333 319.33V311.059M403.214 315.195H411.485M407.349 319.33V311.059M310.165 5.03006H318.436M314.3 9.16559V0.894531M310.165 36.0465H318.436M314.3 40.182V31.911M341.181 5.03006H349.452M345.317 9.16559V0.894531M341.181 36.0465H349.452M345.317 40.182V31.911M310.165 67.063H318.436M314.3 71.1985V62.9274M310.165 98.0794H318.436M314.3 102.215V93.9439M341.181 67.063H349.452M345.317 71.1985V62.9274M341.181 98.0794H349.452M345.317 102.215V93.9439M310.165 129.096H318.436M314.3 133.231V124.96M310.165 160.112H318.436M314.3 164.248V155.977M341.181 129.096H349.452M345.317 133.231V124.96M341.181 160.112H349.452M345.317 164.248V155.977M310.165 191.129H318.436M314.3 195.264V186.993M310.165 222.145H318.436M314.3 226.281V218.01M341.181 191.129H349.452M345.317 195.264V186.993M341.181 222.145H349.452M345.317 226.281V218.01M310.165 253.162H318.436M314.3 257.297V249.026M310.165 284.178H318.436M314.3 288.314V280.043M341.181 253.162H349.452M345.317 257.297V249.026M341.181 284.178H349.452M345.317 288.314V280.043M310.165 315.195H318.436M314.3 319.33V311.059M341.181 315.195H349.452M345.317 319.33V311.059M248.132 5.03006H256.403M252.267 9.16559V0.894531M248.132 36.0465H256.403M252.267 40.182V31.911M279.148 5.03006H287.419M283.284 9.16559V0.894531M279.148 36.0465H287.419M283.284 40.182V31.911M248.132 67.063H256.403M252.267 71.1985V62.9274M248.132 98.0794H256.403M252.267 102.215V93.9439M279.148 67.063H287.419M283.284 71.1985V62.9274M279.148 98.0794H287.419M283.284 102.215V93.9439M248.132 129.096H256.403M252.267 133.231V124.96M248.132 160.112H256.403M252.267 164.248V155.977M279.148 129.096H287.419M283.284 133.231V124.96M279.148 160.112H287.419M283.284 164.248V155.977M248.132 191.129H256.403M252.267 195.264V186.993M248.132 222.145H256.403M252.267 226.281V218.01M279.148 191.129H287.419M283.284 195.264V186.993M279.148 222.145H287.419M283.284 226.281V218.01M248.132 253.162H256.403M252.267 257.297V249.026M248.132 284.178H256.403M252.267 288.314V280.043M279.148 253.162H287.419M283.284 257.297V249.026M279.148 284.178H287.419M283.284 288.314V280.043M248.132 315.195H256.403M252.267 319.33V311.059M279.148 315.195H287.419M283.284 319.33V311.059M186.099 5.03006H194.37M190.234 9.16559V0.894531M186.099 36.0465H194.37M190.234 40.182V31.911M217.115 5.03006H225.386M221.251 9.16559V0.894531M217.115 36.0465H225.386M221.251 40.182V31.911M186.099 67.063H194.37M190.234 71.1985V62.9274M186.099 98.0794H194.37M190.234 102.215V93.9439M217.115 67.063H225.386M221.251 71.1985V62.9274M217.115 98.0794H225.386M221.251 102.215V93.9439M186.099 129.096H194.37M190.234 133.231V124.96M186.099 160.112H194.37M190.234 164.248V155.977M217.115 129.096H225.386M221.251 133.231V124.96M217.115 160.112H225.386M221.251 164.248V155.977M186.099 191.129H194.37M190.234 195.264V186.993M186.099 222.145H194.37M190.234 226.281V218.01M217.115 191.129H225.386M221.251 195.264V186.993M217.115 222.145H225.386M221.251 226.281V218.01M186.099 253.162H194.37M190.234 257.297V249.026M186.099 284.178H194.37M190.234 288.314V280.043M217.115 253.162H225.386M221.251 257.297V249.026M217.115 284.178H225.386M221.251 288.314V280.043M186.099 315.195H194.37M190.234 319.33V311.059M217.115 315.195H225.386M221.251 319.33V311.059M124.066 5.03006H132.337M128.201 9.16559V0.894531M124.066 36.0465H132.337M128.201 40.182V31.911M155.082 5.03006H163.353M159.218 9.16559V0.894531M155.082 36.0465H163.353M159.218 40.182V31.911M124.066 67.063H132.337M128.201 71.1985V62.9274M124.066 98.0794H132.337M128.201 102.215V93.9439M155.082 67.063H163.353M159.218 71.1985V62.9274M155.082 98.0794H163.353M159.218 102.215V93.9439M124.066 129.096H132.337M128.201 133.231V124.96M124.066 160.112H132.337M128.201 164.248V155.977M155.082 129.096H163.353M159.218 133.231V124.96M155.082 160.112H163.353M159.218 164.248V155.977M124.066 191.129H132.337M128.201 195.264V186.993M124.066 222.145H132.337M128.201 226.281V218.01M155.082 191.129H163.353M159.218 195.264V186.993M155.082 222.145H163.353M159.218 226.281V218.01M124.066 253.162H132.337M128.201 257.297V249.026M124.066 284.178H132.337M128.201 288.314V280.043M155.082 253.162H163.353M159.218 257.297V249.026M155.082 284.178H163.353M159.218 288.314V280.043M124.066 315.195H132.337M128.201 319.33V311.059M155.082 315.195H163.353M159.218 319.33V311.059M62.0329 5.03006H70.304M66.1684 9.16559V0.894531M62.0329 36.0465H70.304M66.1684 40.182V31.911M93.0494 5.03006H101.32M97.1849 9.16559V0.894531M93.0494 36.0465H101.32M97.1849 40.182V31.911M62.0329 67.063H70.304M66.1684 71.1985V62.9274M62.0329 98.0794H70.304M66.1684 102.215V93.9439M93.0494 67.063H101.32M97.1849 71.1985V62.9274M93.0494 98.0794H101.32M97.1849 102.215V93.9439M62.0329 129.096H70.304M66.1684 133.231V124.96M62.0329 160.112H70.304M66.1684 164.248V155.977M93.0494 129.096H101.32M97.1849 133.231V124.96M93.0494 160.112H101.32M97.1849 164.248V155.977M62.0329 191.129H70.304M66.1684 195.264V186.993M62.0329 222.145H70.304M66.1684 226.281V218.01M93.0494 191.129H101.32M97.1849 195.264V186.993M93.0494 222.145H101.32M97.1849 226.281V218.01M62.0329 253.162H70.304M66.1684 257.297V249.026M62.0329 284.178H70.304M66.1684 288.314V280.043M93.0494 253.162H101.32M97.1849 257.297V249.026M93.0494 284.178H101.32M97.1849 288.314V280.043M62.0329 315.195H70.304M66.1684 319.33V311.059M93.0494 315.195H101.32M97.1849 319.33V311.059M0 5.03006H8.27105M4.13553 9.16559V0.894531M0 36.0465H8.27105M4.13553 40.182V31.911M31.0165 5.03006H39.2875M35.152 9.16559V0.894531M31.0165 36.0465H39.2875M35.152 40.182V31.911M0 67.063H8.27105M4.13553 71.1985V62.9274M0 98.0794H8.27105M4.13553 102.215V93.9439M31.0165 67.063H39.2875M35.152 71.1985V62.9274M31.0165 98.0794H39.2875M35.152 102.215V93.9439M0 129.096H8.27105M4.13553 133.231V124.96M0 160.112H8.27105M4.13553 164.248V155.977M31.0165 129.096H39.2875M35.152 133.231V124.96M31.0165 160.112H39.2875M35.152 164.248V155.977M0 191.129H8.27105M4.13553 195.264V186.993M0 222.145H8.27105M4.13553 226.281V218.01M31.0165 191.129H39.2875M35.152 195.264V186.993M31.0165 222.145H39.2875M35.152 226.281V218.01M0 253.162H8.27105M4.13553 257.297V249.026M0 284.178H8.27105M4.13553 288.314V280.043M31.0165 253.162H39.2875M35.152 257.297V249.026M31.0165 284.178H39.2875M35.152 288.314V280.043M0 315.195H8.27105M4.13553 319.33V311.059M31.0165 315.195H39.2875M35.152 319.33V311.059" stroke="#8B92A8" stroke-width="0.270619" stroke-miterlimit="10"/>
</g>
<defs>
<clipPath id="clip0_3338_15349">
<rect width="350" height="319.33" fill="white"/>
</clipPath>
</defs>
</svg>
