<svg width="350" height="675" viewBox="0 0 350 675" fill="none" xmlns="http://www.w3.org/2000/svg">
<g clip-path="url(#clip0_3338_15398)">
<path d="M344.487 729.355V738.191M339.954 733.773H349.02M310.491 729.355V738.191M305.959 733.773H315.024M344.487 762.491V771.327M339.954 766.909H349.02M310.491 762.491V771.327M305.959 766.909H315.024M276.496 729.355V738.191M271.963 733.773H281.029M242.5 729.355V738.191M237.968 733.773H247.033M276.496 762.491V771.327M271.963 766.909H281.029M242.5 762.491V771.327M237.968 766.909H247.033M208.505 729.355V738.191M203.972 733.773H213.038M174.51 729.355V738.191M169.977 733.773H179.042M208.505 762.491V771.327M203.972 766.909H213.038M174.51 762.491V771.327M169.977 766.909H179.042M140.514 729.355V738.191M135.981 733.773H145.047M106.519 729.355V738.191M101.986 733.773H111.051M140.514 762.491V771.327M135.981 766.909H145.047M106.519 762.491V771.327M101.986 766.909H111.051M72.5233 729.355V738.191M67.9906 733.773H77.0561M38.5279 729.355V738.191M33.9952 733.773H43.0606M72.5233 762.491V771.327M67.9906 766.909H77.0561M38.5279 762.491V771.327M33.9952 766.909H43.0606M4.53247 729.355V738.191M-0.000239142 733.773H9.06521M4.53247 762.491V771.327M-0.000239142 766.909H9.06521M344.487 663.084V671.92M339.954 667.502H349.02M310.491 663.084V671.92M305.959 667.502H315.024M344.487 696.219V705.056M339.954 700.637H349.02M310.491 696.219V705.056M305.959 700.637H315.024M276.496 663.084V671.92M271.963 667.502H281.029M242.5 663.084V671.92M237.968 667.502H247.033M276.496 696.219V705.056M271.963 700.637H281.029M242.5 696.219V705.056M237.968 700.637H247.033M208.505 663.084V671.92M203.972 667.502H213.038M174.51 663.084V671.92M169.977 667.502H179.042M208.505 696.219L208.505 705.056M203.972 700.637H213.038M174.51 696.219L174.51 705.056M169.977 700.637H179.042M140.514 663.084V671.92M135.981 667.502H145.047M106.519 663.084V671.92M101.986 667.502H111.051M140.514 696.219L140.514 705.056M135.981 700.637H145.047M106.519 696.219L106.519 705.056M101.986 700.637H111.051M72.5233 663.084V671.92M67.9906 667.502H77.0561M38.5279 663.084V671.92M33.9952 667.502H43.0606M72.5233 696.219V705.056M67.9906 700.637H77.0561M38.5279 696.219V705.056M33.9952 700.637H43.0606M4.53247 663.084V671.92M-0.000239142 667.502H9.06521M4.53247 696.219V705.056M-0.000239142 700.637H9.06521M344.487 596.812V605.648M339.954 601.23H349.02M310.491 596.812V605.648M305.959 601.23H315.024M344.487 629.948V638.784M339.954 634.366H349.02M310.491 629.948V638.784M305.959 634.366H315.024M276.496 596.812V605.648M271.963 601.23H281.029M242.5 596.812V605.648M237.968 601.23H247.033M276.496 629.948V638.784M271.963 634.366H281.029M242.5 629.948V638.784M237.968 634.366H247.033M208.505 596.812V605.648M203.972 601.23H213.038M174.51 596.812V605.648M169.977 601.23H179.042M208.505 629.948V638.784M203.972 634.366H213.038M174.51 629.948V638.784M169.977 634.366H179.042M140.514 596.812V605.648M135.981 601.23H145.047M106.519 596.812V605.648M101.986 601.23H111.051M140.514 629.948V638.784M135.981 634.366H145.047M106.519 629.948V638.784M101.986 634.366H111.051M72.5233 596.812V605.648M67.9906 601.23H77.0561M38.5279 596.812V605.648M33.9952 601.23H43.0606M72.5233 629.948V638.784M67.9906 634.366H77.0561M38.5279 629.948V638.784M33.9952 634.366H43.0606M4.53247 596.812V605.648M-0.000239142 601.23H9.06521M4.53247 629.948V638.784M-0.000239142 634.366H9.06521M344.487 530.54V539.376M339.954 534.958H349.02M310.491 530.54V539.376M305.959 534.958H315.024M344.487 563.676V572.512M339.954 568.094H349.02M310.491 563.676V572.512M305.959 568.094H315.024M276.496 530.54V539.376M271.963 534.958H281.029M242.5 530.54V539.376M237.968 534.958H247.033M276.496 563.676V572.512M271.963 568.094H281.029M242.5 563.676V572.512M237.968 568.094H247.033M208.505 530.54V539.376M203.972 534.958H213.038M174.51 530.54V539.376M169.977 534.958H179.042M208.505 563.676V572.512M203.972 568.094H213.038M174.51 563.676V572.512M169.977 568.094H179.042M140.514 530.54V539.376M135.981 534.958H145.047M106.519 530.54V539.376M101.986 534.958H111.051M140.514 563.676V572.512M135.981 568.094H145.047M106.519 563.676V572.512M101.986 568.094H111.051M72.5233 530.54V539.376M67.9906 534.958H77.0561M38.5279 530.54V539.376M33.9952 534.958H43.0606M72.5233 563.676V572.512M67.9906 568.094H77.0561M38.5279 563.676V572.512M33.9952 568.094H43.0606M4.53247 530.54V539.376M-0.000239142 534.958H9.06521M4.53247 563.676V572.512M-0.000239142 568.094H9.06521M344.487 464.269L344.487 473.105M339.954 468.687H349.02M310.491 464.269V473.105M305.959 468.687H315.024M344.487 497.404V506.241M339.954 501.823H349.02M310.491 497.404V506.241M305.959 501.823H315.024M276.496 464.269V473.105M271.963 468.687H281.029M242.5 464.269V473.105M237.968 468.687H247.033M276.496 497.404V506.241M271.963 501.823H281.029M242.5 497.404V506.241M237.968 501.823H247.033M208.505 464.269V473.105M203.972 468.687H213.038M174.51 464.269V473.105M169.977 468.687H179.042M208.505 497.404V506.241M203.972 501.823H213.038M174.51 497.404V506.241M169.977 501.823H179.042M140.514 464.269V473.105M135.981 468.687H145.047M106.519 464.269V473.105M101.986 468.687H111.051M140.514 497.404V506.241M135.981 501.823H145.047M106.519 497.404V506.241M101.986 501.823H111.051M72.5233 464.269L72.5233 473.105M67.9906 468.687H77.0561M38.5279 464.269L38.5279 473.105M33.9952 468.687H43.0606M72.5233 497.404V506.241M67.9906 501.823H77.0561M38.5279 497.404V506.241M33.9952 501.823H43.0606M4.53247 464.269L4.53247 473.105M-0.000239142 468.687H9.06521M4.53247 497.404V506.241M-0.000239142 501.823H9.06521M344.487 397.997V406.833M339.954 402.415H349.02M310.491 397.997V406.833M305.959 402.415H315.024M344.487 431.133V439.969M339.954 435.551H349.02M310.491 431.133V439.969M305.959 435.551H315.024M276.496 397.997V406.833M271.963 402.415H281.029M242.5 397.997V406.833M237.968 402.415H247.033M276.496 431.133V439.969M271.963 435.551H281.029M242.5 431.133V439.969M237.968 435.551H247.033M208.505 397.997V406.833M203.972 402.415H213.038M174.51 397.997V406.833M169.977 402.415H179.042M208.505 431.133V439.969M203.972 435.551H213.038M174.51 431.133V439.969M169.977 435.551H179.042M140.514 397.997V406.833M135.981 402.415H145.047M106.519 397.997V406.833M101.986 402.415H111.051M140.514 431.133V439.969M135.981 435.551H145.047M106.519 431.133V439.969M101.986 435.551H111.051M72.5233 397.997V406.833M67.9906 402.415H77.0561M38.5279 397.997V406.833M33.9952 402.415H43.0606M72.5233 431.133V439.969M67.9906 435.551H77.0561M38.5279 431.133V439.969M33.9952 435.551H43.0606M4.53247 397.997V406.833M-0.000239142 402.415H9.06521M4.53247 431.133V439.969M-0.000239142 435.551H9.06521M344.487 331.725V340.562M339.954 336.143H349.02M310.491 331.725V340.562M305.959 336.143H315.024M344.487 364.861V373.697M339.954 369.279H349.02M310.491 364.861V373.697M305.959 369.279H315.024M276.496 331.725V340.562M271.963 336.143H281.029M242.5 331.725V340.562M237.968 336.143H247.033M276.496 364.861V373.697M271.963 369.279H281.029M242.5 364.861V373.697M237.968 369.279H247.033M208.505 331.725V340.562M203.972 336.143H213.038M174.51 331.725V340.562M169.977 336.143H179.042M208.505 364.861V373.697M203.972 369.279H213.038M174.51 364.861V373.697M169.977 369.279H179.042M140.514 331.725V340.562M135.981 336.143H145.047M106.519 331.725V340.562M101.986 336.143H111.051M140.514 364.861V373.697M135.981 369.279H145.047M106.519 364.861V373.697M101.986 369.279H111.051M72.5233 331.725V340.562M67.9906 336.143H77.0561M38.5279 331.725V340.562M33.9952 336.143H43.0606M72.5233 364.861V373.697M67.9906 369.279H77.0561M38.5279 364.861V373.697M33.9952 369.279H43.0606M4.53247 331.725V340.562M-0.000239142 336.143H9.06521M4.53247 364.861V373.697M-0.000239142 369.279H9.06521M344.487 265.454V274.29M339.954 269.872H349.02M310.491 265.454V274.29M305.959 269.872H315.024M344.487 298.59V307.426M339.954 303.008H349.02M310.491 298.59V307.426M305.959 303.008H315.024M276.496 265.454V274.29M271.963 269.872H281.029M242.5 265.454V274.29M237.968 269.872H247.033M276.496 298.59V307.426M271.963 303.008H281.029M242.5 298.59V307.426M237.968 303.008H247.033M208.505 265.454V274.29M203.972 269.872H213.038M174.51 265.454V274.29M169.977 269.872H179.042M208.505 298.59V307.426M203.972 303.008H213.038M174.51 298.59V307.426M169.977 303.008H179.042M140.514 265.454V274.29M135.981 269.872H145.047M106.519 265.454V274.29M101.986 269.872H111.051M140.514 298.59V307.426M135.981 303.008H145.047M106.519 298.59V307.426M101.986 303.008H111.051M72.5233 265.454V274.29M67.9906 269.872H77.0561M38.5279 265.454V274.29M33.9952 269.872H43.0606M72.5233 298.59V307.426M67.9906 303.008H77.0561M38.5279 298.59V307.426M33.9952 303.008H43.0606M4.53247 265.454V274.29M-0.000239142 269.872H9.06521M4.53247 298.59V307.426M-0.000239142 303.008H9.06521M344.487 199.182V208.018M339.954 203.6H349.02M310.491 199.182V208.018M305.959 203.6H315.024M344.487 232.318V241.154M339.954 236.736H349.02M310.491 232.318V241.154M305.959 236.736H315.024M276.496 199.182V208.018M271.963 203.6H281.029M242.5 199.182V208.018M237.968 203.6H247.033M276.496 232.318V241.154M271.963 236.736H281.029M242.5 232.318V241.154M237.968 236.736H247.033M208.505 199.182V208.018M203.972 203.6H213.038M174.51 199.182V208.018M169.977 203.6H179.042M208.505 232.318L208.505 241.154M203.972 236.736H213.038M174.51 232.318L174.51 241.154M169.977 236.736H179.042M140.514 199.182V208.018M135.981 203.6H145.047M106.519 199.182V208.018M101.986 203.6H111.051M140.514 232.318L140.514 241.154M135.981 236.736H145.047M106.519 232.318L106.519 241.154M101.986 236.736H111.051M72.5233 199.182V208.018M67.9906 203.6H77.0561M38.5279 199.182V208.018M33.9952 203.6H43.0606M72.5233 232.318V241.154M67.9906 236.736H77.0561M38.5279 232.318V241.154M33.9952 236.736H43.0606M4.53247 199.182V208.018M-0.000239142 203.6H9.06521M4.53247 232.318V241.154M-0.000239142 236.736H9.06521M344.487 132.91V141.747M339.954 137.329H349.02M310.491 132.91V141.747M305.959 137.329H315.024M344.487 166.046V174.883M339.954 170.464H349.02M310.491 166.046V174.883M305.959 170.464H315.024M276.496 132.91V141.747M271.963 137.329H281.029M242.5 132.91V141.747M237.968 137.329H247.033M276.496 166.046V174.883M271.963 170.464H281.029M242.5 166.046V174.883M237.968 170.464H247.033M208.505 132.91V141.747M203.972 137.329H213.038M174.51 132.91V141.747M169.977 137.329H179.042M208.505 166.046V174.883M203.972 170.464H213.038M174.51 166.046V174.883M169.977 170.464H179.042M140.514 132.91V141.747M135.981 137.329H145.047M106.519 132.91V141.747M101.986 137.329H111.051M140.514 166.046V174.883M135.981 170.464H145.047M106.519 166.046V174.883M101.986 170.464H111.051M72.5233 132.91V141.747M67.9906 137.329H77.0561M38.5279 132.91V141.747M33.9952 137.329H43.0606M72.5233 166.046V174.883M67.9906 170.464H77.0561M38.5279 166.046V174.883M33.9952 170.464H43.0606M4.53247 132.91V141.747M-0.000239142 137.329H9.06521M4.53247 166.046V174.883M-0.000239142 170.464H9.06521M344.487 66.6388V75.475M339.954 71.0569H349.02M310.491 66.6388V75.475M305.959 71.0569H315.024M344.487 99.7746V108.611M339.954 104.193H349.02M310.491 99.7746V108.611M305.959 104.193H315.024M276.496 66.6388V75.475M271.963 71.0569H281.029M242.5 66.6388V75.475M237.968 71.0569H247.033M276.496 99.7746V108.611M271.963 104.193H281.029M242.5 99.7746V108.611M237.968 104.193H247.033M208.505 66.6388V75.475M203.972 71.0569H213.038M174.51 66.6388V75.475M169.977 71.0569H179.042M208.505 99.7746V108.611M203.972 104.193H213.038M174.51 99.7746V108.611M169.977 104.193H179.042M140.514 66.6388V75.475M135.981 71.0569H145.047M106.519 66.6388V75.475M101.986 71.0569H111.051M140.514 99.7746V108.611M135.981 104.193H145.047M106.519 99.7746V108.611M101.986 104.193H111.051M72.5233 66.6388V75.475M67.9906 71.0569H77.0561M38.5279 66.6388V75.475M33.9952 71.0569H43.0606M72.5233 99.7746V108.611M67.9906 104.193H77.0561M38.5279 99.7746V108.611M33.9952 104.193H43.0606M4.53247 66.6388V75.475M-0.000239142 71.0569L9.06521 71.0569M4.53247 99.7746V108.611M-0.000239142 104.193L9.06521 104.193M344.487 0.367188V9.20341M339.954 4.7853L349.02 4.7853M310.491 0.367188V9.20341M305.959 4.7853L315.024 4.7853M344.487 33.503V42.3392M339.954 37.9211H349.02M310.491 33.503V42.3392M305.959 37.9211H315.024M276.496 0.367188V9.20341M271.963 4.7853H281.029M242.5 0.367188V9.20341M237.968 4.7853L247.033 4.7853M276.496 33.503V42.3392M271.963 37.9211H281.029M242.5 33.503V42.3392M237.968 37.9211H247.033M208.505 0.367188V9.20341M203.972 4.7853L213.038 4.7853M174.51 0.367188V9.20341M169.977 4.7853H179.042M208.505 33.503V42.3392M203.972 37.9211H213.038M174.51 33.503V42.3392M169.977 37.9211L179.042 37.9211M140.514 0.367188V9.20341M135.981 4.7853L145.047 4.7853M106.519 0.367188V9.20341M101.986 4.7853L111.051 4.7853M140.514 33.503V42.3392M135.981 37.9211H145.047M106.519 33.503V42.3392M101.986 37.9211H111.051M72.5233 0.367188V9.20341M67.9906 4.7853H77.0561M38.5279 0.367188V9.20341M33.9952 4.7853L43.0606 4.7853M72.5233 33.503V42.3392M67.9906 37.9211H77.0561M38.5279 33.503V42.3392M33.9952 37.9211H43.0606M4.53247 0.367188V9.20341M-0.000239142 4.7853L9.06521 4.7853M4.53247 33.503V42.3392M-0.000239142 37.9211H9.06521" stroke="#8B92A8" stroke-width="0.29661" stroke-miterlimit="10"/>
</g>
<defs>
<clipPath id="clip0_3338_15398">
<rect width="674" height="350" fill="white" transform="matrix(0 1 -1 0 350 0.367188)"/>
</clipPath>
</defs>
</svg>
