<svg width="208" height="28" viewBox="0 0 208 28" fill="none" xmlns="http://www.w3.org/2000/svg">
<path d="M13.5624 10.2234C15.5294 10.6816 16.9096 11.2376 17.7032 11.8887C18.8431 12.8163 19.4159 14.0177 19.4159 15.4958C19.4159 17.0548 18.79 18.3429 17.5355 19.3627C15.996 20.5949 13.7608 21.2124 10.827 21.2124H0.299059V20.648C1.25742 20.648 1.90563 20.5586 2.24651 20.3798C2.58738 20.2009 2.82767 19.969 2.96458 19.684C3.10148 19.399 3.17133 18.6949 3.17133 17.5745V4.1268C3.17133 3.00639 3.10148 2.2995 2.96458 2.01171C2.82767 1.72392 2.58459 1.48923 2.23812 1.31599C1.89166 1.14276 1.24624 1.05615 0.296265 1.05615V0.491752H10.2291C12.6012 0.491752 14.2832 0.704099 15.2723 1.126C16.2614 1.5479 17.041 2.17935 17.611 3.02036C18.1809 3.86137 18.4659 4.75546 18.4659 5.70264C18.4659 6.70012 18.1055 7.58862 17.3818 8.36816C16.661 9.1449 15.3869 9.76518 13.5624 10.2234ZM8.00224 11.0029V17.65L7.98827 18.4127C7.98827 18.9632 8.12797 19.3767 8.40737 19.6589C8.68678 19.9383 9.10309 20.078 9.65352 20.078C10.4694 20.078 11.221 19.8964 11.9083 19.536C12.5956 19.1755 13.1237 18.6502 13.4897 17.9629C13.8558 17.2756 14.0402 16.51 14.0402 15.6634C14.0402 14.6967 13.8166 13.8277 13.3668 13.0594C12.9198 12.291 12.3023 11.7517 11.5171 11.4472C10.732 11.1399 9.56131 10.9918 8.00224 11.0029ZM8.00224 9.80989C9.44955 9.80989 10.5169 9.64783 11.2042 9.32093C11.8915 8.99403 12.4196 8.5358 12.7856 7.94626C13.1517 7.35672 13.3361 6.60232 13.3361 5.68588C13.3361 4.76943 13.1545 4.01783 12.794 3.43109C12.4336 2.84434 11.9167 2.40008 11.2433 2.09274C10.57 1.78539 9.49146 1.6401 8.00503 1.64849V9.80989H8.00224Z" fill="black"/>
<path d="M28.3093 6.49615C29.5527 6.49615 30.7094 6.81747 31.7767 7.4601C32.8441 8.10273 33.6599 9.01358 34.2132 10.1955C34.7692 11.3773 35.0458 12.671 35.0458 14.0764C35.0458 16.1049 34.5317 17.8008 33.5035 19.1643C32.2601 20.8156 30.5446 21.6399 28.354 21.6399C26.2054 21.6399 24.5486 20.8855 23.389 19.3795C22.2267 17.8707 21.6483 16.1244 21.6483 14.1379C21.6483 12.0898 22.2407 10.3044 23.4281 8.78168C24.6128 7.25613 26.2417 6.49615 28.3093 6.49615ZM25.4985 0.29058C26.0685 0.29058 26.5491 0.488958 26.9431 0.885712C27.3342 1.28247 27.5326 1.76304 27.5326 2.32185C27.5326 2.88345 27.3342 3.36123 26.9375 3.75799C26.5407 4.15474 26.0601 4.35312 25.5013 4.35312C24.9397 4.35312 24.4619 4.15474 24.0652 3.75799C23.6684 3.36123 23.4701 2.88066 23.4701 2.32185C23.4701 1.76304 23.6684 1.28247 24.0652 0.885712C24.4619 0.488958 24.9369 0.29058 25.4985 0.29058ZM28.3708 7.58024C27.8511 7.58024 27.4069 7.77582 27.0325 8.16978C26.6609 8.56095 26.415 9.3349 26.2976 10.4916C26.1803 11.6484 26.1216 13.2549 26.1216 15.3114C26.1216 16.401 26.1915 17.4209 26.3367 18.368C26.4485 19.0917 26.6888 19.6421 27.0548 20.0193C27.4208 20.3965 27.8399 20.5837 28.3065 20.5837C28.7648 20.5837 29.1476 20.4552 29.4521 20.2009C29.8489 19.8545 30.1143 19.3711 30.2456 18.748C30.4496 17.7813 30.5502 15.8255 30.5502 12.8805C30.5502 11.1482 30.4524 9.96076 30.2596 9.31254C30.0668 8.66712 29.7818 8.19493 29.4046 7.89876C29.1448 7.68641 28.7983 7.58024 28.3708 7.58024ZM31.2124 0.29058C31.7823 0.29058 32.2629 0.488958 32.6569 0.885712C33.048 1.28247 33.2464 1.76304 33.2464 2.32185C33.2464 2.88345 33.048 3.36123 32.6513 3.75799C32.2545 4.15474 31.774 4.35312 31.2151 4.35312C30.6535 4.35312 30.1758 4.15474 29.779 3.75799C29.3823 3.36123 29.1839 2.88066 29.1839 2.32185C29.1839 1.76304 29.3823 1.28247 29.779 0.885712C30.1758 0.488958 30.6507 0.29058 31.2124 0.29058Z" fill="black"/>
<path d="M43.1457 10.1619C44.0929 8.68389 44.9227 7.70318 45.6352 7.21981C46.3477 6.73644 47.035 6.49336 47.6972 6.49336C48.2672 6.49336 48.7226 6.66938 49.0635 7.02143C49.4044 7.37348 49.5748 7.87082 49.5748 8.51066C49.5748 9.1924 49.41 9.72327 49.0775 10.1005C48.745 10.4777 48.3454 10.6649 47.8788 10.6649C47.3396 10.6649 46.8702 10.4916 46.4734 10.1452C46.0767 9.79871 45.842 9.60592 45.7693 9.56401C45.6687 9.50254 45.5514 9.47181 45.4173 9.47181C45.1211 9.47181 44.8417 9.58357 44.5763 9.80709C44.1572 10.1536 43.8414 10.6481 43.6291 11.2879C43.3022 12.277 43.1401 13.3667 43.1401 14.557V17.8428L43.1541 18.6977C43.1541 19.2789 43.1904 19.6505 43.2603 19.8126C43.3832 20.0864 43.562 20.2875 43.8023 20.4161C44.0426 20.5446 44.4477 20.6228 45.0177 20.6536V21.204H37.3006V20.6536C37.9208 20.6033 38.3428 20.4328 38.5607 20.1423C38.7786 19.8517 38.8904 19.0861 38.8904 17.8428V9.944C38.8904 9.12814 38.8485 8.60845 38.7674 8.38492C38.6669 8.09993 38.5188 7.89038 38.3232 7.75906C38.1304 7.62774 37.7895 7.53553 37.3006 7.48524V6.92085H43.1457V10.1619Z" fill="black"/>
<path d="M60.1363 6.52689L60.3654 11.4025H59.8457C59.2254 9.95518 58.58 8.96888 57.9122 8.43801C57.2445 7.90714 56.5795 7.6445 55.9173 7.6445C55.4982 7.6445 55.1433 7.7842 54.8472 8.06361C54.551 8.34301 54.4029 8.66712 54.4029 9.03314C54.4029 9.30696 54.5035 9.57239 54.7075 9.82665C55.0344 10.2458 55.9452 10.961 57.4428 11.9725C58.9404 12.9867 59.9267 13.8473 60.3989 14.5542C60.8739 15.2611 61.1086 16.0546 61.1086 16.9291C61.1086 17.7226 60.9102 18.5022 60.5135 19.2677C60.1167 20.0333 59.5551 20.6172 58.8315 21.0252C58.1078 21.4331 57.3087 21.6371 56.4314 21.6371C55.7496 21.6371 54.836 21.4219 53.696 20.9944C53.3915 20.8827 53.1819 20.8268 53.0702 20.8268C52.7349 20.8268 52.4527 21.0811 52.2291 21.5896H51.7262L51.4803 16.4541H52.0084C52.4666 17.7981 53.0953 18.8067 53.8944 19.4801C54.6935 20.1534 55.4507 20.4887 56.1632 20.4887C56.6521 20.4887 57.0517 20.3378 57.3618 20.0389C57.6719 19.7371 57.8284 19.3739 57.8284 18.9464C57.8284 18.4574 57.6747 18.0355 57.3702 17.6779C57.0656 17.3203 56.3811 16.781 55.3222 16.0574C53.7631 14.9789 52.7544 14.1518 52.2962 13.5818C51.6228 12.7464 51.2876 11.8244 51.2876 10.8157C51.2876 9.71489 51.6675 8.72021 52.4247 7.82891C53.1847 6.93761 54.28 6.49056 55.7189 6.49056C56.4929 6.49056 57.2417 6.67776 57.9653 7.05496C58.2391 7.20863 58.4654 7.28407 58.6387 7.28407C58.8231 7.28407 58.9684 7.24495 59.0829 7.16951C59.1947 7.09408 59.3735 6.87614 59.6166 6.5213H60.1363V6.52689Z" fill="black"/>
<path d="M75.3862 13.5539H67.5489C67.6411 15.4483 68.144 16.9459 69.0605 18.0467C69.7646 18.8933 70.6084 19.3152 71.5975 19.3152C72.2093 19.3152 72.7626 19.1448 73.2627 18.8039C73.7628 18.463 74.2965 17.8483 74.8665 16.9626L75.3862 17.2979C74.6122 18.8766 73.7572 19.9942 72.8185 20.6508C71.8824 21.3074 70.7956 21.6371 69.5634 21.6371C67.4455 21.6371 65.8389 20.8212 64.7493 19.1923C63.8719 17.8791 63.4361 16.2474 63.4361 14.3027C63.4361 11.9194 64.0815 10.0222 65.3695 8.61124C66.6576 7.20025 68.1692 6.49615 69.8987 6.49615C71.346 6.49615 72.6005 7.08849 73.6651 8.27596C74.7324 9.46063 75.3051 11.2209 75.3862 13.5539ZM71.6282 12.5313C71.6282 10.8912 71.5388 9.76518 71.36 9.15329C71.1811 8.54139 70.9045 8.07758 70.5273 7.76185C70.3122 7.57745 70.0272 7.48804 69.6724 7.48804C69.1415 7.48804 68.7084 7.74788 68.3731 8.26757C67.7724 9.17564 67.4706 10.4162 67.4706 11.9948V12.5285H71.6282V12.5313Z" fill="black"/>
<path d="M83.0111 6.92364V8.7733C83.7459 7.97979 84.4473 7.40142 85.1206 7.03819C85.794 6.67776 86.5148 6.49615 87.2916 6.49615C88.2192 6.49615 88.9876 6.7532 89.5995 7.26731C90.2114 7.78141 90.6193 8.42125 90.8233 9.18402C90.9853 9.76518 91.0691 10.88 91.0691 12.5313V18.0942C91.0691 19.1951 91.1697 19.8796 91.3681 20.1506C91.5665 20.4217 91.9828 20.5921 92.6142 20.6619V21.2124H85.386V20.6619C85.9253 20.5921 86.3137 20.3658 86.5484 19.9886C86.7104 19.7343 86.7943 19.1029 86.7943 18.0942V11.7378C86.7943 10.5671 86.7495 9.82665 86.6573 9.5221C86.5651 9.21755 86.4115 8.98005 86.1907 8.81241C85.9728 8.64477 85.7297 8.56095 85.4643 8.56095C84.587 8.56095 83.7739 9.18681 83.0195 10.4413V18.097C83.0195 19.1671 83.1201 19.8433 83.3185 20.1283C83.5168 20.4133 83.8856 20.5921 84.4249 20.6619V21.2124H77.1967V20.6619C77.7974 20.6005 78.2249 20.4077 78.4792 20.0808C78.6524 19.8573 78.739 19.1951 78.739 18.0942V10.025C78.739 8.94653 78.6384 8.27316 78.4401 8.00773C78.2417 7.74229 77.8254 7.56906 77.1939 7.48804V6.92364H83.0111Z" fill="black"/>
<path d="M103.195 15.6019H94.2879V12.4391H103.195V15.6019Z" fill="black"/>
<path d="M123.044 0.488958L110.865 20.0473H114.807C116.671 20.0473 117.976 19.9299 118.719 19.6952C119.932 19.3292 120.977 18.653 121.851 17.6695C122.726 16.686 123.332 15.37 123.67 13.7188H124.265L123.424 21.2068H104.447L116.64 1.61775H113.57C112.377 1.61775 111.594 1.65407 111.217 1.72392C110.505 1.85524 109.834 2.11788 109.208 2.51184C108.582 2.90301 108.063 3.4255 107.649 4.0793C107.235 4.73031 106.914 5.55735 106.679 6.55482H106.115L106.679 0.488958H123.044Z" fill="black"/>
<path d="M137.973 13.5539H130.135C130.228 15.4483 130.731 16.9459 131.647 18.0467C132.351 18.8933 133.195 19.3152 134.184 19.3152C134.796 19.3152 135.349 19.1448 135.849 18.8039C136.349 18.463 136.883 17.8483 137.453 16.9626L137.973 17.2979C137.199 18.8766 136.344 19.9942 135.405 20.6508C134.469 21.3074 133.382 21.6371 132.15 21.6371C130.032 21.6371 128.425 20.8212 127.336 19.1923C126.458 17.8791 126.023 16.2474 126.023 14.3027C126.023 11.9194 126.668 10.0222 127.956 8.61124C129.244 7.20025 130.756 6.49615 132.485 6.49615C133.933 6.49615 135.187 7.08849 136.252 8.27596C137.319 9.46063 137.892 11.2209 137.973 13.5539ZM134.215 12.5313C134.215 10.8912 134.125 9.76518 133.947 9.15329C133.768 8.54139 133.491 8.07758 133.114 7.76185C132.899 7.57745 132.614 7.48804 132.259 7.48804C131.728 7.48804 131.295 7.74788 130.96 8.26757C130.359 9.17564 130.057 10.4162 130.057 11.9948V12.5285H134.215V12.5313Z" fill="black"/>
<path d="M145.338 6.92364V18.2451C145.338 19.2538 145.455 19.8992 145.69 20.1786C145.925 20.458 146.383 20.62 147.065 20.6592V21.2096H139.347V20.6592C139.979 20.6396 140.448 20.4552 140.753 20.1087C140.957 19.874 141.057 19.2538 141.057 18.2451V9.90209C141.057 8.89344 140.94 8.24802 140.705 7.96861C140.471 7.68921 140.018 7.52715 139.345 7.48804V6.92364H145.338ZM143.198 0C143.86 0 144.421 0.231906 144.88 0.695717C145.338 1.15953 145.567 1.71834 145.567 2.36935C145.567 3.02036 145.335 3.57638 144.871 4.0346C144.407 4.49282 143.849 4.72193 143.198 4.72193C142.547 4.72193 141.991 4.49282 141.532 4.0346C141.074 3.57638 140.845 3.02036 140.845 2.36935C140.845 1.71834 141.074 1.15953 141.532 0.695717C141.991 0.231906 142.547 0 143.198 0Z" fill="black"/>
<path d="M154.122 6.92085H157.514V8.43242H154.122V17.2476C154.122 18.0719 154.161 18.6055 154.237 18.843C154.312 19.0833 154.449 19.2761 154.642 19.4242C154.835 19.5723 155.014 19.6449 155.176 19.6449C155.838 19.6449 156.464 19.142 157.056 18.1333L157.514 18.4686C156.69 20.4245 155.349 21.4024 153.496 21.4024C152.588 21.4024 151.823 21.1509 151.197 20.6452C150.571 20.1395 150.172 19.5779 149.998 18.9576C149.895 18.6111 149.845 17.6751 149.845 16.1468V8.42963H147.981V7.89597C149.263 6.9907 150.356 6.03793 151.258 5.03766C152.161 4.04019 152.946 2.92536 153.619 1.6904H154.122V6.92085Z" fill="black"/>
<path d="M172.675 6.92364V18.1082C172.675 19.1979 172.775 19.8768 172.979 20.1478C173.183 20.4189 173.597 20.5893 174.217 20.6592V21.2096H168.394V19.2985C167.713 20.1143 167.028 20.7067 166.346 21.0783C165.665 21.4499 164.899 21.6371 164.055 21.6371C163.25 21.6371 162.535 21.3912 161.909 20.8966C161.283 20.4021 160.862 19.8237 160.649 19.1615C160.434 18.4994 160.328 17.3426 160.328 15.6941V10.025C160.328 8.94653 160.227 8.27316 160.029 8.00773C159.831 7.74229 159.414 7.56906 158.783 7.48804V6.92364H164.606V16.6888C164.606 17.7086 164.653 18.3652 164.751 18.6586C164.849 18.9548 165 19.1783 165.209 19.332C165.419 19.4857 165.659 19.5611 165.936 19.5611C166.302 19.5611 166.634 19.4633 166.927 19.2705C167.335 19.0051 167.824 18.4714 168.394 17.6667V10.0278C168.394 8.94932 168.294 8.27596 168.095 8.01052C167.897 7.74509 167.481 7.57186 166.849 7.49083V6.92643H172.675V6.92364Z" fill="black"/>
<path d="M182.116 6.92364V8.7733C182.851 7.97979 183.552 7.40142 184.225 7.03819C184.899 6.67776 185.62 6.49615 186.396 6.49615C187.324 6.49615 188.092 6.7532 188.704 7.26731C189.316 7.78141 189.724 8.42125 189.928 9.18402C190.09 9.76518 190.174 10.88 190.174 12.5313V18.0942C190.174 19.1951 190.274 19.8796 190.473 20.1506C190.671 20.4217 191.088 20.5921 191.719 20.6619V21.2124H184.491V20.6619C185.03 20.5921 185.418 20.3658 185.653 19.9886C185.815 19.7343 185.899 19.1029 185.899 18.0942V11.7378C185.899 10.5671 185.854 9.82665 185.762 9.5221C185.67 9.21755 185.516 8.98005 185.295 8.81241C185.078 8.64477 184.834 8.56095 184.569 8.56095C183.692 8.56095 182.879 9.18681 182.124 10.4413V18.097C182.124 19.1671 182.225 19.8433 182.423 20.1283C182.622 20.4133 182.99 20.5921 183.53 20.6619V21.2124H176.301V20.6619C176.902 20.6005 177.33 20.4077 177.584 20.0808C177.757 19.8573 177.844 19.1951 177.844 18.0942V10.025C177.844 8.94653 177.743 8.27316 177.545 8.00773C177.346 7.74229 176.93 7.56906 176.299 7.48804V6.92364H182.116Z" fill="black"/>
<path d="M202.85 7.09128H207.665V8.7733H204.929C205.429 9.27343 205.776 9.72606 205.969 10.134C206.214 10.6844 206.335 11.26 206.335 11.8607C206.335 12.8805 206.052 13.7635 205.485 14.5123C204.918 15.2611 204.15 15.8478 203.177 16.2697C202.205 16.6916 201.342 16.904 200.587 16.904C200.526 16.904 199.914 16.8788 198.754 16.8285C198.296 16.8285 197.911 16.9794 197.6 17.2784C197.29 17.5801 197.134 17.9378 197.134 18.3569C197.134 18.7229 197.274 19.0246 197.553 19.2593C197.832 19.494 198.288 19.6114 198.919 19.6114L201.562 19.5807C203.703 19.5807 205.172 19.8154 205.977 20.2848C207.128 20.9358 207.704 21.9388 207.704 23.2939C207.704 24.1601 207.438 24.948 206.91 25.6549C206.379 26.3618 205.684 26.8843 204.817 27.2224C203.504 27.7225 201.99 27.9712 200.28 27.9712C198.997 27.9712 197.824 27.8454 196.765 27.5968C195.706 27.3481 194.946 27.0016 194.488 26.5574C194.03 26.1131 193.801 25.6493 193.801 25.1604C193.801 24.691 193.977 24.2719 194.329 23.9002C194.681 23.5286 195.334 23.2157 196.293 22.9614C194.968 22.3104 194.306 21.4024 194.306 20.2428C194.306 19.5387 194.577 18.857 195.117 18.1948C195.656 17.5326 196.511 16.957 197.684 16.4681C196.318 15.968 195.332 15.3114 194.72 14.4983C194.108 13.6824 193.803 12.7408 193.803 11.6707C193.803 10.2765 194.373 9.06667 195.516 8.04126C196.656 7.01864 198.123 6.50453 199.917 6.50453C200.864 6.49615 201.842 6.69453 202.85 7.09128ZM199.308 23.3191C198.268 23.3191 197.581 23.4057 197.246 23.5789C196.664 23.8947 196.374 24.3221 196.374 24.8614C196.374 25.3811 196.676 25.8533 197.276 26.2752C197.877 26.6971 199.009 26.9094 200.668 26.9094C202.085 26.9094 203.197 26.7222 204.007 26.345C204.817 25.9678 205.223 25.437 205.223 24.7552C205.223 24.501 205.147 24.2858 204.993 24.1126C204.72 23.808 204.303 23.5985 203.747 23.4867C203.189 23.375 201.71 23.3191 199.308 23.3191ZM200.207 7.44333C199.615 7.44333 199.118 7.74229 198.71 8.33742C198.302 8.93256 198.098 10.1675 198.098 12.0423C198.098 13.5595 198.299 14.6017 198.701 15.1661C199.104 15.7305 199.579 16.0155 200.129 16.0155C200.741 16.0155 201.249 15.7361 201.657 15.1744C202.065 14.6156 202.269 13.5232 202.269 11.9054C202.269 10.0809 202.04 8.84035 201.582 8.17816C201.258 7.68641 200.8 7.44333 200.207 7.44333Z" fill="black"/>
</svg>
