<svg width="150" height="30" viewBox="0 0 150 30" fill="none" xmlns="http://www.w3.org/2000/svg">
<g clip-path="url(#clip0_3797_11606)">
<path d="M28.0429 30H3.34433C1.87863 30 0.693604 28.815 0.693604 27.3493V2.65073C0.693604 1.18503 1.87863 0 3.34433 0H28.0117C29.4774 0 30.6624 1.18503 30.6624 2.65073V27.3181C30.6936 28.815 29.5086 30 28.0429 30Z" fill="#F7A63C"/>
<path d="M140.824 6.51768C136.146 6.51768 132.342 10.3223 132.342 15C132.342 19.6778 136.146 23.4823 140.824 23.4823C145.502 23.4823 149.306 19.6778 149.306 15C149.306 10.3223 145.502 6.51768 140.824 6.51768ZM140.824 22.3285C136.77 22.3285 133.496 19.0541 133.496 15C133.496 10.946 136.77 7.67152 140.824 7.67152C144.878 7.67152 148.153 10.946 148.153 15C148.153 19.0541 144.878 22.3285 140.824 22.3285ZM36.2607 23.2329V6.76716H43.4644C45.4603 6.76716 46.926 7.17256 47.8927 7.95219C48.8282 8.73181 49.3272 9.85448 49.3272 11.2578C49.3272 12.131 49.0465 12.9106 48.5164 13.5967C47.9863 14.2827 47.2066 14.7193 46.1775 14.9064V14.9376C47.3314 15.0936 48.2045 15.5302 48.8282 16.2474C49.4519 16.9335 49.7638 17.7755 49.7638 18.7422C49.7638 20.1455 49.2648 21.2682 48.2357 22.0478C47.2066 22.8586 45.7097 23.2329 43.7451 23.2329H36.2607ZM39.5975 13.659H43.0278C44.8366 13.659 45.7409 12.9418 45.7409 11.5385C45.7409 10.1351 44.8366 9.41788 43.0278 9.41788H39.5975V13.659ZM39.5975 20.6445H43.4021C44.3376 20.6445 45.0237 20.4574 45.4603 20.0832C45.8969 19.7089 46.1463 19.1788 46.1463 18.4927C46.1463 17.8067 45.928 17.2765 45.4603 16.9023C45.0237 16.5281 44.3064 16.341 43.4021 16.341H39.5975V20.6445ZM64.9197 6.76716V9.54262H59.4V23.2329H55.9696V9.54262H50.4499V6.76716H64.9197ZM87.9966 23.2329V6.76716H99.2544V7.921H89.244V14.2827H97.165V15.4678H89.244V22.1102H99.6598V23.264H87.9966V23.2329ZM118.776 6.76716V23.2329H117.529V6.76716H118.776ZM129.535 14.2827V15.4678H118.153V14.2827H129.535ZM130.19 6.76716V23.2329H128.943V6.76716H130.19ZM84.4416 19.7089L79.6391 14.9064L84.4416 10.0728V19.7089ZM77.6432 19.1788C76.5517 20.3015 75.0549 20.9875 73.3709 20.9875C70.0653 20.9875 67.3833 18.3056 67.3833 15C67.3833 11.6944 70.0653 9.01248 73.3709 9.01248C74.9925 9.01248 76.4582 9.66736 77.5497 10.7277L79.4519 8.82537C77.8927 7.2973 75.7409 6.33057 73.3709 6.33057C68.5996 6.33057 64.7014 10.1975 64.7014 15C64.7014 19.8025 68.5684 23.6694 73.3709 23.6694C75.7721 23.6694 77.9551 22.6715 79.5455 21.0811L77.6432 19.1788ZM113.631 20.1144C112.29 21.4553 110.45 22.2973 108.392 22.2973C104.338 22.2973 101.063 19.0229 101.063 14.9688C101.063 10.9148 104.338 7.64034 108.392 7.64034C110.387 7.64034 112.196 8.45115 113.537 9.72973L114.348 8.91892C112.82 7.42204 110.731 6.48649 108.392 6.48649C103.714 6.48649 99.9093 10.2911 99.9093 14.9688C99.9093 19.6466 103.714 23.4511 108.392 23.4511C110.762 23.4511 112.882 22.4844 114.442 20.9252L113.631 20.1144Z" fill="black"/>
<path d="M14.4887 4.83105V11.2758L11.7876 14.6333L14.5198 17.9907V24.9758H28.429V4.83105H14.4887Z" fill="black"/>
<path d="M25.5726 21.0783H18.2144V8.76758H25.4174V10.2341H19.5184V13.9774H24.0203V15.4439H19.5184V19.6118H25.5726V21.0783Z" fill="#F6A53C"/>
<path d="M9.92479 14.6333L11.8187 12.2792V12.0477C11.8187 9.92516 10.6699 8.57446 8.06194 8.57446H2.90808V21.2711H8.37242C10.7631 21.2711 11.9118 20.0747 11.9118 17.875V17.1032L9.92479 14.6333ZM5.32978 11.0057H7.87566C8.93127 11.0057 9.36593 11.6232 9.36593 12.4336C9.36593 13.1668 8.93127 13.7843 7.87566 13.7843H5.32978V11.0057ZM8.06194 18.8012H5.29873V15.9454H8.06194C9.1486 15.9454 9.64536 16.5629 9.64536 17.3733C9.67641 18.2223 9.17965 18.8012 8.06194 18.8012Z" fill="black"/>
</g>
<defs>
<clipPath id="clip0_3797_11606">
<rect width="148.613" height="30" fill="white" transform="translate(0.693604)"/>
</clipPath>
</defs>
</svg>
