<svg width="44" height="44" viewBox="0 0 44 44" fill="none" xmlns="http://www.w3.org/2000/svg">
<path d="M7.40064 5.06281H36.5992C37.8096 5.06281 38.7931 6.04626 38.7931 7.25666V31.5498C38.7931 32.7602 37.8096 33.7437 36.5992 33.7437H33.1051C32.5898 33.7437 32.1737 34.1597 32.1737 34.6751V40.2685C32.1737 40.8548 31.4692 41.1574 31.0437 40.7507L24.3581 34.4056C23.9089 33.9801 23.3084 33.7389 22.6891 33.7389H7.40064C6.19024 33.7389 5.20679 32.7555 5.20679 31.5451V7.25666C5.20679 6.04626 6.19024 5.06281 7.40064 5.06281Z" stroke="#8B91A7" stroke-width="2" stroke-miterlimit="10"/>
<path d="M23.4183 20.9289C23.3994 21.8859 22.884 22.3832 22 22.3832C21.0792 22.3832 20.5826 21.8678 20.5638 20.9289L20.306 11.1868C20.2872 10.2479 20.9873 9.56665 21.982 9.56665C22.9578 9.56665 23.694 10.2659 23.676 11.2056L23.4183 20.9289Z" fill="#8B91A7"/>
<path d="M23.9885 26.4532C23.9885 27.521 23.0684 28.368 21.9999 28.368C20.9321 28.368 20.0112 27.5029 20.0112 26.4532C20.0112 25.4035 20.9132 24.5376 22.0007 24.5376C23.0865 24.5376 23.9885 25.3846 23.9885 26.4532Z" fill="#8B91A7"/>
</svg>
