<svg width="1200" height="295" viewBox="0 0 1200 295" fill="none" xmlns="http://www.w3.org/2000/svg">
<g clip-path="url(#clip0_987_21709)">
<path d="M1199.14 208.573C1189.9 211.115 1181.75 211.692 1174.69 210.304C1167.65 208.915 1162.15 205.681 1158.22 200.592C1154.41 195.507 1152.5 188.688 1152.5 180.13L1152.68 132.439H1134.47V117.354H1152.68V93.5957H1169.84L1169.67 117.354H1198.8V132.439H1169.67L1169.5 179.953C1169.5 184.23 1170.6 187.641 1172.8 190.188C1175.1 192.73 1178.46 194.176 1182.85 194.522C1187.24 194.869 1192.67 193.999 1199.14 191.918V208.569H1199.14V208.573Z" fill="#312938"/>
<path d="M1083.03 210.654C1074.36 210.654 1066.38 208.515 1059.1 204.238C1051.92 199.957 1046.26 194.18 1042.1 186.895C1037.94 179.614 1035.86 171.695 1035.86 163.137C1035.86 154.579 1037.94 146.548 1042.1 139.378C1046.38 132.097 1052.11 126.37 1059.27 122.212C1066.55 117.931 1074.47 115.797 1083.03 115.797C1090.66 115.797 1097.77 117.589 1104.36 121.174C1111.06 124.643 1116.56 129.439 1120.83 135.567C1125.23 141.578 1128.01 148.344 1129.16 155.856C1130.2 160.829 1130.26 165.395 1129.33 169.56H1053.02C1053.72 174.645 1055.46 179.157 1058.23 183.084C1061.12 186.903 1064.7 189.849 1068.99 191.93C1073.26 194.011 1077.94 195.049 1083.03 195.049C1088.46 195.049 1093.61 193.896 1098.46 191.58C1103.31 189.272 1107.31 186.091 1110.43 182.045L1125.86 186.034C1122.28 193.43 1116.44 199.388 1108.35 203.892C1100.37 208.404 1091.93 210.658 1083.02 210.658H1083.03V210.654ZM1112.34 156.025C1111.64 151.517 1109.9 147.355 1107.13 143.536C1104.47 139.717 1101 136.717 1096.73 134.517C1092.56 132.32 1087.94 131.22 1082.85 131.22C1077.77 131.22 1072.91 132.32 1068.62 134.517C1064.35 136.713 1060.88 139.717 1058.22 143.536C1055.56 147.348 1053.83 151.513 1053.02 156.025H1112.33H1112.34Z" fill="#312938"/>
<path d="M1005.36 87.8762H1022.7V209.265H1005.36V87.8762Z" fill="#312938"/>
<path d="M971.574 87.8762H988.917V209.265H971.574V87.8762Z" fill="#312938"/>
<path d="M906.36 210.654C897.34 210.654 889.421 208.4 882.597 203.888C875.778 199.38 872.309 192.384 872.193 182.903C872.193 176.891 873.582 171.749 876.355 167.468C879.247 163.191 883.582 159.89 889.363 157.583C895.255 155.152 902.483 153.94 911.041 153.94L939.83 153.767V147.702C939.83 142.036 937.515 137.755 932.895 134.87C928.272 131.863 922.433 130.362 915.379 130.362C909.483 130.362 904.279 131.463 899.771 133.659C895.375 135.855 892.663 139.44 891.621 144.409L874.797 144.582C875.143 138.69 877.112 133.597 880.69 129.32C884.39 124.932 889.248 121.574 895.259 119.262C901.271 116.947 907.864 115.793 915.029 115.793C922.195 115.793 929.422 117.008 935.665 119.435C942.022 121.862 947.054 125.328 950.75 129.839C954.446 134.347 956.3 139.609 956.3 145.617V209.258H939.826V192.784C937.403 196.946 933.357 200.992 927.687 204.923C922.022 208.735 914.91 210.646 906.36 210.646V210.654ZM907.575 196.088C913.01 196.088 918.21 194.757 923.183 192.099C928.153 189.442 932.141 185.857 935.149 181.349C938.272 176.837 939.834 171.926 939.834 166.61H914.172C908.16 166.61 903.248 167.422 899.429 169.037C895.732 170.541 893.071 172.56 891.455 175.11C889.951 177.653 889.317 180.372 889.548 183.257C890.009 187.534 891.971 190.772 895.44 192.969C898.909 195.049 902.956 196.092 907.579 196.092L907.575 196.088Z" fill="#312938"/>
<path d="M710.337 87.8763H728.892L751.781 197.473L777.101 87.8763H805.368L830.165 197.3L852.881 87.8763H871.432L844.204 209.265H815.587L791.313 97.4113L765.647 209.265H737.207L710.33 87.8763H710.333H710.337Z" fill="#312938"/>
<path d="M618.369 210.654C609.699 210.654 601.718 208.515 594.437 204.238C587.267 199.957 581.606 194.18 577.444 186.895C573.282 179.614 571.201 171.695 571.201 163.137C571.201 154.579 573.282 146.548 577.444 139.378C581.725 132.097 587.448 126.37 594.61 122.212C601.891 117.931 609.811 115.797 618.372 115.797C626.003 115.797 633.111 117.589 639.7 121.174C646.404 124.643 651.897 129.439 656.17 135.567C660.566 141.578 663.339 148.344 664.497 155.856C665.539 160.829 665.593 165.395 664.67 169.56H588.367C589.06 174.645 590.791 179.157 593.568 183.084C596.456 186.903 600.045 189.849 604.318 191.93C608.599 194.011 613.276 195.049 618.369 195.049C623.803 195.049 628.946 193.896 633.804 191.58C638.658 189.272 642.65 186.091 645.769 182.045L661.205 186.034C657.62 193.43 651.781 199.388 643.689 203.892C635.715 208.404 627.269 210.658 618.369 210.658H618.372L618.369 210.654ZM647.677 156.025C646.985 151.517 645.246 147.355 642.477 143.536C639.819 139.717 636.35 136.717 632.073 134.517C627.911 132.32 623.288 131.22 618.199 131.22C613.111 131.22 608.253 132.32 603.98 134.517C599.702 136.713 596.233 139.717 593.575 143.536C590.914 147.348 589.187 151.513 588.375 156.025H647.685H647.677Z" fill="#312938"/>
<path d="M488.883 87.8763H506.226V165.395L550.966 117.358H571.779L532.585 159.152L573.336 209.269H552.874L522.004 170.425L506.222 187.076V209.277H488.879V87.8802L488.883 87.8763Z" fill="#312938"/>
<path d="M423.846 210.654C414.827 210.654 406.907 208.4 400.088 203.888C393.268 199.38 389.799 192.384 389.683 182.903C389.683 176.891 391.072 171.749 393.845 167.468C396.737 163.191 401.072 159.89 406.849 157.583C412.742 155.152 419.969 153.94 428.527 153.94L457.317 153.767V147.702C457.317 142.036 455.001 137.755 450.378 134.87C445.755 131.866 439.916 130.362 432.862 130.362C426.969 130.362 421.761 131.463 417.254 133.659C412.865 135.855 410.146 139.44 409.107 144.409L392.283 144.582C392.633 138.69 394.599 133.597 398.176 129.32C401.876 124.932 406.734 121.574 412.746 119.262C418.757 116.947 425.35 115.793 432.516 115.793C439.681 115.793 446.909 117.008 453.151 119.435C459.513 121.866 464.54 125.328 468.236 129.839C471.936 134.347 473.786 139.609 473.786 145.617V209.258H457.313V192.784C454.882 196.946 450.836 200.992 445.174 204.923C439.508 208.735 432.396 210.646 423.846 210.646V210.654ZM425.062 196.088C430.496 196.088 435.7 194.757 440.67 192.099C445.643 189.442 449.628 185.857 452.636 181.349C455.755 176.841 457.32 171.926 457.32 166.61H431.658C425.646 166.61 420.731 167.422 416.919 169.037C413.219 170.541 410.557 172.56 408.942 175.11C407.438 177.653 406.803 180.372 407.034 183.264C407.496 187.541 409.461 190.78 412.926 192.976C416.396 195.057 420.442 196.099 425.065 196.099L425.062 196.088Z" fill="#312938"/>
<path d="M325.966 210.135C314.75 210.135 304.403 207.361 294.926 201.811C285.564 196.261 278.16 188.745 272.725 179.268C267.29 169.787 264.571 159.437 264.571 148.229C264.571 137.02 267.29 126.493 272.725 117.016C278.16 107.535 285.556 100.023 294.926 94.4728C304.407 88.9226 314.75 86.1494 325.966 86.1494C338.335 86.1494 349.436 89.5611 359.259 96.3844C369.086 103.204 376.425 112.281 381.283 123.612L364.117 128.47C360.532 120.724 355.447 114.597 348.855 110.089C342.266 105.581 334.635 103.327 325.962 103.327C317.754 103.327 310.296 105.292 303.592 109.219C297.003 113.15 291.799 118.581 287.983 125.52C284.283 132.34 282.433 139.913 282.433 148.236C282.433 156.56 284.283 163.845 287.983 170.779C291.795 177.599 297.003 183.034 303.592 187.08C310.296 191.011 317.754 192.973 325.962 192.973C334.631 192.973 342.208 190.776 348.678 186.384C355.267 181.988 360.355 175.976 363.936 168.345L381.279 173.029C376.421 184.13 369.086 193.088 359.255 199.907C349.428 206.727 338.331 210.142 325.962 210.142H325.966V210.135Z" fill="#312938"/>
<path d="M196.899 131.073C193.826 134.138 191.261 137.292 189.53 141.919C187.799 146.546 186.945 151.577 185.711 159.539C183.949 170.874 180.499 175.332 177.776 178.14C172.206 183.882 164.302 183.559 154.667 181.655C148.609 180.459 147.036 181.901 139.836 188.121L101.881 225.711L101.865 282.778C101.865 283.805 103.108 284.32 103.835 283.594L215.942 171.663C217.454 170.151 218.308 168.105 218.312 165.966L218.454 109.406L196.903 131.073H196.899Z" fill="#FF630F"/>
<path d="M151.667 166.778C158.971 166.99 164.063 172.27 170.075 168.486C176.091 164.697 175.921 160.474 177.087 153.497C178.256 146.52 180.572 138.4 182.637 133.5C184.706 128.596 189.33 122.33 194.034 117.761L218.265 92.5484L218.423 67.1475C218.431 65.5897 216.55 64.8051 215.45 65.9051L105.253 176.101C103.088 178.267 101.873 181.202 101.873 184.259V209.268L139.093 171.905C139.093 171.905 144.355 166.57 151.659 166.778H151.663H151.667Z" fill="#61C5FF"/>
<path d="M218.45 46.3237L101.873 163.216V138.258C101.873 135.196 103.088 132.261 105.253 130.1L215.477 19.8728C216.573 18.7766 218.45 19.5535 218.45 21.1036V46.3199V46.3237Z" fill="#FFC414"/>
<path d="M209.485 1.90668L12.1081 44.9082C5.04249 46.4468 0 52.7047 0 59.9395V204.06C0 206.203 0.850031 208.256 2.36547 209.772L85.4146 292.821C87.1108 294.517 90.011 293.317 90.011 290.917L90.0225 136.465C90.0225 131.369 92.0456 126.48 95.6496 122.876L211.962 6.43761C213.862 4.53755 212.108 1.33358 209.485 1.90283V1.90668Z" fill="#312938"/>
</g>
<defs>
<clipPath id="clip0_987_21709">
<rect width="1199.75" height="294.192" fill="white"/>
</clipPath>
</defs>
</svg>
