<svg width="163" height="40" viewBox="0 0 163 40" fill="none" xmlns="http://www.w3.org/2000/svg">
<mask id="mask0_3891_17325" style="mask-type:luminance" maskUnits="userSpaceOnUse" x="0" y="0" width="163" height="40">
<path d="M162.678 0.0546875H0V39.9451H162.678V0.0546875Z" fill="white"/>
</mask>
<g mask="url(#mask0_3891_17325)">
<path d="M162.595 28.3362C161.342 28.6809 160.237 28.7591 159.28 28.5709C158.324 28.3826 157.58 27.9441 157.046 27.2541C156.529 26.5646 156.27 25.64 156.27 24.4796L156.294 18.013H153.825V15.9676H156.294V12.7461H158.622L158.598 15.9676H162.548V18.013H158.598L158.576 24.4556C158.576 25.0355 158.724 25.498 159.022 25.8434C159.336 26.188 159.79 26.3841 160.385 26.431C160.982 26.4781 161.718 26.3601 162.594 26.0779V28.3357H162.595V28.3362Z" fill="#121212"/>
<path d="M146.85 28.6183C145.674 28.6183 144.594 28.3283 143.607 27.7483C142.633 27.1679 141.866 26.3846 141.3 25.3968C140.737 24.4095 140.454 23.3357 140.454 22.1753C140.454 21.0149 140.737 19.926 141.3 18.9538C141.881 17.9665 142.657 17.19 143.628 16.6262C144.615 16.0457 145.689 15.7563 146.85 15.7563C147.885 15.7563 148.85 15.9993 149.744 16.4854C150.651 16.9558 151.396 17.6061 151.975 18.437C152.572 19.2521 152.949 20.1695 153.106 21.1881C153.246 21.8624 153.254 22.4815 153.128 23.0462H142.782C142.876 23.7357 143.112 24.3475 143.489 24.88C143.879 25.3978 144.366 25.7973 144.946 26.0795C145.527 26.3616 146.161 26.5024 146.85 26.5024C147.586 26.5024 148.285 26.346 148.944 26.032C149.601 25.7191 150.142 25.2877 150.565 24.7391L152.659 25.28C152.173 26.2829 151.382 27.0907 150.283 27.7014C149.203 28.3132 148.057 28.6189 146.85 28.6189V28.6183ZM150.824 21.211C150.731 20.5997 150.495 20.0354 150.118 19.5176C149.757 18.9997 149.288 18.593 148.708 18.2947C148.144 17.9968 147.517 17.8476 146.827 17.8476C146.137 17.8476 145.478 17.9968 144.897 18.2947C144.319 18.5924 143.848 18.9997 143.487 19.5176C143.125 20.0344 142.891 20.5992 142.781 21.211H150.824Z" fill="#121212"/>
<path d="M136.32 11.9707H138.672V28.4302H136.32V11.9707Z" fill="#121212"/>
<path d="M131.738 11.9707H134.09V28.4302H131.738V11.9707Z" fill="#121212"/>
<path d="M122.896 28.6184C121.672 28.6184 120.599 28.3127 119.673 27.7009C118.749 27.0897 118.278 26.1411 118.263 24.8555C118.263 24.0403 118.451 23.3431 118.827 22.7626C119.219 22.1827 119.807 21.7351 120.591 21.4223C121.39 21.0927 122.37 20.9283 123.53 20.9283L127.434 20.9049V20.0825C127.434 19.3142 127.12 18.7338 126.493 18.3426C125.867 17.9348 125.075 17.7313 124.118 17.7313C123.319 17.7313 122.613 17.8806 122.002 18.1784C121.406 18.4761 121.038 18.9622 120.897 19.636L118.616 19.6595C118.663 18.8605 118.93 18.17 119.415 17.59C119.917 16.995 120.575 16.5397 121.39 16.2262C122.205 15.9123 123.099 15.7559 124.071 15.7559C125.043 15.7559 126.023 15.9206 126.869 16.2497C127.731 16.5788 128.413 17.0487 128.914 17.6604C129.416 18.2717 129.667 18.9851 129.667 19.7998V28.4291H127.433V26.1953C127.105 26.7597 126.556 27.3083 125.787 27.8413C125.019 28.3582 124.055 28.6173 122.896 28.6173V28.6184ZM123.06 26.6433C123.797 26.6433 124.502 26.4628 125.177 26.1024C125.85 25.7422 126.391 25.2561 126.799 24.6448C127.223 24.033 127.434 23.3671 127.434 22.6463H123.955C123.14 22.6463 122.474 22.7564 121.956 22.9754C121.454 23.1793 121.094 23.4531 120.874 23.7988C120.671 24.1437 120.585 24.5123 120.616 24.9035C120.678 25.4835 120.944 25.9225 121.415 26.2204C121.885 26.5024 122.434 26.6439 123.061 26.6439L123.06 26.6433Z" fill="#121212"/>
<path d="M96.3173 11.9707H98.8333L101.937 26.8312L105.37 11.9707H109.203L112.565 26.8078L115.645 11.9707H118.161L114.469 28.4302H110.589L107.297 13.2636L103.817 28.4302H99.9607L96.3164 11.9707H96.3168H96.3173Z" fill="#121212"/>
<path d="M83.8459 28.6183C82.6703 28.6183 81.5881 28.3283 80.6008 27.7483C79.6286 27.1679 78.861 26.3846 78.2967 25.3968C77.7324 24.4095 77.4502 23.3357 77.4502 22.1753C77.4502 21.0149 77.7324 19.926 78.2967 18.9538C78.8772 17.9665 79.6532 17.19 80.6243 16.6262C81.6116 16.0457 82.6855 15.7563 83.8463 15.7563C84.881 15.7563 85.8448 15.9993 86.7382 16.4854C87.6472 16.9558 88.392 17.6061 88.9714 18.437C89.5675 19.2521 89.9435 20.1695 90.1005 21.1881C90.2418 21.8624 90.2491 22.4815 90.124 23.0462H79.7778C79.8718 23.7357 80.1065 24.3475 80.483 24.88C80.8746 25.3978 81.3612 25.7973 81.9406 26.0795C82.5211 26.3616 83.1553 26.5024 83.8459 26.5024C84.5827 26.5024 85.28 26.346 85.9387 26.032C86.5969 25.7191 87.1382 25.2877 87.5611 24.7391L89.6541 25.28C89.168 26.2829 88.3763 27.0907 87.2791 27.7014C86.1979 28.3132 85.0526 28.6189 83.8459 28.6189H83.8463L83.8459 28.6183ZM87.8198 21.211C87.726 20.5997 87.4902 20.0354 87.1147 19.5176C86.7543 18.9997 86.284 18.593 85.704 18.2947C85.1397 17.9968 84.5128 17.8476 83.8228 17.8476C83.1329 17.8476 82.4742 17.9968 81.8948 18.2947C81.3147 18.5924 80.8444 18.9997 80.484 19.5176C80.1231 20.0344 79.889 20.5992 79.7789 21.211H87.8209H87.8198Z" fill="#121212"/>
<path d="M66.2896 11.9707H68.6412V22.4817L74.7076 15.9682H77.5297L72.2153 21.6352L77.7409 28.4307H74.9664L70.7806 23.1639L68.6407 25.4215V28.4318H66.2891V11.9712L66.2896 11.9707Z" fill="#121212"/>
<path d="M57.4711 28.6184C56.2482 28.6184 55.1743 28.3127 54.2497 27.7009C53.325 27.0897 52.8546 26.1411 52.8389 24.8555C52.8389 24.0403 53.0272 23.3431 53.4032 22.7626C53.7953 22.1827 54.3831 21.7351 55.1665 21.4223C55.9655 21.0927 56.9454 20.9283 58.1058 20.9283L62.0096 20.9049V20.0825C62.0096 19.3142 61.6955 18.7338 61.0687 18.3426C60.4418 17.9352 59.6501 17.7313 58.6936 17.7313C57.8946 17.7313 57.1884 17.8806 56.5773 18.1784C55.9822 18.4761 55.6135 18.9622 55.4726 19.636L53.1914 19.6595C53.2389 18.8605 53.5054 18.17 53.9905 17.59C54.4922 16.995 55.1509 16.5397 55.9661 16.2262C56.7811 15.9123 57.6751 15.7559 58.6467 15.7559C59.6183 15.7559 60.5983 15.9206 61.4447 16.2497C62.3073 16.5793 62.989 17.0487 63.4901 17.6604C63.9918 18.2717 64.2427 18.9851 64.2427 19.7998V28.4291H62.009V26.1953C61.6794 26.7597 61.1308 27.3083 60.3631 27.8413C59.5948 28.3582 58.6305 28.6173 57.4711 28.6173V28.6184ZM57.636 26.6433C58.3728 26.6433 59.0785 26.4628 59.7524 26.1024C60.4267 25.7422 60.967 25.2561 61.3749 24.6448C61.7978 24.0336 62.01 23.3671 62.01 22.6463H58.5304C57.7152 22.6463 57.0488 22.7564 56.5319 22.9754C56.0302 23.1793 55.6692 23.4531 55.4503 23.7988C55.2463 24.1437 55.1602 24.5123 55.1915 24.9045C55.2542 25.4844 55.5206 25.9236 55.9905 26.2213C56.461 26.5035 57.0096 26.6448 57.6364 26.6448L57.636 26.6433Z" fill="#121212"/>
<path d="M44.1988 28.5479C42.678 28.5479 41.275 28.1718 39.99 27.4193C38.7205 26.6667 37.7166 25.6476 36.9796 24.3626C36.2427 23.077 35.874 21.6736 35.874 20.1539C35.874 18.634 36.2427 17.2066 36.9796 15.9216C37.7166 14.6361 38.7194 13.6175 39.99 12.8649C41.2755 12.1124 42.678 11.7363 44.1988 11.7363C45.8759 11.7363 47.3811 12.1989 48.7131 13.1241C50.0455 14.0488 51.0407 15.2796 51.6994 16.816L49.3718 17.4747C48.8857 16.4244 48.1962 15.5936 47.3024 14.9824C46.4089 14.3711 45.3742 14.0655 44.1982 14.0655C43.0853 14.0655 42.074 14.3319 41.165 14.8644C40.2716 15.3974 39.566 16.1338 39.0485 17.0747C38.5468 17.9995 38.296 19.0263 38.296 20.1548C38.296 21.2835 38.5468 22.2713 39.0485 23.2115C39.5654 24.1363 40.2716 24.8732 41.165 25.4218C42.074 25.9548 43.0853 26.2209 44.1982 26.2209C45.3737 26.2209 46.4011 25.923 47.2784 25.3275C48.1718 24.7314 48.8617 23.9162 49.3472 22.8815L51.6988 23.5166C51.0401 25.0218 50.0455 26.2365 48.7125 27.1611C47.3801 28.0858 45.8754 28.5489 44.1982 28.5489H44.1988V28.5479Z" fill="#121212"/>
<path d="M26.6985 17.8275C26.2818 18.2431 25.934 18.6708 25.6993 19.2982C25.4646 19.9256 25.3488 20.6077 25.1814 21.6873C24.9425 23.2243 24.4747 23.8288 24.1055 24.2095C23.3503 24.9881 22.2785 24.9443 20.9721 24.6861C20.1507 24.524 19.9374 24.7195 18.9611 25.5629L13.8147 30.6598L13.8125 38.3977C13.8125 38.537 13.981 38.6068 14.0796 38.5084L29.2806 23.3313C29.4856 23.1263 29.6014 22.8488 29.6019 22.5588L29.6212 14.8896L26.699 17.8275H26.6985Z" fill="#121212"/>
<path d="M20.5652 22.6692C21.5556 22.6979 22.246 23.4139 23.0612 22.9008C23.8769 22.387 23.8539 21.8144 24.012 20.8684C24.1705 19.9223 24.4845 18.8213 24.7645 18.1569C25.0451 17.492 25.6721 16.6423 26.3099 16.0228L29.5954 12.6042L29.6169 9.15996C29.6179 8.94874 29.3629 8.84235 29.2137 8.9915L14.2718 23.9333C13.9782 24.227 13.8135 24.625 13.8135 25.0395V28.4305L18.8603 23.3644C18.8603 23.3644 19.5737 22.641 20.5641 22.6692H20.5647H20.5652Z" fill="#121212"/>
<path d="M29.6205 6.33581L13.8135 22.1857V18.8015C13.8135 18.3863 13.9782 17.9884 14.2718 17.6953L29.2174 2.74925C29.366 2.60061 29.6205 2.70596 29.6205 2.91614V6.3353V6.33581Z" fill="#121212"/>
<path d="M28.4047 0.313287L1.64178 6.144C0.683727 6.35261 0 7.20114 0 8.18215V27.7239C0 28.0144 0.115258 28.2929 0.320742 28.4984L11.5816 39.7593C11.8116 39.9893 12.2049 39.8266 12.2049 39.5011L12.2064 18.5585C12.2064 17.8675 12.4808 17.2046 12.9694 16.7159L28.7406 0.927651C28.9982 0.670014 28.7604 0.235579 28.4047 0.312765V0.313287Z" fill="#121212"/>
</g>
</svg>
