<svg width="38" height="38" viewBox="0 0 38 38" fill="none" xmlns="http://www.w3.org/2000/svg">
<circle cx="19" cy="19" r="18.3" fill="white" stroke="#0052FF" stroke-width="1.4"/>
<path d="M22.8572 11.9834L23.7482 8.64223L21.7434 8.08536L20.9638 11.3152C20.407 11.2038 19.8501 11.0924 19.2932 10.9811L20.0728 7.63986L17.9567 7.19437L17.1771 10.5356C16.7316 10.4242 16.2861 10.3128 15.8406 10.2015L13.0563 9.53322L12.4994 11.7607C12.4994 11.7607 14.0587 12.0948 13.9473 12.0948C14.7269 12.3176 14.9496 12.8744 14.9496 13.3199L12.6108 22.4526C12.4994 22.6753 12.2767 23.1208 11.6084 22.8981L10.1606 22.564L9.1582 24.9028L11.8312 25.571L13.279 25.9052L12.388 29.2464L14.3928 29.8033L15.2838 26.462C15.8406 26.5734 16.3975 26.7962 16.9544 26.9075L16.1748 30.2487L18.1795 30.8056L19.0705 27.4644C22.5231 28.1326 25.196 27.9099 26.3098 24.6801C27.2008 22.1185 26.3098 20.6706 24.4164 19.7796C25.7529 19.4455 26.7553 18.5545 26.978 16.7725C27.3121 14.2109 25.5302 12.8744 22.8572 11.9834ZM22.3003 23.2322C21.6321 25.7938 17.3999 24.3459 16.0634 24.0118L17.1771 19.5569C18.5136 19.891 22.9686 20.5592 22.3003 23.2322ZM22.9686 16.6611C22.4117 19 18.8477 17.7749 17.734 17.5521L18.7364 13.4313C19.8501 13.654 23.5254 14.2109 22.9686 16.6611Z" fill="#0052FF"/>
</svg>
