<svg width="188" height="32" viewBox="0 0 188 32" fill="none" xmlns="http://www.w3.org/2000/svg">
<g clip-path="url(#clip0_4399_18879)">
<path d="M10.01 11.7C9.33 11.7 8.66 11.84 8.04 12.11C7.44 12.38 6.92 12.74 6.47 13.19C6.01 13.66 5.65 14.21 5.4 14.81C5.13 15.43 4.99 16.1 5 16.77C5 17.47 5.13 18.13 5.4 18.77C5.65 19.36 6.02 19.9 6.47 20.36C6.92 20.81 7.44 21.17 8.04 21.44C8.66 21.71 9.33 21.85 10.01 21.85C10.94 21.85 11.78 21.61 12.51 21.14C13.25 20.68 13.86 20.04 14.28 19.28H19.65C19.37 20.31 18.91 21.28 18.32 22.16C17.72 23.02 17 23.77 16.15 24.43C15.29 25.07 14.33 25.57 13.31 25.92C12.25 26.28 11.13 26.47 10.01 26.46C8.63 26.46 7.33 26.21 6.11 25.72C4.92 25.23 3.84 24.51 2.91 23.62C2.02 22.73 1.29 21.69 0.77 20.54C0.25 19.35 0 18.07 0 16.78C0 15.45 0.26 14.2 0.77 13.02C1.29 11.87 2.01 10.83 2.91 9.94C3.84 9.05 4.92 8.35 6.11 7.88C7.35 7.36 8.67 7.09 10.01 7.1C11.19 7.1 12.3 7.29 13.35 7.67C14.37 8.02 15.33 8.53 16.19 9.19C17.06 9.82 17.8 10.6 18.39 11.49C19.01 12.37 19.16 12.64 19.43 13.7L14.45 14.4C14.02 13.6 13.39 12.92 12.61 12.44C11.85 11.94 10.99 11.7 10.01 11.7ZM20.59 1.56H25.6V8.73C26.18 8.21 26.84 7.81 27.57 7.55C28.32 7.25 29.13 7.1 29.94 7.11C31.32 7.11 32.58 7.37 33.71 7.89C34.83 8.36 35.85 9.06 36.68 9.95C37.51 10.84 38.16 11.89 38.58 13.03C39.05 14.2 39.28 15.46 39.28 16.79V25.92H34.27V16.79C34.27 16.09 34.17 15.44 33.97 14.83C33.81 14.24 33.53 13.68 33.14 13.21C32.77 12.75 32.3 12.38 31.77 12.13C31.24 11.86 30.62 11.72 29.94 11.72C29.25 11.72 28.63 11.86 28.07 12.13C27.54 12.38 27.08 12.74 26.7 13.21C26.33 13.69 26.05 14.22 25.87 14.8C25.69 15.44 25.6 16.1 25.6 16.76V25.93H20.59V1.56ZM50.04 7.1C51.42 7.1 52.71 7.36 53.91 7.88C56.27 8.84 58.15 10.68 59.15 13.02C59.69 14.2 59.96 15.48 59.95 16.78V25.91H55.28V23.64C54.71 24.49 53.94 25.2 53.04 25.7C52.12 26.2 51.08 26.45 50.04 26.44C48.68 26.44 47.39 26.19 46.17 25.7C45 25.2 43.94 24.49 43.03 23.6C42.14 22.71 41.41 21.67 40.89 20.52C40.38 19.34 40.12 18.06 40.12 16.76C40.12 15.43 40.38 14.18 40.89 13C41.41 11.85 42.13 10.81 43.03 9.92C43.93 9.03 45 8.33 46.17 7.86C47.39 7.34 48.71 7.08 50.04 7.08M50.14 21.85C50.81 21.85 51.47 21.72 52.08 21.44C52.68 21.19 53.22 20.82 53.68 20.36C54.13 19.9 54.49 19.36 54.75 18.77C55.02 18.14 55.15 17.47 55.15 16.77C55.15 16.07 55.02 15.42 54.75 14.81C54.5 14.21 54.14 13.65 53.68 13.19C53.22 12.73 52.68 12.36 52.08 12.11C51.47 11.84 50.81 11.7 50.14 11.7C49.46 11.7 48.79 11.84 48.17 12.11C47.57 12.38 47.05 12.74 46.6 13.19C46.14 13.66 45.78 14.21 45.53 14.81C45.26 15.43 45.12 16.1 45.13 16.77C45.13 17.47 45.26 18.13 45.53 18.77C45.78 19.36 46.15 19.9 46.6 20.36C47.05 20.81 47.57 21.17 48.17 21.44C48.79 21.71 49.46 21.85 50.14 21.85ZM62.1 7.65H67.1V25.91H62.09V7.65H62.1ZM69.22 16.78C69.22 15.45 69.44 14.2 69.89 13.02C70.34 11.88 70.99 10.84 71.82 9.94C72.65 9.06 73.65 8.36 74.76 7.88C75.92 7.36 77.19 7.1 78.57 7.1C79.95 7.1 81.21 7.36 82.34 7.88C83.46 8.35 84.48 9.05 85.31 9.94C86.14 10.83 86.79 11.88 87.21 13.02C87.68 14.19 87.91 15.45 87.91 16.78V25.91H82.9V16.78C82.9 16.08 82.8 15.43 82.6 14.82C82.44 14.23 82.16 13.67 81.77 13.2C81.4 12.74 80.93 12.37 80.4 12.12C79.87 11.85 79.26 11.71 78.57 11.71C77.88 11.71 77.26 11.85 76.7 12.12C76.17 12.39 75.71 12.75 75.33 13.2C74.96 13.69 74.67 14.24 74.5 14.82C74.32 15.46 74.23 16.12 74.23 16.78V25.91H69.22V16.78ZM94.5 23.48C94.5 23.89 94.42 24.27 94.27 24.63C94.11 24.97 93.9 25.28 93.64 25.54C93.39 25.81 93.09 26.01 92.74 26.15C92.41 26.31 92.04 26.39 91.64 26.39C90.84 26.39 90.16 26.11 89.6 25.54C89.04 24.98 88.77 24.29 88.77 23.48C88.77 23.07 88.84 22.7 88.97 22.36C89.13 22 89.34 21.7 89.6 21.45C89.87 21.18 90.17 20.97 90.5 20.81C90.86 20.65 91.24 20.57 91.64 20.57C92.04 20.57 92.41 20.65 92.74 20.81C93.1 20.97 93.4 21.18 93.64 21.45C93.91 21.7 94.12 22 94.28 22.36C94.44 22.7 94.51 23.07 94.51 23.48M95.33 16.78C95.33 15.45 95.55 14.2 96 13.02C96.45 11.88 97.1 10.84 97.93 9.94C98.76 9.06 99.76 8.36 100.87 7.88C102.03 7.36 103.29 7.1 104.68 7.1H105.35V11.7C104.66 11.7 104 11.84 103.38 12.11C102.79 12.37 102.26 12.74 101.81 13.19C101.35 13.66 100.99 14.21 100.74 14.81C100.47 15.43 100.33 16.1 100.34 16.77V25.9H95.33V16.77V16.78ZM115.21 7.1C116.59 7.1 117.89 7.36 119.11 7.88C120.29 8.35 121.37 9.05 122.28 9.94C123.19 10.81 123.92 11.86 124.42 13.02C124.96 14.2 125.23 15.48 125.22 16.78C125.22 17.1 125.2 17.4 125.15 17.69C125.13 17.96 125.09 18.24 125.05 18.54H110.5C110.87 19.49 111.49 20.32 112.3 20.94C113.15 21.55 114.11 21.85 115.2 21.85C116 21.85 116.75 21.67 117.44 21.31C118.11 20.97 118.69 20.48 119.14 19.89H124.68C124.34 20.84 123.86 21.73 123.25 22.53C122.65 23.34 121.91 24.05 121.08 24.63C120.24 25.2 119.32 25.65 118.34 25.95C117.33 26.29 116.27 26.47 115.2 26.46C113.82 26.46 112.52 26.21 111.3 25.72C110.11 25.23 109.02 24.51 108.1 23.62C107.21 22.73 106.48 21.69 105.96 20.54C105.45 19.36 105.18 18.08 105.19 16.78C105.19 15.45 105.45 14.2 105.96 13.02C106.48 11.87 107.2 10.83 108.1 9.94C109.03 9.05 110.11 8.35 111.3 7.88C112.54 7.36 113.86 7.09 115.2 7.1M119.91 15.02C119.54 14.07 118.91 13.24 118.07 12.65C117.24 12.02 116.24 11.69 115.2 11.7C114.11 11.7 113.14 12.02 112.3 12.65C111.48 13.25 110.86 14.07 110.5 15.02H119.91ZM136.02 7.1C137.4 7.1 138.69 7.36 139.89 7.88C142.25 8.84 144.13 10.68 145.13 13.02C145.67 14.2 145.94 15.48 145.93 16.78C145.93 18.11 145.66 19.36 145.13 20.54C144.63 21.69 143.92 22.74 143.03 23.62C142.13 24.51 141.06 25.22 139.89 25.72C138.69 26.22 137.4 26.46 136.02 26.46C135.06 26.46 134.16 26.28 133.32 25.92C132.5 25.56 131.75 25.06 131.12 24.43V32.01H126.11V16.79C126.11 15.46 126.37 14.21 126.88 13.03C127.4 11.88 128.12 10.84 129.02 9.95C129.92 9.06 130.99 8.36 132.16 7.89C133.38 7.37 134.7 7.11 136.03 7.11M135.92 21.85C136.59 21.85 137.25 21.72 137.86 21.44C138.46 21.19 139 20.82 139.46 20.36C139.91 19.9 140.27 19.36 140.53 18.77C140.8 18.14 140.93 17.46 140.93 16.77C140.93 16.07 140.8 15.42 140.53 14.81C140.28 14.21 139.92 13.65 139.46 13.19C139 12.73 138.46 12.36 137.86 12.11C137.25 11.84 136.59 11.7 135.92 11.7C135.23 11.7 134.57 11.84 133.95 12.11C133.36 12.37 132.83 12.74 132.38 13.19C131.92 13.66 131.56 14.21 131.31 14.81C131.04 15.43 130.9 16.1 130.91 16.77C130.91 17.47 131.04 18.13 131.31 18.77C131.56 19.36 131.93 19.9 132.38 20.36C132.82 20.81 133.35 21.17 133.95 21.44C134.57 21.71 135.23 21.85 135.92 21.85Z" fill="black"/>
<path d="M165.83 16.78C165.83 18.11 165.56 19.36 165.03 20.54C164.53 21.7 163.8 22.74 162.89 23.62C162 24.5 160.95 25.2 159.75 25.72C158.55 26.22 157.26 26.46 155.88 26.46C154.5 26.46 153.21 26.21 152.01 25.72C150.84 25.22 149.76 24.51 148.84 23.62C147.95 22.73 147.22 21.69 146.7 20.54C146.19 19.36 145.92 18.08 145.93 16.78C145.93 15.45 146.19 14.2 146.7 13.02C147.22 11.87 147.94 10.83 148.84 9.94C149.76 9.06 150.83 8.36 152.01 7.88C153.23 7.36 154.55 7.09 155.88 7.1C157.26 7.1 158.55 7.36 159.75 7.88C160.92 8.36 161.99 9.06 162.89 9.94C163.8 10.81 164.53 11.86 165.03 13.02C165.57 14.2 165.84 15.48 165.83 16.78ZM160.82 16.78C160.82 16.08 160.69 15.43 160.42 14.82C160.19 14.21 159.84 13.66 159.39 13.2C158.94 12.75 158.41 12.38 157.82 12.12C157.21 11.85 156.55 11.71 155.88 11.71C155.21 11.71 154.55 11.84 153.94 12.12C153.36 12.38 152.82 12.75 152.37 13.2C151.91 13.67 151.55 14.22 151.3 14.82C151.05 15.44 150.93 16.11 150.93 16.78C150.93 17.48 151.05 18.14 151.3 18.78C151.55 19.37 151.92 19.91 152.37 20.37C152.82 20.82 153.35 21.19 153.94 21.45C154.55 21.72 155.21 21.86 155.88 21.86C156.55 21.86 157.21 21.73 157.82 21.45C158.41 21.19 158.94 20.82 159.39 20.37C159.84 19.92 160.18 19.39 160.42 18.78C160.69 18.15 160.82 17.47 160.82 16.78ZM166.66 16.78C166.66 15.45 166.88 14.2 167.33 13.02C167.78 11.88 168.43 10.84 169.27 9.94C170.1 9.06 171.1 8.36 172.21 7.88C173.37 7.36 174.64 7.1 176.01 7.1H176.68V11.7C175.99 11.7 175.33 11.84 174.71 12.11C174.12 12.37 173.59 12.74 173.14 13.19C172.68 13.66 172.32 14.21 172.07 14.81C171.8 15.43 171.66 16.1 171.67 16.77V25.9H166.66V16.77V16.78ZM182.42 1.56V7.65H187.43V11.98H182.42V16.78C182.42 17.48 182.55 18.14 182.82 18.78C183.07 19.37 183.44 19.91 183.89 20.37C184.34 20.82 184.86 21.18 185.46 21.45C186.08 21.72 186.74 21.86 187.43 21.86L186.76 26.46C185.38 26.46 184.11 26.21 182.96 25.72C181.85 25.22 180.85 24.51 180.02 23.62C179.19 22.73 178.53 21.68 178.08 20.54C177.63 19.34 177.4 18.07 177.41 16.78V1.56H182.42Z" fill="black"/>
<path d="M65.6905 0.24C65.3505 0.08 64.9705 0 64.5905 0C64.1905 0 63.8105 0.08 63.4605 0.24C63.1205 0.4 62.8205 0.62 62.5605 0.88C62.2905 1.14 62.0705 1.45 61.9305 1.79C61.8005 2.13 61.7305 2.5 61.7305 2.91C61.7305 3.72 62.0105 4.41 62.5605 4.97C63.0905 5.52 63.8305 5.83 64.6005 5.82C65.0005 5.82 65.3705 5.75 65.7005 5.62C66.0405 5.47 66.3505 5.25 66.6005 4.98C66.8705 4.71 67.0805 4.41 67.2305 4.07C67.3905 3.71 67.4705 3.32 67.4605 2.92C67.4605 2.51 67.3805 2.14 67.2305 1.8C67.0805 1.45 66.8705 1.14 66.6005 0.89C66.3505 0.61 66.0405 0.4 65.7005 0.25" fill="#FFBF2C"/>
</g>
<defs>
<clipPath id="clip0_4399_18879">
<rect width="187.43" height="32" fill="white"/>
</clipPath>
</defs>
</svg>
