<?xml version="1.0" encoding="UTF-8"?>
<svg id="layer" xmlns="http://www.w3.org/2000/svg" version="1.1" viewBox="0 0 150 36">
  <!-- Generator: Adobe Illustrator 29.6.0, SVG Export Plug-In . SVG Version: 2.1.1 Build 207)  -->
  <defs>
    <style>
      .st0 {
        fill: #fabf2c;
      }

      .st1 {
        fill: #263238;
      }
    </style>
  </defs>
  <g id="Page-1">
    <g id="CT-logo-BlackYellow-tag">
      <g id="Atoms_x2F_Icons_x2F_logos_x2F_CT-GY-icon">
        <g id="Group">
          <path id="Shape" class="st1" d="M21.8,26l-6.2,2.7v-.3c-1.2.3-2.5.5-3.8.6-5.9,0-10.6-3.2-10.6-6.8v-1.3c1.9,2.8,5.9,4.7,10.6,4.6,1.6,0,3.2-.2,4.6-.6l.5-1.3c-1.6.5-3.4.8-5.2.8-5.9,0-10.6-3.1-10.6-6.8v-1.1c1.9,2.6,5.9,4.5,10.6,4.3,2.1.1,4.2-.3,6-1.1l.3-1.3c-1.7.9-4,1.4-6.2,1.3-5.9,0-10.6-3-10.6-6.8v-1.1c1.9,2.7,5.9,4.6,10.6,4.6,2.7,0,5.2-.8,7.4-1.9l.3-1.6c-1.9,1.4-4.7,2.3-7.6,2.4-5.9-.1-10.6-3.2-10.6-7.1,0-3.7,4.7-6.8,10.6-6.8,3.5,0,6.8,1.3,8.7,3.3l.2.3h1.4l-.2-.3C19.9,2.2,16,.4,11.7.4,5.2.4,0,4,0,8.3v14.2c.2,4.2,5.3,7.6,11.7,7.6,4.2,0,8-1.7,10.1-4.1Z"/>
          <path id="Shape1" data-name="Shape" class="st0" d="M19.2,35.6l2.2-9.3-6.3,2.8,3.9-16.2h-7.4l1.9-8h23.6l-1.9,8h-7.7l-1.6,4.4,8.5-3.6-15.1,22ZM23.1,24.3l-1.1,5.5,9.1-13.7-7.4,3.3,3.3-7.7h7.4l1.4-5.8H14.3l-1.4,5.8h7.4l-3.6,15.4,6.3-2.8Z"/>
        </g>
      </g>
      <path id="Shape2" data-name="Shape" class="st1" d="M52.8,10.1h0c0,.9-.2,1.6-.8,2.1s-1.3.8-2.3.8-1.8-.3-2.4-.9-.9-1.4-.9-2.4v-1.6c0-1,.3-1.8.9-2.4.6-.6,1.4-.9,2.3-.9s1.8.2,2.3.7c.6.5.8,1.2.8,2.1h0s-1.6,0-1.6,0c0-.5-.1-.9-.4-1.2s-.7-.4-1.2-.4-.9.2-1.2.6-.4.9-.4,1.5v1.7c0,.6.2,1.2.4,1.6.3.4.7.6,1.2.6s.8-.1,1.1-.4.4-.7.4-1.2h1.6ZM61.8,9.5c0,1-.3,1.8-.9,2.5s-1.4,1-2.5,1-1.8-.3-2.5-1c-.6-.7-1-1.5-1-2.5v-1.5c0-1,.3-1.8,1-2.5.6-.7,1.5-1,2.5-1s1.9.3,2.5,1c.7.7.9,1.5.9,2.5v1.5h0ZM60.2,8c0-.7-.2-1.2-.5-1.6-.3-.4-.8-.6-1.3-.6s-1,.2-1.3.6c-.3.4-.5.9-.5,1.6v1.5c0,.7.2,1.2.5,1.6.3.4.8.6,1.3.6s1-.2,1.3-.6c.3-.4.5-.9.5-1.6v-1.5ZM66.1,12.8h-1.7V4.6h1.7v8.2ZM75.6,12.8h-1.7l-3.3-5.5h0v5.5h-1.7V4.6h1.7l3.3,5.5h0v-5.5h1.7v8.2ZM83.8,5.9h-2.3v6.9h-1.7v-6.9h-2.3v-1.3h6.3v1.3ZM90.6,9.2h-3.1v2.3h3.6v1.2h-5.2V4.6h5.2v1.3h-3.6v2.1h3.1v1.3h0ZM95.2,11.6h3.7v1.2h-5.3V4.6h1.7v6.9h0ZM105.9,9.2h-3.1v2.3h3.6v1.2h-5.2V4.6h5.2v1.3h-3.6v2.1h3.1v1.3h0ZM115.1,11.7c-.2.3-.6.6-1.2.9-.5.2-1.2.4-1.9.4s-1.8-.3-2.4-.9-.9-1.4-.9-2.4v-1.7c0-1,.3-1.8.9-2.4.6-.6,1.4-.9,2.3-.9s1.8.2,2.3.7.8,1.1.8,1.9h0s-1.6,0-1.6,0c0-.4-.1-.8-.4-1s-.6-.4-1.1-.4-.9.2-1.2.6c-.3.4-.4.9-.4,1.5v1.7c0,.6.2,1.1.5,1.5s.8.6,1.3.6.7,0,.9-.1c.2,0,.4-.2.5-.3v-1.6h-1.6v-1.2h3.2v3.2h0ZM119.3,9.6v3.3h-1.7V4.6h2.8c.9,0,1.7.2,2.2.7.5.4.8,1,.8,1.8s-.1.8-.3,1.1c-.2.3-.6.6-1,.8.5.2.8.4,1,.7.2.3.3.8.3,1.2v.6c0,.2,0,.5.1.7,0,.2.2.4.3.6h0c0,.1-1.7.1-1.7.1-.2-.1-.2-.3-.3-.6s0-.6,0-.8v-.6c0-.4,0-.7-.3-.9s-.6-.3-.9-.3h-1.3ZM119.3,8.3h1.2c.4,0,.8,0,1-.3s.3-.5.3-.9-.1-.7-.3-.9-.6-.3-1-.3h-1.2v2.4h0ZM130.5,11.1h-2.6l-.6,1.8h-1.7l2.8-8.2h1.7l2.8,8.2h-1.7l-.5-1.8ZM128.3,9.8h1.9l-.9-2.9h0l-.9,2.9ZM136.4,9.9v3h-1.6V4.6h3.1c.9,0,1.7.2,2.2.7s.8,1.1.8,1.9-.3,1.4-.8,1.9c-.6.5-1.3.7-2.2.7h-1.5ZM136.4,8.6h1.5c.4,0,.8-.1,1.1-.4.2-.2.4-.6.4-.9s-.1-.7-.4-1-.6-.4-1.1-.4h-1.5v2.7ZM150,12.8h-1.6v-3.4h-3.4v3.4h-1.6V4.6h1.6v3.5h3.4v-3.5h1.6v8.2Z"/>
      <g id="Tag_x2F_The-future-of-money-_x2014_-dark-grey">
        <path id="The-future-of-money" class="st1" d="M49.4,26.2h-1v-5.4h-1.9v-.9h4.7v.9h-1.9s0,5.4,0,5.4ZM56.3,26.2h-1v-2.9c0-.4,0-.7-.2-.8-.1-.2-.4-.3-.7-.3s-.7.1-.9.4c-.2.2-.3.7-.3,1.3v2.3h-1v-6.7h1v1.7c0,.3,0,.6,0,.9h0c.1-.2.3-.4.6-.5s.5-.2.9-.2c1.1,0,1.7.6,1.7,1.8v3.1ZM59.8,26.3c-.8,0-1.3-.2-1.7-.7-.4-.4-.6-1-.6-1.8s.2-1.4.6-1.8.9-.7,1.6-.7,1.1.2,1.5.6c.4.4.5.9.5,1.6v.6h-3.2c0,.4.1.8.4,1.1.2.2.6.4,1,.4s.5,0,.8,0c.2,0,.5-.2.8-.3v.8c-.2.1-.5.2-.8.2-.2,0-.5,0-.9,0ZM59.6,22.2c-.3,0-.6,0-.8.3-.2.2-.3.5-.4.9h2.1c0-.4-.1-.7-.3-.9-.2-.2-.4-.3-.8-.3ZM67.4,22.2h-1.1v4h-1v-4h-.8v-.5l.8-.3v-.3c0-.6.1-1,.4-1.2s.7-.4,1.2-.4.7,0,1,.2l-.3.8c-.2,0-.5-.1-.7-.1s-.4,0-.5.2c-.1.2-.1.3-.1.6v.3h1.1v.8h0ZM71.6,26.2l-.2-.6h0c-.2.2-.3.4-.6.5s-.5.2-.9.2c-.6,0-1-.2-1.3-.4s-.4-.7-.4-1.3v-3.1h1v2.9c0,.4,0,.6.2.8.2.2.4.3.7.3s.7-.1.9-.4.3-.7.3-1.3v-2.4h1v4.8h-.8ZM75.6,25.5c.2,0,.5,0,.8-.1v.8c0,0-.2,0-.4.1s-.3,0-.5,0c-1,0-1.4-.5-1.4-1.5v-2.6h-.7v-.4l.7-.4.3-1h.6v1.1h1.3v.8h-1.3v2.6c0,.2,0,.4.2.6,0,0,.3.1.5.1ZM80.6,26.2l-.2-.6h0c-.2.2-.3.4-.6.5s-.5.2-.9.2c-.6,0-1-.2-1.3-.4-.3-.3-.4-.7-.4-1.3v-3.1h1v2.9c0,.4,0,.6.2.8.2.2.4.3.7.3s.7-.1.9-.4.3-.7.3-1.3v-2.4h1v4.8h-.8ZM85.3,21.4c.2,0,.4,0,.5,0v.9c-.2,0-.4,0-.5,0-.4,0-.7.1-1,.4s-.4.6-.4,1v2.5h-1v-4.8h.8v.8h.2c.2-.3.4-.5.6-.7.2-.1.5-.2.8-.2ZM88.5,26.3c-.8,0-1.3-.2-1.7-.7-.4-.4-.6-1-.6-1.8s.2-1.4.6-1.8.9-.7,1.6-.7,1.1.2,1.5.6c.4.4.5.9.5,1.6v.6h-3.2c0,.4.2.8.4,1.1.2.2.6.4,1,.4s.5,0,.8,0c.2,0,.5-.2.8-.3v.8c-.2.1-.5.2-.8.2-.2,0-.5,0-.9,0ZM88.4,22.2c-.3,0-.6,0-.8.3-.2.2-.3.5-.3.9h2.2c0-.4,0-.7-.3-.9-.2-.2-.5-.3-.8-.3ZM98,23.8c0,.8-.2,1.4-.6,1.8-.4.4-1,.7-1.7.7s-.8,0-1.2-.3-.6-.5-.8-.9c-.2-.4-.3-.8-.3-1.3,0-.8.2-1.4.6-1.8s1-.7,1.7-.7,1.2.2,1.6.7.6,1,.6,1.8ZM94.6,23.8c0,1.1.4,1.7,1.2,1.7s1.2-.6,1.2-1.7-.4-1.6-1.2-1.6-.7.2-.9.4-.3.7-.3,1.2ZM101.6,22.2h-1.2v4h-1v-4h-.8v-.5l.8-.3v-.3c0-.6.1-1,.4-1.2s.7-.4,1.2-.4.7,0,1,.2l-.3.8c-.2,0-.5-.1-.7-.1s-.4,0-.5.2-.2.3-.2.6v.3h1.2v.8h0ZM108.7,26.2h-1v-2.9c0-.4,0-.6-.2-.8-.1-.2-.3-.3-.7-.3s-.7.1-.8.4c-.2.2-.3.7-.3,1.3v2.4h-1v-4.8h.8l.2.6h0c.1-.2.3-.4.6-.5s.5-.2.8-.2c.7,0,1.2.2,1.4.8h0c.2-.2.3-.4.6-.6s.6-.2.9-.2c.6,0,1,.2,1.2.4.2.3.4.7.4,1.3v3.1h-1v-2.9c0-.4,0-.6-.2-.8-.2-.2-.3-.3-.7-.3s-.7.1-.8.4c-.2.2-.3.6-.3,1.1v2.5h0ZM117.3,23.8c0,.8-.2,1.4-.6,1.8-.4.4-.9.7-1.7.7s-.8,0-1.2-.3c-.3-.2-.6-.5-.8-.9s-.3-.8-.3-1.3c0-.8.2-1.4.6-1.8s.9-.7,1.7-.7,1.2.2,1.6.7c.4.5.6,1,.6,1.8ZM113.8,23.8c0,1.1.4,1.7,1.2,1.7s1.2-.6,1.2-1.7-.4-1.6-1.2-1.6-.7.2-.9.4c-.2.3-.3.7-.3,1.2ZM122.6,26.2h-1v-2.9c0-.4,0-.7-.2-.8-.2-.2-.4-.3-.7-.3s-.8.1-.9.4-.3.7-.3,1.3v2.4h-1v-4.8h.8l.2.6h0c.2-.2.3-.4.6-.5s.6-.2.9-.2c1.2,0,1.7.6,1.7,1.8v3.1ZM126.1,26.3c-.8,0-1.3-.2-1.7-.7-.4-.4-.6-1-.6-1.8s.2-1.4.6-1.8.9-.7,1.6-.7,1.1.2,1.5.6c.4.4.6.9.6,1.6v.6h-3.2c0,.4.2.8.4,1.1.2.2.6.4,1,.4s.6,0,.8,0,.5-.2.8-.3v.8c-.2.1-.5.2-.8.2-.2,0-.5,0-.8,0ZM125.9,22.2c-.3,0-.6,0-.8.3s-.3.5-.3.9h2.2c0-.4,0-.7-.3-.9s-.4-.3-.8-.3ZM128.2,21.5h1.1l1,2.7c.2.4.2.8.3,1.1h0c0-.2,0-.3.2-.6,0-.2.4-1.3,1.1-3.2h1.1l-2,5.4c-.4,1-1,1.5-1.8,1.5s-.4,0-.7,0v-.8c.2,0,.3,0,.5,0,.5,0,.8-.3,1-.8l.2-.4-2-4.7Z"/>
      </g>
    </g>
  </g>
</svg>