<svg width="61" height="31" viewBox="0 0 61 31" fill="none" xmlns="http://www.w3.org/2000/svg">
<path d="M9.14143 9.432C8.97343 9.684 8.76343 9.922 8.51143 10.146C8.26876 10.37 7.98876 10.566 7.67143 10.734C7.3541 10.8927 7.00876 11.0187 6.63543 11.112C6.27143 11.2053 5.8841 11.252 5.47343 11.252C4.7361 11.252 4.0501 11.1213 3.41543 10.86C2.7901 10.5987 2.2441 10.2393 1.77743 9.782C1.3201 9.31533 0.960763 8.76467 0.699429 8.13C0.438096 7.49533 0.307429 6.8 0.307429 6.044C0.307429 5.288 0.438096 4.59267 0.699429 3.958C0.960763 3.32333 1.3201 2.77733 1.77743 2.32C2.2441 1.85333 2.7901 1.48933 3.41543 1.228C4.0501 0.966666 4.7361 0.836 5.47343 0.836C6.08943 0.836 6.70543 0.957333 7.32143 1.2C7.93743 1.44267 8.46476 1.844 8.90343 2.404L8.02143 3.062C7.91876 2.90333 7.77876 2.74467 7.60143 2.586C7.4241 2.42733 7.21876 2.28733 6.98543 2.166C6.76143 2.04467 6.51876 1.94667 6.25743 1.872C5.9961 1.79733 5.73476 1.76 5.47343 1.76C4.83876 1.76 4.26943 1.87667 3.76543 2.11C3.26143 2.34333 2.8321 2.656 2.47743 3.048C2.1321 3.44 1.8661 3.89733 1.67943 4.42C1.49276 4.93333 1.39943 5.47467 1.39943 6.044C1.39943 6.61333 1.49276 7.15933 1.67943 7.682C1.8661 8.19533 2.1321 8.648 2.47743 9.04C2.8321 9.432 3.26143 9.74467 3.76543 9.978C4.26943 10.2113 4.83876 10.328 5.47343 10.328C5.73476 10.328 5.99143 10.3047 6.24343 10.258C6.50476 10.2113 6.75676 10.132 6.99943 10.02C7.25143 9.908 7.48476 9.75867 7.69943 9.572C7.92343 9.376 8.12876 9.13333 8.31543 8.844L9.14143 9.432ZM19.9649 6.044C19.9649 5.47467 19.8715 4.93333 19.6849 4.42C19.4982 3.89733 19.2275 3.44 18.8729 3.048C18.5275 2.656 18.1029 2.34333 17.5989 2.11C17.0949 1.87667 16.5255 1.76 15.8909 1.76C15.2562 1.76 14.6869 1.87667 14.1829 2.11C13.6789 2.34333 13.2495 2.656 12.8949 3.048C12.5495 3.44 12.2835 3.89733 12.0969 4.42C11.9102 4.93333 11.8169 5.47467 11.8169 6.044C11.8169 6.61333 11.9102 7.15933 12.0969 7.682C12.2835 8.19533 12.5495 8.648 12.8949 9.04C13.2495 9.432 13.6789 9.74467 14.1829 9.978C14.6869 10.2113 15.2562 10.328 15.8909 10.328C16.5255 10.328 17.0949 10.2113 17.5989 9.978C18.1029 9.74467 18.5275 9.432 18.8729 9.04C19.2275 8.648 19.4982 8.19533 19.6849 7.682C19.8715 7.15933 19.9649 6.61333 19.9649 6.044ZM21.0569 6.044C21.0569 6.8 20.9262 7.49533 20.6649 8.13C20.4035 8.76467 20.0395 9.31533 19.5729 9.782C19.1155 10.2393 18.5695 10.5987 17.9349 10.86C17.3095 11.1213 16.6282 11.252 15.8909 11.252C15.1535 11.252 14.4675 11.1213 13.8329 10.86C13.2075 10.5987 12.6615 10.2393 12.1949 9.782C11.7375 9.31533 11.3782 8.76467 11.1169 8.13C10.8555 7.49533 10.7249 6.8 10.7249 6.044C10.7249 5.288 10.8555 4.59267 11.1169 3.958C11.3782 3.32333 11.7375 2.77733 12.1949 2.32C12.6615 1.85333 13.2075 1.48933 13.8329 1.228C14.4675 0.966666 15.1535 0.836 15.8909 0.836C16.6282 0.836 17.3095 0.966666 17.9349 1.228C18.5695 1.48933 19.1155 1.85333 19.5729 2.32C20.0395 2.77733 20.4035 3.32333 20.6649 3.958C20.9262 4.59267 21.0569 5.288 21.0569 6.044ZM28.5186 9.152L31.8646 1.088H33.4046V11H32.3966V2.432H32.3686L28.7846 11H28.2526L24.6686 2.432H24.6406V11H23.6326V1.088H25.1726L28.5186 9.152ZM37.6557 11H36.6477V1.088H37.6557V11ZM48.0671 9.488H48.0951V1.088H49.1031V11H47.8431L41.9351 2.516H41.9071V11H40.8991V1.088H42.1591L48.0671 9.488ZM59.6776 2.908C59.3416 2.55333 58.9403 2.27333 58.4736 2.068C58.0069 1.86267 57.4656 1.76 56.8496 1.76C56.2149 1.76 55.6456 1.87667 55.1416 2.11C54.6376 2.34333 54.2083 2.656 53.8536 3.048C53.5083 3.44 53.2423 3.89733 53.0556 4.42C52.8689 4.93333 52.7756 5.47467 52.7756 6.044C52.7756 6.61333 52.8689 7.15933 53.0556 7.682C53.2423 8.19533 53.5083 8.648 53.8536 9.04C54.2083 9.432 54.6376 9.74467 55.1416 9.978C55.6456 10.2113 56.2149 10.328 56.8496 10.328C57.3629 10.328 57.8529 10.2673 58.3196 10.146C58.7956 10.0153 59.2203 9.84267 59.5936 9.628V6.31H57.2276V5.386H60.6016V10.244C60.0416 10.5707 59.4256 10.8227 58.7536 11C58.0909 11.168 57.4563 11.252 56.8496 11.252C56.1123 11.252 55.4263 11.1213 54.7916 10.86C54.1663 10.5987 53.6203 10.2393 53.1536 9.782C52.6963 9.31533 52.3369 8.76467 52.0756 8.13C51.8143 7.49533 51.6836 6.8 51.6836 6.044C51.6836 5.288 51.8143 4.59267 52.0756 3.958C52.3369 3.32333 52.6963 2.77733 53.1536 2.32C53.6203 1.85333 54.1663 1.48933 54.7916 1.228C55.4263 0.966666 56.1123 0.836 56.8496 0.836C57.6429 0.836 58.3243 0.948 58.8936 1.172C59.4723 1.38667 59.9856 1.718 60.4336 2.166L59.6776 2.908ZM17.1803 21.726C16.7417 21.082 16.1023 20.76 15.2623 20.76C15.001 20.76 14.7443 20.7973 14.4923 20.872C14.2403 20.9373 14.0117 21.0447 13.8063 21.194C13.6103 21.334 13.4517 21.5207 13.3303 21.754C13.209 21.978 13.1483 22.244 13.1483 22.552C13.1483 23 13.2743 23.35 13.5263 23.602C13.7783 23.8447 14.091 24.0453 14.4643 24.204C14.8377 24.3627 15.2437 24.5073 15.6823 24.638C16.1303 24.7593 16.541 24.9273 16.9143 25.142C17.2877 25.3473 17.6003 25.6227 17.8523 25.968C18.1043 26.3133 18.2303 26.7847 18.2303 27.382C18.2303 27.83 18.1323 28.236 17.9363 28.6C17.7497 28.9547 17.4977 29.2533 17.1803 29.496C16.8723 29.7387 16.5223 29.9253 16.1303 30.056C15.7477 30.1867 15.3603 30.252 14.9683 30.252C14.3617 30.252 13.783 30.14 13.2323 29.916C12.691 29.6827 12.229 29.3047 11.8463 28.782L12.7563 28.124C12.971 28.488 13.2697 28.782 13.6523 29.006C14.035 29.2207 14.4877 29.328 15.0103 29.328C15.2623 29.328 15.5143 29.2907 15.7663 29.216C16.0183 29.132 16.2423 29.0153 16.4383 28.866C16.6437 28.7073 16.8117 28.516 16.9423 28.292C17.073 28.068 17.1383 27.8113 17.1383 27.522C17.1383 27.1767 17.0637 26.892 16.9143 26.668C16.7743 26.4347 16.583 26.2433 16.3403 26.094C16.107 25.9353 15.8363 25.8047 15.5283 25.702C15.2297 25.5993 14.917 25.4967 14.5903 25.394C14.273 25.2913 13.9603 25.1747 13.6523 25.044C13.3537 24.9133 13.083 24.75 12.8403 24.554C12.607 24.3487 12.4157 24.0967 12.2663 23.798C12.1263 23.49 12.0563 23.1073 12.0563 22.65C12.0563 22.174 12.145 21.7587 12.3223 21.404C12.509 21.0493 12.7517 20.7553 13.0503 20.522C13.3583 20.2887 13.7037 20.116 14.0863 20.004C14.469 19.892 14.861 19.836 15.2623 19.836C15.8223 19.836 16.331 19.9247 16.7883 20.102C17.2457 20.2793 17.6703 20.592 18.0623 21.04L17.1803 21.726ZM29.3976 25.044C29.3976 24.4747 29.3043 23.9333 29.1176 23.42C28.931 22.8973 28.6603 22.44 28.3056 22.048C27.9603 21.656 27.5356 21.3433 27.0316 21.11C26.5276 20.8767 25.9583 20.76 25.3236 20.76C24.689 20.76 24.1196 20.8767 23.6156 21.11C23.1116 21.3433 22.6823 21.656 22.3276 22.048C21.9823 22.44 21.7163 22.8973 21.5296 23.42C21.343 23.9333 21.2496 24.4747 21.2496 25.044C21.2496 25.6133 21.343 26.1593 21.5296 26.682C21.7163 27.1953 21.9823 27.648 22.3276 28.04C22.6823 28.432 23.1116 28.7447 23.6156 28.978C24.1196 29.2113 24.689 29.328 25.3236 29.328C25.9583 29.328 26.5276 29.2113 27.0316 28.978C27.5356 28.7447 27.9603 28.432 28.3056 28.04C28.6603 27.648 28.931 27.1953 29.1176 26.682C29.3043 26.1593 29.3976 25.6133 29.3976 25.044ZM30.4896 25.044C30.4896 25.8 30.359 26.4953 30.0976 27.13C29.8363 27.7647 29.4723 28.3153 29.0056 28.782C28.5483 29.2393 28.0023 29.5987 27.3676 29.86C26.7423 30.1213 26.061 30.252 25.3236 30.252C24.5863 30.252 23.9003 30.1213 23.2656 29.86C22.6403 29.5987 22.0943 29.2393 21.6276 28.782C21.1703 28.3153 20.811 27.7647 20.5496 27.13C20.2883 26.4953 20.1576 25.8 20.1576 25.044C20.1576 24.288 20.2883 23.5927 20.5496 22.958C20.811 22.3233 21.1703 21.7773 21.6276 21.32C22.0943 20.8533 22.6403 20.4893 23.2656 20.228C23.9003 19.9667 24.5863 19.836 25.3236 19.836C26.061 19.836 26.7423 19.9667 27.3676 20.228C28.0023 20.4893 28.5483 20.8533 29.0056 21.32C29.4723 21.7773 29.8363 22.3233 30.0976 22.958C30.359 23.5927 30.4896 24.288 30.4896 25.044ZM41.6334 25.044C41.6334 24.4747 41.5401 23.9333 41.3534 23.42C41.1667 22.8973 40.8961 22.44 40.5414 22.048C40.1961 21.656 39.7714 21.3433 39.2674 21.11C38.7634 20.8767 38.1941 20.76 37.5594 20.76C36.9247 20.76 36.3554 20.8767 35.8514 21.11C35.3474 21.3433 34.9181 21.656 34.5634 22.048C34.2181 22.44 33.9521 22.8973 33.7654 23.42C33.5787 23.9333 33.4854 24.4747 33.4854 25.044C33.4854 25.6133 33.5787 26.1593 33.7654 26.682C33.9521 27.1953 34.2181 27.648 34.5634 28.04C34.9181 28.432 35.3474 28.7447 35.8514 28.978C36.3554 29.2113 36.9247 29.328 37.5594 29.328C38.1941 29.328 38.7634 29.2113 39.2674 28.978C39.7714 28.7447 40.1961 28.432 40.5414 28.04C40.8961 27.648 41.1667 27.1953 41.3534 26.682C41.5401 26.1593 41.6334 25.6133 41.6334 25.044ZM42.7254 25.044C42.7254 25.8 42.5947 26.4953 42.3334 27.13C42.0721 27.7647 41.7081 28.3153 41.2414 28.782C40.7841 29.2393 40.2381 29.5987 39.6034 29.86C38.9781 30.1213 38.2967 30.252 37.5594 30.252C36.8221 30.252 36.1361 30.1213 35.5014 29.86C34.8761 29.5987 34.3301 29.2393 33.8634 28.782C33.4061 28.3153 33.0467 27.7647 32.7854 27.13C32.5241 26.4953 32.3934 25.8 32.3934 25.044C32.3934 24.288 32.5241 23.5927 32.7854 22.958C33.0467 22.3233 33.4061 21.7773 33.8634 21.32C34.3301 20.8533 34.8761 20.4893 35.5014 20.228C36.1361 19.9667 36.8221 19.836 37.5594 19.836C38.2967 19.836 38.9781 19.9667 39.6034 20.228C40.2381 20.4893 40.7841 20.8533 41.2414 21.32C41.7081 21.7773 42.0721 22.3233 42.3334 22.958C42.5947 23.5927 42.7254 24.288 42.7254 25.044ZM52.4692 28.488H52.4972V20.088H53.5052V30H52.2452L46.3372 21.516H46.3092V30H45.3012V20.088H46.5612L52.4692 28.488Z" fill="#5D647B"/>
</svg>
