<svg width="107" height="18" viewBox="0 0 107 18" fill="none" xmlns="http://www.w3.org/2000/svg">
<g clip-path="url(#clip0_4080_19609)">
<path d="M98.6995 6.28006H100.762V7.30006C100.989 6.91473 101.306 6.62006 101.691 6.46139C102.077 6.28006 102.507 6.18939 102.938 6.18939C103.527 6.18939 104.094 6.34806 104.593 6.68806C105.114 7.00539 105.522 7.48139 105.817 8.09339C106.111 8.68273 106.27 9.36273 106.27 10.1107C106.27 10.8587 106.111 11.5387 105.817 12.1507C105.522 12.7401 105.114 13.2161 104.593 13.5561C104.094 13.8734 103.527 14.0547 102.938 14.0547C102.507 14.0547 102.099 13.9641 101.714 13.7601C101.351 13.5561 101.011 13.2841 100.762 12.9441V17.0014H98.6995V6.28006ZM102.485 8.25206C102.167 8.25206 101.873 8.34273 101.623 8.50139C101.374 8.66006 101.147 8.88673 100.989 9.18139C100.83 9.47606 100.762 9.77073 100.762 10.1107C100.762 10.4507 100.83 10.7681 100.989 11.0401C101.147 11.3347 101.351 11.5614 101.623 11.7201C101.895 11.8787 102.167 11.9694 102.485 11.9694C102.802 11.9694 103.074 11.8787 103.346 11.7201C103.618 11.5614 103.822 11.3347 103.981 11.0401C104.139 10.7454 104.207 10.4507 104.207 10.1107C104.207 9.77073 104.139 9.45339 103.981 9.18139C103.845 8.90939 103.618 8.66006 103.346 8.50139C103.097 8.34273 102.779 8.25206 102.485 8.25206ZM93.4408 6.18939C94.2115 6.18939 94.8235 6.32539 95.3221 6.57473C95.8208 6.82406 96.2061 7.18673 96.4555 7.66273C96.7048 8.13873 96.8181 8.70539 96.8181 9.36273V13.9414H94.8008V13.1481C94.6195 13.3747 94.3021 13.5787 93.8715 13.7601C93.4635 13.9414 93.0328 14.0321 92.6021 14.0321C92.0581 14.0321 91.5821 13.9187 91.1741 13.7147C90.7888 13.5107 90.4941 13.2387 90.2901 12.8761C90.0861 12.5361 89.9955 12.1507 89.9955 11.7427C89.9955 10.9947 90.2675 10.4281 90.8115 9.99739C91.3555 9.58939 92.1941 9.36273 93.3275 9.36273H94.7781V9.02273C94.7781 8.61473 94.6421 8.29739 94.3701 8.11606C94.0981 7.91206 93.7808 7.82139 93.4408 7.84406C93.1461 7.84406 92.8515 7.95739 92.6248 8.11606C92.3981 8.27473 92.2621 8.52406 92.2168 8.86406H90.1315C90.1768 8.36539 90.3355 7.91206 90.5848 7.50406C90.8568 7.09606 91.2195 6.75606 91.6955 6.52939C92.1715 6.28006 92.7381 6.16673 93.3728 6.16673L93.4408 6.18939ZM93.0781 12.5587C93.3728 12.5587 93.6221 12.5134 93.8715 12.4001C94.1208 12.2867 94.3248 12.1054 94.4835 11.8561C94.6421 11.6067 94.7101 11.2667 94.7101 10.8814V10.7907H93.4861C93.1008 10.8134 92.7835 10.9041 92.5115 11.0401C92.2621 11.1761 92.1261 11.4027 92.1261 11.6974C92.1261 11.9694 92.1941 12.1734 92.3528 12.3321C92.5115 12.4907 92.7381 12.5587 93.0555 12.5587H93.0781ZM89.7235 6.28006L87.2075 13.9414H85.2808L84.2608 10.7907L84.1928 10.5867C84.0115 10.0427 83.8528 9.52139 83.6941 8.97739C83.5581 9.43073 83.4221 9.90673 83.2408 10.4507C83.2408 10.4961 83.1955 10.5641 83.1728 10.6094C83.1728 10.6547 83.1501 10.7227 83.1275 10.7681L82.1075 13.9187H80.1808L77.6421 6.25739H79.7275L80.6568 9.29473C80.8155 9.83873 80.9968 10.4507 81.1555 11.1307C81.2235 10.8587 81.3595 10.4054 81.5408 9.77073C81.5635 9.70273 81.6088 9.61206 81.6315 9.54406C81.6541 9.47606 81.6768 9.38539 81.6995 9.31739L82.6968 6.28006H84.6235L85.6208 9.31739V9.40806C85.8475 9.99739 86.0061 10.5867 86.1875 11.1534C86.2555 10.8134 86.3915 10.3147 86.5728 9.65739C86.5728 9.61206 86.6181 9.54406 86.6408 9.49873L86.7088 9.31739L87.6381 6.28006H89.7235ZM71.5221 10.1787C71.5221 10.5641 71.5901 10.9267 71.7488 11.1987C71.9075 11.4707 72.1568 11.6974 72.4288 11.8334C72.7235 11.9921 73.0408 12.0601 73.4261 12.0601C73.7661 12.0601 74.0381 11.9921 74.2648 11.8787C74.4915 11.7654 74.6728 11.6067 74.7861 11.4254C74.8995 11.2441 74.9675 11.0401 74.9675 10.8361C74.9675 10.5414 74.8541 10.2921 74.6501 10.0654C74.4461 9.83873 74.1288 9.68006 73.7435 9.5894L72.5195 9.27206C71.6581 9.06806 70.9555 8.7054 70.4568 8.1614C69.9808 7.64006 69.7088 6.96006 69.7088 6.25739C69.7088 5.64539 69.8675 5.12406 70.2075 4.64806C70.5475 4.17206 71.0008 3.78673 71.5221 3.53739C72.0661 3.26539 72.6781 3.12939 73.2901 3.12939C73.9701 3.12939 74.5595 3.28806 75.0808 3.60539C75.6021 3.90006 76.0101 4.33073 76.2821 4.85206C76.5768 5.37339 76.7128 5.96273 76.7128 6.59739H74.6728C74.6728 6.16673 74.5368 5.80406 74.2648 5.53206C73.9928 5.23739 73.6528 5.10139 73.1995 5.10139C72.9048 5.10139 72.6555 5.16939 72.4515 5.28273C72.2475 5.37339 72.0888 5.53206 71.9755 5.71339C71.7261 6.07606 71.7715 6.55206 72.0435 6.89206C72.2021 7.07339 72.4515 7.20939 72.8141 7.30006L74.0155 7.59473C75.0355 7.84406 75.8061 8.25206 76.3048 8.7734C76.8035 9.29473 77.0528 9.95206 77.0528 10.7907C77.0528 11.4254 76.8941 11.9921 76.5768 12.4907C76.2595 12.9667 75.8288 13.3521 75.2848 13.6467C74.7408 13.9187 74.1061 14.0547 73.4035 14.0547C72.7008 14.0547 71.9981 13.8961 71.3861 13.5787C70.7968 13.2614 70.2755 12.8081 69.9355 12.2187C69.5728 11.6294 69.3915 10.9494 69.3915 10.1787H71.4768H71.5221ZM64.3141 3.24273L61.3901 13.9414H59.2595L57.7861 8.43339C57.7408 8.27473 57.6955 8.09339 57.6501 7.93473C57.6048 7.75339 57.5595 7.57206 57.5141 7.39073L57.4008 6.84673C57.3555 6.66539 57.3328 6.50673 57.2875 6.34806C57.2421 6.50673 57.1968 6.66539 57.1515 6.84673C57.1061 7.02806 57.0608 7.18673 57.0381 7.36806L56.8795 7.93473C56.8341 8.11606 56.7888 8.29739 56.7435 8.45606L55.2701 13.9641H53.1395L50.2155 3.26539H52.3235L53.7741 8.7734C53.8195 8.93206 53.8421 9.09073 53.8875 9.24939C53.9328 9.40806 53.9555 9.5894 54.0008 9.77073C54.0461 9.95206 54.0688 10.1334 54.1141 10.2921C54.1595 10.4507 54.1821 10.6321 54.2048 10.7907C54.2501 10.6094 54.2955 10.4281 54.3408 10.2241C54.3861 10.0201 54.4315 9.7934 54.4995 9.5894C54.5448 9.4534 54.5675 9.31739 54.6128 9.18139C54.6581 9.04539 54.6808 8.9094 54.7261 8.7734L56.1995 3.26539H58.3301L59.8261 8.7734C59.8261 8.7734 59.8941 9.00006 59.9168 9.11339L60.0075 9.47606C60.0981 9.83873 60.2115 10.2694 60.3248 10.7907L60.3928 10.4961C60.3928 10.4961 60.4381 10.2694 60.4608 10.1561C60.5515 9.68006 60.6648 9.22673 60.7781 8.79606L62.2288 3.28806H64.3368L64.3141 3.24273ZM46.5435 14.0321C45.8635 14.0321 45.2061 13.8507 44.6168 13.5107C44.0275 13.1707 43.5515 12.6721 43.2115 12.0827C42.8715 11.4707 42.6901 10.7907 42.7128 10.1107C42.7128 9.40806 42.8715 8.75073 43.2115 8.13873C43.5515 7.54939 44.0275 7.05073 44.6168 6.71073C45.1835 6.34806 45.8635 6.16673 46.5435 6.16673C47.2235 6.16673 47.8808 6.34806 48.4475 6.71073C49.0368 7.05073 49.5128 7.54939 49.8301 8.13873C50.1701 8.75073 50.3515 9.40806 50.3515 10.1107C50.3515 10.8134 50.1701 11.4707 49.8301 12.0827C49.5128 12.6721 49.0368 13.1707 48.4475 13.5334C47.8808 13.8734 47.2235 14.0547 46.5435 14.0547V14.0321ZM46.5435 11.9921C46.8608 11.9921 47.1555 11.9014 47.4275 11.7427C47.6995 11.5841 47.9035 11.3574 48.0621 11.0627C48.2208 10.7681 48.2888 10.4507 48.2888 10.1107C48.2888 9.77073 48.2208 9.45339 48.0621 9.18139C47.9035 8.90939 47.6995 8.66006 47.4275 8.50139C47.1781 8.34273 46.8608 8.25206 46.5661 8.25206C46.2488 8.25206 45.9315 8.34273 45.6821 8.50139C45.4328 8.66006 45.2061 8.88673 45.0475 9.18139C44.8888 9.47606 44.7981 9.79339 44.8208 10.1107C44.8208 10.4507 44.8888 10.7681 45.0475 11.0401C45.2061 11.3121 45.4101 11.5614 45.6821 11.7201C45.9541 11.8787 46.2488 11.9694 46.5661 11.9694L46.5435 11.9921ZM36.8421 14.0321C35.8901 14.0321 34.9381 13.7827 34.1221 13.3067C33.3061 12.8081 32.6261 12.1281 32.1501 11.3121C31.6741 10.4961 31.4248 9.54406 31.4248 8.59206C31.4248 7.61739 31.6741 6.71073 32.1501 5.87206C32.6261 5.05606 33.3061 4.37606 34.1221 3.90006C34.9381 3.40139 35.8901 3.15206 36.8421 3.15206C37.7035 3.15206 38.4968 3.35606 39.1768 3.74139C39.8568 4.12673 40.4008 4.62539 40.8088 5.23739C41.2168 5.84939 41.4888 6.46139 41.6021 7.09606H39.4715C39.3808 6.73339 39.1995 6.39339 38.9275 6.12139C38.6555 5.82673 38.3381 5.60006 37.9755 5.44139C37.6128 5.28273 37.2275 5.19206 36.8421 5.19206C36.2528 5.19206 35.6635 5.35073 35.1421 5.64539C34.6435 5.94006 34.2128 6.37073 33.9181 6.86939C33.6008 7.39073 33.4421 7.95739 33.4648 8.56939C33.4648 9.18139 33.6235 9.74806 33.9181 10.2694C34.2128 10.7681 34.6435 11.1987 35.1421 11.4934C35.6635 11.8107 36.2301 11.9694 36.8421 11.9467C37.4541 11.9467 37.9981 11.7881 38.4968 11.4481C38.9728 11.1307 39.3355 10.6547 39.4941 10.1107H41.6248C41.5115 10.7907 41.2395 11.4481 40.8315 12.0374C40.4235 12.6267 39.8568 13.1027 39.1768 13.4654C38.4968 13.8281 37.7261 14.0094 36.8648 14.0094L36.8421 14.0321Z" fill="#0E0F2D"/>
<path fill-rule="evenodd" clip-rule="evenodd" d="M10.0728 17.5C8.82612 17.5 7.73812 16.7067 7.37545 15.528L5.44879 9.476H4.27012C3.02345 9.476 1.93545 8.68267 1.57279 7.504L0.439453 3.92267H4.72345L2.43412 0.5H23.8541L21.5875 3.9H25.8715L24.7381 7.504C24.3528 8.68267 23.2648 9.476 22.0408 9.476H20.8621L18.9355 15.528C18.5501 16.7067 17.4621 17.5 16.2381 17.5H10.0955H10.0728ZM8.62212 7.82133C8.62212 8.728 9.30212 9.476 10.1408 9.476C10.9795 9.476 11.6595 8.728 11.6595 7.82133C11.6595 6.91467 10.9795 6.16667 10.1408 6.16667C9.30212 6.16667 8.62212 6.91467 8.62212 7.82133ZM17.6888 7.82133C17.6888 8.728 17.0088 9.476 16.1701 9.476C15.3315 9.476 14.6515 8.728 14.6515 7.82133C14.6515 6.91467 15.3315 6.16667 16.1701 6.16667C17.0088 6.16667 17.6888 6.91467 17.6888 7.82133Z" fill="#0E0F2D"/>
</g>
<defs>
<clipPath id="clip0_4080_19609">
<rect width="105.831" height="17" fill="white" transform="translate(0.417969 0.5)"/>
</clipPath>
</defs>
</svg>
