<svg width="241" height="29" viewBox="0 0 241 29" fill="none" xmlns="http://www.w3.org/2000/svg">
<path d="M1.3018 23.9878C2.18575 25.5049 3.38028 26.7114 4.89734 27.6073C6.4144 28.4793 8.11064 28.9093 9.98605 28.9093C11.4553 28.9093 12.8649 28.6107 14.2266 28.0134C15.5884 27.3922 16.7591 26.5441 17.7386 25.481L17.87 25.3376L14.6567 21.8974L14.5133 22.0527C13.8563 22.7455 13.1755 23.2711 12.4468 23.6175C11.754 23.94 11.0134 24.1073 10.2011 24.1073C9.28128 24.1073 8.43316 23.8803 7.68061 23.4383C6.92805 22.9725 6.33078 22.3394 5.8888 21.539C5.47072 20.7148 5.26765 19.807 5.26765 18.8155C5.26765 17.7762 5.48266 16.8565 5.8888 16.0561C6.33078 15.2558 6.90416 14.6227 7.62088 14.1568C8.34954 13.6909 9.17377 13.452 10.1055 13.452C10.9656 13.452 11.742 13.6432 12.4587 14.0135C13.1993 14.3599 13.9041 14.9213 14.585 15.6858L14.7284 15.853L18.0253 12.3053L17.9058 12.1619C16.9024 11.0391 15.7079 10.179 14.3222 9.59369C12.9604 8.99643 11.5151 8.69779 10.0099 8.69779C8.13453 8.69779 6.43829 9.13977 4.92123 10.0476C3.40418 10.9435 2.20964 12.15 1.32569 13.6671C0.441733 15.1841 -0.000244141 16.9042 -0.000244141 18.8155C-0.000244141 20.7267 0.441733 22.423 1.31374 23.9639L1.3018 23.9878Z" fill="#121212"/>
<path d="M20.4388 9.09209V28.5271L25.7545 22.9726V16.0443C26.2203 15.1962 26.8176 14.5392 27.5582 14.0852C28.3108 13.6194 29.1589 13.3805 30.0787 13.3805C30.5207 13.3805 30.9507 13.4282 31.3688 13.5238C31.7869 13.5955 32.1572 13.7149 32.5036 13.8702L32.7903 14.0016V9.1757L32.6947 9.11598C32.193 8.81735 31.4763 8.674 30.5565 8.65011C29.4695 8.65011 28.5019 8.87707 27.6299 9.33099C26.9251 9.7013 26.304 10.203 25.7664 10.8361V9.09209H20.4388Z" fill="#121212"/>
<path d="M53.3005 9.09227L58.5445 28.5512H63.5854L67.0615 16.8687L70.5376 28.5512H75.5427L80.8226 9.09227H75.8055L72.855 20.8704L69.3192 9.09227H64.8994L61.3278 20.8345L58.3773 9.09227H53.2886H53.3005Z" fill="#121212"/>
<path fill-rule="evenodd" clip-rule="evenodd" d="M82.7585 23.8802C81.8984 22.3631 81.4803 20.6669 81.4803 18.8034C81.4803 16.9399 81.9104 15.2557 82.7585 13.7625C83.6424 12.2454 84.825 11.0509 86.3182 10.1789C87.8113 9.28299 89.4837 8.84101 91.3352 8.84101C92.2908 8.84101 93.1987 8.97241 94.0826 9.24715C94.8471 9.46217 95.5639 9.77275 96.2328 10.1789V2.58166L101.548 1.67381V28.5508H96.3045V27.1771C94.8113 28.2641 93.1031 28.8017 91.1919 28.8017C89.3881 28.8017 87.7516 28.3597 86.2823 27.4518C84.8131 26.5559 83.6424 25.3614 82.7704 23.8682L82.7585 23.8802ZM89.2806 14.1925C88.5042 14.6345 87.883 15.2676 87.4171 16.0918C86.9632 16.8922 86.7243 17.7881 86.7243 18.8034C86.7243 19.8188 86.9513 20.7266 87.4171 21.515C87.883 22.3154 88.5042 22.9485 89.2806 23.4143C90.081 23.8802 90.9888 24.1191 91.9803 24.1191C92.8642 24.1191 93.6646 23.9758 94.3813 23.6891C95.098 23.3904 95.7072 22.9723 96.2328 22.4109V15.1481C95.7192 14.6345 95.098 14.2284 94.3813 13.9297C93.6407 13.6191 92.8403 13.4639 91.9803 13.4639C90.9888 13.4639 90.081 13.7028 89.2806 14.1686V14.1925Z" fill="#121212"/>
<path d="M45.5121 8.94894C45.5719 8.96088 45.6435 8.98477 45.7033 8.99672L39.7903 15.0411C39.1453 15.6383 38.6555 16.4267 38.4166 17.3346C37.9627 19.0427 38.3569 20.6076 39.4917 21.7902L35.932 25.4335C33.5668 23.0086 32.5754 19.5325 33.519 16.0086C34.9286 10.7049 40.2682 7.5155 45.5241 8.93699L45.5121 8.94894Z" fill="#121212"/>
<path d="M45.3685 19.3891C44.9743 20.8822 43.4573 21.7662 41.976 21.36C40.4948 20.9539 39.6228 19.4368 40.017 17.9437C40.4112 16.4505 41.9283 15.5665 43.4095 15.9727C44.8907 16.3669 45.7627 17.8959 45.3685 19.3891Z" fill="#121212"/>
<path d="M39.8269 28.5271C39.7672 28.5152 39.6955 28.4913 39.6358 28.4793L45.5965 22.435C46.2415 21.8377 46.7432 21.0493 46.9821 20.1415C47.4361 18.4333 47.0419 16.8326 45.8951 15.662L49.4668 12.0067C51.8558 14.4316 52.8831 17.9436 51.9275 21.4674C50.506 26.7712 45.1306 29.9606 39.8269 28.5391V28.5271Z" fill="#121212"/>
<path d="M195.043 13.7149L191.985 28.551H197.206L200.299 13.7149H205.257L206.188 9.10398H201.231L201.53 7.75415C201.697 7.0016 201.984 6.476 202.39 6.15348C202.82 5.81901 203.429 5.65177 204.206 5.65177C204.648 5.65177 205.066 5.68761 205.46 5.75928C205.854 5.83095 206.248 5.93846 206.654 6.08181L206.869 6.16542L207.777 1.61425L207.634 1.54258C207.204 1.33951 206.642 1.18422 205.962 1.08866C205.305 0.993094 204.671 0.945312 204.062 0.945312C202.02 0.945312 200.323 1.48285 199.009 2.55793C197.695 3.64496 196.835 5.19785 196.393 7.20467L195.963 9.11592H191.902L190.97 13.7268H195.032L195.043 13.7149Z" fill="#121212"/>
<path d="M106.924 26.3652C107.067 26.6758 107.258 26.9505 107.485 27.2133C108.476 28.3003 110.065 28.814 112.191 28.814C112.753 28.814 113.362 28.7662 114.007 28.6706C114.652 28.599 115.202 28.5154 115.644 28.4079L115.763 28.384L116.719 23.8925L116.42 23.9642C115.99 24.0597 115.608 24.1314 115.249 24.1792C114.903 24.227 114.533 24.2509 114.162 24.2509C113.147 24.2509 112.526 24.0598 112.227 23.7372C111.929 23.3908 111.821 22.8055 111.988 21.8976L113.744 13.6912H118.952L119.896 9.11614H114.688L115.954 3.05985L110.459 4.29022L109.456 9.11614H105.681L104.738 13.6912H108.512L106.661 22.6621C106.505 23.4147 106.434 24.1075 106.482 24.7287C106.482 24.7287 106.494 25.2901 106.589 25.6246C106.673 25.9352 106.9 26.3771 106.9 26.3771L106.924 26.3652Z" fill="#121212"/>
<path d="M117.841 28.551L121.914 9.09206H127.134L126.824 10.5972C127.409 10.0716 128.03 9.65349 128.711 9.33096C129.571 8.92482 130.491 8.72175 131.447 8.72175C132.498 8.72175 133.31 8.88898 133.884 9.27124L134.003 9.34291L133.012 14.1688L132.761 13.9896C132.558 13.8463 132.199 13.703 131.686 13.5835C131.172 13.4402 130.682 13.3685 130.228 13.3685C128.448 13.3685 126.943 14.1808 125.713 15.8531L123.109 28.551H117.841Z" fill="#121212"/>
<path fill-rule="evenodd" clip-rule="evenodd" d="M134.003 27.297C135.198 28.2884 136.786 28.7662 138.757 28.7662C139.617 28.7662 140.43 28.6587 141.218 28.4318C141.863 28.2287 142.508 27.942 143.141 27.5836L142.962 28.5512H148.111L150.512 16.9404C150.882 15.2561 150.81 13.7987 150.285 12.5684C149.759 11.326 148.851 10.3824 147.573 9.72537C146.319 9.06838 144.73 8.7578 142.819 8.7578C141.672 8.7578 140.477 8.8892 139.223 9.16394C137.969 9.41479 136.631 9.82093 135.233 10.3824L135.066 10.454L136.368 14.5991L136.559 14.5274C137.73 14.0854 138.71 13.7748 139.51 13.5837C140.334 13.3926 141.087 13.297 141.768 13.297C143.285 13.297 144.288 13.6195 144.849 14.2168C145.423 14.7782 145.626 15.6622 145.363 16.9165L145.196 17.669C144.479 17.3943 143.715 17.1673 142.902 17.012C142.03 16.8448 141.146 16.7492 140.239 16.7492C138.59 16.7492 137.157 17.012 135.962 17.5376C134.756 18.0632 133.824 18.8038 133.143 19.7595C132.498 20.727 132.175 21.8857 132.175 23.2355C132.175 24.8959 132.773 26.2458 133.967 27.2731L134.003 27.297ZM140.418 24.8123C141.075 24.8123 141.696 24.7287 142.305 24.5615C142.878 24.3823 143.428 24.1314 143.942 23.8209L144.503 21.2885C143.32 20.739 142.042 20.4642 140.633 20.4642C139.534 20.4642 138.674 20.6912 138.053 21.1212C137.455 21.5513 137.169 22.1127 137.169 22.8175C137.169 23.4267 137.431 23.9045 137.969 24.2509C138.554 24.6093 139.355 24.8004 140.418 24.8004V24.8123Z" fill="#121212"/>
<path d="M151.348 28.5511L155.385 9.09217H160.605L160.367 10.2389C161.848 9.2833 163.448 8.80548 165.169 8.80548C166.686 8.80548 167.976 9.16384 169.015 9.90445C170.078 10.6092 170.831 11.5887 171.249 12.8191C171.667 14.0614 171.715 15.459 171.404 17.0239L170.496 21.814L163.866 28.5631L166.1 17.43C166.327 16.1996 166.16 15.256 165.634 14.5631C165.109 13.8464 164.285 13.4761 163.138 13.4761C162.397 13.4761 161.704 13.6195 161.059 13.8942C160.45 14.1689 159.889 14.5751 159.363 15.1246L156.58 28.575H151.36L151.348 28.5511Z" fill="#121212"/>
<path d="M172.598 26.4129C174.163 27.3924 174.187 27.4999 175.728 28.0614C177.329 28.6586 179.001 28.9453 180.757 28.9453C182.286 28.9453 183.671 28.6586 184.902 28.0852C186.12 27.488 187.1 26.6876 187.817 25.6842C188.533 24.6689 188.892 23.5341 188.892 22.2798C188.892 20.9419 188.45 19.8071 187.578 18.8873C186.706 17.9676 185.451 17.3464 183.851 17L180.446 16.2355C179.67 16.0682 179.132 15.8532 178.81 15.6143C178.523 15.3635 178.38 15.0409 178.38 14.6348C178.38 14.1212 178.595 13.715 179.049 13.4164C179.503 13.1058 180.148 12.9386 180.984 12.9386C181.892 12.9386 182.811 13.1297 183.743 13.5119C184.699 13.8703 185.642 14.4078 186.562 15.1246L186.706 15.244L189.656 11.9113L189.501 11.7799C188.378 10.8123 187.112 10.0836 185.702 9.58193C184.293 9.05634 182.823 8.80548 181.294 8.80548C179.765 8.80548 178.416 9.06828 177.257 9.59388C176.122 10.1195 175.25 10.8601 174.629 11.8277C174.008 12.7713 173.697 13.9061 173.697 15.2321C173.697 16.558 174.103 17.7764 174.939 18.6962C175.788 19.616 177.006 20.2372 178.559 20.5836L181.999 21.3481C182.68 21.5153 183.158 21.7303 183.468 21.9692C183.755 22.1962 183.898 22.4948 183.898 22.8651C183.898 23.3907 183.636 23.8327 183.062 24.1911C182.501 24.5494 181.76 24.7406 180.793 24.7406C179.765 24.7406 178.75 24.5255 177.747 24.0955C177.532 23.9999 177.352 23.9283 177.197 23.8685C176.672 23.6535 176.48 23.546 175.847 23.0921L172.61 26.401L172.598 26.4129Z" fill="#121212"/>
<path fill-rule="evenodd" clip-rule="evenodd" d="M209.533 27.7628C208.088 26.9625 206.953 25.8635 206.117 24.4659C205.281 23.0444 204.875 21.4437 204.875 19.6758C204.875 18.1827 205.138 16.785 205.675 15.4711C206.213 14.1571 206.953 12.9984 207.909 12.0069C208.865 10.9916 209.964 10.2032 211.206 9.65368C212.448 9.08031 213.786 8.79362 215.196 8.79362C216.88 8.79362 218.373 9.19976 219.687 10.0359C220.989 10.8363 222.004 11.9352 222.745 13.3328C223.486 14.7304 223.844 16.355 223.844 18.1827C223.844 18.4574 223.832 18.7441 223.808 19.0666C223.808 19.4011 223.76 19.8789 223.665 20.512L223.641 20.6792H210.143C210.298 21.3601 210.561 21.9693 210.955 22.5069C211.385 23.0922 211.934 23.5461 212.603 23.8686C213.296 24.1912 214.061 24.3584 214.921 24.3584C215.685 24.3584 216.414 24.2389 217.083 24C217.752 23.7611 218.349 23.4386 218.851 23.0086L219.006 22.8891L221.969 26.3891L221.789 26.5205C220.631 27.3567 219.472 27.9659 218.325 28.3362C217.178 28.7065 215.912 28.8976 214.527 28.8976C212.675 28.8976 211.015 28.5154 209.545 27.7389L209.533 27.7628ZM210.453 16.7373H218.863C218.719 16.1042 218.481 15.5547 218.158 15.0769C217.788 14.5393 217.334 14.1212 216.784 13.8226C216.247 13.524 215.626 13.3687 214.945 13.3687C214.264 13.3687 213.607 13.524 212.986 13.8226C212.388 14.1212 211.863 14.5513 211.397 15.0888C211.015 15.5666 210.704 16.1042 210.453 16.7253V16.7373Z" fill="#121212"/>
<path d="M228.467 9.09206L224.394 28.551H229.65L232.254 15.8531C233.484 14.1927 234.989 13.3685 236.769 13.3685C237.223 13.3685 237.713 13.4402 238.227 13.5835C238.74 13.703 239.099 13.8463 239.302 13.9896L239.553 14.1688L240.544 9.34291L240.425 9.27124C239.851 8.90093 239.027 8.72175 237.988 8.72175C237.02 8.72175 236.112 8.92482 235.252 9.33096C234.571 9.64154 233.95 10.0716 233.365 10.5972L233.675 9.09206H228.455H228.467Z" fill="#121212"/>
</svg>
