<svg width="39" height="38" viewBox="0 0 39 38" fill="none" xmlns="http://www.w3.org/2000/svg">
<g clip-path="url(#clip0_3649_16757)">
<path d="M19.5 0C29.9944 0 38.5 8.50733 38.5 19C38.5 29.4944 29.9944 38 19.5 38C9.00733 38 0.5 29.4935 0.5 19C0.5 8.50733 9.00733 0 19.5 0Z" fill="#F5AC37"/>
<path d="M20.1998 20.3415H27.4195C27.5734 20.3415 27.6461 20.3415 27.6572 20.1397C27.7162 19.4053 27.7162 18.6666 27.6572 17.9312C27.6572 17.7885 27.5862 17.7295 27.4315 17.7295H13.0631C12.8852 17.7295 12.8373 17.7885 12.8373 17.9552V20.0688C12.8373 20.3415 12.8373 20.3415 13.1221 20.3415H20.1998ZM26.8509 15.2593C26.8715 15.2055 26.8715 15.1465 26.8509 15.0935C26.7304 14.831 26.5876 14.5805 26.4217 14.3453C26.1721 13.9435 25.8779 13.5733 25.5428 13.2407C25.3846 13.0397 25.2016 12.8593 24.9964 12.7063C23.9687 11.8316 22.7469 11.2126 21.4336 10.9014C20.771 10.7526 20.0938 10.6816 19.4149 10.6876H13.0383C12.8604 10.6876 12.8365 10.7586 12.8365 10.9133V15.1285C12.8365 15.3064 12.8365 15.3542 13.0622 15.3542H26.7654C26.7654 15.3542 26.8843 15.3303 26.9082 15.2593H26.8501H26.8509ZM26.8509 22.8116C26.6491 22.7894 26.4457 22.7894 26.2439 22.8116H13.075C12.8972 22.8116 12.8373 22.8116 12.8373 23.0493V27.1705C12.8373 27.3603 12.8373 27.4082 13.075 27.4082H19.155C19.4457 27.4304 19.7364 27.4099 20.0211 27.3492C20.9035 27.2859 21.7713 27.0944 22.599 26.7789C22.8999 26.6746 23.1906 26.5386 23.4651 26.3753H23.548C24.9733 25.634 26.131 24.4695 26.8612 23.0399C26.8612 23.0399 26.9441 22.8604 26.8509 22.8133V22.8116ZM10.451 29.5448V29.4739V26.7071V25.7691V22.9784C10.451 22.8236 10.451 22.8005 10.2612 22.8005H7.6842C7.54142 22.8005 7.48242 22.8005 7.48242 22.6107V20.3543H10.2373C10.3912 20.3543 10.451 20.3543 10.451 20.1526V17.9201C10.451 17.7773 10.451 17.7423 10.2612 17.7423H7.6842C7.54142 17.7423 7.48242 17.7423 7.48242 17.5525V15.4628C7.48242 15.332 7.48242 15.297 7.67223 15.297H10.2253C10.4031 15.297 10.451 15.297 10.451 15.0712V8.67065C10.451 8.48083 10.451 8.43295 10.6887 8.43295H19.5945C20.2409 8.4586 20.883 8.52957 21.5182 8.64671C22.8273 8.88867 24.085 9.35636 25.235 10.0241C25.9976 10.473 26.6996 11.0151 27.3246 11.6392C27.7949 12.1274 28.2189 12.6558 28.5951 13.2184C28.9688 13.7887 29.2792 14.3983 29.5228 15.0353C29.5528 15.2012 29.7118 15.3132 29.8777 15.285H32.0032C32.276 15.285 32.276 15.285 32.2879 15.5466V17.4943C32.2879 17.6841 32.217 17.732 32.0263 17.732H30.3872C30.2214 17.732 30.1735 17.732 30.1855 17.9458C30.2504 18.6691 30.2504 19.395 30.1855 20.1184C30.1855 20.3201 30.1855 20.3441 30.412 20.3441H32.2871C32.37 20.451 32.2871 20.5578 32.2871 20.6656C32.299 20.8032 32.299 20.9426 32.2871 21.0802V22.5175C32.2871 22.7193 32.2281 22.7791 32.0494 22.7791H29.805C29.6485 22.7492 29.4963 22.8493 29.4604 23.0049C28.926 24.3943 28.071 25.64 26.9664 26.6387C26.5628 27.002 26.1387 27.344 25.6958 27.6595C25.2204 27.9331 24.7579 28.2179 24.2705 28.4436C23.3736 28.8471 22.4331 29.1447 21.4678 29.3336C20.5512 29.4978 19.6218 29.5722 18.689 29.5594H10.4476V29.5474L10.451 29.5448Z" fill="#FEFEFD"/>
</g>
<defs>
<clipPath id="clip0_3649_16757">
<rect width="38" height="38" fill="white" transform="translate(0.5)"/>
</clipPath>
</defs>
</svg>
