<svg width="98" height="32" viewBox="0 0 98 32" fill="none" xmlns="http://www.w3.org/2000/svg">
<g clip-path="url(#clip0_4487_19003)">
<path d="M16.207 32C25.0436 32 32.207 24.8366 32.207 16C32.207 7.16344 25.0436 0 16.207 0C7.37047 0 0.207031 7.16344 0.207031 16C0.207031 24.8366 7.37047 32 16.207 32Z" fill="url(#paint0_linear_4487_19003)"/>
<path d="M16.207 32C25.0436 32 32.207 24.8366 32.207 16C32.207 7.16344 25.0436 0 16.207 0C7.37047 0 0.207031 7.16344 0.207031 16C0.207031 24.8366 7.37047 32 16.207 32Z" fill="url(#paint1_radial_4487_19003)"/>
<path d="M16.207 1C24.477 1 31.207 7.73 31.207 16C31.207 24.27 24.477 31 16.207 31C7.93703 31 1.20703 24.27 1.20703 16C1.20703 7.73 7.93703 1 16.207 1ZM16.207 0C7.36703 0 0.207031 7.16 0.207031 16C0.207031 24.84 7.36703 32 16.207 32C25.047 32 32.207 24.84 32.207 16C32.207 7.16 25.047 0 16.207 0Z" fill="url(#paint2_linear_4487_19003)"/>
<path d="M20.207 26V24H12.207V26H20.207Z" fill="#272B38" fill-opacity="0.45"/>
<path d="M22.207 22H20.207V24H22.207V22Z" fill="#272B38" fill-opacity="0.45"/>
<path d="M12.207 22H10.207V24H12.207V22Z" fill="#272B38" fill-opacity="0.45"/>
<path d="M24.207 20H22.207V22H24.207V20Z" fill="#272B38" fill-opacity="0.45"/>
<path d="M24.207 12H22.207V14H24.207V12Z" fill="#272B38" fill-opacity="0.45"/>
<path d="M8.20703 14H6.20703V16H8.20703V18H6.20703V20H8.20703V22H10.207V20H18.207V18H10.207V16H20.207V14H10.207V12H8.20703V14Z" fill="#272B38" fill-opacity="0.45"/>
<path d="M22.207 10H20.207V12H22.207V10Z" fill="#272B38" fill-opacity="0.45"/>
<path d="M12.207 10H10.207V12H12.207V10Z" fill="#272B38" fill-opacity="0.45"/>
<path d="M12.207 8V10H20.207V8H12.207Z" fill="#272B38" fill-opacity="0.45"/>
<path d="M20.207 25V23H12.207V25H20.207Z" fill="url(#paint3_linear_4487_19003)"/>
<path d="M22.207 21H20.207V23H22.207V21Z" fill="url(#paint4_linear_4487_19003)"/>
<path d="M12.207 21H10.207V23H12.207V21Z" fill="url(#paint5_linear_4487_19003)"/>
<path d="M24.207 19H22.207V21H24.207V19Z" fill="url(#paint6_linear_4487_19003)"/>
<path d="M24.207 11H22.207V13H24.207V11Z" fill="url(#paint7_linear_4487_19003)"/>
<path d="M8.20703 13H6.20703V15H8.20703V17H6.20703V19H8.20703V21H10.207V19H18.207V17H10.207V15H20.207V13H10.207V11H8.20703V13Z" fill="url(#paint8_linear_4487_19003)"/>
<path d="M22.207 9H20.207V11H22.207V9Z" fill="url(#paint9_linear_4487_19003)"/>
<path d="M12.207 9H10.207V11H12.207V9Z" fill="url(#paint10_linear_4487_19003)"/>
<path d="M12.207 7V9H20.207V7H12.207Z" fill="url(#paint11_linear_4487_19003)"/>
</g>
<path d="M38.793 13.0523H49.1337V16.1493H42.1481V18.9883H48.7466V22.0854H42.1481V25.1824H49.5209V28.2795H38.793V13.0523Z" fill="#272B38"/>
<path d="M64.8169 22.4123C64.8169 23.3156 64.6793 24.1501 64.404 24.9072C64.1287 25.6642 63.7244 26.3266 63.191 26.8858C62.6576 27.445 61.9866 27.8838 61.1779 28.1935C60.3778 28.5118 59.4487 28.6667 58.3991 28.6667C57.3496 28.6667 56.4032 28.5118 55.6032 28.1935C54.8031 27.8752 54.1321 27.4364 53.5901 26.8858C53.0481 26.3352 52.6437 25.6642 52.3771 24.9072C52.1018 24.1501 51.9641 23.3156 51.9641 22.4123V13.0523H55.3193V22.2746C55.3193 22.7478 55.3967 23.1866 55.543 23.5909C55.6978 23.9952 55.9043 24.3394 56.1796 24.6319C56.4549 24.9244 56.7818 25.1566 57.1603 25.3201C57.5388 25.4836 57.9518 25.5696 58.3991 25.5696C58.8465 25.5696 59.2508 25.4836 59.6294 25.3201C59.9993 25.1566 60.3262 24.9244 60.5929 24.6319C60.8682 24.3394 61.0747 23.9866 61.2295 23.5909C61.3758 23.1866 61.4532 22.7478 61.4532 22.2746V13.0523H64.8083V22.4123H64.8169Z" fill="#272B38"/>
<path d="M67.742 13.0523H73.635C74.4093 13.0523 75.1405 13.1297 75.8374 13.2759C76.5342 13.4308 77.145 13.6803 77.6612 14.033C78.186 14.3857 78.5989 14.8589 78.9086 15.4525C79.2183 16.0461 79.3732 16.786 79.3732 17.6807C79.3732 18.756 79.0893 19.6679 78.5301 20.425C77.9709 21.1821 77.1536 21.6552 76.0782 21.8531L79.9496 28.2881H75.932L72.7489 22.2058H71.0971V28.2881H67.742V13.0523ZM71.0971 19.3582H73.0758C73.3769 19.3582 73.6952 19.3496 74.0307 19.3238C74.3662 19.3066 74.6759 19.2378 74.9426 19.1346C75.2093 19.0313 75.4416 18.8593 75.6223 18.627C75.8029 18.3947 75.889 18.0764 75.889 17.6635C75.889 17.2763 75.8115 16.9666 75.6567 16.7429C75.5018 16.5107 75.2954 16.3386 75.0545 16.2182C74.8136 16.0977 74.5297 16.0117 74.22 15.9687C73.9017 15.9257 73.592 15.9084 73.2909 15.9084H71.0971V19.3668V19.3582Z" fill="#272B38"/>
<path d="M80.9819 20.6659C80.9819 19.4443 81.1884 18.3431 81.5927 17.3537C82.0057 16.3644 82.5735 15.5213 83.3047 14.8245C84.036 14.1276 84.9049 13.5943 85.9114 13.2243C86.918 12.8544 88.0106 12.6651 89.1978 12.6651C90.385 12.6651 91.4862 12.8544 92.4927 13.2243C93.4993 13.5943 94.3596 14.1276 95.0908 14.8245C95.8221 15.5213 96.3899 16.3644 96.8028 17.3537C97.2157 18.3431 97.4136 19.4443 97.4136 20.6659C97.4136 21.8875 97.2071 22.9887 96.8028 23.978C96.3985 24.9674 95.8221 25.8105 95.0908 26.5073C94.3596 27.2041 93.4906 27.7375 92.4927 28.1075C91.4862 28.4774 90.3936 28.6667 89.1978 28.6667C88.002 28.6667 86.9094 28.4774 85.9114 28.1075C84.9049 27.7375 84.036 27.2041 83.3047 26.5073C82.5735 25.8105 82.0057 24.9674 81.5927 23.978C81.1798 22.9887 80.9819 21.8875 80.9819 20.6659ZM84.4661 20.6659C84.4661 21.3799 84.578 22.0424 84.8017 22.636C85.0253 23.2296 85.3436 23.7458 85.7566 24.1845C86.1695 24.6233 86.6685 24.9588 87.2535 25.2083C87.8299 25.4491 88.4837 25.5782 89.1978 25.5782C89.9118 25.5782 90.5656 25.4577 91.142 25.2083C91.7184 24.9674 92.2174 24.6233 92.639 24.1845C93.0519 23.7458 93.3702 23.2296 93.5939 22.636C93.8176 22.0424 93.9294 21.3885 93.9294 20.6659C93.9294 19.9432 93.8176 19.3152 93.5939 18.713C93.3702 18.1108 93.0519 17.5946 92.639 17.1559C92.226 16.7171 91.727 16.3816 91.142 16.1321C90.557 15.8912 89.9118 15.7622 89.1978 15.7622C88.4837 15.7622 87.8299 15.8826 87.2535 16.1321C86.6685 16.373 86.1781 16.7171 85.7566 17.1559C85.3436 17.5946 85.0253 18.1108 84.8017 18.713C84.578 19.3152 84.4661 19.969 84.4661 20.6659Z" fill="#272B38"/>
<path d="M44.1078 10.3269H42.7095V9.67837H42.6892C42.6284 9.76619 42.5474 9.85738 42.4461 9.95195C42.3515 10.0398 42.2367 10.1208 42.1016 10.1951C41.9732 10.2694 41.828 10.3302 41.6659 10.3775C41.5105 10.4248 41.3484 10.4484 41.1795 10.4484C40.8147 10.4484 40.4837 10.3877 40.1865 10.2661C39.8893 10.1377 39.6326 9.96208 39.4164 9.73917C39.207 9.5095 39.0449 9.2393 38.9301 8.92857C38.8152 8.61783 38.7578 8.27671 38.7578 7.90518C38.7578 7.56067 38.8085 7.23305 38.9098 6.92232C39.0179 6.60484 39.1665 6.3245 39.3556 6.08132C39.5515 5.83814 39.788 5.64562 40.0649 5.50377C40.3419 5.35516 40.656 5.28085 41.0072 5.28085C41.3247 5.28085 41.6186 5.33151 41.8888 5.43284C42.1657 5.52741 42.392 5.69291 42.5676 5.92933H42.5879V2.66666H44.1078V10.3269ZM42.7095 7.86465C42.7095 7.49312 42.6014 7.19252 42.3853 6.96285C42.1759 6.73318 41.8786 6.61835 41.4936 6.61835C41.1086 6.61835 40.808 6.73318 40.5918 6.96285C40.3824 7.19252 40.2777 7.49312 40.2777 7.86465C40.2777 8.23617 40.3824 8.53677 40.5918 8.76644C40.808 8.99612 41.1086 9.11095 41.4936 9.11095C41.8786 9.11095 42.1759 8.99612 42.3853 8.76644C42.6014 8.53677 42.7095 8.23617 42.7095 7.86465Z" fill="#272B38"/>
<path d="M49.9835 9.47572C49.7403 9.78645 49.4329 10.0263 49.0614 10.1951C48.6899 10.364 48.3049 10.4484 47.9063 10.4484C47.528 10.4484 47.17 10.3877 46.8323 10.2661C46.5013 10.1445 46.2108 9.97222 45.9609 9.7493C45.7177 9.51963 45.5252 9.24605 45.3833 8.92857C45.2414 8.61108 45.1705 8.25644 45.1705 7.86465C45.1705 7.47286 45.2414 7.11822 45.3833 6.80073C45.5252 6.48325 45.7177 6.21304 45.9609 5.99013C46.2108 5.76046 46.5013 5.58483 46.8323 5.46324C47.17 5.34165 47.528 5.28085 47.9063 5.28085C48.2576 5.28085 48.5751 5.34165 48.8588 5.46324C49.1492 5.58483 49.3924 5.76046 49.5883 5.99013C49.791 6.21304 49.9463 6.48325 50.0544 6.80073C50.1625 7.11822 50.2165 7.47286 50.2165 7.86465V8.34088H46.6904C46.7512 8.63134 46.8829 8.86439 47.0856 9.04002C47.2882 9.2089 47.5382 9.29334 47.8354 9.29334C48.0853 9.29334 48.2947 9.2393 48.4636 9.13122C48.6392 9.01638 48.7912 8.87115 48.9196 8.69552L49.9835 9.47572ZM48.6966 7.30736C48.7034 7.05067 48.619 6.83113 48.4433 6.64874C48.2677 6.46636 48.0414 6.37517 47.7645 6.37517C47.5956 6.37517 47.447 6.40219 47.3186 6.45623C47.1903 6.51027 47.0788 6.58119 46.9842 6.66901C46.8964 6.75007 46.8255 6.84802 46.7715 6.96285C46.7242 7.07093 46.6972 7.18577 46.6904 7.30736H48.6966Z" fill="#272B38"/>
<path d="M54.4744 6.99325C54.4001 6.88517 54.2954 6.79735 54.1603 6.7298C54.0252 6.6555 53.88 6.61835 53.7246 6.61835C53.3396 6.61835 53.039 6.73318 52.8228 6.96285C52.6134 7.19252 52.5087 7.49312 52.5087 7.86465C52.5087 8.23617 52.6134 8.53677 52.8228 8.76644C53.039 8.99612 53.3396 9.11095 53.7246 9.11095C53.8935 9.11095 54.0387 9.0738 54.1603 8.99949C54.2819 8.92519 54.3866 8.83737 54.4744 8.73605L55.4775 9.78983C55.2411 10.033 54.9608 10.2053 54.6365 10.3066C54.319 10.4012 54.0151 10.4484 53.7246 10.4484C53.3463 10.4484 52.9883 10.3877 52.6506 10.2661C52.3196 10.1445 52.0291 9.97222 51.7792 9.7493C51.536 9.51963 51.3435 9.24605 51.2016 8.92857C51.0597 8.61108 50.9888 8.25644 50.9888 7.86465C50.9888 7.47286 51.0597 7.11822 51.2016 6.80073C51.3435 6.48325 51.536 6.21304 51.7792 5.99013C52.0291 5.76046 52.3196 5.58483 52.6506 5.46324C52.9883 5.34165 53.3463 5.28085 53.7246 5.28085C54.0151 5.28085 54.319 5.33151 54.6365 5.43284C54.9608 5.52741 55.2411 5.69629 55.4775 5.93947L54.4744 6.99325Z" fill="#272B38"/>
<path d="M60.6899 9.47572C60.4467 9.78645 60.1394 10.0263 59.7679 10.1951C59.3963 10.364 59.0113 10.4484 58.6128 10.4484C58.2345 10.4484 57.8765 10.3877 57.5387 10.2661C57.2077 10.1445 56.9172 9.97222 56.6673 9.7493C56.4241 9.51963 56.2316 9.24605 56.0898 8.92857C55.9479 8.61108 55.877 8.25644 55.877 7.86465C55.877 7.47286 55.9479 7.11822 56.0898 6.80073C56.2316 6.48325 56.4241 6.21304 56.6673 5.99013C56.9172 5.76046 57.2077 5.58483 57.5387 5.46324C57.8765 5.34165 58.2345 5.28085 58.6128 5.28085C58.964 5.28085 59.2815 5.34165 59.5652 5.46324C59.8557 5.58483 60.0989 5.76046 60.2948 5.99013C60.4974 6.21304 60.6528 6.48325 60.7609 6.80073C60.8689 7.11822 60.923 7.47286 60.923 7.86465V8.34088H57.3969C57.4577 8.63134 57.5894 8.86439 57.792 9.04002C57.9947 9.2089 58.2446 9.29334 58.5418 9.29334C58.7918 9.29334 59.0012 9.2393 59.17 9.13122C59.3457 9.01638 59.4977 8.87115 59.626 8.69552L60.6899 9.47572ZM59.4031 7.30736C59.4099 7.05067 59.3254 6.83113 59.1498 6.64874C58.9742 6.46636 58.7479 6.37517 58.4709 6.37517C58.302 6.37517 58.1534 6.40219 58.0251 6.45623C57.8967 6.51027 57.7853 6.58119 57.6907 6.66901C57.6029 6.75007 57.532 6.84802 57.4779 6.96285C57.4306 7.07093 57.4036 7.18577 57.3969 7.30736H59.4031Z" fill="#272B38"/>
<path d="M65.2011 6.61835H63.8636V8.25982C63.8636 8.39492 63.8704 8.51989 63.8839 8.63472C63.8974 8.7428 63.9278 8.83737 63.9751 8.91843C64.0224 8.99949 64.0933 9.06367 64.1879 9.11095C64.2892 9.15148 64.4209 9.17175 64.583 9.17175C64.6641 9.17175 64.7688 9.16499 64.8971 9.15148C65.0322 9.13122 65.1336 9.09069 65.2011 9.02989V10.2965C65.0322 10.3573 64.8566 10.3978 64.6742 10.418C64.4918 10.4383 64.3128 10.4484 64.1372 10.4484C63.8805 10.4484 63.6441 10.4214 63.4279 10.3674C63.2118 10.3133 63.0226 10.2289 62.8605 10.1141C62.6984 9.99248 62.57 9.83712 62.4755 9.64798C62.3877 9.45883 62.3438 9.22916 62.3438 8.95896V6.61835H61.371V5.40244H62.3438V3.94336H63.8636V5.40244H65.2011V6.61835Z" fill="#272B38"/>
<path d="M65.9735 5.40244H67.4934V6.19278H67.5136C67.6758 5.8888 67.8683 5.66251 68.0912 5.5139C68.3141 5.35853 68.5944 5.28085 68.9322 5.28085C69.02 5.28085 69.1078 5.28423 69.1956 5.29098C69.2835 5.29774 69.3645 5.31125 69.4388 5.33151V6.71967C69.3307 6.6859 69.2227 6.66225 69.1146 6.64874C69.0133 6.62848 68.9052 6.61835 68.7903 6.61835C68.4999 6.61835 68.2702 6.65888 68.1013 6.73994C67.9325 6.821 67.8007 6.93583 67.7062 7.08444C67.6183 7.2263 67.5609 7.39855 67.5339 7.6012C67.5069 7.80385 67.4934 8.02677 67.4934 8.26995V10.3269H65.9735V5.40244Z" fill="#272B38"/>
<path d="M73.1902 9.70877H73.1699C73.001 9.97222 72.7747 10.1614 72.491 10.2762C72.2141 10.391 71.9202 10.4484 71.6095 10.4484C71.3798 10.4484 71.1569 10.4147 70.9407 10.3471C70.7313 10.2863 70.5456 10.1918 70.3834 10.0634C70.2213 9.93506 70.093 9.77632 69.9984 9.58718C69.9038 9.39804 69.8566 9.1785 69.8566 8.92857C69.8566 8.64485 69.9072 8.40505 70.0085 8.20916C70.1166 8.01326 70.2585 7.85114 70.4341 7.72279C70.6165 7.59445 70.8225 7.4965 71.0522 7.42895C71.2819 7.35464 71.5183 7.3006 71.7615 7.26683C72.0114 7.23305 72.258 7.21279 72.5011 7.20603C72.7511 7.19928 72.9808 7.1959 73.1902 7.1959C73.1902 6.9257 73.0922 6.71292 72.8963 6.55755C72.7072 6.39543 72.4809 6.31437 72.2174 6.31437C71.9675 6.31437 71.7378 6.36841 71.5284 6.47649C71.3258 6.57782 71.1434 6.71967 70.9813 6.90206L70.1707 6.07119C70.4544 5.80774 70.7854 5.61185 71.1636 5.4835C71.5419 5.3484 71.9337 5.28085 72.339 5.28085C72.7849 5.28085 73.1496 5.33827 73.4333 5.4531C73.7238 5.56118 73.9535 5.72331 74.1224 5.93947C74.298 6.15563 74.4196 6.42245 74.4871 6.73994C74.5547 7.05067 74.5884 7.41206 74.5884 7.82412V10.3269H73.1902V9.70877ZM72.8153 8.16862C72.7004 8.16862 72.5552 8.17538 72.3796 8.18889C72.2107 8.19564 72.0452 8.22267 71.8831 8.26995C71.7277 8.31724 71.5926 8.38816 71.4778 8.48273C71.3697 8.5773 71.3156 8.70903 71.3156 8.8779C71.3156 9.06029 71.3933 9.19539 71.5487 9.2832C71.7041 9.37102 71.8662 9.41493 72.035 9.41493C72.1837 9.41493 72.3255 9.39466 72.4606 9.35413C72.6025 9.3136 72.7274 9.25618 72.8355 9.18188C72.9436 9.10757 73.028 9.013 73.0888 8.89817C73.1564 8.78333 73.1902 8.64823 73.1902 8.49287V8.16862H72.8153Z" fill="#272B38"/>
<path d="M75.5623 2.66666H77.0822V10.3269H75.5623V2.66666Z" fill="#272B38"/>
<path d="M78.1944 5.40244H79.7142V10.3269H78.1944V5.40244ZM78.0728 3.85216C78.0728 3.60898 78.1572 3.40295 78.3261 3.23408C78.5017 3.05845 78.7111 2.97063 78.9543 2.97063C79.1975 2.97063 79.4035 3.05845 79.5724 3.23408C79.748 3.40295 79.8358 3.60898 79.8358 3.85216C79.8358 4.09534 79.748 4.30475 79.5724 4.48038C79.4035 4.64926 79.1975 4.73369 78.9543 4.73369C78.7111 4.73369 78.5017 4.64926 78.3261 4.48038C78.1572 4.30475 78.0728 4.09534 78.0728 3.85216Z" fill="#272B38"/>
<path d="M80.6137 8.80697L83.1671 6.61835H80.6745V5.40244H84.9301V6.86153L82.2551 9.11095H84.9909V10.3269H80.6137V8.80697Z" fill="#272B38"/>
<path d="M90.5334 9.47572C90.2902 9.78645 89.9829 10.0263 89.6114 10.1951C89.2398 10.364 88.8548 10.4484 88.4563 10.4484C88.078 10.4484 87.72 10.3877 87.3822 10.2661C87.0512 10.1445 86.7607 9.97222 86.5108 9.7493C86.2676 9.51963 86.0751 9.24605 85.9332 8.92857C85.7914 8.61108 85.7205 8.25644 85.7205 7.86465C85.7205 7.47286 85.7914 7.11822 85.9332 6.80073C86.0751 6.48325 86.2676 6.21304 86.5108 5.99013C86.7607 5.76046 87.0512 5.58483 87.3822 5.46324C87.72 5.34165 88.078 5.28085 88.4563 5.28085C88.8075 5.28085 89.125 5.34165 89.4087 5.46324C89.6992 5.58483 89.9424 5.76046 90.1383 5.99013C90.3409 6.21304 90.4963 6.48325 90.6043 6.80073C90.7124 7.11822 90.7665 7.47286 90.7665 7.86465V8.34088H87.2403C87.3011 8.63134 87.4329 8.86439 87.6355 9.04002C87.8382 9.2089 88.0881 9.29334 88.3853 9.29334C88.6353 9.29334 88.8447 9.2393 89.0135 9.13122C89.1892 9.01638 89.3412 8.87115 89.4695 8.69552L90.5334 9.47572ZM89.2466 7.30736C89.2533 7.05067 89.1689 6.83113 88.9933 6.64874C88.8176 6.46636 88.5914 6.37517 88.3144 6.37517C88.1455 6.37517 87.9969 6.40219 87.8686 6.45623C87.7402 6.51027 87.6288 6.58119 87.5342 6.66901C87.4464 6.75007 87.3754 6.84802 87.3214 6.96285C87.2741 7.07093 87.2471 7.18577 87.2403 7.30736H89.2466Z" fill="#272B38"/>
<path d="M96.8583 10.3269H95.4601V9.67837H95.4398C95.379 9.76619 95.2979 9.85738 95.1966 9.95195C95.102 10.0398 94.9872 10.1208 94.8521 10.1951C94.7238 10.2694 94.5785 10.3302 94.4164 10.3775C94.261 10.4248 94.0989 10.4484 93.93 10.4484C93.5653 10.4484 93.2343 10.3877 92.9371 10.2661C92.6398 10.1377 92.3831 9.96208 92.167 9.73917C91.9576 9.5095 91.7955 9.2393 91.6806 8.92857C91.5658 8.61783 91.5084 8.27671 91.5084 7.90518C91.5084 7.56067 91.559 7.23305 91.6603 6.92232C91.7684 6.60484 91.917 6.3245 92.1062 6.08132C92.3021 5.83814 92.5385 5.64562 92.8155 5.50377C93.0924 5.35516 93.4065 5.28085 93.7578 5.28085C94.0753 5.28085 94.3691 5.33151 94.6393 5.43284C94.9163 5.52741 95.1426 5.69291 95.3182 5.92933H95.3385V2.66666H96.8583V10.3269ZM95.4601 7.86465C95.4601 7.49312 95.352 7.19252 95.1358 6.96285C94.9264 6.73318 94.6292 6.61835 94.2441 6.61835C93.8591 6.61835 93.5585 6.73318 93.3423 6.96285C93.1329 7.19252 93.0282 7.49312 93.0282 7.86465C93.0282 8.23617 93.1329 8.53677 93.3423 8.76644C93.5585 8.99612 93.8591 9.11095 94.2441 9.11095C94.6292 9.11095 94.9264 8.99612 95.1358 8.76644C95.352 8.53677 95.4601 8.23617 95.4601 7.86465Z" fill="#272B38"/>
<defs>
<linearGradient id="paint0_linear_4487_19003" x1="16.207" y1="32" x2="16.207" y2="0" gradientUnits="userSpaceOnUse">
<stop stop-color="#424756"/>
<stop offset="0.31" stop-color="#505565"/>
<stop offset="0.42" stop-color="#5F6475"/>
<stop offset="0.61" stop-color="#747A8B"/>
<stop offset="0.73" stop-color="#7C8394"/>
<stop offset="0.88" stop-color="#757C8C"/>
<stop offset="1" stop-color="#6E7484"/>
</linearGradient>
<radialGradient id="paint1_radial_4487_19003" cx="0" cy="0" r="1" gradientUnits="userSpaceOnUse" gradientTransform="translate(16.207 16) rotate(90) scale(16)">
<stop offset="0.80207" stop-color="#272B38" stop-opacity="0"/>
<stop offset="0.848055" stop-color="#272B38" stop-opacity="0.0421641"/>
<stop offset="0.882811" stop-color="#272B38" stop-opacity="0.0948692"/>
<stop offset="0.913817" stop-color="#272B38" stop-opacity="0.15"/>
<stop offset="0.957038" stop-color="#272B38" stop-opacity="0.34"/>
</radialGradient>
<linearGradient id="paint2_linear_4487_19003" x1="16.207" y1="32" x2="16.207" y2="0" gradientUnits="userSpaceOnUse">
<stop stop-color="#6D6E7C"/>
<stop offset="0.17" stop-color="#7A7C8A"/>
<stop offset="0.51" stop-color="#9EA2B1"/>
<stop offset="0.67" stop-color="#B3B8C7"/>
</linearGradient>
<linearGradient id="paint3_linear_4487_19003" x1="15.207" y1="8" x2="15.207" y2="23.8333" gradientUnits="userSpaceOnUse">
<stop offset="0.4" stop-color="white"/>
<stop offset="0.54" stop-color="#EAEAEC"/>
<stop offset="0.84" stop-color="#C4C6CB"/>
<stop offset="0.99" stop-color="#B6B8BF"/>
</linearGradient>
<linearGradient id="paint4_linear_4487_19003" x1="15.207" y1="8" x2="15.207" y2="23.8333" gradientUnits="userSpaceOnUse">
<stop offset="0.4" stop-color="white"/>
<stop offset="0.54" stop-color="#EAEAEC"/>
<stop offset="0.84" stop-color="#C4C6CB"/>
<stop offset="0.99" stop-color="#B6B8BF"/>
</linearGradient>
<linearGradient id="paint5_linear_4487_19003" x1="15.207" y1="8" x2="15.207" y2="23.8333" gradientUnits="userSpaceOnUse">
<stop offset="0.4" stop-color="white"/>
<stop offset="0.54" stop-color="#EAEAEC"/>
<stop offset="0.84" stop-color="#C4C6CB"/>
<stop offset="0.99" stop-color="#B6B8BF"/>
</linearGradient>
<linearGradient id="paint6_linear_4487_19003" x1="15.207" y1="8" x2="15.207" y2="23.8333" gradientUnits="userSpaceOnUse">
<stop offset="0.4" stop-color="white"/>
<stop offset="0.54" stop-color="#EAEAEC"/>
<stop offset="0.84" stop-color="#C4C6CB"/>
<stop offset="0.99" stop-color="#B6B8BF"/>
</linearGradient>
<linearGradient id="paint7_linear_4487_19003" x1="15.207" y1="8" x2="15.207" y2="23.8333" gradientUnits="userSpaceOnUse">
<stop offset="0.4" stop-color="white"/>
<stop offset="0.54" stop-color="#EAEAEC"/>
<stop offset="0.84" stop-color="#C4C6CB"/>
<stop offset="0.99" stop-color="#B6B8BF"/>
</linearGradient>
<linearGradient id="paint8_linear_4487_19003" x1="15.207" y1="8" x2="15.207" y2="23.8333" gradientUnits="userSpaceOnUse">
<stop offset="0.4" stop-color="white"/>
<stop offset="0.54" stop-color="#EAEAEC"/>
<stop offset="0.84" stop-color="#C4C6CB"/>
<stop offset="0.99" stop-color="#B6B8BF"/>
</linearGradient>
<linearGradient id="paint9_linear_4487_19003" x1="15.207" y1="8" x2="15.207" y2="23.8333" gradientUnits="userSpaceOnUse">
<stop offset="0.4" stop-color="white"/>
<stop offset="0.54" stop-color="#EAEAEC"/>
<stop offset="0.84" stop-color="#C4C6CB"/>
<stop offset="0.99" stop-color="#B6B8BF"/>
</linearGradient>
<linearGradient id="paint10_linear_4487_19003" x1="15.207" y1="8" x2="15.207" y2="23.8333" gradientUnits="userSpaceOnUse">
<stop offset="0.4" stop-color="white"/>
<stop offset="0.54" stop-color="#EAEAEC"/>
<stop offset="0.84" stop-color="#C4C6CB"/>
<stop offset="0.99" stop-color="#B6B8BF"/>
</linearGradient>
<linearGradient id="paint11_linear_4487_19003" x1="15.207" y1="8" x2="15.207" y2="23.8333" gradientUnits="userSpaceOnUse">
<stop offset="0.4" stop-color="white"/>
<stop offset="0.54" stop-color="#EAEAEC"/>
<stop offset="0.84" stop-color="#C4C6CB"/>
<stop offset="0.99" stop-color="#B6B8BF"/>
</linearGradient>
<clipPath id="clip0_4487_19003">
<rect width="32" height="32" fill="white" transform="translate(0.207031)"/>
</clipPath>
</defs>
</svg>
