<svg width="98" height="32" viewBox="0 0 98 32" fill="none" xmlns="http://www.w3.org/2000/svg">
<g clip-path="url(#clip0_2790_7480)">
<path d="M16 32C24.8366 32 32 24.8366 32 16C32 7.16344 24.8366 0 16 0C7.16344 0 0 7.16344 0 16C0 24.8366 7.16344 32 16 32Z" fill="url(#paint0_linear_2790_7480)"/>
<path d="M16 32C24.8366 32 32 24.8366 32 16C32 7.16344 24.8366 0 16 0C7.16344 0 0 7.16344 0 16C0 24.8366 7.16344 32 16 32Z" fill="url(#paint1_radial_2790_7480)"/>
<path d="M16 1C24.27 1 31 7.73 31 16C31 24.27 24.27 31 16 31C7.73 31 1 24.27 1 16C1 7.73 7.73 1 16 1ZM16 0C7.16 0 0 7.16 0 16C0 24.84 7.16 32 16 32C24.84 32 32 24.84 32 16C32 7.16 24.84 0 16 0Z" fill="url(#paint2_linear_2790_7480)"/>
<path d="M20 26V24H12V26H20Z" fill="#272B38" fill-opacity="0.45"/>
<path d="M22 22H20V24H22V22Z" fill="#272B38" fill-opacity="0.45"/>
<path d="M12 22H10V24H12V22Z" fill="#272B38" fill-opacity="0.45"/>
<path d="M24 20H22V22H24V20Z" fill="#272B38" fill-opacity="0.45"/>
<path d="M24 12H22V14H24V12Z" fill="#272B38" fill-opacity="0.45"/>
<path d="M8 14H6V16H8V18H6V20H8V22H10V20H18V18H10V16H20V14H10V12H8V14Z" fill="#272B38" fill-opacity="0.45"/>
<path d="M22 10H20V12H22V10Z" fill="#272B38" fill-opacity="0.45"/>
<path d="M12 10H10V12H12V10Z" fill="#272B38" fill-opacity="0.45"/>
<path d="M12 8V10H20V8H12Z" fill="#272B38" fill-opacity="0.45"/>
<path d="M20 25V23H12V25H20Z" fill="url(#paint3_linear_2790_7480)"/>
<path d="M22 21H20V23H22V21Z" fill="url(#paint4_linear_2790_7480)"/>
<path d="M12 21H10V23H12V21Z" fill="url(#paint5_linear_2790_7480)"/>
<path d="M24 19H22V21H24V19Z" fill="url(#paint6_linear_2790_7480)"/>
<path d="M24 11H22V13H24V11Z" fill="url(#paint7_linear_2790_7480)"/>
<path d="M8 13H6V15H8V17H6V19H8V21H10V19H18V17H10V15H20V13H10V11H8V13Z" fill="url(#paint8_linear_2790_7480)"/>
<path d="M22 9H20V11H22V9Z" fill="url(#paint9_linear_2790_7480)"/>
<path d="M12 9H10V11H12V9Z" fill="url(#paint10_linear_2790_7480)"/>
<path d="M12 7V9H20V7H12Z" fill="url(#paint11_linear_2790_7480)"/>
</g>
<path d="M37.8857 13.2305H48.0891V16.2871H41.1957V19.0871H47.7057V22.1438H41.1957V25.2005H48.4724V28.2571H37.8857V13.2305Z" fill="#272B38"/>
<path d="M63.5658 22.4671C63.5658 23.3571 63.4292 24.1805 63.1592 24.9305C62.8858 25.6771 62.4892 26.3305 61.9625 26.8838C61.4358 27.4371 60.7725 27.8671 59.9758 28.1738C59.1858 28.4871 58.2692 28.6405 57.2325 28.6405C56.1958 28.6405 55.2625 28.4871 54.4725 28.1738C53.6825 27.8605 53.0192 27.4271 52.4858 26.8838C51.9525 26.3405 51.5525 25.6771 51.2892 24.9305C51.0192 24.1838 50.8825 23.3605 50.8825 22.4671V13.2305H54.1925V22.3305C54.1925 22.7971 54.2692 23.2305 54.4125 23.6305C54.5658 24.0305 54.7692 24.3705 55.0392 24.6571C55.3125 24.9471 55.6325 25.1738 56.0058 25.3371C56.3792 25.4971 56.7858 25.5838 57.2292 25.5838C57.6725 25.5838 58.0692 25.5005 58.4425 25.3371C58.8092 25.1771 59.1292 24.9471 59.3925 24.6571C59.6658 24.3671 59.8692 24.0205 60.0192 23.6305C60.1625 23.2305 60.2392 22.7971 60.2392 22.3305V13.2305H63.5492V22.4671H63.5658Z" fill="#272B38"/>
<path d="M66.4525 13.2305H72.2691C73.0325 13.2305 73.7558 13.3071 74.4425 13.4505C75.1291 13.6038 75.7325 13.8505 76.2425 14.1971C76.7591 14.5438 77.1691 15.0105 77.4725 15.5971C77.7791 16.1838 77.9325 16.9138 77.9325 17.7971C77.9325 18.8571 77.6525 19.7571 77.0991 20.5038C76.5458 21.2505 75.7391 21.7171 74.6791 21.9138L78.4991 28.2638H74.5358L71.3958 22.2605H69.7658V28.2638H66.4558V13.2305H66.4525ZM69.7625 19.4538H71.7158C72.0125 19.4538 72.3258 19.4438 72.6591 19.4205C72.9891 19.4038 73.2958 19.3371 73.5591 19.2338C73.8225 19.1305 74.0525 18.9605 74.2291 18.7338C74.4058 18.5038 74.4925 18.1905 74.4925 17.7838C74.4925 17.4005 74.4158 17.0971 74.2625 16.8738C74.1091 16.6438 73.9058 16.4738 73.6691 16.3571C73.4325 16.2371 73.1525 16.1538 72.8458 16.1105C72.5325 16.0671 72.2258 16.0505 71.9291 16.0505H69.7658V19.4638V19.4538H69.7625Z" fill="#272B38"/>
<path d="M79.5189 20.7437C79.5189 19.5371 79.7222 18.4504 80.1222 17.4737C80.5289 16.4971 81.0889 15.6671 81.8122 14.9771C82.5356 14.2871 83.3922 13.7637 84.3856 13.3971C85.3789 13.0304 86.4556 12.8438 87.6289 12.8438C88.8022 12.8438 89.8856 13.0304 90.8789 13.3971C91.8722 13.7637 92.7222 14.2871 93.4422 14.9771C94.1622 15.6638 94.7255 16.4971 95.1322 17.4737C95.5389 18.4504 95.7355 19.5371 95.7355 20.7437C95.7355 21.9504 95.5322 23.0371 95.1322 24.0138C94.7322 24.9904 94.1655 25.8204 93.4422 26.5104C92.7222 27.1971 91.8622 27.7237 90.8789 28.0904C89.8856 28.4571 88.8089 28.6437 87.6289 28.6437C86.4489 28.6437 85.3722 28.4571 84.3856 28.0904C83.3922 27.7237 82.5356 27.2004 81.8122 26.5104C81.0922 25.8237 80.5289 24.9904 80.1222 24.0138C79.7155 23.0371 79.5189 21.9504 79.5189 20.7437ZM82.9555 20.7437C82.9555 21.4471 83.0655 22.1004 83.2855 22.6871C83.5055 23.2737 83.8189 23.7837 84.2289 24.2137C84.6356 24.6471 85.1289 24.9771 85.7055 25.2237C86.2755 25.4604 86.9189 25.5904 87.6256 25.5904C88.3322 25.5904 88.9756 25.4704 89.5456 25.2237C90.1156 24.9871 90.6056 24.6471 91.0222 24.2137C91.4289 23.7804 91.7422 23.2704 91.9655 22.6871C92.1855 22.1004 92.2956 21.4571 92.2956 20.7437C92.2956 20.0304 92.1855 19.4104 91.9655 18.8171C91.7455 18.2238 91.4322 17.7138 91.0222 17.2804C90.6156 16.8471 90.1222 16.5171 89.5456 16.2704C88.9689 16.0338 88.3322 15.9037 87.6256 15.9037C86.9189 15.9037 86.2755 16.0238 85.7055 16.2704C85.1289 16.5071 84.6456 16.8471 84.2289 17.2804C83.8222 17.7138 83.5089 18.2238 83.2855 18.8171C83.0655 19.4104 82.9555 20.0571 82.9555 20.7437Z" fill="#272B38"/>
<path d="M42.5761 9.50659H41.3294V8.92659H41.3127C41.2594 9.00659 41.1861 9.08325 41.0994 9.16659C41.0127 9.24659 40.9094 9.32325 40.7927 9.38659C40.6761 9.45325 40.5461 9.50659 40.4027 9.54992C40.2627 9.59325 40.1161 9.61325 39.9661 9.61325C39.6394 9.61325 39.3461 9.55659 39.0794 9.44659C38.8127 9.33659 38.5861 9.17992 38.3961 8.97659C38.2061 8.77325 38.0594 8.53659 37.9561 8.25659C37.8527 7.97992 37.8027 7.67659 37.8027 7.34326C37.8027 7.03659 37.8494 6.74325 37.9427 6.46325C38.0361 6.18325 38.1694 5.93325 38.3394 5.71659C38.5127 5.49992 38.7194 5.32659 38.9661 5.19659C39.2127 5.06659 39.4927 5.00326 39.8061 5.00326C40.0894 5.00326 40.3527 5.04659 40.5961 5.13325C40.8394 5.21992 41.0394 5.36992 41.1961 5.57992H41.2127V2.66992H42.5694V9.50325L42.5761 9.50659ZM41.3294 7.30992C41.3294 6.97992 41.2361 6.70992 41.0461 6.50659C40.8561 6.30326 40.5894 6.19992 40.2461 6.19992C39.9027 6.19992 39.6361 6.30326 39.4461 6.50659C39.2561 6.71326 39.1627 6.97992 39.1627 7.30992C39.1627 7.63992 39.2561 7.90992 39.4461 8.11326C39.6361 8.31659 39.9027 8.41992 40.2461 8.41992C40.5894 8.41992 40.8561 8.31659 41.0461 8.11326C41.2361 7.90992 41.3294 7.63992 41.3294 7.30992Z" fill="black"/>
<path d="M47.5492 8.74659C47.3325 9.02325 47.0592 9.23659 46.7259 9.38992C46.3959 9.53992 46.0525 9.61659 45.6959 9.61659C45.3392 9.61659 45.0392 9.56326 44.7425 9.45326C44.4425 9.34326 44.1859 9.18992 43.9659 8.98659C43.7459 8.78325 43.5725 8.54326 43.4459 8.25992C43.3192 7.97659 43.2559 7.65992 43.2559 7.30992C43.2559 6.95992 43.3192 6.64326 43.4459 6.35992C43.5725 6.07659 43.7459 5.83326 43.9659 5.63326C44.1859 5.42992 44.4459 5.27659 44.7425 5.16659C45.0392 5.05659 45.3592 5.00326 45.6959 5.00326C46.0092 5.00326 46.2925 5.05659 46.5492 5.16659C46.8059 5.27659 47.0225 5.42992 47.1992 5.63326C47.3759 5.83659 47.5125 6.07659 47.6092 6.35992C47.7059 6.64326 47.7525 6.95992 47.7525 7.30992V7.73326H44.6059C44.6592 7.99326 44.7792 8.19992 44.9592 8.35325C45.1392 8.50659 45.3625 8.58326 45.6292 8.58326C45.8525 8.58326 46.0392 8.53325 46.1959 8.43325C46.3492 8.33325 46.4825 8.20659 46.5992 8.04992L47.5492 8.74659ZM46.4025 6.81326C46.4092 6.58326 46.3325 6.38992 46.1759 6.22659C46.0192 6.06326 45.8159 5.98326 45.5692 5.98326C45.4192 5.98326 45.2859 6.00659 45.1725 6.05659C45.0592 6.10326 44.9592 6.16659 44.8792 6.24326C44.7992 6.31992 44.7359 6.40659 44.6892 6.50659C44.6425 6.60659 44.6192 6.70992 44.6125 6.81992H46.4025V6.81326Z" fill="black"/>
<path d="M51.6093 6.53016C51.5427 6.43349 51.4493 6.35349 51.3293 6.29016C51.2093 6.22682 51.0794 6.19682 50.9394 6.19682C50.596 6.19682 50.3293 6.30016 50.1393 6.50349C49.9493 6.71016 49.856 6.97682 49.856 7.30682C49.856 7.63682 49.9493 7.90682 50.1393 8.11016C50.3293 8.31349 50.596 8.41682 50.9394 8.41682C51.0894 8.41682 51.2193 8.38349 51.3293 8.31682C51.4393 8.25016 51.5327 8.17349 51.6093 8.08016L52.5027 9.02016C52.2927 9.23682 52.0427 9.39016 51.756 9.47682C51.4693 9.56349 51.196 9.60682 50.9394 9.60682C50.6027 9.60682 50.2827 9.55349 49.986 9.44349C49.686 9.33349 49.4293 9.18016 49.2093 8.97682C48.9893 8.77349 48.816 8.53349 48.6894 8.25016C48.5627 7.96682 48.4993 7.65016 48.4993 7.30016C48.4993 6.95016 48.5627 6.63349 48.6894 6.35016C48.816 6.06682 48.9893 5.82349 49.2093 5.62349C49.4293 5.42016 49.6893 5.26682 49.986 5.15682C50.2827 5.04682 50.6027 4.99349 50.9394 4.99349C51.1994 4.99349 51.4727 5.03682 51.756 5.12349C52.0427 5.21016 52.2893 5.36349 52.5027 5.58016L51.6093 6.52016V6.53016Z" fill="black"/>
<path d="M57.016 8.74659C56.7993 9.02325 56.526 9.23659 56.1927 9.38992C55.8627 9.53992 55.5193 9.61659 55.1627 9.61659C54.806 9.61659 54.506 9.56326 54.2093 9.45326C53.9093 9.34326 53.6527 9.18992 53.4327 8.98659C53.2127 8.78325 53.0393 8.54326 52.9127 8.25992C52.786 7.97659 52.7227 7.65992 52.7227 7.30992C52.7227 6.95992 52.786 6.64326 52.9127 6.35992C53.0393 6.07659 53.2127 5.83326 53.4327 5.63326C53.6527 5.42992 53.9127 5.27659 54.2093 5.16659C54.506 5.05659 54.826 5.00326 55.1627 5.00326C55.476 5.00326 55.7593 5.05659 56.016 5.16659C56.2727 5.27659 56.4893 5.42992 56.666 5.63326C56.8427 5.83659 56.9793 6.07659 57.076 6.35992C57.1727 6.64326 57.2193 6.95992 57.2193 7.30992V7.73326H54.0727C54.126 7.99326 54.246 8.19992 54.426 8.35325C54.606 8.50659 54.8293 8.58326 55.096 8.58326C55.3193 8.58326 55.506 8.53325 55.6627 8.43325C55.816 8.33325 55.9493 8.20659 56.066 8.04992L57.016 8.74659ZM55.866 6.81326C55.8727 6.58326 55.796 6.38992 55.6393 6.22659C55.4827 6.06326 55.2793 5.98326 55.0327 5.98326C54.8827 5.98326 54.7493 6.00659 54.636 6.05659C54.5227 6.10326 54.4227 6.16659 54.3427 6.24326C54.2627 6.31992 54.1993 6.40659 54.1527 6.50659C54.106 6.60659 54.0827 6.70992 54.076 6.81992H55.866V6.81326Z" fill="black"/>
<path d="M58.0459 5.11326H59.3492V5.70992H59.3659C59.4092 5.62659 59.4692 5.53992 59.5459 5.45659C59.6226 5.37326 59.7192 5.29659 59.8259 5.22992C59.9359 5.16326 60.0592 5.10992 60.1959 5.06659C60.3326 5.02326 60.4859 5.00326 60.6492 5.00326C60.9926 5.00326 61.2692 5.05659 61.4826 5.15992C61.6926 5.26659 61.8592 5.41326 61.9759 5.59992C62.0926 5.78659 62.1726 6.00659 62.2159 6.25992C62.2592 6.51326 62.2792 6.78659 62.2792 7.08326V9.50659H60.9226V7.35326C60.9226 7.22659 60.9192 7.09659 60.9092 6.95992C60.8992 6.82326 60.8726 6.69992 60.8292 6.58326C60.7826 6.46992 60.7159 6.37659 60.6226 6.30326C60.5292 6.22992 60.3959 6.19326 60.2192 6.19326C60.0426 6.19326 59.9026 6.22326 59.7926 6.28659C59.6859 6.34992 59.6026 6.43326 59.5426 6.53992C59.4859 6.64659 59.4492 6.76326 59.4292 6.89659C59.4126 7.02992 59.4026 7.16659 59.4026 7.31326V9.49992H58.0459V5.10659V5.11326Z" fill="black"/>
<path d="M66.2261 6.19656H65.0328V7.6599C65.0328 7.7799 65.0395 7.8899 65.0495 7.9899C65.0628 8.0899 65.0895 8.17656 65.1295 8.24656C65.1728 8.3199 65.2361 8.37323 65.3228 8.41323C65.4095 8.45323 65.5261 8.47323 65.6695 8.47323C65.7428 8.47323 65.8361 8.46656 65.9528 8.4499C66.0695 8.43656 66.1595 8.3999 66.2195 8.34656V9.47656C66.0695 9.5299 65.9128 9.56656 65.7495 9.58656C65.5861 9.60323 65.4261 9.61323 65.2695 9.61323C65.0395 9.61323 64.8295 9.5899 64.6361 9.5399C64.4428 9.49323 64.2761 9.41656 64.1295 9.3099C63.9861 9.20323 63.8728 9.06656 63.7895 8.8999C63.7095 8.7299 63.6661 8.52656 63.6661 8.28656V6.19656H62.7995V5.11323H63.6661V3.8099H65.0228V5.11323H66.2161V6.19656H66.2261Z" fill="black"/>
<path d="M66.9128 5.11318H68.2694V5.81984H68.2861C68.4294 5.54984 68.6028 5.34651 68.8028 5.20984C69.0028 5.07318 69.2528 5.00651 69.5528 5.00651C69.6294 5.00651 69.7094 5.00651 69.7861 5.01651C69.8661 5.02318 69.9361 5.03318 70.0028 5.05318V6.29318C69.9061 6.26318 69.8128 6.23984 69.7194 6.22651C69.6261 6.21318 69.5294 6.20318 69.4261 6.20318C69.1661 6.20318 68.9628 6.23984 68.8128 6.31318C68.6628 6.38651 68.5461 6.48651 68.4661 6.61651C68.3861 6.74651 68.3328 6.89984 68.3094 7.08318C68.2861 7.26651 68.2728 7.46318 68.2728 7.67984V9.51651H66.9161V5.12318L66.9128 5.11318Z" fill="black"/>
<path d="M73.3526 8.95326H73.3359C73.1859 9.18992 72.9859 9.35659 72.7359 9.45992C72.4859 9.56326 72.2226 9.61326 71.9459 9.61326C71.7392 9.61326 71.5426 9.58326 71.3526 9.52659C71.1626 9.46992 70.9959 9.38326 70.8492 9.26992C70.7059 9.15659 70.5892 9.01326 70.5059 8.84659C70.4226 8.67659 70.3792 8.48326 70.3792 8.25992C70.3792 8.00659 70.4259 7.79326 70.5192 7.61659C70.6126 7.44326 70.7392 7.29659 70.8992 7.18326C71.0592 7.06992 71.2426 6.97992 71.4459 6.91659C71.6526 6.85326 71.8626 6.80659 72.0826 6.77659C72.3026 6.74659 72.5226 6.72992 72.7426 6.72326C72.9626 6.71659 73.1659 6.71325 73.3526 6.71325C73.3526 6.47325 73.2659 6.27992 73.0959 6.13992C72.9226 5.99992 72.7192 5.92659 72.4859 5.92659C72.2626 5.92659 72.0592 5.97326 71.8759 6.06659C71.6926 6.15992 71.5292 6.28659 71.3826 6.44992L70.6592 5.70992C70.9126 5.47325 71.2092 5.29992 71.5459 5.17992C71.8826 5.06326 72.2326 5.00326 72.5959 5.00326C72.9926 5.00326 73.3192 5.05326 73.5759 5.15326C73.8326 5.25326 74.0359 5.39992 74.1892 5.59326C74.3426 5.78659 74.4492 6.02326 74.5092 6.30326C74.5692 6.58326 74.5992 6.90659 74.5992 7.27659V9.50992H73.3526V8.95326ZM73.0159 7.57992C72.9126 7.57992 72.7859 7.58326 72.6326 7.59326C72.4792 7.60326 72.3326 7.62659 72.1892 7.66992C72.0492 7.71326 71.9259 7.77659 71.8292 7.85992C71.7292 7.94326 71.6792 8.06326 71.6792 8.21326C71.6792 8.37659 71.7492 8.49659 71.8859 8.57326C72.0259 8.65326 72.1692 8.68992 72.3192 8.68992C72.4526 8.68992 72.5792 8.67326 72.7026 8.63659C72.8259 8.59992 72.9359 8.54992 73.0326 8.48326C73.1292 8.41659 73.2059 8.33326 73.2626 8.22992C73.3192 8.12659 73.3492 8.00659 73.3492 7.86992V7.57992H73.0159Z" fill="black"/>
<path d="M75.4661 2.66992H76.8228V9.50326H75.4661V2.66992Z" fill="black"/>
<path d="M77.7093 3.73003C77.7093 3.51336 77.786 3.32669 77.9393 3.17336C78.0926 3.02003 78.2793 2.94336 78.496 2.94336C78.7126 2.94336 78.8993 3.02003 79.0526 3.17336C79.206 3.32669 79.2826 3.51336 79.2826 3.73003C79.2826 3.94669 79.206 4.13336 79.0526 4.28669C78.8993 4.44003 78.7126 4.51669 78.496 4.51669C78.2793 4.51669 78.0926 4.44003 77.9393 4.28669C77.786 4.13336 77.7093 3.94669 77.7093 3.73003ZM77.816 5.11336H79.1726V9.50669H77.816V5.11336Z" fill="black"/>
<path d="M79.9792 8.14995L82.2559 6.19661H80.0326V5.11328H83.8292V6.41661L81.4426 8.42328H83.8826V9.50661H79.9759V8.14995H79.9792Z" fill="black"/>
<path d="M88.8295 8.74659C88.6128 9.02325 88.3395 9.23659 88.0061 9.38992C87.6761 9.53992 87.3328 9.61659 86.9761 9.61659C86.6195 9.61659 86.3195 9.56326 86.0228 9.45326C85.7228 9.34326 85.4661 9.18992 85.2461 8.98659C85.0261 8.78325 84.8528 8.54326 84.7261 8.25992C84.5995 7.97659 84.5361 7.65992 84.5361 7.30992C84.5361 6.95992 84.5995 6.64326 84.7261 6.35992C84.8528 6.07659 85.0261 5.83326 85.2461 5.63326C85.4661 5.42992 85.7261 5.27659 86.0228 5.16659C86.3195 5.05659 86.6395 5.00326 86.9761 5.00326C87.2895 5.00326 87.5728 5.05659 87.8295 5.16659C88.0861 5.27659 88.3028 5.42992 88.4795 5.63326C88.6561 5.83659 88.7928 6.07659 88.8895 6.35992C88.9861 6.64326 89.0328 6.95992 89.0328 7.30992V7.73326H85.8861C85.9395 7.99326 86.0595 8.19992 86.2395 8.35325C86.4195 8.50659 86.6428 8.58326 86.9095 8.58326C87.1328 8.58326 87.3195 8.53325 87.4761 8.43325C87.6295 8.33325 87.7628 8.20659 87.8795 8.04992L88.8295 8.74659ZM87.6795 6.81326C87.6861 6.58326 87.6095 6.38992 87.4528 6.22659C87.2961 6.06326 87.0928 5.98326 86.8461 5.98326C86.6961 5.98326 86.5628 6.00659 86.4495 6.05659C86.3361 6.10326 86.2361 6.16659 86.1561 6.24326C86.0761 6.31992 86.0128 6.40659 85.9661 6.50659C85.9195 6.60659 85.8961 6.70992 85.8895 6.81992H87.6795V6.81326Z" fill="black"/>
<path d="M94.4693 9.50659H93.2226V8.92659H93.206C93.1526 9.00659 93.0793 9.08325 92.9926 9.16659C92.906 9.24659 92.8026 9.32325 92.686 9.38659C92.5693 9.45325 92.4393 9.50659 92.296 9.54992C92.156 9.59325 92.0093 9.61325 91.8593 9.61325C91.5326 9.61325 91.2393 9.55659 90.9726 9.44659C90.706 9.33659 90.4793 9.17992 90.2893 8.97659C90.0993 8.77325 89.9526 8.53659 89.8493 8.25659C89.746 7.97992 89.696 7.67659 89.696 7.34326C89.696 7.03659 89.7426 6.74325 89.836 6.46325C89.9293 6.18325 90.0626 5.93325 90.2326 5.71659C90.406 5.49992 90.6126 5.32659 90.8593 5.19659C91.106 5.06659 91.386 5.00326 91.6993 5.00326C91.9826 5.00326 92.246 5.04659 92.4893 5.13325C92.7326 5.21992 92.9326 5.36992 93.0893 5.57992H93.106V2.66992H94.4626V9.50325L94.4693 9.50659ZM93.2226 7.30992C93.2226 6.97992 93.1293 6.70992 92.9393 6.50659C92.7493 6.30326 92.4826 6.19992 92.1393 6.19992C91.796 6.19992 91.5293 6.30326 91.3393 6.50659C91.1493 6.71326 91.056 6.97992 91.056 7.30992C91.056 7.63992 91.1493 7.90992 91.3393 8.11326C91.5293 8.31659 91.796 8.41992 92.1393 8.41992C92.4826 8.41992 92.7493 8.31659 92.9393 8.11326C93.1293 7.90992 93.2226 7.63992 93.2226 7.30992Z" fill="black"/>
<defs>
<linearGradient id="paint0_linear_2790_7480" x1="16" y1="32" x2="16" y2="0" gradientUnits="userSpaceOnUse">
<stop stop-color="#424756"/>
<stop offset="0.31" stop-color="#505565"/>
<stop offset="0.42" stop-color="#5F6475"/>
<stop offset="0.61" stop-color="#747A8B"/>
<stop offset="0.73" stop-color="#7C8394"/>
<stop offset="0.88" stop-color="#757C8C"/>
<stop offset="1" stop-color="#6E7484"/>
</linearGradient>
<radialGradient id="paint1_radial_2790_7480" cx="0" cy="0" r="1" gradientUnits="userSpaceOnUse" gradientTransform="translate(16 16) rotate(90) scale(16)">
<stop offset="0.80207" stop-color="#272B38" stop-opacity="0"/>
<stop offset="0.848055" stop-color="#272B38" stop-opacity="0.0421641"/>
<stop offset="0.882811" stop-color="#272B38" stop-opacity="0.0948692"/>
<stop offset="0.913817" stop-color="#272B38" stop-opacity="0.15"/>
<stop offset="0.957038" stop-color="#272B38" stop-opacity="0.34"/>
</radialGradient>
<linearGradient id="paint2_linear_2790_7480" x1="16" y1="32" x2="16" y2="0" gradientUnits="userSpaceOnUse">
<stop stop-color="#6D6E7C"/>
<stop offset="0.17" stop-color="#7A7C8A"/>
<stop offset="0.51" stop-color="#9EA2B1"/>
<stop offset="0.67" stop-color="#B3B8C7"/>
</linearGradient>
<linearGradient id="paint3_linear_2790_7480" x1="15" y1="8" x2="15" y2="23.8333" gradientUnits="userSpaceOnUse">
<stop offset="0.4" stop-color="white"/>
<stop offset="0.54" stop-color="#EAEAEC"/>
<stop offset="0.84" stop-color="#C4C6CB"/>
<stop offset="0.99" stop-color="#B6B8BF"/>
</linearGradient>
<linearGradient id="paint4_linear_2790_7480" x1="15" y1="8" x2="15" y2="23.8333" gradientUnits="userSpaceOnUse">
<stop offset="0.4" stop-color="white"/>
<stop offset="0.54" stop-color="#EAEAEC"/>
<stop offset="0.84" stop-color="#C4C6CB"/>
<stop offset="0.99" stop-color="#B6B8BF"/>
</linearGradient>
<linearGradient id="paint5_linear_2790_7480" x1="15" y1="8" x2="15" y2="23.8333" gradientUnits="userSpaceOnUse">
<stop offset="0.4" stop-color="white"/>
<stop offset="0.54" stop-color="#EAEAEC"/>
<stop offset="0.84" stop-color="#C4C6CB"/>
<stop offset="0.99" stop-color="#B6B8BF"/>
</linearGradient>
<linearGradient id="paint6_linear_2790_7480" x1="15" y1="8" x2="15" y2="23.8333" gradientUnits="userSpaceOnUse">
<stop offset="0.4" stop-color="white"/>
<stop offset="0.54" stop-color="#EAEAEC"/>
<stop offset="0.84" stop-color="#C4C6CB"/>
<stop offset="0.99" stop-color="#B6B8BF"/>
</linearGradient>
<linearGradient id="paint7_linear_2790_7480" x1="15" y1="8" x2="15" y2="23.8333" gradientUnits="userSpaceOnUse">
<stop offset="0.4" stop-color="white"/>
<stop offset="0.54" stop-color="#EAEAEC"/>
<stop offset="0.84" stop-color="#C4C6CB"/>
<stop offset="0.99" stop-color="#B6B8BF"/>
</linearGradient>
<linearGradient id="paint8_linear_2790_7480" x1="15" y1="8" x2="15" y2="23.8333" gradientUnits="userSpaceOnUse">
<stop offset="0.4" stop-color="white"/>
<stop offset="0.54" stop-color="#EAEAEC"/>
<stop offset="0.84" stop-color="#C4C6CB"/>
<stop offset="0.99" stop-color="#B6B8BF"/>
</linearGradient>
<linearGradient id="paint9_linear_2790_7480" x1="15" y1="8" x2="15" y2="23.8333" gradientUnits="userSpaceOnUse">
<stop offset="0.4" stop-color="white"/>
<stop offset="0.54" stop-color="#EAEAEC"/>
<stop offset="0.84" stop-color="#C4C6CB"/>
<stop offset="0.99" stop-color="#B6B8BF"/>
</linearGradient>
<linearGradient id="paint10_linear_2790_7480" x1="15" y1="8" x2="15" y2="23.8333" gradientUnits="userSpaceOnUse">
<stop offset="0.4" stop-color="white"/>
<stop offset="0.54" stop-color="#EAEAEC"/>
<stop offset="0.84" stop-color="#C4C6CB"/>
<stop offset="0.99" stop-color="#B6B8BF"/>
</linearGradient>
<linearGradient id="paint11_linear_2790_7480" x1="15" y1="8" x2="15" y2="23.8333" gradientUnits="userSpaceOnUse">
<stop offset="0.4" stop-color="white"/>
<stop offset="0.54" stop-color="#EAEAEC"/>
<stop offset="0.84" stop-color="#C4C6CB"/>
<stop offset="0.99" stop-color="#B6B8BF"/>
</linearGradient>
<clipPath id="clip0_2790_7480">
<rect width="32" height="32" fill="white"/>
</clipPath>
</defs>
</svg>
