<svg width="48" height="48" viewBox="0 0 48 48" fill="none" xmlns="http://www.w3.org/2000/svg">
<g clip-path="url(#clip0_358_229)">
<g clip-path="url(#clip1_358_229)">
<path d="M21 42C32.598 42 42 32.598 42 21C42 9.40202 32.598 0 21 0C9.40202 0 0 9.40202 0 21C0 32.598 9.40202 42 21 42Z" fill="url(#paint0_linear_358_229)"/>
<path d="M21 42C32.598 42 42 32.598 42 21C42 9.40202 32.598 0 21 0C9.40202 0 0 9.40202 0 21C0 32.598 9.40202 42 21 42Z" fill="url(#paint1_radial_358_229)"/>
<path d="M21 1.3125C31.8544 1.3125 40.6875 10.1456 40.6875 21C40.6875 31.8544 31.8544 40.6875 21 40.6875C10.1456 40.6875 1.3125 31.8544 1.3125 21C1.3125 10.1456 10.1456 1.3125 21 1.3125ZM21 0C9.3975 0 0 9.3975 0 21C0 32.6025 9.3975 42 21 42C32.6025 42 42 32.6025 42 21C42 9.3975 32.6025 0 21 0Z" fill="url(#paint2_linear_358_229)"/>
<path d="M12.2938 32.55V34.125H29.6188V32.55H12.2938Z" fill="#272B38" fill-opacity="0.45"/>
<path d="M12.2938 26.25H10.7188V32.55H12.2938V26.25Z" fill="#272B38" fill-opacity="0.45"/>
<path d="M29.6188 32.55H31.1938V26.25H29.6188V32.55Z" fill="#272B38" fill-opacity="0.45"/>
<path d="M21.7438 21.525V19.95H23.3188V18.375H21.7438V15.225H20.1688V19.95H15.4438V21.525H20.1688V27.825H18.5938V29.4H17.0188V30.975H24.8938V29.4H23.3188V27.825H21.7438V23.1H28.0438V21.525H21.7438Z" fill="#272B38" fill-opacity="0.45"/>
<path d="M29.6188 19.95H28.0438V21.525L29.6188 21.525V19.95Z" fill="#272B38" fill-opacity="0.45"/>
<path d="M15.4438 18.375H13.8688V19.95H15.4438V18.375Z" fill="#272B38" fill-opacity="0.45"/>
<path d="M24.8938 16.8H23.3188V18.375H24.8938V16.8Z" fill="#272B38" fill-opacity="0.45"/>
<path d="M13.8688 16.8H12.2938V18.375H13.8688V16.8Z" fill="#272B38" fill-opacity="0.45"/>
<path d="M24.8938 15.225V16.8H29.6188L29.6188 19.95H31.1938V15.225H24.8938Z" fill="#272B38" fill-opacity="0.45"/>
<path d="M20.1687 13.65H18.5938V15.225H20.1688L20.1687 13.65Z" fill="#272B38" fill-opacity="0.45"/>
<path d="M12.2937 12.075H17.0188V10.5H10.7188V16.8H12.2938L12.2937 12.075Z" fill="#272B38" fill-opacity="0.45"/>
<path d="M18.5938 12.075H17.0188L17.0188 13.65H18.5938V12.075Z" fill="#272B38" fill-opacity="0.45"/>
<path d="M12.2938 31.2375V32.8125H29.6188V31.2375H12.2938Z" fill="url(#paint3_linear_358_229)"/>
<path d="M12.2938 24.9375H10.7188V31.2375H12.2938V24.9375Z" fill="url(#paint4_linear_358_229)"/>
<path d="M29.6188 31.2375H31.1938V24.9375H29.6188V31.2375Z" fill="url(#paint5_linear_358_229)"/>
<path d="M21.7438 20.2125V18.6375H23.3188V17.0625H21.7438V13.9125H20.1688V18.6375H15.4438V20.2125H20.1688V26.5125H18.5938V28.0875H17.0188V29.6625H24.8938V28.0875H23.3188V26.5125H21.7438V21.7875H28.0438V20.2125H21.7438Z" fill="url(#paint6_linear_358_229)"/>
<path d="M29.6188 18.6375H28.0438V20.2125L29.6188 20.2125V18.6375Z" fill="url(#paint7_linear_358_229)"/>
<path d="M15.4438 17.0625H13.8688V18.6375H15.4438V17.0625Z" fill="url(#paint8_linear_358_229)"/>
<path d="M24.8938 15.4875H23.3188V17.0625H24.8938V15.4875Z" fill="url(#paint9_linear_358_229)"/>
<path d="M13.8688 15.4875H12.2938V17.0625H13.8688V15.4875Z" fill="url(#paint10_linear_358_229)"/>
<path d="M24.8938 13.9125V15.4875H29.6188L29.6188 18.6375H31.1938V13.9125H24.8938Z" fill="url(#paint11_linear_358_229)"/>
<path d="M20.1687 12.3375H18.5938V13.9125H20.1688L20.1687 12.3375Z" fill="url(#paint12_linear_358_229)"/>
<path d="M12.2937 10.7625H17.0188V9.1875H10.7188V15.4875H12.2938L12.2937 10.7625Z" fill="url(#paint13_linear_358_229)"/>
<path d="M18.5938 10.7625H17.0188L17.0188 12.3375H18.5938V10.7625Z" fill="url(#paint14_linear_358_229)"/>
</g>
<path d="M40.8883 27.76C38.7951 33.9202 33.9202 38.7951 27.76 40.8883C27.5898 40.1193 27.5 39.3201 27.5 38.5C27.5 32.4249 32.4249 27.5 38.5 27.5C39.3201 27.5 40.1193 27.5898 40.8883 27.76Z" fill="white"/>
<ellipse cx="38.5" cy="38.5" rx="9.49999" ry="9.49999" fill="#8247E5"/>
<path d="M41.6237 36.4228C41.4017 36.2959 41.1163 36.2959 40.8626 36.4228L39.0866 37.4693L37.8815 38.1353L36.1372 39.1818C35.9153 39.3087 35.6298 39.3087 35.3761 39.1818L34.0124 38.3573C33.7904 38.2304 33.6319 37.9767 33.6319 37.6913V36.1056C33.6319 35.8519 33.7587 35.5982 34.0124 35.4396L35.3761 34.6468C35.5981 34.5199 35.8835 34.5199 36.1372 34.6468L37.5009 35.4713C37.7229 35.5982 37.8815 35.8519 37.8815 36.1373V37.1839L39.0866 36.4862V35.4079C39.0866 35.1542 38.9598 34.9005 38.7061 34.7419L36.169 33.2514C35.947 33.1245 35.6615 33.1245 35.4078 33.2514L32.8073 34.7736C32.5536 34.9005 32.4268 35.1542 32.4268 35.4079V38.389C32.4268 38.6427 32.5536 38.8964 32.8073 39.055L35.3761 40.5455C35.5981 40.6724 35.8835 40.6724 36.1372 40.5455L37.8815 39.5307L39.0866 38.833L40.8309 37.8182C41.0529 37.6913 41.3383 37.6913 41.592 37.8182L42.9557 38.611C43.1777 38.7378 43.3362 38.9916 43.3362 39.277V40.8627C43.3362 41.1164 43.2094 41.3701 42.9557 41.5286L41.6237 42.3215C41.4017 42.4483 41.1163 42.4483 40.8626 42.3215L39.4989 41.5286C39.2769 41.4018 39.1183 41.1481 39.1183 40.8627V39.8478L37.9132 40.5455V41.5921C37.9132 41.8458 38.0401 42.0995 38.2938 42.2581L40.8626 43.7486C41.0846 43.8755 41.37 43.8755 41.6237 43.7486L44.1925 42.2581C44.4145 42.1312 44.5731 41.8775 44.5731 41.5921V38.5793C44.5731 38.3256 44.4462 38.0719 44.1925 37.9133L41.6237 36.4228Z" fill="white"/>
</g>
<defs>
<linearGradient id="paint0_linear_358_229" x1="21" y1="42" x2="21" y2="0" gradientUnits="userSpaceOnUse">
<stop stop-color="#424756"/>
<stop offset="0.31" stop-color="#505565"/>
<stop offset="0.42" stop-color="#5F6475"/>
<stop offset="0.61" stop-color="#747A8B"/>
<stop offset="0.73" stop-color="#7C8394"/>
<stop offset="0.88" stop-color="#757C8C"/>
<stop offset="1" stop-color="#6E7484"/>
</linearGradient>
<radialGradient id="paint1_radial_358_229" cx="0" cy="0" r="1" gradientUnits="userSpaceOnUse" gradientTransform="translate(21 21) rotate(90) scale(21)">
<stop offset="0.80207" stop-color="#272B38" stop-opacity="0"/>
<stop offset="0.848055" stop-color="#272B38" stop-opacity="0.0421641"/>
<stop offset="0.882811" stop-color="#272B38" stop-opacity="0.0948692"/>
<stop offset="0.913817" stop-color="#272B38" stop-opacity="0.15"/>
<stop offset="0.957038" stop-color="#272B38" stop-opacity="0.34"/>
</radialGradient>
<linearGradient id="paint2_linear_358_229" x1="21" y1="42" x2="21" y2="0" gradientUnits="userSpaceOnUse">
<stop stop-color="#6D6E7C"/>
<stop offset="0.17" stop-color="#7A7C8A"/>
<stop offset="0.51" stop-color="#9EA2B1"/>
<stop offset="0.67" stop-color="#B3B8C7"/>
</linearGradient>
<linearGradient id="paint3_linear_358_229" x1="20.9563" y1="12.9675" x2="20.9563" y2="32.8125" gradientUnits="userSpaceOnUse">
<stop offset="0.4" stop-color="white"/>
<stop offset="0.675" stop-color="#EAEAEC"/>
<stop offset="0.865" stop-color="#C4C6CB"/>
<stop offset="0.99" stop-color="#B6B8BF"/>
</linearGradient>
<linearGradient id="paint4_linear_358_229" x1="20.9563" y1="12.9675" x2="20.9563" y2="32.8125" gradientUnits="userSpaceOnUse">
<stop offset="0.4" stop-color="white"/>
<stop offset="0.675" stop-color="#EAEAEC"/>
<stop offset="0.865" stop-color="#C4C6CB"/>
<stop offset="0.99" stop-color="#B6B8BF"/>
</linearGradient>
<linearGradient id="paint5_linear_358_229" x1="20.9563" y1="12.9675" x2="20.9563" y2="32.8125" gradientUnits="userSpaceOnUse">
<stop offset="0.4" stop-color="white"/>
<stop offset="0.675" stop-color="#EAEAEC"/>
<stop offset="0.865" stop-color="#C4C6CB"/>
<stop offset="0.99" stop-color="#B6B8BF"/>
</linearGradient>
<linearGradient id="paint6_linear_358_229" x1="20.9563" y1="12.9675" x2="20.9563" y2="32.8125" gradientUnits="userSpaceOnUse">
<stop offset="0.4" stop-color="white"/>
<stop offset="0.675" stop-color="#EAEAEC"/>
<stop offset="0.865" stop-color="#C4C6CB"/>
<stop offset="0.99" stop-color="#B6B8BF"/>
</linearGradient>
<linearGradient id="paint7_linear_358_229" x1="20.9563" y1="12.9675" x2="20.9563" y2="32.8125" gradientUnits="userSpaceOnUse">
<stop offset="0.4" stop-color="white"/>
<stop offset="0.675" stop-color="#EAEAEC"/>
<stop offset="0.865" stop-color="#C4C6CB"/>
<stop offset="0.99" stop-color="#B6B8BF"/>
</linearGradient>
<linearGradient id="paint8_linear_358_229" x1="20.9563" y1="12.9675" x2="20.9563" y2="32.8125" gradientUnits="userSpaceOnUse">
<stop offset="0.4" stop-color="white"/>
<stop offset="0.675" stop-color="#EAEAEC"/>
<stop offset="0.865" stop-color="#C4C6CB"/>
<stop offset="0.99" stop-color="#B6B8BF"/>
</linearGradient>
<linearGradient id="paint9_linear_358_229" x1="20.9563" y1="12.9675" x2="20.9563" y2="32.8125" gradientUnits="userSpaceOnUse">
<stop offset="0.4" stop-color="white"/>
<stop offset="0.675" stop-color="#EAEAEC"/>
<stop offset="0.865" stop-color="#C4C6CB"/>
<stop offset="0.99" stop-color="#B6B8BF"/>
</linearGradient>
<linearGradient id="paint10_linear_358_229" x1="20.9563" y1="12.9675" x2="20.9563" y2="32.8125" gradientUnits="userSpaceOnUse">
<stop offset="0.4" stop-color="white"/>
<stop offset="0.675" stop-color="#EAEAEC"/>
<stop offset="0.865" stop-color="#C4C6CB"/>
<stop offset="0.99" stop-color="#B6B8BF"/>
</linearGradient>
<linearGradient id="paint11_linear_358_229" x1="20.9563" y1="12.9675" x2="20.9563" y2="32.8125" gradientUnits="userSpaceOnUse">
<stop offset="0.4" stop-color="white"/>
<stop offset="0.675" stop-color="#EAEAEC"/>
<stop offset="0.865" stop-color="#C4C6CB"/>
<stop offset="0.99" stop-color="#B6B8BF"/>
</linearGradient>
<linearGradient id="paint12_linear_358_229" x1="20.9563" y1="12.9675" x2="20.9563" y2="32.8125" gradientUnits="userSpaceOnUse">
<stop offset="0.4" stop-color="white"/>
<stop offset="0.675" stop-color="#EAEAEC"/>
<stop offset="0.865" stop-color="#C4C6CB"/>
<stop offset="0.99" stop-color="#B6B8BF"/>
</linearGradient>
<linearGradient id="paint13_linear_358_229" x1="20.9563" y1="12.9675" x2="20.9563" y2="32.8125" gradientUnits="userSpaceOnUse">
<stop offset="0.4" stop-color="white"/>
<stop offset="0.675" stop-color="#EAEAEC"/>
<stop offset="0.865" stop-color="#C4C6CB"/>
<stop offset="0.99" stop-color="#B6B8BF"/>
</linearGradient>
<linearGradient id="paint14_linear_358_229" x1="20.9563" y1="12.9675" x2="20.9563" y2="32.8125" gradientUnits="userSpaceOnUse">
<stop offset="0.4" stop-color="white"/>
<stop offset="0.675" stop-color="#EAEAEC"/>
<stop offset="0.865" stop-color="#C4C6CB"/>
<stop offset="0.99" stop-color="#B6B8BF"/>
</linearGradient>
<clipPath id="clip0_358_229">
<rect width="48" height="48" fill="white"/>
</clipPath>
<clipPath id="clip1_358_229">
<rect width="42" height="42" fill="white"/>
</clipPath>
</defs>
</svg>
