<svg width="46" height="46" viewBox="0 0 46 46" fill="none" xmlns="http://www.w3.org/2000/svg">
<g clip-path="url(#clip0_4415_19895)">
<path d="M20.125 40.25C31.2397 40.25 40.25 31.2397 40.25 20.125C40.25 9.01027 31.2397 0 20.125 0C9.01027 0 0 9.01027 0 20.125C0 31.2397 9.01027 40.25 20.125 40.25Z" fill="url(#paint0_linear_4415_19895)"/>
<path d="M20.125 40.25C31.2397 40.25 40.25 31.2397 40.25 20.125C40.25 9.01027 31.2397 0 20.125 0C9.01027 0 0 9.01027 0 20.125C0 31.2397 9.01027 40.25 20.125 40.25Z" fill="url(#paint1_radial_4415_19895)"/>
<path d="M20.125 1.25781C30.5271 1.25781 38.9922 9.72289 38.9922 20.125C38.9922 30.5271 30.5271 38.9922 20.125 38.9922C9.72289 38.9922 1.25781 30.5271 1.25781 20.125C1.25781 9.72289 9.72289 1.25781 20.125 1.25781ZM20.125 0C9.00594 0 0 9.00594 0 20.125C0 31.2441 9.00594 40.25 20.125 40.25C31.2441 40.25 40.25 31.2441 40.25 20.125C40.25 9.00594 31.2441 0 20.125 0Z" fill="url(#paint2_linear_4415_19895)"/>
<path d="M11.7818 31.1937V32.7031H28.385V31.1937H11.7818Z" fill="#272B38" fill-opacity="0.45"/>
<path d="M11.7818 25.1563H10.2725V31.1937H11.7818V25.1563Z" fill="#272B38" fill-opacity="0.45"/>
<path d="M28.385 31.1937H29.8943V25.1563H28.385V31.1937Z" fill="#272B38" fill-opacity="0.45"/>
<path d="M20.8381 20.6281V19.1187H22.3475V17.6094H20.8381V14.5906H19.3287V19.1187H14.8006V20.6281H19.3287V26.6656H17.8193V28.175H16.31V29.6844H23.8568V28.175H22.3475V26.6656H20.8381V22.1375H26.8756V20.6281H20.8381Z" fill="#272B38" fill-opacity="0.45"/>
<path d="M28.385 19.1187H26.8756V20.6281L28.385 20.6281V19.1187Z" fill="#272B38" fill-opacity="0.45"/>
<path d="M14.8006 17.6094H13.2912V19.1187H14.8006V17.6094Z" fill="#272B38" fill-opacity="0.45"/>
<path d="M23.8568 16.1H22.3475V17.6094H23.8568V16.1Z" fill="#272B38" fill-opacity="0.45"/>
<path d="M13.2912 16.1H11.7818V17.6094H13.2912V16.1Z" fill="#272B38" fill-opacity="0.45"/>
<path d="M23.8568 14.5906V16.1H28.385L28.385 19.1187H29.8943V14.5906H23.8568Z" fill="#272B38" fill-opacity="0.45"/>
<path d="M19.3287 13.0812H17.8193V14.5906H19.3287L19.3287 13.0812Z" fill="#272B38" fill-opacity="0.45"/>
<path d="M11.7818 11.5719H16.31V10.0625H10.2725V16.1H11.7818L11.7818 11.5719Z" fill="#272B38" fill-opacity="0.45"/>
<path d="M17.8193 11.5719H16.31L16.31 13.0812H17.8193V11.5719Z" fill="#272B38" fill-opacity="0.45"/>
<path d="M11.7818 29.9359V31.4453H28.385V29.9359H11.7818Z" fill="url(#paint3_linear_4415_19895)"/>
<path d="M11.7818 23.8984H10.2725V29.9359H11.7818V23.8984Z" fill="url(#paint4_linear_4415_19895)"/>
<path d="M28.385 29.9359H29.8943V23.8984H28.385V29.9359Z" fill="url(#paint5_linear_4415_19895)"/>
<path d="M20.8381 19.3703V17.8609H22.3475V16.3516H20.8381V13.3328H19.3287V17.8609H14.8006V19.3703H19.3287V25.4078H17.8193V26.9172H16.31V28.4266H23.8568V26.9172H22.3475V25.4078H20.8381V20.8797H26.8756V19.3703H20.8381Z" fill="url(#paint6_linear_4415_19895)"/>
<path d="M28.385 17.8609H26.8756V19.3703L28.385 19.3703V17.8609Z" fill="url(#paint7_linear_4415_19895)"/>
<path d="M14.8006 16.3516H13.2912V17.8609H14.8006V16.3516Z" fill="url(#paint8_linear_4415_19895)"/>
<path d="M23.8568 14.8422H22.3475V16.3516H23.8568V14.8422Z" fill="url(#paint9_linear_4415_19895)"/>
<path d="M13.2912 14.8422H11.7818V16.3516H13.2912V14.8422Z" fill="url(#paint10_linear_4415_19895)"/>
<path d="M23.8568 13.3328V14.8422H28.385L28.385 17.8609H29.8943V13.3328H23.8568Z" fill="url(#paint11_linear_4415_19895)"/>
<path d="M19.3287 11.8234H17.8193V13.3328H19.3287L19.3287 11.8234Z" fill="url(#paint12_linear_4415_19895)"/>
<path d="M11.7818 10.3141H16.31V8.80469H10.2725V14.8422H11.7818L11.7818 10.3141Z" fill="url(#paint13_linear_4415_19895)"/>
<path d="M17.8193 10.3141H16.31L16.31 11.8234H17.8193V10.3141Z" fill="url(#paint14_linear_4415_19895)"/>
</g>
<path d="M39.1849 26.6034C37.1789 32.5069 32.5072 37.1787 26.6036 39.1847C26.4405 38.4478 26.3545 37.6819 26.3545 36.8959C26.3545 31.0739 31.0742 26.3542 36.8962 26.3542C37.6821 26.3542 38.448 26.4403 39.1849 26.6034Z" fill="white"/>
<g clip-path="url(#clip1_4415_19895)">
<path d="M36.8961 46.0001C41.9242 46.0001 46.0003 41.924 46.0003 36.8959C46.0003 31.8678 41.9242 27.7917 36.8961 27.7917C31.8681 27.7917 27.792 31.8678 27.792 36.8959C27.792 41.924 31.8681 46.0001 36.8961 46.0001Z" fill="#627EEA"/>
<path d="M37.1797 30.0679V35.115L41.4456 37.0212L37.1797 30.0679Z" fill="white" fill-opacity="0.602"/>
<path d="M37.1795 30.0679L32.9131 37.0212L37.1795 35.115V30.0679Z" fill="white"/>
<path d="M37.1797 40.2918V43.7212L41.4484 37.8154L37.1797 40.2918Z" fill="white" fill-opacity="0.602"/>
<path d="M37.1795 43.7212V40.2912L32.9131 37.8154L37.1795 43.7212Z" fill="white"/>
<path d="M37.1797 39.4982L41.4456 37.0213L37.1797 35.1162V39.4982Z" fill="white" fill-opacity="0.2"/>
<path d="M32.9131 37.0213L37.1795 39.4982V35.1162L32.9131 37.0213Z" fill="white" fill-opacity="0.602"/>
</g>
<defs>
<linearGradient id="paint0_linear_4415_19895" x1="20.125" y1="40.25" x2="20.125" y2="0" gradientUnits="userSpaceOnUse">
<stop stop-color="#424756"/>
<stop offset="0.31" stop-color="#505565"/>
<stop offset="0.42" stop-color="#5F6475"/>
<stop offset="0.61" stop-color="#747A8B"/>
<stop offset="0.73" stop-color="#7C8394"/>
<stop offset="0.88" stop-color="#757C8C"/>
<stop offset="1" stop-color="#6E7484"/>
</linearGradient>
<radialGradient id="paint1_radial_4415_19895" cx="0" cy="0" r="1" gradientUnits="userSpaceOnUse" gradientTransform="translate(20.125 20.125) rotate(90) scale(20.125)">
<stop offset="0.80207" stop-color="#272B38" stop-opacity="0"/>
<stop offset="0.848055" stop-color="#272B38" stop-opacity="0.0421641"/>
<stop offset="0.882811" stop-color="#272B38" stop-opacity="0.0948692"/>
<stop offset="0.913817" stop-color="#272B38" stop-opacity="0.15"/>
<stop offset="0.957038" stop-color="#272B38" stop-opacity="0.34"/>
</radialGradient>
<linearGradient id="paint2_linear_4415_19895" x1="20.125" y1="40.25" x2="20.125" y2="0" gradientUnits="userSpaceOnUse">
<stop stop-color="#6D6E7C"/>
<stop offset="0.17" stop-color="#7A7C8A"/>
<stop offset="0.51" stop-color="#9EA2B1"/>
<stop offset="0.67" stop-color="#B3B8C7"/>
</linearGradient>
<linearGradient id="paint3_linear_4415_19895" x1="20.0834" y1="12.4272" x2="20.0834" y2="31.4453" gradientUnits="userSpaceOnUse">
<stop offset="0.4" stop-color="white"/>
<stop offset="0.675" stop-color="#EAEAEC"/>
<stop offset="0.865" stop-color="#C4C6CB"/>
<stop offset="0.99" stop-color="#B6B8BF"/>
</linearGradient>
<linearGradient id="paint4_linear_4415_19895" x1="20.0834" y1="12.4272" x2="20.0834" y2="31.4453" gradientUnits="userSpaceOnUse">
<stop offset="0.4" stop-color="white"/>
<stop offset="0.675" stop-color="#EAEAEC"/>
<stop offset="0.865" stop-color="#C4C6CB"/>
<stop offset="0.99" stop-color="#B6B8BF"/>
</linearGradient>
<linearGradient id="paint5_linear_4415_19895" x1="20.0834" y1="12.4272" x2="20.0834" y2="31.4453" gradientUnits="userSpaceOnUse">
<stop offset="0.4" stop-color="white"/>
<stop offset="0.675" stop-color="#EAEAEC"/>
<stop offset="0.865" stop-color="#C4C6CB"/>
<stop offset="0.99" stop-color="#B6B8BF"/>
</linearGradient>
<linearGradient id="paint6_linear_4415_19895" x1="20.0834" y1="12.4272" x2="20.0834" y2="31.4453" gradientUnits="userSpaceOnUse">
<stop offset="0.4" stop-color="white"/>
<stop offset="0.675" stop-color="#EAEAEC"/>
<stop offset="0.865" stop-color="#C4C6CB"/>
<stop offset="0.99" stop-color="#B6B8BF"/>
</linearGradient>
<linearGradient id="paint7_linear_4415_19895" x1="20.0834" y1="12.4272" x2="20.0834" y2="31.4453" gradientUnits="userSpaceOnUse">
<stop offset="0.4" stop-color="white"/>
<stop offset="0.675" stop-color="#EAEAEC"/>
<stop offset="0.865" stop-color="#C4C6CB"/>
<stop offset="0.99" stop-color="#B6B8BF"/>
</linearGradient>
<linearGradient id="paint8_linear_4415_19895" x1="20.0834" y1="12.4272" x2="20.0834" y2="31.4453" gradientUnits="userSpaceOnUse">
<stop offset="0.4" stop-color="white"/>
<stop offset="0.675" stop-color="#EAEAEC"/>
<stop offset="0.865" stop-color="#C4C6CB"/>
<stop offset="0.99" stop-color="#B6B8BF"/>
</linearGradient>
<linearGradient id="paint9_linear_4415_19895" x1="20.0834" y1="12.4272" x2="20.0834" y2="31.4453" gradientUnits="userSpaceOnUse">
<stop offset="0.4" stop-color="white"/>
<stop offset="0.675" stop-color="#EAEAEC"/>
<stop offset="0.865" stop-color="#C4C6CB"/>
<stop offset="0.99" stop-color="#B6B8BF"/>
</linearGradient>
<linearGradient id="paint10_linear_4415_19895" x1="20.0834" y1="12.4272" x2="20.0834" y2="31.4453" gradientUnits="userSpaceOnUse">
<stop offset="0.4" stop-color="white"/>
<stop offset="0.675" stop-color="#EAEAEC"/>
<stop offset="0.865" stop-color="#C4C6CB"/>
<stop offset="0.99" stop-color="#B6B8BF"/>
</linearGradient>
<linearGradient id="paint11_linear_4415_19895" x1="20.0834" y1="12.4272" x2="20.0834" y2="31.4453" gradientUnits="userSpaceOnUse">
<stop offset="0.4" stop-color="white"/>
<stop offset="0.675" stop-color="#EAEAEC"/>
<stop offset="0.865" stop-color="#C4C6CB"/>
<stop offset="0.99" stop-color="#B6B8BF"/>
</linearGradient>
<linearGradient id="paint12_linear_4415_19895" x1="20.0834" y1="12.4272" x2="20.0834" y2="31.4453" gradientUnits="userSpaceOnUse">
<stop offset="0.4" stop-color="white"/>
<stop offset="0.675" stop-color="#EAEAEC"/>
<stop offset="0.865" stop-color="#C4C6CB"/>
<stop offset="0.99" stop-color="#B6B8BF"/>
</linearGradient>
<linearGradient id="paint13_linear_4415_19895" x1="20.0834" y1="12.4272" x2="20.0834" y2="31.4453" gradientUnits="userSpaceOnUse">
<stop offset="0.4" stop-color="white"/>
<stop offset="0.675" stop-color="#EAEAEC"/>
<stop offset="0.865" stop-color="#C4C6CB"/>
<stop offset="0.99" stop-color="#B6B8BF"/>
</linearGradient>
<linearGradient id="paint14_linear_4415_19895" x1="20.0834" y1="12.4272" x2="20.0834" y2="31.4453" gradientUnits="userSpaceOnUse">
<stop offset="0.4" stop-color="white"/>
<stop offset="0.675" stop-color="#EAEAEC"/>
<stop offset="0.865" stop-color="#C4C6CB"/>
<stop offset="0.99" stop-color="#B6B8BF"/>
</linearGradient>
<clipPath id="clip0_4415_19895">
<rect width="40.25" height="40.25" fill="white"/>
</clipPath>
<clipPath id="clip1_4415_19895">
<rect width="18.2083" height="18.2083" fill="white" transform="translate(27.792 27.7917)"/>
</clipPath>
</defs>
</svg>
