<svg width="48" height="48" viewBox="0 0 48 48" fill="none" xmlns="http://www.w3.org/2000/svg">
<g clip-path="url(#clip0_358_253)">
<g clip-path="url(#clip1_358_253)">
<path d="M21 42C32.598 42 42 32.598 42 21C42 9.40202 32.598 0 21 0C9.40202 0 0 9.40202 0 21C0 32.598 9.40202 42 21 42Z" fill="url(#paint0_linear_358_253)"/>
<path d="M21 42C32.598 42 42 32.598 42 21C42 9.40202 32.598 0 21 0C9.40202 0 0 9.40202 0 21C0 32.598 9.40202 42 21 42Z" fill="url(#paint1_radial_358_253)"/>
<path d="M21 1.3125C31.8544 1.3125 40.6875 10.1456 40.6875 21C40.6875 31.8544 31.8544 40.6875 21 40.6875C10.1456 40.6875 1.3125 31.8544 1.3125 21C1.3125 10.1456 10.1456 1.3125 21 1.3125ZM21 0C9.3975 0 0 9.3975 0 21C0 32.6025 9.3975 42 21 42C32.6025 42 42 32.6025 42 21C42 9.3975 32.6025 0 21 0Z" fill="url(#paint2_linear_358_253)"/>
<path d="M12.2938 32.55V34.125H29.6188V32.55H12.2938Z" fill="#272B38" fill-opacity="0.45"/>
<path d="M12.2938 26.25H10.7188V32.55H12.2938V26.25Z" fill="#272B38" fill-opacity="0.45"/>
<path d="M29.6188 32.55H31.1938V26.25H29.6188V32.55Z" fill="#272B38" fill-opacity="0.45"/>
<path d="M21.7438 21.525V19.95H23.3188V18.375H21.7438V15.225H20.1688V19.95H15.4438V21.525H20.1688V27.825H18.5938V29.4H17.0188V30.975H24.8938V29.4H23.3188V27.825H21.7438V23.1H28.0438V21.525H21.7438Z" fill="#272B38" fill-opacity="0.45"/>
<path d="M29.6188 19.95H28.0438V21.525L29.6188 21.525V19.95Z" fill="#272B38" fill-opacity="0.45"/>
<path d="M15.4438 18.375H13.8688V19.95H15.4438V18.375Z" fill="#272B38" fill-opacity="0.45"/>
<path d="M24.8938 16.8H23.3188V18.375H24.8938V16.8Z" fill="#272B38" fill-opacity="0.45"/>
<path d="M13.8688 16.8H12.2938V18.375H13.8688V16.8Z" fill="#272B38" fill-opacity="0.45"/>
<path d="M24.8938 15.225V16.8H29.6188L29.6188 19.95H31.1938V15.225H24.8938Z" fill="#272B38" fill-opacity="0.45"/>
<path d="M20.1687 13.65H18.5938V15.225H20.1688L20.1687 13.65Z" fill="#272B38" fill-opacity="0.45"/>
<path d="M12.2937 12.075H17.0188V10.5H10.7188V16.8H12.2938L12.2937 12.075Z" fill="#272B38" fill-opacity="0.45"/>
<path d="M18.5938 12.075H17.0188L17.0188 13.65H18.5938V12.075Z" fill="#272B38" fill-opacity="0.45"/>
<path d="M12.2938 31.2375V32.8125H29.6188V31.2375H12.2938Z" fill="url(#paint3_linear_358_253)"/>
<path d="M12.2938 24.9375H10.7188V31.2375H12.2938V24.9375Z" fill="url(#paint4_linear_358_253)"/>
<path d="M29.6188 31.2375H31.1938V24.9375H29.6188V31.2375Z" fill="url(#paint5_linear_358_253)"/>
<path d="M21.7438 20.2125V18.6375H23.3188V17.0625H21.7438V13.9125H20.1688V18.6375H15.4438V20.2125H20.1688V26.5125H18.5938V28.0875H17.0188V29.6625H24.8938V28.0875H23.3188V26.5125H21.7438V21.7875H28.0438V20.2125H21.7438Z" fill="url(#paint6_linear_358_253)"/>
<path d="M29.6188 18.6375H28.0438V20.2125L29.6188 20.2125V18.6375Z" fill="url(#paint7_linear_358_253)"/>
<path d="M15.4438 17.0625H13.8688V18.6375H15.4438V17.0625Z" fill="url(#paint8_linear_358_253)"/>
<path d="M24.8938 15.4875H23.3188V17.0625H24.8938V15.4875Z" fill="url(#paint9_linear_358_253)"/>
<path d="M13.8688 15.4875H12.2938V17.0625H13.8688V15.4875Z" fill="url(#paint10_linear_358_253)"/>
<path d="M24.8938 13.9125V15.4875H29.6188L29.6188 18.6375H31.1938V13.9125H24.8938Z" fill="url(#paint11_linear_358_253)"/>
<path d="M20.1687 12.3375H18.5938V13.9125H20.1688L20.1687 12.3375Z" fill="url(#paint12_linear_358_253)"/>
<path d="M12.2937 10.7625H17.0188V9.1875H10.7188V15.4875H12.2938L12.2937 10.7625Z" fill="url(#paint13_linear_358_253)"/>
<path d="M18.5938 10.7625H17.0188L17.0188 12.3375H18.5938V10.7625Z" fill="url(#paint14_linear_358_253)"/>
</g>
<path d="M40.8883 27.76C38.7951 33.9202 33.9202 38.7951 27.76 40.8883C27.5898 40.1193 27.5 39.3201 27.5 38.5C27.5 32.4249 32.4249 27.5 38.5 27.5C39.3201 27.5 40.1193 27.5898 40.8883 27.76Z" fill="white"/>
<g clip-path="url(#clip2_358_253)">
<path d="M38.5 48C43.7467 48 48 43.7467 48 38.5C48 33.2533 43.7467 29 38.5 29C33.2533 29 29 33.2533 29 38.5C29 43.7467 33.2533 48 38.5 48Z" fill="#121212"/>
<path d="M34.6348 40.8444C34.7039 40.7758 34.7989 40.7358 34.8997 40.7358H44.0385C44.2055 40.7358 44.289 40.9359 44.1709 41.053L42.3656 42.8445C42.2965 42.9131 42.2015 42.9531 42.1007 42.9531H32.9619C32.7949 42.9531 32.7114 42.7531 32.8295 42.636L34.6348 40.8444Z" fill="url(#paint15_linear_358_253)"/>
<path d="M34.6345 34.1555C34.7065 34.0869 34.8015 34.0469 34.8994 34.0469H44.0382C44.2052 34.0469 44.2887 34.2469 44.1707 34.364L42.3654 36.1556C42.2963 36.2241 42.2013 36.2641 42.1005 36.2641H32.9617C32.7947 36.2641 32.7112 36.0641 32.8292 35.947L34.6345 34.1555Z" fill="url(#paint16_linear_358_253)"/>
<path d="M42.3656 37.4785C42.2965 37.4099 42.2015 37.3699 42.1007 37.3699H32.9619C32.7949 37.3699 32.7114 37.5699 32.8295 37.6871L34.6348 39.4786C34.7039 39.5472 34.7989 39.5872 34.8997 39.5872H44.0385C44.2055 39.5872 44.289 39.3872 44.1709 39.27L42.3656 37.4785Z" fill="url(#paint17_linear_358_253)"/>
</g>
</g>
<defs>
<linearGradient id="paint0_linear_358_253" x1="21" y1="42" x2="21" y2="0" gradientUnits="userSpaceOnUse">
<stop stop-color="#424756"/>
<stop offset="0.31" stop-color="#505565"/>
<stop offset="0.42" stop-color="#5F6475"/>
<stop offset="0.61" stop-color="#747A8B"/>
<stop offset="0.73" stop-color="#7C8394"/>
<stop offset="0.88" stop-color="#757C8C"/>
<stop offset="1" stop-color="#6E7484"/>
</linearGradient>
<radialGradient id="paint1_radial_358_253" cx="0" cy="0" r="1" gradientUnits="userSpaceOnUse" gradientTransform="translate(21 21) rotate(90) scale(21)">
<stop offset="0.80207" stop-color="#272B38" stop-opacity="0"/>
<stop offset="0.848055" stop-color="#272B38" stop-opacity="0.0421641"/>
<stop offset="0.882811" stop-color="#272B38" stop-opacity="0.0948692"/>
<stop offset="0.913817" stop-color="#272B38" stop-opacity="0.15"/>
<stop offset="0.957038" stop-color="#272B38" stop-opacity="0.34"/>
</radialGradient>
<linearGradient id="paint2_linear_358_253" x1="21" y1="42" x2="21" y2="0" gradientUnits="userSpaceOnUse">
<stop stop-color="#6D6E7C"/>
<stop offset="0.17" stop-color="#7A7C8A"/>
<stop offset="0.51" stop-color="#9EA2B1"/>
<stop offset="0.67" stop-color="#B3B8C7"/>
</linearGradient>
<linearGradient id="paint3_linear_358_253" x1="20.9563" y1="12.9675" x2="20.9563" y2="32.8125" gradientUnits="userSpaceOnUse">
<stop offset="0.4" stop-color="white"/>
<stop offset="0.675" stop-color="#EAEAEC"/>
<stop offset="0.865" stop-color="#C4C6CB"/>
<stop offset="0.99" stop-color="#B6B8BF"/>
</linearGradient>
<linearGradient id="paint4_linear_358_253" x1="20.9563" y1="12.9675" x2="20.9563" y2="32.8125" gradientUnits="userSpaceOnUse">
<stop offset="0.4" stop-color="white"/>
<stop offset="0.675" stop-color="#EAEAEC"/>
<stop offset="0.865" stop-color="#C4C6CB"/>
<stop offset="0.99" stop-color="#B6B8BF"/>
</linearGradient>
<linearGradient id="paint5_linear_358_253" x1="20.9563" y1="12.9675" x2="20.9563" y2="32.8125" gradientUnits="userSpaceOnUse">
<stop offset="0.4" stop-color="white"/>
<stop offset="0.675" stop-color="#EAEAEC"/>
<stop offset="0.865" stop-color="#C4C6CB"/>
<stop offset="0.99" stop-color="#B6B8BF"/>
</linearGradient>
<linearGradient id="paint6_linear_358_253" x1="20.9563" y1="12.9675" x2="20.9563" y2="32.8125" gradientUnits="userSpaceOnUse">
<stop offset="0.4" stop-color="white"/>
<stop offset="0.675" stop-color="#EAEAEC"/>
<stop offset="0.865" stop-color="#C4C6CB"/>
<stop offset="0.99" stop-color="#B6B8BF"/>
</linearGradient>
<linearGradient id="paint7_linear_358_253" x1="20.9563" y1="12.9675" x2="20.9563" y2="32.8125" gradientUnits="userSpaceOnUse">
<stop offset="0.4" stop-color="white"/>
<stop offset="0.675" stop-color="#EAEAEC"/>
<stop offset="0.865" stop-color="#C4C6CB"/>
<stop offset="0.99" stop-color="#B6B8BF"/>
</linearGradient>
<linearGradient id="paint8_linear_358_253" x1="20.9563" y1="12.9675" x2="20.9563" y2="32.8125" gradientUnits="userSpaceOnUse">
<stop offset="0.4" stop-color="white"/>
<stop offset="0.675" stop-color="#EAEAEC"/>
<stop offset="0.865" stop-color="#C4C6CB"/>
<stop offset="0.99" stop-color="#B6B8BF"/>
</linearGradient>
<linearGradient id="paint9_linear_358_253" x1="20.9563" y1="12.9675" x2="20.9563" y2="32.8125" gradientUnits="userSpaceOnUse">
<stop offset="0.4" stop-color="white"/>
<stop offset="0.675" stop-color="#EAEAEC"/>
<stop offset="0.865" stop-color="#C4C6CB"/>
<stop offset="0.99" stop-color="#B6B8BF"/>
</linearGradient>
<linearGradient id="paint10_linear_358_253" x1="20.9563" y1="12.9675" x2="20.9563" y2="32.8125" gradientUnits="userSpaceOnUse">
<stop offset="0.4" stop-color="white"/>
<stop offset="0.675" stop-color="#EAEAEC"/>
<stop offset="0.865" stop-color="#C4C6CB"/>
<stop offset="0.99" stop-color="#B6B8BF"/>
</linearGradient>
<linearGradient id="paint11_linear_358_253" x1="20.9563" y1="12.9675" x2="20.9563" y2="32.8125" gradientUnits="userSpaceOnUse">
<stop offset="0.4" stop-color="white"/>
<stop offset="0.675" stop-color="#EAEAEC"/>
<stop offset="0.865" stop-color="#C4C6CB"/>
<stop offset="0.99" stop-color="#B6B8BF"/>
</linearGradient>
<linearGradient id="paint12_linear_358_253" x1="20.9563" y1="12.9675" x2="20.9563" y2="32.8125" gradientUnits="userSpaceOnUse">
<stop offset="0.4" stop-color="white"/>
<stop offset="0.675" stop-color="#EAEAEC"/>
<stop offset="0.865" stop-color="#C4C6CB"/>
<stop offset="0.99" stop-color="#B6B8BF"/>
</linearGradient>
<linearGradient id="paint13_linear_358_253" x1="20.9563" y1="12.9675" x2="20.9563" y2="32.8125" gradientUnits="userSpaceOnUse">
<stop offset="0.4" stop-color="white"/>
<stop offset="0.675" stop-color="#EAEAEC"/>
<stop offset="0.865" stop-color="#C4C6CB"/>
<stop offset="0.99" stop-color="#B6B8BF"/>
</linearGradient>
<linearGradient id="paint14_linear_358_253" x1="20.9563" y1="12.9675" x2="20.9563" y2="32.8125" gradientUnits="userSpaceOnUse">
<stop offset="0.4" stop-color="white"/>
<stop offset="0.675" stop-color="#EAEAEC"/>
<stop offset="0.865" stop-color="#C4C6CB"/>
<stop offset="0.99" stop-color="#B6B8BF"/>
</linearGradient>
<linearGradient id="paint15_linear_358_253" x1="43.1654" y1="2.88017" x2="19.1753" y2="14.4081" gradientUnits="userSpaceOnUse">
<stop stop-color="#00FFA3"/>
<stop offset="1" stop-color="#DC1FFF"/>
</linearGradient>
<linearGradient id="paint16_linear_358_253" x1="40.3998" y1="23.9928" x2="16.4097" y2="35.5207" gradientUnits="userSpaceOnUse">
<stop stop-color="#00FFA3"/>
<stop offset="1" stop-color="#DC1FFF"/>
</linearGradient>
<linearGradient id="paint17_linear_358_253" x1="41.7739" y1="32.2557" x2="35.5249" y2="44.3171" gradientUnits="userSpaceOnUse">
<stop stop-color="#00FFA3"/>
<stop offset="1" stop-color="#DC1FFF"/>
</linearGradient>
<clipPath id="clip0_358_253">
<rect width="48" height="48" fill="white"/>
</clipPath>
<clipPath id="clip1_358_253">
<rect width="42" height="42" fill="white"/>
</clipPath>
<clipPath id="clip2_358_253">
<rect width="19" height="19" fill="white" transform="translate(29 29)"/>
</clipPath>
</defs>
</svg>
