<svg width="49" height="48" viewBox="0 0 49 48" fill="none" xmlns="http://www.w3.org/2000/svg">
<g clip-path="url(#clip0_305_6397)">
<g clip-path="url(#clip1_305_6397)">
<path d="M21.887 42C33.4849 42 42.887 32.598 42.887 21C42.887 9.40202 33.4849 0 21.887 0C10.289 0 0.886963 9.40202 0.886963 21C0.886963 32.598 10.289 42 21.887 42Z" fill="url(#paint0_linear_305_6397)"/>
<path d="M21.887 42C33.4849 42 42.887 32.598 42.887 21C42.887 9.40202 33.4849 0 21.887 0C10.289 0 0.886963 9.40202 0.886963 21C0.886963 32.598 10.289 42 21.887 42Z" fill="url(#paint1_radial_305_6397)"/>
<path d="M21.887 1.3125C32.7413 1.3125 41.5745 10.1456 41.5745 21C41.5745 31.8544 32.7413 40.6875 21.887 40.6875C11.0326 40.6875 2.19946 31.8544 2.19946 21C2.19946 10.1456 11.0326 1.3125 21.887 1.3125ZM21.887 0C10.2845 0 0.886963 9.3975 0.886963 21C0.886963 32.6025 10.2845 42 21.887 42C33.4895 42 42.887 32.6025 42.887 21C42.887 9.3975 33.4895 0 21.887 0Z" fill="url(#paint2_linear_305_6397)"/>
<path d="M27.137 34.125V31.5H16.637V34.125H27.137Z" fill="#272B38" fill-opacity="0.45"/>
<path d="M29.762 28.875H27.137V31.5H29.762V28.875Z" fill="#272B38" fill-opacity="0.45"/>
<path d="M16.637 28.875H14.012V31.5H16.637V28.875Z" fill="#272B38" fill-opacity="0.45"/>
<path d="M32.387 26.25H29.762V28.875H32.387V26.25Z" fill="#272B38" fill-opacity="0.45"/>
<path d="M32.387 15.75H29.762V18.375H32.387V15.75Z" fill="#272B38" fill-opacity="0.45"/>
<path d="M11.387 18.375H8.76196V21H11.387V23.625H8.76196V26.25H11.387V28.875H14.012V26.25H24.512V23.625H14.012V21H27.137V18.375H14.012V15.75H11.387V18.375Z" fill="#272B38" fill-opacity="0.45"/>
<path d="M29.762 13.125H27.137V15.75H29.762V13.125Z" fill="#272B38" fill-opacity="0.45"/>
<path d="M16.637 13.125H14.012V15.75H16.637V13.125Z" fill="#272B38" fill-opacity="0.45"/>
<path d="M16.637 10.5V13.125H27.137V10.5H16.637Z" fill="#272B38" fill-opacity="0.45"/>
<path d="M27.137 32.8125V30.1875H16.637V32.8125H27.137Z" fill="url(#paint3_linear_305_6397)"/>
<path d="M29.762 27.5625H27.137V30.1875H29.762V27.5625Z" fill="url(#paint4_linear_305_6397)"/>
<path d="M16.637 27.5625H14.012V30.1875H16.637V27.5625Z" fill="url(#paint5_linear_305_6397)"/>
<path d="M32.387 24.9375H29.762V27.5625H32.387V24.9375Z" fill="url(#paint6_linear_305_6397)"/>
<path d="M32.387 14.4375H29.762V17.0625H32.387V14.4375Z" fill="url(#paint7_linear_305_6397)"/>
<path d="M11.387 17.0625H8.76196V19.6875H11.387V22.3125H8.76196V24.9375H11.387V27.5625H14.012V24.9375H24.512V22.3125H14.012V19.6875H27.137V17.0625H14.012V14.4375H11.387V17.0625Z" fill="url(#paint8_linear_305_6397)"/>
<path d="M29.762 11.8125H27.137V14.4375H29.762V11.8125Z" fill="url(#paint9_linear_305_6397)"/>
<path d="M16.637 11.8125H14.012V14.4375H16.637V11.8125Z" fill="url(#paint10_linear_305_6397)"/>
<path d="M16.637 9.1875V11.8125H27.137V9.1875H16.637Z" fill="url(#paint11_linear_305_6397)"/>
</g>
<path d="M41.7752 27.76C39.682 33.9202 34.8071 38.7951 28.6469 40.8883C28.4767 40.1193 28.387 39.3201 28.387 38.5C28.387 32.4249 33.3118 27.5 39.387 27.5C40.2071 27.5 41.0063 27.5898 41.7752 27.76Z" fill="white"/>
<g clip-path="url(#clip2_305_6397)">
<path d="M39.387 48C44.6336 48 48.8869 43.7467 48.8869 38.5C48.8869 33.2533 44.6336 29 39.387 29C34.1403 29 29.887 33.2533 29.887 38.5C29.887 43.7467 34.1403 48 39.387 48Z" fill="#627EEA"/>
<path d="M39.6826 31.375V36.6416L44.134 38.6306L39.6826 31.375Z" fill="white" fill-opacity="0.602"/>
<path d="M39.6826 31.375L35.2307 38.6306L39.6826 36.6416V31.375Z" fill="white"/>
<path d="M39.6826 42.0435V45.622L44.1369 39.4595L39.6826 42.0435Z" fill="white" fill-opacity="0.602"/>
<path d="M39.6826 45.622V42.0429L35.2307 39.4595L39.6826 45.622Z" fill="white"/>
<path d="M39.6826 41.2152L44.134 38.6306L39.6826 36.6427V41.2152Z" fill="white" fill-opacity="0.2"/>
<path d="M35.2307 38.6306L39.6826 41.2152V36.6427L35.2307 38.6306Z" fill="white" fill-opacity="0.602"/>
</g>
</g>
<defs>
<linearGradient id="paint0_linear_305_6397" x1="21.887" y1="42" x2="21.887" y2="0" gradientUnits="userSpaceOnUse">
<stop stop-color="#424756"/>
<stop offset="0.31" stop-color="#505565"/>
<stop offset="0.42" stop-color="#5F6475"/>
<stop offset="0.61" stop-color="#747A8B"/>
<stop offset="0.73" stop-color="#7C8394"/>
<stop offset="0.88" stop-color="#757C8C"/>
<stop offset="1" stop-color="#6E7484"/>
</linearGradient>
<radialGradient id="paint1_radial_305_6397" cx="0" cy="0" r="1" gradientUnits="userSpaceOnUse" gradientTransform="translate(21.887 21) rotate(90) scale(21)">
<stop offset="0.80207" stop-color="#272B38" stop-opacity="0"/>
<stop offset="0.848055" stop-color="#272B38" stop-opacity="0.0421641"/>
<stop offset="0.882811" stop-color="#272B38" stop-opacity="0.0948692"/>
<stop offset="0.913817" stop-color="#272B38" stop-opacity="0.15"/>
<stop offset="0.957038" stop-color="#272B38" stop-opacity="0.34"/>
</radialGradient>
<linearGradient id="paint2_linear_305_6397" x1="21.887" y1="42" x2="21.887" y2="0" gradientUnits="userSpaceOnUse">
<stop stop-color="#6D6E7C"/>
<stop offset="0.17" stop-color="#7A7C8A"/>
<stop offset="0.51" stop-color="#9EA2B1"/>
<stop offset="0.67" stop-color="#B3B8C7"/>
</linearGradient>
<linearGradient id="paint3_linear_305_6397" x1="20.5745" y1="10.5" x2="20.5745" y2="31.2812" gradientUnits="userSpaceOnUse">
<stop offset="0.4" stop-color="white"/>
<stop offset="0.54" stop-color="#EAEAEC"/>
<stop offset="0.84" stop-color="#C4C6CB"/>
<stop offset="0.99" stop-color="#B6B8BF"/>
</linearGradient>
<linearGradient id="paint4_linear_305_6397" x1="20.5745" y1="10.5" x2="20.5745" y2="31.2812" gradientUnits="userSpaceOnUse">
<stop offset="0.4" stop-color="white"/>
<stop offset="0.54" stop-color="#EAEAEC"/>
<stop offset="0.84" stop-color="#C4C6CB"/>
<stop offset="0.99" stop-color="#B6B8BF"/>
</linearGradient>
<linearGradient id="paint5_linear_305_6397" x1="20.5745" y1="10.5" x2="20.5745" y2="31.2812" gradientUnits="userSpaceOnUse">
<stop offset="0.4" stop-color="white"/>
<stop offset="0.54" stop-color="#EAEAEC"/>
<stop offset="0.84" stop-color="#C4C6CB"/>
<stop offset="0.99" stop-color="#B6B8BF"/>
</linearGradient>
<linearGradient id="paint6_linear_305_6397" x1="20.5745" y1="10.5" x2="20.5745" y2="31.2812" gradientUnits="userSpaceOnUse">
<stop offset="0.4" stop-color="white"/>
<stop offset="0.54" stop-color="#EAEAEC"/>
<stop offset="0.84" stop-color="#C4C6CB"/>
<stop offset="0.99" stop-color="#B6B8BF"/>
</linearGradient>
<linearGradient id="paint7_linear_305_6397" x1="20.5745" y1="10.5" x2="20.5745" y2="31.2812" gradientUnits="userSpaceOnUse">
<stop offset="0.4" stop-color="white"/>
<stop offset="0.54" stop-color="#EAEAEC"/>
<stop offset="0.84" stop-color="#C4C6CB"/>
<stop offset="0.99" stop-color="#B6B8BF"/>
</linearGradient>
<linearGradient id="paint8_linear_305_6397" x1="20.5745" y1="10.5" x2="20.5745" y2="31.2812" gradientUnits="userSpaceOnUse">
<stop offset="0.4" stop-color="white"/>
<stop offset="0.54" stop-color="#EAEAEC"/>
<stop offset="0.84" stop-color="#C4C6CB"/>
<stop offset="0.99" stop-color="#B6B8BF"/>
</linearGradient>
<linearGradient id="paint9_linear_305_6397" x1="20.5745" y1="10.5" x2="20.5745" y2="31.2812" gradientUnits="userSpaceOnUse">
<stop offset="0.4" stop-color="white"/>
<stop offset="0.54" stop-color="#EAEAEC"/>
<stop offset="0.84" stop-color="#C4C6CB"/>
<stop offset="0.99" stop-color="#B6B8BF"/>
</linearGradient>
<linearGradient id="paint10_linear_305_6397" x1="20.5745" y1="10.5" x2="20.5745" y2="31.2812" gradientUnits="userSpaceOnUse">
<stop offset="0.4" stop-color="white"/>
<stop offset="0.54" stop-color="#EAEAEC"/>
<stop offset="0.84" stop-color="#C4C6CB"/>
<stop offset="0.99" stop-color="#B6B8BF"/>
</linearGradient>
<linearGradient id="paint11_linear_305_6397" x1="20.5745" y1="10.5" x2="20.5745" y2="31.2812" gradientUnits="userSpaceOnUse">
<stop offset="0.4" stop-color="white"/>
<stop offset="0.54" stop-color="#EAEAEC"/>
<stop offset="0.84" stop-color="#C4C6CB"/>
<stop offset="0.99" stop-color="#B6B8BF"/>
</linearGradient>
<clipPath id="clip0_305_6397">
<rect width="48" height="48" fill="white" transform="translate(0.886963)"/>
</clipPath>
<clipPath id="clip1_305_6397">
<rect width="42" height="42" fill="white" transform="translate(0.886963)"/>
</clipPath>
<clipPath id="clip2_305_6397">
<rect width="19" height="19" fill="white" transform="translate(29.887 29)"/>
</clipPath>
</defs>
</svg>
