<svg width="49" height="48" viewBox="0 0 49 48" fill="none" xmlns="http://www.w3.org/2000/svg">
<g clip-path="url(#clip0_305_6409)">
<g clip-path="url(#clip1_305_6409)">
<path d="M21.887 42C33.4849 42 42.887 32.598 42.887 21C42.887 9.40202 33.4849 0 21.887 0C10.289 0 0.886963 9.40202 0.886963 21C0.886963 32.598 10.289 42 21.887 42Z" fill="url(#paint0_linear_305_6409)"/>
<path d="M21.887 42C33.4849 42 42.887 32.598 42.887 21C42.887 9.40202 33.4849 0 21.887 0C10.289 0 0.886963 9.40202 0.886963 21C0.886963 32.598 10.289 42 21.887 42Z" fill="url(#paint1_radial_305_6409)"/>
<path d="M21.887 1.3125C32.7413 1.3125 41.5745 10.1456 41.5745 21C41.5745 31.8544 32.7413 40.6875 21.887 40.6875C11.0326 40.6875 2.19946 31.8544 2.19946 21C2.19946 10.1456 11.0326 1.3125 21.887 1.3125ZM21.887 0C10.2845 0 0.886963 9.3975 0.886963 21C0.886963 32.6025 10.2845 42 21.887 42C33.4895 42 42.887 32.6025 42.887 21C42.887 9.3975 33.4895 0 21.887 0Z" fill="url(#paint2_linear_305_6409)"/>
<path d="M27.137 34.125V31.5H16.637V34.125H27.137Z" fill="#272B38" fill-opacity="0.45"/>
<path d="M29.762 28.875H27.137V31.5H29.762V28.875Z" fill="#272B38" fill-opacity="0.45"/>
<path d="M16.637 28.875H14.012V31.5H16.637V28.875Z" fill="#272B38" fill-opacity="0.45"/>
<path d="M32.387 26.25H29.762V28.875H32.387V26.25Z" fill="#272B38" fill-opacity="0.45"/>
<path d="M32.387 15.75H29.762V18.375H32.387V15.75Z" fill="#272B38" fill-opacity="0.45"/>
<path d="M11.387 18.375H8.76196V21H11.387V23.625H8.76196V26.25H11.387V28.875H14.012V26.25H24.512V23.625H14.012V21H27.137V18.375H14.012V15.75H11.387V18.375Z" fill="#272B38" fill-opacity="0.45"/>
<path d="M29.762 13.125H27.137V15.75H29.762V13.125Z" fill="#272B38" fill-opacity="0.45"/>
<path d="M16.637 13.125H14.012V15.75H16.637V13.125Z" fill="#272B38" fill-opacity="0.45"/>
<path d="M16.637 10.5V13.125H27.137V10.5H16.637Z" fill="#272B38" fill-opacity="0.45"/>
<path d="M27.137 32.8125V30.1875H16.637V32.8125H27.137Z" fill="url(#paint3_linear_305_6409)"/>
<path d="M29.762 27.5625H27.137V30.1875H29.762V27.5625Z" fill="url(#paint4_linear_305_6409)"/>
<path d="M16.637 27.5625H14.012V30.1875H16.637V27.5625Z" fill="url(#paint5_linear_305_6409)"/>
<path d="M32.387 24.9375H29.762V27.5625H32.387V24.9375Z" fill="url(#paint6_linear_305_6409)"/>
<path d="M32.387 14.4375H29.762V17.0625H32.387V14.4375Z" fill="url(#paint7_linear_305_6409)"/>
<path d="M11.387 17.0625H8.76196V19.6875H11.387V22.3125H8.76196V24.9375H11.387V27.5625H14.012V24.9375H24.512V22.3125H14.012V19.6875H27.137V17.0625H14.012V14.4375H11.387V17.0625Z" fill="url(#paint8_linear_305_6409)"/>
<path d="M29.762 11.8125H27.137V14.4375H29.762V11.8125Z" fill="url(#paint9_linear_305_6409)"/>
<path d="M16.637 11.8125H14.012V14.4375H16.637V11.8125Z" fill="url(#paint10_linear_305_6409)"/>
<path d="M16.637 9.1875V11.8125H27.137V9.1875H16.637Z" fill="url(#paint11_linear_305_6409)"/>
</g>
<path d="M41.7752 27.76C39.682 33.9202 34.8071 38.7951 28.6469 40.8883C28.4767 40.1193 28.387 39.3201 28.387 38.5C28.387 32.4249 33.3118 27.5 39.387 27.5C40.2071 27.5 41.0063 27.5898 41.7752 27.76Z" fill="white"/>
<g clip-path="url(#clip2_305_6409)">
<path d="M39.387 48C44.6337 48 48.887 43.7467 48.887 38.5C48.887 33.2533 44.6337 29 39.387 29C34.1403 29 29.887 33.2533 29.887 38.5C29.887 43.7467 34.1403 48 39.387 48Z" fill="#FF0420"/>
<path d="M36.6168 41.0232C36.0506 41.0232 35.587 40.8902 35.226 40.6242C34.8688 40.3544 34.6902 39.9668 34.6902 39.469C34.6902 39.3626 34.7016 39.2372 34.7244 39.0852C34.7852 38.7432 34.8726 38.3328 34.9866 37.8502C35.3096 36.543 36.1456 35.8894 37.4908 35.8894C37.8556 35.8894 38.1862 35.9502 38.475 36.0756C38.7638 36.1934 38.9918 36.3758 39.159 36.619C39.3262 36.8584 39.4098 37.1434 39.4098 37.474C39.4098 37.5728 39.3984 37.6982 39.3756 37.8502C39.3034 38.272 39.2198 38.6862 39.1172 39.0852C38.95 39.735 38.665 40.2252 38.2546 40.5482C37.848 40.8674 37.3008 41.0232 36.6168 41.0232ZM36.7194 39.9972C36.9854 39.9972 37.2096 39.9174 37.3958 39.7616C37.5858 39.6058 37.7226 39.3664 37.8024 39.0396C37.9126 38.5912 37.9962 38.2036 38.0532 37.8692C38.0722 37.7704 38.0836 37.6678 38.0836 37.5614C38.0836 37.1282 37.8594 36.9116 37.4072 36.9116C37.1412 36.9116 36.9132 36.9914 36.7232 37.1472C36.537 37.303 36.404 37.5424 36.3242 37.8692C36.2368 38.1884 36.1532 38.576 36.0658 39.0396C36.0468 39.1346 36.0354 39.2334 36.0354 39.3398C36.0316 39.7806 36.2634 39.9972 36.7194 39.9972Z" fill="white"/>
<path d="M39.7403 40.9548C39.6871 40.9548 39.6491 40.9396 39.6187 40.9054C39.5959 40.8674 39.5883 40.8256 39.5959 40.7762L40.5801 36.1402C40.5877 36.087 40.6143 36.0452 40.6599 36.011C40.7017 35.9768 40.7473 35.9616 40.7967 35.9616H42.6929C43.2211 35.9616 43.6429 36.0718 43.9621 36.2884C44.2851 36.5088 44.4485 36.8242 44.4485 37.2384C44.4485 37.3562 44.4333 37.4816 44.4067 37.6108C44.2889 38.158 44.0495 38.5608 43.6847 38.823C43.3275 39.0852 42.8373 39.2144 42.2141 39.2144H41.2527L40.9259 40.7762C40.9145 40.8294 40.8917 40.8712 40.8461 40.9054C40.8043 40.9396 40.7587 40.9548 40.7093 40.9548H39.7403ZM42.2635 38.2302C42.4649 38.2302 42.6359 38.177 42.7841 38.0668C42.9361 37.9566 43.0349 37.8008 43.0843 37.5956C43.0995 37.5158 43.1071 37.4436 43.1071 37.3828C43.1071 37.246 43.0653 37.1396 42.9855 37.0674C42.9057 36.9914 42.7651 36.9534 42.5713 36.9534H41.7163L41.4465 38.2302H42.2635Z" fill="white"/>
</g>
</g>
<defs>
<linearGradient id="paint0_linear_305_6409" x1="21.887" y1="42" x2="21.887" y2="0" gradientUnits="userSpaceOnUse">
<stop stop-color="#424756"/>
<stop offset="0.31" stop-color="#505565"/>
<stop offset="0.42" stop-color="#5F6475"/>
<stop offset="0.61" stop-color="#747A8B"/>
<stop offset="0.73" stop-color="#7C8394"/>
<stop offset="0.88" stop-color="#757C8C"/>
<stop offset="1" stop-color="#6E7484"/>
</linearGradient>
<radialGradient id="paint1_radial_305_6409" cx="0" cy="0" r="1" gradientUnits="userSpaceOnUse" gradientTransform="translate(21.887 21) rotate(90) scale(21)">
<stop offset="0.80207" stop-color="#272B38" stop-opacity="0"/>
<stop offset="0.848055" stop-color="#272B38" stop-opacity="0.0421641"/>
<stop offset="0.882811" stop-color="#272B38" stop-opacity="0.0948692"/>
<stop offset="0.913817" stop-color="#272B38" stop-opacity="0.15"/>
<stop offset="0.957038" stop-color="#272B38" stop-opacity="0.34"/>
</radialGradient>
<linearGradient id="paint2_linear_305_6409" x1="21.887" y1="42" x2="21.887" y2="0" gradientUnits="userSpaceOnUse">
<stop stop-color="#6D6E7C"/>
<stop offset="0.17" stop-color="#7A7C8A"/>
<stop offset="0.51" stop-color="#9EA2B1"/>
<stop offset="0.67" stop-color="#B3B8C7"/>
</linearGradient>
<linearGradient id="paint3_linear_305_6409" x1="20.5745" y1="10.5" x2="20.5745" y2="31.2812" gradientUnits="userSpaceOnUse">
<stop offset="0.4" stop-color="white"/>
<stop offset="0.54" stop-color="#EAEAEC"/>
<stop offset="0.84" stop-color="#C4C6CB"/>
<stop offset="0.99" stop-color="#B6B8BF"/>
</linearGradient>
<linearGradient id="paint4_linear_305_6409" x1="20.5745" y1="10.5" x2="20.5745" y2="31.2812" gradientUnits="userSpaceOnUse">
<stop offset="0.4" stop-color="white"/>
<stop offset="0.54" stop-color="#EAEAEC"/>
<stop offset="0.84" stop-color="#C4C6CB"/>
<stop offset="0.99" stop-color="#B6B8BF"/>
</linearGradient>
<linearGradient id="paint5_linear_305_6409" x1="20.5745" y1="10.5" x2="20.5745" y2="31.2812" gradientUnits="userSpaceOnUse">
<stop offset="0.4" stop-color="white"/>
<stop offset="0.54" stop-color="#EAEAEC"/>
<stop offset="0.84" stop-color="#C4C6CB"/>
<stop offset="0.99" stop-color="#B6B8BF"/>
</linearGradient>
<linearGradient id="paint6_linear_305_6409" x1="20.5745" y1="10.5" x2="20.5745" y2="31.2812" gradientUnits="userSpaceOnUse">
<stop offset="0.4" stop-color="white"/>
<stop offset="0.54" stop-color="#EAEAEC"/>
<stop offset="0.84" stop-color="#C4C6CB"/>
<stop offset="0.99" stop-color="#B6B8BF"/>
</linearGradient>
<linearGradient id="paint7_linear_305_6409" x1="20.5745" y1="10.5" x2="20.5745" y2="31.2812" gradientUnits="userSpaceOnUse">
<stop offset="0.4" stop-color="white"/>
<stop offset="0.54" stop-color="#EAEAEC"/>
<stop offset="0.84" stop-color="#C4C6CB"/>
<stop offset="0.99" stop-color="#B6B8BF"/>
</linearGradient>
<linearGradient id="paint8_linear_305_6409" x1="20.5745" y1="10.5" x2="20.5745" y2="31.2812" gradientUnits="userSpaceOnUse">
<stop offset="0.4" stop-color="white"/>
<stop offset="0.54" stop-color="#EAEAEC"/>
<stop offset="0.84" stop-color="#C4C6CB"/>
<stop offset="0.99" stop-color="#B6B8BF"/>
</linearGradient>
<linearGradient id="paint9_linear_305_6409" x1="20.5745" y1="10.5" x2="20.5745" y2="31.2812" gradientUnits="userSpaceOnUse">
<stop offset="0.4" stop-color="white"/>
<stop offset="0.54" stop-color="#EAEAEC"/>
<stop offset="0.84" stop-color="#C4C6CB"/>
<stop offset="0.99" stop-color="#B6B8BF"/>
</linearGradient>
<linearGradient id="paint10_linear_305_6409" x1="20.5745" y1="10.5" x2="20.5745" y2="31.2812" gradientUnits="userSpaceOnUse">
<stop offset="0.4" stop-color="white"/>
<stop offset="0.54" stop-color="#EAEAEC"/>
<stop offset="0.84" stop-color="#C4C6CB"/>
<stop offset="0.99" stop-color="#B6B8BF"/>
</linearGradient>
<linearGradient id="paint11_linear_305_6409" x1="20.5745" y1="10.5" x2="20.5745" y2="31.2812" gradientUnits="userSpaceOnUse">
<stop offset="0.4" stop-color="white"/>
<stop offset="0.54" stop-color="#EAEAEC"/>
<stop offset="0.84" stop-color="#C4C6CB"/>
<stop offset="0.99" stop-color="#B6B8BF"/>
</linearGradient>
<clipPath id="clip0_305_6409">
<rect width="48" height="48" fill="white" transform="translate(0.886963)"/>
</clipPath>
<clipPath id="clip1_305_6409">
<rect width="42" height="42" fill="white" transform="translate(0.886963)"/>
</clipPath>
<clipPath id="clip2_305_6409">
<rect width="19" height="19" fill="white" transform="translate(29.887 29)"/>
</clipPath>
</defs>
</svg>
