<svg width="160" height="40" viewBox="0 0 160 40" fill="none" xmlns="http://www.w3.org/2000/svg">
<g clip-path="url(#clip0_3687_13567)">
<path d="M54.5246 23.2417H57.1538L63.4288 37.6709H59.8413L58.5996 34.6125H52.9954L51.7913 37.6709H48.2871L54.5246 23.2417ZM55.7496 27.4417L53.9954 31.925H57.5204L55.7454 27.4417H55.7496Z" fill="white"/>
<path d="M70.471 30.6835C70.021 30.1251 69.4335 29.846 68.696 29.846C68.4377 29.846 68.1877 29.9085 67.9418 30.0293C67.696 30.1501 67.5752 30.3626 67.5752 30.6626C67.5752 30.9085 67.7002 31.0876 67.9502 31.2043C68.2002 31.321 68.521 31.421 68.9085 31.5085C69.296 31.596 69.7085 31.6918 70.1502 31.7918C70.5918 31.8918 71.0043 32.0543 71.3918 32.271C71.7793 32.4876 72.1002 32.7835 72.3502 33.1585C72.6002 33.5335 72.7252 34.0335 72.7252 34.6543C72.7252 35.2751 72.5877 35.821 72.3085 36.2335C72.0293 36.6501 71.6752 36.9793 71.2377 37.2335C70.8043 37.4835 70.3127 37.6626 69.771 37.7626C69.2293 37.8626 68.6918 37.9168 68.1627 37.9168C67.471 37.9168 66.771 37.8168 66.0627 37.621C65.3543 37.4251 64.7585 37.0751 64.271 36.571L66.1252 34.5126C66.4085 34.8668 66.7252 35.1335 67.071 35.3168C67.4168 35.5001 67.821 35.5918 68.2835 35.5918C68.6377 35.5918 68.9543 35.5418 69.2418 35.4376C69.5252 35.3376 69.671 35.1501 69.671 34.8751C69.671 34.6168 69.546 34.4251 69.296 34.296C69.046 34.1668 68.7252 34.0585 68.3377 33.971C67.9502 33.8835 67.5377 33.7876 67.096 33.6876C66.6543 33.5876 66.2418 33.4335 65.8543 33.2293C65.4668 33.0251 65.146 32.7376 64.896 32.3626C64.646 31.9876 64.521 31.4918 64.521 30.8668C64.521 30.2835 64.6418 29.7793 64.8793 29.3585C65.1168 28.9376 65.4293 28.5918 65.8168 28.321C66.2043 28.0501 66.6502 27.8501 67.1502 27.721C67.6543 27.5918 68.1627 27.5293 68.6793 27.5293C69.3335 27.5293 69.9918 27.6251 70.6543 27.8126C71.321 28.0043 71.8835 28.3418 72.346 28.8335L70.471 30.6876V30.6835Z" fill="white"/>
<path d="M80.0291 30.6835C79.5791 30.1251 78.9916 29.846 78.2541 29.846C77.9958 29.846 77.7458 29.9085 77.4999 30.0293C77.2541 30.1501 77.1333 30.3626 77.1333 30.6626C77.1333 30.9085 77.2583 31.0876 77.5083 31.2043C77.7583 31.321 78.0791 31.421 78.4666 31.5085C78.8541 31.596 79.2666 31.6918 79.7083 31.7918C80.1499 31.8918 80.5624 32.0543 80.9499 32.271C81.3374 32.4876 81.6583 32.7835 81.9083 33.1585C82.1583 33.5335 82.2833 34.0335 82.2833 34.6543C82.2833 35.2751 82.1458 35.821 81.8666 36.2335C81.5874 36.6501 81.2333 36.9793 80.7958 37.2335C80.3624 37.4835 79.8708 37.6626 79.3291 37.7626C78.7874 37.8626 78.2499 37.9168 77.7208 37.9168C77.0291 37.9168 76.3291 37.8168 75.6208 37.621C74.9124 37.4251 74.3166 37.0751 73.8291 36.571L75.6833 34.5126C75.9666 34.8668 76.2833 35.1335 76.6291 35.3168C76.9749 35.5001 77.3791 35.5918 77.8416 35.5918C78.1958 35.5918 78.5124 35.5418 78.7999 35.4376C79.0833 35.3376 79.2291 35.1501 79.2291 34.8751C79.2291 34.6168 79.1041 34.4251 78.8541 34.296C78.6041 34.1668 78.2833 34.0585 77.8958 33.971C77.5083 33.8835 77.0958 33.7876 76.6541 33.6876C76.2124 33.5876 75.7999 33.4335 75.4124 33.2293C75.0249 33.0251 74.7041 32.7376 74.4541 32.3626C74.2041 31.9876 74.0791 31.4918 74.0791 30.8668C74.0791 30.2835 74.1999 29.7793 74.4374 29.3585C74.6749 28.9376 74.9874 28.5918 75.3749 28.321C75.7624 28.0501 76.2083 27.8501 76.7083 27.721C77.2124 27.5918 77.7208 27.5293 78.2374 27.5293C78.8916 27.5293 79.5499 27.6251 80.2124 27.8126C80.8791 28.0043 81.4416 28.3418 81.9041 28.8335L80.0291 30.6876V30.6835Z" fill="white"/>
<path d="M83.6084 32.7205C83.6084 31.933 83.7501 31.2205 84.0376 30.5788C84.3209 29.9413 84.7126 29.3955 85.2084 28.9372C85.7042 28.483 86.2876 28.133 86.9626 27.8872C87.6376 27.6413 88.3501 27.5205 89.1126 27.5205C89.8751 27.5205 90.5917 27.6413 91.2626 27.8872C91.9334 28.133 92.5209 28.483 93.0167 28.9372C93.5126 29.3913 93.9042 29.9372 94.1876 30.5788C94.4709 31.2163 94.6167 31.933 94.6167 32.7205C94.6167 33.508 94.4751 34.2205 94.1876 34.8622C93.9042 35.4997 93.5126 36.0497 93.0167 36.5038C92.5209 36.958 91.9376 37.308 91.2626 37.5538C90.5917 37.7997 89.8751 37.9205 89.1126 37.9205C88.3501 37.9205 87.6334 37.7997 86.9626 37.5538C86.2917 37.308 85.7042 36.958 85.2084 36.5038C84.7126 36.0497 84.3209 35.5038 84.0376 34.8622C83.7542 34.2247 83.6084 33.5122 83.6084 32.7205ZM86.6667 32.7205C86.6667 33.4663 86.8792 34.0747 87.3084 34.533C87.7376 34.9955 88.3376 35.2247 89.1126 35.2247C89.8876 35.2247 90.4876 34.9955 90.9167 34.533C91.3459 34.0705 91.5584 33.4663 91.5584 32.7205C91.5584 31.9747 91.3459 31.3705 90.9167 30.908C90.4876 30.4455 89.8876 30.2163 89.1126 30.2163C88.3376 30.2163 87.7376 30.4455 87.3084 30.908C86.8792 31.3705 86.6667 31.9747 86.6667 32.7205Z" fill="white"/>
<path d="M103.137 30.9664C102.987 30.7497 102.779 30.5705 102.504 30.4247C102.233 30.283 101.941 30.2122 101.629 30.2122C100.854 30.2122 100.254 30.4414 99.8248 30.9039C99.3956 31.3664 99.1831 31.9705 99.1831 32.7164C99.1831 33.4622 99.3956 34.0705 99.8248 34.5289C100.254 34.9914 100.854 35.2205 101.629 35.2205C101.966 35.2205 102.262 35.1455 102.504 34.9955C102.75 34.8455 102.958 34.6705 103.137 34.4664L105.154 36.5872C104.679 37.0747 104.116 37.4205 103.471 37.6164C102.825 37.8122 102.208 37.9122 101.625 37.9122C100.862 37.9122 100.146 37.7914 99.4748 37.5455C98.8039 37.2997 98.2164 36.9497 97.7206 36.4955C97.2248 36.0414 96.8331 35.4955 96.5498 34.8539C96.2664 34.2164 96.1206 33.5039 96.1206 32.7122C96.1206 31.9205 96.2623 31.2122 96.5498 30.5705C96.8331 29.933 97.2248 29.3872 97.7206 28.9289C98.2164 28.4747 98.7998 28.1247 99.4748 27.8789C100.15 27.633 100.862 27.5122 101.625 27.5122C102.208 27.5122 102.825 27.6122 103.471 27.808C104.116 28.0039 104.675 28.3497 105.154 28.8372L103.137 30.958V30.9664Z" fill="white"/>
<path d="M106.267 24.65C106.267 24.1625 106.442 23.7417 106.787 23.3958C107.133 23.05 107.55 22.875 108.042 22.875C108.533 22.875 108.95 23.05 109.296 23.3958C109.642 23.7417 109.817 24.1583 109.817 24.65C109.817 25.1417 109.642 25.5583 109.296 25.9042C108.95 26.25 108.533 26.425 108.042 26.425C107.55 26.425 107.133 26.25 106.787 25.9042C106.442 25.5583 106.267 25.1417 106.267 24.65ZM106.512 27.7667H109.571V37.6708H106.512V27.7667Z" fill="white"/>
<path d="M118.158 36.4293H118.117C117.775 36.9585 117.325 37.3376 116.763 37.571C116.2 37.8001 115.604 37.9168 114.979 37.9168C114.517 37.9168 114.071 37.8501 113.646 37.7251C113.217 37.596 112.842 37.4043 112.517 37.146C112.192 36.8876 111.933 36.5668 111.742 36.1876C111.55 35.8085 111.458 35.3668 111.458 34.8626C111.458 34.2918 111.563 33.8085 111.775 33.4168C111.988 33.021 112.271 32.696 112.629 32.4376C112.988 32.1793 113.4 31.9793 113.863 31.8376C114.325 31.696 114.804 31.5918 115.3 31.521C115.796 31.4543 116.292 31.4126 116.788 31.4001C117.283 31.3876 117.742 31.3793 118.163 31.3793C118.163 30.8376 117.971 30.4043 117.584 30.0835C117.196 29.7626 116.738 29.6043 116.208 29.6043C115.679 29.6043 115.246 29.7085 114.833 29.921C114.417 30.1335 114.05 30.421 113.721 30.7876L112.092 29.1168C112.663 28.5876 113.329 28.1876 114.088 27.9251C114.85 27.6585 115.638 27.5293 116.45 27.5293C117.346 27.5293 118.083 27.6418 118.663 27.8668C119.242 28.0918 119.7 28.421 120.05 28.8543C120.396 29.2876 120.638 29.821 120.775 30.4543C120.913 31.0876 120.979 31.8168 120.979 32.646V37.6793H118.167V36.4376L118.158 36.4293ZM117.404 33.3293C117.175 33.3293 116.883 33.3376 116.538 33.3585C116.192 33.3793 115.858 33.4376 115.538 33.5335C115.217 33.6293 114.946 33.771 114.721 33.9626C114.496 34.1543 114.383 34.4168 114.383 34.7585C114.383 35.1251 114.538 35.396 114.854 35.5751C115.167 35.7501 115.492 35.8418 115.833 35.8418C116.133 35.8418 116.421 35.8001 116.7 35.721C116.979 35.6376 117.225 35.5251 117.446 35.3751C117.663 35.2251 117.838 35.0376 117.967 34.8043C118.096 34.5751 118.158 34.3001 118.158 33.9876V33.3335H117.404V33.3293Z" fill="white"/>
<path d="M129.837 30.2124H127.146V33.5124C127.146 33.7833 127.158 34.0333 127.187 34.2583C127.212 34.4833 127.275 34.6749 127.371 34.8374C127.467 34.9999 127.612 35.1249 127.808 35.2124C128.004 35.2999 128.267 35.3458 128.592 35.3458C128.754 35.3458 128.967 35.3291 129.233 35.2958C129.5 35.2624 129.7 35.1833 129.833 35.0624V37.6083C129.492 37.7291 129.142 37.8124 128.775 37.8541C128.408 37.8958 128.05 37.9166 127.696 37.9166C127.179 37.9166 126.704 37.8624 126.271 37.7541C125.837 37.6458 125.454 37.4708 125.129 37.2333C124.804 36.9958 124.55 36.6874 124.367 36.3041C124.183 35.9249 124.092 35.4624 124.092 34.9166V30.2083H122.133V27.7624H124.092V24.8291H127.15V27.7624H129.842V30.2083L129.837 30.2124Z" fill="white"/>
<path d="M131.596 24.65C131.596 24.1625 131.771 23.7417 132.117 23.3958C132.462 23.05 132.879 22.875 133.371 22.875C133.862 22.875 134.279 23.05 134.625 23.3958C134.971 23.7417 135.146 24.1583 135.146 24.65C135.146 25.1417 134.971 25.5583 134.625 25.9042C134.279 26.25 133.862 26.425 133.371 26.425C132.879 26.425 132.462 26.25 132.117 25.9042C131.771 25.5583 131.596 25.1417 131.596 24.65ZM131.842 27.7667H134.9V37.6708H131.842V27.7667Z" fill="white"/>
<path d="M136.842 32.7205C136.842 31.933 136.983 31.2205 137.271 30.5788C137.554 29.9413 137.946 29.3955 138.442 28.9372C138.938 28.483 139.521 28.133 140.196 27.8872C140.867 27.6413 141.583 27.5205 142.346 27.5205C143.108 27.5205 143.825 27.6413 144.496 27.8872C145.167 28.133 145.754 28.483 146.25 28.9372C146.746 29.3913 147.138 29.9372 147.421 30.5788C147.708 31.2163 147.85 31.933 147.85 32.7205C147.85 33.508 147.708 34.2205 147.421 34.8622C147.138 35.4997 146.746 36.0497 146.25 36.5038C145.754 36.958 145.171 37.308 144.496 37.5538C143.825 37.7997 143.108 37.9205 142.346 37.9205C141.583 37.9205 140.867 37.7997 140.196 37.5538C139.525 37.308 138.938 36.958 138.442 36.5038C137.946 36.0497 137.554 35.5038 137.271 34.8622C136.988 34.2247 136.842 33.5122 136.842 32.7205ZM139.896 32.7205C139.896 33.4663 140.108 34.0747 140.538 34.533C140.967 34.9955 141.567 35.2247 142.342 35.2247C143.117 35.2247 143.717 34.9955 144.146 34.533C144.575 34.0705 144.788 33.4663 144.788 32.7205C144.788 31.9747 144.575 31.3705 144.146 30.908C143.717 30.4455 143.117 30.2163 142.342 30.2163C141.567 30.2163 140.967 30.4455 140.538 30.908C140.108 31.3705 139.896 31.9747 139.896 32.7205Z" fill="white"/>
<path d="M149.816 27.7666H152.75V29.1124H152.791C152.887 28.9207 153.021 28.7332 153.2 28.5416C153.375 28.3499 153.587 28.1832 153.833 28.0332C154.079 27.8832 154.354 27.7624 154.671 27.6666C154.983 27.5707 155.321 27.5249 155.691 27.5249C156.466 27.5249 157.091 27.6457 157.566 27.8832C158.041 28.1207 158.412 28.4499 158.679 28.8707C158.946 29.2916 159.125 29.7874 159.221 30.3582C159.316 30.9291 159.362 31.5457 159.362 32.2124V37.6749H156.304V32.8249C156.304 32.5416 156.296 32.2457 156.275 31.9374C156.254 31.6332 156.191 31.3499 156.091 31.0916C155.991 30.8332 155.833 30.6249 155.625 30.4582C155.412 30.2957 155.112 30.2124 154.716 30.2124C154.321 30.2124 154.004 30.2832 153.758 30.4249C153.512 30.5666 153.325 30.7582 153.196 30.9957C153.066 31.2332 152.983 31.5041 152.941 31.7999C152.9 32.0999 152.879 32.4124 152.879 32.7374V37.6707H149.821V27.7666H149.816Z" fill="white"/>
<path d="M59.2041 16.8789H56.3916V15.5747H56.35C56.2291 15.7539 56.0666 15.9331 55.8708 16.1122C55.675 16.2914 55.4458 16.4622 55.1791 16.6081C54.9083 16.7539 54.625 16.8789 54.3 16.9747C53.9833 17.0706 53.6458 17.1206 53.3125 17.1206C52.5791 17.1206 51.9083 16.9997 51.3166 16.7456C50.725 16.4914 50.2083 16.1414 49.775 15.6872C49.3416 15.2289 49.0166 14.6914 48.7875 14.0664C48.5583 13.4372 48.4458 12.7539 48.4458 12.0039C48.4458 11.3122 48.55 10.6497 48.7625 10.0164C48.975 9.38724 49.2666 8.82474 49.6583 8.33724C50.05 7.84974 50.5125 7.45807 51.075 7.16224C51.6291 6.87057 52.2666 6.72057 52.9666 6.72057C53.6041 6.72057 54.1958 6.81641 54.75 7.01224C55.3041 7.20807 55.7541 7.54141 56.1041 8.02474H56.1458V2.44141H59.2041V16.8789ZM56.3916 11.9289C56.3916 11.1789 56.1791 10.5747 55.7458 10.1122C55.3208 9.64557 54.7166 9.42057 53.9458 9.42057C53.175 9.42057 52.5666 9.64974 52.1458 10.1122C51.7208 10.5789 51.5 11.1789 51.5 11.9289C51.5 12.6789 51.7125 13.2831 52.1458 13.7372C52.5708 14.2039 53.175 14.4289 53.9458 14.4289C54.7166 14.4289 55.325 14.1997 55.7458 13.7372C56.1708 13.2706 56.3916 12.6706 56.3916 11.9289Z" fill="white"/>
<path d="M62.2583 2.4502H72.0583V5.38353H65.4375V8.07519H71.6916V11.0085H65.4375V13.9419H72.425V16.8752H62.2583V2.4502Z" fill="white"/>
<path d="M86.9167 11.321C86.9167 12.1752 86.7876 12.9669 86.5251 13.6835C86.2626 14.4002 85.8792 15.0294 85.3751 15.5585C84.8709 16.0877 84.2334 16.5044 83.4667 16.796C82.7084 17.096 81.8292 17.246 80.8334 17.246C79.8376 17.246 78.9417 17.1002 78.1834 16.796C77.4251 16.496 76.7876 16.0794 76.2751 15.5585C75.7626 15.0377 75.3792 14.4002 75.1251 13.6835C74.8626 12.9669 74.7334 12.1752 74.7334 11.321V2.4502H77.9126V11.1877C77.9126 11.6377 77.9876 12.0502 78.1251 12.4335C78.2709 12.8169 78.4667 13.1419 78.7292 13.421C78.9917 13.7002 79.3001 13.9169 79.6584 14.0752C80.0167 14.2294 80.4084 14.3127 80.8334 14.3127C81.2584 14.3127 81.6417 14.2294 82.0001 14.0752C82.3501 13.921 82.6584 13.7002 82.9126 13.421C83.1751 13.1419 83.3709 12.8085 83.5167 12.4335C83.6542 12.0502 83.7292 11.6335 83.7292 11.1877V2.4502H86.9084V11.321H86.9167Z" fill="white"/>
<path d="M89.6878 2.4502H95.2711C96.0044 2.4502 96.6961 2.5252 97.3586 2.6627C98.0169 2.80853 98.5961 3.04603 99.0878 3.37936C99.5836 3.7127 99.9753 4.1627 100.271 4.7252C100.563 5.2877 100.713 5.9877 100.713 6.8377C100.713 7.85853 100.442 8.72103 99.9128 9.4377C99.3836 10.1544 98.6086 10.6044 97.5878 10.7919L101.254 16.8877H97.4461L94.4294 11.1252H92.8628V16.8877H89.6836V2.4502H89.6878ZM92.8669 8.42519H94.7419C95.0253 8.42519 95.3294 8.41686 95.6461 8.39186C95.9628 8.37519 96.2586 8.30853 96.5086 8.21269C96.7586 8.11686 96.9794 7.95019 97.1544 7.73353C97.3253 7.51269 97.4086 7.2127 97.4086 6.82103C97.4086 6.45436 97.3336 6.1627 97.1878 5.9502C97.0419 5.72936 96.8461 5.56686 96.6169 5.45436C96.3878 5.34186 96.1211 5.25853 95.8253 5.21686C95.5253 5.1752 95.2294 5.15853 94.9461 5.15853H92.8669V8.4377V8.42936V8.42519Z" fill="white"/>
<path d="M102.233 9.66657C102.233 8.50824 102.429 7.46657 102.813 6.52907C103.204 5.59157 103.742 4.79157 104.433 4.13324C105.125 3.4749 105.95 2.96657 106.904 2.61657C107.858 2.26657 108.892 2.0874 110.017 2.0874C111.142 2.0874 112.183 2.26657 113.138 2.61657C114.092 2.96657 114.908 3.47074 115.6 4.13324C116.292 4.79157 116.829 5.59157 117.221 6.52907C117.613 7.46657 117.8 8.50824 117.8 9.66657C117.8 10.8249 117.604 11.8666 117.221 12.8041C116.838 13.7416 116.292 14.5416 115.6 15.1999C114.908 15.8582 114.083 16.3666 113.138 16.7166C112.183 17.0666 111.15 17.2457 110.017 17.2457C108.883 17.2457 107.85 17.0666 106.904 16.7166C105.95 16.3666 105.125 15.8624 104.433 15.1999C103.742 14.5416 103.204 13.7416 102.813 12.8041C102.421 11.8666 102.233 10.8249 102.233 9.66657ZM105.533 9.66657C105.533 10.3416 105.638 10.9707 105.85 11.5332C106.063 12.0957 106.363 12.5832 106.754 12.9999C107.146 13.4166 107.617 13.7332 108.171 13.9707C108.717 14.1999 109.338 14.3207 110.013 14.3207C110.688 14.3207 111.308 14.2082 111.854 13.9707C112.4 13.7416 112.875 13.4166 113.271 12.9999C113.663 12.5832 113.963 12.0957 114.175 11.5332C114.388 10.9707 114.492 10.3499 114.492 9.66657C114.492 8.98324 114.388 8.3874 114.175 7.81657C113.963 7.24574 113.663 6.75824 113.271 6.34157C112.879 5.9249 112.408 5.60824 111.854 5.37074C111.3 5.14157 110.688 5.02074 110.013 5.02074C109.338 5.02074 108.717 5.13324 108.171 5.37074C107.617 5.5999 107.15 5.9249 106.754 6.34157C106.363 6.75824 106.063 7.24574 105.85 7.81657C105.638 8.3874 105.533 9.00824 105.533 9.66657Z" fill="white"/>
<g clip-path="url(#clip1_3687_13567)">
<path d="M20 40C31.0457 40 40 31.0457 40 20C40 8.9543 31.0457 0 20 0C8.9543 0 0 8.9543 0 20C0 31.0457 8.9543 40 20 40Z" fill="url(#paint0_linear_3687_13567)"/>
<path d="M20 40C31.0457 40 40 31.0457 40 20C40 8.9543 31.0457 0 20 0C8.9543 0 0 8.9543 0 20C0 31.0457 8.9543 40 20 40Z" fill="url(#paint1_radial_3687_13567)"/>
<path d="M20 1.25C30.3375 1.25 38.75 9.6625 38.75 20C38.75 30.3375 30.3375 38.75 20 38.75C9.6625 38.75 1.25 30.3375 1.25 20C1.25 9.6625 9.6625 1.25 20 1.25ZM20 0C8.95 0 0 8.95 0 20C0 31.05 8.95 40 20 40C31.05 40 40 31.05 40 20C40 8.95 31.05 0 20 0Z" fill="url(#paint2_linear_3687_13567)"/>
<path d="M25 32.5V30H15V32.5H25Z" fill="#272B38" fill-opacity="0.45"/>
<path d="M27.5 27.5H25V30H27.5V27.5Z" fill="#272B38" fill-opacity="0.45"/>
<path d="M15 27.5H12.5V30H15V27.5Z" fill="#272B38" fill-opacity="0.45"/>
<path d="M30 25H27.5V27.5H30V25Z" fill="#272B38" fill-opacity="0.45"/>
<path d="M30 15H27.5V17.5H30V15Z" fill="#272B38" fill-opacity="0.45"/>
<path d="M10 17.5H7.5V20H10V22.5H7.5V25H10V27.5H12.5V25H22.5V22.5H12.5V20H25V17.5H12.5V15H10V17.5Z" fill="#272B38" fill-opacity="0.45"/>
<path d="M27.5 12.5H25V15H27.5V12.5Z" fill="#272B38" fill-opacity="0.45"/>
<path d="M15 12.5H12.5V15H15V12.5Z" fill="#272B38" fill-opacity="0.45"/>
<path d="M15 10V12.5H25V10H15Z" fill="#272B38" fill-opacity="0.45"/>
<path d="M25 31.25V28.75H15V31.25H25Z" fill="url(#paint3_linear_3687_13567)"/>
<path d="M27.5 26.25H25V28.75H27.5V26.25Z" fill="url(#paint4_linear_3687_13567)"/>
<path d="M15 26.25H12.5V28.75H15V26.25Z" fill="url(#paint5_linear_3687_13567)"/>
<path d="M30 23.75H27.5V26.25H30V23.75Z" fill="url(#paint6_linear_3687_13567)"/>
<path d="M30 13.75H27.5V16.25H30V13.75Z" fill="url(#paint7_linear_3687_13567)"/>
<path d="M10 16.25H7.5V18.75H10V21.25H7.5V23.75H10V26.25H12.5V23.75H22.5V21.25H12.5V18.75H25V16.25H12.5V13.75H10V16.25Z" fill="url(#paint8_linear_3687_13567)"/>
<path d="M27.5 11.25H25V13.75H27.5V11.25Z" fill="url(#paint9_linear_3687_13567)"/>
<path d="M15 11.25H12.5V13.75H15V11.25Z" fill="url(#paint10_linear_3687_13567)"/>
<path d="M15 8.75V11.25H25V8.75H15Z" fill="url(#paint11_linear_3687_13567)"/>
</g>
</g>
<defs>
<linearGradient id="paint0_linear_3687_13567" x1="20" y1="40" x2="20" y2="0" gradientUnits="userSpaceOnUse">
<stop stop-color="#424756"/>
<stop offset="0.31" stop-color="#505565"/>
<stop offset="0.42" stop-color="#5F6475"/>
<stop offset="0.61" stop-color="#747A8B"/>
<stop offset="0.73" stop-color="#7C8394"/>
<stop offset="0.88" stop-color="#757C8C"/>
<stop offset="1" stop-color="#6E7484"/>
</linearGradient>
<radialGradient id="paint1_radial_3687_13567" cx="0" cy="0" r="1" gradientUnits="userSpaceOnUse" gradientTransform="translate(20 20) rotate(90) scale(20)">
<stop offset="0.80207" stop-color="#272B38" stop-opacity="0"/>
<stop offset="0.848055" stop-color="#272B38" stop-opacity="0.0421641"/>
<stop offset="0.882811" stop-color="#272B38" stop-opacity="0.0948692"/>
<stop offset="0.913817" stop-color="#272B38" stop-opacity="0.15"/>
<stop offset="0.957038" stop-color="#272B38" stop-opacity="0.34"/>
</radialGradient>
<linearGradient id="paint2_linear_3687_13567" x1="20" y1="40" x2="20" y2="0" gradientUnits="userSpaceOnUse">
<stop stop-color="#6D6E7C"/>
<stop offset="0.17" stop-color="#7A7C8A"/>
<stop offset="0.51" stop-color="#9EA2B1"/>
<stop offset="0.67" stop-color="#B3B8C7"/>
</linearGradient>
<linearGradient id="paint3_linear_3687_13567" x1="18.75" y1="10" x2="18.75" y2="29.7917" gradientUnits="userSpaceOnUse">
<stop offset="0.4" stop-color="white"/>
<stop offset="0.54" stop-color="#EAEAEC"/>
<stop offset="0.84" stop-color="#C4C6CB"/>
<stop offset="0.99" stop-color="#B6B8BF"/>
</linearGradient>
<linearGradient id="paint4_linear_3687_13567" x1="18.75" y1="10" x2="18.75" y2="29.7917" gradientUnits="userSpaceOnUse">
<stop offset="0.4" stop-color="white"/>
<stop offset="0.54" stop-color="#EAEAEC"/>
<stop offset="0.84" stop-color="#C4C6CB"/>
<stop offset="0.99" stop-color="#B6B8BF"/>
</linearGradient>
<linearGradient id="paint5_linear_3687_13567" x1="18.75" y1="10" x2="18.75" y2="29.7917" gradientUnits="userSpaceOnUse">
<stop offset="0.4" stop-color="white"/>
<stop offset="0.54" stop-color="#EAEAEC"/>
<stop offset="0.84" stop-color="#C4C6CB"/>
<stop offset="0.99" stop-color="#B6B8BF"/>
</linearGradient>
<linearGradient id="paint6_linear_3687_13567" x1="18.75" y1="10" x2="18.75" y2="29.7917" gradientUnits="userSpaceOnUse">
<stop offset="0.4" stop-color="white"/>
<stop offset="0.54" stop-color="#EAEAEC"/>
<stop offset="0.84" stop-color="#C4C6CB"/>
<stop offset="0.99" stop-color="#B6B8BF"/>
</linearGradient>
<linearGradient id="paint7_linear_3687_13567" x1="18.75" y1="10" x2="18.75" y2="29.7917" gradientUnits="userSpaceOnUse">
<stop offset="0.4" stop-color="white"/>
<stop offset="0.54" stop-color="#EAEAEC"/>
<stop offset="0.84" stop-color="#C4C6CB"/>
<stop offset="0.99" stop-color="#B6B8BF"/>
</linearGradient>
<linearGradient id="paint8_linear_3687_13567" x1="18.75" y1="10" x2="18.75" y2="29.7917" gradientUnits="userSpaceOnUse">
<stop offset="0.4" stop-color="white"/>
<stop offset="0.54" stop-color="#EAEAEC"/>
<stop offset="0.84" stop-color="#C4C6CB"/>
<stop offset="0.99" stop-color="#B6B8BF"/>
</linearGradient>
<linearGradient id="paint9_linear_3687_13567" x1="18.75" y1="10" x2="18.75" y2="29.7917" gradientUnits="userSpaceOnUse">
<stop offset="0.4" stop-color="white"/>
<stop offset="0.54" stop-color="#EAEAEC"/>
<stop offset="0.84" stop-color="#C4C6CB"/>
<stop offset="0.99" stop-color="#B6B8BF"/>
</linearGradient>
<linearGradient id="paint10_linear_3687_13567" x1="18.75" y1="10" x2="18.75" y2="29.7917" gradientUnits="userSpaceOnUse">
<stop offset="0.4" stop-color="white"/>
<stop offset="0.54" stop-color="#EAEAEC"/>
<stop offset="0.84" stop-color="#C4C6CB"/>
<stop offset="0.99" stop-color="#B6B8BF"/>
</linearGradient>
<linearGradient id="paint11_linear_3687_13567" x1="18.75" y1="10" x2="18.75" y2="29.7917" gradientUnits="userSpaceOnUse">
<stop offset="0.4" stop-color="white"/>
<stop offset="0.54" stop-color="#EAEAEC"/>
<stop offset="0.84" stop-color="#C4C6CB"/>
<stop offset="0.99" stop-color="#B6B8BF"/>
</linearGradient>
<clipPath id="clip0_3687_13567">
<rect width="159.354" height="40" fill="white"/>
</clipPath>
<clipPath id="clip1_3687_13567">
<rect width="40" height="40" fill="white"/>
</clipPath>
</defs>
</svg>
