<svg width="46" height="46" viewBox="0 0 46 46" fill="none" xmlns="http://www.w3.org/2000/svg">
<g clip-path="url(#clip0_3232_7371)">
<g clip-path="url(#clip1_3232_7371)">
<path d="M20.125 40.25C31.2397 40.25 40.25 31.2397 40.25 20.125C40.25 9.01027 31.2397 0 20.125 0C9.01027 0 0 9.01027 0 20.125C0 31.2397 9.01027 40.25 20.125 40.25Z" fill="url(#paint0_linear_3232_7371)"/>
<path d="M20.125 40.25C31.2397 40.25 40.25 31.2397 40.25 20.125C40.25 9.01027 31.2397 0 20.125 0C9.01027 0 0 9.01027 0 20.125C0 31.2397 9.01027 40.25 20.125 40.25Z" fill="url(#paint1_radial_3232_7371)"/>
<path d="M20.125 1.25781C30.5271 1.25781 38.9922 9.72289 38.9922 20.125C38.9922 30.5271 30.5271 38.9922 20.125 38.9922C9.72289 38.9922 1.25781 30.5271 1.25781 20.125C1.25781 9.72289 9.72289 1.25781 20.125 1.25781ZM20.125 0C9.00594 0 0 9.00594 0 20.125C0 31.2441 9.00594 40.25 20.125 40.25C31.2441 40.25 40.25 31.2441 40.25 20.125C40.25 9.00594 31.2441 0 20.125 0Z" fill="url(#paint2_linear_3232_7371)"/>
<path d="M25.1563 32.7031V30.1875H15.0938V32.7031H25.1563Z" fill="#272B38" fill-opacity="0.45"/>
<path d="M27.6719 27.6719H25.1563V30.1875H27.6719V27.6719Z" fill="#272B38" fill-opacity="0.45"/>
<path d="M15.0938 27.6719H12.5781V30.1875H15.0938V27.6719Z" fill="#272B38" fill-opacity="0.45"/>
<path d="M30.1875 25.1563H27.6719V27.6719H30.1875V25.1563Z" fill="#272B38" fill-opacity="0.45"/>
<path d="M30.1875 15.0938H27.6719V17.6094H30.1875V15.0938Z" fill="#272B38" fill-opacity="0.45"/>
<path d="M10.0625 17.6094H7.54688V20.125H10.0625V22.6406H7.54688V25.1563H10.0625V27.6719H12.5781V25.1563H22.6406V22.6406H12.5781V20.125H25.1563V17.6094H12.5781V15.0938H10.0625V17.6094Z" fill="#272B38" fill-opacity="0.45"/>
<path d="M27.6719 12.5781H25.1563V15.0938H27.6719V12.5781Z" fill="#272B38" fill-opacity="0.45"/>
<path d="M15.0938 12.5781H12.5781V15.0938H15.0938V12.5781Z" fill="#272B38" fill-opacity="0.45"/>
<path d="M15.0938 10.0625V12.5781H25.1563V10.0625H15.0938Z" fill="#272B38" fill-opacity="0.45"/>
<path d="M25.1563 31.4453V28.9297H15.0938V31.4453H25.1563Z" fill="url(#paint3_linear_3232_7371)"/>
<path d="M27.6719 26.4141H25.1563V28.9297H27.6719V26.4141Z" fill="url(#paint4_linear_3232_7371)"/>
<path d="M15.0938 26.4141H12.5781V28.9297H15.0938V26.4141Z" fill="url(#paint5_linear_3232_7371)"/>
<path d="M30.1875 23.8984H27.6719V26.4141H30.1875V23.8984Z" fill="url(#paint6_linear_3232_7371)"/>
<path d="M30.1875 13.8359H27.6719V16.3516H30.1875V13.8359Z" fill="url(#paint7_linear_3232_7371)"/>
<path d="M10.0625 16.3516H7.54688V18.8672H10.0625V21.3828H7.54688V23.8984H10.0625V26.4141H12.5781V23.8984H22.6406V21.3828H12.5781V18.8672H25.1563V16.3516H12.5781V13.8359H10.0625V16.3516Z" fill="url(#paint8_linear_3232_7371)"/>
<path d="M27.6719 11.3203H25.1563V13.8359H27.6719V11.3203Z" fill="url(#paint9_linear_3232_7371)"/>
<path d="M15.0938 11.3203H12.5781V13.8359H15.0938V11.3203Z" fill="url(#paint10_linear_3232_7371)"/>
<path d="M15.0938 8.80469V11.3203H25.1563V8.80469H15.0938Z" fill="url(#paint11_linear_3232_7371)"/>
</g>
<path d="M39.1849 26.6034C37.1789 32.5069 32.5072 37.1787 26.6036 39.1847C26.4405 38.4478 26.3545 37.6819 26.3545 36.8959C26.3545 31.0739 31.0742 26.3542 36.8962 26.3542C37.6821 26.3542 38.448 26.4403 39.1849 26.6034Z" fill="white"/>
<g clip-path="url(#clip2_3232_7371)">
<path d="M36.8962 46.0001C41.9243 46.0001 46.0003 41.924 46.0003 36.8959C46.0003 31.8678 41.9243 27.7917 36.8962 27.7917C31.8681 27.7917 27.792 31.8678 27.792 36.8959C27.792 41.924 31.8681 46.0001 36.8962 46.0001Z" fill="#00193C"/>
<path d="M34.6679 37.6462C34.9786 37.6462 35.2817 37.5426 35.5268 37.3532L33.5565 35.3829C33.0816 35.9967 33.1953 36.8808 33.8091 37.3557C34.0566 37.5426 34.3572 37.6462 34.6679 37.6462Z" fill="white"/>
<path d="M40.5282 36.2392C40.5282 35.9285 40.4246 35.6254 40.2352 35.3804L38.2649 37.3506C38.8787 37.8255 39.7603 37.7119 40.2352 37.098C40.4246 36.853 40.5282 36.5499 40.5282 36.2392Z" fill="white"/>
<path d="M41.5209 34.0946L40.6494 34.9661C41.3517 35.8073 41.2405 37.0601 40.3994 37.7624C39.6618 38.3787 38.5908 38.3787 37.8532 37.7624L36.8958 38.7197L35.941 37.7649C35.0999 38.4671 33.847 38.356 33.1448 37.5148C32.5284 36.7772 32.5284 35.7062 33.1448 34.9686L32.6977 34.5215L32.2733 34.0946C31.7605 34.9383 31.4902 35.9083 31.4902 36.896C31.4902 39.8817 33.9101 42.3016 36.8958 42.3016C39.8815 42.3016 42.3014 39.8817 42.3014 36.896C42.304 35.9083 42.0312 34.9383 41.5209 34.0946Z" fill="white"/>
<path d="M40.8061 33.1651C38.7474 31.0054 35.3272 30.9245 33.1675 32.9832C33.1043 33.0438 33.0437 33.1045 32.9856 33.1651C32.8517 33.3065 32.7254 33.453 32.6067 33.6071L36.8958 37.8988L41.1849 33.6071C41.0688 33.453 40.9399 33.3065 40.8061 33.1651ZM36.8958 32.1976C38.1588 32.1976 39.3359 32.6852 40.22 33.5743L36.8958 36.8985L33.5716 33.5743C34.4557 32.6852 35.6328 32.1976 36.8958 32.1976Z" fill="white"/>
</g>
</g>
<defs>
<linearGradient id="paint0_linear_3232_7371" x1="20.125" y1="40.25" x2="20.125" y2="0" gradientUnits="userSpaceOnUse">
<stop stop-color="#424756"/>
<stop offset="0.31" stop-color="#505565"/>
<stop offset="0.42" stop-color="#5F6475"/>
<stop offset="0.61" stop-color="#747A8B"/>
<stop offset="0.73" stop-color="#7C8394"/>
<stop offset="0.88" stop-color="#757C8C"/>
<stop offset="1" stop-color="#6E7484"/>
</linearGradient>
<radialGradient id="paint1_radial_3232_7371" cx="0" cy="0" r="1" gradientUnits="userSpaceOnUse" gradientTransform="translate(20.125 20.125) rotate(90) scale(20.125)">
<stop offset="0.80207" stop-color="#272B38" stop-opacity="0"/>
<stop offset="0.848055" stop-color="#272B38" stop-opacity="0.0421641"/>
<stop offset="0.882811" stop-color="#272B38" stop-opacity="0.0948692"/>
<stop offset="0.913817" stop-color="#272B38" stop-opacity="0.15"/>
<stop offset="0.957038" stop-color="#272B38" stop-opacity="0.34"/>
</radialGradient>
<linearGradient id="paint2_linear_3232_7371" x1="20.125" y1="40.25" x2="20.125" y2="0" gradientUnits="userSpaceOnUse">
<stop stop-color="#6D6E7C"/>
<stop offset="0.17" stop-color="#7A7C8A"/>
<stop offset="0.51" stop-color="#9EA2B1"/>
<stop offset="0.67" stop-color="#B3B8C7"/>
</linearGradient>
<linearGradient id="paint3_linear_3232_7371" x1="18.8672" y1="10.0625" x2="18.8672" y2="29.9779" gradientUnits="userSpaceOnUse">
<stop offset="0.4" stop-color="white"/>
<stop offset="0.54" stop-color="#EAEAEC"/>
<stop offset="0.84" stop-color="#C4C6CB"/>
<stop offset="0.99" stop-color="#B6B8BF"/>
</linearGradient>
<linearGradient id="paint4_linear_3232_7371" x1="18.8672" y1="10.0625" x2="18.8672" y2="29.9779" gradientUnits="userSpaceOnUse">
<stop offset="0.4" stop-color="white"/>
<stop offset="0.54" stop-color="#EAEAEC"/>
<stop offset="0.84" stop-color="#C4C6CB"/>
<stop offset="0.99" stop-color="#B6B8BF"/>
</linearGradient>
<linearGradient id="paint5_linear_3232_7371" x1="18.8672" y1="10.0625" x2="18.8672" y2="29.9779" gradientUnits="userSpaceOnUse">
<stop offset="0.4" stop-color="white"/>
<stop offset="0.54" stop-color="#EAEAEC"/>
<stop offset="0.84" stop-color="#C4C6CB"/>
<stop offset="0.99" stop-color="#B6B8BF"/>
</linearGradient>
<linearGradient id="paint6_linear_3232_7371" x1="18.8672" y1="10.0625" x2="18.8672" y2="29.9779" gradientUnits="userSpaceOnUse">
<stop offset="0.4" stop-color="white"/>
<stop offset="0.54" stop-color="#EAEAEC"/>
<stop offset="0.84" stop-color="#C4C6CB"/>
<stop offset="0.99" stop-color="#B6B8BF"/>
</linearGradient>
<linearGradient id="paint7_linear_3232_7371" x1="18.8672" y1="10.0625" x2="18.8672" y2="29.9779" gradientUnits="userSpaceOnUse">
<stop offset="0.4" stop-color="white"/>
<stop offset="0.54" stop-color="#EAEAEC"/>
<stop offset="0.84" stop-color="#C4C6CB"/>
<stop offset="0.99" stop-color="#B6B8BF"/>
</linearGradient>
<linearGradient id="paint8_linear_3232_7371" x1="18.8672" y1="10.0625" x2="18.8672" y2="29.9779" gradientUnits="userSpaceOnUse">
<stop offset="0.4" stop-color="white"/>
<stop offset="0.54" stop-color="#EAEAEC"/>
<stop offset="0.84" stop-color="#C4C6CB"/>
<stop offset="0.99" stop-color="#B6B8BF"/>
</linearGradient>
<linearGradient id="paint9_linear_3232_7371" x1="18.8672" y1="10.0625" x2="18.8672" y2="29.9779" gradientUnits="userSpaceOnUse">
<stop offset="0.4" stop-color="white"/>
<stop offset="0.54" stop-color="#EAEAEC"/>
<stop offset="0.84" stop-color="#C4C6CB"/>
<stop offset="0.99" stop-color="#B6B8BF"/>
</linearGradient>
<linearGradient id="paint10_linear_3232_7371" x1="18.8672" y1="10.0625" x2="18.8672" y2="29.9779" gradientUnits="userSpaceOnUse">
<stop offset="0.4" stop-color="white"/>
<stop offset="0.54" stop-color="#EAEAEC"/>
<stop offset="0.84" stop-color="#C4C6CB"/>
<stop offset="0.99" stop-color="#B6B8BF"/>
</linearGradient>
<linearGradient id="paint11_linear_3232_7371" x1="18.8672" y1="10.0625" x2="18.8672" y2="29.9779" gradientUnits="userSpaceOnUse">
<stop offset="0.4" stop-color="white"/>
<stop offset="0.54" stop-color="#EAEAEC"/>
<stop offset="0.84" stop-color="#C4C6CB"/>
<stop offset="0.99" stop-color="#B6B8BF"/>
</linearGradient>
<clipPath id="clip0_3232_7371">
<rect width="46" height="46" fill="white"/>
</clipPath>
<clipPath id="clip1_3232_7371">
<rect width="40.25" height="40.25" fill="white"/>
</clipPath>
<clipPath id="clip2_3232_7371">
<rect width="18.2083" height="18.2083" fill="white" transform="translate(27.792 27.7917)"/>
</clipPath>
</defs>
</svg>
