<svg width="49" height="48" viewBox="0 0 49 48" fill="none" xmlns="http://www.w3.org/2000/svg">
<g clip-path="url(#clip0_305_6414)">
<g clip-path="url(#clip1_305_6414)">
<path d="M21.887 42C33.4849 42 42.887 32.598 42.887 21C42.887 9.40202 33.4849 0 21.887 0C10.289 0 0.886963 9.40202 0.886963 21C0.886963 32.598 10.289 42 21.887 42Z" fill="url(#paint0_linear_305_6414)"/>
<path d="M21.887 42C33.4849 42 42.887 32.598 42.887 21C42.887 9.40202 33.4849 0 21.887 0C10.289 0 0.886963 9.40202 0.886963 21C0.886963 32.598 10.289 42 21.887 42Z" fill="url(#paint1_radial_305_6414)"/>
<path d="M21.887 1.3125C32.7413 1.3125 41.5745 10.1456 41.5745 21C41.5745 31.8544 32.7413 40.6875 21.887 40.6875C11.0326 40.6875 2.19946 31.8544 2.19946 21C2.19946 10.1456 11.0326 1.3125 21.887 1.3125ZM21.887 0C10.2845 0 0.886963 9.3975 0.886963 21C0.886963 32.6025 10.2845 42 21.887 42C33.4895 42 42.887 32.6025 42.887 21C42.887 9.3975 33.4895 0 21.887 0Z" fill="url(#paint2_linear_305_6414)"/>
<path d="M27.137 34.125V31.5H16.637V34.125H27.137Z" fill="#272B38" fill-opacity="0.45"/>
<path d="M29.762 28.875H27.137V31.5H29.762V28.875Z" fill="#272B38" fill-opacity="0.45"/>
<path d="M16.637 28.875H14.012V31.5H16.637V28.875Z" fill="#272B38" fill-opacity="0.45"/>
<path d="M32.387 26.25H29.762V28.875H32.387V26.25Z" fill="#272B38" fill-opacity="0.45"/>
<path d="M32.387 15.75H29.762V18.375H32.387V15.75Z" fill="#272B38" fill-opacity="0.45"/>
<path d="M11.387 18.375H8.76196V21H11.387V23.625H8.76196V26.25H11.387V28.875H14.012V26.25H24.512V23.625H14.012V21H27.137V18.375H14.012V15.75H11.387V18.375Z" fill="#272B38" fill-opacity="0.45"/>
<path d="M29.762 13.125H27.137V15.75H29.762V13.125Z" fill="#272B38" fill-opacity="0.45"/>
<path d="M16.637 13.125H14.012V15.75H16.637V13.125Z" fill="#272B38" fill-opacity="0.45"/>
<path d="M16.637 10.5V13.125H27.137V10.5H16.637Z" fill="#272B38" fill-opacity="0.45"/>
<path d="M27.137 32.8125V30.1875H16.637V32.8125H27.137Z" fill="url(#paint3_linear_305_6414)"/>
<path d="M29.762 27.5625H27.137V30.1875H29.762V27.5625Z" fill="url(#paint4_linear_305_6414)"/>
<path d="M16.637 27.5625H14.012V30.1875H16.637V27.5625Z" fill="url(#paint5_linear_305_6414)"/>
<path d="M32.387 24.9375H29.762V27.5625H32.387V24.9375Z" fill="url(#paint6_linear_305_6414)"/>
<path d="M32.387 14.4375H29.762V17.0625H32.387V14.4375Z" fill="url(#paint7_linear_305_6414)"/>
<path d="M11.387 17.0625H8.76196V19.6875H11.387V22.3125H8.76196V24.9375H11.387V27.5625H14.012V24.9375H24.512V22.3125H14.012V19.6875H27.137V17.0625H14.012V14.4375H11.387V17.0625Z" fill="url(#paint8_linear_305_6414)"/>
<path d="M29.762 11.8125H27.137V14.4375H29.762V11.8125Z" fill="url(#paint9_linear_305_6414)"/>
<path d="M16.637 11.8125H14.012V14.4375H16.637V11.8125Z" fill="url(#paint10_linear_305_6414)"/>
<path d="M16.637 9.1875V11.8125H27.137V9.1875H16.637Z" fill="url(#paint11_linear_305_6414)"/>
</g>
<path d="M41.7752 27.76C39.682 33.9202 34.8071 38.7951 28.6469 40.8883C28.4767 40.1193 28.387 39.3201 28.387 38.5C28.387 32.4249 33.3118 27.5 39.387 27.5C40.2071 27.5 41.0063 27.5898 41.7752 27.76Z" fill="white"/>
<circle cx="39.387" cy="38.5" r="9.5" fill="#8247E5"/>
<path d="M42.5107 36.4228C42.2887 36.2959 42.0033 36.2959 41.7496 36.4228L39.9736 37.4693L38.7685 38.1353L37.0242 39.1818C36.8022 39.3087 36.5168 39.3087 36.2631 39.1818L34.8994 38.3573C34.6774 38.2304 34.5188 37.9767 34.5188 37.6913V36.1056C34.5188 35.8519 34.6457 35.5982 34.8994 35.4396L36.2631 34.6468C36.4851 34.5199 36.7705 34.5199 37.0242 34.6468L38.3879 35.4713C38.6099 35.5982 38.7685 35.8519 38.7685 36.1373V37.1839L39.9736 36.4862V35.4079C39.9736 35.1542 39.8467 34.9005 39.593 34.7419L37.0559 33.2514C36.8339 33.1245 36.5485 33.1245 36.2948 33.2514L33.6943 34.7736C33.4406 34.9005 33.3137 35.1542 33.3137 35.4079V38.389C33.3137 38.6427 33.4406 38.8964 33.6943 39.055L36.2631 40.5455C36.4851 40.6724 36.7705 40.6724 37.0242 40.5455L38.7685 39.5307L39.9736 38.833L41.7178 37.8182C41.9398 37.6913 42.2253 37.6913 42.479 37.8182L43.8427 38.611C44.0646 38.7379 44.2232 38.9916 44.2232 39.277V40.8627C44.2232 41.1164 44.0964 41.3701 43.8427 41.5287L42.5107 42.3215C42.2887 42.4483 42.0033 42.4483 41.7496 42.3215L40.3859 41.5287C40.1639 41.4018 40.0053 41.1481 40.0053 40.8627V39.8478L38.8002 40.5455V41.5921C38.8002 41.8458 38.927 42.0995 39.1807 42.2581L41.7496 43.7486C41.9715 43.8755 42.257 43.8755 42.5107 43.7486L45.0795 42.2581C45.3015 42.1312 45.46 41.8775 45.46 41.5921V38.5793C45.46 38.3256 45.3332 38.0719 45.0795 37.9133L42.5107 36.4228Z" fill="white"/>
</g>
<defs>
<linearGradient id="paint0_linear_305_6414" x1="21.887" y1="42" x2="21.887" y2="0" gradientUnits="userSpaceOnUse">
<stop stop-color="#424756"/>
<stop offset="0.31" stop-color="#505565"/>
<stop offset="0.42" stop-color="#5F6475"/>
<stop offset="0.61" stop-color="#747A8B"/>
<stop offset="0.73" stop-color="#7C8394"/>
<stop offset="0.88" stop-color="#757C8C"/>
<stop offset="1" stop-color="#6E7484"/>
</linearGradient>
<radialGradient id="paint1_radial_305_6414" cx="0" cy="0" r="1" gradientUnits="userSpaceOnUse" gradientTransform="translate(21.887 21) rotate(90) scale(21)">
<stop offset="0.80207" stop-color="#272B38" stop-opacity="0"/>
<stop offset="0.848055" stop-color="#272B38" stop-opacity="0.0421641"/>
<stop offset="0.882811" stop-color="#272B38" stop-opacity="0.0948692"/>
<stop offset="0.913817" stop-color="#272B38" stop-opacity="0.15"/>
<stop offset="0.957038" stop-color="#272B38" stop-opacity="0.34"/>
</radialGradient>
<linearGradient id="paint2_linear_305_6414" x1="21.887" y1="42" x2="21.887" y2="0" gradientUnits="userSpaceOnUse">
<stop stop-color="#6D6E7C"/>
<stop offset="0.17" stop-color="#7A7C8A"/>
<stop offset="0.51" stop-color="#9EA2B1"/>
<stop offset="0.67" stop-color="#B3B8C7"/>
</linearGradient>
<linearGradient id="paint3_linear_305_6414" x1="20.5745" y1="10.5" x2="20.5745" y2="31.2812" gradientUnits="userSpaceOnUse">
<stop offset="0.4" stop-color="white"/>
<stop offset="0.54" stop-color="#EAEAEC"/>
<stop offset="0.84" stop-color="#C4C6CB"/>
<stop offset="0.99" stop-color="#B6B8BF"/>
</linearGradient>
<linearGradient id="paint4_linear_305_6414" x1="20.5745" y1="10.5" x2="20.5745" y2="31.2812" gradientUnits="userSpaceOnUse">
<stop offset="0.4" stop-color="white"/>
<stop offset="0.54" stop-color="#EAEAEC"/>
<stop offset="0.84" stop-color="#C4C6CB"/>
<stop offset="0.99" stop-color="#B6B8BF"/>
</linearGradient>
<linearGradient id="paint5_linear_305_6414" x1="20.5745" y1="10.5" x2="20.5745" y2="31.2812" gradientUnits="userSpaceOnUse">
<stop offset="0.4" stop-color="white"/>
<stop offset="0.54" stop-color="#EAEAEC"/>
<stop offset="0.84" stop-color="#C4C6CB"/>
<stop offset="0.99" stop-color="#B6B8BF"/>
</linearGradient>
<linearGradient id="paint6_linear_305_6414" x1="20.5745" y1="10.5" x2="20.5745" y2="31.2812" gradientUnits="userSpaceOnUse">
<stop offset="0.4" stop-color="white"/>
<stop offset="0.54" stop-color="#EAEAEC"/>
<stop offset="0.84" stop-color="#C4C6CB"/>
<stop offset="0.99" stop-color="#B6B8BF"/>
</linearGradient>
<linearGradient id="paint7_linear_305_6414" x1="20.5745" y1="10.5" x2="20.5745" y2="31.2812" gradientUnits="userSpaceOnUse">
<stop offset="0.4" stop-color="white"/>
<stop offset="0.54" stop-color="#EAEAEC"/>
<stop offset="0.84" stop-color="#C4C6CB"/>
<stop offset="0.99" stop-color="#B6B8BF"/>
</linearGradient>
<linearGradient id="paint8_linear_305_6414" x1="20.5745" y1="10.5" x2="20.5745" y2="31.2812" gradientUnits="userSpaceOnUse">
<stop offset="0.4" stop-color="white"/>
<stop offset="0.54" stop-color="#EAEAEC"/>
<stop offset="0.84" stop-color="#C4C6CB"/>
<stop offset="0.99" stop-color="#B6B8BF"/>
</linearGradient>
<linearGradient id="paint9_linear_305_6414" x1="20.5745" y1="10.5" x2="20.5745" y2="31.2812" gradientUnits="userSpaceOnUse">
<stop offset="0.4" stop-color="white"/>
<stop offset="0.54" stop-color="#EAEAEC"/>
<stop offset="0.84" stop-color="#C4C6CB"/>
<stop offset="0.99" stop-color="#B6B8BF"/>
</linearGradient>
<linearGradient id="paint10_linear_305_6414" x1="20.5745" y1="10.5" x2="20.5745" y2="31.2812" gradientUnits="userSpaceOnUse">
<stop offset="0.4" stop-color="white"/>
<stop offset="0.54" stop-color="#EAEAEC"/>
<stop offset="0.84" stop-color="#C4C6CB"/>
<stop offset="0.99" stop-color="#B6B8BF"/>
</linearGradient>
<linearGradient id="paint11_linear_305_6414" x1="20.5745" y1="10.5" x2="20.5745" y2="31.2812" gradientUnits="userSpaceOnUse">
<stop offset="0.4" stop-color="white"/>
<stop offset="0.54" stop-color="#EAEAEC"/>
<stop offset="0.84" stop-color="#C4C6CB"/>
<stop offset="0.99" stop-color="#B6B8BF"/>
</linearGradient>
<clipPath id="clip0_305_6414">
<rect width="48" height="48" fill="white" transform="translate(0.886963)"/>
</clipPath>
<clipPath id="clip1_305_6414">
<rect width="42" height="42" fill="white" transform="translate(0.886963)"/>
</clipPath>
</defs>
</svg>
