<svg width="1200" height="197" viewBox="0 0 1200 197" fill="none" xmlns="http://www.w3.org/2000/svg">
<g clip-path="url(#clip0_3745_15283)">
<path d="M600 1484.38C1070.8 1484.38 1452.47 1155.56 1452.47 749.946C1452.47 344.331 1070.8 15.5146 600 15.5146C129.197 15.5146 -252.465 344.331 -252.465 749.946C-252.465 1155.56 129.197 1484.38 600 1484.38Z" fill="#1E222E"/>
<path d="M941.535 173.428L947.25 175.619L948.068 172.491L942.338 170.294L941.535 173.428Z" fill="#1274EE"/>
<path d="M434.138 125.82L440.453 124.766L440.078 121.516L433.756 122.569L434.138 125.82Z" fill="#1274EE"/>
<path d="M265.26 170.824L271.02 168.711L270.248 165.564L264.48 167.677L265.26 170.824Z" fill="#1274EE"/>
<path d="M897.607 144.785L903.555 146.704L904.162 143.725L898.2 141.799L897.607 144.785Z" fill="#1274EE"/>
<path d="M172.748 197.252L178.155 194.577L177.315 191.689L171.893 194.37L172.748 197.252Z" fill="#1274EE"/>
<path d="M307.156 130.86L313.178 129.012L312.706 126.208L306.676 128.056L307.156 130.86Z" fill="#1274EE"/>
<path d="M562.41 76.6279L569.175 76.4082L569.13 73.7461L562.365 73.9722L562.41 76.6279Z" fill="#1274EE"/>
<path d="M430.387 90.126L436.837 89.0534L436.627 86.4106L430.162 87.4833L430.387 90.126Z" fill="#1274EE"/>
<path d="M404.769 94.83L411.151 93.5959L410.904 90.9531L404.514 92.1937L404.769 94.83Z" fill="#1274EE"/>
<path d="M508.124 60.2412L514.822 59.6661L514.769 57.4434L508.064 58.0249L508.124 60.2412Z" fill="#1274EE"/>
<path d="M643.463 100.09L650.153 100.4L650.25 97.3243L643.553 97.0142L643.463 100.09Z" fill="#1274EE"/>
<path d="M442.11 184.071L448.118 183.069L447.548 179.095L441.518 180.097L442.11 184.071Z" fill="#1274EE"/>
<path d="M590.092 155.09L596.52 155.052L596.505 151.207L590.055 151.246L590.092 155.09Z" fill="#1274EE"/>
<path d="M564.031 140.584L570.503 140.371L570.413 136.701L563.926 136.92L564.031 140.584Z" fill="#1274EE"/>
<path d="M749.701 98.2543L756.181 99.2494L756.436 96.3999L749.949 95.4048L749.701 98.2543Z" fill="#1274EE"/>
<path d="M972.512 147.989L978.257 150.367L978.759 147.808L973.007 145.424L972.512 147.989Z" fill="#1274EE"/>
<path d="M803.205 86.0686L809.603 87.4061L809.805 84.9766L803.4 83.6455L803.205 86.0686Z" fill="#1274EE"/>
<path d="M671.805 50.1357L678.592 50.6332L678.615 48.643L671.827 48.1455L671.805 50.1357Z" fill="#1274EE"/>
<path d="M302.438 77.8165L308.55 75.9362L308.678 74.4307L302.558 76.3045L302.438 77.8165Z" fill="#1274EE"/>
<path d="M778.478 55.6085L784.988 56.7845L784.973 55.0334L778.463 53.8574L778.478 55.6085Z" fill="#1274EE"/>
<path d="M952.83 111.132L958.733 113.394L958.837 111.423L952.927 109.162L952.83 111.132Z" fill="#1274EE"/>
<path d="M976.523 112.813L982.335 115.217L982.305 113.459L976.5 111.056L976.523 112.813Z" fill="#1274EE"/>
<path d="M460.898 135.363L467.206 134.485L466.846 131.034L460.523 131.919L460.898 135.363Z" fill="#43495D"/>
<path d="M616.439 112.102L623.122 112.237L623.174 108.955L616.477 108.826L616.439 112.102Z" fill="#43495D"/>
<path d="M589.652 99.1912L596.372 99.1525L596.364 96.0703L589.637 96.1155L589.652 99.1912Z" fill="#43495D"/>
<path d="M285.638 150.244L291.525 148.267L290.91 145.282L285.008 147.265L285.638 150.244Z" fill="#43495D"/>
<path d="M216.736 176.788L222.346 174.384L221.588 171.457L215.971 173.867L216.736 176.788Z" fill="#43495D"/>
<path d="M194.542 186.752L200.047 184.206L199.252 181.298L193.732 183.844L194.542 186.752Z" fill="#43495D"/>
<path d="M483.172 93.8286L489.712 93.092L489.524 90.2295L482.977 90.9661L483.172 93.8286Z" fill="#43495D"/>
<path d="M331.372 123.694L337.477 122.001L337.042 119.184L330.93 120.883L331.372 123.694Z" fill="#43495D"/>
<path d="M379.441 100.174L385.749 98.7783L385.464 96.1484L379.156 97.5441L379.441 100.174Z" fill="#43495D"/>
<path d="M354.428 106.144L360.653 104.593L360.338 101.97L354.105 103.527L354.428 106.144Z" fill="#43495D"/>
<path d="M329.729 112.742L335.872 111.036L335.519 108.425L329.369 110.131L329.729 112.742Z" fill="#43495D"/>
<path d="M828.676 91.6383L834.991 93.1309L835.223 90.7143L828.893 89.2217L828.676 91.6383Z" fill="#43495D"/>
<path d="M724.957 73.2744L731.58 74.1144L731.707 71.6784L725.085 70.8384L724.957 73.2744Z" fill="#43495D"/>
<path d="M508.432 69.6751L515.107 69.1065L515.025 66.6641L508.35 67.2391L508.432 69.6751Z" fill="#43495D"/>
<path d="M778.014 71.749L784.509 72.925L784.629 70.7087L778.126 69.5327L778.014 71.749Z" fill="#43495D"/>
<path d="M698.648 60.9199L705.368 61.5919L705.428 59.3692L698.708 58.7036L698.648 60.9199Z" fill="#43495D"/>
<path d="M670.65 89.596L677.325 90.087L677.453 87.2181L670.763 86.7271L670.65 89.596Z" fill="#43495D"/>
<path d="M852.631 108.018L858.833 109.66L859.171 107.043L852.961 105.401L852.631 108.018Z" fill="#43495D"/>
<path d="M590.385 187.45L596.618 187.404L596.603 183.211L590.348 183.256L590.385 187.45Z" fill="#43495D"/>
<path d="M590.237 170.928L596.567 170.882L596.552 166.863L590.199 166.902L590.237 170.928Z" fill="#43495D"/>
<path d="M490.582 177.15L496.702 176.458L496.32 172.458L490.17 173.15L490.582 177.15Z" fill="#43495D"/>
<path d="M466.223 180.304L472.291 179.457L471.811 175.464L465.721 176.317L466.223 180.304Z" fill="#43495D"/>
<path d="M667.125 157.391L673.462 157.85L673.718 154.018L667.35 153.553L667.125 157.391Z" fill="#43495D"/>
<path d="M615.877 155.181L622.327 155.31L622.402 151.466L615.929 151.336L615.877 155.181Z" fill="#43495D"/>
<path d="M564.495 155.685L570.885 155.472L570.788 151.627L564.375 151.84L564.495 155.685Z" fill="#43495D"/>
<path d="M934.162 200.082L939.757 202.221L940.792 198.744L935.182 196.599L934.162 200.082Z" fill="#43495D"/>
<path d="M668.002 142.31L674.429 142.781L674.654 139.124L668.212 138.652L668.002 142.31Z" fill="#43495D"/>
<path d="M642.15 140.856L648.63 141.153L648.78 137.489L642.278 137.192L642.15 140.856Z" fill="#43495D"/>
<path d="M616.08 140.073L622.62 140.209L622.688 136.539L616.133 136.41L616.08 140.073Z" fill="#43495D"/>
<path d="M589.964 139.983L596.474 139.944L596.459 136.274L589.934 136.319L589.964 139.983Z" fill="#43495D"/>
<path d="M487.538 146.387L493.831 145.676L493.508 142.025L487.193 142.736L487.538 146.387Z" fill="#43495D"/>
<path d="M388.981 163.109L395.011 161.771L394.388 158.172L388.336 159.51L388.981 163.109Z" fill="#43495D"/>
<path d="M960.555 195.287L966.112 197.594L967.102 194.312L961.522 192.005L960.555 195.287Z" fill="#43495D"/>
<path d="M938.07 186.416L943.725 188.581L944.648 185.273L938.978 183.102L938.07 186.416Z" fill="#43495D"/>
<path d="M915.219 178.1L920.964 180.122L921.826 176.795L916.059 174.766L915.219 178.1Z" fill="#43495D"/>
<path d="M891.99 170.346L897.825 172.233L898.628 168.886L892.778 166.999L891.99 170.346Z" fill="#43495D"/>
<path d="M668.797 127.965L675.299 128.443L675.502 124.98L668.984 124.501L668.797 127.965Z" fill="#43495D"/>
<path d="M642.645 126.492L649.2 126.796L649.335 123.326L642.757 123.022L642.645 126.492Z" fill="#43495D"/>
<path d="M616.275 125.703L622.883 125.839L622.95 122.369L616.313 122.233L616.275 125.703Z" fill="#43495D"/>
<path d="M589.847 125.613L596.432 125.574L596.424 122.098L589.824 122.143L589.847 125.613Z" fill="#43495D"/>
<path d="M563.611 126.22L570.159 126L570.084 122.53L563.514 122.75L563.611 126.22Z" fill="#43495D"/>
<path d="M537.593 127.505L544.08 127.118L543.93 123.648L537.428 124.036L537.593 127.505Z" fill="#43495D"/>
<path d="M223.958 201.749L229.463 199.391L228.473 196.115L222.953 198.48L223.958 201.749Z" fill="#43495D"/>
<path d="M964.262 182.397L969.879 184.723L970.742 181.615L965.109 179.283L964.262 182.397Z" fill="#43495D"/>
<path d="M918.451 165.028L924.256 167.077L925.014 163.93L919.194 161.875L918.451 165.028Z" fill="#43495D"/>
<path d="M894.99 157.203L900.885 159.103L901.59 155.936L895.68 154.03L894.99 157.203Z" fill="#43495D"/>
<path d="M871.178 149.96L877.163 151.718L877.815 148.532L871.808 146.768L871.178 149.96Z" fill="#43495D"/>
<path d="M695.678 116.554L702.195 117.207L702.435 113.937L695.903 113.291L695.678 116.554Z" fill="#43495D"/>
<path d="M669.502 114.383L676.072 114.867L676.252 111.591L669.667 111.113L669.502 114.383Z" fill="#43495D"/>
<path d="M643.08 112.896L649.71 113.206L649.823 109.93L643.185 109.62L643.08 112.896Z" fill="#43495D"/>
<path d="M589.741 112.012L596.401 111.966L596.394 108.69L589.719 108.729L589.741 112.012Z" fill="#43495D"/>
<path d="M563.242 112.618L569.857 112.399L569.782 109.123L563.152 109.342L563.242 112.618Z" fill="#43495D"/>
<path d="M536.955 113.917L543.51 113.529L543.375 110.253L536.812 110.641L536.955 113.917Z" fill="#43495D"/>
<path d="M510.886 115.901L517.381 115.339L517.186 112.069L510.676 112.631L510.886 115.901Z" fill="#43495D"/>
<path d="M459.465 121.859L465.84 120.967L465.525 117.71L459.143 118.602L459.465 121.859Z" fill="#43495D"/>
<path d="M242.498 179.592L248.153 177.35L247.328 174.223L241.658 176.471L242.498 179.592Z" fill="#43495D"/>
<path d="M220.103 188.923L225.661 186.539L224.791 183.437L219.211 185.828L220.103 188.923Z" fill="#43495D"/>
<path d="M198.105 198.796L203.565 196.277L202.643 193.194L197.168 195.721L198.105 198.796Z" fill="#43495D"/>
<path d="M944.574 161.158L950.334 163.367L951.032 160.414L945.257 158.205L944.574 161.158Z" fill="#43495D"/>
<path d="M921.277 152.687L927.135 154.748L927.787 151.782L921.915 149.714L921.277 152.687Z" fill="#43495D"/>
<path d="M873.578 137.483L879.623 139.254L880.186 136.255L874.126 134.479L873.578 137.483Z" fill="#43495D"/>
<path d="M849.219 130.775L855.346 132.397L855.856 129.38L849.721 127.758L849.219 130.775Z" fill="#43495D"/>
<path d="M774.188 114.376L780.547 115.526L780.907 112.476L774.54 111.326L774.188 114.376Z" fill="#43495D"/>
<path d="M696.533 103.779L703.103 104.438L703.306 101.369L696.721 100.71L696.533 103.779Z" fill="#43495D"/>
<path d="M670.125 101.588L676.747 102.073L676.898 99.0037L670.26 98.519L670.125 101.588Z" fill="#43495D"/>
<path d="M616.59 99.2887L623.325 99.4179L623.377 96.3422L616.62 96.2065L616.59 99.2887Z" fill="#43495D"/>
<path d="M562.913 99.8052L569.588 99.5855L569.528 96.5098L562.846 96.7295L562.913 99.8052Z" fill="#43495D"/>
<path d="M536.401 101.117L543.008 100.729L542.896 97.6533L536.273 98.0475L536.401 101.117Z" fill="#43495D"/>
<path d="M510.098 103.12L516.645 102.552L516.48 99.4824L509.918 100.045L510.098 103.12Z" fill="#43495D"/>
<path d="M432.668 113.123L439.035 112.063L438.72 109.013L432.338 110.073L432.668 113.123Z" fill="#43495D"/>
<path d="M382.417 123.035L388.627 121.659L388.207 118.622L381.982 120.004L382.417 123.035Z" fill="#43495D"/>
<path d="M357.736 128.927L363.878 127.396L363.406 124.372L357.256 125.91L357.736 128.927Z" fill="#43495D"/>
<path d="M262.296 158.528L268.101 156.402L267.441 153.437L261.621 155.569L262.296 158.528Z" fill="#43495D"/>
<path d="M239.325 167.38L245.033 165.112L244.328 162.166L238.605 164.434L239.325 167.38Z" fill="#43495D"/>
<path d="M947.152 149.611L952.957 151.84L953.542 149.074L947.73 146.845L947.152 149.611Z" fill="#43495D"/>
<path d="M923.684 141.075L929.586 143.156L930.134 140.377L924.216 138.29L923.684 141.075Z" fill="#43495D"/>
<path d="M899.836 133.115L905.836 135.053L906.338 132.255L900.338 130.323L899.836 133.115Z" fill="#43495D"/>
<path d="M875.633 125.755L881.723 127.538L882.188 124.734L876.09 122.944L875.633 125.755Z" fill="#43495D"/>
<path d="M851.094 119.003L857.259 120.631L857.686 117.814L851.506 116.179L851.094 119.003Z" fill="#43495D"/>
<path d="M826.207 112.864L832.455 114.338L832.837 111.507L826.582 110.034L826.207 112.864Z" fill="#43495D"/>
<path d="M801.008 107.353L807.338 108.671L807.683 105.834L801.345 104.51L801.008 107.353Z" fill="#43495D"/>
<path d="M775.5 102.48L781.905 103.637L782.205 100.787L775.785 99.6309L775.5 102.48Z" fill="#43495D"/>
<path d="M723.615 94.6945L730.155 95.5216L730.373 92.6656L723.818 91.832L723.615 94.6945Z" fill="#43495D"/>
<path d="M697.252 91.8059L703.874 92.465L704.047 89.6025L697.417 88.937L697.252 91.8059Z" fill="#43495D"/>
<path d="M643.793 88.0838L650.528 88.3939L650.61 85.525L643.868 85.2148L643.793 88.0838Z" fill="#43495D"/>
<path d="M616.711 87.2768L623.506 87.4124L623.543 84.5371L616.741 84.4014L616.711 87.2768Z" fill="#43495D"/>
<path d="M589.574 87.1798L596.339 87.141L596.331 84.2656L589.559 84.3109L589.574 87.1798Z" fill="#43495D"/>
<path d="M562.644 87.7996L569.364 87.5799L569.311 84.7109L562.576 84.9306L562.644 87.7996Z" fill="#43495D"/>
<path d="M535.919 89.125L542.579 88.7309L542.482 85.8555L535.814 86.2561L535.919 89.125Z" fill="#43495D"/>
<path d="M509.423 91.1342L516.023 90.572L515.888 87.7031L509.273 88.2717L509.423 91.1342Z" fill="#43495D"/>
<path d="M457.162 97.1947L463.634 96.2901L463.409 93.4341L456.922 94.3387L457.162 97.1947Z" fill="#43495D"/>
<path d="M431.416 101.22L437.836 100.148L437.566 97.2983L431.139 98.371L431.416 101.22Z" fill="#43495D"/>
<path d="M405.961 105.892L412.299 104.664L411.984 101.815L405.639 103.049L405.961 105.892Z" fill="#43495D"/>
<path d="M380.782 111.203L387.044 109.814L386.692 106.978L380.422 108.367L380.782 111.203Z" fill="#43495D"/>
<path d="M355.921 117.141L362.108 115.597L361.718 112.773L355.523 114.318L355.921 117.141Z" fill="#43495D"/>
<path d="M283.283 138.614L289.215 136.623L288.705 133.832L282.758 135.829L283.283 138.614Z" fill="#43495D"/>
<path d="M259.764 146.962L265.614 144.817L265.066 142.038L259.201 144.19L259.764 146.962Z" fill="#43495D"/>
<path d="M236.625 155.878L242.37 153.598L241.785 150.832L236.025 153.119L236.625 155.878Z" fill="#43495D"/>
<path d="M213.862 165.364L219.51 162.941L218.88 160.188L213.225 162.618L213.862 165.364Z" fill="#43495D"/>
<path d="M191.507 175.392L197.057 172.834L196.389 170.107L190.824 172.666L191.507 175.392Z" fill="#43495D"/>
<path d="M169.545 185.977L174.99 183.282L174.292 180.568L168.832 183.263L169.545 185.977Z" fill="#43495D"/>
<path d="M148.014 197.091L153.361 194.261L152.626 191.56L147.264 194.396L148.014 197.091Z" fill="#43495D"/>
<path d="M949.283 138.82L955.126 141.056L955.591 138.484L949.741 136.242L949.283 138.82Z" fill="#43495D"/>
<path d="M925.664 130.226L931.604 132.32L932.039 129.735L926.092 127.642L925.664 130.226Z" fill="#43495D"/>
<path d="M901.672 122.22L907.702 124.165L908.107 121.567L902.069 119.623L901.672 122.22Z" fill="#43495D"/>
<path d="M877.32 114.815L883.448 116.611L883.823 114.001L877.688 112.205L877.32 114.815Z" fill="#43495D"/>
<path d="M827.588 101.841L833.88 103.327L834.188 100.704L827.888 99.2178L827.588 101.841Z" fill="#43495D"/>
<path d="M802.238 96.2973L808.606 97.6284L808.883 94.9921L802.508 93.6675L802.238 96.2973Z" fill="#43495D"/>
<path d="M776.574 91.3986L783.017 92.5617L783.257 89.9189L776.807 88.7559L776.574 91.3986Z" fill="#43495D"/>
<path d="M750.615 87.1467L757.133 88.1482L757.343 85.5054L750.818 84.5039L750.615 87.1467Z" fill="#43495D"/>
<path d="M724.371 83.5673L730.956 84.4008L731.129 81.7452L724.529 80.9116L724.371 83.5673Z" fill="#43495D"/>
<path d="M697.852 80.6596L704.512 81.3187L704.647 78.663L697.979 78.0039L697.852 80.6596Z" fill="#43495D"/>
<path d="M671.086 78.4369L677.798 78.928L677.903 76.2723L671.176 75.7812L671.086 78.4369Z" fill="#43495D"/>
<path d="M644.062 76.912L650.835 77.2287L650.902 74.5665L644.115 74.2563L644.062 76.912Z" fill="#43495D"/>
<path d="M616.814 76.0977L623.647 76.2334L623.677 73.5777L616.837 73.4355L616.814 76.0977Z" fill="#43495D"/>
<path d="M589.515 76.0072L596.317 75.962V73.2998L589.5 73.345L589.515 76.0072Z" fill="#43495D"/>
<path d="M535.532 77.9591L542.229 77.5585L542.154 74.9028L535.449 75.297L535.532 77.9591Z" fill="#43495D"/>
<path d="M508.866 79.9811L515.511 79.4125L515.399 76.7568L508.746 77.3255L508.866 79.9811Z" fill="#43495D"/>
<path d="M482.453 82.6952L489.038 81.9521L488.888 79.2964L482.303 80.0395L482.453 82.6952Z" fill="#43495D"/>
<path d="M456.285 86.0813L462.803 85.1702L462.623 82.521L456.098 83.4321L456.285 86.0813Z" fill="#43495D"/>
<path d="M305.363 119.946L311.423 118.092L311.048 115.488L304.98 117.342L305.363 119.946Z" fill="#43495D"/>
<path d="M281.34 127.758L287.318 125.748L286.905 123.151L280.928 125.16L281.34 127.758Z" fill="#43495D"/>
<path d="M189.001 164.757L194.588 162.185L194.056 159.633L188.461 162.217L189.001 164.757Z" fill="#43495D"/>
<path d="M166.914 175.405L172.396 172.692L171.834 170.159L166.344 172.873L166.914 175.405Z" fill="#43495D"/>
<path d="M145.245 186.584L150.63 183.734L150.037 181.214L144.652 184.07L145.245 186.584Z" fill="#43495D"/>
<path d="M927.219 120.159L933.181 122.266L933.511 119.875L927.534 117.769L927.219 120.159Z" fill="#43495D"/>
<path d="M903.113 112.115L909.173 114.073L909.473 111.676L903.406 109.718L903.113 112.115Z" fill="#43495D"/>
<path d="M878.641 104.677L884.798 106.48L885.076 104.076L878.911 102.267L878.641 104.677Z" fill="#43495D"/>
<path d="M853.83 97.8473L860.063 99.495L860.318 97.0848L854.078 95.4307L853.83 97.8473Z" fill="#43495D"/>
<path d="M777.412 81.1444L783.885 82.3139L784.065 79.8844L777.585 78.7148L777.412 81.1444Z" fill="#43495D"/>
<path d="M751.336 76.8739L757.883 77.8819L758.033 75.4459L751.478 74.4443L751.336 76.8739Z" fill="#43495D"/>
<path d="M698.318 70.3536L705.008 71.0191L705.113 68.5831L698.416 67.9111L698.318 70.3536Z" fill="#43495D"/>
<path d="M671.422 68.1241L678.164 68.6152L678.247 66.1727L671.489 65.6816L671.422 68.1241Z" fill="#43495D"/>
<path d="M644.273 66.5929L651.076 66.9095L651.128 64.467L644.311 64.1504L644.273 66.5929Z" fill="#43495D"/>
<path d="M616.898 65.7725L623.761 65.9147L623.783 63.4658L616.913 63.3301L616.898 65.7725Z" fill="#43495D"/>
<path d="M589.462 65.682L596.302 65.6368L596.295 63.1943L589.455 63.2331L589.462 65.682Z" fill="#43495D"/>
<path d="M562.231 66.3092L569.026 66.0831L568.996 63.6406L562.193 63.8603L562.231 66.3092Z" fill="#43495D"/>
<path d="M535.222 67.6395L541.957 67.2453L541.897 64.7964L535.162 65.197L535.222 67.6395Z" fill="#43495D"/>
<path d="M481.898 72.4023L488.505 71.6528L488.4 69.2168L481.785 69.9599L481.898 72.4023Z" fill="#43495D"/>
<path d="M455.603 75.8007L462.151 74.8896L462.016 72.4536L455.461 73.3647L455.603 75.8007Z" fill="#43495D"/>
<path d="M429.577 79.8715L436.065 78.7924L435.907 76.3564L429.412 77.4355L429.577 79.8715Z" fill="#43495D"/>
<path d="M403.845 84.5954L410.25 83.3484L410.063 80.9253L403.65 82.1659L403.845 84.5954Z" fill="#43495D"/>
<path d="M378.397 89.9639L384.727 88.5617L384.517 86.1387L378.18 87.5408L378.397 89.9639Z" fill="#43495D"/>
<path d="M353.265 95.9671L359.513 94.4034L359.28 91.9868L353.025 93.5505L353.265 95.9671Z" fill="#43495D"/>
<path d="M328.44 102.59L334.613 100.878L334.358 98.4678L328.178 100.187L328.44 102.59Z" fill="#43495D"/>
<path d="M303.968 109.834L310.051 107.967L309.773 105.563L303.676 107.43L303.968 109.834Z" fill="#43495D"/>
<path d="M279.833 117.678L285.825 115.662L285.525 113.265L279.518 115.281L279.833 117.678Z" fill="#43495D"/>
<path d="M928.32 110.9L934.313 113.006L934.523 110.822L928.53 108.709L928.32 110.9Z" fill="#43495D"/>
<path d="M904.133 102.83L910.215 104.788L910.41 102.597L904.328 100.633L904.133 102.83Z" fill="#43495D"/>
<path d="M879.586 95.3601L885.758 97.1694L885.938 94.9724L879.758 93.1567L879.586 95.3601Z" fill="#43495D"/>
<path d="M854.684 88.5105L860.939 90.1647L861.104 87.9613L854.849 86.3071L854.684 88.5105Z" fill="#43495D"/>
<path d="M829.449 82.2816L835.787 83.7807L835.937 81.5709L829.592 80.0718L829.449 82.2816Z" fill="#43495D"/>
<path d="M803.889 76.6923L810.309 78.0298L810.444 75.82L804.016 74.4824L803.889 76.6923Z" fill="#43495D"/>
<path d="M751.846 67.4653L758.416 68.4733L758.513 66.257L751.943 65.249L751.846 67.4653Z" fill="#43495D"/>
<path d="M725.387 63.8535L732.024 64.6935L732.107 62.4772L725.462 61.6372L725.387 63.8535Z" fill="#43495D"/>
<path d="M671.662 58.6842L678.435 59.1753L678.48 56.9525L671.707 56.4614L671.662 58.6842Z" fill="#43495D"/>
<path d="M644.422 57.1466L651.247 57.4632L651.284 55.2404L644.444 54.9238L644.422 57.1466Z" fill="#43495D"/>
<path d="M616.951 56.3258L623.844 56.4679L623.859 54.2387L616.966 54.103L616.951 56.3258Z" fill="#43495D"/>
<path d="M589.426 56.2353L596.288 56.1901V53.9673L589.426 54.0061V56.2353Z" fill="#43495D"/>
<path d="M562.103 56.8625L568.92 56.6363L568.905 54.4136L562.08 54.6397L562.103 56.8625Z" fill="#43495D"/>
<path d="M535.006 58.1996L541.764 57.7989L541.726 55.5762L534.969 55.9768L535.006 58.1996Z" fill="#43495D"/>
<path d="M481.501 62.9751L488.131 62.232L488.063 60.0093L481.426 60.7588L481.501 62.9751Z" fill="#43495D"/>
<path d="M455.115 66.3863L461.685 65.4752L461.595 63.2524L455.025 64.17L455.115 66.3863Z" fill="#43495D"/>
<path d="M429 70.4698L435.51 69.3843L435.405 67.168L428.895 68.2535L429 70.4698Z" fill="#43495D"/>
<path d="M403.177 75.2064L409.604 73.9658L409.492 71.7495L403.057 72.9966L403.177 75.2064Z" fill="#43495D"/>
<path d="M377.648 80.5954L384.001 79.1932L383.866 76.9834L377.506 78.3856L377.648 80.5954Z" fill="#43495D"/>
<path d="M352.425 86.6172L358.703 85.0535L358.553 82.8501L352.275 84.4138L352.425 86.6172Z" fill="#43495D"/>
<path d="M327.524 93.2723L333.719 91.547L333.547 89.3501L327.352 91.0689L327.524 93.2723Z" fill="#43495D"/>
<path d="M302.963 100.536L309.075 98.6618L308.888 96.4648L302.775 98.3387L302.963 100.536Z" fill="#43495D"/>
<path d="M278.745 108.406L284.768 106.383L284.565 104.187L278.543 106.215L278.745 108.406Z" fill="#43495D"/>
<path d="M928.98 102.455L934.98 104.574L935.07 102.59L929.07 100.478L928.98 102.455Z" fill="#43495D"/>
<path d="M904.74 94.3714L910.838 96.3357L910.92 94.352L904.83 92.3877L904.74 94.3714Z" fill="#43495D"/>
<path d="M880.141 86.8885L886.328 88.7042L886.411 86.7205L880.223 84.9048L880.141 86.8885Z" fill="#43495D"/>
<path d="M855.195 80.0198L861.465 81.6804L861.54 79.6967L855.27 78.0361L855.195 80.0198Z" fill="#43495D"/>
<path d="M829.906 73.7846L836.259 75.2837L836.326 73.2935L829.974 71.7944L829.906 73.7846Z" fill="#43495D"/>
<path d="M804.301 68.1825L810.728 69.5201L810.788 67.5364L804.353 66.1924L804.301 68.1825Z" fill="#43495D"/>
<path d="M778.365 63.2328L784.875 64.4088L784.928 62.4187L778.418 61.2427L778.365 63.2328Z" fill="#43495D"/>
<path d="M752.152 58.936L758.73 59.9504L758.775 57.9603L752.19 56.9458L752.152 58.936Z" fill="#43495D"/>
<path d="M725.633 55.3173L732.285 56.1573L732.323 54.1672L725.67 53.3271L725.633 55.3173Z" fill="#43495D"/>
<path d="M698.844 52.3843L705.579 53.0499L705.609 51.0597L698.874 50.3877L698.844 52.3843Z" fill="#43495D"/>
<path d="M644.514 48.5976L651.354 48.9206L651.369 46.924L644.521 46.6074L644.514 48.5976Z" fill="#43495D"/>
<path d="M616.988 47.7768L623.888 47.9125L623.896 45.9223L616.996 45.7866L616.988 47.7768Z" fill="#43495D"/>
<path d="M589.41 47.6804L596.28 47.6416V45.645L589.402 45.6903L589.41 47.6804Z" fill="#43495D"/>
<path d="M562.027 48.3136L568.86 48.0874L568.852 46.0908L562.02 46.317L562.027 48.3136Z" fill="#43495D"/>
<path d="M534.878 49.6575L541.643 49.2504L541.628 47.2603L534.855 47.6609L534.878 49.6575Z" fill="#43495D"/>
<path d="M507.944 51.699L514.649 51.1239L514.627 49.1338L507.914 49.7089L507.944 51.699Z" fill="#43495D"/>
<path d="M481.26 54.4389L487.905 53.6894L487.875 51.6992L481.23 52.4488L481.26 54.4389Z" fill="#43495D"/>
<path d="M454.83 57.8569L461.408 56.9394L461.37 54.9492L454.785 55.8668L454.83 57.8569Z" fill="#43495D"/>
<path d="M428.662 61.9468L435.179 60.8612L435.134 58.8711L428.609 59.9566L428.662 61.9468Z" fill="#43495D"/>
<path d="M402.787 66.6967L409.229 65.4496L409.177 63.4595L402.734 64.7065L402.787 66.6967Z" fill="#43495D"/>
<path d="M377.199 72.098L383.566 70.6829L383.506 68.6992L377.139 70.1078L377.199 72.098Z" fill="#43495D"/>
<path d="M351.931 78.1271L358.223 76.5634L358.156 74.5732L351.863 76.1434L351.931 78.1271Z" fill="#43495D"/>
<path d="M326.977 84.7953L333.187 83.0701L333.112 81.0864L326.902 82.8117L326.977 84.7953Z" fill="#43495D"/>
<path d="M254.205 108.438L260.152 106.26L260.055 104.283L254.107 106.461L254.205 108.438Z" fill="#43495D"/>
<path d="M1044.49 143.996L1049.98 146.82L1049.95 145.056L1044.46 142.238L1044.49 143.996Z" fill="#43495D"/>
<path d="M1022.26 133.05L1027.86 135.732L1027.83 133.974L1022.23 131.286L1022.26 133.05Z" fill="#43495D"/>
<path d="M999.6 122.647L1005.31 125.2L1005.28 123.442L999.57 120.89L999.6 122.647Z" fill="#43495D"/>
<path d="M953.04 103.54L958.95 105.808L958.92 104.044L953.018 101.782L953.04 103.54Z" fill="#43495D"/>
<path d="M929.175 94.8625L935.175 96.9754L935.152 95.2179L929.152 93.105L929.175 94.8625Z" fill="#43495D"/>
<path d="M904.929 86.7658L911.019 88.7366L911.004 86.9791L904.906 85.0083L904.929 86.7658Z" fill="#43495D"/>
<path d="M880.312 79.2834L886.499 81.0991L886.484 79.3416L880.289 77.5259L880.312 79.2834Z" fill="#43495D"/>
<path d="M855.353 72.4148L861.622 74.0689L861.6 72.3114L855.33 70.6572L855.353 72.4148Z" fill="#43495D"/>
<path d="M830.04 66.1666L836.4 67.6721L836.385 65.9146L830.025 64.4155L830.04 66.1666Z" fill="#43495D"/>
<path d="M804.421 60.5647L810.856 61.9087L810.841 60.1511L804.406 58.8071L804.421 60.5647Z" fill="#43495D"/>
<path d="M752.242 51.3181L758.827 52.3261L758.812 50.575L752.227 49.5605L752.242 51.3181Z" fill="#43495D"/>
<path d="M725.709 47.693L732.369 48.533L732.361 46.7819L725.701 45.9419L725.709 47.693Z" fill="#43495D"/>
<path d="M698.902 44.7535L705.637 45.4255L705.63 43.668L698.895 43.0024L698.902 44.7535Z" fill="#43495D"/>
<path d="M671.851 42.511L678.639 43.0085L678.631 41.251L671.844 40.7534L671.851 42.511Z" fill="#43495D"/>
<path d="M644.535 40.9729L651.383 41.2895V39.5319L644.535 39.2153V40.9729Z" fill="#43495D"/>
<path d="M616.994 40.1461L623.902 40.2883V38.5307L616.994 38.395V40.1461Z" fill="#43495D"/>
<path d="M589.402 40.0557L596.28 40.0105V38.2529L589.402 38.2982V40.0557Z" fill="#43495D"/>
<path d="M562.006 40.6818L568.846 40.4557V38.7046L562.013 38.9307L562.006 40.6818Z" fill="#43495D"/>
<path d="M534.84 42.0263L541.612 41.6257V39.8682L534.84 40.2752V42.0263Z" fill="#43495D"/>
<path d="M507.887 44.0743L514.599 43.4992L514.607 41.7417L507.894 42.3168L507.887 44.0743Z" fill="#43495D"/>
<path d="M481.193 46.8142L487.838 46.0647L487.846 44.3071L481.201 45.0567L481.193 46.8142Z" fill="#43495D"/>
<path d="M454.74 50.2321L461.325 49.3146L461.333 47.5635L454.748 48.481L454.74 50.2321Z" fill="#43495D"/>
<path d="M428.557 54.3289L435.082 53.2434L435.097 51.4858L428.572 52.5714L428.557 54.3289Z" fill="#43495D"/>
<path d="M402.668 59.0779L409.118 57.8308L409.125 56.0732L402.683 57.3203L402.668 59.0779Z" fill="#43495D"/>
<path d="M377.07 64.4801L383.438 63.0715L383.453 61.314L377.085 62.7226L377.07 64.4801Z" fill="#43495D"/>
<path d="M326.82 77.1833L333.023 75.4646L333.045 73.707L326.835 75.4323L326.82 77.1833Z" fill="#43495D"/>
<path d="M1087.22 160.77L1092.48 163.852L1092.27 162.308L1087.02 159.226L1087.22 160.77Z" fill="#43495D"/>
<path d="M1065.9 148.771L1071.27 151.717L1071.08 150.179L1065.71 147.227L1065.9 148.771Z" fill="#43495D"/>
<path d="M1044.14 137.295L1049.62 140.112L1049.43 138.581L1043.95 135.757L1044.14 137.295Z" fill="#43495D"/>
<path d="M1021.92 126.356L1027.52 129.037L1027.34 127.506L1021.74 124.824L1021.92 126.356Z" fill="#43495D"/>
<path d="M999.278 115.959L1004.99 118.511L1004.81 116.986L999.105 114.44L999.278 115.959Z" fill="#43495D"/>
<path d="M976.222 106.131L982.019 108.534L981.862 107.016L976.064 104.612L976.222 106.131Z" fill="#43495D"/>
<path d="M952.755 96.872L958.658 99.1335L958.508 97.6151L952.605 95.3535L952.755 96.872Z" fill="#43495D"/>
<path d="M928.912 88.1936L934.905 90.313L934.77 88.7946L928.77 86.6816L928.912 88.1936Z" fill="#43495D"/>
<path d="M904.68 80.1106L910.77 82.0749L910.635 80.5629L904.553 78.5986L904.68 80.1106Z" fill="#43495D"/>
<path d="M880.081 72.6281L886.269 74.4438L886.149 72.9383L879.969 71.1226L880.081 72.6281Z" fill="#43495D"/>
<path d="M855.142 65.7663L861.412 67.4269L861.3 65.9214L855.037 64.2607L855.142 65.7663Z" fill="#43495D"/>
<path d="M829.861 59.5309L836.206 61.03L836.109 59.5245L829.764 58.0254L829.861 59.5309Z" fill="#43495D"/>
<path d="M804.254 53.9288L810.682 55.2663L810.599 53.7672L804.172 52.4297L804.254 53.9288Z" fill="#43495D"/>
<path d="M778.337 48.9791L784.839 50.1551L784.764 48.656L778.262 47.48L778.337 48.9791Z" fill="#43495D"/>
<path d="M752.115 44.6884L758.7 45.6964L758.632 44.2038L752.055 43.1958L752.115 44.6884Z" fill="#43495D"/>
<path d="M725.609 41.0703L732.262 41.9103L732.202 40.4176L725.557 39.5776L725.609 41.0703Z" fill="#43495D"/>
<path d="M698.828 38.1298L705.556 38.8018L705.511 37.3092L698.783 36.6372L698.828 38.1298Z" fill="#43495D"/>
<path d="M671.792 35.8876L678.572 36.3852L678.542 34.8926L671.762 34.395L671.792 35.8876Z" fill="#43495D"/>
<path d="M644.497 34.3499L651.345 34.6665L651.322 33.1804L644.482 32.8638L644.497 34.3499Z" fill="#43495D"/>
<path d="M616.98 33.5297L623.888 33.6654L623.873 32.1793L616.98 32.0371V33.5297Z" fill="#43495D"/>
<path d="M481.283 40.1914L487.936 39.4418L487.981 37.9492L481.336 38.6988L481.283 40.1914Z" fill="#43495D"/>
<path d="M454.859 43.6095L461.437 42.6919L461.497 41.1929L454.919 42.1104L454.859 43.6095Z" fill="#43495D"/>
<path d="M327.037 70.5349L333.24 68.8161L333.352 67.3105L327.15 69.0293L327.037 70.5349Z" fill="#43495D"/>
<path d="M278.176 85.6996L284.206 83.6707L284.333 82.1587L278.311 84.1876L278.176 85.6996Z" fill="#43495D"/>
<path d="M1043.16 131.499L1048.63 134.31L1048.29 132.998L1042.82 130.188L1043.16 131.499Z" fill="#43495D"/>
<path d="M1020.99 120.579L1026.57 123.261L1026.25 121.955L1020.67 119.28L1020.99 120.579Z" fill="#43495D"/>
<path d="M998.394 110.215L1004.09 112.754L1003.78 111.462L998.094 108.922L998.394 110.215Z" fill="#43495D"/>
<path d="M975.39 100.406L981.18 102.803L980.888 101.517L975.105 99.1201L975.39 100.406Z" fill="#43495D"/>
<path d="M951.983 91.1661L957.87 93.4212L957.593 92.1418L951.713 89.8867L951.983 91.1661Z" fill="#43495D"/>
<path d="M928.185 82.5078L934.17 84.6142L933.915 83.3478L927.938 81.2349L928.185 82.5078Z" fill="#43495D"/>
<path d="M904.006 74.4377L910.088 76.402L909.848 75.1356L903.773 73.1777L904.006 74.4377Z" fill="#43495D"/>
<path d="M879.466 66.9747L885.638 68.784L885.421 67.5304L879.256 65.7212L879.466 66.9747Z" fill="#43495D"/>
<path d="M854.582 60.1246L860.837 61.7788L860.634 60.5253L854.387 58.8711L854.582 60.1246Z" fill="#43495D"/>
<path d="M829.35 53.9028L835.688 55.4019L835.508 54.1484L829.178 52.6558L829.35 53.9028Z" fill="#43495D"/>
<path d="M803.806 48.3134L810.226 49.6509L810.061 48.4103L803.648 47.0728L803.806 48.3134Z" fill="#43495D"/>
<path d="M777.938 43.3768L784.433 44.5464L784.29 43.3058L777.803 42.1362L777.938 43.3768Z" fill="#43495D"/>
<path d="M751.784 39.093L758.347 40.101L758.227 38.8669L751.664 37.8589L751.784 39.093Z" fill="#43495D"/>
<path d="M725.332 35.4807L731.969 36.3207L731.864 35.0866L725.234 34.2466L725.332 35.4807Z" fill="#43495D"/>
<path d="M698.61 32.5535L705.323 33.219L705.24 31.9913L698.535 31.3193L698.61 32.5535Z" fill="#43495D"/>
<path d="M671.633 30.3181L678.398 30.8092L678.337 29.5815L671.58 29.084L671.633 30.3181Z" fill="#43495D"/>
<path d="M644.399 28.7804L651.232 29.097L651.187 27.8693L644.369 27.5527L644.399 28.7804Z" fill="#43495D"/>
<path d="M616.941 27.9601L623.826 28.0958L623.811 26.8681L616.934 26.7324L616.941 27.9601Z" fill="#43495D"/>
<path d="M535.035 29.8329L541.785 29.4323L541.83 28.2046L535.08 28.6052L535.035 29.8329Z" fill="#43495D"/>
<path d="M508.162 31.8751L514.86 31.3001L514.92 30.0659L508.237 30.641L508.162 31.8751Z" fill="#43495D"/>
<path d="M455.176 38.0203L461.746 37.1028L461.851 35.8687L455.288 36.7797L455.176 38.0203Z" fill="#43495D"/>
<path d="M327.639 64.8874L333.826 63.1686L334.036 61.915L327.849 63.6338L327.639 64.8874Z" fill="#43495D"/>
<path d="M303.09 72.1495L309.195 70.2756L309.412 69.0156L303.315 70.883L303.09 72.1495Z" fill="#43495D"/>
<path d="M1019.49 115.727L1025.05 118.395L1024.58 117.316L1019.03 114.647L1019.49 115.727Z" fill="#43495D"/>
<path d="M996.976 105.395L1002.65 107.928L1002.2 106.862L996.533 104.329L996.976 105.395Z" fill="#43495D"/>
<path d="M974.057 95.6181L979.824 98.0088L979.404 96.9556L973.637 94.5713L974.057 95.6181Z" fill="#43495D"/>
<path d="M950.722 86.4109L956.587 88.6595L956.197 87.6192L950.332 85.3706L950.722 86.4109Z" fill="#43495D"/>
<path d="M927.016 77.7842L932.978 79.8907L932.611 78.8568L926.648 76.7568L927.016 77.7842Z" fill="#43495D"/>
<path d="M902.925 69.746L908.978 71.7039L908.633 70.6765L902.588 68.7251L902.925 69.746Z" fill="#43495D"/>
<path d="M878.468 62.3089L884.618 64.1117L884.303 63.0972L878.16 61.2944L878.468 62.3089Z" fill="#43495D"/>
<path d="M853.674 55.4855L859.906 57.1332L859.614 56.1252L853.389 54.4775L853.674 55.4855Z" fill="#43495D"/>
<path d="M828.532 49.2823L834.847 50.7749L834.585 49.7734L828.277 48.2808L828.532 49.2823Z" fill="#43495D"/>
<path d="M803.077 43.7197L809.467 45.0508L809.234 44.0557L802.852 42.7246L803.077 43.7197Z" fill="#43495D"/>
<path d="M777.3 38.7957L783.773 39.9653L783.57 38.9767L777.105 37.8071L777.3 38.7957Z" fill="#43495D"/>
<path d="M751.239 34.531L757.787 35.5325L757.607 34.5504L751.074 33.5488L751.239 34.531Z" fill="#43495D"/>
<path d="M724.881 30.9319L731.496 31.7654L731.346 30.7832L724.746 29.9497L724.881 30.9319Z" fill="#43495D"/>
<path d="M698.257 28.0113L704.94 28.6769L704.827 27.7012L698.145 27.0356L698.257 28.0113Z" fill="#43495D"/>
<path d="M671.377 25.7823L678.12 26.2734L678.03 25.2977L671.295 24.8066L671.377 25.7823Z" fill="#43495D"/>
<path d="M644.244 24.2505L651.047 24.5671L650.994 23.5979L644.199 23.2812L644.244 24.2505Z" fill="#43495D"/>
<path d="M535.268 25.3036L541.995 24.9029L542.055 23.9272L535.335 24.3279L535.268 25.3036Z" fill="#43495D"/>
<path d="M508.492 27.3329L515.16 26.7643L515.257 25.7886L508.59 26.3572L508.492 27.3329Z" fill="#43495D"/>
<path d="M328.613 60.2286L334.778 58.5163L335.071 57.5083L328.913 59.2206L328.613 60.2286Z" fill="#43495D"/>
<path d="M256.268 83.7352L262.178 81.5706L262.553 80.5303L256.65 82.6949L256.268 83.7352Z" fill="#43495D"/>
<path d="M232.891 92.7432L238.696 90.4364L239.101 89.3896L233.296 91.6964L232.891 92.7432Z" fill="#43495D"/>
<path d="M995.009 101.485L1000.66 104.012L1000.08 103.172L994.439 100.652L995.009 101.485Z" fill="#43495D"/>
<path d="M972.202 91.7674L977.947 94.1452L977.4 93.3182L971.67 90.9468L972.202 91.7674Z" fill="#43495D"/>
<path d="M948.991 82.6046L954.833 84.8403L954.316 84.0261L948.488 81.7969L948.991 82.6046Z" fill="#43495D"/>
<path d="M925.402 74.0174L931.335 76.111L930.855 75.3162L924.93 73.2227L925.402 74.0174Z" fill="#43495D"/>
<path d="M901.425 66.0182L907.455 67.9631L907.005 67.1813L900.99 65.2363L901.425 66.0182Z" fill="#43495D"/>
<path d="M877.094 58.6191L883.214 60.4154L882.802 59.6401L876.689 57.8438L877.094 58.6191Z" fill="#43495D"/>
<path d="M852.42 51.8284L858.623 53.4696L858.248 52.7071L852.053 51.0659L852.42 51.8284Z" fill="#43495D"/>
<path d="M827.401 45.6579L833.686 47.1375L833.348 46.388L827.078 44.9019L827.401 45.6579Z" fill="#43495D"/>
<path d="M802.074 40.1201L808.434 41.4448L808.134 40.6952L801.781 39.3706L802.074 40.1201Z" fill="#43495D"/>
<path d="M776.431 35.2156L782.866 36.3852L782.603 35.6421L776.176 34.479L776.431 35.2156Z" fill="#43495D"/>
<path d="M750.495 30.9773L757.005 31.9724L756.78 31.2423L750.277 30.2407L750.495 30.9773Z" fill="#43495D"/>
<path d="M724.268 27.3907L730.845 28.2242L730.658 27.5005L724.088 26.667L724.268 27.3907Z" fill="#43495D"/>
<path d="M562.439 20.4638L569.197 20.2441L569.242 19.5269L562.492 19.7465L562.439 20.4638Z" fill="#43495D"/>
<path d="M535.582 21.7956L542.28 21.395L542.362 20.6777L535.68 21.0719L535.582 21.7956Z" fill="#43495D"/>
<path d="M508.943 23.8172L515.581 23.2421L515.701 22.5249L509.078 23.0935L508.943 23.8172Z" fill="#43495D"/>
<path d="M456.406 29.9048L462.916 29.0002L463.111 28.27L456.616 29.1746L456.406 29.9048Z" fill="#43495D"/>
<path d="M257.963 79.9363L263.843 77.7846L264.33 76.9834L258.458 79.1351L257.963 79.9363Z" fill="#43495D"/>
<path d="M992.529 98.4873L998.139 100.994L997.427 100.381L991.824 97.8799L992.529 98.4937" fill="#43495D"/>
<path d="M969.863 88.8268L975.571 91.1917L974.896 90.5972L969.203 88.2388L969.863 88.8268Z" fill="#43495D"/>
<path d="M946.793 79.723L952.598 81.9458L951.968 81.3643L946.178 79.1479L946.793 79.723Z" fill="#43495D"/>
<path d="M923.355 71.1935L929.25 73.2741L928.657 72.7055L922.777 70.6313L923.355 71.1935Z" fill="#43495D"/>
<path d="M899.527 63.2455L905.519 65.1775L904.972 64.6283L898.994 62.6963L899.527 63.2455Z" fill="#43495D"/>
<path d="M875.347 55.8927L881.429 57.6761L880.927 57.1398L874.859 55.3564L875.347 55.8927Z" fill="#43495D"/>
<path d="M850.831 49.1405L856.996 50.7752L856.531 50.2518L850.381 48.6235L850.831 49.1405Z" fill="#43495D"/>
<path d="M825.975 43.0085L832.215 44.4817L831.803 43.9713L825.57 42.498L825.975 43.0085Z" fill="#43495D"/>
<path d="M800.805 37.5029L807.128 38.8211L806.753 38.3171L800.445 37.0054L800.805 37.5029Z" fill="#43495D"/>
<path d="M775.321 32.638L781.718 33.7947L781.388 33.3036L775.006 32.147L775.321 32.638Z" fill="#43495D"/>
<path d="M749.544 28.4182L756.016 29.4133L755.739 28.9287L749.281 27.9336L749.544 28.4182Z" fill="#43495D"/>
<path d="M723.489 24.8649L730.021 25.6919L729.789 25.2073L723.264 24.3867L723.489 24.8649Z" fill="#43495D"/>
<path d="M697.155 21.9756L703.77 22.6347L703.582 22.1565L696.982 21.5039L697.155 21.9756Z" fill="#43495D"/>
<path d="M670.577 19.773L677.244 20.2576L677.109 19.7859L670.449 19.3013L670.577 19.773Z" fill="#43495D"/>
<path d="M643.747 18.2606L650.474 18.5708L650.384 18.1056L643.664 17.7954L643.747 18.2606Z" fill="#43495D"/>
<path d="M616.694 17.453L623.474 17.5823L623.437 17.1235L616.664 16.9878L616.694 17.453Z" fill="#43495D"/>
<path d="M562.68 17.9764L569.392 17.7567L569.445 17.2915L562.74 17.5112L562.68 17.9764Z" fill="#43495D"/>
<path d="M535.988 19.2944L542.641 18.9003L542.746 18.4351L536.101 18.8292L535.988 19.2944Z" fill="#43495D"/>
<path d="M509.514 21.3044L516.114 20.7422L516.264 20.2705L509.679 20.8327L509.514 21.3044Z" fill="#43495D"/>
<path d="M483.293 23.9985L489.825 23.2618L490.02 22.7837L483.495 23.5203L483.293 23.9985Z" fill="#43495D"/>
<path d="M457.305 27.3588L463.777 26.4542L464.017 25.9761L457.56 26.8742L457.305 27.3588Z" fill="#43495D"/>
</g>
<defs>
<clipPath id="clip0_3745_15283">
<rect width="1200" height="197" fill="white"/>
</clipPath>
</defs>
</svg>
