<svg width="124" height="32" viewBox="0 0 124 32" fill="none" xmlns="http://www.w3.org/2000/svg">
<g clip-path="url(#clip0_1961_10288)">
<path d="M16 32C24.8366 32 32 24.8366 32 16C32 7.16344 24.8366 0 16 0C7.16344 0 0 7.16344 0 16C0 24.8366 7.16344 32 16 32Z" fill="url(#paint0_linear_1961_10288)"/>
<path d="M16 32C24.8366 32 32 24.8366 32 16C32 7.16344 24.8366 0 16 0C7.16344 0 0 7.16344 0 16C0 24.8366 7.16344 32 16 32Z" fill="url(#paint1_radial_1961_10288)"/>
<path d="M16 1C24.27 1 31 7.73 31 16C31 24.27 24.27 31 16 31C7.73 31 1 24.27 1 16C1 7.73 7.73 1 16 1ZM16 0C7.16 0 0 7.16 0 16C0 24.84 7.16 32 16 32C24.84 32 32 24.84 32 16C32 7.16 24.84 0 16 0Z" fill="url(#paint2_linear_1961_10288)"/>
<path d="M20 26V24H12V26H20Z" fill="#272B38" fill-opacity="0.45"/>
<path d="M22 22H20V24H22V22Z" fill="#272B38" fill-opacity="0.45"/>
<path d="M12 22H10V24H12V22Z" fill="#272B38" fill-opacity="0.45"/>
<path d="M24 20H22V22H24V20Z" fill="#272B38" fill-opacity="0.45"/>
<path d="M24 12H22V14H24V12Z" fill="#272B38" fill-opacity="0.45"/>
<path d="M8 14H6V16H8V18H6V20H8V22H10V20H18V18H10V16H20V14H10V12H8V14Z" fill="#272B38" fill-opacity="0.45"/>
<path d="M22 10H20V12H22V10Z" fill="#272B38" fill-opacity="0.45"/>
<path d="M12 10H10V12H12V10Z" fill="#272B38" fill-opacity="0.45"/>
<path d="M12 8V10H20V8H12Z" fill="#272B38" fill-opacity="0.45"/>
<path d="M20 25V23H12V25H20Z" fill="url(#paint3_linear_1961_10288)"/>
<path d="M22 21H20V23H22V21Z" fill="url(#paint4_linear_1961_10288)"/>
<path d="M12 21H10V23H12V21Z" fill="url(#paint5_linear_1961_10288)"/>
<path d="M24 19H22V21H24V19Z" fill="url(#paint6_linear_1961_10288)"/>
<path d="M24 11H22V13H24V11Z" fill="url(#paint7_linear_1961_10288)"/>
<path d="M8 13H6V15H8V17H6V19H8V21H10V19H18V17H10V15H20V13H10V11H8V13Z" fill="url(#paint8_linear_1961_10288)"/>
<path d="M22 9H20V11H22V9Z" fill="url(#paint9_linear_1961_10288)"/>
<path d="M12 9H10V11H12V9Z" fill="url(#paint10_linear_1961_10288)"/>
<path d="M12 7V9H20V7H12Z" fill="url(#paint11_linear_1961_10288)"/>
</g>
<path d="M52.0213 24.8499H48.5713V23.2499H48.5213C48.3713 23.4699 48.1713 23.6899 47.9313 23.9099C47.6913 24.1299 47.4113 24.3399 47.0813 24.5199C46.7513 24.6999 46.4013 24.8499 46.0013 24.9699C45.6113 25.0899 45.2013 25.1499 44.7913 25.1499C43.8913 25.1499 43.0713 24.9999 42.3413 24.6899C41.6113 24.3799 40.9813 23.9499 40.4513 23.3899C39.9213 22.8299 39.5213 22.1699 39.2413 21.3999C38.9613 20.6299 38.8213 19.7899 38.8213 18.8699C38.8213 18.0199 38.9513 17.2099 39.2113 16.4299C39.4713 15.6599 39.8313 14.9699 40.3113 14.3699C40.7913 13.7699 41.3613 13.2899 42.0513 12.9299C42.7313 12.5699 43.5113 12.3899 44.3713 12.3899C45.1513 12.3899 45.8813 12.5099 46.5613 12.7499C47.2413 12.9899 47.7913 13.3999 48.2213 13.9899H48.2713V7.13989H52.0213V24.8499ZM48.5713 18.7799C48.5713 17.8599 48.3113 17.1199 47.7813 16.5499C47.2613 15.9799 46.5213 15.6999 45.5713 15.6999C44.6213 15.6999 43.8813 15.9799 43.3613 16.5499C42.8413 17.1199 42.5713 17.8599 42.5713 18.7799C42.5713 19.6999 42.8313 20.4399 43.3613 20.9999C43.8813 21.5699 44.6213 21.8499 45.5713 21.8499C46.5213 21.8499 47.2613 21.5699 47.7813 20.9999C48.3013 20.4299 48.5713 19.6899 48.5713 18.7799Z" fill="#272B38"/>
<path d="M55.7646 7.14989H67.7846V10.7499H59.6646V14.0499H67.3346V17.6499H59.6646V21.2499H68.2346V24.8499H55.7646V7.14989Z" fill="#272B38"/>
<path d="M86.0146 18.0299C86.0146 19.0799 85.8546 20.0499 85.5346 20.9299C85.2146 21.8099 84.7446 22.5799 84.1246 23.2299C83.5046 23.8799 82.7246 24.3899 81.7846 24.7499C80.8546 25.1199 79.7746 25.2999 78.5546 25.2999C77.3346 25.2999 76.2346 25.1199 75.3046 24.7499C74.3746 24.3799 73.5946 23.8699 72.9646 23.2299C72.3346 22.5899 71.8646 21.8099 71.5546 20.9299C71.2346 20.0499 71.0746 19.0799 71.0746 18.0299V7.14989H74.9746V17.8699C74.9746 18.4199 75.0646 18.9299 75.2346 19.3999C75.4146 19.8699 75.6546 20.2699 75.9746 20.6099C76.2946 20.9499 76.6746 21.2199 77.1146 21.4099C77.5546 21.5999 78.0346 21.6999 78.5546 21.6999C79.0746 21.6999 79.5446 21.5999 79.9846 21.4099C80.4146 21.2199 80.7946 20.9499 81.1046 20.6099C81.4246 20.2699 81.6646 19.8599 81.8446 19.3999C82.0146 18.9299 82.1046 18.4199 82.1046 17.8699V7.14989H86.0046V18.0299H86.0146Z" fill="#272B38"/>
<path d="M89.4146 7.14989H96.2646C97.1646 7.14989 98.0146 7.23989 98.8246 7.40989C99.6346 7.58989 100.345 7.87989 100.945 8.28989C101.555 8.69989 102.035 9.24989 102.395 9.93989C102.755 10.6299 102.935 11.4899 102.935 12.5299C102.935 13.7799 102.605 14.8399 101.955 15.7199C101.305 16.5999 100.355 17.1499 99.1046 17.3799L103.605 24.8599H98.9346L95.2346 17.7899H93.3146V24.8599H89.4146V7.14989ZM93.3146 14.4799H95.6146C95.9646 14.4799 96.3346 14.4699 96.7246 14.4399C97.1146 14.4199 97.4746 14.3399 97.7846 14.2199C98.0946 14.0999 98.3646 13.8999 98.5746 13.6299C98.7846 13.3599 98.8846 12.9899 98.8846 12.5099C98.8846 12.0599 98.7946 11.6999 98.6146 11.4399C98.4346 11.1699 98.1946 10.9699 97.9146 10.8299C97.6346 10.6899 97.3046 10.5899 96.9446 10.5399C96.5746 10.4899 96.2146 10.4699 95.8646 10.4699H93.3146V14.4899V14.4799Z" fill="#272B38"/>
<path d="M104.805 15.9999C104.805 14.5799 105.045 13.2999 105.515 12.1499C105.995 10.9999 106.655 10.0199 107.505 9.20989C108.355 8.39989 109.365 7.77989 110.535 7.34989C111.705 6.91989 112.975 6.69989 114.355 6.69989C115.735 6.69989 117.015 6.91989 118.185 7.34989C119.355 7.77989 120.355 8.39989 121.205 9.20989C122.055 10.0199 122.715 10.9999 123.195 12.1499C123.675 13.2999 123.905 14.5799 123.905 15.9999C123.905 17.4199 123.665 18.6999 123.195 19.8499C122.725 20.9999 122.055 21.9799 121.205 22.7899C120.355 23.5999 119.345 24.2199 118.185 24.6499C117.015 25.0799 115.745 25.2999 114.355 25.2999C112.965 25.2999 111.695 25.0799 110.535 24.6499C109.365 24.2199 108.355 23.5999 107.505 22.7899C106.655 21.9799 105.995 20.9999 105.515 19.8499C105.035 18.6999 104.805 17.4199 104.805 15.9999ZM108.855 15.9999C108.855 16.8299 108.985 17.5999 109.245 18.2899C109.505 18.9799 109.875 19.5799 110.355 20.0899C110.835 20.5999 111.415 20.9899 112.095 21.2799C112.765 21.5599 113.525 21.7099 114.355 21.7099C115.185 21.7099 115.945 21.5699 116.615 21.2799C117.285 20.9999 117.865 20.5999 118.355 20.0899C118.835 19.5799 119.205 18.9799 119.465 18.2899C119.725 17.5999 119.855 16.8399 119.855 15.9999C119.855 15.1599 119.725 14.4299 119.465 13.7299C119.205 13.0299 118.835 12.4299 118.355 11.9199C117.875 11.4099 117.295 11.0199 116.615 10.7299C115.935 10.4499 115.185 10.2999 114.355 10.2999C113.525 10.2999 112.765 10.4399 112.095 10.7299C111.415 11.0099 110.845 11.4099 110.355 11.9199C109.875 12.4299 109.505 13.0299 109.245 13.7299C108.985 14.4299 108.855 15.1899 108.855 15.9999Z" fill="#272B38"/>
<defs>
<linearGradient id="paint0_linear_1961_10288" x1="16" y1="32" x2="16" y2="0" gradientUnits="userSpaceOnUse">
<stop stop-color="#424756"/>
<stop offset="0.31" stop-color="#505565"/>
<stop offset="0.42" stop-color="#5F6475"/>
<stop offset="0.61" stop-color="#747A8B"/>
<stop offset="0.73" stop-color="#7C8394"/>
<stop offset="0.88" stop-color="#757C8C"/>
<stop offset="1" stop-color="#6E7484"/>
</linearGradient>
<radialGradient id="paint1_radial_1961_10288" cx="0" cy="0" r="1" gradientUnits="userSpaceOnUse" gradientTransform="translate(16 16) rotate(90) scale(16)">
<stop offset="0.80207" stop-color="#272B38" stop-opacity="0"/>
<stop offset="0.848055" stop-color="#272B38" stop-opacity="0.0421641"/>
<stop offset="0.882811" stop-color="#272B38" stop-opacity="0.0948692"/>
<stop offset="0.913817" stop-color="#272B38" stop-opacity="0.15"/>
<stop offset="0.957038" stop-color="#272B38" stop-opacity="0.34"/>
</radialGradient>
<linearGradient id="paint2_linear_1961_10288" x1="16" y1="32" x2="16" y2="0" gradientUnits="userSpaceOnUse">
<stop stop-color="#6D6E7C"/>
<stop offset="0.17" stop-color="#7A7C8A"/>
<stop offset="0.51" stop-color="#9EA2B1"/>
<stop offset="0.67" stop-color="#B3B8C7"/>
</linearGradient>
<linearGradient id="paint3_linear_1961_10288" x1="15" y1="8" x2="15" y2="23.8333" gradientUnits="userSpaceOnUse">
<stop offset="0.4" stop-color="white"/>
<stop offset="0.54" stop-color="#EAEAEC"/>
<stop offset="0.84" stop-color="#C4C6CB"/>
<stop offset="0.99" stop-color="#B6B8BF"/>
</linearGradient>
<linearGradient id="paint4_linear_1961_10288" x1="15" y1="8" x2="15" y2="23.8333" gradientUnits="userSpaceOnUse">
<stop offset="0.4" stop-color="white"/>
<stop offset="0.54" stop-color="#EAEAEC"/>
<stop offset="0.84" stop-color="#C4C6CB"/>
<stop offset="0.99" stop-color="#B6B8BF"/>
</linearGradient>
<linearGradient id="paint5_linear_1961_10288" x1="15" y1="8" x2="15" y2="23.8333" gradientUnits="userSpaceOnUse">
<stop offset="0.4" stop-color="white"/>
<stop offset="0.54" stop-color="#EAEAEC"/>
<stop offset="0.84" stop-color="#C4C6CB"/>
<stop offset="0.99" stop-color="#B6B8BF"/>
</linearGradient>
<linearGradient id="paint6_linear_1961_10288" x1="15" y1="8" x2="15" y2="23.8333" gradientUnits="userSpaceOnUse">
<stop offset="0.4" stop-color="white"/>
<stop offset="0.54" stop-color="#EAEAEC"/>
<stop offset="0.84" stop-color="#C4C6CB"/>
<stop offset="0.99" stop-color="#B6B8BF"/>
</linearGradient>
<linearGradient id="paint7_linear_1961_10288" x1="15" y1="8" x2="15" y2="23.8333" gradientUnits="userSpaceOnUse">
<stop offset="0.4" stop-color="white"/>
<stop offset="0.54" stop-color="#EAEAEC"/>
<stop offset="0.84" stop-color="#C4C6CB"/>
<stop offset="0.99" stop-color="#B6B8BF"/>
</linearGradient>
<linearGradient id="paint8_linear_1961_10288" x1="15" y1="8" x2="15" y2="23.8333" gradientUnits="userSpaceOnUse">
<stop offset="0.4" stop-color="white"/>
<stop offset="0.54" stop-color="#EAEAEC"/>
<stop offset="0.84" stop-color="#C4C6CB"/>
<stop offset="0.99" stop-color="#B6B8BF"/>
</linearGradient>
<linearGradient id="paint9_linear_1961_10288" x1="15" y1="8" x2="15" y2="23.8333" gradientUnits="userSpaceOnUse">
<stop offset="0.4" stop-color="white"/>
<stop offset="0.54" stop-color="#EAEAEC"/>
<stop offset="0.84" stop-color="#C4C6CB"/>
<stop offset="0.99" stop-color="#B6B8BF"/>
</linearGradient>
<linearGradient id="paint10_linear_1961_10288" x1="15" y1="8" x2="15" y2="23.8333" gradientUnits="userSpaceOnUse">
<stop offset="0.4" stop-color="white"/>
<stop offset="0.54" stop-color="#EAEAEC"/>
<stop offset="0.84" stop-color="#C4C6CB"/>
<stop offset="0.99" stop-color="#B6B8BF"/>
</linearGradient>
<linearGradient id="paint11_linear_1961_10288" x1="15" y1="8" x2="15" y2="23.8333" gradientUnits="userSpaceOnUse">
<stop offset="0.4" stop-color="white"/>
<stop offset="0.54" stop-color="#EAEAEC"/>
<stop offset="0.84" stop-color="#C4C6CB"/>
<stop offset="0.99" stop-color="#B6B8BF"/>
</linearGradient>
<clipPath id="clip0_1961_10288">
<rect width="32" height="32" fill="white"/>
</clipPath>
</defs>
</svg>
