<svg width="49" height="48" viewBox="0 0 49 48" fill="none" xmlns="http://www.w3.org/2000/svg">
<g clip-path="url(#clip0_305_6419)">
<g clip-path="url(#clip1_305_6419)">
<path d="M21.887 42C33.4849 42 42.887 32.598 42.887 21C42.887 9.40202 33.4849 0 21.887 0C10.289 0 0.886963 9.40202 0.886963 21C0.886963 32.598 10.289 42 21.887 42Z" fill="url(#paint0_linear_305_6419)"/>
<path d="M21.887 42C33.4849 42 42.887 32.598 42.887 21C42.887 9.40202 33.4849 0 21.887 0C10.289 0 0.886963 9.40202 0.886963 21C0.886963 32.598 10.289 42 21.887 42Z" fill="url(#paint1_radial_305_6419)"/>
<path d="M21.887 1.3125C32.7413 1.3125 41.5745 10.1456 41.5745 21C41.5745 31.8544 32.7413 40.6875 21.887 40.6875C11.0326 40.6875 2.19946 31.8544 2.19946 21C2.19946 10.1456 11.0326 1.3125 21.887 1.3125ZM21.887 0C10.2845 0 0.886963 9.3975 0.886963 21C0.886963 32.6025 10.2845 42 21.887 42C33.4895 42 42.887 32.6025 42.887 21C42.887 9.3975 33.4895 0 21.887 0Z" fill="url(#paint2_linear_305_6419)"/>
<path d="M27.137 34.125V31.5H16.637V34.125H27.137Z" fill="#272B38" fill-opacity="0.45"/>
<path d="M29.762 28.875H27.137V31.5H29.762V28.875Z" fill="#272B38" fill-opacity="0.45"/>
<path d="M16.637 28.875H14.012V31.5H16.637V28.875Z" fill="#272B38" fill-opacity="0.45"/>
<path d="M32.387 26.25H29.762V28.875H32.387V26.25Z" fill="#272B38" fill-opacity="0.45"/>
<path d="M32.387 15.75H29.762V18.375H32.387V15.75Z" fill="#272B38" fill-opacity="0.45"/>
<path d="M11.387 18.375H8.76196V21H11.387V23.625H8.76196V26.25H11.387V28.875H14.012V26.25H24.512V23.625H14.012V21H27.137V18.375H14.012V15.75H11.387V18.375Z" fill="#272B38" fill-opacity="0.45"/>
<path d="M29.762 13.125H27.137V15.75H29.762V13.125Z" fill="#272B38" fill-opacity="0.45"/>
<path d="M16.637 13.125H14.012V15.75H16.637V13.125Z" fill="#272B38" fill-opacity="0.45"/>
<path d="M16.637 10.5V13.125H27.137V10.5H16.637Z" fill="#272B38" fill-opacity="0.45"/>
<path d="M27.137 32.8125V30.1875H16.637V32.8125H27.137Z" fill="url(#paint3_linear_305_6419)"/>
<path d="M29.762 27.5625H27.137V30.1875H29.762V27.5625Z" fill="url(#paint4_linear_305_6419)"/>
<path d="M16.637 27.5625H14.012V30.1875H16.637V27.5625Z" fill="url(#paint5_linear_305_6419)"/>
<path d="M32.387 24.9375H29.762V27.5625H32.387V24.9375Z" fill="url(#paint6_linear_305_6419)"/>
<path d="M32.387 14.4375H29.762V17.0625H32.387V14.4375Z" fill="url(#paint7_linear_305_6419)"/>
<path d="M11.387 17.0625H8.76196V19.6875H11.387V22.3125H8.76196V24.9375H11.387V27.5625H14.012V24.9375H24.512V22.3125H14.012V19.6875H27.137V17.0625H14.012V14.4375H11.387V17.0625Z" fill="url(#paint8_linear_305_6419)"/>
<path d="M29.762 11.8125H27.137V14.4375H29.762V11.8125Z" fill="url(#paint9_linear_305_6419)"/>
<path d="M16.637 11.8125H14.012V14.4375H16.637V11.8125Z" fill="url(#paint10_linear_305_6419)"/>
<path d="M16.637 9.1875V11.8125H27.137V9.1875H16.637Z" fill="url(#paint11_linear_305_6419)"/>
</g>
<path d="M41.7752 27.76C39.682 33.9202 34.8071 38.7951 28.6469 40.8883C28.4767 40.1193 28.387 39.3201 28.387 38.5C28.387 32.4249 33.3118 27.5 39.387 27.5C40.2071 27.5 41.0063 27.5898 41.7752 27.76Z" fill="white"/>
<g clip-path="url(#clip2_305_6419)">
<circle cx="39.387" cy="38.5" r="9.5" fill="#213147"/>
<g clip-path="url(#clip3_305_6419)">
<path d="M33.5535 35.7074V41.296C33.5535 41.6505 33.7426 41.9815 34.0532 42.1571L38.8888 44.9497C39.1961 45.1286 39.5776 45.1286 39.8849 44.9497L44.7238 42.1571C45.0311 41.9781 45.2236 41.6505 45.2236 41.296V35.7074C45.2236 35.3529 45.0345 35.0219 44.7238 34.843L39.8849 32.0504C39.5776 31.8714 39.1961 31.8714 38.8888 32.0504L34.0499 34.843C33.7459 35.0219 33.5535 35.3495 33.5535 35.7074Z" fill="#213147"/>
<path d="M40.4455 39.5839L39.7532 41.4749C39.733 41.5256 39.733 41.5864 39.7532 41.637L40.9385 44.8922L42.3128 44.0987L40.665 39.5806C40.6278 39.4793 40.4826 39.4793 40.4455 39.5839Z" fill="#12AAFF"/>
<path d="M41.8265 36.3996C41.7894 36.295 41.6442 36.295 41.6037 36.3996L40.9114 38.2906C40.8912 38.3447 40.8912 38.4021 40.9114 38.4527L42.8565 43.7847L44.2308 42.9911L41.8265 36.3996Z" fill="#12AAFF"/>
<path d="M39.3885 32.2563C39.4223 32.2563 39.4561 32.2665 39.4865 32.2834L44.7205 35.3056C44.7813 35.3393 44.8184 35.4035 44.8184 35.4744V41.5188C44.8184 41.5897 44.7813 41.6539 44.7205 41.6877L39.4865 44.7133C39.4561 44.7302 39.4223 44.7403 39.3885 44.7403C39.3548 44.7403 39.321 44.7302 39.2906 44.7133L34.0566 41.6911C33.9958 41.6573 33.9587 41.5931 33.9587 41.5222V35.4744C33.9587 35.4035 33.9958 35.3393 34.0566 35.3056L39.2906 32.2834C39.321 32.2665 39.3548 32.2563 39.3885 32.2563ZM39.3885 31.375C39.2028 31.375 39.0137 31.4257 38.8483 31.5202L33.6143 34.5424C33.2833 34.7349 33.074 35.0895 33.074 35.4744V41.5188C33.074 41.9038 33.28 42.2617 33.6143 42.4542L38.8483 45.4764C39.0137 45.5743 39.1994 45.6216 39.3885 45.6216C39.5776 45.6216 39.7634 45.571 39.9288 45.4764L45.1628 42.4542C45.4971 42.2617 45.7031 41.9072 45.7031 41.5188V35.4744C45.7031 35.0895 45.4971 34.7315 45.1628 34.539L39.9288 31.5202C39.76 31.4257 39.5743 31.375 39.3885 31.375Z" fill="#9DCCED"/>
<path d="M35.9272 43.7914L36.4101 42.4745L37.3759 43.2781L36.4743 44.1054L35.9272 43.7914Z" fill="#213147"/>
<path d="M38.9462 35.0456H37.6191C37.5212 35.0456 37.43 35.1063 37.3962 35.2009L34.553 43.0012L35.9273 43.7948L39.061 35.2043C39.088 35.1266 39.0306 35.0456 38.9462 35.0456Z" fill="white"/>
<path d="M41.2694 35.0456H39.9423C39.8444 35.0456 39.7532 35.1063 39.7194 35.2009L36.4744 44.1055L37.8487 44.899L41.3808 35.2043C41.4112 35.1266 41.3504 35.0456 41.2694 35.0456Z" fill="white"/>
</g>
</g>
</g>
<defs>
<linearGradient id="paint0_linear_305_6419" x1="21.887" y1="42" x2="21.887" y2="0" gradientUnits="userSpaceOnUse">
<stop stop-color="#424756"/>
<stop offset="0.31" stop-color="#505565"/>
<stop offset="0.42" stop-color="#5F6475"/>
<stop offset="0.61" stop-color="#747A8B"/>
<stop offset="0.73" stop-color="#7C8394"/>
<stop offset="0.88" stop-color="#757C8C"/>
<stop offset="1" stop-color="#6E7484"/>
</linearGradient>
<radialGradient id="paint1_radial_305_6419" cx="0" cy="0" r="1" gradientUnits="userSpaceOnUse" gradientTransform="translate(21.887 21) rotate(90) scale(21)">
<stop offset="0.80207" stop-color="#272B38" stop-opacity="0"/>
<stop offset="0.848055" stop-color="#272B38" stop-opacity="0.0421641"/>
<stop offset="0.882811" stop-color="#272B38" stop-opacity="0.0948692"/>
<stop offset="0.913817" stop-color="#272B38" stop-opacity="0.15"/>
<stop offset="0.957038" stop-color="#272B38" stop-opacity="0.34"/>
</radialGradient>
<linearGradient id="paint2_linear_305_6419" x1="21.887" y1="42" x2="21.887" y2="0" gradientUnits="userSpaceOnUse">
<stop stop-color="#6D6E7C"/>
<stop offset="0.17" stop-color="#7A7C8A"/>
<stop offset="0.51" stop-color="#9EA2B1"/>
<stop offset="0.67" stop-color="#B3B8C7"/>
</linearGradient>
<linearGradient id="paint3_linear_305_6419" x1="20.5745" y1="10.5" x2="20.5745" y2="31.2812" gradientUnits="userSpaceOnUse">
<stop offset="0.4" stop-color="white"/>
<stop offset="0.54" stop-color="#EAEAEC"/>
<stop offset="0.84" stop-color="#C4C6CB"/>
<stop offset="0.99" stop-color="#B6B8BF"/>
</linearGradient>
<linearGradient id="paint4_linear_305_6419" x1="20.5745" y1="10.5" x2="20.5745" y2="31.2812" gradientUnits="userSpaceOnUse">
<stop offset="0.4" stop-color="white"/>
<stop offset="0.54" stop-color="#EAEAEC"/>
<stop offset="0.84" stop-color="#C4C6CB"/>
<stop offset="0.99" stop-color="#B6B8BF"/>
</linearGradient>
<linearGradient id="paint5_linear_305_6419" x1="20.5745" y1="10.5" x2="20.5745" y2="31.2812" gradientUnits="userSpaceOnUse">
<stop offset="0.4" stop-color="white"/>
<stop offset="0.54" stop-color="#EAEAEC"/>
<stop offset="0.84" stop-color="#C4C6CB"/>
<stop offset="0.99" stop-color="#B6B8BF"/>
</linearGradient>
<linearGradient id="paint6_linear_305_6419" x1="20.5745" y1="10.5" x2="20.5745" y2="31.2812" gradientUnits="userSpaceOnUse">
<stop offset="0.4" stop-color="white"/>
<stop offset="0.54" stop-color="#EAEAEC"/>
<stop offset="0.84" stop-color="#C4C6CB"/>
<stop offset="0.99" stop-color="#B6B8BF"/>
</linearGradient>
<linearGradient id="paint7_linear_305_6419" x1="20.5745" y1="10.5" x2="20.5745" y2="31.2812" gradientUnits="userSpaceOnUse">
<stop offset="0.4" stop-color="white"/>
<stop offset="0.54" stop-color="#EAEAEC"/>
<stop offset="0.84" stop-color="#C4C6CB"/>
<stop offset="0.99" stop-color="#B6B8BF"/>
</linearGradient>
<linearGradient id="paint8_linear_305_6419" x1="20.5745" y1="10.5" x2="20.5745" y2="31.2812" gradientUnits="userSpaceOnUse">
<stop offset="0.4" stop-color="white"/>
<stop offset="0.54" stop-color="#EAEAEC"/>
<stop offset="0.84" stop-color="#C4C6CB"/>
<stop offset="0.99" stop-color="#B6B8BF"/>
</linearGradient>
<linearGradient id="paint9_linear_305_6419" x1="20.5745" y1="10.5" x2="20.5745" y2="31.2812" gradientUnits="userSpaceOnUse">
<stop offset="0.4" stop-color="white"/>
<stop offset="0.54" stop-color="#EAEAEC"/>
<stop offset="0.84" stop-color="#C4C6CB"/>
<stop offset="0.99" stop-color="#B6B8BF"/>
</linearGradient>
<linearGradient id="paint10_linear_305_6419" x1="20.5745" y1="10.5" x2="20.5745" y2="31.2812" gradientUnits="userSpaceOnUse">
<stop offset="0.4" stop-color="white"/>
<stop offset="0.54" stop-color="#EAEAEC"/>
<stop offset="0.84" stop-color="#C4C6CB"/>
<stop offset="0.99" stop-color="#B6B8BF"/>
</linearGradient>
<linearGradient id="paint11_linear_305_6419" x1="20.5745" y1="10.5" x2="20.5745" y2="31.2812" gradientUnits="userSpaceOnUse">
<stop offset="0.4" stop-color="white"/>
<stop offset="0.54" stop-color="#EAEAEC"/>
<stop offset="0.84" stop-color="#C4C6CB"/>
<stop offset="0.99" stop-color="#B6B8BF"/>
</linearGradient>
<clipPath id="clip0_305_6419">
<rect width="48" height="48" fill="white" transform="translate(0.886963)"/>
</clipPath>
<clipPath id="clip1_305_6419">
<rect width="42" height="42" fill="white" transform="translate(0.886963)"/>
</clipPath>
<clipPath id="clip2_305_6419">
<rect width="19" height="19" fill="white" transform="translate(29.887 29)"/>
</clipPath>
<clipPath id="clip3_305_6419">
<rect width="12.6258" height="14.25" fill="white" transform="translate(33.074 31.375)"/>
</clipPath>
</defs>
</svg>
