<svg width="47" height="46" viewBox="0 0 47 46" fill="none" xmlns="http://www.w3.org/2000/svg">
<g clip-path="url(#clip0_3218_13953)">
<g clip-path="url(#clip1_3218_13953)">
<path d="M20.792 40.25C31.9067 40.25 40.917 31.2397 40.917 20.125C40.917 9.01027 31.9067 0 20.792 0C9.67726 0 0.666992 9.01027 0.666992 20.125C0.666992 31.2397 9.67726 40.25 20.792 40.25Z" fill="url(#paint0_linear_3218_13953)"/>
<path d="M20.792 40.25C31.9067 40.25 40.917 31.2397 40.917 20.125C40.917 9.01027 31.9067 0 20.792 0C9.67726 0 0.666992 9.01027 0.666992 20.125C0.666992 31.2397 9.67726 40.25 20.792 40.25Z" fill="url(#paint1_radial_3218_13953)"/>
<path d="M20.792 1.25781C31.1941 1.25781 39.6592 9.72289 39.6592 20.125C39.6592 30.5271 31.1941 38.9922 20.792 38.9922C10.3899 38.9922 1.9248 30.5271 1.9248 20.125C1.9248 9.72289 10.3899 1.25781 20.792 1.25781ZM20.792 0C9.67293 0 0.666992 9.00594 0.666992 20.125C0.666992 31.2441 9.67293 40.25 20.792 40.25C31.9111 40.25 40.917 31.2441 40.917 20.125C40.917 9.00594 31.9111 0 20.792 0Z" fill="url(#paint2_linear_3218_13953)"/>
<path d="M25.8232 32.7031V30.1875H15.7607V32.7031H25.8232Z" fill="#272B38" fill-opacity="0.45"/>
<path d="M28.3389 27.6719H25.8232V30.1875H28.3389V27.6719Z" fill="#272B38" fill-opacity="0.45"/>
<path d="M15.7607 27.6719H13.2451V30.1875H15.7607V27.6719Z" fill="#272B38" fill-opacity="0.45"/>
<path d="M30.8545 25.1563H28.3389V27.6719H30.8545V25.1563Z" fill="#272B38" fill-opacity="0.45"/>
<path d="M30.8545 15.0938H28.3389V17.6094H30.8545V15.0938Z" fill="#272B38" fill-opacity="0.45"/>
<path d="M10.7295 17.6094H8.21387V20.125H10.7295V22.6406H8.21387V25.1563H10.7295V27.6719H13.2451V25.1563H23.3076V22.6406H13.2451V20.125H25.8232V17.6094H13.2451V15.0938H10.7295V17.6094Z" fill="#272B38" fill-opacity="0.45"/>
<path d="M28.3389 12.5781H25.8232V15.0938H28.3389V12.5781Z" fill="#272B38" fill-opacity="0.45"/>
<path d="M15.7607 12.5781H13.2451V15.0938H15.7607V12.5781Z" fill="#272B38" fill-opacity="0.45"/>
<path d="M15.7607 10.0625V12.5781H25.8232V10.0625H15.7607Z" fill="#272B38" fill-opacity="0.45"/>
<path d="M25.8232 31.4453V28.9297H15.7607V31.4453H25.8232Z" fill="url(#paint3_linear_3218_13953)"/>
<path d="M28.3389 26.4141H25.8232V28.9297H28.3389V26.4141Z" fill="url(#paint4_linear_3218_13953)"/>
<path d="M15.7607 26.4141H13.2451V28.9297H15.7607V26.4141Z" fill="url(#paint5_linear_3218_13953)"/>
<path d="M30.8545 23.8984H28.3389V26.4141H30.8545V23.8984Z" fill="url(#paint6_linear_3218_13953)"/>
<path d="M30.8545 13.8359H28.3389V16.3516H30.8545V13.8359Z" fill="url(#paint7_linear_3218_13953)"/>
<path d="M10.7295 16.3516H8.21387V18.8672H10.7295V21.3828H8.21387V23.8984H10.7295V26.4141H13.2451V23.8984H23.3076V21.3828H13.2451V18.8672H25.8232V16.3516H13.2451V13.8359H10.7295V16.3516Z" fill="url(#paint8_linear_3218_13953)"/>
<path d="M28.3389 11.3203H25.8232V13.8359H28.3389V11.3203Z" fill="url(#paint9_linear_3218_13953)"/>
<path d="M15.7607 11.3203H13.2451V13.8359H15.7607V11.3203Z" fill="url(#paint10_linear_3218_13953)"/>
<path d="M15.7607 8.80469V11.3203H25.8232V8.80469H15.7607Z" fill="url(#paint11_linear_3218_13953)"/>
</g>
<path d="M39.8519 26.6033C37.8459 32.5068 33.1742 37.1786 27.2706 39.1845C27.1075 38.4476 27.0215 37.6818 27.0215 36.8958C27.0215 31.0738 31.7411 26.3541 37.5632 26.3541C38.3491 26.3541 39.115 26.4401 39.8519 26.6033Z" fill="white"/>
<g clip-path="url(#clip2_3218_13953)">
<path d="M37.5632 46C42.5912 46 46.6673 41.9239 46.6673 36.8958C46.6673 31.8677 42.5912 27.7916 37.5632 27.7916C32.5351 27.7916 28.459 31.8677 28.459 36.8958C28.459 41.9239 32.5351 46 37.5632 46Z" fill="#121212"/>
<path d="M33.8585 39.1425C33.9247 39.0768 34.0158 39.0384 34.1124 39.0384H42.8704C43.0305 39.0384 43.1105 39.2301 42.9973 39.3424L41.2673 41.0593C41.201 41.125 41.11 41.1633 41.0134 41.1633H32.2554C32.0953 41.1633 32.0153 40.9717 32.1284 40.8594L33.8585 39.1425Z" fill="url(#paint12_linear_3218_13953)"/>
<path d="M33.8583 32.7322C33.9272 32.6665 34.0183 32.6282 34.1121 32.6282H42.8702C43.0302 32.6282 43.1102 32.8199 42.9971 32.9321L41.267 34.649C41.2008 34.7147 41.1097 34.7531 41.0132 34.7531H32.2551C32.0951 34.7531 32.015 34.5614 32.1282 34.4491L33.8583 32.7322Z" fill="url(#paint13_linear_3218_13953)"/>
<path d="M41.2673 35.9168C41.201 35.8511 41.11 35.8128 41.0134 35.8128H32.2554C32.0953 35.8128 32.0153 36.0044 32.1284 36.1167L33.8585 37.8336C33.9247 37.8993 34.0158 37.9377 34.1124 37.9377H42.8704C43.0305 37.9377 43.1105 37.746 42.9973 37.6337L41.2673 35.9168Z" fill="url(#paint14_linear_3218_13953)"/>
</g>
</g>
<defs>
<linearGradient id="paint0_linear_3218_13953" x1="20.792" y1="40.25" x2="20.792" y2="0" gradientUnits="userSpaceOnUse">
<stop stop-color="#424756"/>
<stop offset="0.31" stop-color="#505565"/>
<stop offset="0.42" stop-color="#5F6475"/>
<stop offset="0.61" stop-color="#747A8B"/>
<stop offset="0.73" stop-color="#7C8394"/>
<stop offset="0.88" stop-color="#757C8C"/>
<stop offset="1" stop-color="#6E7484"/>
</linearGradient>
<radialGradient id="paint1_radial_3218_13953" cx="0" cy="0" r="1" gradientUnits="userSpaceOnUse" gradientTransform="translate(20.792 20.125) rotate(90) scale(20.125)">
<stop offset="0.80207" stop-color="#272B38" stop-opacity="0"/>
<stop offset="0.848055" stop-color="#272B38" stop-opacity="0.0421641"/>
<stop offset="0.882811" stop-color="#272B38" stop-opacity="0.0948692"/>
<stop offset="0.913817" stop-color="#272B38" stop-opacity="0.15"/>
<stop offset="0.957038" stop-color="#272B38" stop-opacity="0.34"/>
</radialGradient>
<linearGradient id="paint2_linear_3218_13953" x1="20.792" y1="40.25" x2="20.792" y2="0" gradientUnits="userSpaceOnUse">
<stop stop-color="#6D6E7C"/>
<stop offset="0.17" stop-color="#7A7C8A"/>
<stop offset="0.51" stop-color="#9EA2B1"/>
<stop offset="0.67" stop-color="#B3B8C7"/>
</linearGradient>
<linearGradient id="paint3_linear_3218_13953" x1="19.5342" y1="10.0625" x2="19.5342" y2="29.9779" gradientUnits="userSpaceOnUse">
<stop offset="0.4" stop-color="white"/>
<stop offset="0.54" stop-color="#EAEAEC"/>
<stop offset="0.84" stop-color="#C4C6CB"/>
<stop offset="0.99" stop-color="#B6B8BF"/>
</linearGradient>
<linearGradient id="paint4_linear_3218_13953" x1="19.5342" y1="10.0625" x2="19.5342" y2="29.9779" gradientUnits="userSpaceOnUse">
<stop offset="0.4" stop-color="white"/>
<stop offset="0.54" stop-color="#EAEAEC"/>
<stop offset="0.84" stop-color="#C4C6CB"/>
<stop offset="0.99" stop-color="#B6B8BF"/>
</linearGradient>
<linearGradient id="paint5_linear_3218_13953" x1="19.5342" y1="10.0625" x2="19.5342" y2="29.9779" gradientUnits="userSpaceOnUse">
<stop offset="0.4" stop-color="white"/>
<stop offset="0.54" stop-color="#EAEAEC"/>
<stop offset="0.84" stop-color="#C4C6CB"/>
<stop offset="0.99" stop-color="#B6B8BF"/>
</linearGradient>
<linearGradient id="paint6_linear_3218_13953" x1="19.5342" y1="10.0625" x2="19.5342" y2="29.9779" gradientUnits="userSpaceOnUse">
<stop offset="0.4" stop-color="white"/>
<stop offset="0.54" stop-color="#EAEAEC"/>
<stop offset="0.84" stop-color="#C4C6CB"/>
<stop offset="0.99" stop-color="#B6B8BF"/>
</linearGradient>
<linearGradient id="paint7_linear_3218_13953" x1="19.5342" y1="10.0625" x2="19.5342" y2="29.9779" gradientUnits="userSpaceOnUse">
<stop offset="0.4" stop-color="white"/>
<stop offset="0.54" stop-color="#EAEAEC"/>
<stop offset="0.84" stop-color="#C4C6CB"/>
<stop offset="0.99" stop-color="#B6B8BF"/>
</linearGradient>
<linearGradient id="paint8_linear_3218_13953" x1="19.5342" y1="10.0625" x2="19.5342" y2="29.9779" gradientUnits="userSpaceOnUse">
<stop offset="0.4" stop-color="white"/>
<stop offset="0.54" stop-color="#EAEAEC"/>
<stop offset="0.84" stop-color="#C4C6CB"/>
<stop offset="0.99" stop-color="#B6B8BF"/>
</linearGradient>
<linearGradient id="paint9_linear_3218_13953" x1="19.5342" y1="10.0625" x2="19.5342" y2="29.9779" gradientUnits="userSpaceOnUse">
<stop offset="0.4" stop-color="white"/>
<stop offset="0.54" stop-color="#EAEAEC"/>
<stop offset="0.84" stop-color="#C4C6CB"/>
<stop offset="0.99" stop-color="#B6B8BF"/>
</linearGradient>
<linearGradient id="paint10_linear_3218_13953" x1="19.5342" y1="10.0625" x2="19.5342" y2="29.9779" gradientUnits="userSpaceOnUse">
<stop offset="0.4" stop-color="white"/>
<stop offset="0.54" stop-color="#EAEAEC"/>
<stop offset="0.84" stop-color="#C4C6CB"/>
<stop offset="0.99" stop-color="#B6B8BF"/>
</linearGradient>
<linearGradient id="paint11_linear_3218_13953" x1="19.5342" y1="10.0625" x2="19.5342" y2="29.9779" gradientUnits="userSpaceOnUse">
<stop offset="0.4" stop-color="white"/>
<stop offset="0.54" stop-color="#EAEAEC"/>
<stop offset="0.84" stop-color="#C4C6CB"/>
<stop offset="0.99" stop-color="#B6B8BF"/>
</linearGradient>
<linearGradient id="paint12_linear_3218_13953" x1="42.0337" y1="2.76004" x2="19.0432" y2="13.8077" gradientUnits="userSpaceOnUse">
<stop stop-color="#00FFA3"/>
<stop offset="1" stop-color="#DC1FFF"/>
</linearGradient>
<linearGradient id="paint13_linear_3218_13953" x1="39.3834" y1="22.993" x2="16.3928" y2="34.0406" gradientUnits="userSpaceOnUse">
<stop stop-color="#00FFA3"/>
<stop offset="1" stop-color="#DC1FFF"/>
</linearGradient>
<linearGradient id="paint14_linear_3218_13953" x1="40.7002" y1="30.9116" x2="34.7116" y2="42.4705" gradientUnits="userSpaceOnUse">
<stop stop-color="#00FFA3"/>
<stop offset="1" stop-color="#DC1FFF"/>
</linearGradient>
<clipPath id="clip0_3218_13953">
<rect width="46" height="46" fill="white" transform="translate(0.666992)"/>
</clipPath>
<clipPath id="clip1_3218_13953">
<rect width="40.25" height="40.25" fill="white" transform="translate(0.666992)"/>
</clipPath>
<clipPath id="clip2_3218_13953">
<rect width="18.2083" height="18.2083" fill="white" transform="translate(28.459 27.7916)"/>
</clipPath>
</defs>
</svg>
