<svg width="91" height="29" viewBox="0 0 91 29" fill="none" xmlns="http://www.w3.org/2000/svg">
<g clip-path="url(#clip0_3891_17344)">
<g clip-path="url(#clip1_3891_17344)">
<path fill-rule="evenodd" clip-rule="evenodd" d="M44.6494 12.6542V5.25422H59.3311V0.0546875H38.1692V28.0547H44.6494V17.8538H56.5154V12.6542H44.6494ZM75.6898 18.3329L82.4509 28.0547H82.4539H89.9338L79.4933 13.5741L89.2535 0.0546875H82.2528L75.9323 9.13465L69.4905 0.0546875H62.1319L71.969 13.8136L61.6084 28.0547H69.0499L75.6898 18.3329Z" fill="#121212"/>
<path fill-rule="evenodd" clip-rule="evenodd" d="M21.2623 0.0546875H10.9273V5.73981H19.5822C24.1581 5.73981 27.8998 9.48158 27.8998 14.0575C27.8998 18.6334 24.1581 22.3752 19.5822 22.3752H10.9273V28.0603H20.9399C28.7606 28.0603 35.1024 21.7215 35.1024 13.8978C35.1024 6.07406 28.9055 0.0546875 21.2623 0.0546875ZM8.56093 21.8221C12.8492 21.8221 16.3255 18.3458 16.3255 14.0575C16.3255 9.7693 12.8492 6.293 8.56093 6.293C4.27269 6.293 0.796387 9.7693 0.796387 14.0575C0.796387 18.3458 4.27269 21.8221 8.56093 21.8221ZM13.7343 6.8521C14.6394 6.68941 15.5889 6.69828 16.5414 6.91421C20.3423 7.77201 22.7293 11.5493 21.8715 15.3502C21.0788 18.8613 17.7955 21.1655 14.3022 20.8194C16.216 19.1925 17.4317 16.767 17.4317 14.0576C17.4317 11.0878 15.9734 8.46416 13.7343 6.8521Z" fill="#121212"/>
</g>
</g>
<defs>
<clipPath id="clip0_3891_17344">
<rect width="89.6" height="28" fill="white" transform="translate(0.796387 0.0546875)"/>
</clipPath>
<clipPath id="clip1_3891_17344">
<rect width="89.1345" height="28" fill="white" transform="translate(0.796387 0.0546875)"/>
</clipPath>
</defs>
</svg>
