<svg width="38" height="38" viewBox="0 0 38 38" fill="none" xmlns="http://www.w3.org/2000/svg">
<mask id="mask0_3649_16793" style="mask-type:luminance" maskUnits="userSpaceOnUse" x="0" y="0" width="38" height="38">
<path d="M38 0H0V38H38V0Z" fill="white"/>
</mask>
<g mask="url(#mask0_3649_16793)">
<path d="M10.4426 37.9973C20.2342 37.9973 20.2341 37.851 21.8958 37.3606C24.0644 36.7183 15.7703 31.0001 10.4426 31.0001C5.11479 31.0001 0.797852 32.5658 0.797852 34.4987C0.797852 36.4315 5.11479 37.9973 10.4426 37.9973Z" fill="black"/>
<path d="M32.6757 8.2532L33.1249 8.73497L32.7333 9.2655C19.961 26.4603 12.6058 34.2461 9.484 33.2023C7.58329 32.5656 5.67681 30.6529 3.77033 27.8769C3.09931 26.9019 2.4715 25.8724 1.8984 24.8486C1.51826 24.1661 1.19571 23.5467 1.0258 23.1968C0.850128 22.8556 0.726294 22.4914 0.651417 22.1128L0.642777 22.0698C0.613978 21.915 0.602459 21.8691 0.57942 21.783C-1.88576 12.529 3.64937 3.03684 12.9427 0.579212C17.3058 -0.573606 21.9452 0.00567094 25.8878 2.19373L25.954 2.23388C28.0592 3.69354 30.2998 5.70094 32.6757 8.25033M25.0728 3.55876C17.4296 -0.653902 7.80504 2.10197 3.57449 9.71286C1.5989 13.2688 1.07764 17.4442 2.12304 21.373C2.15759 21.502 2.17487 21.5766 2.20943 21.763L2.21807 21.8031C2.26703 22.0497 2.35054 22.2878 2.46862 22.5086C2.62125 22.8269 2.9294 23.4205 3.29227 24.0715C3.84232 25.0551 4.4471 26.0416 5.08643 26.9765C6.8086 29.4857 8.51925 31.2006 9.99086 31.691C11.9578 32.3477 19.3562 24.5475 31.0514 8.84968C29.24 6.89391 27.2356 5.12166 25.0728 3.56163" fill="black"/>
<path d="M25.0729 3.56454C17.4297 -0.64812 7.80513 2.10775 3.57459 9.71864C1.59899 13.2746 1.07773 17.4529 2.12313 21.3787C2.15769 21.5078 2.17497 21.5824 2.20953 21.7688L2.21817 21.8089C2.26712 22.0555 2.35064 22.2935 2.46871 22.5144C2.62135 22.8327 2.92949 23.4263 3.29236 24.0773C3.84242 25.0609 4.44719 26.0474 5.08652 26.9822C6.80869 29.4915 8.51646 31.2064 9.99096 31.6968C11.9579 32.3563 19.3563 24.5562 31.0544 8.85546C29.2429 6.89682 27.2386 5.12458 25.0758 3.56454" fill="#EC1C79"/>
<path d="M20.5945 37.8393C10.9815 37.8393 3.19141 30.0793 3.19141 20.5098C3.19141 10.9402 10.9844 3.18021 20.5945 3.18021C30.2047 3.18021 37.9976 10.9402 37.9976 20.5098C37.9976 30.0793 30.2076 37.8393 20.5945 37.8393ZM20.5945 36.2506C29.3234 36.2506 36.4022 29.2047 36.4022 20.5098C36.4022 11.8177 29.3263 4.76892 20.5945 4.76892C11.8656 4.76892 4.78686 11.8149 4.78686 20.5098C4.78686 29.2018 11.8627 36.2506 20.5945 36.2506Z" fill="black"/>
<path d="M20.5948 36.2478C29.3237 36.2478 36.4024 29.2018 36.4024 20.5069C36.4024 11.812 29.3266 4.76605 20.5948 4.76605C11.863 4.76605 4.78711 11.812 4.78711 20.5069C4.78711 29.1989 11.863 36.2478 20.5948 36.2478Z" fill="white"/>
<path fill-rule="evenodd" clip-rule="evenodd" d="M8.77238 23.7332L6.67871 17.4558H8.51319L9.60467 21.0605L10.8113 17.4357H12.3031L13.5098 21.0605L14.6013 17.4558H16.3983L14.3046 23.7332H12.7927L11.5313 20.1457L10.2786 23.7332H8.76662H8.77238ZM17.0866 23.6902V17.4587H22.1206V18.9269H18.803V19.8704H21.8067V21.2326H18.803V22.2191H22.1638V23.6873H17.0866V23.6902ZM24.58 23.6902V18.9699H22.7024V17.4558H28.1914V18.9699H26.3137V23.6873H24.58V23.6902ZM28.9517 23.6902V17.4587H30.6854V19.7901H32.9115V17.4587H34.6481V23.6902H32.9115V21.3215H30.6854V23.6902H28.9517Z" fill="black"/>
<path d="M1.03798 15.5831C0.597362 15.3623 0.41593 14.8289 0.637681 14.3873C0.859431 13.9485 1.39509 13.7679 1.83859 13.9887L4.39304 15.262C4.83366 15.4828 5.0151 16.0162 4.79334 16.4549C4.57159 16.8937 4.03594 17.0743 3.59532 16.8535L1.04086 15.5803L1.03798 15.5831Z" fill="black"/>
<path d="M0.743124 19.7988C0.293863 19.5923 0.0980316 19.0647 0.305383 18.6173C0.512734 18.17 1.04263 17.9749 1.49189 18.1814L4.04635 19.3543C4.49273 19.5665 4.6828 20.0971 4.46969 20.5415C4.26234 20.9774 3.74108 21.1696 3.29758 20.9717L0.743124 19.7988Z" fill="black"/>
</g>
</svg>
