<svg width="39" height="39" viewBox="0 0 39 39" fill="none" xmlns="http://www.w3.org/2000/svg">
<g clip-path="url(#clip0_3641_17200)">
<path d="M19.8887 38.4819C30.3821 38.4819 38.8887 29.9753 38.8887 19.4819C38.8887 8.98852 30.3821 0.481934 19.8887 0.481934C9.39526 0.481934 0.888672 8.98852 0.888672 19.4819C0.888672 29.9753 9.39526 38.4819 19.8887 38.4819Z" fill="#3D74C4"/>
<path d="M12.5153 20.3836L11.8097 21.3333C11.6419 21.6614 11.8822 22.0542 12.2521 22.0542H14.5559C15.2844 25.0712 17.3821 27.127 20.1931 27.0812C22.1879 27.0812 23.6945 26.0895 24.6976 24.11C24.8273 23.8583 24.7129 23.5493 24.4573 23.4349L23.3588 22.9429C23.1186 22.8361 22.8325 22.9353 22.7143 23.1756C22.1955 24.2282 21.3335 24.8995 20.1931 24.8995C19.1633 24.8995 18.3357 24.3961 17.7025 23.3739C17.4546 22.9772 17.2563 22.5386 17.1075 22.0542H20.0596C20.2465 22.0542 20.4182 21.9474 20.5021 21.7834L21.2077 20.8337C21.3755 20.5019 21.1352 20.1128 20.7652 20.1128H16.7757C16.7642 19.9069 16.7566 19.7009 16.7566 19.4835C16.7566 19.2699 16.7566 19.0601 16.7719 18.8542H20.0596C20.2465 18.8542 20.4182 18.7474 20.5021 18.5834L21.2077 17.6336C21.3755 17.3056 21.1352 16.9128 20.7652 16.9128H17.1075C17.6415 15.1659 18.759 14.0217 20.1969 14.0446C21.2916 14.0446 22.1421 14.6434 22.6876 15.6274C22.8096 15.8486 23.0842 15.9325 23.3169 15.8296L24.423 15.3414C24.6862 15.2231 24.8006 14.9066 24.6595 14.651C23.6411 12.8088 22.1536 11.882 20.1969 11.882C18.4119 11.882 16.9855 12.5914 15.8984 13.9988C15.2653 14.8265 14.8228 15.8029 14.5597 16.909H12.9539C12.767 16.909 12.5954 17.0158 12.5115 17.1798L11.8059 18.1295C11.6381 18.4613 11.8784 18.8503 12.2483 18.8503H14.2927C14.2812 19.0563 14.2736 19.2623 14.2736 19.4797C14.2736 19.6933 14.2736 19.903 14.2851 20.109H12.9539C12.767 20.109 12.5954 20.2158 12.5115 20.3798L12.5153 20.3836Z" fill="white"/>
<path d="M15.8512 30.5652C9.67617 28.3486 6.50944 21.4611 8.8054 15.3652C9.9929 12.0402 12.6054 9.5069 15.8512 8.3194C16.1679 8.16113 16.3262 7.92363 16.3262 7.52767V6.4194C16.3262 6.10267 16.1679 5.86517 15.8512 5.78613C15.7719 5.78613 15.6137 5.78613 15.5344 5.86517C8.01367 8.24017 3.89694 16.2361 6.27194 23.7569C7.69694 28.1902 11.1012 31.5944 15.5344 33.0194C15.8512 33.1777 16.1679 33.0194 16.2469 32.7027C16.3262 32.6236 16.3262 32.5444 16.3262 32.3861V31.2777C16.3262 31.0402 16.0887 30.7236 15.8512 30.5652ZM24.2429 5.86517C23.9262 5.7069 23.6094 5.86517 23.5304 6.1819C23.4512 6.26113 23.4512 6.34017 23.4512 6.49863V7.6069C23.4512 7.92363 23.6887 8.24017 23.9262 8.39863C30.1012 10.6152 33.2679 17.5027 30.9719 23.5986C29.7844 26.9236 27.1719 29.4569 23.9262 30.6444C23.6094 30.8027 23.4512 31.0402 23.4512 31.4361V32.5444C23.4512 32.8611 23.6094 33.0986 23.9262 33.1777C24.0054 33.1777 24.1637 33.1777 24.2429 33.0986C31.7637 30.7236 35.8804 22.7277 33.5054 15.2069C32.0804 10.6944 28.5969 7.29017 24.2429 5.86517V5.86517Z" fill="white"/>
</g>
<defs>
<clipPath id="clip0_3641_17200">
<rect width="38" height="38" fill="white" transform="translate(0.888672 0.481934)"/>
</clipPath>
</defs>
</svg>
