<svg width="213" height="30" viewBox="0 0 213 30" fill="none" xmlns="http://www.w3.org/2000/svg">
<g clip-path="url(#clip0_4461_14084)">
<path d="M17.8499 0.802312C17.6622 2.72647 15.4639 5.56453 12.8802 5.70779C10.2175 5.80165 7.39427 3.19824 4.61548 3.29951C3.13099 3.35138 1.3995 3.97877 1.32787 5.82882C1.30811 7.31084 2.53819 7.9901 4.40059 7.9654C5.98141 7.8666 6.33462 7.66159 7.58693 6.89094C6.96201 7.9654 5.72947 8.64219 4.38824 8.76322C2.16027 8.71876 1.0784 7.28614 0.883267 5.66086C0.737535 3.78117 2.51596 0.246556 6.4186 0.249026C9.90382 0.246556 12.7048 2.42018 14.6809 2.46711C16.069 2.44488 16.9236 1.68411 17.8474 0.799842" fill="black"/>
<path d="M14.0236 8.87453C14.8536 8.88441 15.6316 9.62542 15.6316 10.6381C15.6316 11.5496 14.8239 12.2708 14.0187 12.2659C13.169 12.2634 11.887 11.3322 12.7985 9.92182C12.7985 9.92182 11.4622 10.5245 11.8401 12.0559C13.0974 13.0143 14.8758 14.5087 14.5275 17.0133C14.1348 19.8242 9.97771 20.5059 9.3034 22.9784C8.57227 21.2197 7.46322 20.3923 6.03061 20.4071C3.59269 20.4318 2.15266 22.3905 2.21194 23.8281C2.31074 26.0906 3.76806 27.0441 6.90994 26.9675C9.87644 26.8168 11.6623 25.5349 12.8751 23.544C12.4873 24.9569 10.9311 28.2519 6.70987 28.3013C2.73806 28.2519 1.45611 25.3348 1.40918 23.2205C1.45858 19.2981 4.57329 17.737 6.68516 17.7123C8.96006 17.6851 9.92831 18.7201 11.2597 20.1033C11.2597 20.1033 11.9908 18.5126 11.1436 17.0652C9.60474 14.4321 7.06802 14.9681 6.48262 11.7077C5.99603 8.99062 9.6986 6.12786 10.8076 5.79688C9.95548 6.68609 8.57474 7.66916 9.44913 9.89712C9.82951 10.8728 11.3906 11.6607 11.3906 11.6607C11.3659 10.8234 12.0896 8.84242 14.0236 8.87206" fill="black"/>
<path d="M17.0593 10.4185L19.0848 7.55322C19.0848 7.55322 20.6878 7.778 21.54 9.77872L23.1899 7.61991C23.1899 7.61991 24.4324 9.58606 26.1317 7.73847C26.1317 7.73847 25.3339 10.8878 23.2863 10.9767C22.5527 11.0088 21.7252 10.3987 21.7252 10.3987V19.066C21.7252 19.066 21.5795 20.0738 22.9825 20.39C22.9825 20.39 21.582 21.8374 20.631 23.2503C19.4355 21.788 18.0078 20.6271 18.0078 20.6271C18.0078 20.6271 18.6673 20.39 18.6723 19.4267L18.6797 10.9742C18.6797 10.9742 18.5339 9.65769 17.0593 10.4185Z" fill="black"/>
<path fill-rule="evenodd" clip-rule="evenodd" d="M31.677 7.64453C31.677 7.64453 29.4268 9.52916 27.4557 10.2183C25.9194 10.7543 25.9614 12.2141 25.9614 12.2141L25.9688 20.1157C25.9688 20.1157 25.6032 21.6298 28.755 23.3416C28.755 23.3416 29.659 21.7212 30.9508 20.4047C30.9508 20.4047 31.1608 22.4054 33.2578 23.186C33.2578 23.186 33.8605 21.5409 35.1746 20.5653C34.5818 20.301 33.7741 19.9823 33.7716 18.7251L33.7494 10.9988C33.7494 10.9988 33.6827 10.7024 34.2705 10.0701L31.682 7.64453H31.677ZM29.6244 9.70701C28.9649 10.0232 28.7723 10.6333 28.7945 11.2434V18.8017C28.7723 19.4809 29.1848 20.2861 29.8937 20.2861C30.8668 20.2861 30.8743 19.1919 30.8743 19.1919L30.8668 11.3422C30.8668 11.3422 30.9409 10.5863 29.6244 9.70948" fill="black"/>
<path d="M38.6647 7.73598C37.6841 9.15378 36.3528 10.7247 36.3528 10.7247C36.3528 10.7247 37.7656 10.9124 37.7113 11.9424L37.7311 19.3525C37.7212 20.4887 37.0123 20.5456 37.0123 20.5456C37.0123 20.5456 38.3757 21.6595 39.2773 23.2972C39.2773 23.2972 40.2653 21.5632 41.3398 20.511C41.3398 20.511 40.6161 20.5456 40.6161 19.276L40.5938 11.9647C40.6136 11.5275 41.1767 10.8186 41.6683 10.8186C42.6711 10.8186 42.8613 11.6238 42.8391 12.2611V19.8367C42.8169 20.8642 42.8193 21.8967 44.8225 23.2626C44.8225 23.2626 45.8575 21.6027 47.1542 20.5011C47.1542 20.5011 45.771 20.6419 45.771 19.0784L45.7562 11.4311C45.7562 11.4311 45.7562 10.416 46.1217 10.1714C46.1217 10.1714 44.6743 9.08462 43.5579 7.68164L40.6704 10.8927C40.1591 8.12131 38.6672 7.73845 38.6672 7.73845" fill="black"/>
<path fill-rule="evenodd" clip-rule="evenodd" d="M54.678 2.25234C54.394 1.90654 54.0136 2.43018 54.0136 2.43018L52.5316 4.24566L52.5192 3.26259C52.4871 2.46477 52.8304 1.64966 53.6233 1.02474C53.6233 1.02474 51.3558 0.822195 50.6272 3.61333C50.6272 3.61333 49.7651 3.0798 49.2069 3.13167C49.3823 3.48489 49.3872 4.01347 49.3872 4.01347V8.17053L48.6289 8.16312V9.50188L49.4218 9.49447L49.407 19.3351C49.4144 20.2391 48.7302 20.496 48.7302 20.496C48.7302 20.496 50.1727 21.5038 51.1261 23.5168C51.1261 23.5168 51.956 21.647 54.0185 20.617C54.0185 20.617 52.5365 20.3132 52.5118 19.1572L52.5192 9.49694H53.8308V8.16065H52.539L52.5365 7.93835L54.3544 6.34271C56.2712 4.45561 55.2288 2.57098 54.678 2.24246V2.25234ZM52.5093 4.66556V7.61725C52.5093 7.61725 54.515 6.12288 52.5093 4.66556Z" fill="black"/>
<path d="M61.6779 0.441895C61.6779 0.441895 60.3861 4.29267 56.6539 4.46804L56.6662 7.94832H55.7646V9.38587H56.639L56.6539 28.8719H57.2788V25.1496C57.2788 25.1496 57.2195 23.5293 58.2174 23.3564L59.072 23.2279C59.072 23.2279 59.8031 23.2378 59.7834 22.4326L59.7686 9.40563L61.2876 9.39575V7.95326L59.8254 7.94585V3.56648C59.8254 3.56648 63.5329 6.70836 64.8618 0.748178C64.8618 0.748178 63.3649 3.17375 61.6779 0.441895Z" fill="black"/>
<path d="M64.9483 7.64964C63.854 9.3095 62.6289 10.1419 62.6289 10.1419C62.6289 10.1419 63.6268 10.3395 63.649 11.4461L63.6984 19.7676C63.7009 20.6445 63.1377 20.8248 63.1377 20.8248C64.2394 21.7214 65.5831 23.4134 65.5831 23.4134C65.5831 23.4134 67.8555 20.6914 68.9769 19.985C68.5743 21.9412 71.0394 23.3368 71.0394 23.3368L73.0179 20.5951C73.0179 20.5951 71.9631 20.3258 71.9162 19.1822L71.894 11.288C71.9162 10.3864 72.4794 9.94677 72.4794 9.94677C70.9628 8.9958 70.4787 7.50391 70.4787 7.50391C69.671 9.21811 68.2285 10.1691 68.2285 10.1691C68.2285 10.1691 68.8929 10.6087 68.8929 11.2435L68.9077 18.8488C68.9151 19.4342 68.5273 20.2666 67.6949 20.2666C67.0107 20.2666 66.6724 19.4366 66.6205 19.0711L66.5735 10.6902C66.5735 8.80808 64.9409 7.65458 64.9409 7.65458" fill="black"/>
<path d="M74.5244 10.5395L76.5721 7.66685C76.5721 7.66685 77.8911 8.15591 78.5629 9.96892L79.8152 7.63721C79.8152 7.63721 80.6822 9.29954 81.9493 7.78047C81.9493 7.78047 82.0926 11.488 80.0746 11.5053C79.257 11.5127 78.6667 10.7569 78.6667 10.7569V19.066C78.6667 19.066 78.4641 20.6888 80.3265 20.5851C80.3265 20.5851 78.6296 21.8078 77.8244 23.3688C76.6289 21.9066 74.9814 20.7827 74.9814 20.7827C74.9814 20.7827 75.7644 20.5728 75.8039 19.6687L75.7767 11.9276C75.7767 11.9276 75.8706 10.7544 74.5244 10.5395Z" fill="black"/>
<path d="M83.671 8.1067L83.0559 8.09929V9.61835L83.6932 9.61094L83.7278 19.8319C83.7599 20.5161 83.2412 20.8595 83.2412 20.8595C83.2412 20.8595 84.4243 21.7758 85.5259 23.1689C86.6745 21.5437 88.2998 20.6668 88.2998 20.6668C88.2998 20.6668 86.6745 20.4914 86.6745 19.5158L86.6523 9.59365L88.2479 9.60353L88.2405 8.09929L86.6745 8.1067L86.6597 3.57666L83.6858 4.65853L83.6734 8.1067" fill="black"/>
<path fill-rule="evenodd" clip-rule="evenodd" d="M95.379 7.58545C94.2749 8.71178 93.4228 8.77353 92.704 9.15145C91.4715 9.80354 89.7573 10.2506 89.7745 12.5527L89.7844 19.3774C89.8091 22.2797 92.2149 22.4797 93.6648 23.2677C94.638 21.4226 96.7425 19.9109 96.7425 19.9109L96.4214 19.7133C96.4214 19.7133 95.6631 20.5333 94.6627 20.4938C92.8053 20.4222 92.788 18.4832 92.788 18.4832V15.5118C92.788 15.5118 95.2308 14.4694 96.5227 13.101C97.0784 12.5082 97.2785 12.113 97.3032 11.2831C97.3477 9.85294 96.1793 8.88469 95.3815 7.58545H95.379ZM93.1338 9.54171C93.1338 9.54171 92.7583 9.75414 92.7855 11.4362V15.25C92.7855 15.25 96.7302 13.6741 93.1338 9.54418" fill="black"/>
<path d="M97.8885 10.1096C98.8468 9.35373 100.104 7.46415 100.104 7.46415C100.104 7.46415 101.233 7.86924 102.063 9.83291C102.742 8.95111 103.426 7.44192 103.426 7.44192C103.426 7.44192 104.681 9.63037 106.119 7.43945C106.119 7.43945 105.812 11.1396 103.698 11.3396C102.883 11.4187 102.142 10.359 102.142 10.359V18.8362C102.142 20.2219 103.829 20.4466 103.829 20.4466C103.829 20.4466 102.09 21.405 101.233 23.1686C100.037 21.7063 98.664 20.5751 98.664 20.5751C98.664 20.5751 99.1753 20.4763 99.2124 19.5698L99.2223 11.4829C99.2223 9.9737 97.886 10.1096 97.886 10.1096" fill="black"/>
<path fill-rule="evenodd" clip-rule="evenodd" d="M115.502 5.17224C115.502 5.17224 114.554 5.82186 113.798 5.82186C113.042 5.82186 112.506 5.19447 112.509 4.55474C112.511 3.61859 113.516 3.14682 114.453 3.14682C116.357 3.14682 116.742 5.78728 116.742 5.78728L112.284 18.6018C110.019 18.6265 108.114 20.8446 108.139 23.5246C108.164 26.3009 110.454 28.2794 113.452 28.2621C118.064 28.2349 119.427 23.8679 119.427 23.8679C118.526 24.8164 117.661 26.9283 113.356 26.911C111.2 26.9011 108.851 26.0119 108.801 24.1371C108.774 23.0898 109.903 22.0154 111.259 22.0154C112.869 22.0154 113.842 23.1368 113.842 23.1368L117.145 19.6071L116.888 19.3255L116.085 20.1209C114.89 18.8216 112.988 18.6166 112.988 18.6166L114.359 14.6028L118.783 14.6102L120.299 21.0372C120.766 22.7218 121.67 22.2846 123.192 23.4208L124.871 20.0097C124.871 20.0097 123.569 20.3555 123.157 18.8686L119.603 3.73222C119.603 3.73222 118.891 0.00247003 115.26 0C113.173 0 111.291 1.4178 111.291 3.58895C111.291 4.98699 112.432 6.22201 113.82 6.22201C114.919 6.22201 115.502 5.17471 115.502 5.17471V5.17224ZM117.014 6.91114L114.751 13.5333L118.533 13.5432L117.014 6.91361" fill="black"/>
<path d="M126.21 19.3351C126.242 20.0217 125.254 20.3329 125.254 20.3329C125.254 20.3329 126.645 21.6248 127.843 23.3637C128.811 21.4124 130.424 20.5775 130.424 20.5775C130.424 20.5775 129.238 20.4935 129.238 19.5154V1.58789L126.208 3.03039V19.3375" fill="black"/>
<path d="M132.768 19.2513C132.765 20.0417 132.116 20.4369 132.116 20.4369C132.116 20.4369 133.469 21.7979 134.46 23.3886C135.47 21.3335 137.095 20.5653 137.095 20.5653C137.095 20.5653 135.789 20.4937 135.789 19.518V1.31885L132.768 3.03552V19.2513Z" fill="black"/>
<path fill-rule="evenodd" clip-rule="evenodd" d="M144.979 7.40723C141.531 9.89455 139.158 9.26716 139.128 11.6359L139.155 20.0587C139.148 21.6025 140.39 22.4324 141.729 23.3142L144.157 20.4342L144.164 22.0298C144.145 23.8996 145.535 23.7983 145.513 25.6015C145.498 26.9427 144.434 27.5824 143.367 27.5775C141.472 27.5676 140.995 26.4956 140.995 26.4956C140.995 26.4956 141.027 26.6512 141.507 26.6414C142.44 26.6216 143.026 26.093 143.023 25.1964C143.016 24.3393 142.344 23.7514 141.504 23.7662C140.617 23.7811 139.968 24.4554 139.973 25.2087C139.98 26.4067 140.687 27.9925 143.579 27.9801C146.461 27.9702 148.435 25.7991 148.435 24.0948C148.435 22.7659 147.193 22.4547 147.193 20.9109L147.118 10.6133C147.111 9.99829 147.63 9.49934 147.63 9.49934C146.056 8.6126 144.982 7.4097 144.982 7.4097L144.979 7.40723ZM144.127 10.8356L142.618 9.30421C142.618 9.30421 142.124 9.5932 142.122 10.843L142.136 19.1399C142.181 20.0217 142.485 20.407 143.218 20.3848C143.898 20.3625 144.142 19.9945 144.142 19.0732L144.127 10.8356Z" fill="black"/>
<path fill-rule="evenodd" clip-rule="evenodd" d="M156.132 7.39749C155.329 8.02982 153.724 8.91409 152.958 9.17838C150.229 10.1343 150.194 10.5073 150.194 12.5524V19.5006C150.197 22.6153 152.62 22.1534 154.176 23.2773C154.522 21.7237 156.688 19.9033 156.688 19.9033L156.567 19.7649C156.567 19.7649 155.986 20.2614 154.986 20.2194C153.128 20.1478 153.153 18.4805 153.153 18.4805V15.7857C153.153 15.7857 155.3 14.5729 156.777 13.1798C157.367 12.6241 157.533 12.1103 157.557 11.2804C157.602 9.85023 156.794 9.51184 156.135 7.39502L156.132 7.39749ZM153.556 9.3661C153.556 9.3661 153.128 9.7539 153.153 11.436V15.4695C153.153 15.4695 156.838 14.1975 153.556 9.3661Z" fill="black"/>
<path d="M161.005 7.38281L158.597 10.2505C158.597 10.2505 160 10.3468 160 11.3275L160.037 19.3674C160.022 20.4221 159.57 20.6666 159.57 20.6666C159.57 20.6666 160.758 21.7139 161.692 23.3096C162.371 21.7658 163.764 20.4962 163.764 20.4962C163.764 20.4962 163.14 19.9503 163.112 19.1723L163.088 11.8684C163.216 11.1941 163.648 10.8532 164.068 10.8384C164.594 10.8236 165.024 11.2435 165.051 11.7721L165.101 19.3303C165.101 20.0516 164.654 20.3999 164.654 20.3999C164.654 20.3999 165.768 21.7954 166.536 23.3787C167.378 21.5139 168.756 20.4863 168.756 20.4863C168.756 20.4863 168.013 19.9059 168.013 18.9055L167.991 11.6016C168.109 10.952 168.425 10.6852 168.919 10.5963C169.428 10.5049 169.875 10.8952 169.972 11.404L170.033 20.2665C170.033 21.7263 171.254 22.4352 172.523 23.2034C173.104 21.5583 174.563 20.2714 174.563 20.2714C174.563 20.2714 172.909 20.4468 172.909 18.9277L172.869 10.626C172.889 9.93929 173.452 9.54656 173.452 9.54656C171.908 8.85989 170.678 7.41245 170.678 7.41245L167.936 10.7544C168.062 9.00809 166.027 7.46185 166.027 7.46185L163.061 11.0681C162.843 7.97809 161.005 7.39022 161.005 7.39022" fill="black"/>
<path fill-rule="evenodd" clip-rule="evenodd" d="M181.759 7.36328C177.542 10.6089 176.297 10.0976 176.297 11.7179V20.3087C176.3 22.2082 177.913 22.1662 179.466 23.2876C180.2 21.892 181.591 20.7261 182.806 19.874L182.655 19.711C182.655 19.711 181.966 20.2667 180.961 20.247C178.908 20.2099 179.128 18.4809 179.128 18.4809V15.7293C179.128 15.7293 180.736 14.8722 182.27 13.5334C182.882 12.9999 183.327 12.1453 183.364 11.3129C183.438 9.7765 182.509 9.40847 181.754 7.36328H181.759ZM179.224 9.50974C179.224 9.50974 179.108 9.75427 179.13 11.4339V15.3588C179.568 15.0895 182.589 13.5309 179.224 9.50727" fill="black"/>
<path fill-rule="evenodd" clip-rule="evenodd" d="M209.43 7.26172C206.901 9.84537 203.705 9.65765 203.65 12.2166L203.665 20.3109C203.727 21.83 205.076 22.1239 206.632 23.2478C207.884 21.4076 209.415 20.5258 210.626 19.6761L210.475 19.5131C210.475 19.5131 209.257 20.464 208.255 20.4467C206.202 20.4097 206.496 18.488 206.496 18.488V15.5166C206.496 15.5166 207.803 14.8793 209.638 13.5652C210.297 13.091 210.88 12.4068 210.92 11.5769C210.991 10.0405 210.201 9.84537 209.428 7.26172H209.43ZM206.822 9.38841C206.822 9.38841 206.474 9.75398 206.498 11.4361V15.2202C208.257 14.452 209.166 11.5201 206.822 9.38841Z" fill="black"/>
<path d="M193.13 7.47168L191.13 10.1368C191.13 10.1368 192.624 10.3493 192.567 11.3891L192.594 19.5106C192.622 19.8861 192.061 20.4196 192.061 20.4196C192.061 20.4196 193.343 21.7806 193.847 23.1934C194.808 21.6991 196.193 20.4196 196.193 20.4196C196.193 20.4196 195.447 20.0194 195.447 19.2463V11.8955C195.66 11.2558 196.06 10.8309 196.564 10.8038C197.045 10.7791 197.604 11.2311 197.549 11.7374L197.574 19.7527C197.574 22.2573 199.787 23.1391 199.787 23.1391L201.682 20.3924C201.682 20.3924 200.452 20.3924 200.427 19.4587L200.4 10.905C200.481 10.1368 200.908 9.73917 200.908 9.73917C199.446 9.15377 198.431 7.79278 198.431 7.79278L195.529 10.9915C195.395 8.08672 193.13 7.47415 193.13 7.47415" fill="black"/>
<path d="M187.057 7.50098C186.259 8.69894 184.554 9.95372 184.554 9.95372C184.554 9.95372 185.725 10.1192 185.725 11.1023V19.4041C185.75 20.0957 185.058 20.5254 185.058 20.5254C185.058 20.5254 186.259 21.8049 187.029 23.1931C187.963 21.7506 189.245 20.4983 189.245 20.4983C189.245 20.4983 188.573 20.0734 188.603 19.3818L188.578 11.0455C188.603 10.2724 189.218 9.87468 189.218 9.87468C188.072 8.941 187.059 7.50345 187.059 7.50345" fill="black"/>
<path d="M185.463 2.94637C185.463 2.03493 186.202 1.29639 187.113 1.29639C188.025 1.29639 188.763 2.03493 188.763 2.94637C188.763 3.85781 188.025 4.59635 187.113 4.59635C186.202 4.59635 185.463 3.85781 185.463 2.94637Z" fill="black"/>
</g>
<defs>
<clipPath id="clip0_4461_14084">
<rect width="211.251" height="30" fill="white" transform="translate(0.875)"/>
</clipPath>
</defs>
</svg>
