<svg width="291" height="181" viewBox="0 0 291 181" fill="none" xmlns="http://www.w3.org/2000/svg">
<path d="M221.191 7.84497H235.892" stroke="#ABABAB" stroke-width="0.5" stroke-miterlimit="10"/>
<path d="M228.548 15.1898V0.5" stroke="#ABABAB" stroke-width="0.5" stroke-miterlimit="10"/>
<path d="M221.191 62.9482H235.892" stroke="#ABABAB" stroke-width="0.5" stroke-miterlimit="10"/>
<path d="M228.548 70.2931V55.6033" stroke="#ABABAB" stroke-width="0.5" stroke-miterlimit="10"/>
<path d="M276.295 7.84497H290.996" stroke="#ABABAB" stroke-width="0.5" stroke-miterlimit="10"/>
<path d="M283.64 15.1898V0.5" stroke="#ABABAB" stroke-width="0.5" stroke-miterlimit="10"/>
<path d="M276.295 62.9482H290.996" stroke="#ABABAB" stroke-width="0.5" stroke-miterlimit="10"/>
<path d="M283.64 70.2931V55.6033" stroke="#ABABAB" stroke-width="0.5" stroke-miterlimit="10"/>
<path d="M221.191 118.052H235.892" stroke="#ABABAB" stroke-width="0.5" stroke-miterlimit="10"/>
<path d="M228.548 125.397V110.707" stroke="#ABABAB" stroke-width="0.5" stroke-miterlimit="10"/>
<path d="M221.191 173.155H235.892" stroke="#ABABAB" stroke-width="0.5" stroke-miterlimit="10"/>
<path d="M228.548 180.5V165.81" stroke="#ABABAB" stroke-width="0.5" stroke-miterlimit="10"/>
<path d="M276.295 118.052H290.996" stroke="#ABABAB" stroke-width="0.5" stroke-miterlimit="10"/>
<path d="M283.64 125.397V110.707" stroke="#ABABAB" stroke-width="0.5" stroke-miterlimit="10"/>
<path d="M276.295 173.155H290.996" stroke="#ABABAB" stroke-width="0.5" stroke-miterlimit="10"/>
<path d="M283.64 180.5V165.81" stroke="#ABABAB" stroke-width="0.5" stroke-miterlimit="10"/>
<path d="M110.996 7.84497H125.686" stroke="#ABABAB" stroke-width="0.5" stroke-miterlimit="10"/>
<path d="M118.341 15.1898V0.5" stroke="#ABABAB" stroke-width="0.5" stroke-miterlimit="10"/>
<path d="M110.996 62.9482H125.686" stroke="#ABABAB" stroke-width="0.5" stroke-miterlimit="10"/>
<path d="M118.341 70.2931V55.6033" stroke="#ABABAB" stroke-width="0.5" stroke-miterlimit="10"/>
<path d="M166.1 7.84497H180.789" stroke="#ABABAB" stroke-width="0.5" stroke-miterlimit="10"/>
<path d="M173.444 15.1898V0.5" stroke="#ABABAB" stroke-width="0.5" stroke-miterlimit="10"/>
<path d="M166.1 62.9482H180.789" stroke="#ABABAB" stroke-width="0.5" stroke-miterlimit="10"/>
<path d="M173.444 70.2931V55.6033" stroke="#ABABAB" stroke-width="0.5" stroke-miterlimit="10"/>
<path d="M110.996 118.052H125.686" stroke="#ABABAB" stroke-width="0.5" stroke-miterlimit="10"/>
<path d="M118.341 125.397V110.707" stroke="#ABABAB" stroke-width="0.5" stroke-miterlimit="10"/>
<path d="M110.996 173.155H125.686" stroke="#ABABAB" stroke-width="0.5" stroke-miterlimit="10"/>
<path d="M118.341 180.5V165.81" stroke="#ABABAB" stroke-width="0.5" stroke-miterlimit="10"/>
<path d="M166.1 118.052H180.789" stroke="#ABABAB" stroke-width="0.5" stroke-miterlimit="10"/>
<path d="M173.444 125.397V110.707" stroke="#ABABAB" stroke-width="0.5" stroke-miterlimit="10"/>
<path d="M166.1 173.155H180.789" stroke="#ABABAB" stroke-width="0.5" stroke-miterlimit="10"/>
<path d="M173.444 180.5V165.81" stroke="#ABABAB" stroke-width="0.5" stroke-miterlimit="10"/>
<path d="M55.8926 7.84497H70.5824" stroke="#ABABAB" stroke-width="0.5" stroke-miterlimit="10"/>
<path d="M63.2373 15.1898V0.5" stroke="#ABABAB" stroke-width="0.5" stroke-miterlimit="10"/>
<path d="M55.8926 62.9482H70.5824" stroke="#ABABAB" stroke-width="0.5" stroke-miterlimit="10"/>
<path d="M63.2373 70.2931V55.6033" stroke="#ABABAB" stroke-width="0.5" stroke-miterlimit="10"/>
<path d="M0.789062 118.052H15.4789" stroke="#ABABAB" stroke-width="0.5" stroke-miterlimit="10"/>
<path d="M8.13379 125.397V110.707" stroke="#ABABAB" stroke-width="0.5" stroke-miterlimit="10"/>
<path d="M0.789062 173.155H15.4789" stroke="#ABABAB" stroke-width="0.5" stroke-miterlimit="10"/>
<path d="M8.13379 180.5V165.81" stroke="#ABABAB" stroke-width="0.5" stroke-miterlimit="10"/>
<path d="M55.8926 118.052H70.5824" stroke="#ABABAB" stroke-width="0.5" stroke-miterlimit="10"/>
<path d="M63.2373 125.397V110.707" stroke="#ABABAB" stroke-width="0.5" stroke-miterlimit="10"/>
<path d="M55.8926 173.155H70.5824" stroke="#ABABAB" stroke-width="0.5" stroke-miterlimit="10"/>
<path d="M63.2373 180.5V165.81" stroke="#ABABAB" stroke-width="0.5" stroke-miterlimit="10"/>
<path d="M40.1929 79.9109C40.1929 88.2988 33.9898 94.0518 24.3832 94.0518C20.7821 94.0518 18.1801 93.2503 16.3796 92.5147C12.0429 90.7142 9.44088 87.5961 9.44088 84.4232C9.44088 81.7883 11.1426 79.5376 14.1948 79.5376C16.9285 79.5376 19.1463 81.4369 19.1463 84.3244C19.1463 86.3775 18.0813 88.3756 15.2927 89.0783C16.3796 91.6144 21.2982 92.3281 24.1307 92.3281C31.4208 92.3281 33.9349 87.5083 33.9349 83.3912C33.9349 76.3208 26.0301 71.4351 18.9926 66.5605C10.3521 60.6208 5.75195 56.5037 5.75195 49.0161C5.75195 43.3619 8.22222 37.8066 16.0612 33.4699C12.1417 29.9017 9.70438 26.081 9.70438 20.877C9.70438 12.5879 15.9075 6.802 25.5799 6.802C29.1481 6.802 31.7831 7.6364 33.5836 8.33906C37.8874 10.1396 40.4894 13.2906 40.4894 16.4635C40.4894 19.0655 38.8206 21.2832 35.7355 21.2832C33.0676 21.2832 30.784 19.3839 30.784 16.5294C30.784 14.4763 31.8819 12.4452 34.6376 11.7425C33.4189 9.14052 28.5333 8.49276 25.9313 8.49276C18.4766 8.49276 16.0063 13.3784 16.0063 17.4296C16.0063 24.533 23.9441 29.4187 30.9487 34.2604C39.5891 40.2 44.1893 44.3171 44.1893 51.8047C44.1893 57.5248 41.5543 62.8935 33.6495 67.1972C37.7007 70.7983 40.2369 74.652 40.2369 79.9877L40.2039 79.9218L40.1929 79.9109ZM32.6504 66.3189C37.3384 63.684 39.3366 60.017 39.3366 56.2951C39.3366 50.2896 33.2323 45.8541 26.3924 41.1991C23.0219 38.8825 19.9038 36.7636 17.2689 34.5788C12.6467 37.1149 10.6815 40.9356 10.6815 44.6355C10.6815 50.641 16.7858 55.0435 23.5928 59.7315C26.9633 62.0481 30.0813 64.167 32.6833 66.3189H32.6504Z" fill="#5D647B"/>
<g clip-path="url(#clip0_3420_6632)">
<path d="M200.844 113.61C213.577 113.61 223.899 103.288 223.899 90.555C223.899 77.8221 213.577 67.5 200.844 67.5C188.111 67.5 177.789 77.8221 177.789 90.555C177.789 103.288 188.111 113.61 200.844 113.61Z" fill="url(#paint0_linear_3420_6632)"/>
<path d="M200.844 113.61C213.577 113.61 223.899 103.288 223.899 90.555C223.899 77.8221 213.577 67.5 200.844 67.5C188.111 67.5 177.789 77.8221 177.789 90.555C177.789 103.288 188.111 113.61 200.844 113.61Z" fill="url(#paint1_radial_3420_6632)"/>
<path d="M200.844 68.9409C212.761 68.9409 222.458 78.6384 222.458 90.555C222.458 102.472 212.761 112.169 200.844 112.169C188.928 112.169 179.23 102.472 179.23 90.555C179.23 78.6384 188.928 68.9409 200.844 68.9409ZM200.844 67.5C188.106 67.5 177.789 77.8171 177.789 90.555C177.789 103.293 188.106 113.61 200.844 113.61C213.582 113.61 223.899 103.293 223.899 90.555C223.899 77.8171 213.582 67.5 200.844 67.5Z" fill="url(#paint2_linear_3420_6632)"/>
<path d="M206.608 104.964V102.083H195.08V104.964H206.608Z" fill="#272B38" fill-opacity="0.45"/>
<path d="M209.49 99.2007H206.608V102.083H209.49V99.2007Z" fill="#272B38" fill-opacity="0.45"/>
<path d="M195.08 99.2007H192.198V102.083H195.08V99.2007Z" fill="#272B38" fill-opacity="0.45"/>
<path d="M212.371 96.3188H209.49V99.2007H212.371V96.3188Z" fill="#272B38" fill-opacity="0.45"/>
<path d="M212.371 84.7913H209.49V87.6732H212.371V84.7913Z" fill="#272B38" fill-opacity="0.45"/>
<path d="M189.316 87.6732H186.435V90.5551H189.316V93.437H186.435V96.3188H189.316V99.2007H192.198V96.3188H203.726V93.437H192.198V90.5551H206.608V87.6732H192.198V84.7913H189.316V87.6732Z" fill="#272B38" fill-opacity="0.45"/>
<path d="M209.49 81.9095H206.608V84.7913H209.49V81.9095Z" fill="#272B38" fill-opacity="0.45"/>
<path d="M195.08 81.9095H192.198V84.7913H195.08V81.9095Z" fill="#272B38" fill-opacity="0.45"/>
<path d="M195.08 79.0276V81.9095H206.608V79.0276H195.08Z" fill="#272B38" fill-opacity="0.45"/>
<path d="M206.608 103.524V100.642H195.08V103.524H206.608Z" fill="url(#paint3_linear_3420_6632)"/>
<path d="M209.49 97.7598H206.608V100.642H209.49V97.7598Z" fill="url(#paint4_linear_3420_6632)"/>
<path d="M195.08 97.7598H192.198V100.642H195.08V97.7598Z" fill="url(#paint5_linear_3420_6632)"/>
<path d="M212.371 94.8779H209.49V97.7598H212.371V94.8779Z" fill="url(#paint6_linear_3420_6632)"/>
<path d="M212.371 83.3504H209.49V86.2323H212.371V83.3504Z" fill="url(#paint7_linear_3420_6632)"/>
<path d="M189.316 86.2323H186.435V89.1142H189.316V91.996H186.435V94.8779H189.316V97.7598H192.198V94.8779H203.726V91.996H192.198V89.1142H206.608V86.2323H192.198V83.3504H189.316V86.2323Z" fill="url(#paint8_linear_3420_6632)"/>
<path d="M209.49 80.4685H206.608V83.3504H209.49V80.4685Z" fill="url(#paint9_linear_3420_6632)"/>
<path d="M195.08 80.4685H192.198V83.3504H195.08V80.4685Z" fill="url(#paint10_linear_3420_6632)"/>
<path d="M195.08 77.5867V80.4685H206.608V77.5867H195.08Z" fill="url(#paint11_linear_3420_6632)"/>
</g>
<path d="M90.7831 123.552C78.6514 123.552 68.8252 133.378 68.8252 145.51C68.8252 157.642 78.6514 167.468 90.7831 167.468C102.915 167.468 112.741 157.642 112.741 145.51C112.741 133.378 102.915 123.552 90.7831 123.552Z" fill="#E5E6EB"/>
<path d="M255.83 13.1917C243.698 13.1917 233.872 23.0178 233.872 35.1496C233.872 47.2813 243.698 57.1075 255.83 57.1075C267.962 57.1075 277.788 47.2813 277.788 35.1496C277.788 23.0178 267.962 13.1917 255.83 13.1917Z" fill="#E5E6EB"/>
<path d="M145.887 13.1917C133.755 13.1917 123.929 23.0178 123.929 35.1496C123.929 47.2813 133.755 57.1075 145.887 57.1075C158.018 57.1075 167.845 47.2813 167.845 35.1496C167.845 23.0178 158.018 13.1917 145.887 13.1917Z" fill="#E5E6EB"/>
<path d="M255.83 123.552C243.698 123.552 233.872 133.378 233.872 145.51C233.872 157.642 243.698 167.468 255.83 167.468C267.962 167.468 277.788 157.642 277.788 145.51C277.788 133.378 267.962 123.552 255.83 123.552Z" fill="#E5E6EB"/>
<g clip-path="url(#clip1_3420_6632)">
<path d="M145.844 113.61C158.577 113.61 168.899 103.288 168.899 90.555C168.899 77.8221 158.577 67.5 145.844 67.5C133.111 67.5 122.789 77.8221 122.789 90.555C122.789 103.288 133.111 113.61 145.844 113.61Z" fill="url(#paint12_linear_3420_6632)"/>
<path d="M145.844 113.61C158.577 113.61 168.899 103.288 168.899 90.555C168.899 77.8221 158.577 67.5 145.844 67.5C133.111 67.5 122.789 77.8221 122.789 90.555C122.789 103.288 133.111 113.61 145.844 113.61Z" fill="url(#paint13_radial_3420_6632)"/>
<path d="M145.844 68.9409C157.761 68.9409 167.458 78.6384 167.458 90.555C167.458 102.472 157.761 112.169 145.844 112.169C133.928 112.169 124.23 102.472 124.23 90.555C124.23 78.6384 133.928 68.9409 145.844 68.9409ZM145.844 67.5C133.106 67.5 122.789 77.8171 122.789 90.555C122.789 103.293 133.106 113.61 145.844 113.61C158.582 113.61 168.899 103.293 168.899 90.555C168.899 77.8171 158.582 67.5 145.844 67.5Z" fill="url(#paint14_linear_3420_6632)"/>
<path d="M146.768 93.8804V92.0331H148.615V90.1858H146.768V86.4911H144.92V92.0331H137.531V93.8804H144.92V101.27H143.073V103.117H141.226V104.964H150.462V103.117H148.615V101.27H146.768V95.7278H154.157V93.8804H146.768Z" fill="#272B38" fill-opacity="0.45"/>
<path d="M156.004 92.0333H154.157L154.157 93.8804L156.004 93.8806V92.0333Z" fill="#272B38" fill-opacity="0.45"/>
<path d="M157.852 90.1853H156.004V92.0327H157.852V90.1853Z" fill="#272B38" fill-opacity="0.45"/>
<path d="M137.531 90.1853H135.684V92.0327L137.531 92.0331L137.531 90.1853Z" fill="#272B38" fill-opacity="0.45"/>
<path d="M150.462 88.338H148.615L148.615 90.1858L150.462 90.1853V88.338Z" fill="#272B38" fill-opacity="0.45"/>
<path d="M135.684 88.338H133.837V90.1853H135.684V88.338Z" fill="#272B38" fill-opacity="0.45"/>
<path d="M152.31 86.4911H150.462V88.338L152.31 88.3385V86.4911Z" fill="#272B38" fill-opacity="0.45"/>
<path d="M152.31 84.6434V86.4911L157.852 86.4907L157.852 90.1853H159.699V84.6434H152.31Z" fill="#272B38" fill-opacity="0.45"/>
<path d="M144.921 84.6434H143.073V86.4907L144.92 86.4911L144.921 84.6434Z" fill="#272B38" fill-opacity="0.45"/>
<path d="M133.837 82.7961H141.226V80.9487H131.989V88.338L133.837 88.338V82.7961Z" fill="#272B38" fill-opacity="0.45"/>
<path d="M143.073 82.7967H141.226V84.644H143.073V82.7967Z" fill="#272B38" fill-opacity="0.45"/>
<path d="M146.768 92.4395V90.5922H148.615V88.7449H146.768V85.0502H144.92V90.5922H137.531V92.4395H144.92V99.8288H143.073V101.676H141.226V103.523H150.462V101.676H148.615V99.8288H146.768V94.2868H154.157V92.4395H146.768Z" fill="url(#paint15_linear_3420_6632)"/>
<path d="M156.004 90.5923H154.157L154.157 92.4395L156.004 92.4397V90.5923Z" fill="url(#paint16_linear_3420_6632)"/>
<path d="M157.852 88.7444H156.004V90.5917H157.852V88.7444Z" fill="url(#paint17_linear_3420_6632)"/>
<path d="M137.531 88.7444H135.684V90.5917L137.531 90.5922L137.531 88.7444Z" fill="url(#paint18_linear_3420_6632)"/>
<path d="M150.462 86.8971H148.615L148.615 88.7449L150.462 88.7444V86.8971Z" fill="url(#paint19_linear_3420_6632)"/>
<path d="M135.684 86.8971H133.837V88.7444H135.684V86.8971Z" fill="url(#paint20_linear_3420_6632)"/>
<path d="M152.31 85.0502H150.462V86.8971L152.31 86.8975V85.0502Z" fill="url(#paint21_linear_3420_6632)"/>
<path d="M152.31 83.2025V85.0502L157.852 85.0498L157.852 88.7444H159.699V83.2025H152.31Z" fill="url(#paint22_linear_3420_6632)"/>
<path d="M144.921 83.2025H143.073V85.0498L144.92 85.0502L144.921 83.2025Z" fill="url(#paint23_linear_3420_6632)"/>
<path d="M133.837 81.3551H141.226V79.5078H131.989V86.8971L133.837 86.8971V81.3551Z" fill="url(#paint24_linear_3420_6632)"/>
<path d="M143.073 81.3557H141.226V83.2031H143.073V81.3557Z" fill="url(#paint25_linear_3420_6632)"/>
</g>
<defs>
<linearGradient id="paint0_linear_3420_6632" x1="200.844" y1="113.61" x2="200.844" y2="67.5" gradientUnits="userSpaceOnUse">
<stop stop-color="#424756"/>
<stop offset="0.31" stop-color="#505565"/>
<stop offset="0.42" stop-color="#5F6475"/>
<stop offset="0.61" stop-color="#747A8B"/>
<stop offset="0.73" stop-color="#7C8394"/>
<stop offset="0.88" stop-color="#757C8C"/>
<stop offset="1" stop-color="#6E7484"/>
</linearGradient>
<radialGradient id="paint1_radial_3420_6632" cx="0" cy="0" r="1" gradientUnits="userSpaceOnUse" gradientTransform="translate(200.844 90.555) rotate(90) scale(23.055)">
<stop offset="0.80207" stop-color="#272B38" stop-opacity="0"/>
<stop offset="0.848055" stop-color="#272B38" stop-opacity="0.0421641"/>
<stop offset="0.882811" stop-color="#272B38" stop-opacity="0.0948692"/>
<stop offset="0.913817" stop-color="#272B38" stop-opacity="0.15"/>
<stop offset="0.957038" stop-color="#272B38" stop-opacity="0.34"/>
</radialGradient>
<linearGradient id="paint2_linear_3420_6632" x1="200.844" y1="113.61" x2="200.844" y2="67.5" gradientUnits="userSpaceOnUse">
<stop stop-color="#6D6E7C"/>
<stop offset="0.17" stop-color="#7A7C8A"/>
<stop offset="0.51" stop-color="#9EA2B1"/>
<stop offset="0.67" stop-color="#B3B8C7"/>
</linearGradient>
<linearGradient id="paint3_linear_3420_6632" x1="199.403" y1="79.0276" x2="199.403" y2="101.842" gradientUnits="userSpaceOnUse">
<stop offset="0.4" stop-color="white"/>
<stop offset="0.54" stop-color="#EAEAEC"/>
<stop offset="0.84" stop-color="#C4C6CB"/>
<stop offset="0.99" stop-color="#B6B8BF"/>
</linearGradient>
<linearGradient id="paint4_linear_3420_6632" x1="199.403" y1="79.0276" x2="199.403" y2="101.842" gradientUnits="userSpaceOnUse">
<stop offset="0.4" stop-color="white"/>
<stop offset="0.54" stop-color="#EAEAEC"/>
<stop offset="0.84" stop-color="#C4C6CB"/>
<stop offset="0.99" stop-color="#B6B8BF"/>
</linearGradient>
<linearGradient id="paint5_linear_3420_6632" x1="199.403" y1="79.0276" x2="199.403" y2="101.842" gradientUnits="userSpaceOnUse">
<stop offset="0.4" stop-color="white"/>
<stop offset="0.54" stop-color="#EAEAEC"/>
<stop offset="0.84" stop-color="#C4C6CB"/>
<stop offset="0.99" stop-color="#B6B8BF"/>
</linearGradient>
<linearGradient id="paint6_linear_3420_6632" x1="199.403" y1="79.0276" x2="199.403" y2="101.842" gradientUnits="userSpaceOnUse">
<stop offset="0.4" stop-color="white"/>
<stop offset="0.54" stop-color="#EAEAEC"/>
<stop offset="0.84" stop-color="#C4C6CB"/>
<stop offset="0.99" stop-color="#B6B8BF"/>
</linearGradient>
<linearGradient id="paint7_linear_3420_6632" x1="199.403" y1="79.0276" x2="199.403" y2="101.842" gradientUnits="userSpaceOnUse">
<stop offset="0.4" stop-color="white"/>
<stop offset="0.54" stop-color="#EAEAEC"/>
<stop offset="0.84" stop-color="#C4C6CB"/>
<stop offset="0.99" stop-color="#B6B8BF"/>
</linearGradient>
<linearGradient id="paint8_linear_3420_6632" x1="199.403" y1="79.0276" x2="199.403" y2="101.842" gradientUnits="userSpaceOnUse">
<stop offset="0.4" stop-color="white"/>
<stop offset="0.54" stop-color="#EAEAEC"/>
<stop offset="0.84" stop-color="#C4C6CB"/>
<stop offset="0.99" stop-color="#B6B8BF"/>
</linearGradient>
<linearGradient id="paint9_linear_3420_6632" x1="199.403" y1="79.0276" x2="199.403" y2="101.842" gradientUnits="userSpaceOnUse">
<stop offset="0.4" stop-color="white"/>
<stop offset="0.54" stop-color="#EAEAEC"/>
<stop offset="0.84" stop-color="#C4C6CB"/>
<stop offset="0.99" stop-color="#B6B8BF"/>
</linearGradient>
<linearGradient id="paint10_linear_3420_6632" x1="199.403" y1="79.0276" x2="199.403" y2="101.842" gradientUnits="userSpaceOnUse">
<stop offset="0.4" stop-color="white"/>
<stop offset="0.54" stop-color="#EAEAEC"/>
<stop offset="0.84" stop-color="#C4C6CB"/>
<stop offset="0.99" stop-color="#B6B8BF"/>
</linearGradient>
<linearGradient id="paint11_linear_3420_6632" x1="199.403" y1="79.0276" x2="199.403" y2="101.842" gradientUnits="userSpaceOnUse">
<stop offset="0.4" stop-color="white"/>
<stop offset="0.54" stop-color="#EAEAEC"/>
<stop offset="0.84" stop-color="#C4C6CB"/>
<stop offset="0.99" stop-color="#B6B8BF"/>
</linearGradient>
<linearGradient id="paint12_linear_3420_6632" x1="145.844" y1="113.61" x2="145.844" y2="67.5" gradientUnits="userSpaceOnUse">
<stop stop-color="#424756"/>
<stop offset="0.31" stop-color="#505565"/>
<stop offset="0.42" stop-color="#5F6475"/>
<stop offset="0.61" stop-color="#747A8B"/>
<stop offset="0.73" stop-color="#7C8394"/>
<stop offset="0.88" stop-color="#757C8C"/>
<stop offset="1" stop-color="#6E7484"/>
</linearGradient>
<radialGradient id="paint13_radial_3420_6632" cx="0" cy="0" r="1" gradientUnits="userSpaceOnUse" gradientTransform="translate(145.844 90.555) rotate(90) scale(23.055)">
<stop offset="0.80207" stop-color="#272B38" stop-opacity="0"/>
<stop offset="0.848055" stop-color="#272B38" stop-opacity="0.0421641"/>
<stop offset="0.882811" stop-color="#272B38" stop-opacity="0.0948692"/>
<stop offset="0.913817" stop-color="#272B38" stop-opacity="0.15"/>
<stop offset="0.957038" stop-color="#272B38" stop-opacity="0.34"/>
</radialGradient>
<linearGradient id="paint14_linear_3420_6632" x1="145.844" y1="113.61" x2="145.844" y2="67.5" gradientUnits="userSpaceOnUse">
<stop stop-color="#6D6E7C"/>
<stop offset="0.17" stop-color="#7A7C8A"/>
<stop offset="0.51" stop-color="#9EA2B1"/>
<stop offset="0.67" stop-color="#B3B8C7"/>
</linearGradient>
<linearGradient id="paint15_linear_3420_6632" x1="145.844" y1="80.3548" x2="145.844" y2="104.72" gradientUnits="userSpaceOnUse">
<stop offset="0.4" stop-color="white"/>
<stop offset="0.655" stop-color="#EAEAEC"/>
<stop offset="0.85" stop-color="#C4C6CB"/>
<stop offset="0.99" stop-color="#B6B8BF"/>
</linearGradient>
<linearGradient id="paint16_linear_3420_6632" x1="145.844" y1="80.3548" x2="145.844" y2="104.72" gradientUnits="userSpaceOnUse">
<stop offset="0.4" stop-color="white"/>
<stop offset="0.655" stop-color="#EAEAEC"/>
<stop offset="0.85" stop-color="#C4C6CB"/>
<stop offset="0.99" stop-color="#B6B8BF"/>
</linearGradient>
<linearGradient id="paint17_linear_3420_6632" x1="145.844" y1="80.3548" x2="145.844" y2="104.72" gradientUnits="userSpaceOnUse">
<stop offset="0.4" stop-color="white"/>
<stop offset="0.655" stop-color="#EAEAEC"/>
<stop offset="0.85" stop-color="#C4C6CB"/>
<stop offset="0.99" stop-color="#B6B8BF"/>
</linearGradient>
<linearGradient id="paint18_linear_3420_6632" x1="145.844" y1="80.3548" x2="145.844" y2="104.72" gradientUnits="userSpaceOnUse">
<stop offset="0.4" stop-color="white"/>
<stop offset="0.655" stop-color="#EAEAEC"/>
<stop offset="0.85" stop-color="#C4C6CB"/>
<stop offset="0.99" stop-color="#B6B8BF"/>
</linearGradient>
<linearGradient id="paint19_linear_3420_6632" x1="145.844" y1="80.3548" x2="145.844" y2="104.72" gradientUnits="userSpaceOnUse">
<stop offset="0.4" stop-color="white"/>
<stop offset="0.655" stop-color="#EAEAEC"/>
<stop offset="0.85" stop-color="#C4C6CB"/>
<stop offset="0.99" stop-color="#B6B8BF"/>
</linearGradient>
<linearGradient id="paint20_linear_3420_6632" x1="145.844" y1="80.3548" x2="145.844" y2="104.72" gradientUnits="userSpaceOnUse">
<stop offset="0.4" stop-color="white"/>
<stop offset="0.655" stop-color="#EAEAEC"/>
<stop offset="0.85" stop-color="#C4C6CB"/>
<stop offset="0.99" stop-color="#B6B8BF"/>
</linearGradient>
<linearGradient id="paint21_linear_3420_6632" x1="145.844" y1="80.3548" x2="145.844" y2="104.72" gradientUnits="userSpaceOnUse">
<stop offset="0.4" stop-color="white"/>
<stop offset="0.655" stop-color="#EAEAEC"/>
<stop offset="0.85" stop-color="#C4C6CB"/>
<stop offset="0.99" stop-color="#B6B8BF"/>
</linearGradient>
<linearGradient id="paint22_linear_3420_6632" x1="145.844" y1="80.3548" x2="145.844" y2="104.72" gradientUnits="userSpaceOnUse">
<stop offset="0.4" stop-color="white"/>
<stop offset="0.655" stop-color="#EAEAEC"/>
<stop offset="0.85" stop-color="#C4C6CB"/>
<stop offset="0.99" stop-color="#B6B8BF"/>
</linearGradient>
<linearGradient id="paint23_linear_3420_6632" x1="145.844" y1="80.3548" x2="145.844" y2="104.72" gradientUnits="userSpaceOnUse">
<stop offset="0.4" stop-color="white"/>
<stop offset="0.655" stop-color="#EAEAEC"/>
<stop offset="0.85" stop-color="#C4C6CB"/>
<stop offset="0.99" stop-color="#B6B8BF"/>
</linearGradient>
<linearGradient id="paint24_linear_3420_6632" x1="145.844" y1="80.3548" x2="145.844" y2="104.72" gradientUnits="userSpaceOnUse">
<stop offset="0.4" stop-color="white"/>
<stop offset="0.655" stop-color="#EAEAEC"/>
<stop offset="0.85" stop-color="#C4C6CB"/>
<stop offset="0.99" stop-color="#B6B8BF"/>
</linearGradient>
<linearGradient id="paint25_linear_3420_6632" x1="145.844" y1="80.3548" x2="145.844" y2="104.72" gradientUnits="userSpaceOnUse">
<stop offset="0.4" stop-color="white"/>
<stop offset="0.655" stop-color="#EAEAEC"/>
<stop offset="0.85" stop-color="#C4C6CB"/>
<stop offset="0.99" stop-color="#B6B8BF"/>
</linearGradient>
<clipPath id="clip0_3420_6632">
<rect width="46.11" height="46.11" fill="white" transform="translate(177.789 67.5)"/>
</clipPath>
<clipPath id="clip1_3420_6632">
<rect width="46.11" height="46.11" fill="white" transform="translate(122.789 67.5)"/>
</clipPath>
</defs>
</svg>
