<svg width="1440" height="757" viewBox="0 0 1440 757" fill="none" xmlns="http://www.w3.org/2000/svg">
<g clip-path="url(#clip0_1709_17891)">
<g opacity="0.3">
<path d="M1139.49 725.637H1132.48V732.643H1139.49V725.637Z" fill="#092F62"/>
<path d="M1139.49 697.611H1132.48V704.618H1139.49V697.611Z" fill="#092F62"/>
<path d="M1027.39 697.611H1020.38V704.618H1027.39V697.611Z" fill="#092F62"/>
<path d="M999.363 697.611H992.357V704.618H999.363V697.611Z" fill="#092F62"/>
<path d="M971.338 697.611H964.331V704.618H971.338V697.611Z" fill="#092F62"/>
<path d="M1223.57 669.586H1216.56V676.592H1223.57V669.586Z" fill="#092F62"/>
<path d="M1167.52 669.586H1160.51V676.592H1167.52V669.586Z" fill="#092F62"/>
<path d="M1139.49 669.586H1132.48V676.592H1139.49V669.586Z" fill="#092F62"/>
<path d="M1111.46 669.586H1104.46V676.592H1111.46V669.586Z" fill="#092F62"/>
<path d="M1615.92 641.561H1608.92V648.567H1615.92V641.561Z" fill="#092F62"/>
<path d="M1587.9 641.561H1580.89V648.567H1587.9V641.561Z" fill="#092F62"/>
<path d="M1559.87 641.561H1552.87V648.567H1559.87V641.561Z" fill="#092F62"/>
<path d="M1531.85 641.561H1524.84V648.567H1531.85V641.561Z" fill="#092F62"/>
<path d="M1223.57 641.561H1216.56V648.567H1223.57V641.561Z" fill="#092F62"/>
<path d="M1195.54 641.561H1188.54V648.567H1195.54V641.561Z" fill="#092F62"/>
<path d="M1167.52 641.561H1160.51V648.567H1167.52V641.561Z" fill="#092F62"/>
<path d="M1139.49 641.561H1132.48V648.567H1139.49V641.561Z" fill="#092F62"/>
<path d="M1111.46 641.561H1104.46V648.567H1111.46V641.561Z" fill="#092F62"/>
<path d="M1027.39 641.561H1020.38V648.567H1027.39V641.561Z" fill="#092F62"/>
<path d="M915.287 641.561H908.28V648.567H915.287V641.561Z" fill="#092F62"/>
<path d="M1587.9 613.535H1580.89V620.541H1587.9V613.535Z" fill="#092F62"/>
<path d="M1559.87 613.535H1552.87V620.541H1559.87V613.535Z" fill="#092F62"/>
<path d="M1531.85 613.535H1524.84V620.541H1531.85V613.535Z" fill="#092F62"/>
<path d="M1503.82 613.535H1496.82V620.541H1503.82V613.535Z" fill="#092F62"/>
<path d="M1475.8 613.535H1468.79V620.541H1475.8V613.535Z" fill="#092F62"/>
<path d="M1223.57 613.535H1216.56V620.541H1223.57V613.535Z" fill="#092F62"/>
<path d="M1195.54 613.535H1188.54V620.541H1195.54V613.535Z" fill="#092F62"/>
<path d="M1167.52 613.535H1160.51V620.541H1167.52V613.535Z" fill="#092F62"/>
<path d="M1139.49 613.535H1132.48V620.541H1139.49V613.535Z" fill="#092F62"/>
<path d="M1111.46 613.535H1104.46V620.541H1111.46V613.535Z" fill="#092F62"/>
<path d="M1083.44 613.535H1076.43V620.541H1083.44V613.535Z" fill="#092F62"/>
<path d="M999.363 613.535H992.357V620.541H999.363V613.535Z" fill="#092F62"/>
<path d="M719.108 613.535H712.102V620.541H719.108V613.535Z" fill="#092F62"/>
<path d="M691.083 613.535H684.076V620.541H691.083V613.535Z" fill="#092F62"/>
<path d="M663.057 613.535H656.051V620.541H663.057V613.535Z" fill="#092F62"/>
<path d="M635.032 613.535H628.025V620.541H635.032V613.535Z" fill="#092F62"/>
<path d="M1559.87 585.51H1552.87V592.516H1559.87V585.51Z" fill="#092F62"/>
<path d="M1531.85 585.51H1524.84V592.516H1531.85V585.51Z" fill="#092F62"/>
<path d="M1503.82 585.51H1496.82V592.516H1503.82V585.51Z" fill="#092F62"/>
<path d="M1475.8 585.51H1468.79V592.516H1475.8V585.51Z" fill="#092F62"/>
<path d="M1447.77 585.51H1440.76V592.516H1447.77V585.51Z" fill="#092F62"/>
<path d="M1251.59 585.51H1244.59V592.516H1251.59V585.51Z" fill="#092F62"/>
<path d="M1223.57 585.51H1216.56V592.516H1223.57V585.51Z" fill="#092F62"/>
<path d="M1195.54 585.51H1188.54V592.516H1195.54V585.51Z" fill="#092F62"/>
<path d="M1167.52 585.51H1160.51V592.516H1167.52V585.51Z" fill="#092F62"/>
<path d="M1139.49 585.51H1132.48V592.516H1139.49V585.51Z" fill="#092F62"/>
<path d="M1111.46 585.51H1104.46V592.516H1111.46V585.51Z" fill="#092F62"/>
<path d="M1083.44 585.51H1076.43V592.516H1083.44V585.51Z" fill="#092F62"/>
<path d="M1055.41 585.51H1048.41V592.516H1055.41V585.51Z" fill="#092F62"/>
<path d="M999.363 585.51H992.357V592.516H999.363V585.51Z" fill="#092F62"/>
<path d="M971.338 585.51H964.331V592.516H971.338V585.51Z" fill="#092F62"/>
<path d="M775.159 585.51H768.153V592.516H775.159V585.51Z" fill="#092F62"/>
<path d="M747.134 585.51H740.127V592.516H747.134V585.51Z" fill="#092F62"/>
<path d="M719.108 585.51H712.102V592.516H719.108V585.51Z" fill="#092F62"/>
<path d="M691.083 585.51H684.076V592.516H691.083V585.51Z" fill="#092F62"/>
<path d="M663.057 585.51H656.051V592.516H663.057V585.51Z" fill="#092F62"/>
<path d="M635.032 585.51H628.025V592.516H635.032V585.51Z" fill="#092F62"/>
<path d="M607.006 585.51H600V592.516H607.006V585.51Z" fill="#092F62"/>
<path d="M1531.85 557.484H1524.84V564.49H1531.85V557.484Z" fill="#092F62"/>
<path d="M1503.82 557.484H1496.82V564.49H1503.82V557.484Z" fill="#092F62"/>
<path d="M1475.8 557.484H1468.79V564.49H1475.8V557.484Z" fill="#092F62"/>
<path d="M1447.77 557.484H1440.76V564.49H1447.77V557.484Z" fill="#092F62"/>
<path d="M1419.75 557.484H1412.74V564.49H1419.75V557.484Z" fill="#092F62"/>
<path d="M1335.67 557.484H1328.66V564.49H1335.67V557.484Z" fill="#092F62"/>
<path d="M1251.59 557.484H1244.59V564.49H1251.59V557.484Z" fill="#092F62"/>
<path d="M1223.57 557.484H1216.56V564.49H1223.57V557.484Z" fill="#092F62"/>
<path d="M1195.54 557.484H1188.54V564.49H1195.54V557.484Z" fill="#092F62"/>
<path d="M1167.52 557.484H1160.51V564.49H1167.52V557.484Z" fill="#092F62"/>
<path d="M1139.49 557.484H1132.48V564.49H1139.49V557.484Z" fill="#092F62"/>
<path d="M1111.46 557.484H1104.46V564.49H1111.46V557.484Z" fill="#092F62"/>
<path d="M1083.44 557.484H1076.43V564.49H1083.44V557.484Z" fill="#092F62"/>
<path d="M1055.41 557.484H1048.41V564.49H1055.41V557.484Z" fill="#092F62"/>
<path d="M971.338 557.484H964.331V564.49H971.338V557.484Z" fill="#092F62"/>
<path d="M915.287 557.484H908.28V564.49H915.287V557.484Z" fill="#092F62"/>
<path d="M887.261 557.484H880.255V564.49H887.261V557.484Z" fill="#092F62"/>
<path d="M803.185 557.484H796.178V564.49H803.185V557.484Z" fill="#092F62"/>
<path d="M775.159 557.484H768.153V564.49H775.159V557.484Z" fill="#092F62"/>
<path d="M747.134 557.484H740.127V564.49H747.134V557.484Z" fill="#092F62"/>
<path d="M719.108 557.484H712.102V564.49H719.108V557.484Z" fill="#092F62"/>
<path d="M691.083 557.484H684.076V564.49H691.083V557.484Z" fill="#092F62"/>
<path d="M663.057 557.484H656.051V564.49H663.057V557.484Z" fill="#092F62"/>
<path d="M635.032 557.484H628.025V564.49H635.032V557.484Z" fill="#092F62"/>
<path d="M607.006 557.484H600V564.49H607.006V557.484Z" fill="#092F62"/>
<path d="M1531.85 529.459H1524.84V536.465H1531.85V529.459Z" fill="#092F62"/>
<path d="M1503.82 529.459H1496.82V536.465H1503.82V529.459Z" fill="#092F62"/>
<path d="M1475.8 529.459H1468.79V536.465H1475.8V529.459Z" fill="#092F62"/>
<path d="M1447.77 529.459H1440.76V536.465H1447.77V529.459Z" fill="#092F62"/>
<path d="M1419.75 529.459H1412.74V536.465H1419.75V529.459Z" fill="#092F62"/>
<path d="M1391.72 529.459H1384.71V536.465H1391.72V529.459Z" fill="#092F62"/>
<path d="M1363.69 529.459H1356.69V536.465H1363.69V529.459Z" fill="#092F62"/>
<path d="M1335.67 529.459H1328.66V536.465H1335.67V529.459Z" fill="#092F62"/>
<path d="M1307.64 529.459H1300.64V536.465H1307.64V529.459Z" fill="#092F62"/>
<path d="M1279.62 529.459H1272.61V536.465H1279.62V529.459Z" fill="#092F62"/>
<path d="M1251.59 529.459H1244.59V536.465H1251.59V529.459Z" fill="#092F62"/>
<path d="M1223.57 529.459H1216.56V536.465H1223.57V529.459Z" fill="#092F62"/>
<path d="M1195.54 529.459H1188.54V536.465H1195.54V529.459Z" fill="#092F62"/>
<path d="M1167.52 529.459H1160.51V536.465H1167.52V529.459Z" fill="#092F62"/>
<path d="M1139.49 529.459H1132.48V536.465H1139.49V529.459Z" fill="#092F62"/>
<path d="M1111.46 529.459H1104.46V536.465H1111.46V529.459Z" fill="#092F62"/>
<path d="M1083.44 529.459H1076.43V536.465H1083.44V529.459Z" fill="#092F62"/>
<path d="M1055.41 529.459H1048.41V536.465H1055.41V529.459Z" fill="#092F62"/>
<path d="M1027.39 529.459H1020.38V536.465H1027.39V529.459Z" fill="#092F62"/>
<path d="M999.363 529.459H992.357V536.465H999.363V529.459Z" fill="#092F62"/>
<path d="M971.338 529.459H964.331V536.465H971.338V529.459Z" fill="#092F62"/>
<path d="M943.312 529.459H936.306V536.465H943.312V529.459Z" fill="#092F62"/>
<path d="M915.287 529.459H908.28V536.465H915.287V529.459Z" fill="#092F62"/>
<path d="M887.261 529.459H880.255V536.465H887.261V529.459Z" fill="#092F62"/>
<path d="M859.236 529.459H852.229V536.465H859.236V529.459Z" fill="#092F62"/>
<path d="M831.21 529.459H824.204V536.465H831.21V529.459Z" fill="#092F62"/>
<path d="M803.185 529.459H796.178V536.465H803.185V529.459Z" fill="#092F62"/>
<path d="M775.159 529.459H768.153V536.465H775.159V529.459Z" fill="#092F62"/>
<path d="M747.134 529.459H740.127V536.465H747.134V529.459Z" fill="#092F62"/>
<path d="M719.108 529.459H712.102V536.465H719.108V529.459Z" fill="#092F62"/>
<path d="M691.083 529.459H684.076V536.465H691.083V529.459Z" fill="#092F62"/>
<path d="M663.057 529.459H656.051V536.465H663.057V529.459Z" fill="#092F62"/>
<path d="M635.032 529.459H628.025V536.465H635.032V529.459Z" fill="#092F62"/>
<path d="M1559.87 501.433H1552.87V508.44H1559.87V501.433Z" fill="#092F62"/>
<path d="M1531.85 501.433H1524.84V508.44H1531.85V501.433Z" fill="#092F62"/>
<path d="M1503.82 501.433H1496.82V508.44H1503.82V501.433Z" fill="#092F62"/>
<path d="M1475.8 501.433H1468.79V508.44H1475.8V501.433Z" fill="#092F62"/>
<path d="M1447.77 501.433H1440.76V508.44H1447.77V501.433Z" fill="#092F62"/>
<path d="M1419.75 501.433H1412.74V508.44H1419.75V501.433Z" fill="#092F62"/>
<path d="M1391.72 501.433H1384.71V508.44H1391.72V501.433Z" fill="#092F62"/>
<path d="M1363.69 501.433H1356.69V508.44H1363.69V501.433Z" fill="#092F62"/>
<path d="M1335.67 501.433H1328.66V508.44H1335.67V501.433Z" fill="#092F62"/>
<path d="M1307.64 501.433H1300.64V508.44H1307.64V501.433Z" fill="#092F62"/>
<path d="M1279.62 501.433H1272.61V508.44H1279.62V501.433Z" fill="#092F62"/>
<path d="M1251.59 501.433H1244.59V508.44H1251.59V501.433Z" fill="#092F62"/>
<path d="M1223.57 501.433H1216.56V508.44H1223.57V501.433Z" fill="#092F62"/>
<path d="M1195.54 501.433H1188.54V508.44H1195.54V501.433Z" fill="#092F62"/>
<path d="M1167.52 501.433H1160.51V508.44H1167.52V501.433Z" fill="#092F62"/>
<path d="M1139.49 501.433H1132.48V508.44H1139.49V501.433Z" fill="#092F62"/>
<path d="M1111.46 501.433H1104.46V508.44H1111.46V501.433Z" fill="#092F62"/>
<path d="M1083.44 501.433H1076.43V508.44H1083.44V501.433Z" fill="#092F62"/>
<path d="M1055.41 501.433H1048.41V508.44H1055.41V501.433Z" fill="#092F62"/>
<path d="M1027.39 501.433H1020.38V508.44H1027.39V501.433Z" fill="#092F62"/>
<path d="M999.363 501.433H992.357V508.44H999.363V501.433Z" fill="#092F62"/>
<path d="M971.338 501.433H964.331V508.44H971.338V501.433Z" fill="#092F62"/>
<path d="M943.312 501.433H936.306V508.44H943.312V501.433Z" fill="#092F62"/>
<path d="M915.287 501.433H908.28V508.44H915.287V501.433Z" fill="#092F62"/>
<path d="M887.261 501.433H880.255V508.44H887.261V501.433Z" fill="#092F62"/>
<path d="M859.236 501.433H852.229V508.44H859.236V501.433Z" fill="#092F62"/>
<path d="M831.21 501.433H824.204V508.44H831.21V501.433Z" fill="#092F62"/>
<path d="M803.185 501.433H796.178V508.44H803.185V501.433Z" fill="#092F62"/>
<path d="M691.083 501.433H684.076V508.44H691.083V501.433Z" fill="#092F62"/>
<path d="M663.057 501.433H656.051V508.44H663.057V501.433Z" fill="#092F62"/>
<path d="M635.032 501.433H628.025V508.44H635.032V501.433Z" fill="#092F62"/>
<path d="M1503.82 473.408H1496.82V480.414H1503.82V473.408Z" fill="#092F62"/>
<path d="M1475.8 473.408H1468.79V480.414H1475.8V473.408Z" fill="#092F62"/>
<path d="M1447.77 473.408H1440.76V480.414H1447.77V473.408Z" fill="#092F62"/>
<path d="M1419.75 473.408H1412.74V480.414H1419.75V473.408Z" fill="#092F62"/>
<path d="M1391.72 473.408H1384.71V480.414H1391.72V473.408Z" fill="#092F62"/>
<path d="M1363.69 473.408H1356.69V480.414H1363.69V473.408Z" fill="#092F62"/>
<path d="M1335.67 473.408H1328.66V480.414H1335.67V473.408Z" fill="#092F62"/>
<path d="M1307.64 473.408H1300.64V480.414H1307.64V473.408Z" fill="#092F62"/>
<path d="M1279.62 473.408H1272.61V480.414H1279.62V473.408Z" fill="#092F62"/>
<path d="M1251.59 473.408H1244.59V480.414H1251.59V473.408Z" fill="#092F62"/>
<path d="M1223.57 473.408H1216.56V480.414H1223.57V473.408Z" fill="#092F62"/>
<path d="M1195.54 473.408H1188.54V480.414H1195.54V473.408Z" fill="#092F62"/>
<path d="M1167.52 473.408H1160.51V480.414H1167.52V473.408Z" fill="#092F62"/>
<path d="M1139.49 473.408H1132.48V480.414H1139.49V473.408Z" fill="#092F62"/>
<path d="M1111.46 473.408H1104.46V480.414H1111.46V473.408Z" fill="#092F62"/>
<path d="M1083.44 473.408H1076.43V480.414H1083.44V473.408Z" fill="#092F62"/>
<path d="M1055.41 473.408H1048.41V480.414H1055.41V473.408Z" fill="#092F62"/>
<path d="M1027.39 473.408H1020.38V480.414H1027.39V473.408Z" fill="#092F62"/>
<path d="M999.363 473.408H992.357V480.414H999.363V473.408Z" fill="#092F62"/>
<path d="M971.338 473.408H964.331V480.414H971.338V473.408Z" fill="#092F62"/>
<path d="M943.312 473.408H936.306V480.414H943.312V473.408Z" fill="#092F62"/>
<path d="M915.287 473.408H908.28V480.414H915.287V473.408Z" fill="#092F62"/>
<path d="M887.261 473.408H880.255V480.414H887.261V473.408Z" fill="#092F62"/>
<path d="M859.236 473.408H852.229V480.414H859.236V473.408Z" fill="#092F62"/>
<path d="M831.21 473.408H824.204V480.414H831.21V473.408Z" fill="#092F62"/>
<path d="M803.185 473.408H796.178V480.414H803.185V473.408Z" fill="#092F62"/>
<path d="M1503.82 445.382H1496.82V452.389H1503.82V445.382Z" fill="#092F62"/>
<path d="M1475.8 445.382H1468.79V452.389H1475.8V445.382Z" fill="#092F62"/>
<path d="M1447.77 445.382H1440.76V452.389H1447.77V445.382Z" fill="#092F62"/>
<path d="M1419.75 445.382H1412.74V452.389H1419.75V445.382Z" fill="#092F62"/>
<path d="M1391.72 445.382H1384.71V452.389H1391.72V445.382Z" fill="#092F62"/>
<path d="M1363.69 445.382H1356.69V452.389H1363.69V445.382Z" fill="#092F62"/>
<path d="M1335.67 445.382H1328.66V452.389H1335.67V445.382Z" fill="#092F62"/>
<path d="M1307.64 445.382H1300.64V452.389H1307.64V445.382Z" fill="#092F62"/>
<path d="M1279.62 445.382H1272.61V452.389H1279.62V445.382Z" fill="#092F62"/>
<path d="M1251.59 445.382H1244.59V452.389H1251.59V445.382Z" fill="#092F62"/>
<path d="M1223.57 445.382H1216.56V452.389H1223.57V445.382Z" fill="#092F62"/>
<path d="M1195.54 445.382H1188.54V452.389H1195.54V445.382Z" fill="#092F62"/>
<path d="M1167.52 445.382H1160.51V452.389H1167.52V445.382Z" fill="#092F62"/>
<path d="M1139.49 445.382H1132.48V452.389H1139.49V445.382Z" fill="#092F62"/>
<path d="M1111.46 445.382H1104.46V452.389H1111.46V445.382Z" fill="#092F62"/>
<path d="M1083.44 445.382H1076.43V452.389H1083.44V445.382Z" fill="#092F62"/>
<path d="M1055.41 445.382H1048.41V452.389H1055.41V445.382Z" fill="#092F62"/>
<path d="M1027.39 445.382H1020.38V452.389H1027.39V445.382Z" fill="#092F62"/>
<path d="M999.363 445.382H992.357V452.389H999.363V445.382Z" fill="#092F62"/>
<path d="M971.338 445.382H964.331V452.389H971.338V445.382Z" fill="#092F62"/>
<path d="M943.312 445.382H936.306V452.389H943.312V445.382Z" fill="#092F62"/>
<path d="M915.287 445.382H908.28V452.389H915.287V445.382Z" fill="#092F62"/>
<path d="M887.261 445.382H880.255V452.389H887.261V445.382Z" fill="#092F62"/>
<path d="M859.236 445.382H852.229V452.389H859.236V445.382Z" fill="#092F62"/>
<path d="M831.21 445.382H824.204V452.389H831.21V445.382Z" fill="#092F62"/>
<path d="M803.185 445.382H796.178V452.389H803.185V445.382Z" fill="#092F62"/>
<path d="M1531.85 417.357H1524.84V424.363H1531.85V417.357Z" fill="#092F62"/>
<path d="M1503.82 417.357H1496.82V424.363H1503.82V417.357Z" fill="#092F62"/>
<path d="M1475.8 417.357H1468.79V424.363H1475.8V417.357Z" fill="#092F62"/>
<path d="M1447.77 417.357H1440.76V424.363H1447.77V417.357Z" fill="#092F62"/>
<path d="M1419.75 417.357H1412.74V424.363H1419.75V417.357Z" fill="#092F62"/>
<path d="M1391.72 417.357H1384.71V424.363H1391.72V417.357Z" fill="#092F62"/>
<path d="M1363.69 417.357H1356.69V424.363H1363.69V417.357Z" fill="#092F62"/>
<path d="M1335.67 417.357H1328.66V424.363H1335.67V417.357Z" fill="#092F62"/>
<path d="M1307.64 417.357H1300.64V424.363H1307.64V417.357Z" fill="#092F62"/>
<path d="M1279.62 417.357H1272.61V424.363H1279.62V417.357Z" fill="#092F62"/>
<path d="M1251.59 417.357H1244.59V424.363H1251.59V417.357Z" fill="#092F62"/>
<path d="M1223.57 417.357H1216.56V424.363H1223.57V417.357Z" fill="#092F62"/>
<path d="M1195.54 417.357H1188.54V424.363H1195.54V417.357Z" fill="#092F62"/>
<path d="M1167.52 417.357H1160.51V424.363H1167.52V417.357Z" fill="#092F62"/>
<path d="M1139.49 417.357H1132.48V424.363H1139.49V417.357Z" fill="#092F62"/>
<path d="M1111.46 417.357H1104.46V424.363H1111.46V417.357Z" fill="#092F62"/>
<path d="M1083.44 417.357H1076.43V424.363H1083.44V417.357Z" fill="#092F62"/>
<path d="M1055.41 417.357H1048.41V424.363H1055.41V417.357Z" fill="#092F62"/>
<path d="M1027.39 417.357H1020.38V424.363H1027.39V417.357Z" fill="#092F62"/>
<path d="M999.363 417.357H992.357V424.363H999.363V417.357Z" fill="#092F62"/>
<path d="M971.338 417.357H964.331V424.363H971.338V417.357Z" fill="#092F62"/>
<path d="M943.312 417.357H936.306V424.363H943.312V417.357Z" fill="#092F62"/>
<path d="M915.287 417.357H908.28V424.363H915.287V417.357Z" fill="#092F62"/>
<path d="M887.261 417.357H880.255V424.363H887.261V417.357Z" fill="#092F62"/>
<path d="M859.236 417.357H852.229V424.363H859.236V417.357Z" fill="#092F62"/>
<path d="M775.159 417.357H768.153V424.363H775.159V417.357Z" fill="#092F62"/>
<path d="M1643.95 389.331H1636.94V396.338H1643.95V389.331Z" fill="#092F62"/>
<path d="M1615.92 389.331H1608.92V396.338H1615.92V389.331Z" fill="#092F62"/>
<path d="M1587.9 389.331H1580.89V396.338H1587.9V389.331Z" fill="#092F62"/>
<path d="M1559.87 389.331H1552.87V396.338H1559.87V389.331Z" fill="#092F62"/>
<path d="M1531.85 389.331H1524.84V396.338H1531.85V389.331Z" fill="#092F62"/>
<path d="M1503.82 389.331H1496.82V396.338H1503.82V389.331Z" fill="#092F62"/>
<path d="M1475.8 389.331H1468.79V396.338H1475.8V389.331Z" fill="#092F62"/>
<path d="M1447.77 389.331H1440.76V396.338H1447.77V389.331Z" fill="#092F62"/>
<path d="M1419.75 389.331H1412.74V396.338H1419.75V389.331Z" fill="#092F62"/>
<path d="M1391.72 389.331H1384.71V396.338H1391.72V389.331Z" fill="#092F62"/>
<path d="M1363.69 389.331H1356.69V396.338H1363.69V389.331Z" fill="#092F62"/>
<path d="M1335.67 389.331H1328.66V396.338H1335.67V389.331Z" fill="#092F62"/>
<path d="M1307.64 389.331H1300.64V396.338H1307.64V389.331Z" fill="#092F62"/>
<path d="M1279.62 389.331H1272.61V396.338H1279.62V389.331Z" fill="#092F62"/>
<path d="M1251.59 389.331H1244.59V396.338H1251.59V389.331Z" fill="#092F62"/>
<path d="M1223.57 389.331H1216.56V396.338H1223.57V389.331Z" fill="#092F62"/>
<path d="M1195.54 389.331H1188.54V396.338H1195.54V389.331Z" fill="#092F62"/>
<path d="M1167.52 389.331H1160.51V396.338H1167.52V389.331Z" fill="#092F62"/>
<path d="M1139.49 389.331H1132.48V396.338H1139.49V389.331Z" fill="#092F62"/>
<path d="M1111.46 389.331H1104.46V396.338H1111.46V389.331Z" fill="#092F62"/>
<path d="M1083.44 389.331H1076.43V396.338H1083.44V389.331Z" fill="#092F62"/>
<path d="M1055.41 389.331H1048.41V396.338H1055.41V389.331Z" fill="#092F62"/>
<path d="M1027.39 389.331H1020.38V396.338H1027.39V389.331Z" fill="#092F62"/>
<path d="M999.363 389.331H992.357V396.338H999.363V389.331Z" fill="#092F62"/>
<path d="M971.338 389.331H964.331V396.338H971.338V389.331Z" fill="#092F62"/>
<path d="M943.312 389.331H936.306V396.338H943.312V389.331Z" fill="#092F62"/>
<path d="M915.287 389.331H908.28V396.338H915.287V389.331Z" fill="#092F62"/>
<path d="M859.236 389.331H852.229V396.338H859.236V389.331Z" fill="#092F62"/>
<path d="M1700 361.306H1692.99V368.312H1700V361.306Z" fill="#092F62"/>
<path d="M1671.97 361.306H1664.97V368.312H1671.97V361.306Z" fill="#092F62"/>
<path d="M1643.95 361.306H1636.94V368.312H1643.95V361.306Z" fill="#092F62"/>
<path d="M1615.92 361.306H1608.92V368.312H1615.92V361.306Z" fill="#092F62"/>
<path d="M1587.9 361.306H1580.89V368.312H1587.9V361.306Z" fill="#092F62"/>
<path d="M1559.87 361.306H1552.87V368.312H1559.87V361.306Z" fill="#092F62"/>
<path d="M1531.85 361.306H1524.84V368.312H1531.85V361.306Z" fill="#092F62"/>
<path d="M1503.82 361.306H1496.82V368.312H1503.82V361.306Z" fill="#092F62"/>
<path d="M1475.8 361.306H1468.79V368.312H1475.8V361.306Z" fill="#092F62"/>
<path d="M1447.77 361.306H1440.76V368.312H1447.77V361.306Z" fill="#092F62"/>
<path d="M1419.75 361.306H1412.74V368.312H1419.75V361.306Z" fill="#092F62"/>
<path d="M1391.72 361.306H1384.71V368.312H1391.72V361.306Z" fill="#092F62"/>
<path d="M1363.69 361.306H1356.69V368.312H1363.69V361.306Z" fill="#092F62"/>
<path d="M1335.67 361.306H1328.66V368.312H1335.67V361.306Z" fill="#092F62"/>
<path d="M1307.64 361.306H1300.64V368.312H1307.64V361.306Z" fill="#092F62"/>
<path d="M1279.62 361.306H1272.61V368.312H1279.62V361.306Z" fill="#092F62"/>
<path d="M1251.59 361.306H1244.59V368.312H1251.59V361.306Z" fill="#092F62"/>
<path d="M1223.57 361.306H1216.56V368.312H1223.57V361.306Z" fill="#092F62"/>
<path d="M1195.54 361.306H1188.54V368.312H1195.54V361.306Z" fill="#092F62"/>
<path d="M1167.52 361.306H1160.51V368.312H1167.52V361.306Z" fill="#092F62"/>
<path d="M1027.39 361.306H1020.38V368.312H1027.39V361.306Z" fill="#092F62"/>
<path d="M999.363 361.306H992.357V368.312H999.363V361.306Z" fill="#092F62"/>
<path d="M859.236 361.306H852.229V368.312H859.236V361.306Z" fill="#092F62"/>
<path d="M831.21 361.306H824.204V368.312H831.21V361.306Z" fill="#092F62"/>
<path d="M803.185 361.306H796.178V368.312H803.185V361.306Z" fill="#092F62"/>
<path d="M1643.95 333.28H1636.94V340.287H1643.95V333.28Z" fill="#092F62"/>
<path d="M1615.92 333.28H1608.92V340.287H1615.92V333.28Z" fill="#092F62"/>
<path d="M1587.9 333.28H1580.89V340.287H1587.9V333.28Z" fill="#092F62"/>
<path d="M1559.87 333.28H1552.87V340.287H1559.87V333.28Z" fill="#092F62"/>
<path d="M1531.85 333.28H1524.84V340.287H1531.85V333.28Z" fill="#092F62"/>
<path d="M1503.82 333.28H1496.82V340.287H1503.82V333.28Z" fill="#092F62"/>
<path d="M1475.8 333.28H1468.79V340.287H1475.8V333.28Z" fill="#092F62"/>
<path d="M1447.77 333.28H1440.76V340.287H1447.77V333.28Z" fill="#092F62"/>
<path d="M1419.75 333.28H1412.74V340.287H1419.75V333.28Z" fill="#092F62"/>
<path d="M1391.72 333.28H1384.71V340.287H1391.72V333.28Z" fill="#092F62"/>
<path d="M1363.69 333.28H1356.69V340.287H1363.69V333.28Z" fill="#092F62"/>
<path d="M1335.67 333.28H1328.66V340.287H1335.67V333.28Z" fill="#092F62"/>
<path d="M1307.64 333.28H1300.64V340.287H1307.64V333.28Z" fill="#092F62"/>
<path d="M1279.62 333.28H1272.61V340.287H1279.62V333.28Z" fill="#092F62"/>
<path d="M1251.59 333.28H1244.59V340.287H1251.59V333.28Z" fill="#092F62"/>
<path d="M1223.57 333.28H1216.56V340.287H1223.57V333.28Z" fill="#092F62"/>
<path d="M1195.54 333.28H1188.54V340.287H1195.54V333.28Z" fill="#092F62"/>
<path d="M1167.52 333.28H1160.51V340.287H1167.52V333.28Z" fill="#092F62"/>
<path d="M1083.44 333.28H1076.43V340.287H1083.44V333.28Z" fill="#092F62"/>
<path d="M1055.41 333.28H1048.41V340.287H1055.41V333.28Z" fill="#092F62"/>
<path d="M999.363 333.28H992.357V340.287H999.363V333.28Z" fill="#092F62"/>
<path d="M859.236 333.28H852.229V340.287H859.236V333.28Z" fill="#092F62"/>
<path d="M831.21 333.28H824.204V340.287H831.21V333.28Z" fill="#092F62"/>
<path d="M1615.92 305.255H1608.92V312.261H1615.92V305.255Z" fill="#092F62"/>
<path d="M1587.9 305.255H1580.89V312.261H1587.9V305.255Z" fill="#092F62"/>
<path d="M1559.87 305.255H1552.87V312.261H1559.87V305.255Z" fill="#092F62"/>
<path d="M1531.85 305.255H1524.84V312.261H1531.85V305.255Z" fill="#092F62"/>
<path d="M1503.82 305.255H1496.82V312.261H1503.82V305.255Z" fill="#092F62"/>
<path d="M1475.8 305.255H1468.79V312.261H1475.8V305.255Z" fill="#092F62"/>
<path d="M1447.77 305.255H1440.76V312.261H1447.77V305.255Z" fill="#092F62"/>
<path d="M1419.75 305.255H1412.74V312.261H1419.75V305.255Z" fill="#092F62"/>
<path d="M1391.72 305.255H1384.71V312.261H1391.72V305.255Z" fill="#092F62"/>
<path d="M1363.69 305.255H1356.69V312.261H1363.69V305.255Z" fill="#092F62"/>
<path d="M1335.67 305.255H1328.66V312.261H1335.67V305.255Z" fill="#092F62"/>
<path d="M1307.64 305.255H1300.64V312.261H1307.64V305.255Z" fill="#092F62"/>
<path d="M1279.62 305.255H1272.61V312.261H1279.62V305.255Z" fill="#092F62"/>
<path d="M1251.59 305.255H1244.59V312.261H1251.59V305.255Z" fill="#092F62"/>
<path d="M1223.57 305.255H1216.56V312.261H1223.57V305.255Z" fill="#092F62"/>
<path d="M1195.54 305.255H1188.54V312.261H1195.54V305.255Z" fill="#092F62"/>
<path d="M1083.44 305.255H1076.43V312.261H1083.44V305.255Z" fill="#092F62"/>
<path d="M1055.41 305.255H1048.41V312.261H1055.41V305.255Z" fill="#092F62"/>
<path d="M859.236 305.255H852.229V312.261H859.236V305.255Z" fill="#092F62"/>
<path d="M775.159 305.255H768.153V312.261H775.159V305.255Z" fill="#092F62"/>
<path d="M747.134 305.255H740.127V312.261H747.134V305.255Z" fill="#092F62"/>
<path d="M1587.9 277.229H1580.89V284.236H1587.9V277.229Z" fill="#092F62"/>
<path d="M1559.87 277.229H1552.87V284.236H1559.87V277.229Z" fill="#092F62"/>
<path d="M1531.85 277.229H1524.84V284.236H1531.85V277.229Z" fill="#092F62"/>
<path d="M1503.82 277.229H1496.82V284.236H1503.82V277.229Z" fill="#092F62"/>
<path d="M1475.8 277.229H1468.79V284.236H1475.8V277.229Z" fill="#092F62"/>
<path d="M1447.77 277.229H1440.76V284.236H1447.77V277.229Z" fill="#092F62"/>
<path d="M1419.75 277.229H1412.74V284.236H1419.75V277.229Z" fill="#092F62"/>
<path d="M1391.72 277.229H1384.71V284.236H1391.72V277.229Z" fill="#092F62"/>
<path d="M1363.69 277.229H1356.69V284.236H1363.69V277.229Z" fill="#092F62"/>
<path d="M1335.67 277.229H1328.66V284.236H1335.67V277.229Z" fill="#092F62"/>
<path d="M1307.64 277.229H1300.64V284.236H1307.64V277.229Z" fill="#092F62"/>
<path d="M1279.62 277.229H1272.61V284.236H1279.62V277.229Z" fill="#092F62"/>
<path d="M1111.46 277.229H1104.46V284.236H1111.46V277.229Z" fill="#092F62"/>
<path d="M1083.44 277.229H1076.43V284.236H1083.44V277.229Z" fill="#092F62"/>
<path d="M1055.41 277.229H1048.41V284.236H1055.41V277.229Z" fill="#092F62"/>
<path d="M999.363 277.229H992.357V284.236H999.363V277.229Z" fill="#092F62"/>
<path d="M775.159 277.229H768.153V284.236H775.159V277.229Z" fill="#092F62"/>
<path d="M1587.9 249.204H1580.89V256.21H1587.9V249.204Z" fill="#092F62"/>
<path d="M1559.87 249.204H1552.87V256.21H1559.87V249.204Z" fill="#092F62"/>
<path d="M1531.85 249.204H1524.84V256.21H1531.85V249.204Z" fill="#092F62"/>
<path d="M1503.82 249.204H1496.82V256.21H1503.82V249.204Z" fill="#092F62"/>
<path d="M1475.8 249.204H1468.79V256.21H1475.8V249.204Z" fill="#092F62"/>
<path d="M1447.77 249.204H1440.76V256.21H1447.77V249.204Z" fill="#092F62"/>
<path d="M1419.75 249.204H1412.74V256.21H1419.75V249.204Z" fill="#092F62"/>
<path d="M1391.72 249.204H1384.71V256.21H1391.72V249.204Z" fill="#092F62"/>
<path d="M1363.69 249.204H1356.69V256.21H1363.69V249.204Z" fill="#092F62"/>
<path d="M1335.67 249.204H1328.66V256.21H1335.67V249.204Z" fill="#092F62"/>
<path d="M1307.64 249.204H1300.64V256.21H1307.64V249.204Z" fill="#092F62"/>
<path d="M1279.62 249.204H1272.61V256.21H1279.62V249.204Z" fill="#092F62"/>
<path d="M1251.59 249.204H1244.59V256.21H1251.59V249.204Z" fill="#092F62"/>
<path d="M1223.57 249.204H1216.56V256.21H1223.57V249.204Z" fill="#092F62"/>
<path d="M1195.54 249.204H1188.54V256.21H1195.54V249.204Z" fill="#092F62"/>
<path d="M1167.52 249.204H1160.51V256.21H1167.52V249.204Z" fill="#092F62"/>
<path d="M1111.46 249.204H1104.46V256.21H1111.46V249.204Z" fill="#092F62"/>
<path d="M1083.44 249.204H1076.43V256.21H1083.44V249.204Z" fill="#092F62"/>
<path d="M1055.41 249.204H1048.41V256.21H1055.41V249.204Z" fill="#092F62"/>
<path d="M1027.39 249.204H1020.38V256.21H1027.39V249.204Z" fill="#092F62"/>
<path d="M999.363 249.204H992.357V256.21H999.363V249.204Z" fill="#092F62"/>
<path d="M1587.9 221.178H1580.89V228.185H1587.9V221.178Z" fill="#092F62"/>
<path d="M1559.87 221.178H1552.87V228.185H1559.87V221.178Z" fill="#092F62"/>
<path d="M1531.85 221.178H1524.84V228.185H1531.85V221.178Z" fill="#092F62"/>
<path d="M1503.82 221.178H1496.82V228.185H1503.82V221.178Z" fill="#092F62"/>
<path d="M1475.8 221.178H1468.79V228.185H1475.8V221.178Z" fill="#092F62"/>
<path d="M1447.77 221.178H1440.76V228.185H1447.77V221.178Z" fill="#092F62"/>
<path d="M1419.75 221.178H1412.74V228.185H1419.75V221.178Z" fill="#092F62"/>
<path d="M1391.72 221.178H1384.71V228.185H1391.72V221.178Z" fill="#092F62"/>
<path d="M1363.69 221.178H1356.69V228.185H1363.69V221.178Z" fill="#092F62"/>
<path d="M1335.67 221.178H1328.66V228.185H1335.67V221.178Z" fill="#092F62"/>
<path d="M1307.64 221.178H1300.64V228.185H1307.64V221.178Z" fill="#092F62"/>
<path d="M1279.62 221.178H1272.61V228.185H1279.62V221.178Z" fill="#092F62"/>
<path d="M1251.59 221.178H1244.59V228.185H1251.59V221.178Z" fill="#092F62"/>
<path d="M1223.57 221.178H1216.56V228.185H1223.57V221.178Z" fill="#092F62"/>
<path d="M1195.54 221.178H1188.54V228.185H1195.54V221.178Z" fill="#092F62"/>
<path d="M1167.52 221.178H1160.51V228.185H1167.52V221.178Z" fill="#092F62"/>
<path d="M1111.46 221.178H1104.46V228.185H1111.46V221.178Z" fill="#092F62"/>
<path d="M1083.44 221.178H1076.43V228.185H1083.44V221.178Z" fill="#092F62"/>
<path d="M1055.41 221.178H1048.41V228.185H1055.41V221.178Z" fill="#092F62"/>
<path d="M1027.39 221.178H1020.38V228.185H1027.39V221.178Z" fill="#092F62"/>
<path d="M999.363 221.178H992.357V228.185H999.363V221.178Z" fill="#092F62"/>
<path d="M1559.87 193.153H1552.87V200.159H1559.87V193.153Z" fill="#092F62"/>
<path d="M1531.85 193.153H1524.84V200.159H1531.85V193.153Z" fill="#092F62"/>
<path d="M1503.82 193.153H1496.82V200.159H1503.82V193.153Z" fill="#092F62"/>
<path d="M1475.8 193.153H1468.79V200.159H1475.8V193.153Z" fill="#092F62"/>
<path d="M1447.77 193.153H1440.76V200.159H1447.77V193.153Z" fill="#092F62"/>
<path d="M1419.75 193.153H1412.74V200.159H1419.75V193.153Z" fill="#092F62"/>
<path d="M1391.72 193.153H1384.71V200.159H1391.72V193.153Z" fill="#092F62"/>
<path d="M1363.69 193.153H1356.69V200.159H1363.69V193.153Z" fill="#092F62"/>
<path d="M1335.67 193.153H1328.66V200.159H1335.67V193.153Z" fill="#092F62"/>
<path d="M1307.64 193.153H1300.64V200.159H1307.64V193.153Z" fill="#092F62"/>
<path d="M1279.62 193.153H1272.61V200.159H1279.62V193.153Z" fill="#092F62"/>
<path d="M1251.59 193.153H1244.59V200.159H1251.59V193.153Z" fill="#092F62"/>
<path d="M1223.57 193.153H1216.56V200.159H1223.57V193.153Z" fill="#092F62"/>
<path d="M1195.54 193.153H1188.54V200.159H1195.54V193.153Z" fill="#092F62"/>
<path d="M1139.49 193.153H1132.48V200.159H1139.49V193.153Z" fill="#092F62"/>
<path d="M1111.46 193.153H1104.46V200.159H1111.46V193.153Z" fill="#092F62"/>
<path d="M1083.44 193.153H1076.43V200.159H1083.44V193.153Z" fill="#092F62"/>
<path d="M1055.41 193.153H1048.41V200.159H1055.41V193.153Z" fill="#092F62"/>
<path d="M1027.39 193.153H1020.38V200.159H1027.39V193.153Z" fill="#092F62"/>
<path d="M1559.87 165.127H1552.87V172.134H1559.87V165.127Z" fill="#092F62"/>
<path d="M1531.85 165.127H1524.84V172.134H1531.85V165.127Z" fill="#092F62"/>
<path d="M1503.82 165.127H1496.82V172.134H1503.82V165.127Z" fill="#092F62"/>
<path d="M1475.8 165.127H1468.79V172.134H1475.8V165.127Z" fill="#092F62"/>
<path d="M1447.77 165.127H1440.76V172.134H1447.77V165.127Z" fill="#092F62"/>
<path d="M1419.75 165.127H1412.74V172.134H1419.75V165.127Z" fill="#092F62"/>
<path d="M1391.72 165.127H1384.71V172.134H1391.72V165.127Z" fill="#092F62"/>
<path d="M1363.69 165.127H1356.69V172.134H1363.69V165.127Z" fill="#092F62"/>
<path d="M1279.62 165.127H1272.61V172.134H1279.62V165.127Z" fill="#092F62"/>
<path d="M1251.59 165.127H1244.59V172.134H1251.59V165.127Z" fill="#092F62"/>
<path d="M1223.57 165.127H1216.56V172.134H1223.57V165.127Z" fill="#092F62"/>
<path d="M1167.52 165.127H1160.51V172.134H1167.52V165.127Z" fill="#092F62"/>
<path d="M1139.49 165.127H1132.48V172.134H1139.49V165.127Z" fill="#092F62"/>
<path d="M1111.46 165.127H1104.46V172.134H1111.46V165.127Z" fill="#092F62"/>
<path d="M1083.44 165.127H1076.43V172.134H1083.44V165.127Z" fill="#092F62"/>
<path d="M1531.85 137.102H1524.84V144.108H1531.85V137.102Z" fill="#092F62"/>
<path d="M1503.82 137.102H1496.82V144.108H1503.82V137.102Z" fill="#092F62"/>
<path d="M1475.8 137.102H1468.79V144.108H1475.8V137.102Z" fill="#092F62"/>
<path d="M1447.77 137.102H1440.76V144.108H1447.77V137.102Z" fill="#092F62"/>
<path d="M1419.75 137.102H1412.74V144.108H1419.75V137.102Z" fill="#092F62"/>
<path d="M1391.72 137.102H1384.71V144.108H1391.72V137.102Z" fill="#092F62"/>
<path d="M1335.67 137.102H1328.66V144.108H1335.67V137.102Z" fill="#092F62"/>
<path d="M1307.64 137.102H1300.64V144.108H1307.64V137.102Z" fill="#092F62"/>
<path d="M1279.62 137.102H1272.61V144.108H1279.62V137.102Z" fill="#092F62"/>
<path d="M1251.59 137.102H1244.59V144.108H1251.59V137.102Z" fill="#092F62"/>
<path d="M1223.57 137.102H1216.56V144.108H1223.57V137.102Z" fill="#092F62"/>
<path d="M1195.54 137.102H1188.54V144.108H1195.54V137.102Z" fill="#092F62"/>
<path d="M1167.52 137.102H1160.51V144.108H1167.52V137.102Z" fill="#092F62"/>
<path d="M1139.49 137.102H1132.48V144.108H1139.49V137.102Z" fill="#092F62"/>
<path d="M1111.46 137.102H1104.46V144.108H1111.46V137.102Z" fill="#092F62"/>
<path d="M1531.85 109.076H1524.84V116.083H1531.85V109.076Z" fill="#092F62"/>
<path d="M1503.82 109.076H1496.82V116.083H1503.82V109.076Z" fill="#092F62"/>
<path d="M1475.8 109.076H1468.79V116.083H1475.8V109.076Z" fill="#092F62"/>
<path d="M1447.77 109.076H1440.76V116.083H1447.77V109.076Z" fill="#092F62"/>
<path d="M1335.67 109.076H1328.66V116.083H1335.67V109.076Z" fill="#092F62"/>
<path d="M1307.64 109.076H1300.64V116.083H1307.64V109.076Z" fill="#092F62"/>
<path d="M1279.62 109.076H1272.61V116.083H1279.62V109.076Z" fill="#092F62"/>
<path d="M1251.59 109.076H1244.59V116.083H1251.59V109.076Z" fill="#092F62"/>
<path d="M1223.57 109.076H1216.56V116.083H1223.57V109.076Z" fill="#092F62"/>
<path d="M1195.54 109.076H1188.54V116.083H1195.54V109.076Z" fill="#092F62"/>
<path d="M1167.52 109.076H1160.51V116.083H1167.52V109.076Z" fill="#092F62"/>
<path d="M1139.49 109.076H1132.48V116.083H1139.49V109.076Z" fill="#092F62"/>
<path d="M1531.85 81.051H1524.84V88.0573H1531.85V81.051Z" fill="#092F62"/>
<path d="M1503.82 81.051H1496.82V88.0573H1503.82V81.051Z" fill="#092F62"/>
<path d="M1475.8 81.051H1468.79V88.0573H1475.8V81.051Z" fill="#092F62"/>
<path d="M1447.77 81.051H1440.76V88.0573H1447.77V81.051Z" fill="#092F62"/>
<path d="M1251.59 81.051H1244.59V88.0573H1251.59V81.051Z" fill="#092F62"/>
<path d="M1223.57 81.051H1216.56V88.0573H1223.57V81.051Z" fill="#092F62"/>
<path d="M1195.54 81.051H1188.54V88.0573H1195.54V81.051Z" fill="#092F62"/>
<path d="M1167.52 81.051H1160.51V88.0573H1167.52V81.051Z" fill="#092F62"/>
<path d="M1531.85 53.0255H1524.84V60.0318H1531.85V53.0255Z" fill="#092F62"/>
<path d="M1503.82 53.0255H1496.82V60.0318H1503.82V53.0255Z" fill="#092F62"/>
<path d="M831.21 53.0255H824.204V60.0318H831.21V53.0255Z" fill="#092F62"/>
<path d="M803.185 53.0255H796.178V60.0318H803.185V53.0255Z" fill="#092F62"/>
<path d="M775.159 53.0255H768.153V60.0318H775.159V53.0255Z" fill="#092F62"/>
<path d="M775.159 25H768.153V32.0064H775.159V25Z" fill="#092F62"/>
</g>
</g>
<defs>
<clipPath id="clip0_1709_17891">
<rect width="1440" height="757" fill="white"/>
</clipPath>
</defs>
</svg>
