<svg width="390" height="244" viewBox="0 0 390 244" fill="none" xmlns="http://www.w3.org/2000/svg">
<g opacity="0.6">
<path d="M191.752 229.561H189.586V231.726H191.752V229.561Z" fill="#092F62"/>
<path d="M191.752 220.898H189.586V223.064H191.752V220.898Z" fill="#092F62"/>
<path d="M157.102 220.898H154.936V223.064H157.102V220.898Z" fill="#092F62"/>
<path d="M148.439 220.898H146.274V223.064H148.439V220.898Z" fill="#092F62"/>
<path d="M139.777 220.898H137.611V223.064H139.777V220.898Z" fill="#092F62"/>
<path d="M217.739 212.236H215.573V214.401H217.739V212.236Z" fill="#092F62"/>
<path d="M200.414 212.236H198.248V214.401H200.414V212.236Z" fill="#092F62"/>
<path d="M191.752 212.236H189.586V214.401H191.752V212.236Z" fill="#092F62"/>
<path d="M183.089 212.236H180.924V214.401H183.089V212.236Z" fill="#092F62"/>
<path d="M339.013 203.573H336.847V205.739H339.013V203.573Z" fill="#092F62"/>
<path d="M330.35 203.573H328.185V205.739H330.35V203.573Z" fill="#092F62"/>
<path d="M321.688 203.573H319.522V205.739H321.688V203.573Z" fill="#092F62"/>
<path d="M313.025 203.573H310.86V205.739H313.025V203.573Z" fill="#092F62"/>
<path d="M217.739 203.573H215.573V205.739H217.739V203.573Z" fill="#092F62"/>
<path d="M209.076 203.573H206.911V205.739H209.076V203.573Z" fill="#092F62"/>
<path d="M200.414 203.573H198.248V205.739H200.414V203.573Z" fill="#092F62"/>
<path d="M191.752 203.573H189.586V205.739H191.752V203.573Z" fill="#092F62"/>
<path d="M183.089 203.573H180.924V205.739H183.089V203.573Z" fill="#092F62"/>
<path d="M157.102 203.573H154.936V205.739H157.102V203.573Z" fill="#092F62"/>
<path d="M122.452 203.573H120.287V205.739H122.452V203.573Z" fill="#092F62"/>
<path d="M330.35 194.911H328.185V197.076H330.35V194.911Z" fill="#092F62"/>
<path d="M321.688 194.911H319.522V197.076H321.688V194.911Z" fill="#092F62"/>
<path d="M313.025 194.911H310.86V197.076H313.025V194.911Z" fill="#092F62"/>
<path d="M304.363 194.911H302.197V197.076H304.363V194.911Z" fill="#092F62"/>
<path d="M295.701 194.911H293.535V197.076H295.701V194.911Z" fill="#092F62"/>
<path d="M217.739 194.911H215.573V197.076H217.739V194.911Z" fill="#092F62"/>
<path d="M209.076 194.911H206.911V197.076H209.076V194.911Z" fill="#092F62"/>
<path d="M200.414 194.911H198.248V197.076H200.414V194.911Z" fill="#092F62"/>
<path d="M191.752 194.911H189.586V197.076H191.752V194.911Z" fill="#092F62"/>
<path d="M183.089 194.911H180.924V197.076H183.089V194.911Z" fill="#092F62"/>
<path d="M174.427 194.911H172.261V197.076H174.427V194.911Z" fill="#092F62"/>
<path d="M148.439 194.911H146.274V197.076H148.439V194.911Z" fill="#092F62"/>
<path d="M61.8153 194.911H59.6497V197.076H61.8153V194.911Z" fill="#092F62"/>
<path d="M53.1529 194.911H50.9873V197.076H53.1529V194.911Z" fill="#092F62"/>
<path d="M44.4904 194.911H42.3248V197.076H44.4904V194.911Z" fill="#092F62"/>
<path d="M35.828 194.911H33.6624V197.076H35.828V194.911Z" fill="#092F62"/>
<path d="M321.688 186.248H319.522V188.414H321.688V186.248Z" fill="#092F62"/>
<path d="M313.025 186.248H310.86V188.414H313.025V186.248Z" fill="#092F62"/>
<path d="M304.363 186.248H302.197V188.414H304.363V186.248Z" fill="#092F62"/>
<path d="M295.701 186.248H293.535V188.414H295.701V186.248Z" fill="#092F62"/>
<path d="M287.038 186.248H284.873V188.414H287.038V186.248Z" fill="#092F62"/>
<path d="M226.401 186.248H224.236V188.414H226.401V186.248Z" fill="#092F62"/>
<path d="M217.739 186.248H215.573V188.414H217.739V186.248Z" fill="#092F62"/>
<path d="M209.076 186.248H206.911V188.414H209.076V186.248Z" fill="#092F62"/>
<path d="M200.414 186.248H198.248V188.414H200.414V186.248Z" fill="#092F62"/>
<path d="M191.752 186.248H189.586V188.414H191.752V186.248Z" fill="#092F62"/>
<path d="M183.089 186.248H180.924V188.414H183.089V186.248Z" fill="#092F62"/>
<path d="M174.427 186.248H172.261V188.414H174.427V186.248Z" fill="#092F62"/>
<path d="M165.764 186.248H163.599V188.414H165.764V186.248Z" fill="#092F62"/>
<path d="M148.439 186.248H146.274V188.414H148.439V186.248Z" fill="#092F62"/>
<path d="M139.777 186.248H137.611V188.414H139.777V186.248Z" fill="#092F62"/>
<path d="M79.1401 186.248H76.9745V188.414H79.1401V186.248Z" fill="#092F62"/>
<path d="M70.4777 186.248H68.3121V188.414H70.4777V186.248Z" fill="#092F62"/>
<path d="M61.8153 186.248H59.6497V188.414H61.8153V186.248Z" fill="#092F62"/>
<path d="M53.1529 186.248H50.9873V188.414H53.1529V186.248Z" fill="#092F62"/>
<path d="M44.4904 186.248H42.3248V188.414H44.4904V186.248Z" fill="#092F62"/>
<path d="M35.828 186.248H33.6624V188.414H35.828V186.248Z" fill="#092F62"/>
<path d="M27.1656 186.248H25V188.414H27.1656V186.248Z" fill="#092F62"/>
<path d="M313.025 177.586H310.86V179.752H313.025V177.586Z" fill="#092F62"/>
<path d="M304.363 177.586H302.197V179.752H304.363V177.586Z" fill="#092F62"/>
<path d="M295.701 177.586H293.535V179.752H295.701V177.586Z" fill="#092F62"/>
<path d="M287.038 177.586H284.873V179.752H287.038V177.586Z" fill="#092F62"/>
<path d="M278.376 177.586H276.21V179.752H278.376V177.586Z" fill="#092F62"/>
<path d="M252.389 177.586H250.223V179.752H252.389V177.586Z" fill="#092F62"/>
<path d="M226.401 177.586H224.236V179.752H226.401V177.586Z" fill="#092F62"/>
<path d="M217.739 177.586H215.573V179.752H217.739V177.586Z" fill="#092F62"/>
<path d="M209.076 177.586H206.911V179.752H209.076V177.586Z" fill="#092F62"/>
<path d="M200.414 177.586H198.248V179.752H200.414V177.586Z" fill="#092F62"/>
<path d="M191.752 177.586H189.586V179.752H191.752V177.586Z" fill="#092F62"/>
<path d="M183.089 177.586H180.924V179.752H183.089V177.586Z" fill="#092F62"/>
<path d="M174.427 177.586H172.261V179.752H174.427V177.586Z" fill="#092F62"/>
<path d="M165.764 177.586H163.599V179.752H165.764V177.586Z" fill="#092F62"/>
<path d="M139.777 177.586H137.611V179.752H139.777V177.586Z" fill="#092F62"/>
<path d="M122.452 177.586H120.287V179.752H122.452V177.586Z" fill="#092F62"/>
<path d="M113.79 177.586H111.624V179.752H113.79V177.586Z" fill="#092F62"/>
<path d="M87.8025 177.586H85.6369V179.752H87.8025V177.586Z" fill="#092F62"/>
<path d="M79.1401 177.586H76.9745V179.752H79.1401V177.586Z" fill="#092F62"/>
<path d="M70.4777 177.586H68.3121V179.752H70.4777V177.586Z" fill="#092F62"/>
<path d="M61.8153 177.586H59.6497V179.752H61.8153V177.586Z" fill="#092F62"/>
<path d="M53.1529 177.586H50.9873V179.752H53.1529V177.586Z" fill="#092F62"/>
<path d="M44.4904 177.586H42.3248V179.752H44.4904V177.586Z" fill="#092F62"/>
<path d="M35.828 177.586H33.6624V179.752H35.828V177.586Z" fill="#092F62"/>
<path d="M27.1656 177.586H25V179.752H27.1656V177.586Z" fill="#092F62"/>
<path d="M313.025 168.924H310.86V171.089H313.025V168.924Z" fill="#092F62"/>
<path d="M304.363 168.924H302.197V171.089H304.363V168.924Z" fill="#092F62"/>
<path d="M295.701 168.924H293.535V171.089H295.701V168.924Z" fill="#092F62"/>
<path d="M287.038 168.924H284.873V171.089H287.038V168.924Z" fill="#092F62"/>
<path d="M278.376 168.924H276.21V171.089H278.376V168.924Z" fill="#092F62"/>
<path d="M269.713 168.924H267.548V171.089H269.713V168.924Z" fill="#092F62"/>
<path d="M261.051 168.924H258.885V171.089H261.051V168.924Z" fill="#092F62"/>
<path d="M252.389 168.924H250.223V171.089H252.389V168.924Z" fill="#092F62"/>
<path d="M243.726 168.924H241.561V171.089H243.726V168.924Z" fill="#092F62"/>
<path d="M235.064 168.924H232.898V171.089H235.064V168.924Z" fill="#092F62"/>
<path d="M226.401 168.924H224.236V171.089H226.401V168.924Z" fill="#092F62"/>
<path d="M217.739 168.924H215.573V171.089H217.739V168.924Z" fill="#092F62"/>
<path d="M209.076 168.924H206.911V171.089H209.076V168.924Z" fill="#092F62"/>
<path d="M200.414 168.924H198.248V171.089H200.414V168.924Z" fill="#092F62"/>
<path d="M191.752 168.924H189.586V171.089H191.752V168.924Z" fill="#092F62"/>
<path d="M183.089 168.924H180.924V171.089H183.089V168.924Z" fill="#092F62"/>
<path d="M174.427 168.924H172.261V171.089H174.427V168.924Z" fill="#092F62"/>
<path d="M165.764 168.924H163.599V171.089H165.764V168.924Z" fill="#092F62"/>
<path d="M157.102 168.924H154.936V171.089H157.102V168.924Z" fill="#092F62"/>
<path d="M148.439 168.924H146.274V171.089H148.439V168.924Z" fill="#092F62"/>
<path d="M139.777 168.924H137.611V171.089H139.777V168.924Z" fill="#092F62"/>
<path d="M131.115 168.924H128.949V171.089H131.115V168.924Z" fill="#092F62"/>
<path d="M122.452 168.924H120.287V171.089H122.452V168.924Z" fill="#092F62"/>
<path d="M113.79 168.924H111.624V171.089H113.79V168.924Z" fill="#092F62"/>
<path d="M105.127 168.924H102.962V171.089H105.127V168.924Z" fill="#092F62"/>
<path d="M96.465 168.924H94.2994V171.089H96.465V168.924Z" fill="#092F62"/>
<path d="M87.8025 168.924H85.6369V171.089H87.8025V168.924Z" fill="#092F62"/>
<path d="M79.1401 168.924H76.9745V171.089H79.1401V168.924Z" fill="#092F62"/>
<path d="M70.4777 168.924H68.3121V171.089H70.4777V168.924Z" fill="#092F62"/>
<path d="M61.8153 168.924H59.6497V171.089H61.8153V168.924Z" fill="#092F62"/>
<path d="M53.1529 168.924H50.9873V171.089H53.1529V168.924Z" fill="#092F62"/>
<path d="M44.4904 168.924H42.3248V171.089H44.4904V168.924Z" fill="#092F62"/>
<path d="M35.828 168.924H33.6624V171.089H35.828V168.924Z" fill="#092F62"/>
<path d="M321.688 160.261H319.522V162.427H321.688V160.261Z" fill="#092F62"/>
<path d="M313.025 160.261H310.86V162.427H313.025V160.261Z" fill="#092F62"/>
<path d="M304.363 160.261H302.197V162.427H304.363V160.261Z" fill="#092F62"/>
<path d="M295.701 160.261H293.535V162.427H295.701V160.261Z" fill="#092F62"/>
<path d="M287.038 160.261H284.873V162.427H287.038V160.261Z" fill="#092F62"/>
<path d="M278.376 160.261H276.21V162.427H278.376V160.261Z" fill="#092F62"/>
<path d="M269.713 160.261H267.548V162.427H269.713V160.261Z" fill="#092F62"/>
<path d="M261.051 160.261H258.885V162.427H261.051V160.261Z" fill="#092F62"/>
<path d="M252.389 160.261H250.223V162.427H252.389V160.261Z" fill="#092F62"/>
<path d="M243.726 160.261H241.561V162.427H243.726V160.261Z" fill="#092F62"/>
<path d="M235.064 160.261H232.898V162.427H235.064V160.261Z" fill="#092F62"/>
<path d="M226.401 160.261H224.236V162.427H226.401V160.261Z" fill="#092F62"/>
<path d="M217.739 160.261H215.573V162.427H217.739V160.261Z" fill="#092F62"/>
<path d="M209.076 160.261H206.911V162.427H209.076V160.261Z" fill="#092F62"/>
<path d="M200.414 160.261H198.248V162.427H200.414V160.261Z" fill="#092F62"/>
<path d="M191.752 160.261H189.586V162.427H191.752V160.261Z" fill="#092F62"/>
<path d="M183.089 160.261H180.924V162.427H183.089V160.261Z" fill="#092F62"/>
<path d="M174.427 160.261H172.261V162.427H174.427V160.261Z" fill="#092F62"/>
<path d="M165.764 160.261H163.599V162.427H165.764V160.261Z" fill="#092F62"/>
<path d="M157.102 160.261H154.936V162.427H157.102V160.261Z" fill="#092F62"/>
<path d="M148.439 160.261H146.274V162.427H148.439V160.261Z" fill="#092F62"/>
<path d="M139.777 160.261H137.611V162.427H139.777V160.261Z" fill="#092F62"/>
<path d="M131.115 160.261H128.949V162.427H131.115V160.261Z" fill="#092F62"/>
<path d="M122.452 160.261H120.287V162.427H122.452V160.261Z" fill="#092F62"/>
<path d="M113.79 160.261H111.624V162.427H113.79V160.261Z" fill="#092F62"/>
<path d="M105.127 160.261H102.962V162.427H105.127V160.261Z" fill="#092F62"/>
<path d="M96.465 160.261H94.2994V162.427H96.465V160.261Z" fill="#092F62"/>
<path d="M87.8025 160.261H85.6369V162.427H87.8025V160.261Z" fill="#092F62"/>
<path d="M53.1529 160.261H50.9873V162.427H53.1529V160.261Z" fill="#092F62"/>
<path d="M44.4904 160.261H42.3248V162.427H44.4904V160.261Z" fill="#092F62"/>
<path d="M35.828 160.261H33.6624V162.427H35.828V160.261Z" fill="#092F62"/>
<path d="M304.363 151.599H302.197V153.764H304.363V151.599Z" fill="#092F62"/>
<path d="M295.701 151.599H293.535V153.764H295.701V151.599Z" fill="#092F62"/>
<path d="M287.038 151.599H284.873V153.764H287.038V151.599Z" fill="#092F62"/>
<path d="M278.376 151.599H276.21V153.764H278.376V151.599Z" fill="#092F62"/>
<path d="M269.713 151.599H267.548V153.764H269.713V151.599Z" fill="#092F62"/>
<path d="M261.051 151.599H258.885V153.764H261.051V151.599Z" fill="#092F62"/>
<path d="M252.389 151.599H250.223V153.764H252.389V151.599Z" fill="#092F62"/>
<path d="M243.726 151.599H241.561V153.764H243.726V151.599Z" fill="#092F62"/>
<path d="M235.064 151.599H232.898V153.764H235.064V151.599Z" fill="#092F62"/>
<path d="M226.401 151.599H224.236V153.764H226.401V151.599Z" fill="#092F62"/>
<path d="M217.739 151.599H215.573V153.764H217.739V151.599Z" fill="#092F62"/>
<path d="M209.076 151.599H206.911V153.764H209.076V151.599Z" fill="#092F62"/>
<path d="M200.414 151.599H198.248V153.764H200.414V151.599Z" fill="#092F62"/>
<path d="M191.752 151.599H189.586V153.764H191.752V151.599Z" fill="#092F62"/>
<path d="M183.089 151.599H180.924V153.764H183.089V151.599Z" fill="#092F62"/>
<path d="M174.427 151.599H172.261V153.764H174.427V151.599Z" fill="#092F62"/>
<path d="M165.764 151.599H163.599V153.764H165.764V151.599Z" fill="#092F62"/>
<path d="M157.102 151.599H154.936V153.764H157.102V151.599Z" fill="#092F62"/>
<path d="M148.439 151.599H146.274V153.764H148.439V151.599Z" fill="#092F62"/>
<path d="M139.777 151.599H137.611V153.764H139.777V151.599Z" fill="#092F62"/>
<path d="M131.115 151.599H128.949V153.764H131.115V151.599Z" fill="#092F62"/>
<path d="M122.452 151.599H120.287V153.764H122.452V151.599Z" fill="#092F62"/>
<path d="M113.79 151.599H111.624V153.764H113.79V151.599Z" fill="#092F62"/>
<path d="M105.127 151.599H102.962V153.764H105.127V151.599Z" fill="#092F62"/>
<path d="M96.465 151.599H94.2994V153.764H96.465V151.599Z" fill="#092F62"/>
<path d="M87.8025 151.599H85.6369V153.764H87.8025V151.599Z" fill="#092F62"/>
<path d="M304.363 142.936H302.197V145.102H304.363V142.936Z" fill="#092F62"/>
<path d="M295.701 142.936H293.535V145.102H295.701V142.936Z" fill="#092F62"/>
<path d="M287.038 142.936H284.873V145.102H287.038V142.936Z" fill="#092F62"/>
<path d="M278.376 142.936H276.21V145.102H278.376V142.936Z" fill="#092F62"/>
<path d="M269.713 142.936H267.548V145.102H269.713V142.936Z" fill="#092F62"/>
<path d="M261.051 142.936H258.885V145.102H261.051V142.936Z" fill="#092F62"/>
<path d="M252.389 142.936H250.223V145.102H252.389V142.936Z" fill="#092F62"/>
<path d="M243.726 142.936H241.561V145.102H243.726V142.936Z" fill="#092F62"/>
<path d="M235.064 142.936H232.898V145.102H235.064V142.936Z" fill="#092F62"/>
<path d="M226.401 142.936H224.236V145.102H226.401V142.936Z" fill="#092F62"/>
<path d="M217.739 142.936H215.573V145.102H217.739V142.936Z" fill="#092F62"/>
<path d="M209.076 142.936H206.911V145.102H209.076V142.936Z" fill="#092F62"/>
<path d="M200.414 142.936H198.248V145.102H200.414V142.936Z" fill="#092F62"/>
<path d="M191.752 142.936H189.586V145.102H191.752V142.936Z" fill="#092F62"/>
<path d="M183.089 142.936H180.924V145.102H183.089V142.936Z" fill="#092F62"/>
<path d="M174.427 142.936H172.261V145.102H174.427V142.936Z" fill="#092F62"/>
<path d="M165.764 142.936H163.599V145.102H165.764V142.936Z" fill="#092F62"/>
<path d="M157.102 142.936H154.936V145.102H157.102V142.936Z" fill="#092F62"/>
<path d="M148.439 142.936H146.274V145.102H148.439V142.936Z" fill="#092F62"/>
<path d="M139.777 142.936H137.611V145.102H139.777V142.936Z" fill="#092F62"/>
<path d="M131.115 142.936H128.949V145.102H131.115V142.936Z" fill="#092F62"/>
<path d="M122.452 142.936H120.287V145.102H122.452V142.936Z" fill="#092F62"/>
<path d="M113.79 142.936H111.624V145.102H113.79V142.936Z" fill="#092F62"/>
<path d="M105.127 142.936H102.962V145.102H105.127V142.936Z" fill="#092F62"/>
<path d="M96.465 142.936H94.2994V145.102H96.465V142.936Z" fill="#092F62"/>
<path d="M87.8025 142.936H85.6369V145.102H87.8025V142.936Z" fill="#092F62"/>
<path d="M313.025 134.274H310.86V136.439H313.025V134.274Z" fill="#092F62"/>
<path d="M304.363 134.274H302.197V136.439H304.363V134.274Z" fill="#092F62"/>
<path d="M295.701 134.274H293.535V136.439H295.701V134.274Z" fill="#092F62"/>
<path d="M287.038 134.274H284.873V136.439H287.038V134.274Z" fill="#092F62"/>
<path d="M278.376 134.274H276.21V136.439H278.376V134.274Z" fill="#092F62"/>
<path d="M269.713 134.274H267.548V136.439H269.713V134.274Z" fill="#092F62"/>
<path d="M261.051 134.274H258.885V136.439H261.051V134.274Z" fill="#092F62"/>
<path d="M252.389 134.274H250.223V136.439H252.389V134.274Z" fill="#092F62"/>
<path d="M243.726 134.274H241.561V136.439H243.726V134.274Z" fill="#092F62"/>
<path d="M235.064 134.274H232.898V136.439H235.064V134.274Z" fill="#092F62"/>
<path d="M226.401 134.274H224.236V136.439H226.401V134.274Z" fill="#092F62"/>
<path d="M217.739 134.274H215.573V136.439H217.739V134.274Z" fill="#092F62"/>
<path d="M209.076 134.274H206.911V136.439H209.076V134.274Z" fill="#092F62"/>
<path d="M200.414 134.274H198.248V136.439H200.414V134.274Z" fill="#092F62"/>
<path d="M191.752 134.274H189.586V136.439H191.752V134.274Z" fill="#092F62"/>
<path d="M183.089 134.274H180.924V136.439H183.089V134.274Z" fill="#092F62"/>
<path d="M174.427 134.274H172.261V136.439H174.427V134.274Z" fill="#092F62"/>
<path d="M165.764 134.274H163.599V136.439H165.764V134.274Z" fill="#092F62"/>
<path d="M157.102 134.274H154.936V136.439H157.102V134.274Z" fill="#092F62"/>
<path d="M148.439 134.274H146.274V136.439H148.439V134.274Z" fill="#092F62"/>
<path d="M139.777 134.274H137.611V136.439H139.777V134.274Z" fill="#092F62"/>
<path d="M131.115 134.274H128.949V136.439H131.115V134.274Z" fill="#092F62"/>
<path d="M122.452 134.274H120.287V136.439H122.452V134.274Z" fill="#092F62"/>
<path d="M113.79 134.274H111.624V136.439H113.79V134.274Z" fill="#092F62"/>
<path d="M105.127 134.274H102.962V136.439H105.127V134.274Z" fill="#092F62"/>
<path d="M79.1401 134.274H76.9745V136.439H79.1401V134.274Z" fill="#092F62"/>
<path d="M347.675 125.611H345.51V127.777H347.675V125.611Z" fill="#092F62"/>
<path d="M339.013 125.611H336.847V127.777H339.013V125.611Z" fill="#092F62"/>
<path d="M330.35 125.611H328.185V127.777H330.35V125.611Z" fill="#092F62"/>
<path d="M321.688 125.611H319.522V127.777H321.688V125.611Z" fill="#092F62"/>
<path d="M313.025 125.611H310.86V127.777H313.025V125.611Z" fill="#092F62"/>
<path d="M304.363 125.611H302.197V127.777H304.363V125.611Z" fill="#092F62"/>
<path d="M295.701 125.611H293.535V127.777H295.701V125.611Z" fill="#092F62"/>
<path d="M287.038 125.611H284.873V127.777H287.038V125.611Z" fill="#092F62"/>
<path d="M278.376 125.611H276.21V127.777H278.376V125.611Z" fill="#092F62"/>
<path d="M269.713 125.611H267.548V127.777H269.713V125.611Z" fill="#092F62"/>
<path d="M261.051 125.611H258.885V127.777H261.051V125.611Z" fill="#092F62"/>
<path d="M252.389 125.611H250.223V127.777H252.389V125.611Z" fill="#092F62"/>
<path d="M243.726 125.611H241.561V127.777H243.726V125.611Z" fill="#092F62"/>
<path d="M235.064 125.611H232.898V127.777H235.064V125.611Z" fill="#092F62"/>
<path d="M226.401 125.611H224.236V127.777H226.401V125.611Z" fill="#092F62"/>
<path d="M217.739 125.611H215.573V127.777H217.739V125.611Z" fill="#092F62"/>
<path d="M209.076 125.611H206.911V127.777H209.076V125.611Z" fill="#092F62"/>
<path d="M200.414 125.611H198.248V127.777H200.414V125.611Z" fill="#092F62"/>
<path d="M191.752 125.611H189.586V127.777H191.752V125.611Z" fill="#092F62"/>
<path d="M183.089 125.611H180.924V127.777H183.089V125.611Z" fill="#092F62"/>
<path d="M174.427 125.611H172.261V127.777H174.427V125.611Z" fill="#092F62"/>
<path d="M165.764 125.611H163.599V127.777H165.764V125.611Z" fill="#092F62"/>
<path d="M157.102 125.611H154.936V127.777H157.102V125.611Z" fill="#092F62"/>
<path d="M148.439 125.611H146.274V127.777H148.439V125.611Z" fill="#092F62"/>
<path d="M139.777 125.611H137.611V127.777H139.777V125.611Z" fill="#092F62"/>
<path d="M131.115 125.611H128.949V127.777H131.115V125.611Z" fill="#092F62"/>
<path d="M122.452 125.611H120.287V127.777H122.452V125.611Z" fill="#092F62"/>
<path d="M105.127 125.611H102.962V127.777H105.127V125.611Z" fill="#092F62"/>
<path d="M365 116.949H362.834V119.115H365V116.949Z" fill="#092F62"/>
<path d="M356.338 116.949H354.172V119.115H356.338V116.949Z" fill="#092F62"/>
<path d="M347.675 116.949H345.51V119.115H347.675V116.949Z" fill="#092F62"/>
<path d="M339.013 116.949H336.847V119.115H339.013V116.949Z" fill="#092F62"/>
<path d="M330.35 116.949H328.185V119.115H330.35V116.949Z" fill="#092F62"/>
<path d="M321.688 116.949H319.522V119.115H321.688V116.949Z" fill="#092F62"/>
<path d="M313.025 116.949H310.86V119.115H313.025V116.949Z" fill="#092F62"/>
<path d="M304.363 116.949H302.197V119.115H304.363V116.949Z" fill="#092F62"/>
<path d="M295.701 116.949H293.535V119.115H295.701V116.949Z" fill="#092F62"/>
<path d="M287.038 116.949H284.873V119.115H287.038V116.949Z" fill="#092F62"/>
<path d="M278.376 116.949H276.21V119.115H278.376V116.949Z" fill="#092F62"/>
<path d="M269.713 116.949H267.548V119.115H269.713V116.949Z" fill="#092F62"/>
<path d="M261.051 116.949H258.885V119.115H261.051V116.949Z" fill="#092F62"/>
<path d="M252.389 116.949H250.223V119.115H252.389V116.949Z" fill="#092F62"/>
<path d="M243.726 116.949H241.561V119.115H243.726V116.949Z" fill="#092F62"/>
<path d="M235.064 116.949H232.898V119.115H235.064V116.949Z" fill="#092F62"/>
<path d="M226.401 116.949H224.236V119.115H226.401V116.949Z" fill="#092F62"/>
<path d="M217.739 116.949H215.573V119.115H217.739V116.949Z" fill="#092F62"/>
<path d="M209.076 116.949H206.911V119.115H209.076V116.949Z" fill="#092F62"/>
<path d="M200.414 116.949H198.248V119.115H200.414V116.949Z" fill="#092F62"/>
<path d="M157.102 116.949H154.936V119.115H157.102V116.949Z" fill="#092F62"/>
<path d="M148.439 116.949H146.274V119.115H148.439V116.949Z" fill="#092F62"/>
<path d="M105.127 116.949H102.962V119.115H105.127V116.949Z" fill="#092F62"/>
<path d="M96.465 116.949H94.2994V119.115H96.465V116.949Z" fill="#092F62"/>
<path d="M87.8025 116.949H85.6369V119.115H87.8025V116.949Z" fill="#092F62"/>
<path d="M347.675 108.287H345.51V110.452H347.675V108.287Z" fill="#092F62"/>
<path d="M339.013 108.287H336.847V110.452H339.013V108.287Z" fill="#092F62"/>
<path d="M330.35 108.287H328.185V110.452H330.35V108.287Z" fill="#092F62"/>
<path d="M321.688 108.287H319.522V110.452H321.688V108.287Z" fill="#092F62"/>
<path d="M313.025 108.287H310.86V110.452H313.025V108.287Z" fill="#092F62"/>
<path d="M304.363 108.287H302.197V110.452H304.363V108.287Z" fill="#092F62"/>
<path d="M295.701 108.287H293.535V110.452H295.701V108.287Z" fill="#092F62"/>
<path d="M287.038 108.287H284.873V110.452H287.038V108.287Z" fill="#092F62"/>
<path d="M278.376 108.287H276.21V110.452H278.376V108.287Z" fill="#092F62"/>
<path d="M269.713 108.287H267.548V110.452H269.713V108.287Z" fill="#092F62"/>
<path d="M261.051 108.287H258.885V110.452H261.051V108.287Z" fill="#092F62"/>
<path d="M252.389 108.287H250.223V110.452H252.389V108.287Z" fill="#092F62"/>
<path d="M243.726 108.287H241.561V110.452H243.726V108.287Z" fill="#092F62"/>
<path d="M235.064 108.287H232.898V110.452H235.064V108.287Z" fill="#092F62"/>
<path d="M226.401 108.287H224.236V110.452H226.401V108.287Z" fill="#092F62"/>
<path d="M217.739 108.287H215.573V110.452H217.739V108.287Z" fill="#092F62"/>
<path d="M209.076 108.287H206.911V110.452H209.076V108.287Z" fill="#092F62"/>
<path d="M200.414 108.287H198.248V110.452H200.414V108.287Z" fill="#092F62"/>
<path d="M174.427 108.287H172.261V110.452H174.427V108.287Z" fill="#092F62"/>
<path d="M165.764 108.287H163.599V110.452H165.764V108.287Z" fill="#092F62"/>
<path d="M148.439 108.287H146.274V110.452H148.439V108.287Z" fill="#092F62"/>
<path d="M105.127 108.287H102.962V110.452H105.127V108.287Z" fill="#092F62"/>
<path d="M96.465 108.287H94.2994V110.452H96.465V108.287Z" fill="#092F62"/>
<path d="M339.013 99.6242H336.847V101.79H339.013V99.6242Z" fill="#092F62"/>
<path d="M330.35 99.6242H328.185V101.79H330.35V99.6242Z" fill="#092F62"/>
<path d="M321.688 99.6242H319.522V101.79H321.688V99.6242Z" fill="#092F62"/>
<path d="M313.025 99.6242H310.86V101.79H313.025V99.6242Z" fill="#092F62"/>
<path d="M304.363 99.6242H302.197V101.79H304.363V99.6242Z" fill="#092F62"/>
<path d="M295.701 99.6242H293.535V101.79H295.701V99.6242Z" fill="#092F62"/>
<path d="M287.038 99.6242H284.873V101.79H287.038V99.6242Z" fill="#092F62"/>
<path d="M278.376 99.6242H276.21V101.79H278.376V99.6242Z" fill="#092F62"/>
<path d="M269.713 99.6242H267.548V101.79H269.713V99.6242Z" fill="#092F62"/>
<path d="M261.051 99.6242H258.885V101.79H261.051V99.6242Z" fill="#092F62"/>
<path d="M252.389 99.6242H250.223V101.79H252.389V99.6242Z" fill="#092F62"/>
<path d="M243.726 99.6242H241.561V101.79H243.726V99.6242Z" fill="#092F62"/>
<path d="M235.064 99.6242H232.898V101.79H235.064V99.6242Z" fill="#092F62"/>
<path d="M226.401 99.6242H224.236V101.79H226.401V99.6242Z" fill="#092F62"/>
<path d="M217.739 99.6242H215.573V101.79H217.739V99.6242Z" fill="#092F62"/>
<path d="M209.076 99.6242H206.911V101.79H209.076V99.6242Z" fill="#092F62"/>
<path d="M174.427 99.6242H172.261V101.79H174.427V99.6242Z" fill="#092F62"/>
<path d="M165.764 99.6242H163.599V101.79H165.764V99.6242Z" fill="#092F62"/>
<path d="M105.127 99.6242H102.962V101.79H105.127V99.6242Z" fill="#092F62"/>
<path d="M79.1401 99.6242H76.9745V101.79H79.1401V99.6242Z" fill="#092F62"/>
<path d="M70.4777 99.6242H68.3121V101.79H70.4777V99.6242Z" fill="#092F62"/>
<path d="M330.35 90.9618H328.185V93.1274H330.35V90.9618Z" fill="#092F62"/>
<path d="M321.688 90.9618H319.522V93.1274H321.688V90.9618Z" fill="#092F62"/>
<path d="M313.025 90.9618H310.86V93.1274H313.025V90.9618Z" fill="#092F62"/>
<path d="M304.363 90.9618H302.197V93.1274H304.363V90.9618Z" fill="#092F62"/>
<path d="M295.701 90.9618H293.535V93.1274H295.701V90.9618Z" fill="#092F62"/>
<path d="M287.038 90.9618H284.873V93.1274H287.038V90.9618Z" fill="#092F62"/>
<path d="M278.376 90.9618H276.21V93.1274H278.376V90.9618Z" fill="#092F62"/>
<path d="M269.713 90.9618H267.548V93.1274H269.713V90.9618Z" fill="#092F62"/>
<path d="M261.051 90.9618H258.885V93.1274H261.051V90.9618Z" fill="#092F62"/>
<path d="M252.389 90.9618H250.223V93.1274H252.389V90.9618Z" fill="#092F62"/>
<path d="M243.726 90.9618H241.561V93.1274H243.726V90.9618Z" fill="#092F62"/>
<path d="M235.064 90.9618H232.898V93.1274H235.064V90.9618Z" fill="#092F62"/>
<path d="M183.089 90.9618H180.924V93.1274H183.089V90.9618Z" fill="#092F62"/>
<path d="M174.427 90.9618H172.261V93.1274H174.427V90.9618Z" fill="#092F62"/>
<path d="M165.764 90.9618H163.599V93.1274H165.764V90.9618Z" fill="#092F62"/>
<path d="M148.439 90.9618H146.274V93.1274H148.439V90.9618Z" fill="#092F62"/>
<path d="M79.1401 90.9618H76.9745V93.1274H79.1401V90.9618Z" fill="#092F62"/>
<path d="M330.35 82.2994H328.185V84.465H330.35V82.2994Z" fill="#092F62"/>
<path d="M321.688 82.2994H319.522V84.465H321.688V82.2994Z" fill="#092F62"/>
<path d="M313.025 82.2994H310.86V84.465H313.025V82.2994Z" fill="#092F62"/>
<path d="M304.363 82.2994H302.197V84.465H304.363V82.2994Z" fill="#092F62"/>
<path d="M295.701 82.2994H293.535V84.465H295.701V82.2994Z" fill="#092F62"/>
<path d="M287.038 82.2994H284.873V84.465H287.038V82.2994Z" fill="#092F62"/>
<path d="M278.376 82.2994H276.21V84.465H278.376V82.2994Z" fill="#092F62"/>
<path d="M269.713 82.2994H267.548V84.465H269.713V82.2994Z" fill="#092F62"/>
<path d="M261.051 82.2994H258.885V84.465H261.051V82.2994Z" fill="#092F62"/>
<path d="M252.389 82.2994H250.223V84.465H252.389V82.2994Z" fill="#092F62"/>
<path d="M243.726 82.2994H241.561V84.465H243.726V82.2994Z" fill="#092F62"/>
<path d="M235.064 82.2994H232.898V84.465H235.064V82.2994Z" fill="#092F62"/>
<path d="M226.401 82.2994H224.236V84.465H226.401V82.2994Z" fill="#092F62"/>
<path d="M217.739 82.2994H215.573V84.465H217.739V82.2994Z" fill="#092F62"/>
<path d="M209.076 82.2994H206.911V84.465H209.076V82.2994Z" fill="#092F62"/>
<path d="M200.414 82.2994H198.248V84.465H200.414V82.2994Z" fill="#092F62"/>
<path d="M183.089 82.2994H180.924V84.465H183.089V82.2994Z" fill="#092F62"/>
<path d="M174.427 82.2994H172.261V84.465H174.427V82.2994Z" fill="#092F62"/>
<path d="M165.764 82.2994H163.599V84.465H165.764V82.2994Z" fill="#092F62"/>
<path d="M157.102 82.2994H154.936V84.465H157.102V82.2994Z" fill="#092F62"/>
<path d="M148.439 82.2994H146.274V84.465H148.439V82.2994Z" fill="#092F62"/>
<path d="M330.35 73.6369H328.185V75.8025H330.35V73.6369Z" fill="#092F62"/>
<path d="M321.688 73.6369H319.522V75.8025H321.688V73.6369Z" fill="#092F62"/>
<path d="M313.025 73.6369H310.86V75.8025H313.025V73.6369Z" fill="#092F62"/>
<path d="M304.363 73.6369H302.197V75.8025H304.363V73.6369Z" fill="#092F62"/>
<path d="M295.701 73.6369H293.535V75.8025H295.701V73.6369Z" fill="#092F62"/>
<path d="M287.038 73.6369H284.873V75.8025H287.038V73.6369Z" fill="#092F62"/>
<path d="M278.376 73.6369H276.21V75.8025H278.376V73.6369Z" fill="#092F62"/>
<path d="M269.713 73.6369H267.548V75.8025H269.713V73.6369Z" fill="#092F62"/>
<path d="M261.051 73.6369H258.885V75.8025H261.051V73.6369Z" fill="#092F62"/>
<path d="M252.389 73.6369H250.223V75.8025H252.389V73.6369Z" fill="#092F62"/>
<path d="M243.726 73.6369H241.561V75.8025H243.726V73.6369Z" fill="#092F62"/>
<path d="M235.064 73.6369H232.898V75.8025H235.064V73.6369Z" fill="#092F62"/>
<path d="M226.401 73.6369H224.236V75.8025H226.401V73.6369Z" fill="#092F62"/>
<path d="M217.739 73.6369H215.573V75.8025H217.739V73.6369Z" fill="#092F62"/>
<path d="M209.076 73.6369H206.911V75.8025H209.076V73.6369Z" fill="#092F62"/>
<path d="M200.414 73.6369H198.248V75.8025H200.414V73.6369Z" fill="#092F62"/>
<path d="M183.089 73.6369H180.924V75.8025H183.089V73.6369Z" fill="#092F62"/>
<path d="M174.427 73.6369H172.261V75.8025H174.427V73.6369Z" fill="#092F62"/>
<path d="M165.764 73.6369H163.599V75.8025H165.764V73.6369Z" fill="#092F62"/>
<path d="M157.102 73.6369H154.936V75.8025H157.102V73.6369Z" fill="#092F62"/>
<path d="M148.439 73.6369H146.274V75.8025H148.439V73.6369Z" fill="#092F62"/>
<path d="M321.688 64.9745H319.522V67.1401H321.688V64.9745Z" fill="#092F62"/>
<path d="M313.025 64.9745H310.86V67.1401H313.025V64.9745Z" fill="#092F62"/>
<path d="M304.363 64.9745H302.197V67.1401H304.363V64.9745Z" fill="#092F62"/>
<path d="M295.701 64.9745H293.535V67.1401H295.701V64.9745Z" fill="#092F62"/>
<path d="M287.038 64.9745H284.873V67.1401H287.038V64.9745Z" fill="#092F62"/>
<path d="M278.376 64.9745H276.21V67.1401H278.376V64.9745Z" fill="#092F62"/>
<path d="M269.713 64.9745H267.548V67.1401H269.713V64.9745Z" fill="#092F62"/>
<path d="M261.051 64.9745H258.885V67.1401H261.051V64.9745Z" fill="#092F62"/>
<path d="M252.389 64.9745H250.223V67.1401H252.389V64.9745Z" fill="#092F62"/>
<path d="M243.726 64.9745H241.561V67.1401H243.726V64.9745Z" fill="#092F62"/>
<path d="M235.064 64.9745H232.898V67.1401H235.064V64.9745Z" fill="#092F62"/>
<path d="M226.401 64.9745H224.236V67.1401H226.401V64.9745Z" fill="#092F62"/>
<path d="M217.739 64.9745H215.573V67.1401H217.739V64.9745Z" fill="#092F62"/>
<path d="M209.076 64.9745H206.911V67.1401H209.076V64.9745Z" fill="#092F62"/>
<path d="M191.752 64.9745H189.586V67.1401H191.752V64.9745Z" fill="#092F62"/>
<path d="M183.089 64.9745H180.924V67.1401H183.089V64.9745Z" fill="#092F62"/>
<path d="M174.427 64.9745H172.261V67.1401H174.427V64.9745Z" fill="#092F62"/>
<path d="M165.764 64.9745H163.599V67.1401H165.764V64.9745Z" fill="#092F62"/>
<path d="M157.102 64.9745H154.936V67.1401H157.102V64.9745Z" fill="#092F62"/>
<path d="M321.688 56.3121H319.522V58.4777H321.688V56.3121Z" fill="#092F62"/>
<path d="M313.025 56.3121H310.86V58.4777H313.025V56.3121Z" fill="#092F62"/>
<path d="M304.363 56.3121H302.197V58.4777H304.363V56.3121Z" fill="#092F62"/>
<path d="M295.701 56.3121H293.535V58.4777H295.701V56.3121Z" fill="#092F62"/>
<path d="M287.038 56.3121H284.873V58.4777H287.038V56.3121Z" fill="#092F62"/>
<path d="M278.376 56.3121H276.21V58.4777H278.376V56.3121Z" fill="#092F62"/>
<path d="M269.713 56.3121H267.548V58.4777H269.713V56.3121Z" fill="#092F62"/>
<path d="M261.051 56.3121H258.885V58.4777H261.051V56.3121Z" fill="#092F62"/>
<path d="M235.064 56.3121H232.898V58.4777H235.064V56.3121Z" fill="#092F62"/>
<path d="M226.401 56.3121H224.236V58.4777H226.401V56.3121Z" fill="#092F62"/>
<path d="M217.739 56.3121H215.573V58.4777H217.739V56.3121Z" fill="#092F62"/>
<path d="M200.414 56.3121H198.248V58.4777H200.414V56.3121Z" fill="#092F62"/>
<path d="M191.752 56.3121H189.586V58.4777H191.752V56.3121Z" fill="#092F62"/>
<path d="M183.089 56.3121H180.924V58.4777H183.089V56.3121Z" fill="#092F62"/>
<path d="M174.427 56.3121H172.261V58.4777H174.427V56.3121Z" fill="#092F62"/>
<path d="M313.025 47.6497H310.86V49.8153H313.025V47.6497Z" fill="#092F62"/>
<path d="M304.363 47.6497H302.197V49.8153H304.363V47.6497Z" fill="#092F62"/>
<path d="M295.701 47.6497H293.535V49.8153H295.701V47.6497Z" fill="#092F62"/>
<path d="M287.038 47.6497H284.873V49.8153H287.038V47.6497Z" fill="#092F62"/>
<path d="M278.376 47.6497H276.21V49.8153H278.376V47.6497Z" fill="#092F62"/>
<path d="M269.713 47.6497H267.548V49.8153H269.713V47.6497Z" fill="#092F62"/>
<path d="M252.389 47.6497H250.223V49.8153H252.389V47.6497Z" fill="#092F62"/>
<path d="M243.726 47.6497H241.561V49.8153H243.726V47.6497Z" fill="#092F62"/>
<path d="M235.064 47.6497H232.898V49.8153H235.064V47.6497Z" fill="#092F62"/>
<path d="M226.401 47.6497H224.236V49.8153H226.401V47.6497Z" fill="#092F62"/>
<path d="M217.739 47.6497H215.573V49.8153H217.739V47.6497Z" fill="#092F62"/>
<path d="M209.076 47.6497H206.911V49.8153H209.076V47.6497Z" fill="#092F62"/>
<path d="M200.414 47.6497H198.248V49.8153H200.414V47.6497Z" fill="#092F62"/>
<path d="M191.752 47.6497H189.586V49.8153H191.752V47.6497Z" fill="#092F62"/>
<path d="M183.089 47.6497H180.924V49.8153H183.089V47.6497Z" fill="#092F62"/>
<path d="M313.025 38.9873H310.86V41.1529H313.025V38.9873Z" fill="#092F62"/>
<path d="M304.363 38.9873H302.197V41.1529H304.363V38.9873Z" fill="#092F62"/>
<path d="M295.701 38.9873H293.535V41.1529H295.701V38.9873Z" fill="#092F62"/>
<path d="M287.038 38.9873H284.873V41.1529H287.038V38.9873Z" fill="#092F62"/>
<path d="M252.389 38.9873H250.223V41.1529H252.389V38.9873Z" fill="#092F62"/>
<path d="M243.726 38.9873H241.561V41.1529H243.726V38.9873Z" fill="#092F62"/>
<path d="M235.064 38.9873H232.898V41.1529H235.064V38.9873Z" fill="#092F62"/>
<path d="M226.401 38.9873H224.236V41.1529H226.401V38.9873Z" fill="#092F62"/>
<path d="M217.739 38.9873H215.573V41.1529H217.739V38.9873Z" fill="#092F62"/>
<path d="M209.076 38.9873H206.911V41.1529H209.076V38.9873Z" fill="#092F62"/>
<path d="M200.414 38.9873H198.248V41.1529H200.414V38.9873Z" fill="#092F62"/>
<path d="M191.752 38.9873H189.586V41.1529H191.752V38.9873Z" fill="#092F62"/>
<path d="M313.025 30.3248H310.86V32.4904H313.025V30.3248Z" fill="#092F62"/>
<path d="M304.363 30.3248H302.197V32.4904H304.363V30.3248Z" fill="#092F62"/>
<path d="M295.701 30.3248H293.535V32.4904H295.701V30.3248Z" fill="#092F62"/>
<path d="M287.038 30.3248H284.873V32.4904H287.038V30.3248Z" fill="#092F62"/>
<path d="M226.401 30.3248H224.236V32.4904H226.401V30.3248Z" fill="#092F62"/>
<path d="M217.739 30.3248H215.573V32.4904H217.739V30.3248Z" fill="#092F62"/>
<path d="M209.076 30.3248H206.911V32.4904H209.076V30.3248Z" fill="#092F62"/>
<path d="M200.414 30.3248H198.248V32.4904H200.414V30.3248Z" fill="#092F62"/>
<path d="M313.025 21.6624H310.86V23.828H313.025V21.6624Z" fill="#092F62"/>
<path d="M304.363 21.6624H302.197V23.828H304.363V21.6624Z" fill="#092F62"/>
<path d="M96.465 21.6624H94.2994V23.828H96.465V21.6624Z" fill="#092F62"/>
<path d="M87.8025 21.6624H85.6369V23.828H87.8025V21.6624Z" fill="#092F62"/>
<path d="M79.1401 21.6624H76.9745V23.828H79.1401V21.6624Z" fill="#092F62"/>
<path d="M79.1401 13H76.9745V15.1656H79.1401V13Z" fill="#092F62"/>
</g>
</svg>
