<svg width="90" height="90" viewBox="0 0 90 90" fill="none" xmlns="http://www.w3.org/2000/svg">
<g clip-path="url(#clip0_3498_18745)">
<path d="M45 90C69.8528 90 90 69.8528 90 45C90 20.1472 69.8528 0 45 0C20.1472 0 0 20.1472 0 45C0 69.8528 20.1472 90 45 90Z" fill="#F5F6F9"/>
<path d="M79.6967 45C79.6967 54.7736 71.7736 62.6967 62 62.6967C52.2264 62.6967 44.3033 54.7736 44.3033 45C44.3033 35.2264 52.2264 27.3033 62 27.3033C71.7736 27.3033 79.6967 35.2264 79.6967 45Z" fill="#092F62" stroke="#F5F6F9" stroke-width="1.60658" stroke-miterlimit="10"/>
<path d="M63.1857 45C63.1857 55.0437 55.0437 63.1857 45 63.1857C34.9563 63.1857 26.8143 55.0437 26.8143 45C26.8143 34.9563 34.9563 26.8143 45 26.8143C55.0437 26.8143 63.1857 34.9563 63.1857 45Z" fill="#092F62" stroke="#F5F6F9" stroke-width="1.62857" stroke-miterlimit="10"/>
<path d="M47.175 45C47.175 55.3139 38.8139 63.675 28.5 63.675C18.1861 63.675 9.825 55.3139 9.825 45C9.825 34.6861 18.1861 26.325 28.5 26.325C38.8139 26.325 47.175 34.6861 47.175 45Z" fill="#092F62" stroke="#F5F6F9" stroke-width="1.65" stroke-miterlimit="10"/>
<path d="M28.8088 34.5692C26.7303 34.5692 25.1012 35.1591 23.8934 36.3388C22.6575 37.5185 22.0676 39.1476 22.0676 41.2262H25.2697C25.2697 40.0465 25.4944 39.1195 25.9719 38.4735C26.5056 37.687 27.3763 37.3219 28.6122 37.3219C29.5672 37.3219 30.3256 37.5747 30.8593 38.1084C31.3649 38.642 31.6458 39.3723 31.6458 40.2992C31.6458 41.0015 31.393 41.6756 30.8874 42.2935L30.5503 42.6868C28.7246 44.3159 27.6291 45.4956 27.264 46.254C26.8707 47.0124 26.7022 47.9393 26.7022 49.0067V49.3999H29.9324V49.0067C29.9324 48.3325 30.0728 47.7427 30.3537 47.1809C30.6065 46.6753 30.9717 46.1978 31.4772 45.7765C32.8255 44.5968 33.6401 43.8384 33.8928 43.5575C34.567 42.6587 34.9321 41.507 34.9321 40.1026C34.9321 38.3892 34.3703 37.041 33.2468 36.0579C32.1233 35.0467 30.6346 34.5692 28.8088 34.5692ZM28.3033 50.3278C27.7305 50.3123 27.175 50.5244 26.7584 50.9176C26.5527 51.1114 26.391 51.3471 26.2844 51.6088C26.1778 51.8705 26.1287 52.1521 26.1404 52.4344C26.1404 53.0523 26.3371 53.5579 26.7584 53.9512C27.1719 54.3525 27.727 54.5746 28.3033 54.5691C28.9212 54.5691 29.4268 54.3725 29.8481 53.9793C30.0582 53.7815 30.2243 53.5418 30.3356 53.2756C30.4469 53.0094 30.5009 52.7228 30.4941 52.4344C30.4995 52.1529 30.4475 51.8732 30.3413 51.6124C30.235 51.3516 30.0768 51.1152 29.8762 50.9176C29.4487 50.5237 28.8844 50.312 28.3033 50.3278Z" fill="white"/>
</g>
<defs>
<clipPath id="clip0_3498_18745">
<rect width="90" height="90" fill="white"/>
</clipPath>
</defs>
</svg>
