<svg width="91" height="90" viewBox="0 0 91 90" fill="none" xmlns="http://www.w3.org/2000/svg">
<g clip-path="url(#clip0_3487_8951)">
<path d="M45.6665 90C70.5193 90 90.6665 69.8528 90.6665 45C90.6665 20.1472 70.5193 0 45.6665 0C20.8137 0 0.666504 20.1472 0.666504 45C0.666504 69.8528 20.8137 90 45.6665 90Z" fill="#092F62"/>
<g clip-path="url(#clip1_3487_8951)">
<path fill-rule="evenodd" clip-rule="evenodd" d="M32.935 47.1563C33.9962 54.3169 40.6623 59.2625 47.823 58.2115C54.9837 57.1503 59.9292 50.4842 58.8783 43.3235C57.8171 36.1628 51.151 31.2173 43.9903 32.2785C36.8296 33.3294 31.8841 39.9956 32.935 47.1666V47.1563Z" stroke="white" stroke-width="2.06063" stroke-miterlimit="10"/>
<path d="M51.4292 51.1952L45.9067 45.3739V40.0781" stroke="white" stroke-width="2.06063" stroke-linecap="round" stroke-linejoin="round"/>
<path fill-rule="evenodd" clip-rule="evenodd" d="M70.8712 48.0218V42.4478C70.8712 42.0769 70.6342 41.7575 70.2736 41.6545L65.0396 40.1399C64.7717 40.0678 64.576 39.8514 64.4936 39.5939C64.1226 38.3678 63.6281 37.1932 63.0305 36.0599C62.8966 35.8126 62.8966 35.5241 63.0305 35.2871L65.6681 30.5168C65.8433 30.1974 65.7918 29.7956 65.5342 29.538L61.5984 25.6022C61.3408 25.3446 60.939 25.2828 60.6196 25.4682L55.8492 28.0956C55.6122 28.2295 55.3134 28.2295 55.0765 28.0956C53.9534 27.4877 52.7686 27.0034 51.5425 26.6325C51.2746 26.5501 51.0686 26.3543 50.9964 26.0864L49.4819 20.8524C49.3788 20.5021 49.0594 20.2549 48.6885 20.2549H45.9067H43.1248C42.7539 20.2549 42.4345 20.4918 42.3315 20.8524L40.8169 26.0864C40.7448 26.3543 40.5387 26.5501 40.2708 26.6325C39.0448 27.0034 37.8702 27.4877 36.7369 28.0956C36.4896 28.2295 36.2011 28.2295 35.9641 28.0956L31.1938 25.4682C30.8744 25.2931 30.4726 25.3446 30.215 25.6022L26.2792 29.538C26.0216 29.7956 25.9598 30.1974 26.1452 30.5168L28.7828 35.2871C28.9168 35.5241 28.9168 35.8229 28.7828 36.0599C28.1749 37.1829 27.6907 38.3678 27.3198 39.5939C27.2374 39.8617 27.0416 40.0678 26.7737 40.1399L21.5397 41.6545C21.1894 41.7575 20.9421 42.0769 20.9421 42.4478V48.0218C20.9421 48.3928 21.1791 48.7122 21.5397 48.8152L26.7737 50.3194C27.0416 50.3916 27.2374 50.5976 27.3198 50.8655C27.6907 52.0916 28.1749 53.2661 28.7828 54.3995C28.9168 54.6468 28.9168 54.9353 28.7828 55.1722L26.1452 59.9426C25.9701 60.262 26.0216 60.6638 26.2792 60.9214L30.215 64.8572C30.4726 65.1148 30.8744 65.1766 31.1938 64.9911L35.9641 62.3535C36.2011 62.2196 36.4999 62.2196 36.7369 62.3535C37.8599 62.9614 39.0448 63.4457 40.2605 63.8166C40.5284 63.899 40.7345 64.0948 40.8066 64.3626L42.3212 69.5966C42.4242 69.9469 42.7436 70.1942 43.1145 70.1942H48.6885C49.0594 70.1942 49.3788 69.9572 49.4819 69.5966L50.9964 64.3626C51.0686 64.0948 51.2746 63.899 51.5425 63.8166C52.7583 63.4457 53.9431 62.9614 55.0662 62.3535C55.3135 62.2196 55.6019 62.2196 55.8389 62.3535L60.6093 64.9911C60.9287 65.1663 61.3305 65.1148 61.5881 64.8572L65.5239 60.9214C65.7814 60.6638 65.8433 60.262 65.6578 59.9426L63.0202 55.1722C62.8863 54.9353 62.8863 54.6365 63.0202 54.3995C63.6281 53.2764 64.1123 52.0916 64.4833 50.8655C64.5657 50.5976 64.7614 50.3916 65.0293 50.3194L70.2633 48.8152C70.6136 48.7122 70.8609 48.3928 70.8609 48.0218H70.8712Z" stroke="white" stroke-width="2.06063" stroke-miterlimit="10"/>
</g>
</g>
<defs>
<clipPath id="clip0_3487_8951">
<rect width="90" height="90" fill="white" transform="translate(0.666504)"/>
</clipPath>
<clipPath id="clip1_3487_8951">
<rect width="52" height="52.0103" fill="white" transform="translate(19.9016 19.2349)"/>
</clipPath>
</defs>
</svg>
