<svg width="138" height="139" viewBox="0 0 138 139" fill="none" xmlns="http://www.w3.org/2000/svg">
<path d="M40.7958 31.4866L35.4489 26.1397M35.0966 37.1864L29.7497 31.8395M29.3957 42.8865L24.0488 37.5396M62.8556 53.5466L57.5087 48.1997M57.1564 59.2466L51.8095 53.8998M51.4564 64.9465L46.1095 59.5996M59.712 37.9094H68.4217M51.0862 29.2839V20.5742M49.1277 45.0133L43.7808 39.6664M43.4277 50.7133L38.0808 45.3664M56.8036 32.1926L56.7952 32.1842C52.18 27.569 44.6972 27.569 40.082 32.1842L30.0944 42.1718C25.4792 46.787 25.4792 54.2698 30.0944 58.885L30.1028 58.8934C34.7181 63.5086 42.2008 63.5086 46.816 58.8934L56.8036 48.9058C61.4188 44.2906 61.4188 36.8079 56.8036 32.1926Z" stroke="#C51932" stroke-width="3.25971"/>
<path d="M45.4704 85.9071C67.7827 85.9071 85.8705 67.8193 85.8705 45.507C85.8705 23.1947 67.7827 5.10693 45.4704 5.10693C23.158 5.10693 5.07031 23.1947 5.07031 45.507C5.07031 67.8193 23.158 85.9071 45.4704 85.9071Z" fill="url(#paint0_linear_3745_15674)"/>
<path d="M89.5039 75.9601L81.4546 76.4681L79.5212 74.6037C87.8023 64.9415 92.0786 51.7627 89.7358 37.7553C86.4953 18.574 70.4854 3.2595 51.166 0.911773C21.9773 -2.67887 -2.59 21.8884 1.00064 51.0771C3.34837 70.3965 18.6678 86.4065 37.8491 89.6518C51.8565 91.9996 65.0353 87.7184 74.6975 79.4373L76.5619 81.3707L76.0539 89.42L121.874 135.24C125.553 138.92 131.561 138.92 135.24 135.24C138.92 131.561 138.92 125.553 135.24 121.874L89.5089 75.965L89.5039 75.9601ZM45.5088 84.6999C23.7726 84.6999 6.22877 67.1561 6.22877 45.4199C6.22877 23.6837 23.7726 6.1399 45.5088 6.1399C67.2449 6.1399 84.7888 23.6837 84.7888 45.4199C84.7888 67.1561 67.2449 84.6999 45.5088 84.6999Z" fill="#092F62"/>
<defs>
<linearGradient id="paint0_linear_3745_15674" x1="45.4704" y1="5.10693" x2="45.4704" y2="85.9071" gradientUnits="userSpaceOnUse">
<stop offset="0.51" stop-color="white" stop-opacity="0.3"/>
</linearGradient>
</defs>
</svg>
