<svg width="90" height="90" viewBox="0 0 90 90" fill="none" xmlns="http://www.w3.org/2000/svg">
<g clip-path="url(#clip0_3272_13737)">
<path d="M45 90C69.8528 90 90 69.8528 90 45C90 20.1472 69.8528 0 45 0C20.1472 0 0 20.1472 0 45C0 69.8528 20.1472 90 45 90Z" fill="#092F62"/>
<g clip-path="url(#clip1_3272_13737)">
<path d="M64.6244 59.9532C64.2476 58.8457 62.9801 57.8751 60.548 58.4688L52.9091 60.3301C52.5551 60.0103 52.0984 59.7705 51.5731 59.6107L41.719 56.7104C39.8007 56.1509 38.008 56.0938 36.0669 56.5391L33.9545 57.0187V56.5734C33.9545 55.6028 33.1666 54.8035 32.1846 54.8035H26.2699C25.2879 54.8035 24.5 55.5914 24.5 56.5734V67.9119C24.5 68.8825 25.2993 69.6818 26.2699 69.6818H32.1846C33.1552 69.6818 33.9545 68.8939 33.9545 67.9119V67.5465L41.8674 69.8416C42.9408 70.1499 44.0027 70.3098 45.0418 70.3098C46.5262 70.3098 47.9649 70.0015 49.4379 69.362L62.649 63.6414C64.2248 62.9563 65.0926 61.3349 64.6358 59.9532H64.6244ZM41.1481 58.6173L51.0022 61.5176C51.3219 61.6089 51.5731 61.7574 51.6873 61.9172L51.7216 61.9743C51.8129 62.1227 51.8015 62.2598 51.7787 62.3511C51.6873 62.7279 51.2192 63.0476 50.4084 62.8649L40.463 60.7069C40.2118 60.6498 39.9377 60.7069 39.7208 60.8439C39.5038 60.9809 39.344 61.2093 39.2869 61.4605C39.2298 61.7231 39.2869 61.9857 39.4239 62.2027C39.5723 62.431 39.7893 62.5795 40.0519 62.6366L50.0088 64.7947C50.3057 64.8518 50.5911 64.886 50.8652 64.886C52.4752 64.886 53.4572 63.8584 53.7198 62.8307C53.7769 62.6137 53.7997 62.3854 53.7883 62.1456L61.0276 60.3871C61.9296 60.1702 62.649 60.2501 62.7632 60.5813C62.866 60.8896 62.5805 61.5176 61.8726 61.8259L48.6614 67.5465C46.6061 68.4371 44.5736 68.5627 42.427 67.9347L33.9659 65.4798V59.0512L36.5236 58.4688C38.145 58.092 39.5723 58.1377 41.1709 58.6059L41.1481 58.6173ZM31.9677 56.7903V67.7064H26.4754V56.7903H31.9677Z" fill="white"/>
<path d="M49.2776 35.5977C48.3755 35.5977 47.6219 35.8146 47.0053 36.2485C46.6399 36.5112 46.3088 36.8765 46.0119 37.3447C45.715 37.8357 45.5323 38.2924 45.4753 38.7377H50.9675L50.7506 39.8111H45.3496C45.3496 39.9253 45.3496 40.028 45.3496 40.1308C45.3496 40.5419 45.3496 40.7931 45.3496 40.873H50.5336L50.3053 41.9463H45.5209C45.7493 43.1795 46.286 44.0473 47.1423 44.5612C47.7589 44.9265 48.4326 45.1207 49.152 45.1207C50.1568 45.1207 50.9333 44.858 51.5042 44.3328V45.9885C50.8305 46.2968 50.0883 46.4566 49.2776 46.4566C46.8569 46.4566 45.2126 45.4518 44.3562 43.4307C44.185 43.0197 44.0365 42.5287 43.9109 41.9463H42.6777L42.9061 40.873H43.7511C43.7396 40.6446 43.7282 40.4048 43.7282 40.1422C43.7282 40.0394 43.7282 39.9253 43.7282 39.8111H42.6777L42.9061 38.7377H43.8424C44.1736 36.9907 45.0414 35.7347 46.4458 34.9697C47.3136 34.5015 48.2614 34.2617 49.3004 34.2617C50.3395 34.2617 51.1388 34.4787 51.8239 34.9126L51.5042 36.4084C50.8533 35.8717 50.1111 35.5977 49.2776 35.5977Z" fill="white"/>
<path d="M44.6534 26.3945C47.0969 26.954 49.6204 26.954 52.0754 26.3945M50.728 27.0567L53.1601 20.2742H43.5572L46.0122 27.0567C41.0337 29.6145 35.6328 34.9354 35.6328 41.1699C35.6328 48.1923 41.3306 52.8396 48.353 52.8396C55.3753 52.8396 61.0731 48.2037 61.0731 41.1699C61.0731 34.9354 55.8777 29.7172 50.7166 27.0567H50.728Z" stroke="white" stroke-width="2.2" stroke-miterlimit="10" stroke-linecap="round"/>
</g>
</g>
<defs>
<clipPath id="clip0_3272_13737">
<rect width="90" height="90" fill="white"/>
</clipPath>
<clipPath id="clip1_3272_13737">
<rect width="41" height="52" fill="white" transform="translate(24 18.5359)"/>
</clipPath>
</defs>
</svg>
