<svg width="91" height="90" viewBox="0 0 91 90" fill="none" xmlns="http://www.w3.org/2000/svg">
<g clip-path="url(#clip0_3487_8941)">
<path d="M45.3333 90C70.1861 90 90.3333 69.8528 90.3333 45C90.3333 20.1472 70.1861 0 45.3333 0C20.4804 0 0.333252 20.1472 0.333252 45C0.333252 69.8528 20.4804 90 45.3333 90Z" fill="#092F62"/>
<path d="M80.03 45C80.03 54.7736 72.1069 62.6967 62.3333 62.6967C52.5596 62.6967 44.6365 54.7736 44.6365 45C44.6365 35.2264 52.5596 27.3033 62.3333 27.3033C72.1069 27.3033 80.03 35.2264 80.03 45Z" fill="#092F62" stroke="white" stroke-width="1.60658" stroke-miterlimit="10"/>
<path d="M63.519 45C63.519 55.0437 55.3769 63.1857 45.3333 63.1857C35.2896 63.1857 27.1475 55.0437 27.1475 45C27.1475 34.9563 35.2896 26.8143 45.3333 26.8143C55.3769 26.8143 63.519 34.9563 63.519 45Z" fill="#092F62" stroke="white" stroke-width="1.62857" stroke-miterlimit="10"/>
<path d="M47.5083 45C47.5083 55.3139 39.1472 63.675 28.8333 63.675C18.5193 63.675 10.1583 55.3139 10.1583 45C10.1583 34.6861 18.5193 26.325 28.8333 26.325C39.1472 26.325 47.5083 34.6861 47.5083 45Z" fill="#092F62" stroke="white" stroke-width="1.65" stroke-miterlimit="10"/>
<path d="M40.3337 34.4247L39.3308 35.4276C44.2831 40.8431 44.2831 49.1432 39.3308 54.5587L40.3337 55.5616C45.8439 49.5845 45.8439 40.3799 40.3337 34.4028V34.4247Z" fill="white"/>
<path d="M19.2769 34.5082C24.6924 29.5558 32.9924 29.5558 38.4079 34.5082L39.4107 33.5053C33.4337 27.995 24.2292 27.995 18.2522 33.5053L19.2769 34.5082Z" fill="white"/>
<path d="M18.3362 54.5654C13.3912 49.1499 13.3912 40.8571 18.3362 35.4453L17.3334 34.4424C11.8231 40.4195 11.8231 49.624 17.3334 55.6011L18.3362 54.5654Z" fill="white"/>
<path d="M38.3933 55.4917C32.9779 60.4441 24.6778 60.4441 19.2624 55.4917L18.2595 56.4946C24.2366 62.0049 33.441 62.0049 39.4181 56.4946L38.3933 55.4917Z" fill="white"/>
<path d="M35.1516 41.6635C34.951 39.5739 33.1495 38.8737 30.8703 38.6586V35.7812H29.1089V38.6039H27.7012V35.7812H25.9508V38.6768H22.377V40.5622C22.377 40.5622 23.6788 40.5403 23.657 40.5622C24.1456 40.5075 24.5869 40.8503 24.6598 41.3353V49.2671C24.6489 49.4349 24.5723 49.5881 24.4447 49.6975C24.3207 49.8069 24.1566 49.8652 23.9925 49.8506C24.0144 49.8689 22.7125 49.8506 22.7125 49.8506L22.377 51.9585H25.918V54.9014H27.6794V52.0022H29.087V54.8905H30.852V51.9804C33.8278 51.8017 35.9065 51.065 36.1654 48.2788C36.3769 46.0361 35.3193 45.0332 33.6345 44.632C34.6593 44.1288 35.2938 43.1952 35.1516 41.6635ZM32.6827 47.9324C32.6827 50.1205 28.9302 49.8725 27.7377 49.8725V45.9887C28.9338 45.9887 32.6827 45.6495 32.6827 47.936V47.9324ZM31.8658 42.4585C31.8658 44.4606 28.7333 44.2163 27.7413 44.2163V40.6862C28.7369 40.6862 31.8658 40.3726 31.8658 42.4585Z" fill="white"/>
</g>
<defs>
<clipPath id="clip0_3487_8941">
<rect width="90" height="90" fill="white" transform="translate(0.333252)"/>
</clipPath>
</defs>
</svg>
