<svg width="91" height="90" viewBox="0 0 91 90" fill="none" xmlns="http://www.w3.org/2000/svg">
<g clip-path="url(#clip0_3272_13685)">
<path d="M45.333 90C70.1858 90 90.333 69.8528 90.333 45C90.333 20.1472 70.1858 0 45.333 0C20.4802 0 0.333008 20.1472 0.333008 45C0.333008 69.8528 20.4802 90 45.333 90Z" fill="#092F62"/>
<path d="M55.0231 44.5033C54.6124 44.0927 54.6124 43.4303 55.0231 43.0197C56.4934 41.5493 58.8778 41.5493 60.3482 43.0197C60.7589 43.4303 60.7589 44.0927 60.3482 44.5033C60.1495 44.702 59.8714 44.808 59.6064 44.808C59.3415 44.808 59.0765 44.702 58.8646 44.5033C58.2155 43.8542 57.1558 43.8542 56.4934 44.5033C56.0828 44.914 55.4205 44.914 55.0098 44.5033H55.0231Z" fill="white"/>
<path d="M72.2305 42.715H69.1705C68.0578 40.0922 66.3092 37.7607 64.0706 35.9327V28.647C64.0706 28.0642 63.6069 27.6005 63.0241 27.6005H61.8716C59.0103 27.6005 56.6127 29.561 55.9503 32.2369C54.9701 32.0647 53.9766 31.9852 52.9831 31.9852H51.2478C51.367 31.3096 51.4332 30.634 51.4332 29.9452C51.4332 23.6398 46.2935 18.5001 39.9881 18.5001C33.6826 18.5001 28.5429 23.6265 28.5429 29.9452C28.5429 31.5613 28.8873 33.1509 29.5497 34.608C26.5162 36.4891 24.1583 39.2179 22.7541 42.3971C20.8996 42.0792 19.469 40.4631 19.469 38.5158C19.469 37.933 19.0053 37.4693 18.4225 37.4693C17.8396 37.4693 17.376 37.933 17.376 38.5158C17.376 41.3638 19.3497 43.7482 22.0123 44.3841C21.5089 46.0399 21.2308 47.7752 21.2308 49.5635C21.2308 53.0077 22.2243 56.3458 24.1185 59.2071C25.8406 61.8167 28.1853 63.9097 30.9538 65.2874V70.4536C30.9538 71.0364 31.4175 71.5001 32.0003 71.5001H40.2265C40.8094 71.5001 41.273 71.0364 41.273 70.4536V67.1287H49.4065V70.4536C49.4065 71.0364 49.8701 71.5001 50.453 71.5001H58.6791C59.262 71.5001 59.7256 71.0364 59.7256 70.4536V65.7907C64.7594 63.711 68.5082 59.4588 69.9388 54.2264H72.2438C72.8266 54.2264 73.2902 53.7627 73.2902 53.1799V43.7747C73.2902 43.1919 72.8266 42.7283 72.2438 42.7283L72.2305 42.715ZM39.9881 20.593C45.141 20.593 49.3402 24.7922 49.3402 29.9452C49.3402 30.899 49.1945 31.8395 48.9296 32.727C48.5057 34.0649 47.7771 35.3101 46.8101 36.3433C46.7439 36.3433 46.6644 36.3433 46.5982 36.3301C46.32 36.3036 46.0418 36.2771 45.7504 36.2639C45.5782 36.2506 45.4192 36.2374 45.247 36.2241C44.9556 36.2109 44.6774 36.1976 44.386 36.1844C44.2005 36.1844 44.0283 36.1711 43.8561 36.1711C43.5779 36.1711 43.2865 36.1711 43.0083 36.1711C42.8096 36.1711 42.6242 36.1711 42.4255 36.1711C42.1075 36.1711 41.7764 36.1976 41.4452 36.2109C41.2995 36.2109 41.1538 36.2109 41.0081 36.2241C40.9948 36.2241 40.9683 36.2241 40.9551 36.2241C40.3855 36.2639 39.8291 36.3169 39.2728 36.3698C39.233 36.3698 39.18 36.3698 39.127 36.3831C38.6104 36.4493 38.0938 36.5156 37.5904 36.595C37.5242 36.595 37.4447 36.6215 37.3785 36.6348C36.8883 36.7143 36.4247 36.807 35.9611 36.913C35.8948 36.9262 35.8286 36.9395 35.7624 36.9527C35.2723 37.0587 34.7954 37.1779 34.345 37.3104C34.3317 37.3104 34.3052 37.3104 34.2788 37.3236C33.2852 36.5553 32.4375 35.575 31.8281 34.4888C31.0466 33.0979 30.6359 31.5216 30.6359 29.932C30.6359 24.779 34.8351 20.5798 39.9881 20.5798V20.593ZM71.184 52.1202H69.1043C68.6142 52.1202 68.1903 52.4646 68.0843 52.9414C66.9318 58.0944 63.2757 62.2671 58.3082 64.0819C57.8976 64.2409 57.6194 64.625 57.6194 65.0622V69.3938H51.4862V66.0689C51.4862 65.4861 51.0226 65.0224 50.4397 65.0224H40.2133C39.6304 65.0224 39.1668 65.4861 39.1668 66.0689V69.3938H33.0336V64.6118C33.0336 64.2011 32.7951 63.8302 32.411 63.658C29.7351 62.4526 27.47 60.5186 25.8406 58.0414C24.1715 55.5246 23.2972 52.5838 23.2972 49.5503C23.2972 44.1986 26.0526 39.2576 30.5564 36.4361C30.9803 37.0454 31.4572 37.615 31.9871 38.1317C31.4307 38.3701 30.9141 38.6218 30.477 38.8867C29.9736 39.1781 29.8146 39.8272 30.106 40.3174C30.3047 40.6485 30.6492 40.834 31.0068 40.834C31.1923 40.834 31.3777 40.7942 31.5367 40.6883C32.2917 40.2379 33.2455 39.8405 34.345 39.4961C34.345 39.4961 34.3582 39.4961 34.3715 39.4961C35.8154 39.0457 37.458 38.7145 39.2198 38.5026C39.286 38.5026 39.3522 38.4893 39.4052 38.4761C39.6039 38.4496 39.8159 38.4363 40.0146 38.4098C40.1073 38.4098 40.2 38.3966 40.2927 38.3833C40.4517 38.3701 40.6107 38.3568 40.7829 38.3436C40.9021 38.3436 41.0081 38.3304 41.1273 38.3171C41.22 38.3171 41.3127 38.3171 41.4055 38.3039C41.7764 38.2774 42.1605 38.2641 42.5314 38.2509C42.6771 38.2509 42.8229 38.2509 42.9686 38.2509C43.313 38.2509 43.6707 38.2509 44.0018 38.2509C44.121 38.2509 44.227 38.2509 44.3462 38.2509C44.7436 38.2641 45.1278 38.2774 45.5119 38.3039C45.5782 38.3039 45.6312 38.3039 45.6974 38.3171C46.1478 38.3568 46.5982 38.3966 47.0353 38.4496H47.0486C48.1613 38.5953 49.1813 38.8072 50.0556 39.0854C50.6119 39.2576 51.1948 38.9529 51.367 38.3966C51.5392 37.8402 51.2345 37.2574 50.6781 37.0852C50.2145 36.9394 49.6979 36.807 49.168 36.701C49.7641 35.893 50.2675 34.9922 50.6384 34.0649H52.9566C54.1753 34.0649 55.3807 34.2106 56.5464 34.4888C56.8511 34.555 57.169 34.4888 57.4207 34.3034C57.6724 34.1179 57.8181 33.8265 57.8314 33.5218C57.9241 31.3758 59.6859 29.6803 61.8319 29.6803H61.9378V36.4361C61.9378 36.7672 62.0835 37.0719 62.3485 37.2706C64.6666 39.0457 66.4285 41.4168 67.4485 44.1192C67.6074 44.5298 67.9916 44.7947 68.4287 44.7947H71.1443V52.1069L71.184 52.1202Z" fill="white"/>
<path d="M40.8624 25.64C40.094 25.64 39.4582 25.8255 38.9416 26.1964C38.6369 26.4216 38.3455 26.7263 38.107 27.1237C37.8554 27.5343 37.6964 27.9317 37.6567 28.3026H42.3195L42.134 29.2166H37.5507C37.5507 29.3094 37.5507 29.4021 37.5507 29.4948C37.5507 29.8392 37.5507 30.0512 37.5507 30.1174H41.9486L41.7631 31.0314H37.6964C37.8818 32.0779 38.3455 32.8197 39.0741 33.2569C39.6039 33.5748 40.1603 33.7338 40.7696 33.7338C41.6174 33.7338 42.2797 33.5086 42.7699 33.0582V34.4623C42.2003 34.7273 41.5777 34.8597 40.8888 34.8597C38.8356 34.8597 37.4447 33.9987 36.7161 32.2899C36.5704 31.9454 36.4512 31.5216 36.3452 31.0314H35.2987L35.4842 30.1174H36.1995C36.1863 29.932 36.173 29.72 36.173 29.4948C36.173 29.4021 36.173 29.3094 36.173 29.2166H35.2723L35.4577 28.3026H36.2525C36.5307 26.819 37.2725 25.746 38.4647 25.1102C39.1933 24.7128 40.0013 24.5141 40.8888 24.5141C41.7764 24.5141 42.452 24.6995 43.0216 25.0704L42.7434 26.3421C42.187 25.8785 41.5512 25.6533 40.8491 25.6533L40.8624 25.64Z" fill="white"/>
</g>
<defs>
<clipPath id="clip0_3272_13685">
<rect width="90" height="90" fill="white" transform="translate(0.333008)"/>
</clipPath>
</defs>
</svg>
