<svg width="91" height="90" viewBox="0 0 91 90" fill="none" xmlns="http://www.w3.org/2000/svg">
<g clip-path="url(#clip0_3272_13674)">
<path d="M45.667 90C70.5198 90 90.667 69.8528 90.667 45C90.667 20.1472 70.5198 0 45.667 0C20.8142 0 0.666992 20.1472 0.666992 45C0.666992 69.8528 20.8142 90 45.667 90Z" fill="#092F62"/>
<path d="M17.167 70.0781C24.6839 67.05 34.6826 65.2093 45.667 65.2093C56.6514 65.2093 66.6501 67.05 74.167 70.0781M53.8014 30.4631V65.245M31.6426 54.985V66.2425M53.8014 37.0181L58.6226 31.1875M53.8014 40.9843L48.707 36.0325M42.6032 26.6987C34.267 32.1968 36.9626 49.0118 53.8014 43.4781C55.3807 45.4137 59.7745 47.86 64.1326 45.9718C69.132 43.8106 68.0514 37.4693 68.0514 37.4693C68.0514 37.4693 72.4689 32.8143 69.8682 27.4112C66.4126 20.2387 58.7176 22.3643 58.7176 22.3643C58.7176 22.3643 55.3926 18.0775 49.8232 19.1818C42.4014 20.6543 42.6032 26.6987 42.6032 26.6987ZM31.417 55.1393C31.417 55.1393 27.1895 56.9562 23.3776 53.1918C20.0882 49.95 20.6226 45.8293 20.6226 45.8293C20.6226 45.8293 25.242 45.4493 28.3532 47.8481C31.9395 50.615 31.417 55.1512 31.417 55.1512V55.1393ZM31.8564 57.0868C31.8564 57.0868 35.2526 60.4593 40.3826 58.3218C44.812 56.4693 45.8689 52.2893 45.8689 52.2893C45.8689 52.2893 41.5464 50.14 37.6157 51.2443C33.0914 52.5268 31.8445 57.0868 31.8445 57.0868H31.8564Z" stroke="white" stroke-width="2.1" stroke-miterlimit="10"/>
</g>
<defs>
<clipPath id="clip0_3272_13674">
<rect width="90" height="90" fill="white" transform="translate(0.666992)"/>
</clipPath>
</defs>
</svg>
