<svg width="38" height="38" viewBox="0 0 38 38" fill="none" xmlns="http://www.w3.org/2000/svg">
<circle cx="19" cy="19" r="18.25" fill="white" stroke="#643BE3" stroke-width="1.5"/>
<path fill-rule="evenodd" clip-rule="evenodd" d="M18.9996 34.8531C27.755 34.8531 34.8527 27.7554 34.8527 19C34.8527 10.2446 27.755 3.14687 18.9996 3.14687C10.2442 3.14687 3.14648 10.2446 3.14648 19C3.14648 27.7554 10.2442 34.8531 18.9996 34.8531ZM23.1614 10.1442L22.3996 13.0009C24.685 13.7627 26.2086 14.9054 25.9229 17.0955C25.7325 18.6191 24.8755 19.3809 23.7328 19.6666C25.3516 20.4284 26.1134 21.6663 25.3516 23.8564C24.3993 26.6179 22.114 26.8084 19.162 26.237L18.4002 29.0937L16.6862 28.6176L17.3528 25.7609C17.1147 25.7133 16.8766 25.6419 16.6386 25.5705C16.4005 25.499 16.1625 25.4276 15.9244 25.38L15.1626 28.2367L13.4486 27.7606L14.2104 24.9039L12.9725 24.6182L10.6871 24.0469L11.5441 22.0472L12.782 22.3328C13.3534 22.5233 13.5438 22.1424 13.639 21.9519L15.6387 14.1436C15.6387 13.7627 15.4483 13.2866 14.7817 13.0961C14.8769 13.0961 13.5438 12.8104 13.5438 12.8104L14.0199 10.906L16.4005 11.4773L17.5432 11.763L18.2098 8.90625L20.019 9.28714L19.3525 12.1439L20.7808 12.4295L21.4474 9.66804L23.1614 10.1442ZM16.984 23.3899C18.4008 23.777 21.4071 24.5983 21.9235 22.6185C22.4362 20.5676 19.4214 19.8971 17.9715 19.5746C17.8057 19.5377 17.6604 19.5054 17.5432 19.4761L16.591 23.2851C16.7007 23.3125 16.8334 23.3488 16.984 23.3899ZM18.4635 17.8656C19.6906 18.1662 22.078 18.751 22.4949 17.0003C22.9447 15.021 20.1645 14.4867 19.0531 14.2732C18.9881 14.2607 18.9289 14.2493 18.8763 14.2388L18.0193 17.7621C18.1379 17.7858 18.289 17.8228 18.4635 17.8656Z" fill="#643BE3"/>
</svg>
