<svg width="163" height="51" viewBox="0 0 163 51" fill="none" xmlns="http://www.w3.org/2000/svg">
<g clip-path="url(#clip0_4231_18436)">
<path d="M7.76783 0.30478V50.1815H0.258301V0.30478H7.76783ZM12.027 49.0719L30.2964 41.3382V50.3048H12.027V49.0719ZM38.8147 0.30478H46.3242V50.1815H38.8147V0.30478ZM67.6199 9.28259L50.5833 1.5489V0.30478H67.6199V9.27138V9.28259ZM50.5833 24.75L64.2574 21.0513V29.5695L50.5833 25.9829V24.8621V24.75ZM50.5833 49.0719L68.7407 41.3382V50.3048H50.5833V49.0719ZM84.7685 0.30478C84.7685 13.3064 93.8472 18.5742 103.038 25.2992C113.462 33.0329 117.497 40.5424 117.385 50.2936H109.875C109.875 37.292 100.796 32.0241 91.6055 25.2992C81.2939 17.5767 77.3711 10.0672 77.3711 0.30478H84.8806H84.7685ZM84.7685 50.1927H77.259C77.259 41.114 83.4235 32.0353 91.4935 29.3454L92.8384 30.242C87.6826 34.8374 84.7685 41.8986 84.7685 50.1927ZM109.987 0.30478H117.497C117.497 9.38346 111.332 18.238 103.486 21.04L102.141 20.1434C107.185 15.548 109.987 8.59888 109.987 0.30478ZM134.981 0.30478V50.1815H127.472V0.30478H134.981ZM139.241 23.405C146.862 23.405 151.121 19.1458 151.121 12.3088C151.121 5.47178 146.078 1.5489 139.241 1.5489V0.30478C149.888 0.0806154 158.519 3.66726 158.519 12.2976C158.519 20.928 154.035 22.4971 147.983 24.4025C157.286 31.0154 162.442 40.2061 162.442 50.2936H154.932C154.932 40.2061 149.328 31.2396 139.129 25.075V23.3938H139.241V23.405Z" fill="#002A24"/>
</g>
<defs>
<clipPath id="clip0_4231_18436">
<rect width="162.183" height="50" fill="white" transform="translate(0.258789 0.304688)"/>
</clipPath>
</defs>
</svg>
