<svg width="92" height="28" viewBox="0 0 92 28" fill="none" xmlns="http://www.w3.org/2000/svg">
<g clip-path="url(#clip0_3891_17204)">
<path d="M5.13209 -0.000338624V27.9306H0.926758V-0.000338624H5.13209ZM7.51721 27.3092L17.7481 22.9784V27.9997H7.51721V27.3092ZM22.5183 -0.000338624H26.7237V27.9306H22.5183V-0.000338624ZM38.6492 5.02723L29.1088 0.696366V-0.000338624H38.6492V5.02096V5.02723ZM29.1088 13.689L36.7663 11.6177V16.3879L29.1088 14.3794V13.7517V13.689ZM29.1088 27.3092L39.2769 22.9784V27.9997H29.1088V27.3092ZM48.2525 -0.000338624C48.2525 7.28054 53.3365 10.2306 58.4834 13.9965C64.3206 18.3274 66.5802 22.5327 66.5174 27.9934H62.3121C62.3121 20.7125 57.228 17.7625 52.0812 13.9965C46.3067 9.67193 44.1099 5.4666 44.1099 -0.000338624H48.3152H48.2525ZM48.2525 27.9369H44.0471C44.0471 22.8528 47.4993 17.7688 52.0184 16.2624L52.7716 16.7645C49.8844 19.3379 48.2525 23.2922 48.2525 27.9369ZM62.3749 -0.000338624H66.5802C66.5802 5.08372 63.1281 10.0423 58.7344 11.6114L57.9812 11.1093C60.8057 8.53586 62.3749 4.64436 62.3749 -0.000338624ZM76.3717 -0.000338624V27.9306H72.1664V-0.000338624H76.3717ZM78.7568 12.9358C83.0249 12.9358 85.4101 10.5507 85.4101 6.72192C85.4101 2.89318 82.5856 0.696366 78.7568 0.696366V-0.000338624C84.7196 -0.125871 89.5526 1.88265 89.5526 6.71564C89.5526 11.5486 87.042 12.4274 83.6526 13.4944C88.8622 17.1976 91.7494 22.3444 91.7494 27.9934H87.5441C87.5441 22.3444 84.4058 17.3231 78.6941 13.871V12.9295H78.7568V12.9358Z" fill="#121212"/>
</g>
<defs>
<clipPath id="clip0_3891_17204">
<rect width="90.8227" height="28" fill="white" transform="translate(0.927612)"/>
</clipPath>
</defs>
</svg>
