<?xml version="1.0" encoding="UTF-8"?>
<svg id="Ebene_1" xmlns="http://www.w3.org/2000/svg" version="1.1" viewBox="0 0 144.8 44.5">
  <!-- Generator: Adobe Illustrator 29.3.1, SVG Export Plug-In . SVG Version: 2.1.0 Build 151)  -->
  <defs>
    <style>
      .st0 {
        fill: #002a24;
      }
    </style>
  </defs>
  <path class="st0" d="M6.7,0v44.5H0V0h6.7ZM10.5,43.5l16.3-6.9v8H10.5v-1ZM34.4,0h6.7v44.5h-6.7V0ZM60.1,8l-15.2-6.9V0h15.2v7.9ZM44.9,21.8l12.2-3.3v7.6l-12.2-3.2v-1h0ZM44.9,43.5l16.2-6.9v8h-16.2v-1ZM75.4,0c0,11.6,8.1,16.3,16.3,22.3,9.3,6.9,12.9,13.6,12.8,22.3h-6.7c0-11.6-8.1-16.3-16.3-22.3C72.3,15.4,68.8,8.7,68.8,0h6.7ZM75.4,44.5h-6.7c0-8.1,5.5-16.2,12.7-18.6l1.2.8c-4.6,4.1-7.2,10.4-7.2,17.8h0ZM97.9,0h6.7c0,8.1-5.5,16-12.5,18.5l-1.2-.8C95.4,13.6,97.9,7.4,97.9,0h0ZM120.2,0v44.5h-6.7V0h6.7ZM124,20.6c6.8,0,10.6-3.8,10.6-9.9s-4.5-9.6-10.6-9.6V0c9.5-.2,17.2,3,17.2,10.7s-4,9.1-9.4,10.8c8.3,5.9,12.9,14.1,12.9,23.1h-6.7c0-9-5-17-14.1-22.5v-1.5h0Z"/>
</svg>