<svg width="257" height="30" viewBox="0 0 257 30" fill="none" xmlns="http://www.w3.org/2000/svg">
<g clip-path="url(#clip0_3241_12930)">
<path d="M1.41526 24.6656C2.3595 26.2861 3.63551 27.5749 5.25603 28.5319C6.87656 29.4634 8.68848 29.9228 10.6918 29.9228C12.2613 29.9228 13.767 29.6038 15.2216 28.9658C16.6763 28.3022 17.9268 27.3963 18.9731 26.2606L19.1134 26.1075L15.681 22.4326L15.5279 22.5985C14.8261 23.3386 14.0987 23.9 13.3204 24.2701C12.5803 24.6146 11.7892 24.7932 10.9215 24.7932C9.93897 24.7932 9.033 24.5508 8.22912 24.0787C7.42524 23.581 6.78724 22.9047 6.31511 22.0498C5.86851 21.1694 5.65159 20.1996 5.65159 19.1405C5.65159 18.0304 5.88127 17.0479 6.31511 16.1929C6.78724 15.338 7.39972 14.6617 8.16532 14.1641C8.94368 13.6665 9.82413 13.4113 10.8194 13.4113C11.7381 13.4113 12.5675 13.6154 13.3331 14.011C14.1243 14.381 14.8771 14.9807 15.6044 15.7974L15.7575 15.976L19.2793 12.1863L19.1517 12.0332C18.0799 10.8337 16.8039 9.91501 15.3237 9.28977C13.8691 8.65176 12.3251 8.33276 10.7173 8.33276C8.714 8.33276 6.90208 8.80488 5.28155 9.77465C3.66103 10.7317 2.38502 12.0204 1.44078 13.6409C0.496536 15.2615 0.0244141 17.0989 0.0244141 19.1405C0.0244141 21.1821 0.496536 22.9941 1.42802 24.6401L1.41526 24.6656Z" fill="black"/>
<path d="M21.8574 8.75386V29.5144L27.5356 23.581V16.1802C28.0333 15.2742 28.6713 14.5724 29.4624 14.0876C30.2663 13.5899 31.1723 13.3347 32.1548 13.3347C32.6269 13.3347 33.0863 13.3858 33.5329 13.4878C33.9795 13.5644 34.375 13.692 34.7451 13.8579L35.0513 13.9982V8.84318L34.9492 8.77938C34.4133 8.46038 33.6477 8.30726 32.6652 8.28174C31.504 8.28174 30.4704 8.52418 29.539 9.00906C28.7861 9.40462 28.1226 9.94054 27.5484 10.6168V8.75386H21.8702H21.8574Z" fill="black"/>
<path d="M56.961 8.75415L62.5627 29.5403H67.9474L71.6606 17.0609L75.3737 29.5403H80.7202L86.3601 8.75415H81.0009L77.8492 21.3356L74.0722 8.75415H69.351L65.5357 21.2973L62.384 8.75415H56.9482H56.961Z" fill="black"/>
<path fill-rule="evenodd" clip-rule="evenodd" d="M88.4278 24.5505C87.5091 22.93 87.0625 21.1181 87.0625 19.1275C87.0625 17.1369 87.5219 15.3378 88.4278 13.7428C89.3721 12.1222 90.6353 10.8462 92.2303 9.91474C93.8253 8.95774 95.6117 8.48562 97.5895 8.48562C98.6103 8.48562 99.5801 8.62598 100.524 8.91946C101.341 9.14914 102.107 9.4809 102.821 9.91474V1.79935L108.499 0.82959V29.5397H102.898V28.0723C101.303 29.2334 99.478 29.8076 97.4364 29.8076C95.5096 29.8076 93.7615 29.3355 92.192 28.3658C90.6225 27.4088 89.3721 26.1328 88.4406 24.5377L88.4278 24.5505ZM95.3948 14.2021C94.5654 14.6742 93.9019 15.3505 93.4042 16.231C92.9194 17.0859 92.6642 18.0429 92.6642 19.1275C92.6642 20.2121 92.9066 21.1819 93.4042 22.024C93.9019 22.8789 94.5654 23.5552 95.3948 24.0529C96.2497 24.5505 97.2195 24.8057 98.2786 24.8057C99.2228 24.8057 100.078 24.6526 100.843 24.3463C101.609 24.0273 102.26 23.5807 102.821 22.981V15.2229C102.272 14.6742 101.609 14.2404 100.843 13.9214C100.052 13.5896 99.1973 13.4238 98.2786 13.4238C97.2195 13.4238 96.2497 13.679 95.3948 14.1766V14.2021Z" fill="black"/>
<path d="M48.6411 8.60085C48.7049 8.61361 48.7815 8.63913 48.8453 8.65189L42.529 15.1085C41.84 15.7465 41.3168 16.5886 41.0616 17.5584C40.5768 19.3831 40.9978 21.0546 42.21 22.3179L38.4076 26.2097C35.8811 23.6194 34.822 19.9062 35.83 16.142C37.3357 10.4766 43.0394 7.06964 48.6539 8.58809L48.6411 8.60085Z" fill="black"/>
<path d="M48.4876 19.7531C48.0665 21.3481 46.446 22.2924 44.8637 21.8585C43.2815 21.4247 42.35 19.8042 42.7711 18.2092C43.1921 16.6142 44.8127 15.6699 46.3949 16.1038C47.9772 16.5248 48.9086 18.1581 48.4876 19.7531Z" fill="black"/>
<path d="M42.5684 29.5143C42.5046 29.5016 42.4281 29.476 42.3643 29.4633L48.7315 23.0067C49.4206 22.3687 49.9565 21.5265 50.2117 20.5568C50.6966 18.7321 50.2755 17.0222 49.0505 15.7718L52.8658 11.8672C55.4178 14.4575 56.5151 18.2089 55.4943 21.9731C53.9759 27.6386 48.2339 31.0455 42.5684 29.5271V29.5143Z" fill="black"/>
<path d="M208.371 13.692L205.104 29.54H210.68L213.985 13.692H219.281L220.276 8.76662H214.98L215.299 7.32474C215.478 6.52085 215.784 5.95941 216.218 5.61489C216.677 5.25761 217.328 5.07897 218.158 5.07897C218.63 5.07897 219.076 5.11725 219.497 5.19381C219.919 5.27037 220.34 5.38521 220.773 5.53833L221.003 5.62765L221.973 0.766076L221.82 0.689516C221.36 0.472595 220.761 0.306715 220.033 0.204634C219.332 0.102554 218.655 0.0515137 218.005 0.0515137C215.823 0.0515137 214.011 0.625716 212.607 1.77412C211.203 2.93528 210.285 4.59409 209.813 6.73778L209.353 8.77938H205.015L204.02 13.7048H208.358L208.371 13.692Z" fill="url(#paint0_linear_3241_12930)"/>
<path d="M114.241 27.2051C114.394 27.5369 114.599 27.8304 114.841 28.1111C115.9 29.2723 117.597 29.821 119.869 29.821C120.468 29.821 121.119 29.7699 121.808 29.6678C122.497 29.5913 123.084 29.502 123.556 29.3871L123.684 29.3616L124.705 24.5638L124.386 24.6404C123.926 24.7425 123.518 24.819 123.135 24.8701C122.765 24.9211 122.369 24.9466 121.974 24.9466C120.889 24.9466 120.226 24.7425 119.907 24.3979C119.588 24.0279 119.473 23.4026 119.652 22.4329L121.527 13.6667H127.091L128.099 8.77964H122.535L123.888 2.3103L118.018 3.62459L116.946 8.77964H112.914L111.906 13.6667H115.938L113.961 23.2495C113.795 24.0534 113.718 24.7935 113.769 25.457C113.769 25.457 113.782 26.0567 113.884 26.414C113.973 26.7458 114.216 27.2179 114.216 27.2179L114.241 27.2051Z" fill="url(#paint1_linear_3241_12930)"/>
<path d="M125.903 29.5398L130.254 8.75372H135.831L135.499 10.3615C136.124 9.80004 136.788 9.35344 137.515 9.00892C138.434 8.57507 139.416 8.35815 140.437 8.35815C141.56 8.35815 142.428 8.53679 143.04 8.94512L143.168 9.02168L142.109 14.1767L141.841 13.9853C141.624 13.8322 141.241 13.6791 140.692 13.5515C140.144 13.3984 139.62 13.3218 139.135 13.3218C137.234 13.3218 135.626 14.1895 134.312 15.9759L131.531 29.5398H125.916H125.903Z" fill="url(#paint2_linear_3241_12930)"/>
<path fill-rule="evenodd" clip-rule="evenodd" d="M143.167 28.2003C144.443 29.2594 146.14 29.7698 148.246 29.7698C149.164 29.7698 150.032 29.655 150.874 29.4125C151.563 29.1956 152.252 28.8894 152.929 28.5066L152.737 29.5401H158.237L160.802 17.1374C161.197 15.3382 161.121 13.7815 160.559 12.4672C159.998 11.1401 159.028 10.1321 157.663 9.43029C156.323 8.72849 154.626 8.39673 152.584 8.39673C151.359 8.39673 150.083 8.53709 148.743 8.83057C147.403 9.09853 145.974 9.53237 144.481 10.1321L144.303 10.2087L145.694 14.6364L145.898 14.5598C147.148 14.0877 148.195 13.7559 149.05 13.5518C149.93 13.3476 150.734 13.2455 151.461 13.2455C153.082 13.2455 154.154 13.5901 154.753 14.2281C155.366 14.8278 155.583 15.772 155.302 17.1118L155.123 17.9157C154.358 17.6222 153.541 17.3798 152.673 17.2139C151.742 17.0353 150.798 16.9332 149.828 16.9332C148.067 16.9332 146.536 17.2139 145.26 17.7754C143.971 18.3368 142.976 19.1279 142.248 20.1487C141.559 21.1823 141.215 22.42 141.215 23.8619C141.215 25.6355 141.853 27.0774 143.129 28.1748L143.167 28.2003ZM150.019 25.5462C150.721 25.5462 151.385 25.4569 152.035 25.2783C152.648 25.0869 153.235 24.8189 153.783 24.4871L154.383 21.782C153.12 21.195 151.755 20.9016 150.249 20.9016C149.075 20.9016 148.156 21.144 147.493 21.6034C146.855 22.0627 146.549 22.6625 146.549 23.4153C146.549 24.0661 146.829 24.5765 147.403 24.9465C148.029 25.3293 148.884 25.5335 150.019 25.5335V25.5462Z" fill="url(#paint3_linear_3241_12930)"/>
<path d="M161.695 29.5401L166.008 8.754H171.584L171.329 9.97896C172.911 8.95816 174.621 8.44775 176.459 8.44775C178.079 8.44775 179.457 8.83056 180.567 9.62168C181.703 10.3745 182.507 11.4208 182.954 12.7351C183.4 14.0622 183.451 15.5551 183.119 17.2267L182.15 22.3434L175.068 29.5529L177.454 17.6605C177.696 16.3462 177.518 15.3382 176.956 14.5981C176.395 13.8325 175.514 13.4369 174.289 13.4369C173.498 13.4369 172.758 13.5901 172.069 13.8835C171.418 14.177 170.819 14.6109 170.257 15.1978L167.284 29.5656H161.708L161.695 29.5401Z" fill="url(#paint4_linear_3241_12930)"/>
<path d="M184.395 27.2561C186.066 28.3024 186.092 28.4172 187.738 29.0169C189.448 29.6549 191.234 29.9612 193.11 29.9612C194.743 29.9612 196.223 29.6549 197.537 29.0425C198.839 28.4045 199.885 27.5495 200.651 26.4777C201.416 25.3931 201.799 24.1809 201.799 22.8411C201.799 21.412 201.327 20.1998 200.396 19.2172C199.464 18.2347 198.124 17.5712 196.414 17.2011L192.778 16.3845C191.948 16.2059 191.374 15.9762 191.03 15.721C190.724 15.453 190.57 15.1085 190.57 14.6747C190.57 14.126 190.8 13.6921 191.285 13.3731C191.77 13.0414 192.459 12.8627 193.352 12.8627C194.322 12.8627 195.304 13.0669 196.3 13.4752C197.32 13.858 198.329 14.4322 199.311 15.1978L199.464 15.3254L202.616 11.7654L202.45 11.625C201.251 10.5914 199.898 9.81308 198.392 9.27716C196.887 8.71571 195.317 8.44775 193.684 8.44775C192.051 8.44775 190.609 8.72848 189.371 9.28992C188.159 9.85136 187.227 10.6425 186.564 11.676C185.9 12.6841 185.568 13.8963 185.568 15.3127C185.568 16.729 186.002 18.0305 186.896 19.0131C187.801 19.9956 189.103 20.6591 190.762 21.0292L194.437 21.8458C195.164 22.0244 195.674 22.2541 196.006 22.5093C196.312 22.7518 196.466 23.0708 196.466 23.4663C196.466 24.0278 196.185 24.4999 195.572 24.8827C194.973 25.2655 194.181 25.4696 193.148 25.4696C192.051 25.4696 190.966 25.24 189.894 24.7806C189.664 24.6785 189.473 24.602 189.307 24.5382C188.746 24.3085 188.542 24.1936 187.865 23.7088L184.407 27.2433L184.395 27.2561Z" fill="url(#paint5_linear_3241_12930)"/>
<path fill-rule="evenodd" clip-rule="evenodd" d="M223.849 28.698C222.305 27.8431 221.093 26.6692 220.2 25.1762C219.307 23.6578 218.873 21.9479 218.873 20.0595C218.873 18.4645 219.154 16.9715 219.728 15.5679C220.302 14.1643 221.093 12.9266 222.114 11.8675C223.135 10.7829 224.309 9.94074 225.636 9.35378C226.963 8.7413 228.392 8.43506 229.898 8.43506C231.697 8.43506 233.292 8.8689 234.695 9.7621C236.086 10.617 237.171 11.7909 237.962 13.2839C238.753 14.7768 239.136 16.5122 239.136 18.4645C239.136 18.7579 239.123 19.0642 239.098 19.4087C239.098 19.766 239.047 20.2764 238.945 20.9527L238.919 21.1313H224.5C224.666 21.8586 224.947 22.5094 225.368 23.0836C225.827 23.7088 226.414 24.1937 227.129 24.5382C227.869 24.8827 228.686 25.0614 229.604 25.0614C230.421 25.0614 231.199 24.9338 231.914 24.6786C232.628 24.4234 233.266 24.0789 233.802 23.6195L233.968 23.4919L237.133 27.2306L236.941 27.371C235.704 28.2642 234.466 28.9149 233.241 29.3105C232.016 29.706 230.663 29.9102 229.183 29.9102C227.205 29.9102 225.432 29.5019 223.862 28.6725L223.849 28.698ZM224.832 16.9205H233.815C233.662 16.2442 233.407 15.6572 233.062 15.1468C232.667 14.5726 232.182 14.126 231.595 13.807C231.021 13.488 230.357 13.3222 229.63 13.3222C228.902 13.3222 228.201 13.488 227.537 13.807C226.899 14.126 226.338 14.5854 225.84 15.1596C225.432 15.67 225.1 16.2442 224.832 16.9077V16.9205Z" fill="url(#paint6_linear_3241_12930)"/>
<path d="M244.075 8.75372L239.724 29.5398H245.338L248.12 15.9759C249.434 14.2023 251.042 13.3218 252.943 13.3218C253.428 13.3218 253.951 13.3984 254.5 13.5515C255.048 13.6791 255.431 13.8322 255.648 13.9853L255.916 14.1767L256.975 9.02168L256.848 8.94512C256.235 8.54955 255.355 8.35815 254.245 8.35815C253.211 8.35815 252.241 8.57507 251.323 9.00892C250.595 9.34068 249.932 9.80004 249.306 10.3615L249.638 8.75372H244.062H244.075Z" fill="url(#paint7_linear_3241_12930)"/>
</g>
<defs>
<linearGradient id="paint0_linear_3241_12930" x1="198.329" y1="49.905" x2="217.315" y2="-3.18954" gradientUnits="userSpaceOnUse">
<stop stop-color="#FF8C21"/>
<stop offset="1" stop-color="#F5576E"/>
</linearGradient>
<linearGradient id="paint1_linear_3241_12930" x1="117.623" y1="21.042" x2="136.597" y2="-32.0525" gradientUnits="userSpaceOnUse">
<stop stop-color="#FF8C21"/>
<stop offset="1" stop-color="#F5576E"/>
</linearGradient>
<linearGradient id="paint2_linear_3241_12930" x1="131.046" y1="25.8394" x2="150.033" y2="-27.2551" gradientUnits="userSpaceOnUse">
<stop stop-color="#FF8C21"/>
<stop offset="1" stop-color="#F5576E"/>
</linearGradient>
<linearGradient id="paint3_linear_3241_12930" x1="147.097" y1="31.5817" x2="166.084" y2="-21.5128" gradientUnits="userSpaceOnUse">
<stop stop-color="#FF8C21"/>
<stop offset="1" stop-color="#F5576E"/>
</linearGradient>
<linearGradient id="paint4_linear_3241_12930" x1="165.932" y1="38.319" x2="184.906" y2="-14.7883" gradientUnits="userSpaceOnUse">
<stop stop-color="#FF8C21"/>
<stop offset="1" stop-color="#F5576E"/>
</linearGradient>
<linearGradient id="paint5_linear_3241_12930" x1="184.407" y1="44.9159" x2="203.381" y2="-8.17858" gradientUnits="userSpaceOnUse">
<stop stop-color="#FF8C21"/>
<stop offset="1" stop-color="#F5576E"/>
</linearGradient>
<linearGradient id="paint6_linear_3241_12930" x1="215.977" y1="56.2087" x2="234.963" y2="3.11412" gradientUnits="userSpaceOnUse">
<stop stop-color="#FF8C21"/>
<stop offset="1" stop-color="#F5576E"/>
</linearGradient>
<linearGradient id="paint7_linear_3241_12930" x1="231.966" y1="61.9248" x2="250.952" y2="8.83027" gradientUnits="userSpaceOnUse">
<stop stop-color="#FF8C21"/>
<stop offset="1" stop-color="#F5576E"/>
</linearGradient>
<clipPath id="clip0_3241_12930">
<rect width="257" height="29.9478" fill="white" transform="translate(0 0.026123)"/>
</clipPath>
</defs>
</svg>
