<?xml version="1.0" encoding="UTF-8"?>
<svg id="Calque_1" data-name="Calque 1" xmlns="http://www.w3.org/2000/svg" viewBox="0 0 1182.74 205.24">
  <defs>
    <style>
      .cls-1, .cls-2 {
        font-family: Rubik-SemiBold, Rubik;
        font-size: 135px;
        font-weight: 600;
      }

      .cls-2 {
        fill: #fff;
      }

      .cls-3 {
        letter-spacing: -.02em;
      }

      .cls-4 {
        letter-spacing: 0em;
      }

      .cls-5 {
        fill: #090b0b;
      }

      .cls-5, .cls-6 {
        stroke-width: 0px;
      }

      .cls-6 {
        fill: #080a0a;
      }
    </style>
  </defs>
  <text class="cls-2" transform="translate(-1144.01 138.27)"><tspan x="0" y="0">BI</tspan><tspan class="cls-4" x="135.81" y="0">M.</tspan><tspan x="282.55" y="0">E</tspan><tspan class="cls-3" x="367.6" y="0">x</tspan><tspan x="442.66" y="0">change</tspan></text>
  <text class="cls-1" transform="translate(223.76 157.39)"><tspan x="0" y="0">BI</tspan><tspan class="cls-4" x="135.81" y="0">M.</tspan><tspan x="282.55" y="0">E</tspan><tspan class="cls-3" x="367.6" y="0">x</tspan><tspan x="442.66" y="0">change</tspan></text>
  <g>
    <path class="cls-6" d="m96.43,12.56C52.09,15.28,13.48,51.95,13.14,101.23c-.06,48.91,39.67,88.76,88.64,88.89,49.12.13,89-39.59,89.08-88.67.08-51.51-43.33-92.02-94.43-88.89Zm17.68,170.83c-25.16,3.65-47.53-3.2-66.9-19.73-.54-.46-1.04-.97-2-1.86,26.75-4.92,48.1-19.34,69.04-34.63.71.77.02,1.39-.26,1.91-2.66,4.94-5.25,9.93-9.06,14.14-.71.78-1.72,1.65-1.3,2.81.48,1.31,1.88,1.25,3.04,1.3,6.46.28,12.44-1.56,17.83-4.88,20.78-12.79,33.75-30.9,36.62-55.49,1.12-9.6-.57-18.82-6.03-27.03-7.39-11.12-23.27-16.32-37.56-12.4-11.96,3.28-20.69,10.95-27.64,20.81-4.43,6.28-8.55,12.79-12.56,19.37-8.41,13.8-18.4,26.25-32.11,35.27-.78.51-1.98.96-1.58,2.22.34,1.08,1.44,1.27,2.43,1.47,5.02,1.03,9.91.24,14.77-1.01,1.93-.5,3.8-1.21,5.73-1.67,1.15-.27,2.51-1.4,3.51-.09.96,1.25-.38,2.36-.88,3.42-1.46,3.06-3.63,5.63-6.19,7.84-6.26,5.41-13.47,8.78-21.73,9.68-1.61.18-3.26.11-4.88-.02-4-.32-6.64-2.21-8.56-6C2.92,89.54,32.47,29.62,86.75,19.62c46.15-8.51,89.56,22.17,97.32,68.75,7.51,45.1-24.17,88.38-69.96,95.02Zm-8.18-85.48c-.81-.68-1.72-.29-2.56.09-1.65.73-3.29,1.5-4.96,2.2-.67.28-1.47.5-1.98-.23-.48-.68.12-1.23.54-1.64,7.78-7.53,12.81-17.03,18.73-25.9,4.07-6.11,11.6-9.17,17.65-7.1,6.47,2.22,9.27,7.43,10.52,13.72.26,1.33.29,2.7.4,3.83-.08,6.78-2.2,12.64-6.08,17.89-.48.65-1,1.56-1.9,1.2-.98-.39-.45-1.43-.37-2.16.18-1.8.5-3.58.77-5.37.12-.81.37-1.73-.52-2.19-1.2-.62-1.54.55-2.04,1.22-6.98,9.47-15.52,17.15-25.94,22.69-4.67,2.48-9.54,4.36-14.76,5.27-.74.13-1.62.7-2.18-.32-.61-1.11.3-1.67.94-2.25,3.62-3.31,6.97-6.86,9.93-10.77,1.76-2.33,3.16-4.84,4-7.66.27-.89.65-1.8-.2-2.51h.01Z"/>
    <path class="cls-5" d="m80.95,48.76c.03,1-.67,1.23-1.2,1.47-3.16,1.49-5.42,3.82-6.82,7.01-.61,1.39-1.36,1.7-2.12.13-1.51-3.1-3.6-5.53-6.94-6.81-1.91-.73-1.81-1.94-.06-2.74,3.18-1.46,5.36-3.78,6.79-6.94.41-.9,1.32-2.01,2.08-.38,1.63,3.51,4.02,6.13,7.61,7.64.3.12.51.46.66.61h0Z"/>
    <path class="cls-5" d="m134.42,154.1c.71-.48,1.05-.81,1.45-.98,3.31-1.35,5.78-3.52,7.17-6.9.42-1.01,1.49-2.27,2.18-.39,1.41,3.85,4.42,5.76,7.79,7.43.3.15.52.46.77.69-.53.91-1.38,1.38-2.18,1.67-2.84,1.03-4.54,3.17-5.82,5.72-.97,1.93-2.09,2.46-2.99.16-1.49-3.81-5.05-5.18-8.38-7.4h.01Z"/>
  </g>
</svg>