<svg width="210" height="30" viewBox="0 0 210 30" fill="none" xmlns="http://www.w3.org/2000/svg">
<g clip-path="url(#clip0_3891_17206)">
<path d="M17.39 11.5903C16.4773 10.6808 15.3904 9.96498 14.1943 9.48584C11.5732 8.47368 8.66905 8.47368 6.04786 9.48584C4.84965 9.96429 3.76218 10.6832 2.85259 11.5983C1.943 12.5133 1.23059 13.605 0.759318 14.8062C-0.253106 17.4403 -0.253106 20.356 0.759318 22.9901C1.23188 24.1922 1.94607 25.2848 2.85771 26.1999C3.76937 27.115 4.85906 27.8333 6.05941 28.3104C8.6797 29.3275 11.5856 29.3275 14.2059 28.3104C15.4062 27.8333 16.4959 27.115 17.4076 26.1999C18.3192 25.2848 19.0334 24.1922 19.506 22.9901C20.522 20.3568 20.522 17.4395 19.506 14.8062C19.0269 13.6015 18.3068 12.5071 17.39 11.5903ZM14.7399 21.1975C14.4899 21.8386 14.1117 22.422 13.6285 22.9122C13.1674 23.3752 12.6175 23.7404 12.0119 23.9861C11.4113 24.2297 10.7693 24.3553 10.1211 24.3556C9.46692 24.359 8.8185 24.2335 8.21294 23.9861C7.61376 23.7381 7.07004 23.3729 6.61367 22.9122C6.13141 22.4214 5.75336 21.838 5.50226 21.1975C4.95447 19.7137 4.95447 18.0826 5.50226 16.5988C5.75336 15.9583 6.13141 15.3748 6.61367 14.8841C7.0694 14.4234 7.61333 14.0591 8.21294 13.8131C8.8178 13.5631 9.46658 13.4364 10.1211 13.4407C10.7696 13.4406 11.4119 13.5672 12.0119 13.8131C12.618 14.0565 13.168 14.4211 13.6285 14.8841C14.1117 15.3743 14.4899 15.9577 14.7399 16.5988C15.2877 18.0826 15.2877 19.7137 14.7399 21.1975ZM41.2808 13.5389C41.5899 14.622 41.7406 15.7441 41.7282 16.8702V28.4606H36.6215V17.4908C36.6215 16.1147 36.3167 15.0948 35.7064 14.4309C35.0964 13.7669 34.2065 13.4398 33.0362 13.4494C32.3898 13.4358 31.751 13.5911 31.1829 13.8997C30.6482 14.2005 30.1835 14.6119 29.8203 15.1064C29.424 15.6456 29.1304 16.2533 28.9543 16.8991C28.7563 17.6164 28.6592 18.3577 28.6657 19.1017V28.4606H23.5648V9.35016H28.3597V11.8443H28.6715C29.2652 10.8872 30.098 10.1012 31.0876 9.56378C32.1517 8.9924 33.3445 8.70413 34.5517 8.72662C35.6328 8.70272 36.7073 8.89916 37.7098 9.30397C38.5811 9.66453 39.3504 10.2335 39.95 10.961C40.5608 11.7232 41.0132 12.5996 41.2808 13.5389ZM59.3837 21.5496L64.0602 23.5704C63.2476 25.1601 62.0485 26.5201 60.573 27.5252C59.0777 28.5529 57.2128 29.0668 54.9785 29.0668C53.5839 29.0829 52.1997 28.824 50.9052 28.3047C49.707 27.8223 48.6195 27.1003 47.7096 26.1829C46.8069 25.2603 46.0921 24.1711 45.6051 22.9757C45.0881 21.6807 44.8303 20.2968 44.8459 18.9025C44.8312 17.5015 45.089 16.1113 45.6051 14.809C46.0777 13.607 46.7919 12.5144 47.7035 11.5993C48.6152 10.6842 49.7049 9.96588 50.9052 9.48873C52.2 8.97032 53.5842 8.71233 54.9785 8.72951C57.188 8.72951 59.0459 9.23567 60.5528 10.2479C62.017 11.2102 63.1688 12.5786 63.8668 14.1855L59.1903 16.1341C58.8147 15.3214 58.2287 14.6237 57.4929 14.1133C56.7143 13.6315 55.8096 13.3933 54.8948 13.4292C54.2386 13.4254 53.5888 13.5582 52.9866 13.8189C52.3769 14.0813 51.8273 14.4655 51.3718 14.9479C50.9159 15.4306 50.5637 16.0013 50.3366 16.6248C49.8169 18.0878 49.8169 19.6854 50.3366 21.1484C50.5637 21.7722 50.9159 22.3426 51.3718 22.8253C51.8273 23.3077 52.3769 23.6919 52.9866 23.9543C53.5888 24.2153 54.2386 24.3478 54.8948 24.344C55.8497 24.3746 56.7925 24.1238 57.6054 23.6223C58.3782 23.1088 58.9937 22.3914 59.3837 21.5496ZM83.569 10.909C84.7509 12.3639 85.3415 14.3509 85.3415 16.8702V28.4606H80.2377V17.4908C80.2377 16.1629 79.9259 15.1583 79.3024 14.4684C78.6788 13.7785 77.807 13.4494 76.6812 13.4494C76.0297 13.4372 75.3856 13.5923 74.8106 13.8997C74.2629 14.1991 73.7901 14.6185 73.4278 15.1266C73.0329 15.6742 72.7396 16.2882 72.5618 16.9395C72.3635 17.6565 72.2665 18.3982 72.2731 19.1421V28.4606H67.1808V0.539748H72.2846V8.37443L71.9729 11.8386H72.2846C72.862 10.8982 73.6752 10.125 74.6431 9.59554C75.6971 9.00883 76.887 8.71011 78.0928 8.72951C80.5622 8.7276 82.3875 9.45408 83.569 10.909ZM97.8845 8.72662C94.3762 8.72662 91.6087 9.99969 89.5822 12.5458L93.2859 15.0775C94.5081 13.5975 96.0023 12.8576 97.769 12.8576C98.855 12.822 99.9182 13.174 100.768 13.8506C101.151 14.1474 101.46 14.529 101.67 14.9652C101.879 15.4017 101.985 15.8809 101.978 16.365V16.9424C101.33 16.695 100.665 16.4923 99.989 16.3361C98.9768 16.1225 97.9434 16.0255 96.9088 16.0475C95.8597 16.0382 94.815 16.1889 93.8113 16.4949C92.9109 16.7694 92.0714 17.2131 91.3373 17.8026C90.6497 18.3569 90.0911 19.0543 89.7005 19.8464C89.3045 20.6801 89.107 21.5941 89.1232 22.5167C89.1128 23.4289 89.2987 24.3328 89.6688 25.1668C90.0209 25.9574 90.5397 26.6627 91.1901 27.2337C91.8616 27.818 92.6346 28.2741 93.4706 28.5789C94.3626 28.9071 95.306 29.0723 96.2564 29.0668C97.5805 29.0668 98.6651 28.807 99.5097 28.2874C100.33 27.7882 101.062 27.156 101.675 26.4167H101.987V28.4375H107.015V16.977C107.015 14.2499 106.235 12.1907 104.674 10.7993C103.114 9.4079 100.85 8.71701 97.8845 8.72662ZM101.637 22.3493C101.42 22.8732 101.102 23.3498 100.702 23.7522C100.262 24.1841 99.7407 24.5247 99.1685 24.7551C98.5964 24.9855 97.9847 25.1009 97.3678 25.0946C96.5777 25.1079 95.8049 24.8613 95.1681 24.3931C94.8658 24.1853 94.6201 23.9055 94.4533 23.5787C94.2864 23.2523 94.2039 22.8891 94.2125 22.5225C94.2122 22.1394 94.3017 21.7615 94.4744 21.4197C94.6467 21.0777 94.8973 20.7809 95.2056 20.5537C95.8695 20.0225 96.8118 19.757 98.0317 19.757C98.7344 19.7506 99.435 19.8352 100.116 20.0081C100.754 20.1784 101.374 20.4073 101.969 20.6923C101.971 21.2604 101.862 21.8236 101.646 22.3493H101.637ZM111.784 9.35882H116.891V28.4606H111.793L111.784 9.35882ZM116.657 1.19216C116.966 1.49434 117.212 1.85516 117.379 2.25348C117.547 2.65179 117.633 3.07955 117.633 3.51167C117.633 3.94379 117.547 4.37159 117.379 4.76987C117.212 5.16819 116.966 5.52903 116.657 5.83119C116.352 6.13912 115.987 6.38222 115.585 6.5459C115.183 6.70958 114.753 6.79052 114.319 6.78383C113.679 6.78051 113.054 6.58981 112.522 6.23528C111.99 5.88079 111.572 5.378 111.322 4.78907C110.984 3.96513 110.984 3.0409 111.322 2.21696C111.536 1.72384 111.867 1.29034 112.287 0.953999C112.706 0.617662 113.201 0.388684 113.729 0.286867C114.257 0.18508 114.801 0.213515 115.316 0.369747C115.83 0.526008 116.298 0.80533 116.68 1.1835L116.657 1.19216ZM139.708 13.5475C140.017 14.6306 140.168 15.7527 140.155 16.8788V28.4606H135.06V17.4908C135.06 16.1147 134.754 15.0948 134.142 14.4309C133.53 13.7669 132.64 13.4398 131.472 13.4494C130.827 13.4354 130.189 13.5905 129.622 13.8997C129.086 14.2005 128.621 14.6119 128.256 15.1064C127.862 15.6468 127.569 16.2542 127.39 16.8991C127.194 17.6167 127.097 18.3577 127.101 19.1017V28.4606H122.003V9.35016H126.795V11.8443H127.107C127.701 10.8872 128.534 10.1012 129.523 9.56378C130.588 8.9929 131.78 8.70465 132.988 8.72662C134.069 8.70295 135.143 8.89939 136.146 9.30397C137.017 9.66514 137.786 10.234 138.386 10.961C138.997 11.7231 139.449 12.5996 139.717 13.5389L139.708 13.5475ZM145.193 28.0622V0.932349H147.984V28.068L145.193 28.0622ZM159.295 28.6857C157.297 28.6857 155.608 28.0911 154.272 26.9133C153.632 26.3792 153.122 25.7077 152.777 24.9491C152.433 24.1905 152.264 23.364 152.283 22.5311C152.283 20.6663 152.964 19.2258 154.373 18.1259C155.782 17.0261 157.719 16.4545 160.112 16.4545C162.164 16.4545 163.864 16.8327 165.181 17.5746L165.758 17.9065V16.4112C165.762 15.7504 165.618 15.0971 165.34 14.4984C165.06 13.8994 164.653 13.3697 164.144 12.9471C163.122 12.0273 161.79 11.5255 160.415 11.5412C159.472 11.52 158.538 11.7271 157.693 12.1448C156.847 12.5625 156.115 13.1784 155.559 13.9401L153.071 12.3726C154.742 10.1787 157.086 9.11922 160.23 9.11922C162.765 9.11922 164.785 9.79761 166.237 11.14C167.689 12.4823 168.411 14.3356 168.411 16.6768V28.0535H165.767V24.1304C165.17 25.4889 164.225 26.6659 163.027 27.5426C161.932 28.3015 160.627 28.6984 159.295 28.6771V28.6857ZM160.698 18.5532C159.32 18.5067 157.962 18.901 156.824 19.679C155.744 20.4556 155.198 21.4428 155.198 22.6091C155.196 23.1252 155.316 23.635 155.549 24.0958C155.782 24.5565 156.121 24.9552 156.538 25.2591C157.4 25.9364 158.47 26.2961 159.566 26.2782C161.178 26.2698 162.722 25.6255 163.862 24.4855C164.458 23.9555 164.935 23.3051 165.263 22.577C165.589 21.849 165.758 21.06 165.758 20.2621V20.0716L165.611 19.9533C164.439 19.0179 162.779 18.5445 160.686 18.5445L160.698 18.5532ZM189.473 11.9483C187.822 10.0719 185.766 9.11922 183.376 9.11922C182.105 9.1088 180.85 9.40593 179.719 9.98525C178.487 10.6215 177.489 11.6323 176.869 12.872L176.474 13.6717V0.932349H173.677V28.068H176.321V24.1304C176.791 25.2277 177.489 26.2121 178.37 27.0172C179.713 28.2123 181.618 28.6771 183.379 28.6771C185.769 28.6771 187.822 27.7273 189.482 25.8451C191.205 23.9477 192.135 21.4619 192.08 18.8996C192.124 16.3356 191.193 13.8506 189.473 11.9483ZM187.412 24.1131C186.84 24.775 186.13 25.3042 185.332 25.6633C184.535 26.0221 183.668 26.2025 182.793 26.1916C181.915 26.2069 181.043 26.0322 180.238 25.6794C179.434 25.3267 178.715 24.8042 178.131 24.1477C176.927 22.7823 176.318 21.0156 176.318 18.8996C176.318 16.7836 176.927 15.0544 178.134 13.6861C178.716 13.0314 179.431 12.5073 180.23 12.1485C181.03 11.7897 181.896 11.6042 182.773 11.6042C183.649 11.6042 184.516 11.7897 185.315 12.1485C186.115 12.5073 186.829 13.0314 187.412 13.6861C188.642 15.0544 189.265 16.8067 189.265 18.8996C189.265 20.9925 188.642 22.7736 187.412 24.1131ZM202.475 28.6771C200.754 28.7097 199.064 28.2106 197.637 27.2481C196.386 26.4003 195.403 25.2124 194.805 23.8244L197.29 22.765C197.736 23.7531 198.433 24.607 199.311 25.2418C200.234 25.9124 201.346 26.2721 202.487 26.2695C203.569 26.3044 204.639 26.0256 205.567 25.467C206.447 24.8896 206.895 24.1968 206.895 23.3798C206.895 21.9711 205.858 20.9405 203.812 20.3141L200.518 19.4914C196.967 18.5965 195.241 16.9626 195.241 14.4944C195.22 13.736 195.389 12.9845 195.732 12.3079C196.076 11.6314 196.582 11.0513 197.207 10.6203C198.546 9.6244 200.298 9.11922 202.403 9.11922C203.94 9.10037 205.454 9.49947 206.782 10.2739C207.88 10.894 208.767 11.8305 209.325 12.9615L206.84 13.995C206.425 13.2623 205.812 12.6618 205.07 12.2629C204.17 11.7708 203.158 11.5183 202.131 11.5297C201.167 11.5172 200.219 11.7828 199.401 12.2947C198.535 12.8374 198.107 13.5273 198.107 14.3443C198.107 15.6375 199.245 16.5555 201.493 17.0665L204.366 17.8055C207.997 18.7004 209.761 20.4498 209.761 23.1518C209.761 24.702 209.097 25.9779 207.74 27.0518C206.384 28.1257 204.582 28.6771 202.475 28.6771Z" fill="#121212"/>
</g>
<defs>
<clipPath id="clip0_3891_17206">
<rect width="210" height="30" fill="white"/>
</clipPath>
</defs>
</svg>
