<svg width="164" height="36" viewBox="0 0 164 36" fill="none" xmlns="http://www.w3.org/2000/svg">
<g clip-path="url(#clip0_3891_17180)">
<path d="M137.491 9.54067C136.073 9.54067 134.926 9.87794 133.981 10.6534H133.745V2.93213H130.066V26.5672H133.677L133.745 16.5196C133.745 14.6992 135.33 13.2147 137.086 13.2147C138.942 13.2147 140.427 14.6979 140.427 16.5196V26.5672H144.037V16.5196C144.037 12.6756 140.933 9.54067 137.491 9.54067ZM155.04 23.4655C152.138 23.4655 149.742 21.1723 149.742 18.2391C149.742 15.306 152.138 12.9797 155.04 12.9797C157.942 12.9797 160.271 15.2729 160.271 18.2391C160.271 21.2055 157.976 23.4655 155.04 23.4655ZM155.04 9.47294C150.214 9.47294 146.266 13.4179 146.266 18.2391C146.266 23.0605 150.045 26.9722 154.77 26.9722C156.896 26.9722 158.988 26.2299 160.507 24.6459H160.743V26.5672H163.78V18.2391C163.78 13.4179 159.832 9.47294 155.04 9.47294ZM87.6499 23.4655C84.7475 23.4655 82.3515 21.1723 82.3515 18.2391C82.3515 15.306 84.7475 12.9797 87.6499 12.9797C90.5523 12.9797 92.8805 15.2729 92.8805 18.2391C92.8805 21.2055 90.5855 23.4655 87.6499 23.4655ZM104.489 13.3833H107.863V9.70792H104.489V4.24666H100.81V9.70931H98.1444V13.3847H100.81V19.8592C100.81 23.0618 103.239 26.9737 107.863 26.9737V23.2982C104.555 23.2982 104.489 19.9269 104.489 19.9269V13.3833ZM69.3599 9.5393C67.3346 9.5393 65.4449 10.4156 64.2649 11.9334H64.063C62.8814 10.4156 60.9917 9.5393 59.0011 9.5393C55.1539 9.5393 51.9817 12.6756 51.9817 16.5183V26.5659H55.6255V16.5196C55.6255 14.6992 57.1099 13.2147 58.9996 13.2147C60.8893 13.2147 62.3738 14.6979 62.3738 16.5196V26.5672H66.0177V16.5196C66.0177 14.6992 67.502 13.2147 69.3586 13.2147C71.2151 13.2147 72.7673 14.6979 72.7673 16.5196V26.5672H76.378V16.5196C76.378 12.6756 73.2391 9.54067 69.3586 9.54067L69.3599 9.5393ZM87.6499 9.47156C82.8246 9.47156 78.8764 13.4165 78.8764 18.2378C78.8764 23.0591 82.6558 26.9709 87.3801 26.9709C89.5065 26.9709 91.5982 26.2286 93.1503 24.6446H93.3868V26.5659H96.3903V18.2378C96.3903 13.3488 92.442 9.47156 87.6499 9.47156ZM119.034 23.2955C116.199 23.2955 113.871 21.07 113.871 18.2378C113.871 15.4056 116.199 13.147 119.034 13.147C121.059 13.147 122.813 14.3274 123.657 16.0124H127.47C126.525 12.2361 123.083 9.47156 119.034 9.47156C114.141 9.47156 110.226 13.4165 110.226 18.2378C110.226 23.0591 114.141 26.9709 119.034 26.9709C123.083 26.9709 126.525 24.1054 127.47 20.3292H123.657C122.813 22.1164 121.059 23.2955 119.034 23.2955Z" fill="#121212"/>
<path d="M26.5321 4.61574C26.4657 4.74845 26.3066 4.80512 26.171 4.74429C24.1554 3.82786 21.7054 3.51824 20.0951 3.51824C14.3056 3.51824 8.51468 6.33941 8.51468 10.9769C8.51468 13.4635 10.3809 15.5674 13.109 15.5674C16.1234 15.5674 18.3728 13.3682 20.1906 11.3598C21.8174 9.54348 23.7321 7.53506 26.4589 7.53506C29.4261 7.53506 31.5788 9.73423 31.5788 12.6991C31.5788 17.385 25.9317 22.6445 18.1321 22.6445C10.3325 22.6445 4.6868 18.4839 4.6868 12.6991C4.6868 7.29594 11.0989 2.41934 18.1335 2.41934C21.7234 2.41934 24.4265 3.17129 26.4158 4.24945C26.5474 4.32133 26.5986 4.48166 26.5321 4.61574ZM18.1335 0.554688C8.51468 0.554688 0.666626 8.3962 0.666626 18.007C0.666626 27.6179 8.51468 35.5547 18.1335 35.5547C27.7523 35.5547 35.6958 27.7132 35.6958 18.007C35.6958 8.30083 27.8463 0.554688 18.1335 0.554688Z" fill="#121212"/>
</g>
<defs>
<clipPath id="clip0_3891_17180">
<rect width="163.333" height="35" fill="white" transform="translate(0.666626 0.554688)"/>
</clipPath>
</defs>
</svg>
