<svg width="47" height="46" viewBox="0 0 47 46" fill="none" xmlns="http://www.w3.org/2000/svg">
<g clip-path="url(#clip0_3932_20062)">
<g clip-path="url(#clip1_3932_20062)">
<path d="M20.458 40.25C31.5727 40.25 40.583 31.2397 40.583 20.125C40.583 9.01027 31.5727 0 20.458 0C9.34328 0 0.333008 9.01027 0.333008 20.125C0.333008 31.2397 9.34328 40.25 20.458 40.25Z" fill="url(#paint0_linear_3932_20062)"/>
<path d="M20.458 40.25C31.5727 40.25 40.583 31.2397 40.583 20.125C40.583 9.01027 31.5727 0 20.458 0C9.34328 0 0.333008 9.01027 0.333008 20.125C0.333008 31.2397 9.34328 40.25 20.458 40.25Z" fill="url(#paint1_radial_3932_20062)"/>
<path d="M20.458 1.25781C30.8601 1.25781 39.3252 9.72289 39.3252 20.125C39.3252 30.5271 30.8601 38.9922 20.458 38.9922C10.0559 38.9922 1.59082 30.5271 1.59082 20.125C1.59082 9.72289 10.0559 1.25781 20.458 1.25781ZM20.458 0C9.33895 0 0.333008 9.00594 0.333008 20.125C0.333008 31.2441 9.33895 40.25 20.458 40.25C31.5771 40.25 40.583 31.2441 40.583 20.125C40.583 9.00594 31.5771 0 20.458 0Z" fill="url(#paint2_linear_3932_20062)"/>
<path d="M21.2646 23.0277V21.4152H22.8772V19.8026H21.2646V16.5775H19.6521V21.4152H13.2019V23.0277H19.6521V29.4779H18.0395V31.0905H16.427V32.703H24.4897V31.0905H22.8772V29.4779H21.2646V24.6403H27.7148V23.0277H21.2646Z" fill="#272B38" fill-opacity="0.45"/>
<path d="M29.3274 21.4153H27.7149L27.7148 23.0277L29.3274 23.0279V21.4153Z" fill="#272B38" fill-opacity="0.45"/>
<path d="M30.94 19.8023H29.3274V21.4148H30.94V19.8023Z" fill="#272B38" fill-opacity="0.45"/>
<path d="M13.2019 19.8023H11.5894V21.4148L13.2019 21.4152L13.2019 19.8023Z" fill="#272B38" fill-opacity="0.45"/>
<path d="M24.4898 18.1897H22.8772L22.8772 19.8026L24.4898 19.8023V18.1897Z" fill="#272B38" fill-opacity="0.45"/>
<path d="M11.5894 18.1897H9.97681V19.8023H11.5894V18.1897Z" fill="#272B38" fill-opacity="0.45"/>
<path d="M26.1023 16.5775H24.4898V18.1897L26.1023 18.1901V16.5775Z" fill="#272B38" fill-opacity="0.45"/>
<path d="M26.1023 14.9646V16.5775L30.94 16.5772L30.94 19.8023H32.5525V14.9646H26.1023Z" fill="#272B38" fill-opacity="0.45"/>
<path d="M19.6521 14.9646H18.0396V16.5772L19.6521 16.5775L19.6521 14.9646Z" fill="#272B38" fill-opacity="0.45"/>
<path d="M9.97681 13.3521H16.427V11.7395H8.36426V18.1897L9.97681 18.1897V13.3521Z" fill="#272B38" fill-opacity="0.45"/>
<path d="M18.0396 13.3526H16.427V14.9651H18.0396V13.3526Z" fill="#272B38" fill-opacity="0.45"/>
<path d="M21.2646 21.7699V20.1574H22.8772V18.5448H21.2646V15.3197H19.6521V20.1574H13.2019V21.7699H19.6521V28.2201H18.0395V29.8327H16.427V31.4452H24.4897V29.8327H22.8772V28.2201H21.2646V23.3825H27.7148V21.7699H21.2646Z" fill="url(#paint3_linear_3932_20062)"/>
<path d="M29.3274 20.1575H27.7149L27.7148 21.7699L29.3274 21.7701V20.1575Z" fill="url(#paint4_linear_3932_20062)"/>
<path d="M30.94 18.5444H29.3274V20.157H30.94V18.5444Z" fill="url(#paint5_linear_3932_20062)"/>
<path d="M13.2019 18.5444H11.5894V20.157L13.2019 20.1574L13.2019 18.5444Z" fill="url(#paint6_linear_3932_20062)"/>
<path d="M24.4898 16.9319H22.8772L22.8772 18.5448L24.4898 18.5444V16.9319Z" fill="url(#paint7_linear_3932_20062)"/>
<path d="M11.5894 16.9319H9.97681V18.5444H11.5894V16.9319Z" fill="url(#paint8_linear_3932_20062)"/>
<path d="M26.1023 15.3197H24.4898V16.9319L26.1023 16.9323V15.3197Z" fill="url(#paint9_linear_3932_20062)"/>
<path d="M26.1023 13.7068V15.3197L30.94 15.3193L30.94 18.5444H32.5525V13.7068H26.1023Z" fill="url(#paint10_linear_3932_20062)"/>
<path d="M19.6521 13.7068H18.0396V15.3193L19.6521 15.3197L19.6521 13.7068Z" fill="url(#paint11_linear_3932_20062)"/>
<path d="M9.97681 12.0942H16.427V10.4817H8.36426V16.9319L9.97681 16.9319V12.0942Z" fill="url(#paint12_linear_3932_20062)"/>
<path d="M18.0396 12.0948H16.427V13.7073H18.0396V12.0948Z" fill="url(#paint13_linear_3932_20062)"/>
</g>
<path d="M39.5179 26.6034C37.5119 32.5069 32.8402 37.1787 26.9367 39.1847C26.7735 38.4478 26.6875 37.6819 26.6875 36.8959C26.6875 31.0739 31.4072 26.3542 37.2292 26.3542C38.0151 26.3542 38.781 26.4403 39.5179 26.6034Z" fill="white"/>
<circle cx="37.2292" cy="36.8959" r="9.10416" fill="#8247E5"/>
<path d="M40.2229 34.9053C40.0102 34.7837 39.7366 34.7837 39.4935 34.9053L37.7915 35.9082L36.6366 36.5465L34.9651 37.5494C34.7523 37.671 34.4788 37.671 34.2357 37.5494L32.9288 36.7592C32.716 36.6377 32.5641 36.3945 32.5641 36.121V34.6014C32.5641 34.3582 32.6857 34.1151 32.9288 33.9631L34.2357 33.2033C34.4484 33.0818 34.7219 33.0818 34.9651 33.2033L36.2719 33.9935C36.4847 34.1151 36.6366 34.3582 36.6366 34.6318V35.6347L37.7915 34.9661V33.9327C37.7915 33.6896 37.67 33.4465 37.4268 33.2945L34.9955 31.8661C34.7827 31.7445 34.5092 31.7445 34.266 31.8661L31.7739 33.3249C31.5307 33.4465 31.4092 33.6896 31.4092 33.9327V36.7896C31.4092 37.0328 31.5307 37.2759 31.7739 37.4279L34.2357 38.8563C34.4484 38.9779 34.7219 38.9779 34.9651 38.8563L36.6366 37.8837L37.7915 37.2151L39.4631 36.2426C39.6759 36.121 39.9494 36.121 40.1925 36.2426L41.4994 37.0024C41.7121 37.1239 41.8641 37.3671 41.8641 37.6406V39.1602C41.8641 39.4033 41.7425 39.6465 41.4994 39.7984L40.2229 40.5583C40.0102 40.6798 39.7366 40.6798 39.4935 40.5583L38.1866 39.7984C37.9739 39.6769 37.8219 39.4337 37.8219 39.1602V38.1877L36.667 38.8563V39.8592C36.667 40.1024 36.7886 40.3455 37.0317 40.4975L39.4935 41.9259C39.7063 42.0475 39.9798 42.0475 40.2229 41.9259L42.6847 40.4975C42.8974 40.3759 43.0494 40.1328 43.0494 39.8592V36.972C43.0494 36.7288 42.9278 36.4857 42.6847 36.3337L40.2229 34.9053Z" fill="white"/>
</g>
<defs>
<linearGradient id="paint0_linear_3932_20062" x1="20.458" y1="40.25" x2="20.458" y2="0" gradientUnits="userSpaceOnUse">
<stop stop-color="#424756"/>
<stop offset="0.31" stop-color="#505565"/>
<stop offset="0.42" stop-color="#5F6475"/>
<stop offset="0.61" stop-color="#747A8B"/>
<stop offset="0.73" stop-color="#7C8394"/>
<stop offset="0.88" stop-color="#757C8C"/>
<stop offset="1" stop-color="#6E7484"/>
</linearGradient>
<radialGradient id="paint1_radial_3932_20062" cx="0" cy="0" r="1" gradientUnits="userSpaceOnUse" gradientTransform="translate(20.458 20.125) rotate(90) scale(20.125)">
<stop offset="0.80207" stop-color="#272B38" stop-opacity="0"/>
<stop offset="0.848055" stop-color="#272B38" stop-opacity="0.0421641"/>
<stop offset="0.882811" stop-color="#272B38" stop-opacity="0.0948692"/>
<stop offset="0.913817" stop-color="#272B38" stop-opacity="0.15"/>
<stop offset="0.957038" stop-color="#272B38" stop-opacity="0.34"/>
</radialGradient>
<linearGradient id="paint2_linear_3932_20062" x1="20.458" y1="40.25" x2="20.458" y2="0" gradientUnits="userSpaceOnUse">
<stop stop-color="#6D6E7C"/>
<stop offset="0.17" stop-color="#7A7C8A"/>
<stop offset="0.51" stop-color="#9EA2B1"/>
<stop offset="0.67" stop-color="#B3B8C7"/>
</linearGradient>
<linearGradient id="paint3_linear_3932_20062" x1="20.4584" y1="11.2211" x2="20.4584" y2="32.4894" gradientUnits="userSpaceOnUse">
<stop offset="0.4" stop-color="white"/>
<stop offset="0.655" stop-color="#EAEAEC"/>
<stop offset="0.85" stop-color="#C4C6CB"/>
<stop offset="0.99" stop-color="#B6B8BF"/>
</linearGradient>
<linearGradient id="paint4_linear_3932_20062" x1="20.4584" y1="11.2211" x2="20.4584" y2="32.4894" gradientUnits="userSpaceOnUse">
<stop offset="0.4" stop-color="white"/>
<stop offset="0.655" stop-color="#EAEAEC"/>
<stop offset="0.85" stop-color="#C4C6CB"/>
<stop offset="0.99" stop-color="#B6B8BF"/>
</linearGradient>
<linearGradient id="paint5_linear_3932_20062" x1="20.4584" y1="11.2211" x2="20.4584" y2="32.4894" gradientUnits="userSpaceOnUse">
<stop offset="0.4" stop-color="white"/>
<stop offset="0.655" stop-color="#EAEAEC"/>
<stop offset="0.85" stop-color="#C4C6CB"/>
<stop offset="0.99" stop-color="#B6B8BF"/>
</linearGradient>
<linearGradient id="paint6_linear_3932_20062" x1="20.4584" y1="11.2211" x2="20.4584" y2="32.4894" gradientUnits="userSpaceOnUse">
<stop offset="0.4" stop-color="white"/>
<stop offset="0.655" stop-color="#EAEAEC"/>
<stop offset="0.85" stop-color="#C4C6CB"/>
<stop offset="0.99" stop-color="#B6B8BF"/>
</linearGradient>
<linearGradient id="paint7_linear_3932_20062" x1="20.4584" y1="11.2211" x2="20.4584" y2="32.4894" gradientUnits="userSpaceOnUse">
<stop offset="0.4" stop-color="white"/>
<stop offset="0.655" stop-color="#EAEAEC"/>
<stop offset="0.85" stop-color="#C4C6CB"/>
<stop offset="0.99" stop-color="#B6B8BF"/>
</linearGradient>
<linearGradient id="paint8_linear_3932_20062" x1="20.4584" y1="11.2211" x2="20.4584" y2="32.4894" gradientUnits="userSpaceOnUse">
<stop offset="0.4" stop-color="white"/>
<stop offset="0.655" stop-color="#EAEAEC"/>
<stop offset="0.85" stop-color="#C4C6CB"/>
<stop offset="0.99" stop-color="#B6B8BF"/>
</linearGradient>
<linearGradient id="paint9_linear_3932_20062" x1="20.4584" y1="11.2211" x2="20.4584" y2="32.4894" gradientUnits="userSpaceOnUse">
<stop offset="0.4" stop-color="white"/>
<stop offset="0.655" stop-color="#EAEAEC"/>
<stop offset="0.85" stop-color="#C4C6CB"/>
<stop offset="0.99" stop-color="#B6B8BF"/>
</linearGradient>
<linearGradient id="paint10_linear_3932_20062" x1="20.4584" y1="11.2211" x2="20.4584" y2="32.4894" gradientUnits="userSpaceOnUse">
<stop offset="0.4" stop-color="white"/>
<stop offset="0.655" stop-color="#EAEAEC"/>
<stop offset="0.85" stop-color="#C4C6CB"/>
<stop offset="0.99" stop-color="#B6B8BF"/>
</linearGradient>
<linearGradient id="paint11_linear_3932_20062" x1="20.4584" y1="11.2211" x2="20.4584" y2="32.4894" gradientUnits="userSpaceOnUse">
<stop offset="0.4" stop-color="white"/>
<stop offset="0.655" stop-color="#EAEAEC"/>
<stop offset="0.85" stop-color="#C4C6CB"/>
<stop offset="0.99" stop-color="#B6B8BF"/>
</linearGradient>
<linearGradient id="paint12_linear_3932_20062" x1="20.4584" y1="11.2211" x2="20.4584" y2="32.4894" gradientUnits="userSpaceOnUse">
<stop offset="0.4" stop-color="white"/>
<stop offset="0.655" stop-color="#EAEAEC"/>
<stop offset="0.85" stop-color="#C4C6CB"/>
<stop offset="0.99" stop-color="#B6B8BF"/>
</linearGradient>
<linearGradient id="paint13_linear_3932_20062" x1="20.4584" y1="11.2211" x2="20.4584" y2="32.4894" gradientUnits="userSpaceOnUse">
<stop offset="0.4" stop-color="white"/>
<stop offset="0.655" stop-color="#EAEAEC"/>
<stop offset="0.85" stop-color="#C4C6CB"/>
<stop offset="0.99" stop-color="#B6B8BF"/>
</linearGradient>
<clipPath id="clip0_3932_20062">
<rect width="46" height="46" fill="white" transform="translate(0.333008)"/>
</clipPath>
<clipPath id="clip1_3932_20062">
<rect width="40.25" height="40.25" fill="white" transform="translate(0.333008)"/>
</clipPath>
</defs>
</svg>
