<svg width="47" height="46" viewBox="0 0 47 46" fill="none" xmlns="http://www.w3.org/2000/svg">
<g clip-path="url(#clip0_3932_20160)">
<g clip-path="url(#clip1_3932_20160)">
<path d="M20.792 40.25C31.9067 40.25 40.917 31.2397 40.917 20.125C40.917 9.01027 31.9067 0 20.792 0C9.67726 0 0.666992 9.01027 0.666992 20.125C0.666992 31.2397 9.67726 40.25 20.792 40.25Z" fill="url(#paint0_linear_3932_20160)"/>
<path d="M20.792 40.25C31.9067 40.25 40.917 31.2397 40.917 20.125C40.917 9.01027 31.9067 0 20.792 0C9.67726 0 0.666992 9.01027 0.666992 20.125C0.666992 31.2397 9.67726 40.25 20.792 40.25Z" fill="url(#paint1_radial_3932_20160)"/>
<path d="M20.792 1.25781C31.1941 1.25781 39.6592 9.72289 39.6592 20.125C39.6592 30.5271 31.1941 38.9922 20.792 38.9922C10.3899 38.9922 1.9248 30.5271 1.9248 20.125C1.9248 9.72289 10.3899 1.25781 20.792 1.25781ZM20.792 0C9.67293 0 0.666992 9.00594 0.666992 20.125C0.666992 31.2441 9.67293 40.25 20.792 40.25C31.9111 40.25 40.917 31.2441 40.917 20.125C40.917 9.00594 31.9111 0 20.792 0Z" fill="url(#paint2_linear_3932_20160)"/>
<path d="M21.5986 23.0277V21.4152H23.2112V19.8026H21.5986V16.5775H19.9861V21.4152H13.5359V23.0277H19.9861V29.4779H18.3735V31.0905H16.761V32.703H24.8237V31.0905H23.2112V29.4779H21.5986V24.6403H28.0488V23.0277H21.5986Z" fill="#272B38" fill-opacity="0.45"/>
<path d="M29.6614 21.4153H28.0489L28.0488 23.0277L29.6614 23.0279V21.4153Z" fill="#272B38" fill-opacity="0.45"/>
<path d="M31.2739 19.8023H29.6614V21.4148H31.2739V19.8023Z" fill="#272B38" fill-opacity="0.45"/>
<path d="M13.5359 19.8023H11.9233V21.4148L13.5359 21.4152L13.5359 19.8023Z" fill="#272B38" fill-opacity="0.45"/>
<path d="M24.8237 18.1897H23.2112L23.2112 19.8026L24.8237 19.8023V18.1897Z" fill="#272B38" fill-opacity="0.45"/>
<path d="M11.9233 18.1897H10.3108V19.8023H11.9233V18.1897Z" fill="#272B38" fill-opacity="0.45"/>
<path d="M26.4363 16.5775H24.8237V18.1897L26.4363 18.1901V16.5775Z" fill="#272B38" fill-opacity="0.45"/>
<path d="M26.4363 14.9646V16.5775L31.2739 16.5772L31.2739 19.8023H32.8865V14.9646H26.4363Z" fill="#272B38" fill-opacity="0.45"/>
<path d="M19.9861 14.9646H18.3735V16.5772L19.9861 16.5775L19.9861 14.9646Z" fill="#272B38" fill-opacity="0.45"/>
<path d="M10.3108 13.3521H16.761V11.7395H8.69824V18.1897L10.3108 18.1897V13.3521Z" fill="#272B38" fill-opacity="0.45"/>
<path d="M18.3735 13.3526H16.761V14.9651H18.3735V13.3526Z" fill="#272B38" fill-opacity="0.45"/>
<path d="M21.5986 21.7699V20.1574H23.2112V18.5448H21.5986V15.3197H19.9861V20.1574H13.5359V21.7699H19.9861V28.2201H18.3735V29.8327H16.761V31.4452H24.8237V29.8327H23.2112V28.2201H21.5986V23.3825H28.0488V21.7699H21.5986Z" fill="url(#paint3_linear_3932_20160)"/>
<path d="M29.6614 20.1575H28.0489L28.0488 21.7699L29.6614 21.7701V20.1575Z" fill="url(#paint4_linear_3932_20160)"/>
<path d="M31.2739 18.5444H29.6614V20.157H31.2739V18.5444Z" fill="url(#paint5_linear_3932_20160)"/>
<path d="M13.5359 18.5444H11.9233V20.157L13.5359 20.1574L13.5359 18.5444Z" fill="url(#paint6_linear_3932_20160)"/>
<path d="M24.8237 16.9319H23.2112L23.2112 18.5448L24.8237 18.5444V16.9319Z" fill="url(#paint7_linear_3932_20160)"/>
<path d="M11.9233 16.9319H10.3108V18.5444H11.9233V16.9319Z" fill="url(#paint8_linear_3932_20160)"/>
<path d="M26.4363 15.3197H24.8237V16.9319L26.4363 16.9323V15.3197Z" fill="url(#paint9_linear_3932_20160)"/>
<path d="M26.4363 13.7068V15.3197L31.2739 15.3193L31.2739 18.5444H32.8865V13.7068H26.4363Z" fill="url(#paint10_linear_3932_20160)"/>
<path d="M19.9861 13.7068H18.3735V15.3193L19.9861 15.3197L19.9861 13.7068Z" fill="url(#paint11_linear_3932_20160)"/>
<path d="M10.3108 12.0942H16.761V10.4817H8.69824V16.9319L10.3108 16.9319V12.0942Z" fill="url(#paint12_linear_3932_20160)"/>
<path d="M18.3735 12.0948H16.761V13.7073H18.3735V12.0948Z" fill="url(#paint13_linear_3932_20160)"/>
</g>
<path d="M39.8519 26.6034C37.8459 32.5069 33.1742 37.1787 27.2706 39.1847C27.1075 38.4478 27.0215 37.6819 27.0215 36.8959C27.0215 31.0739 31.7411 26.3542 37.5632 26.3542C38.3491 26.3542 39.115 26.4403 39.8519 26.6034Z" fill="white"/>
<g clip-path="url(#clip2_3932_20160)">
<path d="M37.5631 46.0001C42.5912 46.0001 46.6673 41.924 46.6673 36.8959C46.6673 31.8678 42.5912 27.7917 37.5631 27.7917C32.5351 27.7917 28.459 31.8678 28.459 36.8959C28.459 41.924 32.5351 46.0001 37.5631 46.0001Z" fill="#121212"/>
<path d="M33.8585 39.1427C33.9247 39.077 34.0158 39.0387 34.1124 39.0387H42.8704C43.0304 39.0387 43.1105 39.2304 42.9973 39.3426L41.2672 41.0595C41.201 41.1252 41.11 41.1636 41.0134 41.1636H32.2554C32.0953 41.1636 32.0153 40.9719 32.1284 40.8596L33.8585 39.1427Z" fill="url(#paint14_linear_3932_20160)"/>
<path d="M33.8583 32.7325C33.9272 32.6668 34.0183 32.6284 34.1121 32.6284H42.8702C43.0302 32.6284 43.1102 32.8201 42.9971 32.9324L41.267 34.6493C41.2008 34.715 41.1097 34.7533 41.0131 34.7533H32.2551C32.0951 34.7533 32.015 34.5616 32.1282 34.4494L33.8583 32.7325Z" fill="url(#paint15_linear_3932_20160)"/>
<path d="M41.2672 35.9171C41.201 35.8513 41.11 35.813 41.0134 35.813H32.2554C32.0953 35.813 32.0153 36.0047 32.1284 36.117L33.8585 37.8338C33.9247 37.8996 34.0158 37.9379 34.1124 37.9379H42.8704C43.0304 37.9379 43.1105 37.7462 42.9973 37.6339L41.2672 35.9171Z" fill="url(#paint16_linear_3932_20160)"/>
</g>
</g>
<defs>
<linearGradient id="paint0_linear_3932_20160" x1="20.792" y1="40.25" x2="20.792" y2="0" gradientUnits="userSpaceOnUse">
<stop stop-color="#424756"/>
<stop offset="0.31" stop-color="#505565"/>
<stop offset="0.42" stop-color="#5F6475"/>
<stop offset="0.61" stop-color="#747A8B"/>
<stop offset="0.73" stop-color="#7C8394"/>
<stop offset="0.88" stop-color="#757C8C"/>
<stop offset="1" stop-color="#6E7484"/>
</linearGradient>
<radialGradient id="paint1_radial_3932_20160" cx="0" cy="0" r="1" gradientUnits="userSpaceOnUse" gradientTransform="translate(20.792 20.125) rotate(90) scale(20.125)">
<stop offset="0.80207" stop-color="#272B38" stop-opacity="0"/>
<stop offset="0.848055" stop-color="#272B38" stop-opacity="0.0421641"/>
<stop offset="0.882811" stop-color="#272B38" stop-opacity="0.0948692"/>
<stop offset="0.913817" stop-color="#272B38" stop-opacity="0.15"/>
<stop offset="0.957038" stop-color="#272B38" stop-opacity="0.34"/>
</radialGradient>
<linearGradient id="paint2_linear_3932_20160" x1="20.792" y1="40.25" x2="20.792" y2="0" gradientUnits="userSpaceOnUse">
<stop stop-color="#6D6E7C"/>
<stop offset="0.17" stop-color="#7A7C8A"/>
<stop offset="0.51" stop-color="#9EA2B1"/>
<stop offset="0.67" stop-color="#B3B8C7"/>
</linearGradient>
<linearGradient id="paint3_linear_3932_20160" x1="20.7924" y1="11.2211" x2="20.7924" y2="32.4894" gradientUnits="userSpaceOnUse">
<stop offset="0.4" stop-color="white"/>
<stop offset="0.655" stop-color="#EAEAEC"/>
<stop offset="0.85" stop-color="#C4C6CB"/>
<stop offset="0.99" stop-color="#B6B8BF"/>
</linearGradient>
<linearGradient id="paint4_linear_3932_20160" x1="20.7924" y1="11.2211" x2="20.7924" y2="32.4894" gradientUnits="userSpaceOnUse">
<stop offset="0.4" stop-color="white"/>
<stop offset="0.655" stop-color="#EAEAEC"/>
<stop offset="0.85" stop-color="#C4C6CB"/>
<stop offset="0.99" stop-color="#B6B8BF"/>
</linearGradient>
<linearGradient id="paint5_linear_3932_20160" x1="20.7924" y1="11.2211" x2="20.7924" y2="32.4894" gradientUnits="userSpaceOnUse">
<stop offset="0.4" stop-color="white"/>
<stop offset="0.655" stop-color="#EAEAEC"/>
<stop offset="0.85" stop-color="#C4C6CB"/>
<stop offset="0.99" stop-color="#B6B8BF"/>
</linearGradient>
<linearGradient id="paint6_linear_3932_20160" x1="20.7924" y1="11.2211" x2="20.7924" y2="32.4894" gradientUnits="userSpaceOnUse">
<stop offset="0.4" stop-color="white"/>
<stop offset="0.655" stop-color="#EAEAEC"/>
<stop offset="0.85" stop-color="#C4C6CB"/>
<stop offset="0.99" stop-color="#B6B8BF"/>
</linearGradient>
<linearGradient id="paint7_linear_3932_20160" x1="20.7924" y1="11.2211" x2="20.7924" y2="32.4894" gradientUnits="userSpaceOnUse">
<stop offset="0.4" stop-color="white"/>
<stop offset="0.655" stop-color="#EAEAEC"/>
<stop offset="0.85" stop-color="#C4C6CB"/>
<stop offset="0.99" stop-color="#B6B8BF"/>
</linearGradient>
<linearGradient id="paint8_linear_3932_20160" x1="20.7924" y1="11.2211" x2="20.7924" y2="32.4894" gradientUnits="userSpaceOnUse">
<stop offset="0.4" stop-color="white"/>
<stop offset="0.655" stop-color="#EAEAEC"/>
<stop offset="0.85" stop-color="#C4C6CB"/>
<stop offset="0.99" stop-color="#B6B8BF"/>
</linearGradient>
<linearGradient id="paint9_linear_3932_20160" x1="20.7924" y1="11.2211" x2="20.7924" y2="32.4894" gradientUnits="userSpaceOnUse">
<stop offset="0.4" stop-color="white"/>
<stop offset="0.655" stop-color="#EAEAEC"/>
<stop offset="0.85" stop-color="#C4C6CB"/>
<stop offset="0.99" stop-color="#B6B8BF"/>
</linearGradient>
<linearGradient id="paint10_linear_3932_20160" x1="20.7924" y1="11.2211" x2="20.7924" y2="32.4894" gradientUnits="userSpaceOnUse">
<stop offset="0.4" stop-color="white"/>
<stop offset="0.655" stop-color="#EAEAEC"/>
<stop offset="0.85" stop-color="#C4C6CB"/>
<stop offset="0.99" stop-color="#B6B8BF"/>
</linearGradient>
<linearGradient id="paint11_linear_3932_20160" x1="20.7924" y1="11.2211" x2="20.7924" y2="32.4894" gradientUnits="userSpaceOnUse">
<stop offset="0.4" stop-color="white"/>
<stop offset="0.655" stop-color="#EAEAEC"/>
<stop offset="0.85" stop-color="#C4C6CB"/>
<stop offset="0.99" stop-color="#B6B8BF"/>
</linearGradient>
<linearGradient id="paint12_linear_3932_20160" x1="20.7924" y1="11.2211" x2="20.7924" y2="32.4894" gradientUnits="userSpaceOnUse">
<stop offset="0.4" stop-color="white"/>
<stop offset="0.655" stop-color="#EAEAEC"/>
<stop offset="0.85" stop-color="#C4C6CB"/>
<stop offset="0.99" stop-color="#B6B8BF"/>
</linearGradient>
<linearGradient id="paint13_linear_3932_20160" x1="20.7924" y1="11.2211" x2="20.7924" y2="32.4894" gradientUnits="userSpaceOnUse">
<stop offset="0.4" stop-color="white"/>
<stop offset="0.655" stop-color="#EAEAEC"/>
<stop offset="0.85" stop-color="#C4C6CB"/>
<stop offset="0.99" stop-color="#B6B8BF"/>
</linearGradient>
<linearGradient id="paint14_linear_3932_20160" x1="42.0337" y1="2.76033" x2="19.0432" y2="13.808" gradientUnits="userSpaceOnUse">
<stop stop-color="#00FFA3"/>
<stop offset="1" stop-color="#DC1FFF"/>
</linearGradient>
<linearGradient id="paint15_linear_3932_20160" x1="39.3834" y1="22.9932" x2="16.3928" y2="34.0409" gradientUnits="userSpaceOnUse">
<stop stop-color="#00FFA3"/>
<stop offset="1" stop-color="#DC1FFF"/>
</linearGradient>
<linearGradient id="paint16_linear_3932_20160" x1="40.7002" y1="30.9119" x2="34.7116" y2="42.4707" gradientUnits="userSpaceOnUse">
<stop stop-color="#00FFA3"/>
<stop offset="1" stop-color="#DC1FFF"/>
</linearGradient>
<clipPath id="clip0_3932_20160">
<rect width="46" height="46" fill="white" transform="translate(0.666992)"/>
</clipPath>
<clipPath id="clip1_3932_20160">
<rect width="40.25" height="40.25" fill="white" transform="translate(0.666992)"/>
</clipPath>
<clipPath id="clip2_3932_20160">
<rect width="18.2083" height="18.2083" fill="white" transform="translate(28.459 27.7917)"/>
</clipPath>
</defs>
</svg>
