<svg width="30" height="30" viewBox="0 0 30 30" fill="none" xmlns="http://www.w3.org/2000/svg">
<path d="M15.0281 29.9912H14.9621C6.71181 29.9912 -0.000488281 23.2789 -0.000488281 15.0286V14.9626C-0.000488281 6.7123 6.71181 0 14.9621 0H15.0281C23.2784 0 29.9907 6.7123 29.9907 14.9626V15.0286C29.9907 23.2789 23.2784 29.9912 15.0281 29.9912ZM14.9621 1.01517C7.27117 1.01517 1.01468 7.27166 1.01468 14.9626V15.0286C1.01468 22.7195 7.27117 28.976 14.9621 28.976H15.0281C22.719 28.976 28.9755 22.7195 28.9755 15.0286V14.9626C28.9755 7.27166 22.719 1.01517 15.0281 1.01517H14.9621Z" fill="white"/>
<path d="M20.8475 11.7676C20.8428 11.6956 20.8312 11.6237 20.8196 11.5517C20.8057 11.4774 20.7894 11.4055 20.7709 11.3312C20.75 11.2592 20.7267 11.1873 20.7012 11.1176C20.6757 11.048 20.6478 10.9807 20.6153 10.9157C20.5851 10.8507 20.5526 10.7903 20.5178 10.7346C20.483 10.6789 20.4482 10.6278 20.411 10.5837C20.3739 10.5373 20.3368 10.4978 20.2973 10.4653C20.2578 10.4328 20.2207 10.405 20.1836 10.3864C20.1464 10.3678 20.1093 10.3539 20.0721 10.3493C20.0373 10.3446 20.0025 10.3446 19.97 10.3539C19.9375 10.3632 19.9073 10.3795 19.8795 10.4027C19.8702 10.4096 19.8609 10.4212 19.8516 10.4305C19.1877 10.7462 17.4328 10.2587 17.4328 10.2587C17.528 10.7532 17.7601 11.6817 17.904 12.2063C17.976 12.471 18.1037 12.9167 18.2174 13.2904C18.2731 13.4738 18.3242 13.6409 18.366 13.7639C18.366 13.7639 19.7355 12.6311 20.4273 12.5754C20.4435 12.5801 20.4621 12.5847 20.4784 12.587C20.5132 12.5917 20.548 12.5917 20.5805 12.5824C20.613 12.5731 20.6432 12.5569 20.671 12.5336C20.6989 12.5104 20.7244 12.4803 20.7476 12.4454C20.7708 12.4083 20.7894 12.3665 20.8057 12.3201C20.8219 12.2713 20.8335 12.2179 20.8428 12.1599C20.8521 12.1019 20.8567 12.0392 20.8591 11.9742C20.8591 11.9092 20.8591 11.8396 20.8521 11.7699L20.8475 11.7676Z" fill="white"/>
<path d="M22.5026 14.465C22.4283 13.4204 22.2147 12.2342 21.8851 11.0341C21.4464 9.43235 20.8521 7.97689 20.2091 6.93461C19.5591 5.88073 18.9347 5.37468 18.4518 5.507C18.2035 5.57432 18.0108 5.80413 17.8785 6.17786C17.6742 6.39374 17.4514 6.61195 17.2169 6.82783C14.7168 9.11665 10.9679 10.8855 8.26124 11.9672L8.20553 11.9881C8.12661 12.0183 8.05 12.0508 7.9734 12.081L7.95947 12.0879C7.81787 12.1437 7.68324 12.1947 7.55092 12.2458C7.52306 12.2551 7.49521 12.2667 7.46967 12.276C7.44878 12.2829 7.42789 12.2922 7.407 12.2992C7.36986 12.3131 7.33272 12.327 7.29557 12.341L7.27236 12.3503C7.19576 12.3781 7.11915 12.4129 7.04487 12.4478C6.97059 12.4849 6.89631 12.5244 6.82667 12.5661C6.75471 12.6102 6.68739 12.6543 6.62007 12.7054C6.55275 12.7565 6.49008 12.8076 6.4274 12.8633C6.36472 12.919 6.30669 12.977 6.25098 13.0374C6.19527 13.0977 6.14188 13.1604 6.09081 13.2277C6.03974 13.2927 5.99331 13.36 5.94921 13.432C5.9051 13.5016 5.86332 13.5736 5.82618 13.6479C5.78904 13.7222 5.75422 13.7964 5.72404 13.8754C5.69386 13.9543 5.66601 14.0309 5.64279 14.1098C5.61958 14.1887 5.59869 14.27 5.58476 14.3512C5.57083 14.4325 5.5569 14.5137 5.54762 14.5973C5.53833 14.6785 5.53369 14.7621 5.53369 14.8457C5.53369 14.9292 5.53369 15.0105 5.54298 15.0941C5.54994 15.1776 5.56155 15.2589 5.57548 15.3401C5.5894 15.4214 5.60797 15.5026 5.62887 15.5815C5.66601 15.7185 5.71475 15.8508 5.77279 15.9785C5.83082 16.1062 5.89814 16.2292 5.97474 16.3476C6.05135 16.466 6.13956 16.5774 6.23241 16.6818C6.32758 16.7863 6.42972 16.8815 6.53882 16.9697C6.65025 17.0579 6.76631 17.1368 6.88702 17.2065C7.01005 17.2761 7.13772 17.3365 7.27004 17.3852C7.40236 17.434 7.53699 17.4734 7.67627 17.5036C7.81323 17.5314 7.95483 17.55 8.09411 17.557C8.24035 17.5639 8.3866 17.557 8.53052 17.5431H8.53748C8.64658 17.5291 8.76033 17.5175 8.87639 17.5036L8.91122 17.499C9.14799 19.1378 10.4247 23.6481 12.3723 24.2958C12.428 24.3144 12.4814 24.3306 12.5325 24.3468C14.4824 24.9457 14.1574 23.8756 13.1151 22.0789C12.6323 21.2502 12.2748 20.1986 12.1123 18.453C12.0566 17.8495 12.1262 17.3782 12.3909 17.167C15.5409 16.9256 18.9533 16.8443 21.0053 17.3272C21.2537 17.5106 21.4858 17.5872 21.6947 17.55C21.7133 17.5477 21.7296 17.5431 21.7481 17.5384C21.841 17.5129 21.9222 17.4665 21.9942 17.4038C22.1706 17.2506 22.3052 16.9859 22.3958 16.6215C22.4677 16.3151 22.5095 16.004 22.5234 15.6906C22.542 15.2821 22.5351 14.8735 22.5049 14.465H22.5026ZM22.0244 15.1799C22.0128 15.4446 21.9779 15.7069 21.9176 15.9646C21.8433 16.2663 21.7319 16.4799 21.5926 16.6029C21.5392 16.6517 21.4765 16.6865 21.4046 16.7074C21.0865 16.7956 20.6687 16.5077 20.2253 15.8996C19.7843 15.2937 19.3363 14.3907 18.9625 13.3554L18.9393 13.2904C18.9393 13.2904 18.9393 13.2834 18.937 13.2811V13.2741C18.8999 13.1697 18.8697 13.0815 18.8418 13.0002C18.7351 12.6845 18.6352 12.3549 18.5447 12.023C18.424 11.5819 18.3219 11.1408 18.2383 10.7114C18.027 9.61806 17.9481 8.599 18.0178 7.84457C18.0456 7.54048 18.0967 7.28281 18.1686 7.07853C18.2754 6.77444 18.4286 6.58641 18.6213 6.53534C18.814 6.48195 19.0391 6.56088 19.2875 6.77212C19.5336 6.97872 19.7936 7.30138 20.0582 7.73083C20.6037 8.61757 21.1098 9.85716 21.4835 11.2198C21.7644 12.2435 21.9454 13.2533 22.0104 14.1423C22.036 14.4882 22.0429 14.8341 22.0267 15.1823L22.0244 15.1799Z" fill="white"/>
</svg>
