<svg width="246" height="56" viewBox="0 0 246 56" fill="none" xmlns="http://www.w3.org/2000/svg">
<g clip-path="url(#clip0_3241_12938)">
<path d="M82.0697 24.0015C81.2923 23.2266 80.3649 22.6165 79.3464 22.2081C77.1128 21.3447 74.638 21.3447 72.4043 22.2081C70.3404 23.0322 68.7094 24.6731 67.8976 26.7419C67.0341 28.9854 67.0341 31.4725 67.8976 33.716C68.7119 35.7873 70.3478 37.4282 72.4142 38.2498C74.6478 39.1157 77.1226 39.1157 79.3563 38.2498C81.4227 37.4282 83.0586 35.7873 83.8728 33.716C84.7388 31.4725 84.7388 28.9854 83.8728 26.7419C83.4645 25.7161 82.8519 24.7838 82.0697 24.0015ZM79.8114 32.1884C79.5974 32.7345 79.2751 33.2314 78.8643 33.6496C78.4707 34.0432 78.0033 34.3556 77.4867 34.5647C76.975 34.7714 76.4289 34.8796 75.8754 34.8796C75.317 34.8821 74.7659 34.7763 74.2493 34.5647C73.7376 34.3532 73.2752 34.0432 72.8865 33.6496C72.4757 33.2314 72.1534 32.7345 71.9394 32.1884C71.472 30.9239 71.472 29.534 71.9394 28.2696C72.1534 27.7235 72.4757 27.2265 72.8865 26.8083C73.2752 26.4147 73.7376 26.1048 74.2493 25.8957C74.7659 25.6817 75.317 25.5734 75.8754 25.5783C76.4289 25.5783 76.975 25.6866 77.4867 25.8957C78.0033 26.1023 78.4707 26.4147 78.8643 26.8083C79.2751 27.2265 79.5974 27.7235 79.8114 28.2696C80.2788 29.534 80.2788 30.9239 79.8114 32.1884ZM102.429 25.662C102.692 26.5845 102.82 27.5414 102.81 28.5008V38.3777H98.4582V29.0297C98.4582 27.8563 98.1974 26.9879 97.6784 26.4221C97.1593 25.8563 96.3992 25.5783 95.4029 25.5857C94.8518 25.5734 94.3082 25.7063 93.8235 25.9695C93.3684 26.2253 92.9724 26.5771 92.6624 26.9978C92.3254 27.4578 92.0745 27.9744 91.9244 28.5254C91.7547 29.1355 91.6735 29.7677 91.6784 30.4024V38.3777H87.3316V22.0925H91.4177V24.218H91.6833C92.1901 23.4012 92.8986 22.7321 93.7424 22.2746C94.6501 21.7875 95.6661 21.5415 96.6944 21.5612C97.6144 21.5415 98.532 21.7088 99.3856 22.0532C100.129 22.3607 100.783 22.8453 101.295 23.4652C101.816 24.1146 102.2 24.8625 102.429 25.662ZM117.855 32.4885L121.84 34.2105C121.147 35.5659 120.126 36.7246 118.869 37.5807C117.595 38.4564 116.005 38.8943 114.101 38.8943C112.913 38.9091 111.732 38.6877 110.63 38.2449C109.609 37.8341 108.682 37.2191 107.907 36.4368C107.137 35.6496 106.529 34.7222 106.114 33.7037C105.673 32.5992 105.454 31.4208 105.467 30.2327C105.454 29.0396 105.673 27.8538 106.114 26.7444C106.928 24.6731 108.564 23.0322 110.63 22.2106C111.732 21.7678 112.913 21.5489 114.101 21.5636C115.983 21.5636 117.567 21.9941 118.852 22.8576C120.099 23.6768 121.08 24.8428 121.676 26.213L117.69 27.8735C117.371 27.1798 116.871 26.5869 116.244 26.1515C115.58 25.7407 114.81 25.539 114.03 25.5685C113.472 25.566 112.918 25.6792 112.404 25.9006C111.354 26.3532 110.537 27.2167 110.146 28.2917C109.703 29.5389 109.703 30.8993 110.146 32.1465C110.537 33.2216 111.354 34.085 112.404 34.5377C112.918 34.7591 113.472 34.8722 114.03 34.8698C114.844 34.8968 115.646 34.6828 116.34 34.2548C116.999 33.8169 117.523 33.2068 117.855 32.4885ZM138.465 23.4209C139.471 24.6608 139.976 26.3532 139.976 28.5008V38.3777H135.626V29.0297C135.626 27.8981 135.361 27.042 134.829 26.4541C134.298 25.8662 133.555 25.5857 132.596 25.5857C132.04 25.5759 131.491 25.7087 131.002 25.9695C130.534 26.2253 130.133 26.582 129.823 27.015C129.486 27.4824 129.238 28.0039 129.085 28.5599C128.915 29.1699 128.834 29.8022 128.839 30.4368V38.3777H124.5V14.5846H128.849V21.261L128.583 24.213H128.849C129.341 23.4111 130.035 22.7518 130.859 22.3016C131.757 21.8022 132.77 21.5464 133.799 21.5636C135.902 21.5636 137.459 22.1811 138.465 23.4209ZM150.664 21.5612C147.675 21.5612 145.316 22.646 143.589 24.8157L146.746 26.9732C147.786 25.7112 149.06 25.0814 150.566 25.0814C151.491 25.0519 152.399 25.352 153.122 25.9277C153.784 26.4393 154.165 27.2339 154.153 28.0703V28.5623C153.599 28.3508 153.033 28.1786 152.458 28.0457C151.594 27.8637 150.714 27.78 149.833 27.7997C148.94 27.7923 148.049 27.9203 147.193 28.181C146.426 28.4147 145.71 28.7936 145.085 29.2954C144.5 29.7677 144.022 30.363 143.69 31.0371C143.353 31.748 143.183 32.5254 143.198 33.3126C143.188 34.0899 143.348 34.8599 143.663 35.5709C143.963 36.2449 144.406 36.8451 144.96 37.3322C145.533 37.8291 146.19 38.2178 146.903 38.4786C147.663 38.759 148.468 38.8992 149.277 38.8943C150.406 38.8943 151.329 38.6729 152.049 38.2301C152.748 37.8045 153.373 37.2658 153.894 36.636H154.16V38.358H158.445V28.5918C158.445 26.2671 157.781 24.5132 156.45 23.3274C155.119 22.1417 153.191 21.5538 150.664 21.5612ZM153.862 33.1699C153.678 33.6176 153.407 34.0235 153.065 34.3655C152.308 35.1084 151.284 35.5192 150.224 35.5094C149.55 35.5217 148.893 35.3101 148.349 34.9116C147.825 34.5524 147.52 33.9522 147.535 33.3175C147.535 32.6558 147.848 32.0334 148.381 31.6398C148.947 31.1871 149.749 30.9608 150.79 30.9608C151.388 30.9559 151.985 31.0272 152.566 31.1748C153.11 31.32 153.638 31.5143 154.145 31.7579C154.145 32.2425 154.054 32.7222 153.87 33.1699H153.862ZM162.509 22.0999H166.861V38.3777H162.517L162.509 22.0999ZM166.662 15.1406C167.754 16.2082 167.774 17.9597 166.706 19.0495C166.691 19.0643 166.676 19.079 166.662 19.0938C166.135 19.6251 165.417 19.9179 164.669 19.9056C163.555 19.9007 162.551 19.2315 162.116 18.2057C161.828 17.5046 161.828 16.715 162.116 16.0139C162.736 14.5871 164.394 13.9327 165.82 14.5502C166.14 14.6904 166.433 14.8872 166.681 15.1332L166.662 15.1406ZM186.305 25.6694C186.568 26.5919 186.696 27.5488 186.686 28.5082V38.3777H182.344V29.0297C182.344 27.8563 182.083 26.9879 181.562 26.4221C181.04 25.8563 180.283 25.5783 179.286 25.5857C178.735 25.5734 178.192 25.7063 177.71 25.9695C177.252 26.2253 176.856 26.5771 176.546 26.9978C176.209 27.4578 175.96 27.9768 175.808 28.5254C175.641 29.138 175.557 29.7677 175.562 30.4024V38.3777H171.218V22.0925H175.301V24.218H175.567C176.074 23.4012 176.782 22.7321 177.626 22.2746C178.534 21.7875 179.55 21.5415 180.578 21.5612C181.498 21.5415 182.416 21.7088 183.269 22.0532C184.012 22.3607 184.666 22.8453 185.178 23.4652C185.7 24.1146 186.083 24.8625 186.312 25.662L186.305 25.6694ZM190.979 38.0382V14.9192H193.358V38.0432L190.979 38.0382ZM202.996 38.5696C201.294 38.5696 199.854 38.0628 198.715 37.0592C197.611 36.1367 196.989 34.7615 197.021 33.3249C197.021 31.7357 197.601 30.5082 198.802 29.5709C200.002 28.6337 201.653 28.1466 203.692 28.1466C205.441 28.1466 206.89 28.4688 208.012 29.1011L208.504 29.384V28.1097C208.509 26.9707 208.004 25.8858 207.129 25.1577C206.258 24.3729 205.124 23.9474 203.95 23.9597C202.319 23.9228 200.774 24.6854 199.813 26.0039L197.692 24.6681C199.116 22.7985 201.114 21.8957 203.793 21.8957C205.953 21.8957 207.675 22.4738 208.912 23.6177C210.15 24.7616 210.765 26.3409 210.765 28.336V38.0309H208.511V34.6877C208.002 35.8464 207.198 36.8476 206.177 37.5954C205.244 38.2424 204.13 38.5794 202.996 38.5622V38.5696ZM204.191 29.935C203.018 29.8956 201.859 30.2327 200.89 30.8944C199.97 31.5561 199.505 32.3975 199.505 33.3913C199.5 34.2843 199.926 35.1231 200.647 35.6496C201.382 36.2277 202.292 36.5327 203.227 36.518C204.6 36.5106 205.916 35.962 206.888 34.9903C207.916 34.0776 208.504 32.7665 208.504 31.3913V31.229L208.378 31.1281C207.38 30.3311 205.965 29.9276 204.182 29.9276L204.191 29.935ZM228.713 24.3065C227.306 22.7075 225.554 21.8957 223.517 21.8957C222.435 21.8859 221.365 22.1393 220.4 22.6337C219.35 23.1749 218.501 24.0384 217.972 25.0937L217.635 25.7751V14.9192H215.252V38.0432H217.505V34.6877C217.906 35.6225 218.501 36.4614 219.252 37.1477C220.395 38.1662 222.019 38.5622 223.52 38.5622C225.557 38.5622 227.306 37.7529 228.72 36.149C230.189 34.5327 230.981 32.4147 230.934 30.2302C230.971 28.0457 230.179 25.9277 228.713 24.3065ZM226.956 34.673C225.97 35.8144 224.528 36.4638 223.02 36.4442C221.505 36.4712 220.054 35.8341 219.047 34.7025C218.022 33.5389 217.503 32.0334 217.503 30.2302C217.503 28.427 218.022 26.9535 219.05 25.7874C220.993 23.603 224.336 23.4086 226.521 25.352C226.673 25.4898 226.821 25.6349 226.956 25.7874C228.004 26.9535 228.536 28.4467 228.536 30.2302C228.536 32.0137 228.004 33.5315 226.956 34.673ZM239.793 38.5622C238.326 38.5893 236.885 38.1637 235.67 37.3445C234.604 36.6213 233.766 35.6102 233.256 34.427L235.374 33.5241C235.753 34.3655 236.349 35.0936 237.096 35.6348C237.884 36.2055 238.831 36.513 239.802 36.5106C240.725 36.5401 241.638 36.3039 242.427 35.8267C243.178 35.3347 243.559 34.7443 243.559 34.0481C243.559 32.8476 242.676 31.9694 240.932 31.4356L238.125 30.7345C235.099 29.9719 233.628 28.5795 233.628 26.4762C233.591 25.1626 234.223 23.9203 235.303 23.1749C236.445 22.3262 237.938 21.8957 239.731 21.8957C241.042 21.8785 242.331 22.2204 243.463 22.8797C244.4 23.4086 245.155 24.2057 245.63 25.17L243.512 26.0507C243.158 25.4258 242.636 24.9141 242.004 24.5747C241.237 24.1565 240.373 23.94 239.5 23.9498C238.678 23.94 237.869 24.1663 237.173 24.6017C236.435 25.0642 236.071 25.6521 236.071 26.3483C236.071 27.4504 237.04 28.2327 238.956 28.6681L241.404 29.2979C244.499 30.0605 246.002 31.5512 246.002 33.8538C246.002 35.1748 245.436 36.2621 244.28 37.1772C243.123 38.0924 241.588 38.5622 239.793 38.5622Z" fill="black"/>
<path d="M52.0153 42.6336C56.3277 39.2659 58.8492 34.0999 58.8492 28.6289C58.8639 25.2316 56.1235 22.4666 52.7262 22.4518C50.4015 22.442 48.2687 23.7433 47.2158 25.8171V18.7766C47.2158 8.95132 39.2503 0.98584 29.4251 0.98584C19.5999 0.98584 11.6344 8.95132 11.6344 18.7766V25.8171C10.0969 22.7888 6.39457 21.581 3.36631 23.1185C1.29253 24.1713 -0.00880802 26.3042 0.00103198 28.6289C0.00103198 34.0999 2.52253 39.2659 6.83245 42.6336C4.05757 44.5943 3.39829 48.4319 5.35645 51.2043C6.51265 52.8426 8.39701 53.8143 10.4019 53.807C14.9874 53.8094 19.4867 52.5573 23.4129 50.1858C24.1435 53.5019 27.4251 55.6003 30.7412 54.8697C33.0807 54.3555 34.9084 52.5253 35.425 50.1858C39.3487 52.5622 43.8481 53.8193 48.436 53.8193C51.8332 53.8316 54.5958 51.0862 54.6081 47.6914C54.6155 45.6865 53.6438 43.8046 52.0054 42.6459L52.0153 42.6336ZM15.9443 18.7716C15.9443 11.3252 21.9787 5.29084 29.4251 5.29084C36.8715 5.29084 42.9059 11.3252 42.9059 18.7716V30.405C42.9576 31.4234 42.1753 32.2918 41.1568 32.3459C40.1384 32.4 39.27 31.6153 39.2159 30.5969C39.2134 30.5329 39.2134 30.4689 39.2159 30.4074V18.779C39.2159 13.3744 34.8346 8.99314 29.43 8.99314C24.0254 8.99314 19.6441 13.3744 19.6441 18.779V30.4124C19.5925 31.4308 18.7216 32.2155 17.7032 32.1614C16.7586 32.1122 16.0033 31.357 15.9541 30.4124L15.9443 18.7741V18.7716ZM36.5714 20.8651C36.5739 22.3682 35.3586 23.5883 33.8556 23.5908C32.3525 23.5932 31.1323 22.378 31.1299 20.8749C31.1274 19.3719 32.3427 18.1517 33.8457 18.1493C33.8457 18.1493 33.8482 18.1493 33.8506 18.1493C35.3537 18.1493 36.5689 19.367 36.5714 20.87V20.8651ZM27.8261 20.8651C27.8261 22.3682 26.6084 23.5859 25.1053 23.5859C23.6023 23.5859 22.3846 22.3682 22.3846 20.8651C22.3846 19.362 23.6023 18.1443 25.1053 18.1443C26.6084 18.1443 27.8261 19.362 27.8261 20.8651C27.8261 20.8651 27.8261 20.8676 27.8261 20.87V20.8651ZM48.4458 45.7972C49.4643 45.8489 50.249 46.7197 50.1949 47.7381C50.1457 48.6828 49.3905 49.438 48.4458 49.4872C41.5849 49.4847 35.1643 46.1096 31.2726 40.459V48.823C31.2209 49.8414 30.3501 50.6262 29.3316 50.5721C28.387 50.5229 27.6318 49.7676 27.5826 48.823V40.459C23.6908 46.1096 17.2678 49.4847 10.4068 49.4872C9.38839 49.4355 8.60365 48.5647 8.65777 47.5463C8.70697 46.6016 9.46219 45.8464 10.4068 45.7972C14.5815 45.7997 18.6134 44.2769 21.7425 41.5143C14.6233 43.6939 7.08583 39.689 4.90627 32.5698C4.51513 31.2906 4.31587 29.9622 4.31587 28.6239C4.36753 27.6055 5.23837 26.8208 6.25681 26.8749C7.20145 26.9241 7.95667 27.6793 8.00587 28.6239C8.00587 34.0286 12.3871 38.4098 17.7918 38.4098C23.1964 38.4098 27.5776 34.0286 27.5776 28.6239C27.5776 28.4985 27.5899 28.373 27.6145 28.25C27.8163 27.2513 28.7929 26.6043 29.7916 26.806C30.6551 26.9807 31.2726 27.7408 31.2726 28.6215C31.2726 34.0261 35.6587 38.4049 41.0634 38.4024C46.4655 38.4024 50.8443 34.0212 50.8443 28.6215C50.896 27.603 51.7668 26.8183 52.7853 26.8724C53.7299 26.9216 54.4851 27.6768 54.5343 28.6215C54.5368 36.063 48.5049 42.0998 41.0634 42.1023C39.7227 42.1023 38.3869 41.903 37.1052 41.5094C40.2343 44.2769 44.2687 45.8046 48.4458 45.8021V45.7972Z" fill="url(#paint0_linear_3241_12938)"/>
</g>
<defs>
<linearGradient id="paint0_linear_3241_12938" x1="15.8754" y1="57.9299" x2="45.115" y2="7.28836" gradientUnits="userSpaceOnUse">
<stop stop-color="#F7F750"/>
<stop offset="0.35" stop-color="#75F7E2"/>
<stop offset="0.7" stop-color="#738AF0"/>
<stop offset="1" stop-color="#E333E2"/>
</linearGradient>
<clipPath id="clip0_3241_12938">
<rect width="246" height="54.029" fill="white" transform="translate(0 0.985596)"/>
</clipPath>
</defs>
</svg>
