<svg width="727" height="220" viewBox="0 0 727 220" fill="none" xmlns="http://www.w3.org/2000/svg">
<path d="M60.2403 93.56C57.0789 90.4094 53.3136 87.9298 49.1703 86.27C40.0904 82.7638 30.0303 82.7638 20.9503 86.27C16.7996 87.9274 13.0325 90.4179 9.88162 93.5877C6.73073 96.7575 4.26286 100.539 2.63034 104.7C-0.876779 113.825 -0.876779 123.925 2.63034 133.05C4.26734 137.214 6.74135 140.999 9.89935 144.169C13.0574 147.339 16.8322 149.827 20.9903 151.48C30.0672 155.003 40.1334 155.003 49.2103 151.48C53.3685 149.827 57.1433 147.339 60.3013 144.169C63.4593 140.999 65.9333 137.214 67.5703 133.05C71.0899 123.928 71.0899 113.822 67.5703 104.7C65.9106 100.527 63.4163 96.7358 60.2403 93.56ZM51.0603 126.84C50.1943 129.061 48.8842 131.082 47.2103 132.78C45.6128 134.384 43.7082 135.649 41.6103 136.5C39.5298 137.344 37.3057 137.779 35.0603 137.78C32.7942 137.792 30.548 137.357 28.4503 136.5C26.3747 135.641 24.4912 134.376 22.9103 132.78C21.2397 131.08 19.9301 129.059 19.0603 126.84C17.1627 121.7 17.1627 116.05 19.0603 110.91C19.9301 108.691 21.2397 106.67 22.9103 104.97C24.489 103.374 26.3732 102.112 28.4503 101.26C30.5456 100.394 32.793 99.9549 35.0603 99.97C37.3068 99.9697 39.5318 100.408 41.6103 101.26C43.7097 102.103 45.6151 103.366 47.2103 104.97C48.8842 106.668 50.1943 108.689 51.0603 110.91C52.9579 116.05 52.9579 121.7 51.0603 126.84ZM143 100.31C144.071 104.062 144.593 107.949 144.55 111.85V152H126.86V114C126.86 109.233 125.804 105.7 123.69 103.4C121.577 101.1 118.494 99.9667 114.44 100C112.201 99.953 109.988 100.491 108.02 101.56C106.168 102.602 104.558 104.027 103.3 105.74C101.927 107.608 100.91 109.713 100.3 111.95C99.6143 114.435 99.2777 117.003 99.3004 119.58V152H81.6303V85.8H98.2403V94.44H99.3203C101.377 91.1244 104.262 88.4017 107.69 86.54C111.376 84.5607 115.508 83.5621 119.69 83.64C123.435 83.5572 127.157 84.2377 130.63 85.64C133.648 86.889 136.313 88.8601 138.39 91.38C140.506 94.0205 142.073 97.0564 143 100.31ZM205.71 128.06L221.91 135.06C219.095 140.567 214.941 145.278 209.83 148.76C204.65 152.32 198.19 154.1 190.45 154.1C185.619 154.156 180.824 153.259 176.34 151.46C172.189 149.789 168.422 147.288 165.27 144.11C162.143 140.914 159.667 137.141 157.98 133C156.189 128.514 155.296 123.72 155.35 118.89C155.299 114.037 156.192 109.221 157.98 104.71C159.617 100.546 162.091 96.7613 165.249 93.5913C168.407 90.4213 172.182 87.9329 176.34 86.28C180.825 84.4842 185.62 83.5905 190.45 83.65C198.104 83.65 204.54 85.4034 209.76 88.91C214.832 92.2433 218.822 96.9836 221.24 102.55L205.04 109.3C203.739 106.485 201.709 104.068 199.16 102.3C196.463 100.631 193.329 99.8059 190.16 99.93C187.887 99.9168 185.636 100.377 183.55 101.28C181.438 102.189 179.534 103.52 177.956 105.191C176.377 106.863 175.157 108.84 174.37 111C172.57 116.068 172.57 121.602 174.37 126.67C175.157 128.831 176.377 130.807 177.956 132.479C179.534 134.15 181.438 135.481 183.55 136.39C185.636 137.294 187.887 137.753 190.16 137.74C193.468 137.846 196.734 136.977 199.55 135.24C202.227 133.461 204.359 130.976 205.71 128.06ZM289.49 91.2C293.584 96.24 295.63 103.123 295.63 111.85V152H277.95V114C277.95 109.4 276.87 105.92 274.71 103.53C272.55 101.14 269.53 100 265.63 100C263.373 99.958 261.142 100.495 259.15 101.56C257.253 102.597 255.615 104.05 254.36 105.81C252.992 107.707 251.976 109.834 251.36 112.09C250.673 114.574 250.337 117.143 250.36 119.72V152H232.72V55.28H250.4V82.42L249.32 94.42H250.4C252.4 91.1625 255.217 88.4841 258.57 86.65C262.221 84.6176 266.343 83.5828 270.52 83.65C279.074 83.6434 285.397 86.16 289.49 91.2ZM339.08 83.64C326.927 83.64 317.34 88.05 310.32 96.87L323.15 105.64C327.384 100.513 332.56 97.95 338.68 97.95C342.442 97.8266 346.125 99.0461 349.07 101.39C350.396 102.418 351.465 103.74 352.192 105.251C352.919 106.763 353.285 108.423 353.26 110.1V112.1C351.014 111.243 348.712 110.541 346.37 110C342.864 109.26 339.284 108.924 335.7 109C332.066 108.968 328.447 109.49 324.97 110.55C321.851 111.501 318.943 113.038 316.4 115.08C314.018 117 312.083 119.416 310.73 122.16C309.358 125.048 308.674 128.214 308.73 131.41C308.694 134.57 309.338 137.701 310.62 140.59C311.84 143.329 313.637 145.772 315.89 147.75C318.216 149.774 320.894 151.354 323.79 152.41C326.88 153.547 330.148 154.119 333.44 154.1C338.027 154.1 341.784 153.2 344.71 151.4C347.552 149.671 350.087 147.481 352.21 144.92H353.29V151.92H370.71V112.22C370.71 102.773 368.007 95.64 362.6 90.82C357.194 86 349.354 83.6067 339.08 83.64ZM352.08 130.83C351.327 132.645 350.226 134.296 348.84 135.69C347.315 137.186 345.51 138.366 343.528 139.164C341.546 139.962 339.427 140.362 337.29 140.34C334.553 140.386 331.876 139.532 329.67 137.91C328.623 137.19 327.772 136.221 327.194 135.089C326.616 133.958 326.33 132.7 326.36 131.43C326.359 130.103 326.669 128.794 327.267 127.61C327.864 126.425 328.732 125.397 329.8 124.61C332.1 122.77 335.364 121.85 339.59 121.85C342.024 121.828 344.451 122.121 346.81 122.72C349.019 123.31 351.168 124.103 353.23 125.09C353.237 127.058 352.857 129.009 352.11 130.83H352.08ZM387.23 85.83H404.92V152H387.26L387.23 85.83ZM404.11 57.54C405.18 58.5868 406.031 59.8367 406.611 61.2165C407.192 62.5963 407.491 64.0781 407.491 65.575C407.491 67.0719 407.192 68.5538 406.611 69.9335C406.031 71.3133 405.18 72.5633 404.11 73.61C403.052 74.6767 401.789 75.5188 400.397 76.0858C399.005 76.6528 397.513 76.9332 396.01 76.91C393.794 76.8985 391.63 76.2379 389.785 75.0098C387.941 73.7818 386.496 72.0401 385.63 70C384.457 67.1458 384.457 63.9442 385.63 61.09C386.371 59.3818 387.518 57.8801 388.97 56.715C390.423 55.5499 392.138 54.7567 393.966 54.404C395.794 54.0514 397.681 54.1499 399.463 54.6911C401.244 55.2324 402.867 56.2 404.19 57.51L404.11 57.54ZM483.96 100.34C485.031 104.092 485.553 107.979 485.51 111.88V152H467.86V114C467.86 109.233 466.8 105.7 464.68 103.4C462.56 101.1 459.477 99.9667 455.43 100C453.194 99.9515 450.984 100.489 449.02 101.56C447.165 102.602 445.553 104.027 444.29 105.74C442.924 107.612 441.908 109.716 441.29 111.95C440.609 114.436 440.273 117.003 440.29 119.58V152H422.63V85.8H439.23V94.44H440.31C442.367 91.1244 445.252 88.4017 448.68 86.54C452.366 84.5624 456.498 83.5639 460.68 83.64C464.425 83.558 468.147 84.2385 471.62 85.64C474.637 86.8911 477.301 88.8618 479.38 91.38C481.496 94.0202 483.063 97.0562 483.99 100.31L483.96 100.34ZM502.96 150.62V56.64H512.63V150.64L502.96 150.62ZM551.81 152.78C544.89 152.78 539.04 150.72 534.41 146.64C532.195 144.79 530.426 142.464 529.233 139.836C528.04 137.208 527.455 134.345 527.52 131.46C527.52 125 529.88 120.01 534.76 116.2C539.64 112.39 546.35 110.41 554.64 110.41C561.75 110.41 567.64 111.72 572.2 114.29L574.2 115.44V110.26C574.212 107.971 573.716 105.708 572.75 103.634C571.783 101.559 570.37 99.7239 568.61 98.26C565.067 95.0739 560.455 93.3357 555.69 93.39C552.424 93.3165 549.189 94.0338 546.26 95.4808C543.332 96.9278 540.796 99.0615 538.87 101.7L530.25 96.27C536.04 88.67 544.16 85 555.05 85C563.83 85 570.83 87.35 575.86 92C580.89 96.65 583.39 103.07 583.39 111.18V150.59H574.23V137C572.161 141.706 568.888 145.783 564.74 148.82C560.947 151.449 556.425 152.824 551.81 152.75V152.78ZM556.67 117.68C551.896 117.519 547.195 118.885 543.25 121.58C539.51 124.27 537.62 127.69 537.62 131.73C537.611 133.518 538.026 135.284 538.833 136.88C539.64 138.476 540.815 139.857 542.26 140.91C545.248 143.256 548.952 144.502 552.75 144.44C558.335 144.411 563.682 142.179 567.63 138.23C569.697 136.394 571.35 134.141 572.483 131.619C573.615 129.097 574.201 126.364 574.2 123.6V122.94L573.69 122.53C569.63 119.29 563.88 117.65 556.63 117.65L556.67 117.68ZM656.35 94.8C650.63 88.3 643.51 85 635.23 85C630.827 84.9639 626.48 85.9932 622.56 88C618.294 90.204 614.838 93.7055 612.69 98L611.32 100.77V56.64H601.63V150.64H610.79V137C612.417 140.801 614.838 144.211 617.89 147C622.54 151.14 629.14 152.75 635.24 152.75C643.52 152.75 650.63 149.46 656.38 142.94C662.349 136.367 665.57 127.756 665.38 118.88C665.535 109.998 662.307 101.39 656.35 94.8ZM649.21 136.94C647.229 139.233 644.77 141.066 642.007 142.31C639.243 143.553 636.241 144.178 633.21 144.14C630.167 144.193 627.148 143.588 624.361 142.366C621.574 141.144 619.083 139.334 617.06 137.06C612.89 132.33 610.78 126.21 610.78 118.88C610.78 111.55 612.89 105.56 617.07 100.82C619.088 98.552 621.564 96.7367 624.333 95.4937C627.103 94.2507 630.104 93.6081 633.14 93.6081C636.176 93.6081 639.178 94.2507 641.947 95.4937C644.717 96.7367 647.192 98.552 649.21 100.82C653.47 105.56 655.63 111.63 655.63 118.88C655.63 126.13 653.47 132.3 649.21 136.94ZM701.39 152.75C695.428 152.863 689.575 151.134 684.63 147.8C680.296 144.863 676.892 140.748 674.82 135.94L683.43 132.27C684.973 135.693 687.387 138.651 690.43 140.85C693.627 143.173 697.479 144.419 701.43 144.41C705.181 144.531 708.886 143.565 712.1 141.63C715.15 139.63 716.7 137.23 716.7 134.4C716.7 129.52 713.11 125.95 706.02 123.78L694.61 120.93C682.31 117.83 676.33 112.17 676.33 103.62C676.258 100.993 676.843 98.3895 678.032 96.0459C679.222 93.7024 680.977 91.6929 683.14 90.2C687.78 86.75 693.85 85 701.14 85C706.466 84.9347 711.709 86.3172 716.31 89C720.115 91.1479 723.185 94.3922 725.12 98.31L716.51 101.89C715.074 99.3519 712.949 97.2718 710.38 95.89C707.261 94.1853 703.755 93.3106 700.2 93.35C696.858 93.3069 693.574 94.2269 690.74 96C687.74 97.88 686.26 100.27 686.26 103.1C686.26 107.58 690.2 110.76 697.99 112.53L707.94 115.09C720.52 118.19 726.63 124.25 726.63 133.61C726.63 138.98 724.33 143.4 719.63 147.12C714.93 150.84 708.69 152.75 701.39 152.75Z" fill="black"/>
</svg>
