<svg width="206" height="57" viewBox="0 0 206 57" fill="none" xmlns="http://www.w3.org/2000/svg">
<g clip-path="url(#clip0_3252_13051)">
<path fill-rule="evenodd" clip-rule="evenodd" d="M19.2705 29.0063L46.2788 56.0146H46.2709H27.9941C27.6227 56.0146 27.2671 55.8645 27.0064 55.6038L0.408918 29.0063C-0.136306 28.4532 -0.136306 27.5682 0.408918 27.023L27.0143 0.425542C27.275 0.164782 27.6306 0.0146484 28.002 0.0146484H46.2788L19.2705 27.023C18.7253 27.5761 18.7253 28.4611 19.2705 29.0063ZM52.1775 50.1081L52.1735 50.1121H52.1815L52.1775 50.1081ZM73.2871 28.9985L52.1775 50.1081L42.7546 40.6852L54.4335 29.0064C54.9787 28.4533 54.9787 27.5683 54.4335 27.0231L38.622 11.2116L48.0488 1.78473L73.2871 27.0152C73.8324 27.5683 73.8324 28.4533 73.2871 28.9985Z" fill="#2231EF"/>
<path d="M85.3235 21.6987C84.4097 21.2171 83.6935 20.538 83.1995 19.6489C82.7056 18.7598 82.4586 17.7472 82.4586 16.5865V11.1779C82.4586 10.0418 82.7056 9.02925 83.2119 8.15252C83.7182 7.27578 84.422 6.59662 85.3358 6.11503C86.2496 5.63344 87.2869 5.38647 88.4723 5.38647C89.6578 5.38647 90.7321 5.63344 91.6335 6.11503C92.5473 6.59662 93.2511 7.27578 93.7574 8.15252C94.2637 9.02925 94.5107 10.0418 94.5107 11.1779V16.5865C94.5107 17.7349 94.2637 18.7598 93.7574 19.6489C93.2511 20.538 92.5473 21.2171 91.6335 21.6987C90.7197 22.1803 89.6701 22.4273 88.4723 22.4273C87.2745 22.4273 86.2373 22.1926 85.3235 21.6987ZM90.8679 19.1179C91.473 18.5005 91.7693 17.6855 91.7693 16.6729V11.1532C91.7693 10.1283 91.473 9.30092 90.8679 8.6835C90.2628 8.06608 89.4725 7.75737 88.4723 7.75737C87.4721 7.75737 86.7065 8.06608 86.1014 8.6835C85.4963 9.30092 85.2 10.1159 85.2 11.1532V16.6729C85.2 17.6855 85.4963 18.5005 86.1014 19.1179C86.7065 19.7353 87.4968 20.044 88.4723 20.044C89.4478 20.044 90.2628 19.7353 90.8679 19.1179Z" fill="#00083F"/>
<path d="M106.699 6.17694C107.452 6.58444 108.045 7.16481 108.464 7.91807C108.884 8.67132 109.094 9.53571 109.094 10.5112C109.094 11.4868 108.884 12.3264 108.452 13.0673C108.02 13.8083 107.415 14.3886 106.637 14.7838C105.859 15.1913 104.945 15.3888 103.92 15.3888H100.129C100.055 15.3888 100.006 15.4259 100.006 15.5123V21.8841C100.006 21.9582 99.981 22.0323 99.9193 22.0817C99.8575 22.1434 99.7958 22.1681 99.7217 22.1681H97.536C97.4619 22.1681 97.3879 22.1434 97.3385 22.0817C97.2767 22.0323 97.252 21.9582 97.252 21.8841V5.84353C97.252 5.76944 97.2767 5.69535 97.3385 5.64596C97.4002 5.59657 97.4619 5.55952 97.536 5.55952H104.056C105.056 5.55952 105.933 5.76944 106.686 6.17694H106.699ZM105.612 12.4623C106.106 11.993 106.353 11.3633 106.353 10.5853C106.353 9.80737 106.106 9.15291 105.612 8.65897C105.118 8.16503 104.476 7.91807 103.673 7.91807H100.142C100.067 7.91807 100.018 7.95511 100.018 8.04155V13.0427C100.018 13.1167 100.055 13.1661 100.142 13.1661H103.673C104.476 13.1661 105.13 12.9315 105.612 12.4499V12.4623Z" fill="#00083F"/>
<path d="M122.653 7.86809C122.653 7.86809 122.529 7.95453 122.455 7.95453H114.367C114.293 7.95453 114.243 7.99158 114.243 8.07802V12.5111C114.243 12.5852 114.28 12.6346 114.367 12.6346H119.8C119.874 12.6346 119.948 12.6593 119.998 12.721C120.047 12.7828 120.084 12.8445 120.084 12.9186V14.7215C120.084 14.7955 120.06 14.8696 119.998 14.919C119.936 14.9684 119.874 15.0055 119.8 15.0055H114.367C114.293 15.0055 114.243 15.0425 114.243 15.129V19.7102C114.243 19.7843 114.28 19.8337 114.367 19.8337H122.455C122.529 19.8337 122.603 19.8584 122.653 19.9201C122.702 19.9819 122.739 20.0436 122.739 20.1177V21.9206C122.739 21.9947 122.714 22.0688 122.653 22.1181C122.591 22.1799 122.529 22.2046 122.455 22.2046H111.786C111.712 22.2046 111.638 22.1799 111.589 22.1181C111.527 22.0688 111.502 21.9947 111.502 21.9206V5.86765C111.502 5.79356 111.527 5.71947 111.589 5.67008C111.65 5.62068 111.712 5.58364 111.786 5.58364H122.455C122.529 5.58364 122.603 5.60834 122.653 5.67008C122.702 5.73182 122.739 5.79356 122.739 5.86765V7.67052C122.739 7.74461 122.714 7.8187 122.653 7.86809Z" fill="#00083F"/>
<path d="M135.038 5.67008C135.038 5.67008 135.162 5.58364 135.236 5.58364H137.421C137.495 5.58364 137.57 5.60834 137.619 5.67008C137.668 5.73182 137.705 5.79356 137.705 5.86765V21.8959C137.705 21.97 137.681 22.0441 137.619 22.0935C137.557 22.1552 137.495 22.1799 137.421 22.1799H135.31C135.149 22.1799 135.038 22.1181 134.976 21.9947L128.148 10.807C128.148 10.807 128.086 10.7453 128.049 10.7453C128.012 10.7453 128 10.7947 128 10.8564L128.049 21.9082C128.049 21.9823 128.024 22.0564 127.963 22.1058C127.901 22.1675 127.839 22.1922 127.765 22.1922H125.579C125.505 22.1922 125.431 22.1675 125.382 22.1058C125.32 22.0564 125.295 21.9823 125.295 21.9082V5.86765C125.295 5.79356 125.32 5.71947 125.382 5.67008C125.443 5.62068 125.505 5.58364 125.579 5.58364H127.691C127.851 5.58364 127.963 5.64538 128.024 5.76886L134.828 16.9565C134.828 16.9565 134.89 17.0183 134.927 17.0183C134.964 17.0183 134.976 16.9689 134.976 16.9071L134.952 5.8553C134.952 5.78121 134.976 5.70712 135.038 5.65773V5.67008Z" fill="#00083F"/>
<path d="M85.2741 49.6678C84.3726 49.1985 83.6811 48.5441 83.1872 47.7167C82.6933 46.877 82.4463 45.9015 82.4463 44.8025V38.9494C82.4463 37.838 82.6933 36.8748 83.1872 36.0351C83.6811 35.1954 84.3726 34.5533 85.2741 34.0964C86.1755 33.6395 87.2128 33.4049 88.3982 33.4049C89.5837 33.4049 90.6086 33.6272 91.51 34.0717C92.4114 34.5163 93.103 35.1337 93.5969 35.9487C94.0908 36.7513 94.3378 37.6898 94.3378 38.7518C94.3378 38.8259 94.3131 38.9 94.2514 38.9494C94.1896 38.9987 94.1279 39.0358 94.0538 39.0358L91.8681 39.1593C91.6829 39.1593 91.5841 39.0728 91.5841 38.9C91.5841 37.9615 91.3001 37.2206 90.7197 36.6526C90.1393 36.0845 89.3737 35.8005 88.4106 35.8005C87.4474 35.8005 86.6694 36.0845 86.0891 36.6526C85.5087 37.2206 85.2123 37.9738 85.2123 38.9V44.9507C85.2123 45.8645 85.5087 46.6054 86.0891 47.1734C86.6694 47.7414 87.4474 48.0254 88.4106 48.0254C89.3737 48.0254 90.1393 47.7414 90.7197 47.1857C91.3001 46.6301 91.5841 45.8768 91.5841 44.9507C91.5841 44.7778 91.6829 44.6914 91.8681 44.6914L94.0538 44.7901C94.1279 44.7901 94.202 44.8148 94.2514 44.8642C94.3008 44.9136 94.3378 44.963 94.3378 45.0248C94.3378 46.0991 94.0908 47.0499 93.5969 47.8526C93.103 48.6676 92.4114 49.2973 91.51 49.7419C90.6086 50.1864 89.5713 50.4087 88.3982 50.4087C87.2251 50.4087 86.1755 50.1741 85.2741 49.7048V49.6678Z" fill="#00083F"/>
<path d="M105.958 49.9643L102.834 43.1356C102.796 43.0739 102.759 43.0368 102.685 43.0368H99.8452C99.7711 43.0368 99.7217 43.0739 99.7217 43.1603V49.8902C99.7217 49.9643 99.697 50.0384 99.6353 50.0878C99.5735 50.1372 99.5118 50.1742 99.4377 50.1742H97.252C97.1779 50.1742 97.1039 50.1495 97.0545 50.0878C96.9927 50.0384 96.968 49.9643 96.968 49.8902V33.862C96.968 33.7879 96.9927 33.7138 97.0545 33.6644C97.1162 33.615 97.1779 33.578 97.252 33.578H103.772C104.735 33.578 105.587 33.7755 106.328 34.183C107.069 34.5905 107.649 35.1586 108.057 35.8871C108.464 36.628 108.674 37.4677 108.674 38.4062C108.674 39.4929 108.39 40.4313 107.835 41.1969C107.279 41.9625 106.501 42.4935 105.501 42.8022C105.464 42.8022 105.439 42.8146 105.427 42.8516C105.414 42.8887 105.414 42.9134 105.427 42.9504L108.773 49.8532C108.81 49.9149 108.822 49.9643 108.822 50.0013C108.822 50.1248 108.736 50.1866 108.563 50.1866H106.291C106.131 50.1866 106.019 50.1125 105.958 49.9766V49.9643ZM99.7217 36.0724V40.7894C99.7217 40.8635 99.7587 40.9129 99.8452 40.9129H103.402C104.155 40.9129 104.772 40.6907 105.241 40.2338C105.711 39.7892 105.945 39.1841 105.945 38.4432C105.945 37.7023 105.711 37.0973 105.241 36.6404C104.772 36.1835 104.167 35.9489 103.402 35.9489H99.8452C99.7711 35.9489 99.7217 35.9859 99.7217 36.0724Z" fill="#00083F"/>
<path d="M115.095 50.0754C115.095 50.0754 115.009 49.952 115.009 49.8779V43.5184C115.009 43.4567 115.009 43.4073 114.984 43.3703L110.094 33.9114C110.057 33.8496 110.045 33.8002 110.045 33.7632C110.045 33.6397 110.131 33.578 110.304 33.578H112.65C112.811 33.578 112.922 33.6521 112.984 33.7879L116.306 40.4066C116.355 40.4684 116.404 40.4684 116.454 40.4066L119.8 33.7879C119.874 33.6397 119.985 33.578 120.134 33.578H122.505C122.616 33.578 122.69 33.615 122.727 33.6768C122.764 33.7385 122.764 33.8249 122.727 33.9114L117.824 43.3703C117.787 43.432 117.775 43.4814 117.775 43.5184V49.8779C117.775 49.952 117.75 50.026 117.689 50.0754C117.627 50.1248 117.565 50.1619 117.491 50.1619H115.305C115.231 50.1619 115.157 50.1372 115.108 50.0754H115.095Z" fill="#00083F"/>
<path d="M134.544 34.183C135.297 34.5905 135.89 35.1709 136.31 35.9241C136.73 36.6774 136.94 37.5418 136.94 38.5173C136.94 39.4928 136.73 40.3325 136.298 41.0734C135.865 41.8143 135.26 42.3947 134.482 42.7899C133.705 43.185 132.791 43.3949 131.766 43.3949H127.975C127.901 43.3949 127.851 43.432 127.851 43.5184V49.8902C127.851 49.9643 127.827 50.0384 127.765 50.0878C127.703 50.1495 127.641 50.1742 127.567 50.1742H125.382C125.308 50.1742 125.234 50.1495 125.184 50.0878C125.135 50.0384 125.098 49.9643 125.098 49.8902V33.8373C125.098 33.7632 125.122 33.6891 125.184 33.6397C125.234 33.5903 125.308 33.5533 125.382 33.5533H131.902C132.902 33.5533 133.779 33.7632 134.532 34.1707L134.544 34.183ZM133.445 40.456C133.939 39.9868 134.186 39.357 134.186 38.5791C134.186 37.8011 133.939 37.1466 133.445 36.6527C132.951 36.1588 132.309 35.9118 131.506 35.9118H127.975C127.901 35.9118 127.851 35.9488 127.851 36.0353V41.0364C127.851 41.1105 127.888 41.1599 127.975 41.1599H131.506C132.309 41.1599 132.964 40.9252 133.445 40.4437V40.456Z" fill="#00083F"/>
<path d="M150.659 33.6644C150.659 33.6644 150.745 33.7879 150.745 33.862V35.6895C150.745 35.7636 150.721 35.8377 150.659 35.8871C150.597 35.9365 150.535 35.9736 150.461 35.9736H146.102C146.028 35.9736 145.979 36.0106 145.979 36.097V49.8902C145.979 49.9643 145.954 50.0384 145.892 50.0878C145.831 50.1372 145.769 50.1742 145.695 50.1742H143.509C143.435 50.1742 143.361 50.1495 143.312 50.0878C143.25 50.0384 143.225 49.9643 143.225 49.8902V36.097C143.225 36.023 143.188 35.9736 143.102 35.9736H138.903C138.829 35.9736 138.755 35.9489 138.706 35.8871C138.644 35.8377 138.619 35.7636 138.619 35.6895V33.862C138.619 33.7879 138.644 33.7138 138.706 33.6644C138.767 33.615 138.829 33.578 138.903 33.578H150.449C150.523 33.578 150.597 33.6027 150.647 33.6644H150.659Z" fill="#00083F"/>
<path d="M155.462 49.6924C154.549 49.2109 153.832 48.5317 153.338 47.6426C152.845 46.7535 152.598 45.741 152.598 44.5802V39.1716C152.598 38.0356 152.845 37.023 153.351 36.1462C153.857 35.2695 154.561 34.5903 155.475 34.1088C156.389 33.6272 157.426 33.3802 158.611 33.3802C159.797 33.3802 160.871 33.6272 161.772 34.1088C162.686 34.5903 163.39 35.2695 163.896 36.1462C164.403 37.023 164.65 38.0356 164.65 39.1716V44.5802C164.65 45.7286 164.403 46.7535 163.896 47.6426C163.39 48.5317 162.686 49.2109 161.772 49.6924C160.859 50.174 159.809 50.421 158.611 50.421C157.413 50.421 156.376 50.174 155.462 49.6924ZM161.019 47.124C161.624 46.5066 161.921 45.6916 161.921 44.679V39.1593C161.921 38.1343 161.624 37.307 161.019 36.6896C160.414 36.0722 159.624 35.7634 158.624 35.7634C157.623 35.7634 156.858 36.0722 156.253 36.6896C155.648 37.307 155.351 38.122 155.351 39.1593V44.679C155.351 45.6916 155.648 46.5066 156.253 47.124C156.858 47.7414 157.648 48.0501 158.624 48.0501C159.599 48.0501 160.414 47.7414 161.019 47.124Z" fill="#00083F"/>
<path d="M177.418 34.183C178.171 34.5905 178.764 35.1709 179.184 35.9241C179.604 36.6774 179.813 37.5418 179.813 38.5173C179.813 39.4928 179.604 40.3325 179.171 41.0734C178.739 41.8143 178.134 42.3947 177.356 42.7899C176.578 43.185 175.664 43.3949 174.639 43.3949H170.848C170.774 43.3949 170.725 43.432 170.725 43.5184V49.8902C170.725 49.9643 170.7 50.0384 170.639 50.0878C170.577 50.1495 170.515 50.1742 170.441 50.1742H168.255C168.181 50.1742 168.107 50.1495 168.058 50.0878C167.996 50.0384 167.971 49.9643 167.971 49.8902V33.8373C167.971 33.7632 167.996 33.6891 168.058 33.6397C168.107 33.5903 168.181 33.5533 168.255 33.5533H174.775C175.776 33.5533 176.652 33.7632 177.405 34.1707L177.418 34.183ZM176.319 40.456C176.813 39.9868 177.06 39.357 177.06 38.5791C177.06 37.8011 176.813 37.1466 176.319 36.6527C175.825 36.1588 175.183 35.9118 174.38 35.9118H170.848C170.774 35.9118 170.725 35.9488 170.725 36.0353V41.0364C170.725 41.1105 170.762 41.1599 170.848 41.1599H174.38C175.183 41.1599 175.837 40.9252 176.319 40.4437V40.456Z" fill="#00083F"/>
<path d="M190.804 49.9396L190.026 47.4082C189.989 47.3464 189.951 47.3094 189.902 47.3094H183.641C183.641 47.3094 183.555 47.3464 183.518 47.4082L182.74 49.9396C182.691 50.1001 182.592 50.1742 182.431 50.1742H180.06C179.962 50.1742 179.9 50.1495 179.851 50.0878C179.801 50.0384 179.789 49.952 179.826 49.8408L184.975 33.8126C185.024 33.6521 185.123 33.578 185.284 33.578H188.247C188.408 33.578 188.507 33.6521 188.556 33.8126L193.73 49.8408C193.73 49.8408 193.755 49.9149 193.755 49.9643C193.755 50.1125 193.668 50.1742 193.495 50.1742H191.125C190.964 50.1742 190.865 50.1001 190.816 49.9396H190.804ZM184.358 45.1608H189.174C189.272 45.1608 189.297 45.1114 189.272 45.0126L186.827 37.0726C186.815 37.0108 186.79 36.9738 186.753 36.9738C186.716 36.9738 186.692 37.0108 186.679 37.0726L184.259 45.0126C184.247 45.1114 184.271 45.1608 184.358 45.1608Z" fill="#00083F"/>
<path d="M197.854 50.0754C197.854 50.0754 197.768 49.952 197.768 49.8779V43.5184C197.768 43.4567 197.768 43.4073 197.743 43.3703L192.853 33.9114C192.816 33.8496 192.804 33.8002 192.804 33.7632C192.804 33.6397 192.89 33.578 193.063 33.578H195.409C195.57 33.578 195.681 33.6521 195.743 33.7879L199.065 40.4066C199.114 40.4684 199.163 40.4684 199.213 40.4066L202.559 33.7879C202.633 33.6397 202.744 33.578 202.893 33.578H205.264C205.375 33.578 205.449 33.615 205.486 33.6768C205.523 33.7385 205.523 33.8249 205.486 33.9114L200.583 43.3703C200.546 43.432 200.534 43.4814 200.534 43.5184V49.8779C200.534 49.952 200.509 50.026 200.448 50.0754C200.386 50.1248 200.324 50.1619 200.25 50.1619H198.064C197.99 50.1619 197.916 50.1372 197.867 50.0754H197.854Z" fill="#00083F"/>
</g>
<defs>
<clipPath id="clip0_3252_13051">
<rect width="205.625" height="56" fill="white" transform="translate(0 0.0146484)"/>
</clipPath>
</defs>
</svg>
