<svg width="40" height="40" viewBox="0 0 40 40" fill="none" xmlns="http://www.w3.org/2000/svg">
<path d="M4.91551 20.3744L4.91749 20.3715L4.92545 20.3645L4.94533 20.3467L4.94831 20.3437L4.95626 20.3378L4.95825 20.3358L4.9672 20.3299L4.96918 20.3279L4.97813 20.3219L4.98111 20.32L4.99006 20.314L4.99205 20.312L5.02286 20.2932L5.02585 20.2912L5.03479 20.2873L5.03777 20.2853L5.04672 20.2813H5.0497L5.05865 20.2754H5.06163L5.07058 20.2704L5.09443 20.2605H5.09742L5.10636 20.2565H5.10934L5.13022 20.2486H5.1332L5.14215 20.2456H5.14513L5.15408 20.2427H5.15706L5.167 20.2397L5.19185 20.2347H5.19483L5.21769 20.2308H5.22068L5.23062 20.2298H5.2336L5.24254 20.2288H5.24553H5.25447H5.25746H5.30815L5.33101 20.2308H5.34394L5.34692 20.2318L5.35587 20.2338H5.35885L5.36779 20.2357H5.37078L5.37972 20.2377H5.3827L5.39165 20.2407H5.39463L5.40358 20.2437L5.42843 20.2496H5.43141L5.44036 20.2536H5.44334L5.45229 20.2585H5.45527L5.46421 20.2625H5.4672L5.47614 20.2674L5.52286 20.2882H5.52585L5.53479 20.2942H5.53777L5.54672 20.3001H5.5497L5.55765 20.3071H5.56064L5.56859 20.314L5.57952 20.3219H5.58251L5.59046 20.3289H5.59344L5.60139 20.3358L5.60437 20.3378L5.61233 20.3437L5.61531 20.3457L5.62326 20.3526L5.62624 20.3546L5.63419 20.3616L5.63718 20.3635L5.66402 20.3893L5.667 20.3913L5.67594 20.4012L5.68489 20.4111L6.47913 21.2295C6.88867 20.8262 7.27734 20.4379 7.64414 20.0663C7.97813 19.7265 8.29821 19.3976 8.60338 19.0775C8.27038 18.7714 7.93638 18.4534 7.60139 18.1224C7.14314 17.6687 6.69483 17.202 6.25746 16.7235L6.25547 16.7205L6.24652 16.7116L6.23757 16.7027L6.22167 16.6839V16.6809L6.21372 16.673L6.21173 16.67L6.20577 16.6621L6.20378 16.6591L6.1829 16.6294L6.18091 16.6264L6.17594 16.6185L6.17396 16.6155L6.16899 16.6066V16.6036L6.16203 16.5927L6.15706 16.5838V16.5808L6.15109 16.5719V16.5699L6.14513 16.559L6.14016 16.5461C5.84195 15.8665 5.7992 15.2165 5.95527 14.6578C6.0507 14.313 6.22167 14.0058 6.4503 13.7492C6.68091 13.4936 6.96819 13.2865 7.29722 13.1409C7.58052 13.0161 7.8996 12.9358 8.24354 12.9071C8.05368 12.5118 7.97416 12.0976 7.98608 11.6944C7.99901 11.2495 8.12624 10.8186 8.34394 10.447C8.56561 10.0735 8.87773 9.75151 9.26044 9.52265C9.71372 9.25217 10.2634 9.10851 10.8708 9.15904C10.831 8.90342 10.8241 8.6587 10.8469 8.42786C10.9006 7.89681 11.1123 7.43611 11.4513 7.08538C11.7873 6.73861 12.2445 6.50281 12.7913 6.41661C13.0467 6.37698 13.3231 6.36807 13.6143 6.39779C13.5278 5.98266 13.5408 5.57248 13.6392 5.19203C13.7187 4.88589 13.8529 4.60055 14.0298 4.35286C14.2087 4.10418 14.4374 3.88423 14.7058 3.71085C15.2734 3.34426 16.0189 3.18475 16.8658 3.35913C17.3121 3.19664 17.9423 3.07181 18.6342 3.0084C19.5736 2.92319 20.6531 2.94697 21.5636 3.1372C22.4513 3.32247 23.2038 3.67617 23.5934 4.25081C24.1153 3.97439 24.662 3.87135 25.1779 3.91197C25.667 3.94962 26.1322 4.11904 26.5199 4.38555C26.9135 4.65603 27.2306 5.02955 27.4215 5.47143C27.5706 5.82017 27.6441 6.21053 27.6183 6.62665C27.8936 6.5999 28.161 6.61576 28.4155 6.66827C28.9423 6.77725 29.4095 7.04376 29.7674 7.41233C30.1243 7.7799 30.3777 8.2515 30.4761 8.76868C30.5159 8.98169 30.5318 9.20164 30.5159 9.42654C30.9245 9.37205 31.3221 9.40772 31.6879 9.51571C32.1362 9.64847 32.5368 9.89319 32.8429 10.2192C33.1551 10.5511 33.3748 10.9682 33.4503 11.4378C33.4881 11.6716 33.492 11.9173 33.4543 12.17C33.7763 12.1551 34.0994 12.2165 34.4066 12.3354C34.7475 12.4682 35.0686 12.6782 35.3449 12.9309L35.3757 12.9576C35.6551 13.2202 35.8907 13.5352 36.0537 13.8652C36.3966 14.5597 36.4344 15.3364 35.9662 15.9428L35.9583 15.9537L35.9563 15.9566L35.9503 15.9636L35.9473 15.9675L35.9414 15.9745L35.9384 15.9784L35.9324 15.9844L35.9235 15.9943L35.9205 15.9973L35.9016 16.0161C34.7416 17.2268 33.5805 18.4355 32.4165 19.6413L33.1322 20.318C33.3539 20.533 33.5706 20.747 33.7833 20.96L34.3191 20.4081L34.328 20.3982L34.337 20.3883L34.34 20.3863L34.3668 20.3606L34.3698 20.3586L34.3777 20.3517L34.3807 20.3497L34.3887 20.3427L34.3917 20.3408L34.3996 20.3348L34.4026 20.3328L34.4105 20.3269H34.4135L34.4215 20.32H34.4245L34.4354 20.311L34.4433 20.3051H34.4463L34.4543 20.2982H34.4573L34.4662 20.2922H34.4692L34.4781 20.2863H34.4811L34.5278 20.2635L34.5368 20.2595H34.5398L34.5487 20.2556H34.5517L34.5606 20.2506H34.5636L34.5726 20.2466H34.5755L34.6004 20.2397L34.6093 20.2367H34.6123L34.6213 20.2338H34.6243L34.6332 20.2308H34.6362L34.6451 20.2288H34.6481L34.6571 20.2268H34.67L34.673 20.2258L34.6958 20.2239H34.7495H34.7584H34.7614L34.7704 20.2248H34.7734L34.7833 20.2258H34.7863L34.8091 20.2298H34.8121L34.837 20.2357L34.8469 20.2377H34.8499L34.8588 20.2407H34.8618L34.8708 20.2437H34.8738L34.8946 20.2516H34.8976L34.9066 20.2556H34.9095L34.9334 20.2665L34.9423 20.2704H34.9453L34.9543 20.2764H34.9573L34.9662 20.2823L34.9692 20.2843L34.9781 20.2882L34.9811 20.2902L35.0119 20.3091L35.0139 20.311L35.0229 20.317L35.0258 20.319L35.0348 20.3249L35.0368 20.3269L35.0457 20.3328L35.0477 20.3348L35.0557 20.3408L35.0587 20.3437L35.0785 20.3616L35.0865 20.3685L35.0885 20.3715C35.7893 21.0373 39.2276 24.3444 39.837 24.9419L39.841 24.9458L39.8459 24.9518L39.8738 24.9815L39.8777 24.9854L39.8827 24.9914L39.8867 24.9954L39.8907 25.0013L39.8946 25.0053L39.8986 25.0112L39.9026 25.0152L39.9066 25.0211L39.9205 25.0429L39.9245 25.0479L39.9274 25.0538L39.9304 25.0588L39.9334 25.0647L39.9364 25.0697L39.9394 25.0766L39.9503 25.0994L39.9533 25.1033L39.9563 25.1113L39.9592 25.1152L39.9622 25.1232L39.9652 25.1271L39.9682 25.135L39.9702 25.14L39.9722 25.1469L39.9752 25.1519L39.9771 25.1588L39.9791 25.1648L39.9811 25.1717L39.9831 25.1767V25.1846L39.9861 25.1895V25.1965L39.9891 25.2024V25.2094L39.9911 25.2153V25.2222L39.993 25.2272V25.2351L39.995 25.2411V25.248L39.997 25.2539V25.2609L39.998 25.2668V25.2738L39.999 25.2797V25.2926L40 25.3005V25.351V25.357V25.3639V25.3699V25.3768L39.999 25.3827V25.3897L39.997 25.3956V25.4026L39.995 25.4085V25.4154L39.993 25.4214L39.9911 25.4283V25.4343L39.9881 25.4412V25.4471L39.9851 25.4541V25.46L39.9821 25.467V25.4729L39.9791 25.4798L39.9771 25.4848L39.9742 25.4917V25.4977L39.9702 25.5036L39.9682 25.5096L39.9652 25.5165L39.9632 25.5214L39.9602 25.5284L39.9583 25.5333L39.9553 25.5403L39.9533 25.5452L39.9503 25.5522L39.9473 25.5571L39.9443 25.5631L39.9414 25.568L39.9374 25.5749L39.9344 25.5799L39.9304 25.5858L39.9274 25.5908L39.9235 25.5967L39.9205 25.6017L39.9165 25.6076L39.9135 25.6126L39.9095 25.6185L39.9066 25.6235L39.9026 25.6294L39.8996 25.6344L39.8956 25.6403L39.8917 25.6453L39.8877 25.6512L39.8837 25.6552L39.8787 25.6611L39.8757 25.6651L39.8698 25.6711L39.8668 25.675L39.8608 25.681L39.8569 25.6849L39.8509 25.6909L39.8469 25.6948L39.838 25.7037H39.837C36.8509 28.7969 33.1541 32.5172 28.7535 36.8607L28.7445 36.8706L28.7416 36.8736L28.7336 36.8805L28.7237 36.8904L28.7207 36.8934L28.7137 36.8993L28.7107 36.9023L28.7028 36.9083L28.6998 36.9112L28.6918 36.9172L28.6889 36.9201L28.6809 36.9261L28.6779 36.9291L28.67 36.935L28.667 36.937L28.659 36.9419L28.6561 36.9449L28.6481 36.9499L28.6451 36.9519L28.6372 36.9568L28.6342 36.9588L28.6262 36.9627L28.6233 36.9647L28.6143 36.9687L28.6113 36.9707L28.6034 36.9746L28.6004 36.9766L28.5914 36.9806L28.5885 36.9826L28.5795 36.9865H28.5765L28.5676 36.9915H28.5646L28.5557 36.9964H28.5527L28.5437 37.0004H28.5408L28.5318 37.0044H28.5278L28.5189 37.0083H28.5159L28.507 37.0123H28.503L28.494 37.0153H28.4901L28.4811 37.0182H28.4781L28.4692 37.0212H28.4662L28.4573 37.0232H28.4543L28.4453 37.0262H28.4324L28.4284 37.0281H28.4195L28.4155 37.0291H28.4066L28.4026 37.0301H28.3936H28.3807H28.3777H28.3549H28.3519H28.339H28.33L28.326 37.0291H28.3171H28.3131H28.3042L28.3002 37.0271H28.2913L28.2883 37.0262L28.2793 37.0242H28.2763L28.2674 37.0222H28.2644L28.2555 37.0192H28.2525L28.2435 37.0163H28.2396L28.2306 37.0133H28.2266L28.2177 37.0103H28.2147L28.2058 37.0063H28.2018L28.1928 37.0024H28.1899L28.1809 36.9984H28.1779L28.169 36.9935H28.166L28.1571 36.9885H28.1541L28.1451 36.9836L28.1421 36.9816L28.1332 36.9776L28.1302 36.9756L28.1223 36.9717L28.1193 36.9697L28.1103 36.9657L28.1074 36.9637L28.0994 36.9598L28.0964 36.9578L28.0885 36.9528L28.0855 36.9509L28.0775 36.9459L28.0746 36.9429L28.0666 36.938L28.0636 36.936L28.0557 36.9301L28.0527 36.9271L28.0447 36.9211L28.0417 36.9182L28.0338 36.9122L28.0308 36.9092L28.0229 36.9033L28.0199 36.9003L28.0129 36.8944L28.0099 36.8914L28 36.8815L27.992 36.8746L27.9891 36.8716L27.9801 36.8617L23.2823 32.3418L23.2406 32.3042C23.0348 32.0981 23.0358 31.7622 23.2435 31.5572L24.5805 30.2345C23.8986 29.5806 23.2097 28.9069 22.5149 28.2183C21.7406 27.4505 20.9274 26.6311 20.0765 25.7642C19.4274 26.1991 18.7296 26.7708 17.9851 27.4782C17.1839 28.2391 16.328 29.1585 15.4195 30.2345L16.7396 31.5393L16.7575 31.5572V31.5552L16.7624 31.5582L16.7684 31.5661L16.7714 31.5691L16.7773 31.576L16.7803 31.579L16.7863 31.5859L16.7893 31.5889L16.7952 31.5968L16.7982 31.5998L16.8032 31.6067L16.8062 31.6107L16.8111 31.6176L16.8141 31.6216L16.8191 31.6295L16.8221 31.6325L16.826 31.6404L16.829 31.6443L16.833 31.6523L16.836 31.6562L16.84 31.6632L16.8429 31.6671L16.8469 31.6741L16.8499 31.678L16.8539 31.686L16.8569 31.6899L16.8598 31.6978L16.8628 31.7018L16.8658 31.7097L16.8718 31.7216L16.8738 31.7256L16.8767 31.7335L16.8787 31.7375L16.8817 31.7454L16.8837 31.7494L16.8867 31.7573L16.8887 31.7613L16.8907 31.7692L16.8926 31.7741L16.8946 31.7821L16.8966 31.786L16.8986 31.794V31.7989L16.9016 31.8068V31.8118L16.9046 31.8197V31.8247L16.9066 31.8326V31.8375L16.9086 31.8455V31.8504L16.9105 31.8584V31.8633L16.9115 31.8712V31.8762L16.9135 31.8841V31.8891V31.897V31.9019L16.9145 31.9099V31.9277V31.9535V31.9614V31.9663V31.9743V31.9792V31.9872L16.9135 31.9921V32L16.9115 32.005V32.0129L16.9086 32.0258V32.0307L16.9066 32.0387V32.0436L16.9036 32.0515V32.0555L16.9006 32.0634V32.0684L16.8976 32.0763V32.0813L16.8946 32.0892V32.0942L16.8907 32.1011V32.106L16.8867 32.114V32.1179L16.8827 32.1259L16.8807 32.1308L16.8777 32.1377L16.8678 32.1615L16.8658 32.1655L16.8618 32.1734L16.8598 32.1774L16.8559 32.1843L16.8529 32.1883L16.8469 32.1992L16.8429 32.2071L16.84 32.2111L16.836 32.219L16.833 32.2229L16.829 32.2299L16.826 32.2339L16.8211 32.2408L16.8181 32.2447L16.8131 32.2517L16.8101 32.2556L16.8042 32.2626L16.8012 32.2665L16.7952 32.2735L16.7922 32.2765L16.7863 32.2834L16.7833 32.2874L16.7773 32.2933L16.7684 32.3032L16.7654 32.3062L16.7584 32.3131L16.7555 32.3161L16.7475 32.322L16.7445 32.325L16.7376 32.3309C16.2992 32.7421 12.0189 36.8696 12.0189 36.8696L12.0099 36.8795L12.007 36.8825L11.999 36.8894L11.9891 36.8993L11.9861 36.9023L11.9791 36.9083L11.9761 36.9112L11.9682 36.9172L11.9652 36.9201L11.9573 36.9261L11.9543 36.9291L11.9463 36.935L11.9433 36.938L11.9354 36.9439L11.9324 36.9459L11.9245 36.9509L11.9215 36.9538L11.9135 36.9588L11.9105 36.9608L11.9026 36.9657L11.8996 36.9677L11.8917 36.9717L11.8887 36.9736L11.8797 36.9776L11.8767 36.9796L11.8688 36.9836L11.8658 36.9855L11.8569 36.9895L11.8539 36.9915L11.8449 36.9954H11.8419L11.833 37.0004H11.83L11.8211 37.0054H11.8181L11.8091 37.0093H11.8062L11.7972 37.0133H11.7932L11.7843 37.0172H11.7813L11.7724 37.0212H11.7684L11.7594 37.0242H11.7555L11.7465 37.0271H11.7435L11.7346 37.0301H11.7316L11.7227 37.0321H11.7197L11.7107 37.0351H11.6978L11.6938 37.0371H11.6849L11.6809 37.038H11.672L11.668 37.039H11.659H11.6461H11.6431H11.6203H11.6173H11.6044H11.5954L11.5915 37.038H11.5825H11.5785H11.5696L11.5656 37.0361H11.5567L11.5537 37.0351L11.5447 37.0331H11.5417L11.5328 37.0311H11.5298L11.5209 37.0281H11.5179L11.5089 37.0252H11.505L11.496 37.0222H11.492L11.4831 37.0192H11.4801L11.4712 37.0153H11.4672L11.4583 37.0113H11.4553L11.4463 37.0073H11.4433L11.4344 37.0024H11.4314L11.4225 36.9974H11.4195L11.4105 36.9925L11.4076 36.9905L11.3986 36.9865L11.3956 36.9845L11.3877 36.9806L11.3847 36.9786L11.3757 36.9746L11.3728 36.9727L11.3648 36.9687L11.3618 36.9667L11.3539 36.9618L11.3509 36.9598L11.3429 36.9548L11.34 36.9519L11.332 36.9469L11.329 36.9449L11.3211 36.939L11.3181 36.936L11.3101 36.9301L11.3072 36.9271L11.2992 36.9211L11.2962 36.9182L11.2883 36.9122L11.2853 36.9092L11.2783 36.9033L11.2753 36.9003L11.2654 36.8904L11.2575 36.8835L11.2545 36.8805L11.2455 36.8706C9.04076 34.6949 7.01292 32.6767 5.166 30.8171C3.334 28.9733 1.66899 27.2741 0.171968 25.7236L0.162028 25.7146L0.153082 25.7057L0.149105 25.7018L0.143141 25.6958L0.139165 25.6919L0.133201 25.6859L0.130219 25.6819L0.124254 25.676L0.121272 25.672L0.116302 25.6661L0.112326 25.6621L0.10835 25.6562L0.104374 25.6512L0.100398 25.6453L0.0974155 25.6403L0.0934394 25.6344L0.0904573 25.6294L0.0864811 25.6235L0.083499 25.6185L0.0795229 25.6126L0.0765408 25.6076L0.0725646 25.6017L0.0695825 25.5967L0.0656064 25.5908L0.0626243 25.5858L0.0586481 25.5789L0.055666 25.574L0.0526839 25.568L0.0497018 25.5631L0.0467197 25.5561L0.0447316 25.5512L0.0417495 25.5442L0.0397614 25.5393L0.0367793 25.5323L0.0347913 25.5274L0.0318091 25.5205L0.0298211 25.5145L0.026839 25.5086V25.5026L0.0228628 25.4957L0.0208748 25.4907L0.0188867 25.4838V25.4779L0.0159046 25.4709V25.465L0.0129225 25.458V25.4521L0.00994036 25.4452V25.4392L0.00695825 25.4323V25.4263L0.00497018 25.4194V25.4135L0.00298211 25.4065V25.4006L0.000994036 25.3936V25.3808L0 25.3748V25.3679V25.3619V25.354V25.3104V25.3025L0.000994036 25.2975V25.2847L0.00198807 25.2777V25.2718L0.00298211 25.2648V25.2589L0.00497018 25.252V25.246L0.00695825 25.2381V25.2331L0.00894632 25.2262V25.2203L0.0109344 25.2133L0.0129225 25.2074V25.2004L0.0159046 25.1955V25.1876L0.0188867 25.1826L0.0208748 25.1757L0.0228628 25.1697L0.0248509 25.1628L0.027833 25.1578L0.0298211 25.1509L0.0318091 25.1459L0.0347913 25.138L0.0377734 25.1341L0.0407555 25.1261L0.0437376 25.1222L0.0467197 25.1142L0.0497018 25.1103L0.0606362 25.0875L0.0636183 25.0806L0.0666004 25.0756L0.0695825 25.0697L0.0725646 25.0647L0.0755467 25.0588L0.0795229 25.0538L0.0934394 25.032L0.0974155 25.0261L0.101392 25.0221L0.105368 25.0162L0.109344 25.0122L0.11332 25.0063L0.117296 25.0023L0.122266 24.9963L0.126243 24.9924L0.154076 24.9627L0.159046 24.9567L0.163022 24.9527C0.819086 24.3107 4.26541 20.9947 4.91054 20.3824L4.91551 20.3744ZM13.994 33.4693C14.0249 33.4307 14.0596 33.397 14.0994 33.3683C14.6054 32.8848 15.1123 32.4023 15.6223 31.9208L14.3529 30.6655L14.3429 30.6566L14.334 30.6476L14.3161 30.6288L14.3062 30.6189C12.7584 29.0852 11.3062 27.6347 9.95129 26.2705C8.5666 24.8765 7.2833 23.5726 6.10338 22.3609L6.09245 22.35L6.08449 22.3421L6.07555 22.3322L5.26839 21.5C3.93042 22.7711 2.60437 24.0482 1.28231 25.3372C2.66899 26.7698 4.21571 28.3451 5.92445 30.0641C7.66899 31.8197 9.57455 33.719 11.6382 35.757L12.6809 34.7335L13.995 33.4693H13.994ZM25.9702 33.4337C26.0099 33.4624 26.0467 33.4971 26.0775 33.5367L27.3738 34.7851L28.3638 35.757C32.4443 31.7266 35.8976 28.252 38.7207 25.3362C37.3996 24.0482 36.0706 22.7721 34.7326 21.5L34.1809 22.0686L34.172 22.0786L34.163 22.0875L34.1531 22.0974C32.9602 23.3249 31.659 24.6486 30.2515 26.0654C28.8429 27.4841 27.328 28.997 25.7097 30.6011L24.3767 31.9198C24.9105 32.4221 25.4404 32.9254 25.9692 33.4317L25.9702 33.4337ZM31.6789 20.4061C30.7525 21.3642 29.8241 22.3203 28.8946 23.2754L28.8857 23.2853L28.8817 23.2893L28.8767 23.2952L28.8728 23.2992L28.8668 23.3051L28.8628 23.3091L28.8569 23.315L28.8529 23.319L28.8429 23.3279C28.0706 24.0175 27.1938 24.4831 26.2147 24.7219C25.2505 24.9567 24.1919 24.9696 23.0437 24.7596C22.6958 24.714 22.3141 24.7487 21.9056 24.8626L21.8827 24.8705C21.6093 24.9498 21.3221 25.0637 21.0199 25.2143C21.8022 26.0109 22.5507 26.7639 23.2634 27.4713C24.0139 28.2163 24.7038 28.89 25.332 29.4944C26.8111 28.0261 28.2028 26.6361 29.503 25.3263C30.7654 24.0551 31.9453 22.8553 33.0427 21.7298L32.3936 21.0828L31.6819 20.4091L31.6789 20.4061ZM7.21769 21.9884C8.3002 23.0971 9.46223 24.2771 10.7028 25.5254C11.9433 26.7738 13.2654 28.0945 14.666 29.4855C15.5765 28.4115 16.4414 27.4861 17.2555 26.7113C18.1819 25.8306 19.0517 25.141 19.8579 24.6476L19.8688 24.6407L19.8777 24.6347H19.8797L19.8907 24.6268C20.4831 24.2671 21.0487 24.0086 21.5855 23.854L21.6133 23.8471C22.169 23.6895 22.6948 23.6449 23.1849 23.7103H23.1869L23.1988 23.7123H23.2008L23.2117 23.7153H23.2137L23.2266 23.7183L23.2396 23.7212C24.2396 23.9025 25.1481 23.8936 25.9642 23.6935C26.7684 23.4973 27.494 23.1109 28.1362 22.5363C30.4781 20.1337 32.8072 17.7212 35.1282 15.2958C35.3131 15.0491 35.2724 14.6855 35.1004 14.3387C34.993 14.1208 34.834 13.9107 34.6451 13.7324L34.6203 13.7076C34.4404 13.5432 34.2326 13.4084 34.0189 13.3252C33.6421 13.1795 33.2266 13.1964 32.8748 13.5006L32.8658 13.5095H32.8638L32.8559 13.5184H32.8539L32.8459 13.5263L32.8429 13.5283L32.835 13.5342L32.832 13.5362L32.8241 13.5422L32.8201 13.5451L32.8131 13.5501L32.8091 13.5531L32.8022 13.558L32.7982 13.561L32.7922 13.5649L32.7873 13.5679L32.7813 13.5719L32.7763 13.5749L32.7704 13.5788L32.7644 13.5818L32.7584 13.5848L32.7525 13.5877L32.7465 13.5907L32.7406 13.5937L32.7346 13.5967L32.7286 13.5996L32.7227 13.6026L32.7167 13.6056L32.7117 13.6076L32.7048 13.6105L32.6998 13.6125L32.6918 13.6155L32.6879 13.6175L32.6799 13.6204H32.6759L32.668 13.6244H32.664L32.6561 13.6284H32.6521L32.6441 13.6313H32.6402L32.6322 13.6343H32.6282L32.6203 13.6363H32.6163L32.6074 13.6383H32.6034L32.5944 13.6402L32.5815 13.6422H32.5775L32.5696 13.6442H32.5656L32.5577 13.6452H32.5447L32.5408 13.6462H32.4811H32.4771H32.4692L32.4652 13.6452H32.4573L32.4533 13.6442H32.4453L32.4404 13.6422H32.4324L32.4274 13.6402H32.4195L32.4145 13.6383L32.4066 13.6363H32.4016L32.3936 13.6343H32.3887L32.3807 13.6313H32.3757L32.3688 13.6274H32.3628L32.3559 13.6244L32.3499 13.6224L32.3439 13.6194L32.331 13.6155L32.3251 13.6125L32.3191 13.6095L32.3131 13.6066L32.3072 13.6046L32.3002 13.6016L32.2962 13.5996L32.2883 13.5957L32.2843 13.5937L32.2734 13.5877L32.2654 13.5838L32.2614 13.5818L32.2535 13.5778L32.2505 13.5758L32.2425 13.5709H32.2396L32.2306 13.564H32.2286L32.2197 13.557H32.2177L32.2087 13.5501H32.2078L32.1988 13.5422H32.1978L32.1879 13.5342L32.1779 13.5253L32.169 13.5174L32.16 13.5075L32.1511 13.4986L32.1421 13.4887L32.1332 13.4788L32.1252 13.4698V13.4679L32.1163 13.4599V13.4579L32.1083 13.45L32.1064 13.447L32.1004 13.4391L32.0984 13.4362L32.0924 13.4282L32.0895 13.4243L32.0845 13.4173L32.0815 13.4134L32.0765 13.4064L32.0736 13.4025L32.0696 13.3965L32.0666 13.3916L32.0626 13.3856L32.0596 13.3807L32.0557 13.3747L32.0527 13.3688L32.0497 13.3628L32.0467 13.3569L32.0437 13.3509L32.0408 13.345L32.0378 13.3391L32.0348 13.3331L32.0318 13.3272L32.0288 13.3212L32.0268 13.3163L32.0239 13.3093L32.0219 13.3044L32.0189 13.2965L32.0169 13.2925L32.0139 13.2846V13.2806L32.0099 13.2727V13.2687L32.006 13.2608V13.2568L32.003 13.2489V13.2449L32 13.237V13.233L31.998 13.2251V13.2212L31.996 13.2132V13.2093L31.994 13.2003L31.992 13.1875V13.1835L31.9901 13.1756V13.1716L31.9891 13.1637V13.1508L31.9881 13.1468V13.0874V13.0834V13.0755L31.9891 13.0716V13.0636L31.9901 13.0597V13.0517L31.992 13.0468V13.0389L31.994 13.0339V13.026L31.996 13.021L31.998 13.0131V13.0081L32 13.0002V12.9953L32.003 12.9873V12.9824L32.007 12.9754V12.9695L32.0099 12.9626L32.0119 12.9566L32.0149 12.9507L32.0189 12.9378L32.0219 12.9319L32.0248 12.9259L32.0278 12.92L32.0298 12.914L32.0328 12.9071L32.0348 12.9031L32.0388 12.8952L32.0408 12.8912L32.0467 12.8803L32.0507 12.8724L32.0527 12.8684L32.0567 12.8605L32.0586 12.8575L32.0636 12.8496V12.8466L32.0706 12.8377V12.8358L32.0775 12.8268V12.8249L32.0865 12.814L32.0915 12.806C32.3767 12.3731 32.4622 11.9639 32.4056 11.6181C32.3648 11.3645 32.2435 11.1356 32.0716 10.9533C31.8916 10.7631 31.6541 10.6184 31.3857 10.5382C30.9771 10.4173 30.495 10.4441 30.0268 10.6779L30.0159 10.6838L30.0109 10.6868L30.005 10.6898L29.999 10.6927L29.993 10.6957L29.9861 10.6987L29.9811 10.7007L29.9732 10.7036L29.9692 10.7056L29.9612 10.7086H29.9583L29.9493 10.7135H29.9463L29.9364 10.7185H29.9334L29.9235 10.7225H29.9215L29.9105 10.7264H29.9095L29.8986 10.7294H29.8976L29.8857 10.7324L29.8738 10.7353L29.8489 10.7393L29.8241 10.7423L29.8121 10.7433H29.7992L29.7475 10.7443H29.7346L29.7227 10.7433L29.7097 10.7423L29.6968 10.7403L29.672 10.7353L29.6471 10.7294H29.6461L29.6352 10.7264L29.6103 10.7185H29.6074L29.5984 10.7145H29.5944L29.5865 10.7106H29.5825L29.5696 10.7046L29.5626 10.7017L29.5567 10.6987L29.5507 10.6957L29.5447 10.6927L29.5398 10.6898L29.5288 10.6838L29.5209 10.6799L29.5179 10.6779L29.5099 10.6739L29.507 10.6719L29.498 10.667L29.496 10.665L29.4871 10.66H29.4861L29.4652 10.6452L29.4553 10.6373L29.4453 10.6293L29.4364 10.6214L29.4274 10.6125L29.4175 10.6046L29.4085 10.5956L29.3996 10.5867L29.3907 10.5778L29.3827 10.5679L29.3738 10.559L29.3658 10.5491L29.3579 10.5392L29.3499 10.5293L29.3439 10.5184V10.5164L29.337 10.5075V10.5055L29.33 10.4966V10.4936L29.3241 10.4847L29.3221 10.4817L29.3181 10.4738L29.3151 10.4698L29.3111 10.4629L29.3082 10.4579L29.3052 10.452L29.3022 10.446L29.2992 10.4401L29.2962 10.4332L29.2942 10.4282L29.2913 10.4203L29.2893 10.4163L29.2863 10.4084V10.4054L29.2813 10.3965V10.3935L29.2763 10.3836V10.3806L29.2724 10.3707V10.3688L29.2684 10.3579L29.2654 10.345L29.2624 10.3321L29.2594 10.3192L29.2555 10.2944L29.2535 10.2687V10.2558L29.2525 10.2429V10.1914V10.1785V10.1657V10.1528V10.1399H29.2545L29.2584 10.1151L29.2644 10.0904L29.2674 10.0785L29.2753 10.0537V10.0507L29.2793 10.0418V10.0378L29.2833 10.0299V10.026L29.2893 10.0131L29.2922 10.0061L29.2952 10.0002L29.2982 9.99425L29.3012 9.9883L29.3042 9.98335L29.3091 9.97245C29.4692 9.63262 29.504 9.28585 29.4443 8.97079C29.3857 8.66168 29.2326 8.37832 29.0179 8.15738C28.8032 7.93644 28.5229 7.77494 28.2097 7.71055C27.8916 7.64416 27.5298 7.67785 27.1561 7.84133H27.1521L27.1412 7.84826H27.1382L27.1292 7.85322L27.1262 7.8552L27.1173 7.85817L27.1133 7.86015L27.1054 7.86312L27.1014 7.8651L27.0934 7.86808L27.0885 7.87006L27.0815 7.87204L27.0755 7.87501H27.0696L27.0626 7.87897H27.0567L27.0487 7.88195H27.0437L27.0358 7.88492H27.0318L27.0229 7.88789H27.0189L27.0099 7.89086H27.006L26.997 7.89384H26.9841L26.9811 7.89582H26.9722L26.9692 7.89681H26.9592H26.9563H26.9473L26.9056 7.8978H26.8956H26.8926H26.8827H26.8797H26.8708L26.8668 7.89681H26.8579L26.8549 7.89582L26.8459 7.89384H26.8419L26.833 7.89185H26.829L26.8211 7.88888H26.8161L26.8082 7.88591H26.8032L26.7962 7.88294H26.7903L26.7714 7.876L26.7644 7.87402L26.7594 7.87204L26.7515 7.86907L26.7475 7.86709L26.7356 7.86312L26.7266 7.86015H26.7237L26.7137 7.8552H26.7117L26.7008 7.84925L26.6899 7.84331L26.6789 7.83736L26.668 7.83142L26.6581 7.82547H26.6561L26.6471 7.81953H26.6451L26.6362 7.81259H26.6342L26.6252 7.80566L26.6223 7.80368L26.6143 7.79773L26.6113 7.79575L26.6034 7.78981L26.6004 7.78683L26.5924 7.78089L26.5895 7.77792L26.5825 7.77197L26.5795 7.769L26.5736 7.76306L26.5706 7.76008L26.5636 7.75414L26.5606 7.75117L26.5537 7.74522L26.5507 7.74225L26.5447 7.73631L26.5417 7.73333L26.5358 7.72739L26.5328 7.72442L26.5268 7.71748L26.5239 7.71451L26.5179 7.70757L26.5159 7.7046L26.5099 7.69667L26.508 7.6937L26.502 7.68578L26.5 7.6828L26.494 7.67488V7.67191L26.4801 7.65308V7.6511L26.4652 7.63029L26.4592 7.6194L26.4533 7.6085L26.4483 7.5976H26.4473L26.4433 7.5867V7.58373L26.4384 7.57481L26.4364 7.57184L26.4334 7.56292L26.4314 7.55896L26.4284 7.55103L26.4264 7.54707L26.4235 7.53914L26.4215 7.53419L26.4195 7.52726L26.4165 7.52131V7.51537L26.4125 7.50843V7.50249L26.4095 7.49456V7.48961L26.4066 7.48168V7.47772L26.4036 7.4688V7.46484L26.4006 7.45592V7.45196L26.3976 7.44304V7.43016L26.3956 7.42719V7.41827L26.3946 7.4153V7.40539V7.40242V7.3935L26.3936 7.35189V7.34198V7.33901V7.3291V7.32613V7.31721L26.3946 7.31325V7.30433L26.3956 7.30136L26.3976 7.29244V7.28848L26.3996 7.27956V7.2756L26.4026 7.26768V7.26272L26.4056 7.2548V7.24984L26.4085 7.24291V7.23696L26.4155 7.21814L26.4175 7.2112L26.4195 7.20625L26.4225 7.19832L26.4245 7.19436L26.4284 7.18247L26.4314 7.17355V7.17058L26.4374 7.15869C26.6243 6.68115 26.6093 6.24917 26.4592 5.89844C26.3469 5.63887 26.161 5.41991 25.9304 5.26238C25.6958 5.10088 25.4105 4.99883 25.1084 4.97506C24.6551 4.94038 24.1581 5.08008 23.7117 5.45458L22.6093 6.55631L21.6352 7.5649C22.6451 8.53882 23.2058 9.48004 23.3936 10.2905C23.5219 10.8443 23.4821 11.3496 23.2982 11.7756C23.1074 12.2175 22.7664 12.5663 22.3032 12.7961C21.9086 12.9913 21.4215 13.0973 20.8598 13.0933C21.0606 13.6908 21.0427 14.2525 20.8688 14.735C20.7286 15.1264 20.4861 15.4603 20.1759 15.7169C19.8718 15.9685 19.497 16.1489 19.0875 16.2341C18.5477 16.347 17.9433 16.2975 17.3489 16.0399C17.3121 16.3827 17.2087 16.6987 17.0517 16.9801C16.826 17.3833 16.4921 17.7113 16.0905 17.9342C15.6948 18.1542 15.2316 18.273 14.7455 18.2651C14.2793 18.2572 13.7903 18.1333 13.3171 17.8688C13.2604 18.4771 13.0646 18.9705 12.7276 19.352L12.6958 19.3896C12.1302 19.9999 11.2336 20.2575 10.0099 20.1644C9.93738 20.1585 9.86879 20.1396 9.80716 20.1079L9.80418 20.1059C9.76243 20.0851 9.72465 20.0584 9.69086 20.0277L9.68191 20.0198H9.68091L9.40954 19.7849C9.09841 20.1119 8.76541 20.4547 8.41253 20.8124C8.03976 21.1898 7.64513 21.5842 7.23062 21.9933L7.23459 21.9953L7.21769 21.9884ZM14.8996 6.804C16.6958 8.48928 18.4612 10.2122 20.1919 11.9708C20.8777 12.0897 21.4334 12.0332 21.8191 11.843C22.0507 11.7281 22.2187 11.5606 22.3082 11.3516C22.4046 11.1287 22.4215 10.8463 22.3459 10.5194C22.1899 9.84663 21.666 9.02429 20.6869 8.1336C19.0209 8.29608 17.8141 8.03254 17.0696 7.34198C16.3579 6.68115 16.0964 5.68246 16.2873 4.3489C15.8907 4.33106 15.5477 4.42617 15.2803 4.59857C15.1282 4.69665 14.995 4.82446 14.8897 4.97109C14.7833 5.11971 14.7048 5.28417 14.661 5.45557C14.5557 5.86773 14.6183 6.34627 14.8986 6.804H14.8996ZM19.5159 12.7922C17.7833 11.0306 16.0129 9.30072 14.2048 7.60453C13.7256 7.44601 13.3002 7.4044 12.9493 7.45988C12.6402 7.50843 12.3877 7.63525 12.2097 7.81854C12.0358 7.99886 11.9254 8.24358 11.8966 8.53288C11.8658 8.83902 11.9205 9.1957 12.0765 9.58407L14.6054 12.1571L17.0586 14.6023L17.0676 14.6122L17.0765 14.6211C17.666 15.1551 18.3201 15.3067 18.8559 15.1948C19.0934 15.1452 19.3091 15.0412 19.4831 14.8975C19.6511 14.7588 19.7823 14.5795 19.8559 14.3744C20.006 13.9563 19.9344 13.4054 19.5139 12.7931L19.5159 12.7922ZM16.2207 15.2631C15.4543 14.5072 14.664 13.7195 13.8519 12.9001L11.333 10.3361C10.7276 10.123 10.1958 10.1934 9.8002 10.4292C9.57356 10.5649 9.38668 10.7571 9.25547 10.981C9.12525 11.2079 9.04771 11.4645 9.03976 11.7241C9.02585 12.2017 9.23758 12.7169 9.7505 13.133L9.75944 13.1399H9.76044L9.76243 13.1419L9.76938 13.1478L9.77137 13.1498H9.77336L9.77932 13.1568H9.78131L9.7843 13.1597L9.78926 13.1647L9.79424 13.1686L9.79821 13.1726L9.80318 13.1766C10.3082 13.6224 10.834 14.1099 11.3797 14.635C11.9046 15.1403 12.4692 15.705 13.0736 16.3272L13.0765 16.3292L13.0835 16.3351L13.0865 16.3381L13.1034 16.3539H13.1054L13.1133 16.3629H13.1143L13.1223 16.3728L13.1302 16.3817L13.1392 16.3916C13.6571 16.9504 14.2316 17.1951 14.7485 17.204C15.0457 17.209 15.326 17.1366 15.5626 17.0059C15.7932 16.8781 15.9861 16.6898 16.1133 16.4609C16.2922 16.1399 16.3489 15.7268 16.2217 15.2621L16.2207 15.2631ZM12.2266 16.9692C11.6968 16.4253 11.169 15.9002 10.6461 15.3959C10.1362 14.9045 9.64414 14.4497 9.17495 14.0316C8.61233 13.8969 8.11034 13.9395 7.72266 14.1099C7.52982 14.1951 7.36581 14.312 7.24056 14.4517C7.1173 14.5934 7.02386 14.7578 6.97416 14.9401C6.88668 15.2552 6.91253 15.6376 7.08251 16.0567C7.50298 16.5164 7.92644 16.9563 8.34791 17.3734C8.78827 17.8084 9.24354 18.2364 9.71173 18.6515L10.2475 19.1162C11.0398 19.1528 11.5924 19.0032 11.9026 18.6693L11.9284 18.6436C12.2207 18.3057 12.3211 17.746 12.2276 16.9692H12.2266ZM20.6143 7.07745L21.835 5.81423L22.7475 4.90273C22.5676 4.552 22.0249 4.3162 21.3449 4.17452C20.5388 4.0051 19.5716 3.98529 18.7266 4.06158C18.1958 4.11012 17.7197 4.19434 17.3698 4.30431C17.1799 5.37631 17.3211 6.13226 17.7913 6.5682C18.3062 7.04674 19.2485 7.21616 20.6143 7.07745Z" fill="#8B91A7"/>
</svg>
