<svg width="30" height="30" viewBox="0 0 30 30" fill="none" xmlns="http://www.w3.org/2000/svg">
<path d="M15.0193 29.9912H14.9533C6.70302 29.9912 -0.00927734 23.2789 -0.00927734 15.0286V14.9626C-0.00927734 6.7123 6.70302 0 14.9533 0H15.0193C23.2696 0 29.9819 6.7123 29.9819 14.9626V15.0286C29.9819 23.2789 23.2696 29.9912 15.0193 29.9912ZM14.9533 1.01517C7.26238 1.01517 1.00589 7.27166 1.00589 14.9626V15.0286C1.00589 22.7195 7.26238 28.976 14.9533 28.976H15.0193C22.7102 28.976 28.9667 22.7195 28.9667 15.0286V14.9626C28.9667 7.27166 22.7102 1.01517 15.0193 1.01517H14.9533Z" fill="#ADB2C2"/>
<path d="M5.98652 14.5007C6.02713 14.4804 6.06776 14.4611 6.10735 14.4428C6.79563 14.1241 7.49306 13.8256 8.18946 13.5272C8.22702 13.5272 8.28995 13.4835 8.32548 13.4693C8.37928 13.4459 8.4331 13.4236 8.4869 13.4003C8.59045 13.3556 8.694 13.3119 8.79653 13.2673C9.00363 13.179 9.20969 13.0906 9.41679 13.0023C9.82996 12.8257 10.2431 12.649 10.6563 12.4714C11.4827 12.1181 12.31 11.7638 13.1364 11.4105C13.9627 11.0572 14.7901 10.703 15.6164 10.3497C16.4428 9.99639 17.2701 9.6421 18.0965 9.28882C18.9228 8.93554 19.7502 8.58125 20.5766 8.22798C20.7603 8.14879 20.9593 8.03103 21.1562 7.99651C21.3217 7.96707 21.4831 7.91023 21.6496 7.87876C21.9653 7.81887 22.3135 7.7945 22.616 7.92546C22.7206 7.97114 22.817 8.03508 22.8972 8.11528C23.281 8.49495 23.2272 9.11828 23.146 9.65226C22.5805 13.3739 22.0151 17.0965 21.4486 20.8181C21.3714 21.3288 21.2659 21.8891 20.8628 22.212C20.5217 22.485 20.0365 22.5155 19.6152 22.3997C19.1939 22.283 18.8224 22.0383 18.4579 21.7978C16.9463 20.7968 15.4337 19.7958 13.9221 18.7949C13.5628 18.5573 13.1628 18.2467 13.1668 17.8152C13.1689 17.5554 13.3242 17.3239 13.4826 17.1178C14.7962 15.4042 16.6915 14.2266 18.1016 12.5922C18.3006 12.3617 18.4569 11.9455 18.1838 11.8125C18.0214 11.7334 17.8346 11.841 17.6864 11.9435C15.8225 13.2378 13.9597 14.5332 12.0958 15.8275C11.4878 16.2498 10.8502 16.6843 10.1173 16.7879C9.46147 16.8813 8.80161 16.6985 8.16713 16.5118C7.63518 16.3554 7.10423 16.195 6.57533 16.0295C6.29412 15.9422 6.00378 15.8478 5.78654 15.6499C5.56929 15.4519 5.44444 15.119 5.5754 14.855C5.65763 14.6895 5.81701 14.585 5.98452 14.4997L5.98652 14.5007Z" fill="#ADB2C2"/>
</svg>
