<svg width="31" height="31" viewBox="0 0 31 31" fill="none" xmlns="http://www.w3.org/2000/svg">
<path d="M16.011 30.9824H15.945C7.69473 30.9824 0.982422 24.2681 0.982422 16.0154V15.9494C0.982422 7.69663 7.69473 0.982361 15.945 0.982361H16.011C24.2613 0.982361 30.9736 7.69663 30.9736 15.9494V16.0154C30.9736 24.2681 24.2613 30.9824 16.011 30.9824ZM15.945 1.99783C8.25409 1.99783 1.99759 8.25616 1.99759 15.9494V16.0154C1.99759 23.7086 8.25409 29.9669 15.945 29.9669H16.011C23.7019 29.9669 29.9584 23.7086 29.9584 16.0154V15.9494C29.9584 8.25616 23.7019 1.99783 16.011 1.99783H15.945Z" fill="#ADB2C2"/>
<path fill-rule="evenodd" clip-rule="evenodd" d="M13.8524 13.5752H16.8236V15.0552C17.2516 14.204 18.3492 13.4392 19.998 13.4392C23.1588 13.4392 23.9092 15.1336 23.9092 18.2424V24H20.7092V18.9504C20.7092 17.18 20.2812 16.1816 19.1916 16.1816C17.6804 16.1816 17.0524 17.2576 17.0524 18.9496V24H13.8524V13.5752ZM8.36518 23.864H11.5652V13.4392H8.36518V23.864ZM12.0236 10.04C12.0237 10.3082 11.9705 10.5738 11.8671 10.8213C11.7637 11.0688 11.6121 11.2932 11.4212 11.4816C11.2297 11.6721 11.0025 11.823 10.7527 11.9257C10.5029 12.0283 10.2353 12.0808 9.96518 12.08C9.42086 12.0788 8.89871 11.8642 8.51078 11.4824C8.32062 11.2933 8.16961 11.0686 8.06638 10.8211C7.96315 10.5736 7.90973 10.3082 7.90918 10.04C7.90918 9.4984 8.12518 8.98 8.51158 8.5976C8.89854 8.21431 9.42132 7.9995 9.96598 8C10.5116 8 11.0348 8.2152 11.4212 8.5976C11.8076 8.98 12.0236 9.4984 12.0236 10.04Z" fill="#ADB2C2"/>
</svg>
