<svg width="31" height="30" viewBox="0 0 31 30" fill="none" xmlns="http://www.w3.org/2000/svg">
<path d="M15.0549 29.9824H14.989C6.73868 29.9824 0.0263672 23.2701 0.0263672 15.0198V14.9538C0.0263672 6.70351 6.73868 -0.00878906 14.989 -0.00878906H15.0549C23.3052 -0.00878906 30.0175 6.70351 30.0175 14.9538V15.0198C30.0175 23.2701 23.3052 29.9824 15.0549 29.9824ZM14.989 1.00638C7.29803 1.00638 1.04154 7.26287 1.04154 14.9538V15.0198C1.04154 22.7107 7.29803 28.9672 14.989 28.9672H15.0549C22.7459 28.9672 29.0024 22.7107 29.0024 15.0198V14.9538C29.0024 7.26287 22.7459 1.00638 15.0549 1.00638H14.989Z" fill="white"/>
<path d="M6.41077 7.05811L13.0926 15.9916L6.36914 23.2552H7.88276L13.7697 16.8961L18.5258 23.2552H23.6758L16.6183 13.8192L22.8768 7.05811H21.3632L15.9422 12.9146L11.5617 7.05811H6.41177H6.41077ZM8.63601 8.17279H11.0014L21.4485 22.1405H19.0831L8.63601 8.17279Z" fill="white"/>
</svg>
