<svg width="30" height="30" viewBox="0 0 30 30" fill="none" xmlns="http://www.w3.org/2000/svg">
<path d="M15.0286 29.9823H14.9626C6.71231 29.9823 0 23.27 0 15.0197V14.9537C0 6.70345 6.71231 -0.0088501 14.9626 -0.0088501H15.0286C23.2789 -0.0088501 29.9912 6.70345 29.9912 14.9537V15.0197C29.9912 23.27 23.2789 29.9823 15.0286 29.9823ZM14.9626 1.00632C7.27167 1.00632 1.01517 7.26281 1.01517 14.9537V15.0197C1.01517 22.7107 7.27167 28.9672 14.9626 28.9672H15.0286C22.7195 28.9672 28.976 22.7107 28.976 15.0197V14.9537C28.976 7.26281 22.7195 1.00632 15.0286 1.00632H14.9626Z" fill="#ADB2C2"/>
<path d="M6.3844 7.05826L13.0662 15.9918L6.34277 23.2553H7.8564L13.7434 16.8963L18.4994 23.2553H23.6494L16.5919 13.8193L22.8505 7.05826H21.3368L15.9158 12.9148L11.5354 7.05826H6.3854H6.3844ZM8.60964 8.17294H10.975L21.4221 22.1407H19.0568L8.60964 8.17294Z" fill="#ADB2C2"/>
</svg>
