<svg width="30" height="31" viewBox="0 0 30 31" fill="none" xmlns="http://www.w3.org/2000/svg">
<path d="M15.0374 30.9824H14.9714C6.7211 30.9824 0.00878906 24.2682 0.00878906 16.0154V15.9494C0.00878906 7.69669 6.7211 0.982422 14.9714 0.982422H15.0374C23.2877 0.982422 30 7.69669 30 15.9494V16.0154C30 24.2682 23.2877 30.9824 15.0374 30.9824ZM14.9714 1.99789C7.28046 1.99789 1.02396 8.25622 1.02396 15.9494V16.0154C1.02396 23.7086 7.28046 29.967 14.9714 29.967H15.0374C22.7283 29.967 28.9848 23.7086 28.9848 16.0154V15.9494C28.9848 8.25622 22.7283 1.99789 15.0374 1.99789H14.9714Z" fill="white"/>
<path fill-rule="evenodd" clip-rule="evenodd" d="M12.8787 13.5752H15.8499V15.0552C16.2779 14.204 17.3755 13.4392 19.0243 13.4392C22.1851 13.4392 22.9355 15.1336 22.9355 18.2424V24H19.7355V18.9504C19.7355 17.18 19.3075 16.1816 18.2179 16.1816C16.7067 16.1816 16.0787 17.2576 16.0787 18.9496V24H12.8787V13.5752ZM7.39155 23.864H10.5915V13.4392H7.39155V23.864ZM11.0499 10.04C11.0501 10.3082 10.9969 10.5738 10.8935 10.8213C10.79 11.0688 10.6385 11.2932 10.4475 11.4816C10.2561 11.6721 10.0289 11.823 9.77909 11.9257C9.52926 12.0283 9.26165 12.0808 8.99155 12.08C8.44723 12.0788 7.92508 11.8642 7.53715 11.4824C7.34699 11.2933 7.19597 11.0686 7.09274 10.8211C6.98952 10.5736 6.9361 10.3082 6.93555 10.04C6.93555 9.4984 7.15155 8.98 7.53795 8.5976C7.92491 8.21431 8.44769 7.9995 8.99235 8C9.53795 8 10.0611 8.2152 10.4475 8.5976C10.8339 8.98 11.0499 9.4984 11.0499 10.04Z" fill="white"/>
</svg>
