<svg width="30" height="30" viewBox="0 0 30 30" fill="none" xmlns="http://www.w3.org/2000/svg">
<path d="M15.0457 29.9912H14.9797C6.72939 29.9912 0.0170898 23.2789 0.0170898 15.0286V14.9626C0.0170898 6.7123 6.72939 0 14.9797 0H15.0457C23.296 0 30.0083 6.7123 30.0083 14.9626V15.0286C30.0083 23.2789 23.296 29.9912 15.0457 29.9912ZM14.9797 1.01517C7.28874 1.01517 1.03226 7.27166 1.03226 14.9626V15.0286C1.03226 22.7195 7.28874 28.976 14.9797 28.976H15.0457C22.7366 28.976 28.9931 22.7195 28.9931 15.0286V14.9626C28.9931 7.27166 22.7366 1.01517 15.0457 1.01517H14.9797Z" fill="white"/>
<path d="M6.0124 14.5005C6.05301 14.4802 6.09363 14.4609 6.13323 14.4426C6.82151 14.1239 7.51893 13.8254 8.21534 13.5269C8.2529 13.5269 8.31583 13.4833 8.35136 13.4691C8.40516 13.4457 8.45898 13.4234 8.51278 13.4001C8.61633 13.3554 8.71988 13.3117 8.82241 13.2671C9.02951 13.1787 9.23557 13.0904 9.44267 13.0021C9.85584 12.8255 10.269 12.6488 10.6822 12.4712C11.5085 12.1179 12.3359 11.7636 13.1623 11.4103C13.9886 11.057 14.816 10.7027 15.6423 10.3495C16.4687 9.99618 17.296 9.64189 18.1224 9.28861C18.9487 8.93533 19.7761 8.58104 20.6025 8.22776C20.7862 8.14858 20.9852 8.03082 21.1821 7.9963C21.3476 7.96686 21.509 7.91002 21.6755 7.87855C21.9912 7.81865 22.3394 7.79429 22.6419 7.92524C22.7465 7.97093 22.8429 8.03487 22.9231 8.11507C23.3069 8.49474 23.253 9.11807 23.1718 9.65205C22.6064 13.3737 22.0409 17.0963 21.4745 20.8179C21.3973 21.3285 21.2917 21.8889 20.8887 22.2117C20.5476 22.4848 20.0624 22.5153 19.6411 22.3995C19.2198 22.2828 18.8482 22.0381 18.4838 21.7975C16.9722 20.7966 15.4596 19.7956 13.948 18.7947C13.5886 18.5571 13.1887 18.2465 13.1927 17.815C13.1948 17.5551 13.3501 17.3237 13.5084 17.1176C14.8221 15.404 16.7174 14.2264 18.1275 12.592C18.3264 12.3615 18.4828 11.9453 18.2097 11.8123C18.0473 11.7332 17.8605 11.8407 17.7122 11.9433C15.8484 13.2376 13.9856 14.533 12.1217 15.8273C11.5136 16.2496 10.8761 16.6841 10.1431 16.7877C9.48735 16.8811 8.82749 16.6983 8.19301 16.5115C7.66106 16.3552 7.13011 16.1948 6.60121 16.0293C6.32 15.942 6.02966 15.8476 5.81242 15.6497C5.59517 15.4517 5.47032 15.1187 5.60128 14.8548C5.68351 14.6893 5.84289 14.5848 6.01039 14.4995L6.0124 14.5005Z" fill="white"/>
</svg>
