<svg width="39" height="39" viewBox="0 0 39 39" fill="none" xmlns="http://www.w3.org/2000/svg">
<g clip-path="url(#clip0_3641_17183)">
<circle cx="19.8887" cy="19.482" r="18.8813" fill="white"/>
<path fill-rule="evenodd" clip-rule="evenodd" d="M19.9176 38.5382C9.40827 38.5382 0.888672 30.0186 0.888672 19.5093C0.888672 9.00001 9.40827 0.481934 19.9176 0.481934C21.3372 0.481934 22.7007 0.652174 24.0079 0.936414C21.2248 1.90161 18.7821 3.37905 16.7377 5.30945C14.6933 7.23985 13.0441 9.57001 12.0789 12.2391H7.98859L6.00043 16.7839H10.942C10.8857 17.4087 10.828 18.0334 10.828 18.6581C10.828 19.6811 10.942 20.7025 11.1122 21.6692H7.42011L5.71619 26.214H12.5319C13.5548 28.3724 14.9745 30.3043 16.7347 31.9505C19.5178 34.5634 23.0959 36.4375 27.13 37.12C24.9153 38.0275 22.4727 38.5382 19.9176 38.5382ZM29.7444 3.20729C35.3106 6.38865 38.8887 13.2043 38.8887 19.5671C38.8887 25.1333 36.3898 30.3591 32.2432 34.0511C27.5282 35.0163 23.2114 32.7455 19.8036 29.3361C19.1226 28.6551 18.5541 27.5182 17.9856 26.6092C17.9294 26.4952 17.8154 26.3827 17.7592 26.2687H17.8154H28.8354L30.4831 21.8957H15.771C15.6008 21.157 15.4868 20.362 15.4305 19.5671C15.4305 19.2828 15.3743 18.9986 15.3743 18.7143V18.6581V18.6019C15.3743 17.9209 15.4305 17.2384 15.4883 16.6137H32.529L34.2892 12.2969H17.022C17.7607 10.8772 18.6696 9.05929 19.8051 7.92385C22.532 5.19697 25.8836 3.03857 29.6881 3.20881H29.7444V3.20729Z" fill="url(#paint0_linear_3641_17183)"/>
</g>
<defs>
<linearGradient id="paint0_linear_3641_17183" x1="7.17175" y1="33.6393" x2="32.6185" y2="5.40924" gradientUnits="userSpaceOnUse">
<stop stop-color="#15BCFF"/>
<stop offset="0.3608" stop-color="#219BF6"/>
<stop offset="0.502" stop-color="#2D79ED"/>
<stop offset="0.7216" stop-color="#725DED"/>
<stop offset="1" stop-color="#B741EE"/>
</linearGradient>
<clipPath id="clip0_3641_17183">
<rect width="38" height="38" fill="white" transform="translate(0.888672 0.481934)"/>
</clipPath>
</defs>
</svg>
