<svg width="114" height="34" viewBox="0 0 114 34" fill="none" xmlns="http://www.w3.org/2000/svg">
<g clip-path="url(#clip0_3786_9949)">
<path d="M17.5 34C26.8888 34 34.5 26.3888 34.5 17C34.5 7.61116 26.8888 0 17.5 0C8.11116 0 0.5 7.61116 0.5 17C0.5 26.3888 8.11116 34 17.5 34Z" fill="url(#paint0_linear_3786_9949)"/>
<path d="M17.5 34C26.8888 34 34.5 26.3888 34.5 17C34.5 7.61116 26.8888 0 17.5 0C8.11116 0 0.5 7.61116 0.5 17C0.5 26.3888 8.11116 34 17.5 34Z" fill="url(#paint1_radial_3786_9949)"/>
<path d="M17.5 1.0625C26.2869 1.0625 33.4375 8.21312 33.4375 17C33.4375 25.7869 26.2869 32.9375 17.5 32.9375C8.71312 32.9375 1.5625 25.7869 1.5625 17C1.5625 8.21312 8.71312 1.0625 17.5 1.0625ZM17.5 0C8.1075 0 0.5 7.6075 0.5 17C0.5 26.3925 8.1075 34 17.5 34C26.8925 34 34.5 26.3925 34.5 17C34.5 7.6075 26.8925 0 17.5 0Z" fill="url(#paint2_linear_3786_9949)"/>
<path d="M21.75 27.625V25.5H13.25V27.625H21.75Z" fill="#272B38" fill-opacity="0.45"/>
<path d="M23.875 23.375H21.75V25.5H23.875V23.375Z" fill="#272B38" fill-opacity="0.45"/>
<path d="M13.25 23.375H11.125V25.5H13.25V23.375Z" fill="#272B38" fill-opacity="0.45"/>
<path d="M26 21.25H23.875V23.375H26V21.25Z" fill="#272B38" fill-opacity="0.45"/>
<path d="M26 12.75H23.875V14.875H26V12.75Z" fill="#272B38" fill-opacity="0.45"/>
<path d="M9 14.875H6.875V17H9V19.125H6.875V21.25H9V23.375H11.125V21.25H19.625V19.125H11.125V17H21.75V14.875H11.125V12.75H9V14.875Z" fill="#272B38" fill-opacity="0.45"/>
<path d="M23.875 10.625H21.75V12.75H23.875V10.625Z" fill="#272B38" fill-opacity="0.45"/>
<path d="M13.25 10.625H11.125V12.75H13.25V10.625Z" fill="#272B38" fill-opacity="0.45"/>
<path d="M13.25 8.5V10.625H21.75V8.5H13.25Z" fill="#272B38" fill-opacity="0.45"/>
<path d="M21.75 26.5625V24.4375H13.25V26.5625H21.75Z" fill="url(#paint3_linear_3786_9949)"/>
<path d="M23.875 22.3125H21.75V24.4375H23.875V22.3125Z" fill="url(#paint4_linear_3786_9949)"/>
<path d="M13.25 22.3125H11.125V24.4375H13.25V22.3125Z" fill="url(#paint5_linear_3786_9949)"/>
<path d="M26 20.1875H23.875V22.3125H26V20.1875Z" fill="url(#paint6_linear_3786_9949)"/>
<path d="M26 11.6875H23.875V13.8125H26V11.6875Z" fill="url(#paint7_linear_3786_9949)"/>
<path d="M9 13.8125H6.875V15.9375H9V18.0625H6.875V20.1875H9V22.3125H11.125V20.1875H19.625V18.0625H11.125V15.9375H21.75V13.8125H11.125V11.6875H9V13.8125Z" fill="url(#paint8_linear_3786_9949)"/>
<path d="M23.875 9.5625H21.75V11.6875H23.875V9.5625Z" fill="url(#paint9_linear_3786_9949)"/>
<path d="M13.25 9.5625H11.125V11.6875H13.25V9.5625Z" fill="url(#paint10_linear_3786_9949)"/>
<path d="M13.25 7.4375V9.5625H21.75V7.4375H13.25Z" fill="url(#paint11_linear_3786_9949)"/>
</g>
<path d="M50.8 3.8999L52.069 5.1689L47.947 9.2999H67.5V11.0999H47.947L52.078 15.2309L50.8 16.4999L44.5 10.1999L50.8 3.8999Z" fill="#BDC1CE"/>
<path d="M63.2 17.5L61.931 18.769L66.053 22.9H46.5V24.7H66.053L61.922 28.831L63.2 30.1L69.5 23.8L63.2 17.5Z" fill="#BDC1CE"/>
<g clip-path="url(#clip1_3786_9949)">
<path d="M96.5 34C105.889 34 113.5 26.3888 113.5 17C113.5 7.61116 105.889 0 96.5 0C87.1112 0 79.5 7.61116 79.5 17C79.5 26.3888 87.1112 34 96.5 34Z" fill="url(#paint12_linear_3786_9949)"/>
<path d="M96.5 34C105.889 34 113.5 26.3888 113.5 17C113.5 7.61116 105.889 0 96.5 0C87.1112 0 79.5 7.61116 79.5 17C79.5 26.3888 87.1112 34 96.5 34Z" fill="url(#paint13_radial_3786_9949)"/>
<path d="M96.5 1.0625C105.287 1.0625 112.438 8.21312 112.438 17C112.438 25.7869 105.287 32.9375 96.5 32.9375C87.7131 32.9375 80.5625 25.7869 80.5625 17C80.5625 8.21312 87.7131 1.0625 96.5 1.0625ZM96.5 0C87.1075 0 79.5 7.6075 79.5 17C79.5 26.3925 87.1075 34 96.5 34C105.893 34 113.5 26.3925 113.5 17C113.5 7.6075 105.893 0 96.5 0Z" fill="url(#paint14_linear_3786_9949)"/>
<path d="M97.1804 19.4519V18.0898H98.5426V16.7276H97.1804V14.0033H95.8183V18.0898H90.3696V19.4519H95.8183V24.9005H94.4561V26.2627H93.0939V27.6248H99.9047V26.2627H98.5426V24.9005H97.1804V20.8141H102.629V19.4519H97.1804Z" fill="#272B38" fill-opacity="0.45"/>
<path d="M103.991 18.0899H102.629L102.629 19.4519L103.991 19.452V18.0899Z" fill="#272B38" fill-opacity="0.45"/>
<path d="M105.353 16.7273H103.991V18.0894H105.353V16.7273Z" fill="#272B38" fill-opacity="0.45"/>
<path d="M90.3697 16.7273H89.0075V18.0894L90.3696 18.0898L90.3697 16.7273Z" fill="#272B38" fill-opacity="0.45"/>
<path d="M99.9047 15.3651H98.5426L98.5426 16.7276L99.9047 16.7273V15.3651Z" fill="#272B38" fill-opacity="0.45"/>
<path d="M89.0075 15.3651H87.6454V16.7273H89.0075V15.3651Z" fill="#272B38" fill-opacity="0.45"/>
<path d="M101.267 14.0033H99.9047V15.3651L101.267 15.3655V14.0033Z" fill="#272B38" fill-opacity="0.45"/>
<path d="M101.267 12.6408V14.0033L105.353 14.003L105.353 16.7273H106.716V12.6408H101.267Z" fill="#272B38" fill-opacity="0.45"/>
<path d="M95.8183 12.6408H94.4561V14.003L95.8183 14.0033L95.8183 12.6408Z" fill="#272B38" fill-opacity="0.45"/>
<path d="M87.6454 11.2787H93.094V9.9165H86.2832V15.3651L87.6454 15.3651V11.2787Z" fill="#272B38" fill-opacity="0.45"/>
<path d="M94.4561 11.2791H93.094V12.6413H94.4561V11.2791Z" fill="#272B38" fill-opacity="0.45"/>
<path d="M97.1804 18.3894V17.0273H98.5426V15.6651H97.1804V12.9408H95.8183V17.0273H90.3696V18.3894H95.8183V23.838H94.4561V25.2002H93.0939V26.5623H99.9047V25.2002H98.5426V23.838H97.1804V19.7516H102.629V18.3894H97.1804Z" fill="url(#paint15_linear_3786_9949)"/>
<path d="M103.991 17.0274H102.629L102.629 18.3894L103.991 18.3895V17.0274Z" fill="url(#paint16_linear_3786_9949)"/>
<path d="M105.353 15.6648H103.991V17.0269H105.353V15.6648Z" fill="url(#paint17_linear_3786_9949)"/>
<path d="M90.3697 15.6648H89.0075V17.0269L90.3696 17.0273L90.3697 15.6648Z" fill="url(#paint18_linear_3786_9949)"/>
<path d="M99.9047 14.3026H98.5426L98.5426 15.6651L99.9047 15.6648V14.3026Z" fill="url(#paint19_linear_3786_9949)"/>
<path d="M89.0075 14.3026H87.6454V15.6648H89.0075V14.3026Z" fill="url(#paint20_linear_3786_9949)"/>
<path d="M101.267 12.9408H99.9047V14.3026L101.267 14.303V12.9408Z" fill="url(#paint21_linear_3786_9949)"/>
<path d="M101.267 11.5783V12.9408L105.353 12.9405L105.353 15.6648H106.716V11.5783H101.267Z" fill="url(#paint22_linear_3786_9949)"/>
<path d="M95.8183 11.5783H94.4561V12.9405L95.8183 12.9408L95.8183 11.5783Z" fill="url(#paint23_linear_3786_9949)"/>
<path d="M87.6454 10.2162H93.094V8.854H86.2832V14.3026L87.6454 14.3026V10.2162Z" fill="url(#paint24_linear_3786_9949)"/>
<path d="M94.4561 10.2166H93.094V11.5788H94.4561V10.2166Z" fill="url(#paint25_linear_3786_9949)"/>
</g>
<defs>
<linearGradient id="paint0_linear_3786_9949" x1="17.5" y1="34" x2="17.5" y2="0" gradientUnits="userSpaceOnUse">
<stop stop-color="#424756"/>
<stop offset="0.31" stop-color="#505565"/>
<stop offset="0.42" stop-color="#5F6475"/>
<stop offset="0.61" stop-color="#747A8B"/>
<stop offset="0.73" stop-color="#7C8394"/>
<stop offset="0.88" stop-color="#757C8C"/>
<stop offset="1" stop-color="#6E7484"/>
</linearGradient>
<radialGradient id="paint1_radial_3786_9949" cx="0" cy="0" r="1" gradientUnits="userSpaceOnUse" gradientTransform="translate(17.5 17) rotate(90) scale(17)">
<stop offset="0.80207" stop-color="#272B38" stop-opacity="0"/>
<stop offset="0.848055" stop-color="#272B38" stop-opacity="0.0421641"/>
<stop offset="0.882811" stop-color="#272B38" stop-opacity="0.0948692"/>
<stop offset="0.913817" stop-color="#272B38" stop-opacity="0.15"/>
<stop offset="0.957038" stop-color="#272B38" stop-opacity="0.34"/>
</radialGradient>
<linearGradient id="paint2_linear_3786_9949" x1="17.5" y1="34" x2="17.5" y2="0" gradientUnits="userSpaceOnUse">
<stop stop-color="#6D6E7C"/>
<stop offset="0.17" stop-color="#7A7C8A"/>
<stop offset="0.51" stop-color="#9EA2B1"/>
<stop offset="0.67" stop-color="#B3B8C7"/>
</linearGradient>
<linearGradient id="paint3_linear_3786_9949" x1="16.4375" y1="8.5" x2="16.4375" y2="25.3229" gradientUnits="userSpaceOnUse">
<stop offset="0.4" stop-color="white"/>
<stop offset="0.54" stop-color="#EAEAEC"/>
<stop offset="0.84" stop-color="#C4C6CB"/>
<stop offset="0.99" stop-color="#B6B8BF"/>
</linearGradient>
<linearGradient id="paint4_linear_3786_9949" x1="16.4375" y1="8.5" x2="16.4375" y2="25.3229" gradientUnits="userSpaceOnUse">
<stop offset="0.4" stop-color="white"/>
<stop offset="0.54" stop-color="#EAEAEC"/>
<stop offset="0.84" stop-color="#C4C6CB"/>
<stop offset="0.99" stop-color="#B6B8BF"/>
</linearGradient>
<linearGradient id="paint5_linear_3786_9949" x1="16.4375" y1="8.5" x2="16.4375" y2="25.3229" gradientUnits="userSpaceOnUse">
<stop offset="0.4" stop-color="white"/>
<stop offset="0.54" stop-color="#EAEAEC"/>
<stop offset="0.84" stop-color="#C4C6CB"/>
<stop offset="0.99" stop-color="#B6B8BF"/>
</linearGradient>
<linearGradient id="paint6_linear_3786_9949" x1="16.4375" y1="8.5" x2="16.4375" y2="25.3229" gradientUnits="userSpaceOnUse">
<stop offset="0.4" stop-color="white"/>
<stop offset="0.54" stop-color="#EAEAEC"/>
<stop offset="0.84" stop-color="#C4C6CB"/>
<stop offset="0.99" stop-color="#B6B8BF"/>
</linearGradient>
<linearGradient id="paint7_linear_3786_9949" x1="16.4375" y1="8.5" x2="16.4375" y2="25.3229" gradientUnits="userSpaceOnUse">
<stop offset="0.4" stop-color="white"/>
<stop offset="0.54" stop-color="#EAEAEC"/>
<stop offset="0.84" stop-color="#C4C6CB"/>
<stop offset="0.99" stop-color="#B6B8BF"/>
</linearGradient>
<linearGradient id="paint8_linear_3786_9949" x1="16.4375" y1="8.5" x2="16.4375" y2="25.3229" gradientUnits="userSpaceOnUse">
<stop offset="0.4" stop-color="white"/>
<stop offset="0.54" stop-color="#EAEAEC"/>
<stop offset="0.84" stop-color="#C4C6CB"/>
<stop offset="0.99" stop-color="#B6B8BF"/>
</linearGradient>
<linearGradient id="paint9_linear_3786_9949" x1="16.4375" y1="8.5" x2="16.4375" y2="25.3229" gradientUnits="userSpaceOnUse">
<stop offset="0.4" stop-color="white"/>
<stop offset="0.54" stop-color="#EAEAEC"/>
<stop offset="0.84" stop-color="#C4C6CB"/>
<stop offset="0.99" stop-color="#B6B8BF"/>
</linearGradient>
<linearGradient id="paint10_linear_3786_9949" x1="16.4375" y1="8.5" x2="16.4375" y2="25.3229" gradientUnits="userSpaceOnUse">
<stop offset="0.4" stop-color="white"/>
<stop offset="0.54" stop-color="#EAEAEC"/>
<stop offset="0.84" stop-color="#C4C6CB"/>
<stop offset="0.99" stop-color="#B6B8BF"/>
</linearGradient>
<linearGradient id="paint11_linear_3786_9949" x1="16.4375" y1="8.5" x2="16.4375" y2="25.3229" gradientUnits="userSpaceOnUse">
<stop offset="0.4" stop-color="white"/>
<stop offset="0.54" stop-color="#EAEAEC"/>
<stop offset="0.84" stop-color="#C4C6CB"/>
<stop offset="0.99" stop-color="#B6B8BF"/>
</linearGradient>
<linearGradient id="paint12_linear_3786_9949" x1="96.5" y1="34" x2="96.5" y2="0" gradientUnits="userSpaceOnUse">
<stop stop-color="#424756"/>
<stop offset="0.31" stop-color="#505565"/>
<stop offset="0.42" stop-color="#5F6475"/>
<stop offset="0.61" stop-color="#747A8B"/>
<stop offset="0.73" stop-color="#7C8394"/>
<stop offset="0.88" stop-color="#757C8C"/>
<stop offset="1" stop-color="#6E7484"/>
</linearGradient>
<radialGradient id="paint13_radial_3786_9949" cx="0" cy="0" r="1" gradientUnits="userSpaceOnUse" gradientTransform="translate(96.5 17) rotate(90) scale(17)">
<stop offset="0.80207" stop-color="#272B38" stop-opacity="0"/>
<stop offset="0.848055" stop-color="#272B38" stop-opacity="0.0421641"/>
<stop offset="0.882811" stop-color="#272B38" stop-opacity="0.0948692"/>
<stop offset="0.913817" stop-color="#272B38" stop-opacity="0.15"/>
<stop offset="0.957038" stop-color="#272B38" stop-opacity="0.34"/>
</radialGradient>
<linearGradient id="paint14_linear_3786_9949" x1="96.5" y1="34" x2="96.5" y2="0" gradientUnits="userSpaceOnUse">
<stop stop-color="#6D6E7C"/>
<stop offset="0.17" stop-color="#7A7C8A"/>
<stop offset="0.51" stop-color="#9EA2B1"/>
<stop offset="0.67" stop-color="#B3B8C7"/>
</linearGradient>
<linearGradient id="paint15_linear_3786_9949" x1="96.4994" y1="9.47856" x2="96.4994" y2="27.4444" gradientUnits="userSpaceOnUse">
<stop offset="0.4" stop-color="white"/>
<stop offset="0.655" stop-color="#EAEAEC"/>
<stop offset="0.85" stop-color="#C4C6CB"/>
<stop offset="0.99" stop-color="#B6B8BF"/>
</linearGradient>
<linearGradient id="paint16_linear_3786_9949" x1="96.4994" y1="9.47856" x2="96.4994" y2="27.4444" gradientUnits="userSpaceOnUse">
<stop offset="0.4" stop-color="white"/>
<stop offset="0.655" stop-color="#EAEAEC"/>
<stop offset="0.85" stop-color="#C4C6CB"/>
<stop offset="0.99" stop-color="#B6B8BF"/>
</linearGradient>
<linearGradient id="paint17_linear_3786_9949" x1="96.4994" y1="9.47856" x2="96.4994" y2="27.4444" gradientUnits="userSpaceOnUse">
<stop offset="0.4" stop-color="white"/>
<stop offset="0.655" stop-color="#EAEAEC"/>
<stop offset="0.85" stop-color="#C4C6CB"/>
<stop offset="0.99" stop-color="#B6B8BF"/>
</linearGradient>
<linearGradient id="paint18_linear_3786_9949" x1="96.4994" y1="9.47856" x2="96.4994" y2="27.4444" gradientUnits="userSpaceOnUse">
<stop offset="0.4" stop-color="white"/>
<stop offset="0.655" stop-color="#EAEAEC"/>
<stop offset="0.85" stop-color="#C4C6CB"/>
<stop offset="0.99" stop-color="#B6B8BF"/>
</linearGradient>
<linearGradient id="paint19_linear_3786_9949" x1="96.4994" y1="9.47856" x2="96.4994" y2="27.4444" gradientUnits="userSpaceOnUse">
<stop offset="0.4" stop-color="white"/>
<stop offset="0.655" stop-color="#EAEAEC"/>
<stop offset="0.85" stop-color="#C4C6CB"/>
<stop offset="0.99" stop-color="#B6B8BF"/>
</linearGradient>
<linearGradient id="paint20_linear_3786_9949" x1="96.4994" y1="9.47856" x2="96.4994" y2="27.4444" gradientUnits="userSpaceOnUse">
<stop offset="0.4" stop-color="white"/>
<stop offset="0.655" stop-color="#EAEAEC"/>
<stop offset="0.85" stop-color="#C4C6CB"/>
<stop offset="0.99" stop-color="#B6B8BF"/>
</linearGradient>
<linearGradient id="paint21_linear_3786_9949" x1="96.4994" y1="9.47856" x2="96.4994" y2="27.4444" gradientUnits="userSpaceOnUse">
<stop offset="0.4" stop-color="white"/>
<stop offset="0.655" stop-color="#EAEAEC"/>
<stop offset="0.85" stop-color="#C4C6CB"/>
<stop offset="0.99" stop-color="#B6B8BF"/>
</linearGradient>
<linearGradient id="paint22_linear_3786_9949" x1="96.4994" y1="9.47856" x2="96.4994" y2="27.4444" gradientUnits="userSpaceOnUse">
<stop offset="0.4" stop-color="white"/>
<stop offset="0.655" stop-color="#EAEAEC"/>
<stop offset="0.85" stop-color="#C4C6CB"/>
<stop offset="0.99" stop-color="#B6B8BF"/>
</linearGradient>
<linearGradient id="paint23_linear_3786_9949" x1="96.4994" y1="9.47856" x2="96.4994" y2="27.4444" gradientUnits="userSpaceOnUse">
<stop offset="0.4" stop-color="white"/>
<stop offset="0.655" stop-color="#EAEAEC"/>
<stop offset="0.85" stop-color="#C4C6CB"/>
<stop offset="0.99" stop-color="#B6B8BF"/>
</linearGradient>
<linearGradient id="paint24_linear_3786_9949" x1="96.4994" y1="9.47856" x2="96.4994" y2="27.4444" gradientUnits="userSpaceOnUse">
<stop offset="0.4" stop-color="white"/>
<stop offset="0.655" stop-color="#EAEAEC"/>
<stop offset="0.85" stop-color="#C4C6CB"/>
<stop offset="0.99" stop-color="#B6B8BF"/>
</linearGradient>
<linearGradient id="paint25_linear_3786_9949" x1="96.4994" y1="9.47856" x2="96.4994" y2="27.4444" gradientUnits="userSpaceOnUse">
<stop offset="0.4" stop-color="white"/>
<stop offset="0.655" stop-color="#EAEAEC"/>
<stop offset="0.85" stop-color="#C4C6CB"/>
<stop offset="0.99" stop-color="#B6B8BF"/>
</linearGradient>
<clipPath id="clip0_3786_9949">
<rect width="34" height="34" fill="white" transform="translate(0.5)"/>
</clipPath>
<clipPath id="clip1_3786_9949">
<rect width="34" height="34" fill="white" transform="translate(79.5)"/>
</clipPath>
</defs>
</svg>
