<svg width="132" height="28" viewBox="0 0 132 28" fill="none" xmlns="http://www.w3.org/2000/svg">
<g clip-path="url(#clip0_3798_10168)">
<path d="M0.666626 12.0756V8.61919H3.5948V7.42079L7.30885 2.47163H9.1164V8.61919H12.6736V12.0756H9.1164V20.8347C9.1164 21.9609 9.23442 22.7007 9.47045 23.0541C9.71934 23.4075 10.2302 23.5843 11.003 23.5843C11.4356 23.5843 11.927 23.4926 12.477 23.3092V27.2572C11.3848 27.488 10.2719 27.6064 9.1556 27.6107C8.5143 27.6107 7.90515 27.5648 7.32814 27.4731C5.63818 27.1981 4.54432 26.3994 4.04654 25.077C3.8576 24.5707 3.7322 24.043 3.6732 23.5059C3.62094 22.9956 3.5948 22.0399 3.5948 20.6387V12.0756H0.666626ZM20.6431 15.4481V18.7583H13.2635V15.4481H20.6431ZM32.423 8.04923C33.7326 8.04923 34.9117 8.23901 35.9603 8.61857C38.0298 9.37851 39.5756 10.7076 40.5977 12.6058C41.3838 14.0726 41.7768 15.8662 41.7768 17.9867C41.7768 21.0116 40.8466 23.4272 38.9862 25.2338C37.2962 26.8706 35.1019 27.6891 32.4031 27.6891C29.5342 27.6891 27.2415 26.7725 25.525 24.9395C23.8351 23.1458 22.9901 20.7824 22.9901 17.8492C22.9901 14.982 23.8089 12.6713 25.4466 10.9171C27.2278 9.00476 29.5533 8.04882 32.423 8.04923ZM32.1865 11.9182C31.6232 11.9182 31.1254 12.0557 30.6932 12.3307C29.2393 13.2342 28.5123 15.0739 28.5123 17.8499C28.5123 18.7529 28.5974 19.617 28.7674 20.442C28.9906 21.4762 29.4164 22.301 30.0448 22.9166C30.6737 23.5189 31.4073 23.8201 32.2456 23.8201C32.77 23.8201 33.2547 23.6956 33.6998 23.4467C35.1807 22.6217 35.9211 20.782 35.9211 17.9276C35.9211 17.0507 35.8423 16.2194 35.6847 15.4338C35.4752 14.3602 35.0494 13.5092 34.4072 12.8808C33.7784 12.2391 33.0377 11.9182 32.1865 11.9182ZM44.2919 27.1197V8.61919H49.8533V10.3278C51.15 8.80876 52.8663 8.04923 55.0022 8.04923C57.4778 8.04923 59.2856 8.87409 60.4255 10.5238C61.1331 11.5455 61.487 13.143 61.487 15.3162V27.1197H55.9648V16.1804C55.9648 14.897 55.8206 13.9935 55.5323 13.47C55.0739 12.645 54.3206 12.2324 53.2724 12.2324C51.9102 12.2324 50.921 12.8936 50.305 14.2161C49.9773 14.8968 49.8135 16.1603 49.8135 18.0067V27.1197H44.2919ZM64.9161 27.1197V0.311279H70.4377V27.1197H64.9161ZM74.0279 5.67297V0.311279H79.8836V5.67297H74.0279ZM74.1847 27.1197V8.61919H79.7069V27.1197H74.1847ZM83.3525 27.1197V8.61919H88.9133V10.3278C90.2104 8.80876 91.9267 8.04923 94.0622 8.04923C96.5382 8.04923 98.346 8.87409 99.4855 10.5238C100.193 11.5455 100.547 13.143 100.547 15.3162V27.1197H95.0248V16.1804C95.0248 14.897 94.8806 13.9935 94.5923 13.47C94.1339 12.645 93.3809 12.2324 92.333 12.2324C90.9704 12.2324 89.9812 12.8936 89.3657 14.2161C89.0379 14.8968 88.8741 16.1603 88.8741 18.0067V27.1197H83.3525ZM121.18 19.2044H108.879C109.036 22.3861 110.196 23.9769 112.357 23.9769C113.681 23.9769 114.617 23.3223 115.167 22.0131H120.709C120.447 22.995 119.962 23.9115 119.255 24.7627C117.656 26.7136 115.383 27.6891 112.436 27.6891C109.619 27.6891 107.372 26.8445 105.695 25.1554C103.927 23.3617 103.043 20.9657 103.043 17.9675C103.043 15.1915 103.848 12.8806 105.459 11.0347C107.189 9.04437 109.436 8.04923 112.2 8.04923C114.401 8.04923 116.268 8.71045 117.801 10.0329C118.914 11.0019 119.74 12.2131 120.276 13.6667C120.814 15.1065 121.115 16.9524 121.18 19.2044ZM115.344 15.9054C115.266 15.0542 115.102 14.3341 114.853 13.7451C114.289 12.4094 113.392 11.7415 112.161 11.7415C111.571 11.7415 111.053 11.9116 110.608 12.2517C109.639 12.959 109.069 14.1769 108.898 15.9054H115.344Z" fill="#171B26"/>
<path d="M124.11 20.4158H130.817V27.1196H124.11V20.4158Z" fill="#E20074"/>
</g>
<defs>
<clipPath id="clip0_3798_10168">
<rect width="130.667" height="28" fill="white" transform="translate(0.666626)"/>
</clipPath>
</defs>
</svg>
