<svg width="211" height="41" viewBox="0 0 211 41" fill="none" xmlns="http://www.w3.org/2000/svg">
<g clip-path="url(#clip0_3891_17181)">
<path fill-rule="evenodd" clip-rule="evenodd" d="M1.54406 -5.70074C6.76991 0.705836 12.5078 8.75445 13.4358 10.0563C13.4853 10.1257 13.5211 10.1759 13.5425 10.2057C14.0372 10.8964 14.4456 11.4098 14.7558 11.7997C15.4443 12.6653 15.6486 12.9222 15.2378 13.1581C14.9064 13.3484 14.5645 13.4111 14.2234 13.4111C13.8376 13.4111 13.4029 13.2234 13.0863 12.9202C12.8626 12.7058 11.3318 10.4601 9.24721 7.19304C7.65224 4.69319 6.31743 2.61946 6.28102 2.58474C6.19683 2.50444 6.19827 2.50716 9.08459 7.72356C10.8969 10.9991 12.1367 13.4197 12.1367 13.5745C12.1367 13.8895 12.0516 14.0551 11.6669 14.4886C11.0255 15.2113 10.7388 16.0233 10.5319 17.7038C10.2999 19.5875 9.6475 20.9184 7.83952 23.1958C6.7812 24.529 6.60804 24.7733 6.34099 25.3108C6.00464 25.9874 5.91213 26.3664 5.87465 27.2209C5.83503 28.1244 5.91219 28.708 6.18545 29.5717C6.4247 30.3279 6.6744 30.8274 7.31277 31.8261C7.86369 32.6878 8.18091 33.3283 8.18091 33.5789C8.18091 33.7783 8.21859 33.7785 9.07228 33.5839C11.1153 33.1178 12.7741 32.2984 13.7071 31.294C14.2846 30.6722 14.4201 30.329 14.4245 29.4771C14.4274 28.9199 14.408 28.8033 14.2589 28.4827C14.0161 27.9608 13.5742 27.5271 12.6002 26.8546C11.324 25.9733 10.779 25.2639 10.6284 24.2882C10.5049 23.4878 10.6482 22.9229 11.3542 21.4284C12.0849 19.8813 12.266 19.2221 12.3885 17.6626C12.4676 16.6551 12.5772 16.2578 12.8638 15.939C13.1626 15.6064 13.4317 15.4938 14.1713 15.3916C15.3772 15.2253 16.1451 14.9101 16.7762 14.3227C17.3238 13.813 17.5529 13.322 17.588 12.5827L17.6147 12.0224L17.3088 11.6621C16.2007 10.3571 0.80201 -6.72656 0.73382 -6.72656C0.719253 -6.72656 1.08388 -6.26491 1.54406 -5.70074ZM8.80292 28.2432C9.05345 27.7949 8.92034 27.2189 8.50126 26.9374C8.10531 26.6715 7.49023 26.7968 7.49023 27.1433C7.49023 27.249 7.54811 27.3259 7.67861 27.3939C7.8983 27.5081 7.91425 27.6365 7.74139 27.8989C7.56633 28.1647 7.58045 28.3984 7.78125 28.557C8.10487 28.8131 8.56298 28.6723 8.80292 28.2432ZM16.3436 3.80468C15.8492 3.72723 15.8284 3.71814 16.061 3.68203C16.5068 3.61277 17.5595 3.70716 18.2849 3.88139C19.9784 4.28798 21.5194 5.32958 23.1642 7.17948L23.6012 7.67093L24.2264 7.56942C26.8601 7.14191 29.5393 7.48166 31.7802 8.5273C32.3967 8.81499 33.3687 9.38761 33.4901 9.53476C33.5287 9.58166 33.5999 9.88355 33.6479 10.2057C33.8144 11.3201 33.7311 12.1744 33.3935 12.8124C33.21 13.1596 33.1998 13.2696 33.3231 13.5668C33.4217 13.8039 33.6965 13.9794 33.9687 13.979C34.5255 13.9782 35.1248 13.069 35.4026 11.8038L35.5129 11.3012L35.7315 11.5512C36.9301 12.9231 37.8717 14.7939 38.0334 16.1255L38.0755 16.4727L37.8741 16.1571C37.5272 15.6141 37.1789 15.2442 36.7326 14.9461C35.9285 14.4085 35.0779 14.2256 32.8258 14.1057C30.7917 13.9974 29.6406 13.8219 28.4991 13.4459C26.5567 12.8064 25.5778 11.9545 23.2706 8.8971C22.2459 7.53911 21.6125 6.78776 20.9825 6.18268C19.5509 4.80784 18.1442 4.08681 16.3436 3.80468ZM33.9488 6.83675C34 5.92677 34.1223 5.32656 34.3679 4.77842C34.4651 4.56146 34.5562 4.38387 34.5701 4.38387C34.5843 4.38387 34.542 4.54402 34.4762 4.73972C34.2977 5.2717 34.2683 5.9993 34.3914 6.84584C34.5475 7.91996 34.6364 8.07495 35.7602 9.23522C36.2874 9.77945 36.9006 10.4658 37.1229 10.7605L37.5272 11.2963L37.1229 10.9134C36.6287 10.4451 35.492 9.53186 35.2409 9.4013C35.0725 9.31376 35.0474 9.31526 34.9437 9.41967C34.848 9.51589 34.8277 9.66044 34.8144 10.3439C34.7937 11.409 34.6501 12.0927 34.3032 12.7763C34.1155 13.146 34.0859 13.0671 34.2557 12.6498C34.3825 12.3382 34.3954 12.2012 34.3945 11.1701C34.3925 9.09829 34.1489 8.60022 32.7208 7.74699C32.3593 7.53085 31.763 7.21913 31.3962 7.05422C31.0297 6.88934 30.7383 6.74572 30.7488 6.735C30.7893 6.69433 32.1821 7.10493 32.7426 7.32271C33.5764 7.64668 33.7139 7.68867 33.8152 7.64958C33.883 7.62338 33.9159 7.42372 33.9488 6.83675ZM15.8137 5.24621C15.6793 6.84573 16.3002 8.98543 17.3038 10.381C18.0818 11.4628 19.2877 12.3035 20.178 12.3847C20.7609 12.4378 20.9361 12.2535 20.6724 11.8645C20.3063 11.3244 19.8559 10.4927 19.7368 10.1367C19.6628 9.91548 19.5019 9.26211 19.3792 8.68475C18.9606 6.7136 18.5492 5.94597 17.5987 5.36293C17.2524 5.15043 16.5127 4.87235 16.0837 4.79333L15.8553 4.7512L15.8137 5.24621ZM32.7317 20.7674C28.0417 18.8601 26.3898 17.2045 26.3898 14.411C26.3898 14 26.4039 13.6636 26.4209 13.6636C26.4382 13.6636 26.6195 13.7993 26.8241 13.9651C27.7751 14.7356 28.8402 15.0647 31.7885 15.499C33.5232 15.7548 34.4995 15.9612 35.4002 16.2631C38.2627 17.2219 40.0338 19.1678 40.4561 21.8185C40.5788 22.5886 40.5069 24.0328 40.3079 24.794C40.1508 25.3953 39.6714 26.4788 39.5443 26.5205C39.509 26.532 39.4744 26.3956 39.4654 26.2099C39.4173 25.2146 38.9193 24.2457 38.0831 23.5198C37.1323 22.6945 35.8548 22.0377 32.7317 20.7674ZM29.2126 20.5575C29.2784 20.7556 29.3804 21.2065 29.439 21.5598C29.8147 23.818 28.6412 25.6424 26.3584 26.3494C26.1167 26.4241 25.1648 26.6124 24.243 26.7674C22.377 27.0812 21.5441 27.3035 20.7074 27.7106C20.1141 27.9993 19.3957 28.4317 19.4384 28.4746C19.4521 28.4886 19.5876 28.4559 19.7393 28.4021C20.7944 28.0279 21.9686 27.8341 23.7526 27.7404C24.4607 27.7034 25.2659 27.6441 25.5423 27.609C27.1316 27.4068 28.2332 26.9191 29.0899 26.0384C29.5665 25.5483 29.8507 25.0917 30.0797 24.448C30.2249 24.0396 30.2445 23.8879 30.2456 23.1644C30.2469 22.4271 30.2292 22.2922 30.0719 21.8387C29.8659 21.2442 29.623 20.7981 29.3152 20.4492L29.093 20.1973L29.2126 20.5575ZM31.5891 25.4165C30.9658 24.0633 30.8229 22.7571 31.1641 21.5389C31.2008 21.4085 31.2594 21.302 31.2949 21.302C31.3302 21.302 31.4771 21.3824 31.6216 21.4805C31.9086 21.6757 32.4846 22.0046 34.0188 22.8495C35.9335 23.9038 37.0251 24.7202 37.7673 25.6531C38.4174 26.4699 38.8197 27.4002 39.0132 28.5348C39.1231 29.1774 39.0588 30.7239 38.8956 31.3709C38.3808 33.4113 37.1844 35.014 35.478 35.9493C35.2281 36.0862 35.0036 36.1986 34.9792 36.1993C34.955 36.1997 35.0461 35.9659 35.1816 35.6793C35.7557 34.4672 35.821 33.2882 35.3871 31.9761C35.1213 31.1726 34.5795 30.1921 33.4855 28.535C32.2137 26.6085 31.9018 26.0957 31.5891 25.4165ZM19.8516 29.8543C17.8791 30.1779 15.7136 31.2323 13.9732 32.7166L13.455 33.1585L13.9104 33.2305C16.2867 33.6051 16.9266 33.9374 18.5749 35.6525C19.5234 36.6393 19.8438 36.859 20.6305 37.0618C21.7861 37.3598 22.9252 36.8123 23.3159 35.7711C23.4905 35.3058 23.4672 34.5354 23.2669 34.1486C22.7905 33.2274 21.4026 32.9297 20.7314 33.6044C20.1724 34.1665 20.3353 35.0131 21.0306 35.1587C21.1897 35.1922 21.1852 35.1851 20.99 35.0959C20.6857 34.9569 20.5535 34.7642 20.5518 34.4576C20.548 33.7387 21.3625 33.3351 22.1202 33.6803C22.675 33.9333 22.8953 34.2637 22.8953 34.8429C22.8953 35.7349 22.1437 36.407 21.2691 36.2971C20.8016 36.2383 20.2298 35.9363 19.9232 35.5863C19.1518 34.7052 19.4523 33.3148 20.5294 32.7813C21.3493 32.3753 22.4393 32.4753 23.2845 33.0343C24.2556 33.6768 24.6686 34.2639 25.505 36.1908C25.7774 36.8182 26.1278 37.5245 26.2837 37.7603C27.076 38.9583 28.0253 39.5458 29.1688 39.5458C29.7995 39.5458 30.2739 39.4294 30.8708 39.1285C31.3143 38.9046 31.943 38.4795 31.8977 38.4339C31.8848 38.4211 31.7009 38.4788 31.4889 38.5623C30.2403 39.0541 28.9711 39.0204 28.2341 38.4753C27.7699 38.1323 27.3955 37.4489 27.2031 36.5942C27.1697 36.4462 27.0599 35.7929 26.9588 35.1421C26.7025 33.4928 26.4565 32.7515 25.8827 31.9007C25.2956 31.0303 24.1669 30.2998 22.9051 29.9735C22.1179 29.77 20.7017 29.7146 19.8516 29.8543ZM17.089 17.1027C17.2593 16.4673 17.8096 15.8612 18.3757 15.6855C18.7357 15.574 19.4798 15.6452 19.8296 15.8248C20.5076 16.1731 20.9998 16.9661 20.893 17.5386C20.7628 18.2366 19.642 18.7952 18.3528 18.8043C17.6943 18.8089 17.4512 18.7195 17.1997 18.3804C17.044 18.1704 16.9851 17.4904 17.089 17.1027ZM19.6565 16.0737C19.9946 16.2822 20.0816 16.5906 19.8828 16.8759C19.7459 17.0724 19.3219 17.2592 19.0121 17.2592C18.5467 17.2592 18.0389 16.9253 18.0389 16.6196C18.0389 16.0052 19.0126 15.6764 19.6565 16.0737ZM120.71 17.8328C119.658 14.3345 121.392 11.4328 125.093 10.5003C126.154 10.2328 130.96 10.3535 131.784 10.6685C132.086 10.7839 132.218 11.227 132.221 12.1375C132.223 12.8546 132.301 13.7255 132.394 14.0728C132.536 14.5993 132.453 14.7029 131.897 14.6944C131.395 14.6866 131.091 14.3921 130.667 13.5012C129.989 12.0783 129.169 11.6257 127.257 11.6203C124.816 11.6133 123.03 13.2567 123.321 15.2423C123.51 16.5344 124.801 17.8058 127.698 19.5535C130.455 21.2161 132.064 22.5834 132.705 23.8084C134.419 27.0834 132.955 30.5881 129.136 32.354C127.176 33.2603 123.89 33.354 121.58 32.5695L120.101 32.0669V29.7033C120.101 27.5626 120.152 27.3392 120.64 27.3392C121.048 27.3392 121.224 27.609 121.367 28.4541C121.724 30.5556 123.321 31.8314 125.595 31.8314C127.823 31.8314 129.381 30.614 129.978 28.4066C130.232 27.4663 130.188 27.1196 129.684 26.0822C129.08 24.8385 128.039 24.0132 124.507 21.9752C122.546 20.8441 121.16 19.3319 120.71 17.8328ZM51.4565 11.8969C50.9744 11.8969 50.7863 11.7394 50.7863 11.3353C50.7863 10.8005 50.9744 10.7738 54.7518 10.7738C58.2578 10.7738 58.7065 10.8266 58.6261 11.2289C58.5757 11.4794 58.0913 11.8267 57.5489 12.0011L56.5625 12.318L56.4784 19.4777C56.422 24.2551 56.5013 27.011 56.7164 27.7603C57.356 29.9886 59.3071 31.27 62.06 31.27C63.9764 31.27 65.0959 30.8219 66.5024 29.4913C68.0153 28.0608 68.2565 26.7016 68.2517 19.6372C68.2471 12.6691 68.1258 12.094 66.6292 11.9494C65.9482 11.8834 65.7201 11.7248 65.7201 11.3176C65.7201 10.81 65.9447 10.7738 69.1012 10.7738C72.2945 10.7738 72.4823 10.805 72.4823 11.3353C72.4823 11.6813 72.293 11.8986 71.9892 11.9011C70.6842 11.9126 70.6603 12.0367 70.4846 19.6775C70.3024 27.6123 70.1322 28.5518 68.5241 30.4955C68.0604 31.0562 66.9544 31.8704 66.0666 32.3049C64.6197 33.013 64.1595 33.0943 61.6343 33.0897C59.3067 33.0849 58.5718 32.9724 57.4079 32.4427C55.7089 31.6692 54.604 30.6683 53.7894 29.1641C53.2208 28.1142 53.1722 27.546 53.0406 20.4322C52.8898 12.2894 52.8168 11.8969 51.4565 11.8969ZM77.8227 11.8969C77.1785 11.8969 76.9906 11.77 76.9906 11.3353C76.9906 10.8089 77.1706 10.7752 79.8786 10.7968L82.7668 10.8199L84.1487 12.4112C84.9081 13.2864 87.3847 16.0242 89.6513 18.4949C91.9182 20.9657 94.5207 23.84 95.4345 24.8823C96.3485 25.9249 97.2086 26.7776 97.3461 26.7776C97.4874 26.7776 97.5577 23.833 97.5074 20.0145L97.4185 13.2513L96.6278 12.5741C96.1931 12.2015 95.5278 11.8969 95.1488 11.8969C94.6447 11.8969 94.4601 11.7441 94.4601 11.3275C94.4601 10.7791 94.604 10.7609 98.3342 10.8361C101.506 10.9001 102.209 10.9886 102.209 11.3238C102.209 11.5628 101.816 11.8135 101.267 11.9255C100.749 12.0311 100.178 12.2636 99.9988 12.4422C99.7673 12.6727 99.6494 15.6531 99.5921 22.7202L99.5113 32.6737H98.6947C97.9916 32.6737 97.1548 31.8826 92.6807 26.9881C89.8222 23.8609 86.4855 20.1443 85.266 18.7291C84.0462 17.3137 82.9533 16.1449 82.8372 16.1321C82.5101 16.0955 82.5892 28.7409 82.9237 29.9413C83.1845 30.8766 83.3639 31.0377 84.4721 31.3332C85.3645 31.5709 85.7254 31.8122 85.7254 32.1705C85.7254 32.6305 85.3852 32.6737 81.7807 32.6737C78.1114 32.6737 77.836 32.637 77.836 32.1474C77.836 31.7889 78.1014 31.5681 78.6684 31.455C80.389 31.1122 80.5032 30.568 80.5997 22.2497C80.6538 17.5909 80.5744 14.3312 80.3898 13.6486C80.0656 12.4483 79.2575 11.8969 77.8227 11.8969ZM107.368 11.8969C106.764 11.8969 106.576 11.7635 106.576 11.3353C106.576 10.7988 106.764 10.7738 110.803 10.7738C114.841 10.7738 115.029 10.7988 115.029 11.3353C115.029 11.7472 114.841 11.8969 114.324 11.8969C113.937 11.8969 113.361 12.1547 113.045 12.4697C112.487 13.0259 112.473 13.3024 112.552 21.8984C112.63 30.2897 112.663 30.7753 113.181 31.1525C113.482 31.3715 114.02 31.5507 114.378 31.5507C114.841 31.5507 115.029 31.7126 115.029 32.1123C115.029 32.6488 114.841 32.6737 110.803 32.6737C106.86 32.6737 106.576 32.6384 106.576 32.1482C106.576 31.7529 106.853 31.5784 107.692 31.4445C109.36 31.1789 109.445 30.6349 109.341 20.9287C109.258 13.1556 109.222 12.671 108.706 12.295C108.405 12.076 107.803 11.8969 107.368 11.8969ZM136.849 11.8969C136.464 11.8969 136.171 11.6832 136.08 11.3353C135.937 10.7924 136.071 10.7738 140.133 10.7738C144.145 10.7738 144.332 10.7988 144.332 11.3353C144.332 11.7669 144.145 11.8969 143.522 11.8969C141.748 11.8969 141.788 12.2181 144.472 19.5607C145.839 23.2984 147.165 26.8489 147.42 27.4506L147.884 28.5448L150.036 22.8179C152.569 16.0767 152.899 14.8301 152.468 13.6006C152.168 12.7437 151.003 11.8969 150.123 11.8969C149.874 11.8969 149.686 11.6554 149.686 11.3353C149.686 10.798 149.874 10.7738 154.054 10.7738C158.233 10.7738 158.421 10.798 158.421 11.3353C158.421 11.7349 158.233 11.8969 157.77 11.8969C156.586 11.8969 156.063 12.5264 156.233 13.7494C156.409 15.0084 161.255 28.5394 161.458 28.3369C161.789 28.0076 167.156 13.4414 167.156 12.8737C167.156 12.1934 166.678 11.8969 165.583 11.8969C165.089 11.8969 164.901 11.7422 164.901 11.3353C164.901 10.805 165.089 10.7738 168.283 10.7738C171.151 10.7738 171.664 10.8401 171.664 11.2096C171.664 11.4494 171.313 11.7674 170.883 11.9165C169.917 12.2521 169.675 12.635 168.463 15.7372C167.931 17.0995 166.266 21.363 164.762 25.2112C163.259 29.0598 161.964 32.3764 161.885 32.5815C161.806 32.7868 161.34 32.9546 160.85 32.9546H159.958L157.934 27.6901C156.821 24.7949 155.505 21.3647 155.012 20.0676C154.165 17.845 154.094 17.7484 153.775 18.3828C153.589 18.7535 152.252 22.1898 150.803 26.0192L148.169 32.982L147.186 32.8981L146.203 32.8142L142.453 23.0092C140.359 17.5312 138.432 12.9155 138.088 12.5505C137.749 12.1909 137.192 11.8969 136.849 11.8969ZM193.189 12.016C193.142 11.9093 193.142 11.526 193.142 11.526C193.142 11.526 193.131 11.3878 193.189 11.314C193.247 11.2405 193.268 11.2385 193.475 11.2188L193.477 11.2186C194.238 11.1463 195.764 11.0245 197.038 10.9689C197.154 10.9638 197.284 10.958 197.425 10.9516L197.428 10.9514L197.43 10.9514L197.431 10.9513C198.833 10.8877 201.341 10.8026 203.065 10.8888C206.374 11.0541 208.727 12.6532 209.528 15.2957C210.33 17.938 209.906 20.4185 208.813 21.9974C207.72 23.5763 205.882 24.9357 202.827 24.8472C200.306 24.7742 199.631 24.302 199.092 23.9247C198.978 23.845 198.87 23.7694 198.752 23.7029V27.0727C198.778 29.371 198.798 30.4748 198.976 30.8834C199.215 31.4334 199.757 31.7723 200.813 32.0321C200.813 32.0321 201.291 32.1441 201.414 32.2635C201.538 32.3829 201.538 32.6482 201.538 32.6482C201.538 32.6482 201.563 32.8962 201.464 33.0226C201.365 33.149 201.174 33.1237 201.174 33.1237L196.497 33.086L193.677 33.0786C193.677 33.0786 193.381 33.1352 193.27 33.0162C193.159 32.897 193.17 32.6488 193.17 32.6488C193.17 32.6488 193.194 32.3814 193.323 32.2618C193.453 32.1419 193.934 32.0081 193.934 32.0081C195.022 31.7028 195.493 31.3798 195.74 30.7714C195.938 30.2808 195.94 29.3712 195.938 21.9479C195.936 14.9082 195.925 13.595 195.764 13.2173C195.525 12.6583 194.927 12.5102 194.075 12.2993L194.075 12.2992C193.906 12.2574 193.727 12.2131 193.539 12.1627C193.539 12.1627 193.236 12.1226 193.189 12.016ZM206.806 17.7602C206.806 18.9146 206.786 20.7219 205.557 21.8771C204.328 23.0323 201.909 23.3485 200.266 23.0269C199.748 22.9255 199.452 22.7693 199.224 22.6488L199.201 22.6368L198.781 22.4154L198.757 18.3595C198.741 15.8183 198.768 14.1626 198.828 13.9259C198.883 12.5859 200.859 12.4192 201.825 12.4688C205.956 12.4688 206.686 15.9501 206.806 17.7602ZM180.215 10.9311C180.215 10.9311 180.013 11.0085 179.707 11.1245L178.604 11.6943L177.809 13.6776C177.372 14.7684 176.573 16.7708 176.033 18.1274C175.05 20.5983 174.401 22.2216 173.717 23.916C173.516 24.4144 172.909 25.9321 172.368 27.2887C171.828 28.645 171.287 29.936 171.167 30.1575C171.147 30.1943 171.126 30.234 171.104 30.2758C170.802 30.8442 170.276 31.8314 169.349 31.9806C169.349 31.9806 168.839 32.0308 168.65 32.2173C168.461 32.4041 168.479 32.5566 168.479 32.5566V32.7918C168.479 32.7918 168.496 32.9057 168.603 32.9624C168.71 33.0193 168.855 33.0226 168.855 33.0226L172.249 32.984H175.756C175.756 32.984 176.004 33.013 176.1 32.9336C176.195 32.8543 176.222 32.7366 176.222 32.7366V32.4891C176.222 32.4891 176.173 32.2206 176.034 32.1158C175.895 32.0112 175.374 31.9395 175.374 31.9395C173.97 31.7549 173.729 30.6929 173.902 29.738C173.987 29.2688 174.551 27.5332 175.187 25.7858L175.407 25.182L179.082 25.1538C181.103 25.1384 182.848 25.1488 182.96 25.1772C183.119 25.2175 183.343 25.671 183.998 27.2863C184.992 29.7336 185.071 30.0317 184.851 30.4896C184.838 30.5175 184.824 30.5482 184.808 30.5813C184.602 31.0242 184.201 31.8845 183.191 31.9721C183.191 31.9721 182.655 31.9907 182.522 32.1508C182.389 32.3112 182.418 32.4956 182.418 32.4956V32.7406C182.418 32.7406 182.453 32.8842 182.522 32.9411C182.591 32.9979 182.707 32.9835 182.707 32.9835L186.043 32.9596L190.732 32.9594C190.732 32.9594 190.916 32.979 190.966 32.9084C191.016 32.8375 191.027 32.7543 191.027 32.7543V32.4289C191.027 32.4289 191.006 32.2559 190.916 32.1604C190.826 32.0652 190.218 31.9645 190.218 31.9645C189.441 31.8392 189.054 31.1981 188.766 30.7206C188.693 30.5988 188.626 30.4876 188.56 30.3985C188.427 30.2165 187.95 29.2193 187.576 28.2602C187.203 27.3011 186.36 25.1345 185.704 23.4457C185.048 21.757 184.132 19.4012 183.669 18.2109C183.206 17.0204 182.326 14.7552 181.713 13.1772C181.613 12.9182 181.522 12.6855 181.442 12.4773L181.442 12.4763C181.031 11.4166 180.865 10.9889 180.82 10.9311C180.672 10.7431 180.215 10.9311 180.215 10.9311ZM179.996 17.3797C179.848 17.0199 179.588 16.3744 179.417 15.9453C179.108 15.1654 178.991 14.9857 178.895 15.1468C178.867 15.1939 178.672 15.727 178.462 16.3315C177.102 20.2455 176.486 22.0078 176.363 22.34C176.285 22.5487 176.222 22.7638 176.222 22.8181C176.222 22.8804 177.328 22.9168 179.223 22.9168C180.873 22.9168 182.224 22.8963 182.224 22.8713C182.224 22.8462 182.077 22.4727 181.897 22.0408C181.717 21.6088 181.276 20.5307 180.918 19.6449C180.559 18.759 180.144 17.7397 179.996 17.3797Z" fill="#121212"/>
</g>
<defs>
<clipPath id="clip0_3891_17181">
<rect width="210.526" height="40" fill="white" transform="translate(0 0.0546875)"/>
</clipPath>
</defs>
</svg>
