<svg width="36" height="38" viewBox="0 0 36 38" fill="none" xmlns="http://www.w3.org/2000/svg">
<g clip-path="url(#clip0_3757_17315)">
<path fill-rule="evenodd" clip-rule="evenodd" d="M-2.6413 -5.93609C2.75137 0.608994 11.0652 10.7993 11.478 11.3698C11.8187 11.8409 11.6905 12.2644 11.1067 12.5963C10.782 12.7809 10.1145 12.9679 9.7803 12.9679C9.40232 12.9679 8.97651 12.7859 8.66642 12.4917C8.44718 12.2838 7.56257 10.9628 5.5204 7.79411C3.95783 5.36957 2.65016 3.35824 2.61451 3.32458C2.53204 3.24667 2.53345 3.24932 5.36109 8.3087C7.1366 11.4856 7.73598 12.6088 7.73598 12.759C7.73598 13.0645 7.65267 13.2251 7.27577 13.6455C6.64746 14.3464 6.36663 15.134 6.16388 16.7639C5.93651 18.5911 5.29743 19.8818 3.52623 22.0907C2.48943 23.3838 2.31976 23.6208 2.05815 24.142C1.72858 24.7982 1.63798 25.1659 1.60126 25.9946C1.56247 26.8708 1.63807 27.4369 1.9058 28.2747C2.14013 29.0082 2.38474 29.4924 3.01015 30.4612C3.54985 31.297 3.86069 31.9183 3.86069 32.1612C3.86069 32.3546 3.89757 32.3549 4.73394 32.166C6.73532 31.714 8.36056 30.9191 9.27459 29.945C9.84023 29.3421 9.97302 29.0091 9.97733 28.1828C9.98015 27.6424 9.96117 27.5292 9.81512 27.2183C9.5773 26.7123 9.14437 26.2915 8.19013 25.6393C6.9399 24.7846 6.40592 24.0965 6.25837 23.1502C6.13735 22.3738 6.27777 21.826 6.96941 20.3764C7.68533 18.8759 7.86272 18.2365 7.98274 16.7241C8.06024 15.7469 8.16759 15.3615 8.44834 15.0522C8.74111 14.7296 9.0047 14.6205 9.72932 14.5214C10.9107 14.36 11.6629 14.0544 12.2813 13.4846C12.8177 12.9903 13.0421 12.5141 13.0766 11.7971L13.1027 11.2536L12.803 10.9042C11.7175 9.63843 -3.36826 -6.93103 -3.43507 -6.93103C-3.44934 -6.93103 -3.09213 -6.48327 -2.6413 -5.93609ZM4.47001 26.9861C4.71545 26.5515 4.58507 25.9926 4.17451 25.7197C3.78658 25.4617 3.18397 25.5832 3.18397 25.9193C3.18397 26.0219 3.24075 26.0966 3.36857 26.1624C3.58375 26.2731 3.59942 26.3976 3.43007 26.6522C3.25857 26.91 3.27241 27.1366 3.46911 27.2906C3.78617 27.5389 4.23494 27.4023 4.47001 26.9861ZM11.8569 3.28317C11.3726 3.20807 11.3522 3.1992 11.5801 3.16422C12.0169 3.097 13.0481 3.18859 13.7588 3.35752C15.4179 3.75192 16.9275 4.76219 18.539 6.55635L18.9671 7.03305L19.5795 6.93458C22.1597 6.51996 24.7844 6.84945 26.9797 7.86361C27.5837 8.14262 28.5359 8.69807 28.6549 8.84081C28.6928 8.88623 28.7625 9.17908 28.8095 9.4915C28.9726 10.5724 28.891 11.401 28.5604 12.0197C28.3805 12.3565 28.3705 12.4632 28.4914 12.7514C28.588 12.9814 28.8571 13.1516 29.1237 13.1513C29.6693 13.1505 30.2565 12.2686 30.5285 11.0415L30.6366 10.5541L30.8507 10.7965C32.0251 12.1271 32.9475 13.9416 33.1059 15.2332L33.1472 15.5699L32.9498 15.2638C32.6101 14.737 32.2687 14.3784 31.8316 14.0892C31.0437 13.5678 30.2106 13.3904 28.0042 13.2741C26.0114 13.1691 24.8836 12.9989 23.7652 12.6342C21.8626 12.0139 20.9034 11.1877 18.6432 8.22228C17.6393 6.90523 17.0188 6.17646 16.4016 5.5896C14.9991 4.25614 13.621 3.55679 11.8569 3.28317ZM29.1057 6.22395C29.1558 5.34141 29.2755 4.75919 29.5162 4.22762C29.6114 4.01716 29.7007 3.84491 29.7144 3.84491C29.7282 3.84491 29.6868 4.00025 29.6224 4.19007C29.4474 4.70606 29.4188 5.41171 29.5392 6.23282C29.6922 7.27458 29.7792 7.42486 30.8803 8.55027C31.3968 9.07811 31.9975 9.7438 32.2152 10.0296L32.6112 10.5493L32.2152 10.1779C31.731 9.72375 30.6174 8.83798 30.3713 8.71132C30.2065 8.62644 30.1819 8.62785 30.0801 8.72915C29.9864 8.82248 29.9667 8.96265 29.9537 9.62552C29.9334 10.6586 29.7926 11.3217 29.4528 11.9847C29.269 12.3433 29.24 12.2668 29.4063 11.8621C29.5305 11.5599 29.5431 11.427 29.5422 10.4268C29.5403 8.41748 29.3017 7.93439 27.9027 7.10681C27.5483 6.89718 26.9643 6.5948 26.605 6.4349C26.2457 6.27501 25.9603 6.13567 25.9707 6.12531C26.0103 6.08585 27.3747 6.48406 27.9238 6.69526C28.7406 7.0095 28.8755 7.0502 28.9747 7.01232C29.0412 6.98695 29.0734 6.79324 29.1057 6.22395ZM11.3378 4.6814C11.2062 6.23278 11.8144 8.30811 12.7976 9.66162C13.5598 10.7109 14.7412 11.5262 15.6134 11.605C16.1845 11.6565 16.3561 11.4778 16.0977 11.1005C15.7391 10.5766 15.2979 9.77004 15.1811 9.42472C15.1086 9.21012 14.951 8.57642 14.8309 8.0165C14.4208 6.10463 14.0177 5.36011 13.0866 4.79463C12.7472 4.58856 12.0227 4.31884 11.6023 4.24217L11.3786 4.2013L11.3378 4.6814ZM27.912 19.7355C23.3174 17.8855 21.6992 16.2798 21.6992 13.5704C21.6992 13.1717 21.7129 12.8455 21.7296 12.8455C21.7464 12.8455 21.9242 12.9771 22.1247 13.1379C23.0564 13.8852 24.0997 14.2044 26.988 14.6257C28.6876 14.8737 29.6441 15.074 30.5264 15.3666C33.3307 16.2966 35.0658 18.184 35.4795 20.7548C35.5997 21.5018 35.5292 22.9026 35.3342 23.6409C35.1804 24.224 34.7108 25.2751 34.5862 25.3153C34.5517 25.3265 34.5179 25.1942 34.509 25.0141C34.4617 24.0489 33.9739 23.109 33.1547 22.4051C32.2233 21.6047 30.9718 20.9674 27.912 19.7355ZM24.464 19.5318C24.5284 19.7239 24.6282 20.1614 24.6859 20.5039C25.0537 22.6942 23.9042 24.4637 21.6678 25.1493C21.431 25.2219 20.4984 25.4044 19.5953 25.5548C17.7672 25.8593 16.9513 26.0747 16.1317 26.4695C15.5503 26.7495 14.8465 27.1691 14.8884 27.2107C14.9018 27.2242 15.0345 27.1925 15.1831 27.1403C16.2168 26.7773 17.3671 26.5895 19.115 26.4986C19.8086 26.4626 20.5975 26.4051 20.8682 26.3711C22.4253 26.1749 23.5043 25.702 24.3436 24.8478C24.8107 24.3725 25.089 23.9297 25.3133 23.3052C25.4556 22.9092 25.4748 22.7621 25.476 22.0602C25.4771 21.3452 25.4598 21.2144 25.3058 20.7744C25.104 20.198 24.8658 19.7651 24.5645 19.4269L24.3467 19.1825L24.464 19.5318ZM26.7936 24.2445C26.1831 22.9322 26.043 21.6652 26.3774 20.4835C26.4132 20.3573 26.4707 20.2539 26.5053 20.2539C26.5399 20.2539 26.684 20.3318 26.8254 20.427C27.1067 20.6164 27.6709 20.9353 29.174 21.7548C31.0496 22.7774 32.119 23.5693 32.8463 24.4739C33.4831 25.2663 33.8773 26.1686 34.067 27.269C34.1744 27.8923 34.1114 29.3921 33.9515 30.0197C33.4472 31.9987 32.2752 33.5532 30.6034 34.4602C30.3585 34.5931 30.1387 34.7023 30.1149 34.7028C30.0911 34.7032 30.1803 34.4763 30.3132 34.1985C30.8756 33.0229 30.9396 31.8794 30.5144 30.6067C30.2541 29.8273 29.7233 28.8764 28.6516 27.2692C27.4056 25.4007 27.1001 24.9034 26.7936 24.2445ZM15.2952 28.5488C13.3627 28.8627 11.2413 29.8854 9.53622 31.325L9.0286 31.7537L9.47472 31.8233C11.8027 32.1867 12.4296 32.509 14.0444 34.1724C14.9737 35.1296 15.2875 35.3426 16.0582 35.5394C17.1903 35.8285 18.3063 35.2974 18.6891 34.2874C18.8601 33.8362 18.8373 33.0889 18.6412 32.7138C18.1742 31.8205 16.8146 31.5317 16.1571 32.1861C15.6094 32.7313 15.769 33.5524 16.4501 33.6936C16.6061 33.726 16.6016 33.7192 16.4104 33.6326C16.1123 33.4978 15.9829 33.311 15.9812 33.0137C15.9774 32.3162 16.7753 31.9247 17.5177 32.2597C18.0612 32.505 18.2771 32.8255 18.2771 33.3873C18.2771 34.2524 17.5407 34.9042 16.6839 34.7976C16.2258 34.7407 15.6656 34.4478 15.3653 34.1082C14.6095 33.2536 14.904 31.9051 15.9592 31.3878C16.7624 30.9939 17.8302 31.0909 18.6582 31.6331C19.6096 32.2562 20.0143 32.8256 20.8337 34.6946C21.1005 35.303 21.4438 35.988 21.5965 36.2167C22.3726 37.3788 23.3027 37.9487 24.423 37.9487C25.0408 37.9487 25.5057 37.8357 26.0903 37.5437C26.5249 37.3267 27.1408 36.9143 27.0965 36.8703C27.0838 36.8576 26.9036 36.9137 26.6959 36.9947C25.4728 37.4718 24.2294 37.4389 23.5072 36.9103C23.0527 36.5775 22.6857 35.9148 22.4972 35.0858C22.4646 34.9423 22.3569 34.3086 22.2579 33.6775C22.0068 32.0778 21.7657 31.3588 21.2036 30.5337C20.6285 29.6894 19.5228 28.9809 18.2865 28.6645C17.5153 28.4671 16.128 28.4134 15.2952 28.5488ZM12.5883 16.1809C12.7552 15.5645 13.2943 14.9768 13.8489 14.8064C14.2016 14.6982 14.9305 14.7673 15.2733 14.9415C15.9375 15.2792 16.4197 16.0485 16.315 16.6036C16.1874 17.2808 15.0894 17.8225 13.8265 17.8313C13.1814 17.8358 12.9431 17.7491 12.6968 17.4201C12.5443 17.2165 12.4865 16.5569 12.5883 16.1809ZM15.1037 15.1828C15.4349 15.3851 15.5201 15.6842 15.3253 15.9609C15.1912 16.1517 14.7758 16.3326 14.4724 16.3326C14.0163 16.3326 13.5189 16.009 13.5189 15.7123C13.5189 15.1164 14.4729 14.7976 15.1037 15.1828Z" fill="#FF007A"/>
</g>
<defs>
<clipPath id="clip0_3757_17315">
<rect width="35" height="38" fill="white" transform="translate(0.833344)"/>
</clipPath>
</defs>
</svg>
