<svg width="39" height="38" viewBox="0 0 39 38" fill="none" xmlns="http://www.w3.org/2000/svg">
<g clip-path="url(#clip0_3649_17270)">
<path d="M19.5 38C30.0292 38 38.5 29.5292 38.5 19C38.5 8.47077 30.0292 0 19.5 0C8.97077 0 0.5 8.47077 0.5 19C0.5 29.5292 8.97077 38 19.5 38Z" fill="#2775CA"/>
<path d="M24.7255 22.0083C24.7255 19.2375 23.063 18.2875 19.738 17.8917C17.363 17.575 16.888 16.9417 16.888 15.8333C16.888 14.7248 17.6797 14.0125 19.263 14.0125C20.688 14.0125 21.4797 14.4875 21.8755 15.675C21.9547 15.9125 22.1922 16.0708 22.4297 16.0708H23.6962C24.013 16.0708 24.2505 15.8333 24.2505 15.5167V15.4375C23.9337 13.6958 22.5087 12.35 20.688 12.1917V10.2917C20.688 9.97499 20.4505 9.73749 20.0547 9.65826H18.8672C18.5505 9.65826 18.313 9.89576 18.2337 10.2917V12.1125C15.8587 12.4292 14.3547 14.0125 14.3547 15.9917C14.3547 18.6042 15.938 19.6333 19.263 20.0292C21.4797 20.425 22.1922 20.9 22.1922 22.1667C22.1922 23.4335 21.0837 24.3042 19.5797 24.3042C17.5212 24.3042 16.8087 23.4333 16.5712 22.2458C16.4922 21.9292 16.2547 21.7708 16.0172 21.7708H14.6712C14.3547 21.7708 14.1172 22.0083 14.1172 22.325V22.4042C14.4337 24.3833 15.7005 25.8083 18.313 26.2042V28.1042C18.313 28.4208 18.5505 28.6583 18.9462 28.7375H20.1337C20.4505 28.7375 20.688 28.5 20.7672 28.1042V26.2042C23.1422 25.8083 24.7255 24.1458 24.7255 22.0083Z" fill="white"/>
<path d="M15.4621 30.3208C9.28709 28.1042 6.12036 21.2167 8.41632 15.1208C9.60382 11.7958 12.2163 9.2625 15.4621 8.075C15.7788 7.91673 15.9371 7.67923 15.9371 7.28327V6.175C15.9371 5.85827 15.7788 5.62077 15.4621 5.54173C15.3829 5.54173 15.2246 5.54173 15.1454 5.62077C7.62459 7.99577 3.50786 15.9917 5.88286 23.5125C7.30786 27.9458 10.7121 31.35 15.1454 32.775C15.4621 32.9333 15.7788 32.775 15.8579 32.4583C15.9371 32.3792 15.9371 32.3 15.9371 32.1417V31.0333C15.9371 30.7958 15.6996 30.4792 15.4621 30.3208ZM23.8538 5.62077C23.5371 5.4625 23.2204 5.62077 23.1413 5.9375C23.0621 6.01673 23.0621 6.09577 23.0621 6.25423V7.3625C23.0621 7.67923 23.2996 7.99577 23.5371 8.15423C29.7121 10.3708 32.8788 17.2583 30.5829 23.3542C29.3954 26.6792 26.7829 29.2125 23.5371 30.4C23.2204 30.5583 23.0621 30.7958 23.0621 31.1917V32.3C23.0621 32.6167 23.2204 32.8542 23.5371 32.9333C23.6163 32.9333 23.7746 32.9333 23.8538 32.8542C31.3746 30.4792 35.4913 22.4833 33.1163 14.9625C31.6913 10.45 28.2079 7.04577 23.8538 5.62077Z" fill="white"/>
</g>
<defs>
<clipPath id="clip0_3649_17270">
<rect width="38" height="38" fill="white" transform="translate(0.5)"/>
</clipPath>
</defs>
</svg>
