<svg width="39" height="38" viewBox="0 0 39 38" fill="none" xmlns="http://www.w3.org/2000/svg">
<circle cx="19.5" cy="19" r="19" fill="#50AF95"/>
<path fill-rule="evenodd" clip-rule="evenodd" d="M21.8576 20.9902C21.7259 21.0001 21.0455 21.0407 19.5277 21.0407C18.3205 21.0407 17.4634 21.0045 17.1627 20.9902C12.4974 20.7847 9.01517 19.9716 9.01517 18.998C9.01517 18.0245 12.4974 17.2125 17.1627 17.0037V20.1804C17.4678 20.2023 18.3413 20.254 19.5485 20.254C20.9972 20.254 21.7226 20.1935 21.8532 20.1815V17.0059C26.5086 17.2136 29.9831 18.0267 29.9831 18.998C29.9831 19.9694 26.5097 20.7825 21.8532 20.9891L21.8576 20.9902ZM21.8576 16.6774V13.8348H28.3545V9.5H10.6657V13.8348H17.1616V16.6763C11.8817 16.9191 7.91113 17.9663 7.91113 19.2211C7.91113 20.4759 11.8817 21.522 17.1616 21.7659V30.875H21.8565V21.7626C27.1243 21.5198 31.0883 20.4737 31.0883 19.22C31.0883 17.9663 27.1276 16.9202 21.8565 16.6763L21.8576 16.6774Z" fill="white"/>
</svg>
