<svg width="93" height="38" viewBox="0 0 93 38" fill="none" xmlns="http://www.w3.org/2000/svg">
<g clip-path="url(#clip0_10014_56396)">
<g clip-path="url(#clip1_10014_56396)">
<path fill-rule="evenodd" clip-rule="evenodd" d="M5.10516 20.879C4.86353 21.0508 4.55477 21.0991 4.27556 21.0025L3.45938 20.7232C3.13452 20.6132 2.96001 20.2588 3.07009 19.9312C3.13184 19.7487 3.27681 19.6037 3.45938 19.5419L4.27556 19.2627C4.75613 19.0989 5.27698 19.354 5.44076 19.8346C5.57231 20.2185 5.43539 20.6427 5.10516 20.879Z" fill="#0DFF81"/>
<path fill-rule="evenodd" clip-rule="evenodd" d="M4.92515 27.7171C4.79359 27.4889 4.85534 27.199 5.06744 27.0459L6.96827 25.6767C7.30387 25.435 7.77371 25.5102 8.01802 25.8458C8.03413 25.8673 8.04756 25.8888 8.0583 25.9103C8.26502 26.2673 8.14421 26.7264 7.78713 26.9332L7.71733 26.9681L5.58292 27.9292C5.34397 28.0366 5.05938 27.9453 4.92783 27.7171" fill="white"/>
<path fill-rule="evenodd" clip-rule="evenodd" d="M8.0585 14.6181C7.95111 14.8006 7.77123 14.9295 7.56718 14.9751C7.36045 15.0208 7.14298 14.9751 6.97116 14.8516L5.07033 13.4797C4.84212 13.3133 4.79111 12.9938 4.95756 12.7629C5.09986 12.5669 5.36297 12.4971 5.58312 12.5964L7.71753 13.5549C8.09608 13.724 8.26523 14.1643 8.09877 14.5429C8.09877 14.5671 8.07461 14.5885 8.06387 14.6127" fill="white"/>
<path d="M9.98079 30.563L9.76601 36.9501H3.76819C2.09019 36.9501 0.731689 35.5889 0.729004 33.9109V32.5524C3.91854 32.5578 7.07585 31.8785 9.98079 30.563Z" fill="url(#paint0_linear_10014_56396)"/>
<path fill-rule="evenodd" clip-rule="evenodd" d="M26.1351 27.7171C26.0035 27.9453 25.7216 28.0366 25.48 27.9292L23.3456 26.9681C22.9697 26.8016 22.7979 26.3613 22.967 25.9827L23.0046 25.9076C23.2087 25.5505 23.6651 25.4243 24.0222 25.6284C24.0222 25.6284 24.0275 25.631 24.0302 25.6337L24.0947 25.674L25.9955 27.0432C26.2076 27.1963 26.2693 27.4862 26.1378 27.7144" fill="white"/>
<path fill-rule="evenodd" clip-rule="evenodd" d="M25.9901 13.4823L24.0893 14.8543C23.751 15.0959 23.2785 15.0153 23.0369 14.6771L23.002 14.6207C22.7899 14.269 22.9026 13.8099 23.257 13.5978C23.2812 13.5817 23.3054 13.5682 23.3322 13.5602L25.4666 12.6017C25.7243 12.4863 26.0277 12.6017 26.1459 12.8568C26.2452 13.0796 26.1781 13.34 25.9794 13.4823" fill="white"/>
<path fill-rule="evenodd" clip-rule="evenodd" d="M28.2802 20.1326C28.2802 20.3983 28.111 20.6373 27.8587 20.7232L27.0398 21.0024C26.5565 21.1608 26.0411 20.895 25.8827 20.4145C25.7269 19.9419 25.9793 19.4291 26.4491 19.2654C26.6398 19.2009 26.8465 19.2009 27.0398 19.2654L27.8587 19.5446C28.111 19.6305 28.2802 19.8668 28.2802 20.1352" fill="#B3D2FF"/>
<path d="M8.12023 14.0166C8.18198 14.218 8.1605 14.4381 8.05579 14.6207C7.9484 14.8033 7.76852 14.9321 7.56448 14.9778C7.35775 15.0234 7.14028 14.9778 6.96846 14.8543L5.06762 13.4824C4.83942 13.3159 4.78841 12.9964 4.95486 12.7655C5.09716 12.5695 5.36027 12.4997 5.58042 12.5991L7.71483 13.5575C7.90813 13.6461 8.05579 13.8126 8.12023 14.0139M8.12023 26.5143C8.05579 26.7157 7.90545 26.8821 7.71214 26.9681L5.57773 27.9292C5.32268 28.0527 5.01661 27.9426 4.89311 27.6876C4.78304 27.4594 4.85553 27.1882 5.06494 27.0432L6.96577 25.674C7.30137 25.4324 7.77121 25.5075 8.01552 25.8431C8.03163 25.8646 8.04506 25.8861 8.05579 25.9076C8.1605 26.0928 8.18198 26.3103 8.12023 26.5116M4.27561 20.9998L3.45943 20.7205C3.13457 20.6105 2.96006 20.2561 3.07014 19.9285C3.13189 19.746 3.27687 19.601 3.45943 19.5392L4.27561 19.26C4.7535 19.0909 5.27704 19.3432 5.44618 19.8211C5.61532 20.299 5.36295 20.8226 4.88506 20.9917C4.877 20.9917 4.87163 20.9971 4.86358 20.9998C4.67296 21.0642 4.46623 21.0642 4.27293 20.9998M13.7314 3.24793H9.01963C9.01963 7.8255 5.30657 11.5386 0.729004 11.5412V32.5524C3.91853 32.5578 7.07585 31.8785 9.98079 30.563L10.3486 19.703C9.69889 19.3835 9.2371 18.5324 9.2371 17.5364C9.2371 16.4168 9.82239 15.4852 10.5929 15.2758C10.6976 14.6019 10.9366 13.9549 11.2963 13.3723C10.9554 13.332 10.652 13.1333 10.4721 12.838C9.77406 11.8124 8.83438 10.7627 8.11218 9.0605C7.97794 8.76249 8.01552 8.41347 8.20883 8.15036C8.35918 7.95437 8.64108 7.91678 8.83707 8.06445C8.85586 8.08055 8.87466 8.09666 8.89345 8.11546C10.0076 9.17058 11.35 9.48738 12.091 10.4996C12.1447 10.3734 12.2172 10.2552 12.3031 10.1505C12.7354 9.59209 13.4871 9.39342 14.1395 9.66726C14.3892 8.82693 15.2725 8.34635 16.1128 8.59603C16.6283 8.74907 17.031 9.15179 17.1841 9.66726C17.5197 9.51692 17.9009 9.49812 18.2499 9.61625C19.1091 7.98122 20.1669 6.45894 21.4046 5.08701C19.0312 3.8708 16.4001 3.23988 13.7341 3.24256" fill="url(#paint1_linear_10014_56396)"/>
<path fill-rule="evenodd" clip-rule="evenodd" d="M5.10516 20.879C4.86353 21.0508 4.55477 21.0991 4.27556 21.0025L3.45938 20.7232C3.13452 20.6132 2.96001 20.2588 3.07009 19.9312C3.13184 19.7487 3.27681 19.6037 3.45938 19.5419L4.27556 19.2627C4.75613 19.0989 5.27698 19.354 5.44076 19.8346C5.57231 20.2185 5.43539 20.6427 5.10516 20.879Z" fill="#B3D2FF"/>
<path d="M27.8586 20.7233L27.0398 21.0025C26.5565 21.1609 26.041 20.8951 25.8826 20.4145C25.7269 19.942 25.9793 19.4292 26.4491 19.2654C26.6397 19.201 26.8464 19.201 27.0398 19.2654L27.8586 19.5446C28.1835 19.6547 28.358 20.0091 28.2479 20.3366C28.1862 20.5192 28.0412 20.6642 27.8586 20.7259M26.1323 27.7198C26.0007 27.948 25.7188 28.0393 25.4772 27.9319L23.3428 26.9708C22.9669 26.8043 22.7951 26.364 22.9642 25.9854L23.0018 25.9103C23.2059 25.5532 23.6623 25.427 24.0194 25.631C24.0194 25.631 24.0247 25.6337 24.0274 25.6364L24.0919 25.6767L25.9927 27.0459C26.2048 27.199 26.2665 27.4889 26.135 27.7171M22.9347 14.0166C22.9991 13.8153 23.1495 13.6488 23.3428 13.5629L25.4772 12.6044C25.7349 12.489 26.0383 12.6044 26.1565 12.8595C26.2558 13.0823 26.1887 13.3428 25.99 13.4851L24.0892 14.857C23.7509 15.0986 23.2784 15.0181 23.0367 14.6798L23.0018 14.6234C22.8944 14.4408 22.8676 14.218 22.932 14.0166M22.8461 5.93006C22.3763 5.62668 21.8957 5.34746 21.3963 5.09241C20.1613 6.46433 19.1008 7.98661 18.2417 9.62165C18.5451 9.7183 18.8136 9.90355 19.0095 10.1559C19.0955 10.2633 19.1653 10.3814 19.2216 10.5049C19.917 9.55453 21.1386 9.33974 22.2098 8.31684C22.4246 8.094 22.7683 8.0591 23.0233 8.2363C23.0797 8.27388 23.128 8.31952 23.1656 8.37591C23.3079 8.55847 23.3374 8.80547 23.2408 9.01757L23.2112 9.09006C22.4944 10.7573 21.5574 11.8178 20.8647 12.8407C20.6849 13.1387 20.3761 13.3347 20.0298 13.375C20.3842 13.9549 20.6204 14.6019 20.7198 15.2785C21.4151 15.4691 21.9548 16.237 22.0568 17.2062C22.0702 17.3163 22.0756 17.429 22.0756 17.5391C22.0756 18.4761 21.6648 19.2842 21.0742 19.6413C21.0393 19.6654 21.0017 19.6869 20.9641 19.7057V19.8668L21.4769 35.06C27.0612 32.1631 30.5649 26.3935 30.5649 20.1031C30.5703 14.3737 27.6626 9.03636 22.8488 5.93275" fill="url(#paint2_linear_10014_56396)"/>
<path d="M18.862 19.1445C19.0499 19.4828 19.0284 19.8963 18.8056 20.2131C18.0753 21.2789 17.0524 22.0897 15.7503 22.0897H15.4738C14.3489 21.9931 13.1676 21.2575 12.4346 20.3715C12.1634 20.0412 12.1259 19.5795 12.3406 19.209C12.6279 18.7311 12.7783 18.1834 12.7783 17.6276C12.7783 17.1041 12.6494 16.5886 12.4051 16.1268C12.2198 15.7912 12.244 15.3805 12.4615 15.069C12.5178 15.1442 12.5823 15.2113 12.6548 15.2704C13.1863 15.6865 13.93 15.6973 14.4724 15.2972C14.4724 15.8798 15.0603 16.3497 15.7799 16.3497C15.8443 16.355 15.9114 16.355 15.9785 16.3497C16.6094 16.2718 17.09 15.8369 17.09 15.308C17.6404 15.7187 18.4002 15.7053 18.9345 15.2704L19.007 15.2059C19.1036 15.4932 19.0687 15.8073 18.913 16.0651C18.6284 16.5403 18.4807 17.0826 18.4834 17.6357C18.4834 18.1646 18.615 18.6827 18.8674 19.1472M23.1711 8.37316C23.1335 8.31946 23.0852 8.27114 23.0288 8.23355C22.7764 8.06172 22.4381 8.09662 22.226 8.31409C21.1548 9.33968 19.9198 9.54909 19.2379 10.5022C19.1815 10.3787 19.109 10.2606 19.0258 10.1532C18.8271 9.90349 18.5613 9.71824 18.2579 9.6189C17.9089 9.50077 17.5276 9.51956 17.192 9.66991C16.9424 8.82957 16.0591 8.34899 15.2187 8.59868C14.7032 8.75171 14.3005 9.15443 14.1475 9.66991C13.4978 9.39606 12.7434 9.59205 12.3111 10.1532C12.2225 10.2579 12.1527 10.376 12.099 10.5022C11.358 9.49003 10.0183 9.17322 8.90142 8.1181C8.73765 7.93285 8.45575 7.91674 8.27049 8.08052C8.24633 8.10199 8.22754 8.12616 8.20874 8.15032C8.01276 8.41343 7.97517 8.76245 8.11209 9.06046C8.83162 10.7599 9.77398 11.807 10.472 12.838C10.6519 13.136 10.9607 13.332 11.3043 13.3722C10.9445 13.9521 10.7083 14.5992 10.6009 15.2757C9.83304 15.4852 9.24507 16.4168 9.24507 17.5363C9.24507 18.5324 9.70954 19.3835 10.3566 19.703L9.98876 30.5629L9.77398 36.95H13.7367C16.4027 36.9554 19.0338 36.3218 21.4072 35.1056L21.4958 35.0573L20.9857 19.8641V19.703C21.0232 19.6842 21.0608 19.6627 21.0957 19.6385C21.6891 19.2815 22.0972 18.4733 22.0972 17.5363C22.0972 17.4263 22.0918 17.3135 22.0784 17.2034C21.9763 16.2342 21.434 15.4664 20.7413 15.2757C20.6393 14.5992 20.4004 13.9521 20.0379 13.3722C20.3843 13.3346 20.693 13.136 20.8729 12.838C21.5656 11.8124 22.4999 10.7546 23.2194 9.08731L23.2489 9.01482C23.3456 8.80541 23.3187 8.55572 23.1738 8.37316" fill="url(#paint3_linear_10014_56396)"/>
<path d="M9.01964 3.24792C9.01964 7.82549 5.30657 11.5386 0.729004 11.5412V6.28711C0.729004 4.60911 2.09019 3.25061 3.76819 3.24792H9.02232H9.01964Z" fill="url(#paint4_linear_10014_56396)"/>
<path fill-rule="evenodd" clip-rule="evenodd" d="M17.1814 17.915L16.3276 18.6989C16.2551 18.7687 16.2014 18.8573 16.1773 18.954C16.1209 19.1795 16.0108 19.6225 15.9222 20.044C15.8927 20.1621 15.7853 20.2427 15.6672 20.24C15.5463 20.2427 15.439 20.1621 15.4121 20.044L15.1409 18.954C15.1168 18.8546 15.0631 18.766 14.9906 18.6989L14.1368 17.915C14.0375 17.8156 14.0375 17.6545 14.1368 17.5525C14.1932 17.4935 14.2738 17.4639 14.3543 17.472L15.6349 17.6465H15.7047L15.8041 17.6331L16.9854 17.472C17.0928 17.4612 17.1948 17.5176 17.2404 17.6143C17.2888 17.7163 17.2646 17.8371 17.1814 17.9123M18.462 17.625C18.4674 17.0746 18.6204 16.535 18.9077 16.0625C19.058 15.8047 19.0876 15.496 18.9909 15.2141L18.9319 15.2678C18.3976 15.6893 17.6432 15.6946 17.1008 15.2839C17.1008 15.8074 16.6229 16.2477 15.9893 16.3202C15.9249 16.3256 15.8578 16.3256 15.7907 16.3202C15.0711 16.3202 14.4832 15.8477 14.4832 15.2678C13.9408 15.6785 13.1891 15.6732 12.6521 15.2517C12.5797 15.1926 12.5152 15.1228 12.4588 15.0503C12.2414 15.3644 12.2172 15.7752 12.4025 16.1081C12.6521 16.5753 12.781 17.0961 12.7756 17.625C12.7756 18.1754 12.6307 18.7177 12.3488 19.1902C12.1367 19.5607 12.1742 20.0225 12.4427 20.3528C13.1784 21.236 14.3543 21.9744 15.4819 22.071H15.7584C17.0606 22.071 18.0835 21.2602 18.8137 20.1943C19.0258 19.8802 19.0419 19.4721 18.8567 19.1419C18.6043 18.6774 18.4728 18.1566 18.4728 17.6304" fill="#B3D2FF"/>
<path fill-rule="evenodd" clip-rule="evenodd" d="M17.1813 17.915L16.3275 18.699C16.2551 18.7688 16.2014 18.8574 16.1772 18.954C16.1208 19.1795 16.0107 19.6225 15.9221 20.044C15.8926 20.1622 15.7852 20.2427 15.6671 20.24C15.5463 20.2427 15.4389 20.1622 15.412 20.044L15.1409 18.954C15.1167 18.8547 15.063 18.7661 14.9905 18.699L14.1368 17.915C14.0374 17.8157 14.0374 17.6546 14.1368 17.5526C14.1931 17.4935 14.2737 17.464 14.3542 17.472L15.6349 17.6465H15.7047L15.804 17.6331L16.9853 17.472C17.0927 17.4613 17.1947 17.5176 17.2404 17.6143C17.2887 17.7163 17.2645 17.8371 17.1813 17.9123" fill="#003580"/>
</g>
<g clip-path="url(#clip2_10014_56396)">
<path fill-rule="evenodd" clip-rule="evenodd" d="M53.7229 -5.93609C59.1156 0.608994 67.4294 10.7993 67.8422 11.3698C68.1829 11.8409 68.0547 12.2644 67.4709 12.5963C67.1462 12.7809 66.4787 12.9679 66.1445 12.9679C65.7665 12.9679 65.3407 12.7859 65.0306 12.4917C64.8114 12.2838 63.9268 10.9628 61.8846 7.79411C60.322 5.36957 59.0144 3.35824 58.9787 3.32458C58.8962 3.24667 58.8976 3.24932 61.7253 8.3087C63.5008 11.4856 64.1002 12.6088 64.1002 12.759C64.1002 13.0645 64.0169 13.2251 63.64 13.6455C63.0117 14.3464 62.7308 15.134 62.5281 16.7639C62.3007 18.5911 61.6616 19.8818 59.8904 22.0907C58.8536 23.3838 58.684 23.6208 58.4224 24.142C58.0928 24.7982 58.0022 25.1659 57.9655 25.9946C57.9267 26.8708 58.0023 27.4369 58.27 28.2747C58.5043 29.0082 58.7489 29.4924 59.3743 30.4612C59.914 31.297 60.2249 31.9183 60.2249 32.1612C60.2249 32.3546 60.2618 32.3549 61.0981 32.166C63.0995 31.714 64.7248 30.9191 65.6388 29.945C66.2044 29.3421 66.3372 29.0091 66.3415 28.1828C66.3443 27.6424 66.3254 27.5292 66.1793 27.2183C65.9415 26.7123 65.5086 26.2915 64.5543 25.6393C63.3041 24.7846 62.7701 24.0965 62.6226 23.1502C62.5016 22.3738 62.642 21.826 63.3336 20.3764C64.0495 18.8759 64.2269 18.2365 64.3469 16.7241C64.4244 15.7469 64.5318 15.3615 64.8125 15.0522C65.1053 14.7296 65.3689 14.6205 66.0935 14.5214C67.2749 14.36 68.0271 14.0544 68.6455 13.4846C69.1819 12.9903 69.4063 12.5141 69.4408 11.7971L69.4669 11.2536L69.1672 10.9042C68.0816 9.63843 52.9959 -6.93103 52.9291 -6.93103C52.9149 -6.93103 53.2721 -6.48327 53.7229 -5.93609ZM60.8342 26.9861C61.0797 26.5515 60.9493 25.9926 60.5387 25.7197C60.1508 25.4617 59.5482 25.5832 59.5482 25.9193C59.5482 26.0219 59.6049 26.0966 59.7328 26.1624C59.9479 26.2731 59.9636 26.3976 59.7943 26.6522C59.6228 26.91 59.6366 27.1366 59.8333 27.2906C60.1504 27.5389 60.5991 27.4023 60.8342 26.9861ZM68.2211 3.28317C67.7368 3.20807 67.7164 3.1992 67.9443 3.16422C68.3811 3.097 69.4123 3.18859 70.123 3.35752C71.7821 3.75192 73.2917 4.76219 74.9032 6.55635L75.3313 7.03305L75.9437 6.93458C78.5239 6.51996 81.1486 6.84945 83.3439 7.86361C83.9479 8.14262 84.9001 8.69807 85.0191 8.84081C85.057 8.88623 85.1267 9.17908 85.1737 9.4915C85.3368 10.5724 85.2552 11.401 84.9246 12.0197C84.7447 12.3565 84.7347 12.4632 84.8556 12.7514C84.9522 12.9814 85.2213 13.1516 85.4879 13.1513C86.0335 13.1505 86.6207 12.2686 86.8927 11.0415L87.0008 10.5541L87.2149 10.7965C88.3893 12.1271 89.3117 13.9416 89.4701 15.2332L89.5114 15.5699L89.314 15.2638C88.9743 14.737 88.6329 14.3784 88.1958 14.0892C87.4079 13.5678 86.5747 13.3904 84.3684 13.2741C82.3756 13.1691 81.2478 12.9989 80.1294 12.6342C78.2268 12.0139 77.2676 11.1877 75.0074 8.22228C74.0035 6.90523 73.383 6.17646 72.7658 5.5896C71.3633 4.25614 69.9852 3.55679 68.2211 3.28317ZM85.4699 6.22395C85.52 5.34141 85.6397 4.75919 85.8804 4.22762C85.9756 4.01716 86.0649 3.84491 86.0786 3.84491C86.0924 3.84491 86.051 4.00025 85.9866 4.19007C85.8116 4.70606 85.783 5.41171 85.9034 6.23282C86.0564 7.27458 86.1434 7.42486 87.2445 8.55027C87.761 9.07811 88.3617 9.7438 88.5794 10.0296L88.9754 10.5493L88.5794 10.1779C88.0952 9.72375 86.9816 8.83798 86.7355 8.71132C86.5707 8.62644 86.5461 8.62785 86.4443 8.72915C86.3506 8.82248 86.3309 8.96265 86.3179 9.62552C86.2976 10.6586 86.1568 11.3217 85.8169 11.9847C85.6332 12.3433 85.6042 12.2668 85.7705 11.8621C85.8947 11.5599 85.9073 11.427 85.9064 10.4268C85.9045 8.41748 85.6659 7.93439 84.2669 7.10681C83.9125 6.89718 83.3285 6.5948 82.9692 6.4349C82.6099 6.27501 82.3245 6.13567 82.3349 6.12531C82.3745 6.08585 83.7389 6.48406 84.288 6.69526C85.1048 7.0095 85.2397 7.0502 85.3389 7.01232C85.4054 6.98695 85.4376 6.79324 85.4699 6.22395ZM67.702 4.6814C67.5704 6.23278 68.1786 8.30811 69.1618 9.66162C69.924 10.7109 71.1054 11.5262 71.9776 11.605C72.5487 11.6565 72.7203 11.4778 72.4619 11.1005C72.1033 10.5766 71.6621 9.77004 71.5453 9.42472C71.4728 9.21012 71.3152 8.57642 71.1951 8.0165C70.785 6.10463 70.3819 5.36011 69.4508 4.79463C69.1114 4.58856 68.3869 4.31884 67.9665 4.24217L67.7428 4.2013L67.702 4.6814ZM84.2762 19.7355C79.6816 17.8855 78.0634 16.2798 78.0634 13.5704C78.0634 13.1717 78.0771 12.8455 78.0938 12.8455C78.1106 12.8455 78.2883 12.9771 78.4889 13.1379C79.4205 13.8852 80.4639 14.2044 83.3522 14.6257C85.0518 14.8737 86.0083 15.074 86.8905 15.3666C89.6949 16.2966 91.43 18.184 91.8437 20.7548C91.9639 21.5018 91.8934 22.9026 91.6984 23.6409C91.5446 24.224 91.075 25.2751 90.9504 25.3153C90.9159 25.3265 90.882 25.1942 90.8732 25.0141C90.8259 24.0489 90.3381 23.109 89.5189 22.4051C88.5875 21.6047 87.336 20.9674 84.2762 19.7355ZM80.8282 19.5318C80.8926 19.7239 80.9924 20.1614 81.05 20.5039C81.4179 22.6942 80.2684 24.4637 78.032 25.1493C77.7952 25.2219 76.8626 25.4044 75.9595 25.5548C74.1314 25.8593 73.3155 26.0747 72.4958 26.4695C71.9145 26.7495 71.2107 27.1691 71.2526 27.2107C71.266 27.2242 71.3987 27.1925 71.5473 27.1403C72.581 26.7773 73.7313 26.5895 75.4792 26.4986C76.1728 26.4626 76.9616 26.4051 77.2324 26.3711C78.7895 26.1749 79.8685 25.702 80.7078 24.8478C81.1749 24.3725 81.4532 23.9297 81.6775 23.3052C81.8198 22.9092 81.839 22.7621 81.8402 22.0602C81.8413 21.3452 81.824 21.2144 81.67 20.7744C81.4681 20.198 81.23 19.7651 80.9287 19.4269L80.7109 19.1825L80.8282 19.5318ZM83.1577 24.2445C82.5473 22.9322 82.4072 21.6652 82.7416 20.4835C82.7774 20.3573 82.8349 20.2539 82.8695 20.2539C82.9041 20.2539 83.0482 20.3318 83.1896 20.427C83.4709 20.6164 84.0351 20.9353 85.5382 21.7548C87.4138 22.7774 88.4832 23.5693 89.2105 24.4739C89.8473 25.2663 90.2415 26.1686 90.4312 27.269C90.5386 27.8923 90.4756 29.3921 90.3157 30.0197C89.8114 31.9987 88.6394 33.5532 86.9676 34.4602C86.7227 34.5931 86.5029 34.7023 86.4791 34.7028C86.4553 34.7032 86.5445 34.4763 86.6774 34.1985C87.2398 33.0229 87.3038 31.8794 86.8786 30.6067C86.6183 29.8273 86.0875 28.8764 85.0158 27.2692C83.7698 25.4007 83.4643 24.9034 83.1577 24.2445ZM71.6594 28.5488C69.7269 28.8627 67.6055 29.8854 65.9004 31.325L65.3928 31.7537L65.8389 31.8233C68.1669 32.1867 68.7938 32.509 70.4086 34.1724C71.3379 35.1296 71.6517 35.3426 72.4224 35.5394C73.5545 35.8285 74.6705 35.2974 75.0533 34.2874C75.2243 33.8362 75.2015 33.0889 75.0053 32.7138C74.5384 31.8205 73.1788 31.5317 72.5213 32.1861C71.9736 32.7313 72.1332 33.5524 72.8143 33.6936C72.9703 33.726 72.9658 33.7192 72.7746 33.6326C72.4765 33.4978 72.3471 33.311 72.3454 33.0137C72.3416 32.3162 73.1395 31.9247 73.8819 32.2597C74.4254 32.505 74.6413 32.8255 74.6413 33.3873C74.6413 34.2524 73.9049 34.9042 73.0481 34.7976C72.59 34.7407 72.0298 34.4478 71.7295 34.1082C70.9737 33.2536 71.2682 31.9051 72.3233 31.3878C73.1266 30.9939 74.1944 31.0909 75.0224 31.6331C75.9738 32.2562 76.3785 32.8256 77.1979 34.6946C77.4647 35.303 77.808 35.988 77.9607 36.2167C78.7368 37.3788 79.6669 37.9487 80.7872 37.9487C81.405 37.9487 81.8699 37.8357 82.4545 37.5437C82.8891 37.3267 83.505 36.9143 83.4607 36.8703C83.448 36.8576 83.2678 36.9137 83.0601 36.9947C81.837 37.4718 80.5936 37.4389 79.8714 36.9103C79.4169 36.5775 79.0499 35.9148 78.8614 35.0858C78.8288 34.9423 78.7211 34.3086 78.6221 33.6775C78.371 32.0778 78.1299 31.3588 77.5678 30.5337C76.9927 29.6894 75.887 28.9809 74.6507 28.6645C73.8795 28.4671 72.4922 28.4134 71.6594 28.5488ZM68.9525 16.1809C69.1194 15.5645 69.6585 14.9768 70.2131 14.8064C70.5658 14.6982 71.2947 14.7673 71.6375 14.9415C72.3017 15.2792 72.7839 16.0485 72.6792 16.6036C72.5516 17.2808 71.4536 17.8225 70.1907 17.8313C69.5456 17.8358 69.3073 17.7491 69.061 17.4201C68.9085 17.2165 68.8507 16.5569 68.9525 16.1809ZM71.4679 15.1828C71.7991 15.3851 71.8843 15.6842 71.6895 15.9609C71.5554 16.1517 71.14 16.3326 70.8366 16.3326C70.3805 16.3326 69.8831 16.009 69.8831 15.7123C69.8831 15.1164 70.8371 14.7976 71.4679 15.1828Z" fill="#FF007A"/>
</g>
<line x1="40.5471" y1="30.4464" x2="51.1125" y2="7.78871" stroke="#ADB2C2"/>
</g>
<defs>
<linearGradient id="paint0_linear_10014_56396" x1="6.20329" y1="39.2536" x2="5.56968" y2="34.0747" gradientUnits="userSpaceOnUse">
<stop offset="0.29" stop-color="#3A8BFF"/>
<stop offset="1" stop-color="#81B5FF"/>
</linearGradient>
<linearGradient id="paint1_linear_10014_56396" x1="14.3812" y1="-0.223502" x2="1.88614" y2="31.9671" gradientUnits="userSpaceOnUse">
<stop offset="0.29" stop-color="#0062EE"/>
<stop offset="1" stop-color="#00398A"/>
</linearGradient>
<linearGradient id="paint2_linear_10014_56396" x1="20.7037" y1="36.7327" x2="24.9376" y2="12.5427" gradientUnits="userSpaceOnUse">
<stop offset="0.29" stop-color="#0062EE"/>
<stop offset="1" stop-color="#00398A"/>
</linearGradient>
<linearGradient id="paint3_linear_10014_56396" x1="15.6644" y1="44.9158" x2="15.6644" y2="22.4495" gradientUnits="userSpaceOnUse">
<stop offset="0.29" stop-color="#B3D2FF"/>
<stop offset="1" stop-color="white"/>
</linearGradient>
<linearGradient id="paint4_linear_10014_56396" x1="9.63982" y1="10.3546" x2="1.81903" y2="5.49509" gradientUnits="userSpaceOnUse">
<stop offset="0.29" stop-color="#3A8BFF"/>
<stop offset="1" stop-color="#81B5FF"/>
</linearGradient>
<clipPath id="clip0_10014_56396">
<rect width="91.7285" height="38" fill="white" transform="translate(0.468994)"/>
</clipPath>
<clipPath id="clip1_10014_56396">
<rect width="30.3689" height="34" fill="white" transform="translate(0.468994 3.02563)"/>
</clipPath>
<clipPath id="clip2_10014_56396">
<rect width="35" height="38" fill="white" transform="translate(57.1975)"/>
</clipPath>
</defs>
</svg>
