<svg width="38" height="38" viewBox="0 0 38 38" fill="none" xmlns="http://www.w3.org/2000/svg">
<g clip-path="url(#clip0_3649_13886)">
<circle cx="19" cy="19" r="19" fill="white"/>
<path d="M30.9854 7.9762L29.9404 9.0212C35.1008 14.6642 35.1008 23.313 29.9404 28.956L30.9854 30.001C36.7272 23.7728 36.7272 14.1816 30.9854 7.9534V7.9762Z" fill="#5A5564"/>
<path d="M9.04436 8.0636C14.6874 2.9032 23.3362 2.9032 28.9792 8.0636L30.0242 7.0186C23.796 1.2768 14.2048 1.2768 7.97656 7.0186L9.04436 8.0636Z" fill="#5A5564"/>
<path d="M8.06326 28.9636C2.91046 23.3206 2.91046 14.6794 8.06326 9.04019L7.01826 7.99519C1.27646 14.2234 1.27646 23.8146 7.01826 30.0428L8.06326 28.9636Z" fill="#5A5564"/>
<path d="M28.9632 29.9288C23.3202 35.0892 14.6714 35.0892 9.0284 29.9288L7.9834 30.9738C14.2116 36.7156 23.8028 36.7156 30.031 30.9738L28.9632 29.9288Z" fill="#5A5564"/>
<path d="M25.5858 15.5192C25.3768 13.3418 23.4996 12.6122 21.1246 12.388V9.3898H19.2892V12.331H17.8224V9.3898H15.9984V12.407H12.2744V14.3716C12.2744 14.3716 13.631 14.3488 13.6082 14.3716C14.1174 14.3146 14.5772 14.6718 14.6532 15.1772V23.4422C14.6418 23.617 14.562 23.7766 14.429 23.8906C14.2998 24.0046 14.1288 24.0654 13.9578 24.0502C13.9806 24.0692 12.624 24.0502 12.624 24.0502L12.2744 26.2466H15.9642V29.3132H17.7996V26.2922H19.2664V29.3018H21.1056V26.2694C24.2064 26.0832 26.3724 25.3156 26.6422 22.4124C26.8626 20.0754 25.7606 19.0304 24.005 18.6124C25.0728 18.088 25.734 17.1152 25.5858 15.5192ZM23.0132 22.0514C23.0132 24.3314 19.103 24.073 17.8604 24.073V20.026C19.1068 20.026 23.0132 19.6726 23.0132 22.0552V22.0514ZM22.162 16.3476C22.162 18.4338 18.8978 18.1792 17.8642 18.1792V14.5008C18.9016 14.5008 22.162 14.174 22.162 16.3476Z" fill="#F09242"/>
<path d="M18.9962 38C8.5044 37.9962 0 29.4918 0 18.9962C0 8.5044 8.5082 0 19.0038 0C29.4956 0 38 8.5044 38 18.9962C38 29.488 29.4956 37.9962 19.0038 38H18.9962ZM18.9962 1.482C9.329 1.4896 1.4934 9.3328 1.501 19.0038C1.5086 28.6748 9.3518 36.5066 19.0228 36.499C28.6824 36.4914 36.5142 28.6596 36.518 18.9962C36.5218 9.3252 28.6862 1.4858 19.0152 1.482C19.0076 1.482 19 1.482 18.9962 1.482Z" fill="#282138"/>
</g>
<defs>
<clipPath id="clip0_3649_13886">
<rect width="38" height="38" fill="white"/>
</clipPath>
</defs>
</svg>
