<svg width="30" height="30" viewBox="0 0 30 30" fill="none" xmlns="http://www.w3.org/2000/svg">
<path d="M15.0423 29.9912H14.9763C6.72597 29.9912 0.0136719 23.2789 0.0136719 15.0286V14.9626C0.0136719 6.7123 6.72597 0 14.9763 0H15.0423C23.2926 0 30.0048 6.7123 30.0048 14.9626V15.0286C30.0048 23.2789 23.2926 29.9912 15.0423 29.9912ZM14.9763 1.01517C7.28533 1.01517 1.02884 7.27166 1.02884 14.9626V15.0286C1.02884 22.7195 7.28533 28.976 14.9763 28.976H15.0423C22.7332 28.976 28.9897 22.7195 28.9897 15.0286V14.9626C28.9897 7.27166 22.7332 1.01517 15.0423 1.01517H14.9763Z" fill="white"/>
<path d="M15.0104 7.07861C19.3828 7.07861 22.9271 10.6229 22.9271 14.9953C22.9271 19.3677 19.3828 22.9119 15.0104 22.9119C13.6114 22.9144 12.2369 22.5441 11.0283 21.8392L7.09693 22.9119L8.16726 18.9789C7.46185 17.77 7.09131 16.395 7.09376 14.9953C7.09376 10.6229 10.6381 7.07861 15.0104 7.07861ZM12.3124 11.2744L12.1541 11.2808C12.0517 11.2878 11.9517 11.3147 11.8596 11.3599C11.7738 11.4086 11.6954 11.4694 11.6268 11.5404C11.5318 11.6299 11.478 11.7075 11.4202 11.7827C11.1274 12.1634 10.9697 12.6308 10.9721 13.1111C10.9737 13.499 11.0751 13.8767 11.2334 14.2297C11.5572 14.9438 12.09 15.6999 12.793 16.4005C12.9624 16.5691 13.1286 16.7385 13.3076 16.8961C14.1811 17.6651 15.222 18.2197 16.3476 18.5158L16.7972 18.5847C16.9437 18.5926 17.0901 18.5815 17.2374 18.5744C17.4679 18.5622 17.693 18.4998 17.8968 18.3915C18.0004 18.338 18.1016 18.2799 18.2001 18.2174C18.2001 18.2174 18.2336 18.1947 18.299 18.1461C18.4059 18.0669 18.4716 18.0107 18.5603 17.9181C18.6268 17.8495 18.6822 17.7698 18.7265 17.679C18.7883 17.55 18.85 17.3038 18.8753 17.0987C18.8943 16.942 18.8888 16.8565 18.8864 16.8034C18.8833 16.7187 18.8128 16.6309 18.736 16.5937L18.2753 16.387C18.2753 16.387 17.5865 16.087 17.1653 15.8954C17.1213 15.8762 17.074 15.8652 17.026 15.8629C16.9718 15.8573 16.9171 15.8633 16.8655 15.8807C16.8138 15.898 16.7665 15.9263 16.7268 15.9635C16.7228 15.9619 16.6698 16.007 16.0974 16.7005C16.0645 16.7447 16.0193 16.778 15.9674 16.7964C15.9155 16.8147 15.8593 16.8172 15.8061 16.8034C15.7545 16.7897 15.7039 16.7722 15.6548 16.7512C15.5567 16.71 15.5226 16.6942 15.4553 16.6657C15.0008 16.4677 14.5801 16.1998 14.2085 15.8717C14.1087 15.7846 14.0161 15.6896 13.9211 15.5977C13.6097 15.2994 13.3382 14.962 13.1136 14.5939L13.0669 14.5187C13.0338 14.4679 13.0068 14.4134 12.9861 14.3564C12.9561 14.24 13.0344 14.1466 13.0344 14.1466C13.0344 14.1466 13.2268 13.936 13.3163 13.822C13.4033 13.7112 13.477 13.6035 13.5245 13.5267C13.6179 13.3763 13.6472 13.2219 13.5981 13.1024C13.3764 12.5609 13.1474 12.0223 12.9109 11.4866C12.8642 11.3805 12.7257 11.3045 12.5998 11.2895C12.5571 11.2842 12.5143 11.28 12.4716 11.2768C12.3653 11.2707 12.2587 11.2718 12.1525 11.28L12.3124 11.2744Z" fill="white"/>
</svg>
