<svg width="39" height="38" viewBox="0 0 39 38" fill="none" xmlns="http://www.w3.org/2000/svg">
<path fill-rule="evenodd" clip-rule="evenodd" d="M7.46277 4.03849L0.531082 17.348C0.503364 17.3962 0.493818 17.4514 0.503922 17.5051C0.514027 17.5588 0.543219 17.6079 0.586973 17.6449L19.2985 34.0466C19.3524 34.0909 19.4223 34.1155 19.4948 34.1155C19.5673 34.1155 19.6372 34.0909 19.691 34.0466L38.4138 17.6449C38.4571 17.6077 38.4859 17.5586 38.496 17.505C38.5061 17.4514 38.4969 17.3963 38.4697 17.348L31.538 4.03849C31.5196 3.9922 31.4856 3.9524 31.441 3.92477C31.3964 3.89714 31.3434 3.88309 31.2896 3.88462H7.70868C7.65554 3.88595 7.60393 3.90114 7.55992 3.9284C7.51591 3.95566 7.48134 3.99386 7.46028 4.03849H7.46277Z" fill="url(#paint0_linear_3649_17263)"/>
<path fill-rule="evenodd" clip-rule="evenodd" d="M21.5981 17.9383C21.4812 17.9472 20.8761 17.9828 19.5291 17.9828C18.456 17.9828 17.6945 17.9561 17.4212 17.9383C13.2742 17.7691 10.1808 17.1085 10.1808 16.3233C10.1808 15.538 13.2742 14.8691 17.4212 14.6998V17.2782C17.6918 17.296 18.4657 17.3406 19.5389 17.3406C20.8269 17.3406 21.4709 17.2871 21.5883 17.2782V14.6998C25.7256 14.8691 28.819 15.5296 28.819 16.3144C28.819 17.0991 25.7343 17.7691 21.5981 17.9383ZM21.5981 14.4411V12.1298H27.3751V8.60588H11.6447V12.1298H17.4212V14.4411C12.7276 14.639 9.19531 15.4846 9.19531 16.5108C9.19531 17.537 12.7276 18.3757 17.4212 18.5805V25.9773H21.5981V18.5805C26.282 18.3826 29.805 17.5365 29.805 16.5197C29.805 15.5029 26.282 14.637 21.5981 14.4415V14.4411Z" fill="white"/>
<defs>
<linearGradient id="paint0_linear_3649_17263" x1="-0.101345" y1="18.4695" x2="36.7556" y2="18.4695" gradientUnits="userSpaceOnUse">
<stop stop-color="#D3B25B"/>
</linearGradient>
</defs>
</svg>
