<svg width="179" height="50" viewBox="0 0 179 50" fill="none" xmlns="http://www.w3.org/2000/svg">
<g clip-path="url(#clip0_4231_18423)">
<path d="M33.9756 0.00488281L1.06885 49.3799H15.3024L48.2041 0.00488281H33.9756Z" fill="#111111"/>
<path d="M11.2679 18.723C16.4124 18.1831 20.147 13.5685 19.607 8.40904C19.507 7.45414 19.2671 6.54923 18.9121 5.71431L28.1962 0.00488281H10.293C9.968 0.00488281 9.64304 0.0198813 9.31807 0.0548778C4.16858 0.599823 0.438958 5.21436 0.973904 10.3688C1.51385 15.5233 6.12339 19.263 11.2679 18.723Z" fill="#111111"/>
<path d="M38.8803 30.667C33.7359 31.2069 30.0012 35.8214 30.5412 40.9809C30.6412 41.9358 30.8811 42.8407 31.2361 43.6757L21.957 49.3851H39.8602C40.1852 49.3851 40.5102 49.3701 40.8351 49.3351C45.9796 48.7951 49.7143 44.1806 49.1743 39.0261C48.6344 33.8716 44.0248 30.132 38.8803 30.672V30.667Z" fill="#111111"/>
<path d="M93.6095 12.3936C91.1298 12.3936 86.8902 13.1535 83.7105 16.7481L82.2857 13.1285H73.5615V49.3849H83.7755V27.757C83.7755 19.5628 96.8292 18.7579 96.8292 27.1571V49.3849H107.038V26.1772C106.883 20.2528 103.539 12.3936 93.6045 12.3936H93.6095Z" fill="#111111"/>
<path d="M160.343 0.0146484H150.129V49.3847H160.343V0.0146484Z" fill="#111111"/>
<path d="M65.3727 13.1289H55.1587V49.3853H65.3727V13.1289Z" fill="#111111"/>
<path d="M65.3727 0.00488281H55.1587V8.849H65.3727V0.00488281Z" fill="#FF652A"/>
<path d="M178.736 13.1289H168.522V49.3853H178.736V13.1289Z" fill="#111111"/>
<path d="M178.736 0.00488281H168.522V8.849H178.736V0.00488281Z" fill="#111111"/>
<path d="M136.115 28.5668C135.16 28.1969 128.601 26.2471 125.431 25.2922C121.612 24.1373 122.732 19.7777 127.971 19.7777C130.421 19.7777 133.64 20.5976 133.985 24.0473H143.445C142.31 16.3231 136.63 12.5234 127.821 12.5234C122.872 12.5234 115.972 14.3133 113.962 20.8976C112.623 25.2772 114.687 30.8116 121.002 32.8314C124.226 33.8613 128.741 35.2312 131.916 36.1361C137.145 37.6259 135.585 42.6504 129.261 42.4604C125.886 42.3605 122.917 40.8856 122.027 37.221H112.538C112.988 43.2454 118.202 50.0047 129.401 50.0047C134.875 50.0047 144.489 48.0849 144.714 39.1658C144.874 32.9214 140.065 30.0917 136.11 28.5668H136.115Z" fill="#111111"/>
</g>
<defs>
<clipPath id="clip0_4231_18423">
<rect width="177.812" height="50" fill="white" transform="translate(0.923828 0.00488281)"/>
</clipPath>
</defs>
</svg>
