<?xml version="1.0" encoding="UTF-8"?><svg id="Ebene_2" xmlns="http://www.w3.org/2000/svg" viewBox="0 0 355.66 100"><defs><style>.cls-1{fill:#111;}.cls-2{fill:#ff652a;}</style></defs><g id="Ebene_1-2"><path class="cls-1" d="M66.11,0L.29,98.76h28.47S94.57,0,94.57,0h-28.46Z"/><path class="cls-1" d="M20.69,37.44c10.29-1.08,17.76-10.31,16.68-20.63-.2-1.91-.68-3.72-1.39-5.39L54.55,0H18.74c-.65,0-1.3.03-1.95.1C6.49,1.19-.97,10.42.1,20.73c1.08,10.31,10.3,17.79,20.59,16.71Z"/><path class="cls-1" d="M75.92,61.33c-10.29,1.08-17.76,10.31-16.68,20.63.2,1.91.68,3.72,1.39,5.39l-18.56,11.42h35.81c.65,0,1.3-.03,1.95-.1,10.29-1.08,17.76-10.31,16.68-20.62-1.08-10.31-10.3-17.79-20.59-16.71Z"/><path class="cls-1" d="M185.39,24.78c-4.96,0-13.44,1.52-19.8,8.71l-2.85-7.24h-17.45v72.52h20.43v-43.26c0-16.39,26.11-18,26.11-1.2v44.46s20.42,0,20.42,0v-46.42c-.31-11.85-7-27.57-26.87-27.57Z"/><path class="cls-1" d="M318.87.02h-20.43v98.75h20.43V.02Z"/><path class="cls-1" d="M128.91,26.25h-20.43v72.52h20.43V26.25Z"/><path class="cls-2" d="M128.91,0h-20.43v17.69h20.43V0Z"/><path class="cls-1" d="M355.66,26.25h-20.43v72.52h20.43V26.25Z"/><path class="cls-1" d="M355.66,0h-20.43v17.69h20.43V0Z"/><path class="cls-1" d="M270.41,57.13c-1.91-.74-15.03-4.64-21.37-6.55-7.64-2.31-5.4-11.03,5.08-11.03,4.9,0,11.34,1.64,12.03,8.54h18.92c-2.27-15.45-13.63-23.05-31.25-23.05-9.9,0-23.7,3.58-27.72,16.75-2.68,8.76,1.45,19.83,14.08,23.87,6.45,2.06,15.48,4.8,21.83,6.61,10.46,2.98,7.34,13.03-5.31,12.65-6.75-.2-12.69-3.15-14.47-10.48h-18.98c.9,12.05,11.33,25.57,33.73,25.57,10.95,0,30.18-3.84,30.63-21.68.32-12.49-9.3-18.15-17.21-21.2Z"/></g></svg>